<svg width="21" height="20" viewBox="0 0 21 20" fill="none" xmlns="http://www.w3.org/2000/svg">
<g clip-path="url(#clip0_6985_3542)">
<path d="M14.2491 0C13.1828 0.0737496 11.9366 0.756246 11.2103 1.64499C10.5479 2.45124 10.0029 3.64873 10.2154 4.81247C11.3803 4.84872 12.5841 4.14998 13.2816 3.24623C13.9341 2.40499 14.4278 1.21499 14.2491 0Z" fill="white"/>
<path d="M18.4628 6.70989C17.4391 5.42615 16.0003 4.68115 14.6416 4.68115C12.8478 4.68115 12.0891 5.5399 10.8429 5.5399C9.55786 5.5399 8.58162 4.68365 7.03038 4.68365C5.50663 4.68365 3.88414 5.6149 2.8554 7.20739C1.40916 9.44987 1.65666 13.6661 4.00039 17.2573C4.83914 18.5423 5.95913 19.9873 7.42412 19.9998C8.72787 20.0123 9.09536 19.1636 10.8616 19.1548C12.6278 19.1448 12.9628 20.0111 14.2641 19.9973C15.7303 19.9861 16.9116 18.3848 17.7503 17.0998C18.3516 16.1786 18.5753 15.7148 19.0416 14.6748C15.6503 13.3836 15.1066 8.56113 18.4628 6.70989Z" fill="white"/>
</g>
<defs>
<clipPath id="clip0_6985_3542">
<rect width="20" height="20" fill="white" transform="translate(0.5)"/>
</clipPath>
</defs>
</svg>
