<svg width="21" height="20" viewBox="0 0 21 20" fill="none" xmlns="http://www.w3.org/2000/svg">
<g clip-path="url(#clip0_6985_3552)">
<path d="M8.58738 11.0333C8.52458 11.0333 7.20718 11.0337 6.59958 11.0331C6.28678 11.0329 6.17518 10.9205 6.17518 10.6057C6.17478 9.79712 6.17458 8.98852 6.17518 8.17992C6.17538 7.86912 6.29338 7.75052 6.60218 7.75032C7.20978 7.74992 8.51998 7.75012 8.58738 7.75012C8.58738 7.69472 8.58718 6.52732 8.58738 5.98972C8.58778 5.19492 8.72958 4.43412 9.13338 3.73752C9.54678 3.02452 10.1484 2.53612 10.9194 2.25372C11.4132 2.07272 11.9258 2.00052 12.4498 2.00012C13.1054 1.99972 13.761 2.00032 14.4168 2.00152C14.6986 2.00192 14.8236 2.12652 14.8242 2.41032C14.8254 3.17092 14.8254 3.93152 14.8242 4.69192C14.8238 4.97872 14.704 5.09392 14.4158 5.09712C13.8784 5.10292 13.3406 5.09932 12.8038 5.12092C12.2616 5.12092 11.9764 5.38572 11.9764 5.94692C11.9634 6.54052 11.971 7.13472 11.971 7.74992C12.0218 7.74992 13.5648 7.74972 14.286 7.74992C14.6136 7.74992 14.7256 7.86252 14.7256 8.19192C14.7256 8.99612 14.7254 9.80052 14.7248 10.6047C14.7246 10.9293 14.6194 11.0329 14.2898 11.0331C13.5686 11.0335 12.0316 11.0333 11.9644 11.0333V17.5423C11.9644 17.8893 11.8552 17.9999 11.5128 17.9999C10.678 17.9999 9.84298 18.0001 9.00818 17.9999C8.70558 17.9999 8.58758 17.8823 8.58758 17.5797C8.58738 15.4599 8.58738 11.1077 8.58738 11.0333Z" fill="white"/>
</g>
<defs>
<clipPath id="clip0_6985_3552">
<rect width="20" height="20" fill="white" transform="translate(0.5)"/>
</clipPath>
</defs>
</svg>
