<svg width="50" height="50" viewBox="0 0 50 50" fill="none" xmlns="http://www.w3.org/2000/svg">
<g clip-path="url(#clip0_2434_53600)">
<path d="M20.2185 27.5828C20.0615 27.5828 16.768 27.5838 15.249 27.5823C14.467 27.5818 14.188 27.3008 14.188 26.5138C14.187 24.4923 14.1865 22.4708 14.188 20.4493C14.1885 19.6723 14.4835 19.3758 15.2555 19.3753C16.7745 19.3743 20.05 19.3748 20.2185 19.3748C20.2185 19.2363 20.218 16.3178 20.2185 14.9738C20.2195 12.9868 20.574 11.0848 21.5835 9.34332C22.617 7.56082 24.121 6.33982 26.0485 5.63382C27.283 5.18132 28.5645 5.00082 29.8745 4.99982C31.5135 4.99882 33.1525 5.00032 34.792 5.00332C35.4965 5.00432 35.809 5.31582 35.8105 6.02532C35.8135 7.92682 35.8135 9.82832 35.8105 11.7293C35.8095 12.4463 35.51 12.7343 34.7895 12.7423C33.446 12.7568 32.1015 12.7478 30.7595 12.8018C29.404 12.8018 28.691 13.4638 28.691 14.8668C28.6585 16.3508 28.6775 17.8363 28.6775 19.3743C28.8045 19.3743 32.662 19.3738 34.465 19.3743C35.284 19.3743 35.564 19.6558 35.564 20.4793C35.564 22.4898 35.5635 24.5008 35.562 26.5113C35.5615 27.3228 35.2985 27.5818 34.4745 27.5823C32.6715 27.5833 28.829 27.5828 28.661 27.5828V43.8553C28.661 44.7228 28.388 44.9993 27.532 44.9993C25.445 44.9993 23.3575 44.9998 21.2705 44.9993C20.514 44.9993 20.219 44.7053 20.219 43.9488C20.2185 38.6493 20.2185 27.7688 20.2185 27.5828Z" fill="#3D6AD6"/>
</g>
<defs>
<clipPath id="clip0_2434_53600">
<rect width="50" height="50" fill="white"/>
</clipPath>
</defs>
</svg>
