<svg width="21" height="20" viewBox="0 0 21 20" fill="none" xmlns="http://www.w3.org/2000/svg">
<g clip-path="url(#clip0_6985_3533)">
<path d="M4.93242 12.086L4.23625 14.6849L1.69176 14.7388C0.931328 13.3283 0.5 11.7146 0.5 9.99979C0.5 8.34154 0.903281 6.77779 1.61812 5.40088H1.61867L3.88398 5.81619L4.87633 8.06791C4.66863 8.67342 4.55543 9.32342 4.55543 9.99979C4.55551 10.7338 4.68848 11.4372 4.93242 12.086Z" fill="white"/>
<path d="M20.3253 8.13184C20.4401 8.73676 20.5 9.36148 20.5 9.99996C20.5 10.7159 20.4247 11.4143 20.2813 12.0879C19.7945 14.3802 18.5225 16.3818 16.7605 17.7983L16.7599 17.7978L13.9066 17.6522L13.5028 15.1313C14.672 14.4456 15.5858 13.3725 16.0671 12.0879H10.7198V8.13184H16.1451H20.3253Z" fill="white"/>
<path d="M16.7599 17.7979L16.7604 17.7985C15.0467 19.176 12.8698 20.0001 10.5 20.0001C6.69177 20.0001 3.3808 17.8716 1.69177 14.7392L4.93244 12.0864C5.77693 14.3403 7.95111 15.9447 10.5 15.9447C11.5956 15.9447 12.622 15.6485 13.5027 15.1315L16.7599 17.7979Z" fill="white"/>
<path d="M16.883 2.30219L13.6434 4.95437C12.7319 4.38461 11.6544 4.05547 10.5 4.05547C7.89344 4.05547 5.67859 5.73348 4.87641 8.06812L1.61871 5.40109H1.61816C3.28246 2.1923 6.6352 0 10.5 0C12.9264 0 15.1511 0.864297 16.883 2.30219Z" fill="white"/>
</g>
<defs>
<clipPath id="clip0_6985_3533">
<rect width="20" height="20" fill="white" transform="translate(0.5)"/>
</clipPath>
</defs>
</svg>
