<svg width="72" height="40" viewBox="0 0 72 40" fill="none" xmlns="http://www.w3.org/2000/svg">
<g clip-path="url(#clip0_7386_21433)">
<path fill-rule="evenodd" clip-rule="evenodd" d="M0 16.6487H14.6139C22.6881 16.6487 29.2277 21.8739 29.2277 28.3244C29.2277 34.7748 22.6881 40 14.6139 40H0V16.6487Z" fill="url(#paint0_linear_7386_21433)"/>
<path fill-rule="evenodd" clip-rule="evenodd" d="M0 0H14.6139C22.6881 0 29.2277 5.20721 29.2277 11.6216C29.2277 18.036 22.6881 23.2432 14.6139 23.2432H0V0Z" fill="url(#paint1_linear_7386_21433)"/>
<path fill-rule="evenodd" clip-rule="evenodd" d="M0 11.1353L25.0523 20.2524L0 31.7839V11.1353Z" fill="url(#paint2_linear_7386_21433)"/>
</g>
<path d="M42.1621 13.6799H44.1467V19.8285C44.6334 19.1885 45.1961 18.6933 45.8348 18.3428C46.4736 17.9923 47.2263 17.8171 48.0932 17.8171C48.9296 17.8171 49.6596 17.9695 50.2831 18.2742C50.9219 18.579 51.4465 19.0056 51.8572 19.5542C52.283 20.1028 52.5947 20.758 52.7924 21.5199C53.0054 22.2666 53.1118 23.0971 53.1118 24.0114C53.1118 24.9866 52.9902 25.8704 52.7468 26.6628C52.5035 27.4399 52.1537 28.1028 51.6975 28.6514C51.2412 29.1999 50.6862 29.6266 50.0322 29.9314C49.3935 30.2209 48.6711 30.3656 47.8651 30.3656C47.1807 30.3656 46.5116 30.2285 45.8576 29.9542C45.2189 29.6647 44.641 29.1771 44.1239 28.4914V29.9999H42.1621V13.6799ZM44.1239 24.4228C44.1239 25.1847 44.2076 25.8399 44.3749 26.3885C44.5574 26.9218 44.8007 27.3637 45.1048 27.7142C45.409 28.0647 45.774 28.3237 46.1998 28.4914C46.6256 28.6437 47.0895 28.7199 47.5913 28.7199C48.078 28.7199 48.5266 28.6361 48.9372 28.4685C49.3631 28.3009 49.7281 28.0342 50.0322 27.6685C50.3364 27.2876 50.5721 26.7999 50.7394 26.2056C50.9219 25.6114 51.0131 24.8876 51.0131 24.0342C51.0131 23.1656 50.9143 22.4418 50.7166 21.8628C50.5341 21.2685 50.2907 20.7961 49.9866 20.4456C49.6824 20.0952 49.3326 19.8437 48.9372 19.6914C48.557 19.539 48.1616 19.4628 47.751 19.4628C47.234 19.4628 46.7549 19.5542 46.3139 19.7371C45.8728 19.9047 45.485 20.1637 45.1505 20.5142C44.8311 20.8495 44.5802 21.2837 44.3977 21.8171C44.2152 22.3352 44.1239 22.9371 44.1239 23.6228V24.4228Z" fill="white"/>
<path d="M55.8191 18.1828H57.8038V29.9999H55.8191V18.1828ZM55.7507 13.6799H57.8722V15.9885H55.7507V13.6799Z" fill="white"/>
<path d="M68.2427 28.3771C67.8169 28.8952 67.277 29.3447 66.623 29.7256C65.9691 30.0914 65.1555 30.2742 64.1822 30.2742C63.5891 30.2742 63.0416 30.198 62.5397 30.0456C62.0531 29.9085 61.6272 29.6952 61.2623 29.4056C60.9125 29.1009 60.6387 28.7276 60.441 28.2856C60.2433 27.8437 60.1445 27.3256 60.1445 26.7314C60.1445 25.9237 60.3118 25.2685 60.6463 24.7656C60.9961 24.2628 61.4524 23.8666 62.015 23.5771C62.5929 23.2876 63.2393 23.0818 63.9541 22.9599C64.6688 22.838 65.4064 22.7618 66.1668 22.7314L68.1971 22.6628V22.2056C68.1971 21.1999 67.9841 20.4761 67.5583 20.0342C67.1325 19.5923 66.4405 19.3714 65.4824 19.3714C64.5396 19.3714 63.8476 19.5314 63.4066 19.8514C62.9655 20.1561 62.6766 20.5828 62.5397 21.1314L60.7376 20.9256C60.9505 19.8437 61.46 19.059 62.266 18.5714C63.072 18.0685 64.167 17.8171 65.5509 17.8171C66.4025 17.8171 67.1173 17.9237 67.6952 18.1371C68.2883 18.3352 68.7674 18.6247 69.1323 19.0056C69.4973 19.3866 69.7559 19.859 69.908 20.4228C70.0752 20.9866 70.1589 21.619 70.1589 22.3199V29.9999H68.2427V28.3771ZM68.1971 24.0799L66.3037 24.1485C65.4977 24.179 64.8285 24.2552 64.2962 24.3771C63.764 24.499 63.3381 24.6666 63.0188 24.8799C62.7146 25.078 62.4941 25.3295 62.3572 25.6342C62.2356 25.939 62.1747 26.2895 62.1747 26.6856C62.1747 27.2799 62.3496 27.7599 62.6994 28.1256C63.0644 28.4761 63.6575 28.6514 64.4787 28.6514C65.6497 28.6514 66.5622 28.3618 67.2162 27.7828C67.8701 27.2037 68.1971 26.4114 68.1971 25.4056V24.0799Z" fill="white"/>
<defs>
<linearGradient id="paint0_linear_7386_21433" x1="46.3664" y1="73.009" x2="0.816221" y2="15.999" gradientUnits="userSpaceOnUse">
<stop stop-color="#3A6FCE"/>
<stop offset="0.25" stop-color="#2F5CAC"/>
<stop offset="0.5" stop-color="#1E3E77"/>
<stop offset="0.75" stop-color="#2F5CAC"/>
<stop offset="1" stop-color="#3A6FCE"/>
</linearGradient>
<linearGradient id="paint1_linear_7386_21433" x1="46.1791" y1="56.2432" x2="0.888754" y2="-0.706707" gradientUnits="userSpaceOnUse">
<stop stop-color="#00B8FF"/>
<stop offset="0.25" stop-color="#009AD9"/>
<stop offset="0.5" stop-color="#006A96"/>
<stop offset="0.75" stop-color="#009AD9"/>
<stop offset="1" stop-color="#00B8FF"/>
</linearGradient>
<linearGradient id="paint2_linear_7386_21433" x1="50.1047" y1="21.4596" x2="0" y2="21.4596" gradientUnits="userSpaceOnUse">
<stop stop-color="#2499FF"/>
<stop offset="0.25" stop-color="#1C80E3"/>
<stop offset="0.5" stop-color="#10579E"/>
<stop offset="0.75" stop-color="#1C80E3"/>
<stop offset="1" stop-color="#2499FF"/>
</linearGradient>
<clipPath id="clip0_7386_21433">
<rect width="29.2277" height="40" fill="white"/>
</clipPath>
</defs>
</svg>
