<svg width="86" height="48" viewBox="0 0 86 48" fill="none" xmlns="http://www.w3.org/2000/svg">
<g clip-path="url(#clip0_7386_32583)">
<path fill-rule="evenodd" clip-rule="evenodd" d="M0 19.9785H17.4554C27.0996 19.9785 34.9109 26.2488 34.9109 33.9893C34.9109 41.7299 27.0996 48.0001 17.4554 48.0001H0V19.9785Z" fill="url(#paint0_linear_7386_32583)"/>
<path fill-rule="evenodd" clip-rule="evenodd" d="M0 0H17.4554C27.0996 0 34.9109 6.24865 34.9109 13.9459C34.9109 21.6432 27.0996 27.8919 17.4554 27.8919H0V0Z" fill="url(#paint1_linear_7386_32583)"/>
<path fill-rule="evenodd" clip-rule="evenodd" d="M0 13.3623L29.9236 24.3028L0 38.1407V13.3623Z" fill="url(#paint2_linear_7386_32583)"/>
</g>
<path d="M50.3594 16.416H52.7299V23.7943C53.3112 23.0263 53.9833 22.432 54.7462 22.0114C55.5092 21.5909 56.4083 21.3806 57.4437 21.3806C58.4428 21.3806 59.3147 21.5634 60.0595 21.9292C60.8224 22.2949 61.4491 22.8069 61.9396 23.4652C62.4482 24.1234 62.8206 24.9097 63.0567 25.824C63.311 26.72 63.4382 27.7166 63.4382 28.8137C63.4382 29.984 63.2929 31.0446 63.0022 31.9954C62.7116 32.928 62.2938 33.7234 61.7488 34.3817C61.2039 35.04 60.5409 35.552 59.7598 35.9177C58.9968 36.2652 58.134 36.4389 57.1713 36.4389C56.3538 36.4389 55.5546 36.2743 54.7735 35.9452C54.0105 35.5977 53.3203 35.0126 52.7027 34.1897V36H50.3594V16.416ZM52.7027 29.3074C52.7027 30.2217 52.8026 31.008 53.0024 31.6663C53.2204 32.3063 53.511 32.8366 53.8743 33.2572C54.2376 33.6777 54.6736 33.9886 55.1822 34.1897C55.6908 34.3726 56.2448 34.464 56.8443 34.464C57.4256 34.464 57.9614 34.3634 58.4519 34.1623C58.9605 33.9612 59.3965 33.6412 59.7598 33.2023C60.1231 32.7452 60.4046 32.16 60.6044 31.4469C60.8224 30.7337 60.9314 29.8652 60.9314 28.8412C60.9314 27.7989 60.8133 26.9303 60.5772 26.2354C60.3592 25.5223 60.0686 24.9554 59.7053 24.5349C59.342 24.1143 58.9242 23.8126 58.4519 23.6297C57.9978 23.4469 57.5255 23.3554 57.035 23.3554C56.4174 23.3554 55.8452 23.4652 55.3184 23.6846C54.7916 23.8857 54.3284 24.1966 53.9288 24.6172C53.5473 25.0194 53.2476 25.5406 53.0296 26.1806C52.8117 26.8023 52.7027 27.5246 52.7027 28.3474V29.3074Z" fill="white"/>
<path d="M66.6719 21.8194H69.0424V36H66.6719V21.8194ZM66.5902 16.416H69.1242V19.1863H66.5902V16.416Z" fill="white"/>
<path d="M81.5112 34.0526C81.0026 34.6743 80.3577 35.2137 79.5766 35.6709C78.7955 36.1097 77.8237 36.3292 76.6611 36.3292C75.9527 36.3292 75.2987 36.2377 74.6993 36.0549C74.118 35.8903 73.6094 35.6343 73.1734 35.2869C72.7556 34.9212 72.4287 34.4732 72.1925 33.9429C71.9564 33.4126 71.8383 32.7909 71.8383 32.0777C71.8383 31.1086 72.0381 30.3223 72.4377 29.7189C72.8555 29.1154 73.4005 28.64 74.0726 28.2926C74.7629 27.9452 75.5349 27.6983 76.3886 27.552C77.2424 27.4057 78.1234 27.3143 79.0316 27.2777L81.4567 27.1954V26.6469C81.4567 25.44 81.2024 24.5714 80.6937 24.0412C80.1851 23.5109 79.3586 23.2457 78.2142 23.2457C77.088 23.2457 76.2615 23.4377 75.7347 23.8217C75.2079 24.1874 74.8628 24.6994 74.6993 25.3577L72.5467 25.1109C72.801 23.8126 73.4096 22.8709 74.3723 22.2857C75.3351 21.6823 76.6429 21.3806 78.296 21.3806C79.3132 21.3806 80.167 21.5086 80.8572 21.7646C81.5657 22.0023 82.1379 22.3497 82.5738 22.8069C83.0098 23.264 83.3186 23.8309 83.5002 24.5074C83.7001 25.184 83.8 25.9429 83.8 26.784V36H81.5112V34.0526ZM81.4567 28.896L79.1951 28.9783C78.2324 29.0149 77.4331 29.1063 76.7973 29.2526C76.1616 29.3989 75.653 29.6 75.2715 29.856C74.9082 30.0937 74.6448 30.3954 74.4813 30.7612C74.336 31.1269 74.2633 31.5474 74.2633 32.0229C74.2633 32.736 74.4722 33.312 74.89 33.7509C75.326 34.1714 76.0344 34.3817 77.0153 34.3817C78.414 34.3817 79.5039 34.0343 80.285 33.3394C81.0661 32.6446 81.4567 31.6937 81.4567 30.4869V28.896Z" fill="white"/>
<defs>
<linearGradient id="paint0_linear_7386_32583" x1="55.3821" y1="87.6109" x2="0.666429" y2="19.4465" gradientUnits="userSpaceOnUse">
<stop stop-color="#3A6FCE"/>
<stop offset="0.25" stop-color="#2F5CAC"/>
<stop offset="0.5" stop-color="#1E3E77"/>
<stop offset="0.75" stop-color="#2F5CAC"/>
<stop offset="1" stop-color="#3A6FCE"/>
</linearGradient>
<linearGradient id="paint1_linear_7386_32583" x1="55.1584" y1="67.4919" x2="0.753704" y2="-0.602077" gradientUnits="userSpaceOnUse">
<stop stop-color="#00B8FF"/>
<stop offset="0.25" stop-color="#009AD9"/>
<stop offset="0.5" stop-color="#006A96"/>
<stop offset="0.75" stop-color="#009AD9"/>
<stop offset="1" stop-color="#00B8FF"/>
</linearGradient>
<linearGradient id="paint2_linear_7386_32583" x1="59.8472" y1="25.7515" x2="0" y2="25.7515" gradientUnits="userSpaceOnUse">
<stop stop-color="#2499FF"/>
<stop offset="0.25" stop-color="#1C80E3"/>
<stop offset="0.5" stop-color="#10579E"/>
<stop offset="0.75" stop-color="#1C80E3"/>
<stop offset="1" stop-color="#2499FF"/>
</linearGradient>
<clipPath id="clip0_7386_32583">
<rect width="34.9109" height="48" fill="white"/>
</clipPath>
</defs>
</svg>
