<svg width="58" height="32" viewBox="0 0 58 32" fill="none" xmlns="http://www.w3.org/2000/svg">
<g clip-path="url(#clip0_2434_56753)">
<path fill-rule="evenodd" clip-rule="evenodd" d="M0 13.3189H11.7723C18.2765 13.3189 23.5446 17.4991 23.5446 22.6594C23.5446 27.8198 18.2765 32 11.7723 32H0V13.3189Z" fill="url(#paint0_linear_2434_56753)"/>
<path fill-rule="evenodd" clip-rule="evenodd" d="M0 0H11.7723C18.2765 0 23.5446 4.16577 23.5446 9.2973C23.5446 14.4288 18.2765 18.5946 11.7723 18.5946H0V0Z" fill="url(#paint1_linear_2434_56753)"/>
<path fill-rule="evenodd" clip-rule="evenodd" d="M0 8.90808L20.181 16.2018L0 25.427V8.90808Z" fill="url(#paint2_linear_2434_56753)"/>
</g>
<path d="M33.9648 10.944H35.5636V15.8628C35.9556 15.3508 36.4089 14.9546 36.9234 14.6743C37.438 14.3939 38.0444 14.2537 38.7427 14.2537C39.4165 14.2537 40.0045 14.3756 40.5068 14.6194C41.0213 14.8632 41.444 15.2045 41.7747 15.6434C42.1178 16.0823 42.3689 16.6064 42.5282 17.216C42.6997 17.8133 42.7854 18.4777 42.7854 19.2091C42.7854 19.9893 42.6874 20.6964 42.4914 21.3303C42.2954 21.952 42.0136 22.4823 41.6461 22.9211C41.2786 23.36 40.8314 23.7013 40.3046 23.9451C39.7901 24.1767 39.2082 24.2925 38.5589 24.2925C38.0076 24.2925 37.4686 24.1828 36.9418 23.9634C36.4273 23.7318 35.9617 23.3417 35.5452 22.7931V24H33.9648V10.944ZM35.5452 19.5383C35.5452 20.1478 35.6126 20.672 35.7473 21.1108C35.8943 21.5375 36.0904 21.891 36.3354 22.1714C36.5804 22.4518 36.8744 22.659 37.2174 22.7931C37.5605 22.915 37.9341 22.976 38.3384 22.976C38.7304 22.976 39.0918 22.9089 39.4226 22.7748C39.7656 22.6407 40.0596 22.4274 40.3046 22.1348C40.5497 21.8301 40.7396 21.44 40.8743 20.9645C41.0213 20.4891 41.0948 19.9101 41.0948 19.2274C41.0948 18.5325 41.0152 17.9535 40.8559 17.4903C40.7089 17.0148 40.5129 16.6369 40.2679 16.3565C40.0229 16.0762 39.7411 15.875 39.4226 15.7531C39.1163 15.6312 38.7978 15.5703 38.467 15.5703C38.0505 15.5703 37.6646 15.6434 37.3093 15.7897C36.954 15.9238 36.6416 16.131 36.3721 16.4114C36.1149 16.6796 35.9127 17.027 35.7657 17.4537C35.6187 17.8682 35.5452 18.3497 35.5452 18.8983V19.5383Z" fill="white"/>
<path d="M44.9663 14.5463H46.5651V24H44.9663V14.5463ZM44.9112 10.944H46.6202V12.7908H44.9112V10.944Z" fill="white"/>
<path d="M54.9742 22.7017C54.6312 23.1162 54.1963 23.4758 53.6695 23.7805C53.1427 24.0731 52.4873 24.2194 51.7032 24.2194C51.2254 24.2194 50.7844 24.1584 50.3801 24.0365C49.9881 23.9268 49.6451 23.7562 49.3511 23.5245C49.0693 23.2807 48.8488 22.9821 48.6895 22.6285C48.5303 22.275 48.4506 21.8605 48.4506 21.3851C48.4506 20.739 48.5854 20.2148 48.8549 19.8125C49.1367 19.4103 49.5042 19.0933 49.9575 18.8617C50.423 18.6301 50.9437 18.4655 51.5195 18.368C52.0953 18.2704 52.6894 18.2095 53.302 18.1851L54.9374 18.1303V17.7645C54.9374 16.96 54.7659 16.3809 54.4229 16.0274C54.0799 15.6739 53.5225 15.4971 52.7507 15.4971C51.9911 15.4971 51.4337 15.6251 51.0784 15.8811C50.7232 16.1249 50.4904 16.4663 50.3801 16.9051L48.9284 16.7405C49.0999 15.875 49.5103 15.2472 50.1596 14.8571C50.8089 14.4548 51.691 14.2537 52.8058 14.2537C53.4918 14.2537 54.0676 14.339 54.5332 14.5097C55.0109 14.6682 55.3968 14.8998 55.6909 15.2045C55.9849 15.5093 56.1932 15.8872 56.3157 16.3383C56.4504 16.7893 56.5178 17.2952 56.5178 17.856V24H54.9742V22.7017ZM54.9374 19.264L53.4122 19.3188C52.7629 19.3432 52.2239 19.4042 51.7951 19.5017C51.3663 19.5992 51.0233 19.7333 50.766 19.904C50.521 20.0624 50.3434 20.2636 50.2331 20.5074C50.1351 20.7512 50.0861 21.0316 50.0861 21.3485C50.0861 21.824 50.227 22.208 50.5088 22.5005C50.8028 22.7809 51.2806 22.9211 51.9421 22.9211C52.8854 22.9211 53.6205 22.6895 54.1473 22.2263C54.674 21.763 54.9374 21.1291 54.9374 20.3245V19.264Z" fill="white"/>
<defs>
<linearGradient id="paint0_linear_2434_56753" x1="37.3507" y1="58.4072" x2="0.967016" y2="12.5535" gradientUnits="userSpaceOnUse">
<stop stop-color="#3A6FCE"/>
<stop offset="0.25" stop-color="#2F5CAC"/>
<stop offset="0.5" stop-color="#1E3E77"/>
<stop offset="0.75" stop-color="#2F5CAC"/>
<stop offset="1" stop-color="#3A6FCE"/>
</linearGradient>
<linearGradient id="paint1_linear_2434_56753" x1="37.1998" y1="44.9946" x2="1.02479" y2="-0.809287" gradientUnits="userSpaceOnUse">
<stop stop-color="#00B8FF"/>
<stop offset="0.25" stop-color="#009AD9"/>
<stop offset="0.5" stop-color="#006A96"/>
<stop offset="0.75" stop-color="#009AD9"/>
<stop offset="1" stop-color="#00B8FF"/>
</linearGradient>
<linearGradient id="paint2_linear_2434_56753" x1="40.3621" y1="17.1675" x2="0" y2="17.1675" gradientUnits="userSpaceOnUse">
<stop stop-color="#2499FF"/>
<stop offset="0.25" stop-color="#1C80E3"/>
<stop offset="0.5" stop-color="#10579E"/>
<stop offset="0.75" stop-color="#1C80E3"/>
<stop offset="1" stop-color="#2499FF"/>
</linearGradient>
<clipPath id="clip0_2434_56753">
<rect width="23.5446" height="32" fill="white"/>
</clipPath>
</defs>
</svg>
