<svg width="66" height="36" viewBox="0 0 66 36" fill="none" xmlns="http://www.w3.org/2000/svg">
<g clip-path="url(#clip0_9566_202190)">
<path d="M13.7132 18.1293H0.0973297C0.0371039 18.1293 -0.0117188 18.1781 -0.0117188 18.2383V28.2738C-0.0117188 28.334 0.0371043 28.3828 0.0973301 28.3828H13.7055C13.7302 28.3828 13.7542 28.3912 13.7735 28.4066L22.0888 35.0349C22.1602 35.0919 22.2658 35.041 22.2658 34.9497V23.3087C22.2658 23.2704 22.2457 23.2349 22.2129 23.2152L13.7693 18.1448C13.7524 18.1347 13.733 18.1293 13.7132 18.1293Z" fill="url(#paint0_linear_9566_202190)"/>
<path d="M13.779 18.1293H27.3949C27.4551 18.1293 27.5039 18.0804 27.5039 18.0202V7.98475C27.5039 7.92453 27.4551 7.87571 27.3949 7.87571H13.7867C13.762 7.87571 13.738 7.86732 13.7187 7.85193L5.4034 1.2236C5.33197 1.16666 5.22638 1.21752 5.22638 1.30887V12.9499C5.22638 12.9882 5.24646 13.0237 5.27929 13.0434L13.7229 18.1137C13.7398 18.1239 13.7592 18.1293 13.779 18.1293Z" fill="url(#paint1_linear_9566_202190)"/>
<path d="M13.7313 18.1293H0.0319006C0.00781031 18.1293 -0.0117188 18.1488 -0.0117188 18.1729V28.3392C-0.0117188 28.3633 0.00781046 28.3828 0.0319008 28.3828H13.7284C13.7383 28.3828 13.7479 28.3862 13.7556 28.3923L22.195 35.1196C22.2236 35.1424 22.2658 35.122 22.2658 35.0855V23.2716C22.2658 23.2563 22.2578 23.2421 22.2446 23.2342L13.7538 18.1355C13.747 18.1314 13.7392 18.1293 13.7313 18.1293Z" fill="#BBDCD2"/>
<path d="M13.7609 18.1293H27.4603C27.4844 18.1293 27.5039 18.1097 27.5039 18.0857V7.91932C27.5039 7.89524 27.4844 7.87571 27.4603 7.87571H13.7638C13.7539 7.87571 13.7443 7.87235 13.7366 7.8662L5.29719 1.13893C5.26862 1.11616 5.22638 1.1365 5.22638 1.17304V12.9869C5.22638 13.0022 5.23442 13.0164 5.24755 13.0243L13.7384 18.123C13.7452 18.1271 13.7529 18.1293 13.7609 18.1293Z" fill="url(#paint2_linear_9566_202190)"/>
<path d="M36.8387 22.9306C36.8387 24.3032 36.8387 25.7003 36.8145 27.0975H39.0965C39.1451 26.7543 39.1936 26.1415 39.1936 25.5288C39.8248 26.6808 40.7959 27.3916 42.7623 27.3916C46.2582 27.3916 48.1276 24.3522 48.1276 20.602C48.1276 16.9498 46.234 14.3271 43.0779 14.3271C40.893 14.3271 39.7763 15.3076 39.2179 16.3125V9.13074H36.8387V22.9306ZM45.6999 20.651C45.6999 23.5679 44.486 25.3817 42.3982 25.3817C39.8734 25.3817 39.0965 23.3963 39.0965 20.8961C39.0965 18.0283 39.9948 16.337 42.471 16.337C44.5589 16.337 45.6999 18.0773 45.6999 20.651Z" fill="#EFEFE6"/>
<path d="M50.5417 27.0975H52.9208V14.6213H50.5417V27.0975ZM52.9208 11.9005V9.13074H50.5417V11.9005H52.9208Z" fill="#EFEFE6"/>
<path d="M65.7825 18.445C65.7825 15.6017 64.1074 14.3271 61.0242 14.3271C57.4312 14.3026 56.3144 16.2635 56.1445 18.0773H58.4508C58.6451 17.1214 58.9849 16.1655 60.9514 16.1655C63.112 16.1655 63.4519 17.4155 63.4519 18.4695V19.4745H61.4126C57.7468 19.4745 55.5619 20.7736 55.5619 23.5679C55.5619 25.4552 56.8 27.3916 59.7375 27.3916C62.0924 27.3916 63.0635 26.3621 63.4762 25.5533C63.5248 26.2151 63.5976 26.8278 63.6947 27.0975H65.9525C65.8796 26.7543 65.7825 25.4307 65.7825 24.2787V18.445ZM63.4762 21.4844C63.4762 23.6169 63.0878 25.5533 60.2716 25.5533C58.815 25.5533 57.9896 24.6463 57.9896 23.4208C57.9896 21.7785 59.2034 21.0922 61.5826 21.0922H63.4762V21.4844Z" fill="#EFEFE6"/>
</g>
<defs>
<linearGradient id="paint0_linear_9566_202190" x1="22.2655" y1="35.1761" x2="-0.0491382" y2="18.1784" gradientUnits="userSpaceOnUse">
<stop stop-color="#83BEAD"/>
<stop offset="0.292341" stop-color="#94CABB"/>
<stop offset="0.651505" stop-color="#C3ECE0"/>
<stop offset="1" stop-color="#B9DBD1"/>
</linearGradient>
<linearGradient id="paint1_linear_9566_202190" x1="5.22665" y1="1.08241" x2="27.5413" y2="18.0801" gradientUnits="userSpaceOnUse">
<stop stop-color="#83BEAD"/>
<stop offset="0.292341" stop-color="#94CABB"/>
<stop offset="0.651505" stop-color="#C3ECE0"/>
<stop offset="1" stop-color="#B9DBD1"/>
</linearGradient>
<linearGradient id="paint2_linear_9566_202190" x1="5.22665" y1="1.08241" x2="27.5413" y2="18.0801" gradientUnits="userSpaceOnUse">
<stop stop-color="#83BEAD"/>
<stop offset="0.292341" stop-color="#94CABB"/>
<stop offset="0.651505" stop-color="#C3ECE0"/>
<stop offset="1" stop-color="#B9DBD1"/>
</linearGradient>
<clipPath id="clip0_9566_202190">
<rect width="66" height="36" fill="white"/>
</clipPath>
</defs>
</svg>
