<svg width="40" height="40" viewBox="0 0 40 40" fill="none" xmlns="http://www.w3.org/2000/svg">
<rect width="40" height="40" rx="2" fill="white"/>
<g clip-path="url(#clip0_4878_141436)">
<path d="M15.0337 24.6441C14.4042 24.2189 13.9684 23.5978 13.7305 22.7767L15.1915 22.1746C15.3242 22.6799 15.5557 23.0714 15.8863 23.3494C16.2147 23.6272 16.6147 23.7641 17.0821 23.7641C17.56 23.7641 17.9705 23.6189 18.3137 23.3283C18.6568 23.0378 18.8295 22.6672 18.8295 22.2188C18.8295 21.7599 18.6484 21.3851 18.2863 21.0946C17.9242 20.8041 17.4695 20.6588 16.9263 20.6588H16.0821V19.2125H16.84C17.3073 19.2125 17.701 19.0862 18.021 18.8336C18.341 18.5809 18.501 18.2357 18.501 17.7957C18.501 17.4041 18.3578 17.0925 18.0715 16.8589C17.7852 16.6252 17.4231 16.5073 16.9831 16.5073C16.5536 16.5073 16.2126 16.621 15.9599 16.8505C15.7073 17.08 15.5241 17.3621 15.4083 17.6947L13.962 17.0926C14.1536 16.5494 14.5052 16.0694 15.021 15.6547C15.5368 15.2399 16.1957 15.0315 16.9957 15.0315C17.5873 15.0315 18.1199 15.1452 18.5915 15.3747C19.0631 15.6042 19.4337 15.9221 19.701 16.3262C19.9684 16.7326 20.101 17.1873 20.101 17.6926C20.101 18.2084 19.9768 18.6441 19.7284 19.0021C19.48 19.3599 19.1747 19.6336 18.8126 19.8252V19.9116C19.2905 20.1116 19.68 20.4168 19.9873 20.8274C20.2926 21.2379 20.4463 21.7284 20.4463 22.3011C20.4463 22.8737 20.301 23.3852 20.0105 23.8337C19.72 24.2821 19.3178 24.6358 18.8083 24.8926C18.2968 25.1494 17.722 25.28 17.0842 25.28C16.3452 25.2821 15.6632 25.0694 15.0337 24.6441Z" fill="#0085F7"/>
<path d="M24.0089 17.3936L22.4046 18.5536L21.6025 17.3367L24.4804 15.261H25.5836V25.0525H24.0089V17.3936Z" fill="#0085F7"/>
<path d="M28.421 28.4211H11.5788L9.16797 31.9735L11.5788 36.0001H28.421L30.4127 31.716L28.421 28.4211Z" fill="#00A94B"/>
<path d="M28.4211 4H6.52631C5.1305 4 4 5.1305 4 6.52631V28.4211L7.7895 31.115L11.579 28.4211V11.5789H28.4211L31.0137 7.78944L28.4211 4Z" fill="#0085F7"/>
<path d="M4 28.4211V33.4738C4 34.8696 5.1305 36.0001 6.52631 36.0001H11.5789V28.4211H4Z" fill="#00802E"/>
<path d="M35.9998 11.579L32.2103 9.14062L28.4209 11.579V28.4211L31.829 30.2001L35.9998 28.4211V11.579Z" fill="#FFBC00"/>
<path d="M35.9998 11.5789V6.52631C35.9998 5.1305 34.8693 4 33.4735 4H28.4209V11.5789H35.9998Z" fill="#0067D5"/>
<path d="M28.4209 36.0001L35.9998 28.4211H28.4209V36.0001Z" fill="#FF4131"/>
</g>
<defs>
<clipPath id="clip0_4878_141436">
<rect width="32" height="32" fill="white" transform="translate(4 4)"/>
</clipPath>
</defs>
</svg>
