<svg width="40" height="40" viewBox="0 0 40 40" fill="none" xmlns="http://www.w3.org/2000/svg">
<path fill-rule="evenodd" clip-rule="evenodd" d="M39.961 11.7601C39.8673 9.63476 39.5236 8.17359 39.0313 6.90748C38.5234 5.56353 37.742 4.36029 36.7182 3.36003C35.718 2.34421 34.5068 1.55487 33.1784 1.05489C31.905 0.562549 30.4514 0.218854 28.3261 0.125146C26.1848 0.0235031 25.5051 0 20.0743 0C14.6436 0 13.9638 0.0235031 11.8305 0.11721C9.70519 0.210918 8.24403 0.554918 6.97822 1.04696C5.63396 1.55487 4.43072 2.33627 3.43047 3.36003C2.41464 4.36029 1.62561 5.57146 1.12533 6.89985C0.632983 8.17359 0.289288 9.62682 0.195581 11.7522C0.0939377 13.8934 0.0704346 14.5732 0.0704346 20.0039C0.0704346 25.4347 0.0939377 26.1144 0.187645 28.2477C0.281352 30.3731 0.625352 31.8342 1.1177 33.1003C1.62561 34.4443 2.41464 35.6475 3.43047 36.6478C4.43072 37.6636 5.6419 38.4529 6.97028 38.9529C8.24403 39.4453 9.69725 39.789 11.8229 39.8827C13.9559 39.9767 14.636 39.9999 20.0667 39.9999C25.4975 39.9999 26.1772 39.9767 28.3105 39.8827C30.4359 39.789 31.897 39.4453 33.1628 38.9529C35.851 37.9136 37.9764 35.7882 39.0157 33.1003C39.5078 31.8266 39.8518 30.3731 39.9455 28.2477C40.0392 26.1144 40.0627 25.4347 40.0627 20.0039C40.0627 14.5732 40.0547 13.8934 39.961 11.7601ZM36.359 28.0914C36.2729 30.0449 35.9447 31.0998 35.6713 31.8031C34.9991 33.5457 33.6161 34.9287 31.8735 35.6008C31.1703 35.8743 30.1077 36.2024 28.1619 36.2882C26.0521 36.3822 25.4193 36.4054 20.0823 36.4054C14.7452 36.4054 14.1045 36.3822 12.0024 36.2882C10.0489 36.2024 8.99399 35.8743 8.29073 35.6008C7.42355 35.2803 6.63422 34.7724 5.99353 34.1082C5.32934 33.4596 4.82142 32.6782 4.50093 31.811C4.22744 31.1078 3.89931 30.0449 3.81354 28.0994C3.71952 25.9896 3.69633 25.3565 3.69633 20.0195C3.69633 14.6824 3.71952 14.0417 3.81354 11.9399C3.89931 9.98639 4.22744 8.93149 4.50093 8.22823C4.82142 7.36075 5.32934 6.57172 6.00146 5.93072C6.64978 5.26653 7.43119 4.75862 8.29867 4.43843C9.00193 4.16494 10.0648 3.83681 12.0103 3.75073C14.1201 3.65703 14.7532 3.63352 20.0899 3.63352C25.4349 3.63352 26.0676 3.65703 28.1698 3.75073C30.1233 3.83681 31.1782 4.16494 31.8815 4.43843C32.7486 4.75862 33.538 5.26653 34.1787 5.93072C34.8428 6.57935 35.3508 7.36075 35.6713 8.22823C35.9447 8.93149 36.2729 9.99402 36.359 11.9399C36.4527 14.0497 36.4762 14.6824 36.4762 20.0195C36.4762 25.3565 36.4527 25.9816 36.359 28.0914ZM20.0744 9.72845C14.4016 9.72845 9.79892 14.3308 9.79892 20.0039C9.79892 25.677 14.4016 30.2793 20.0744 30.2793C25.7475 30.2793 30.3498 25.677 30.3498 20.0039C30.3498 14.3308 25.7475 9.72845 20.0744 9.72845ZM20.0744 26.6693C16.3941 26.6693 13.4089 23.6844 13.4089 20.0039C13.4089 16.3234 16.3941 13.3385 20.0744 13.3385C23.7549 13.3385 26.7398 16.3234 26.7398 20.0039C26.7398 23.6844 23.7549 26.6693 20.0744 26.6693ZM30.7561 11.721C32.0811 11.721 33.1552 10.6469 33.1552 9.3222C33.1552 7.99717 32.0811 6.92336 30.7561 6.92336C29.4314 6.92336 28.3572 7.99717 28.3572 9.3222C28.3572 10.6469 29.4314 11.721 30.7561 11.721Z" fill="white"/>
</svg>
