<svg width="32" height="32" viewBox="0 0 32 32" fill="none" xmlns="http://www.w3.org/2000/svg">
<g clip-path="url(#clip0_7169_5551)">
<path fill-rule="evenodd" clip-rule="evenodd" d="M31.9672 9.40809C31.8922 7.7078 31.6172 6.53888 31.2234 5.52598C30.817 4.45082 30.1919 3.48823 29.3729 2.68802C28.5727 1.87537 27.6038 1.2439 26.5411 0.843915C25.5223 0.450039 24.3595 0.175083 22.6592 0.100117C20.9462 0.0188025 20.4024 0 16.0578 0C11.7132 0 11.1694 0.0188025 9.46277 0.0937683C7.76249 0.168734 6.59356 0.443934 5.58091 0.837566C4.50551 1.2439 3.54292 1.86902 2.74271 2.68802C1.93005 3.48823 1.29883 4.45717 0.898602 5.51988C0.504727 6.53888 0.22977 7.70146 0.154805 9.40174C0.07349 11.1147 0.0546875 11.6585 0.0546875 16.0031C0.0546875 20.3477 0.07349 20.8915 0.148456 22.5982C0.223422 24.2984 0.498622 25.4674 0.892497 26.4803C1.29883 27.5554 1.93005 28.518 2.74271 29.3182C3.54292 30.1309 4.51186 30.7624 5.57456 31.1623C6.59356 31.5562 7.75614 31.8312 9.45667 31.9061C11.1631 31.9813 11.7071 31.9999 16.0517 31.9999C20.3963 31.9999 20.9401 31.9813 22.6467 31.9061C24.347 31.8312 25.516 31.5562 26.5286 31.1623C28.6792 30.3309 30.3795 28.6306 31.2109 26.4803C31.6045 25.4613 31.8797 24.2984 31.9547 22.5982C32.0297 20.8915 32.0485 20.3477 32.0485 16.0031C32.0485 11.6585 32.0421 11.1147 31.9672 9.40809ZM29.0855 22.4731C29.0166 24.0359 28.7541 24.8799 28.5353 25.4425C27.9976 26.8365 26.8912 27.943 25.4972 28.4807C24.9345 28.6995 24.0845 28.962 22.5278 29.0306C20.84 29.1058 20.3338 29.1243 16.0642 29.1243C11.7945 29.1243 11.282 29.1058 9.60025 29.0306C8.03745 28.962 7.19353 28.6995 6.63092 28.4807C5.93718 28.2243 5.30571 27.8179 4.79316 27.2866C4.26181 26.7677 3.85548 26.1426 3.59908 25.4488C3.38029 24.8862 3.11779 24.0359 3.04917 22.4795C2.97396 20.7917 2.9554 20.2852 2.9554 16.0156C2.9554 11.7459 2.97396 11.2334 3.04917 9.55192C3.11779 7.98911 3.38029 7.14519 3.59908 6.58258C3.85548 5.8886 4.26181 5.25737 4.79951 4.74458C5.31817 4.21323 5.94329 3.8069 6.63727 3.55074C7.19988 3.33195 8.05015 3.06945 9.6066 3.00059C11.2944 2.92562 11.8009 2.90682 16.0703 2.90682C20.3462 2.90682 20.8524 2.92562 22.5342 3.00059C24.097 3.06945 24.9409 3.33195 25.5035 3.55074C26.1972 3.8069 26.8287 4.21323 27.3413 4.74458C27.8726 5.26348 28.2789 5.8886 28.5353 6.58258C28.7541 7.14519 29.0166 7.99521 29.0855 9.55192C29.1605 11.2397 29.1793 11.7459 29.1793 16.0156C29.1793 20.2852 29.1605 20.7853 29.0855 22.4731ZM16.0578 7.78276C11.5196 7.78276 7.83748 11.4646 7.83748 16.0031C7.83748 20.5416 11.5196 24.2235 16.0578 24.2235C20.5963 24.2235 24.2782 20.5416 24.2782 16.0031C24.2782 11.4646 20.5963 7.78276 16.0578 7.78276ZM16.0578 21.3355C13.1137 21.3355 10.7255 18.9475 10.7255 16.0031C10.7255 13.0587 13.1137 10.6708 16.0578 10.6708C19.0023 10.6708 21.3902 13.0587 21.3902 16.0031C21.3902 18.9475 19.0023 21.3355 16.0578 21.3355ZM24.6032 9.37684C25.6632 9.37684 26.5225 8.51754 26.5225 7.45776C26.5225 6.39774 25.6632 5.53868 24.6032 5.53868C23.5434 5.53868 22.6841 6.39774 22.6841 7.45776C22.6841 8.51754 23.5434 9.37684 24.6032 9.37684Z" fill="white"/>
</g>
<defs>
<clipPath id="clip0_7169_5551">
<rect width="32" height="32" fill="white"/>
</clipPath>
</defs>
</svg>
