<svg width="56" height="56" viewBox="0 0 56 56" fill="none" xmlns="http://www.w3.org/2000/svg">
<circle cx="28" cy="28" r="28" fill="#2C3334"/>
<g clip-path="url(#clip0_1434_11907)">
<path d="M27.6629 31.7478C27.0339 31.7478 26.5247 32.272 26.5247 32.9011C26.5247 33.5152 27.0189 34.0544 27.6629 34.0544C28.307 34.0544 28.8162 33.5152 28.8162 32.9011C28.8162 32.272 28.292 31.7478 27.6629 31.7478Z" fill="#BBDCD2"/>
<path d="M27.8578 23.0156C25.8358 23.0156 24.9072 24.2138 24.9072 25.0226C24.9072 25.6068 25.4015 25.8764 25.8059 25.8764C26.6146 25.8764 26.2851 24.7231 27.8129 24.7231C28.5618 24.7231 29.1609 25.0526 29.1609 25.7416C29.1609 26.5504 28.3221 27.0147 27.8279 27.4341C27.3935 27.8085 26.8244 28.4226 26.8244 29.7107C26.8244 30.4895 27.034 30.7142 27.6481 30.7142C28.382 30.7142 28.5318 30.3847 28.5318 30.1001C28.5318 29.3212 28.5468 28.8719 29.3706 28.2279C29.7749 27.9134 31.0481 26.8949 31.0481 25.487C31.0481 24.0791 29.7749 23.0156 27.8578 23.0156Z" fill="#BBDCD2"/>
<path d="M28 17C21.9206 17 17 21.9198 17 28V38.1406C17 38.6153 17.3847 39 17.8594 39H28C34.0793 39 39 34.0802 39 28C39 21.9206 34.0802 17 28 17ZM28 37.2812H18.7188V28C18.7188 22.8705 22.8698 18.7188 28 18.7188C33.1295 18.7188 37.2812 22.8698 37.2812 28C37.2812 33.1295 33.1302 37.2812 28 37.2812Z" fill="#BBDCD2"/>
</g>
<defs>
<clipPath id="clip0_1434_11907">
<rect width="22" height="22" fill="white" transform="translate(17 17)"/>
</clipPath>
</defs>
</svg>
