<svg width="80" height="80" viewBox="0 0 80 80" fill="none" xmlns="http://www.w3.org/2000/svg">
<circle cx="40" cy="40" r="40" fill="#3B3D40"/>
<g clip-path="url(#clip0_2434_53719)">
<path fill-rule="evenodd" clip-rule="evenodd" d="M48.7877 52H31.2123C30.3604 52 29.5433 51.6616 28.9409 51.0591C28.3384 50.4567 28 49.6396 28 48.7877V31.2123C28 30.3604 28.3384 29.5433 28.9409 28.9409C29.5433 28.3384 30.3604 28 31.2123 28H48.7877C49.6396 28 50.4567 28.3384 51.0591 28.9409C51.6616 29.5433 52 30.3604 52 31.2123V46.2759C52.0071 46.3422 52.0071 46.4088 52 46.4748V48.7877C52 49.6396 51.6616 50.4567 51.0591 51.0591C50.4567 51.6616 49.6396 52 48.7877 52ZM50.1538 31.2123V44.4526L47.6554 42.4615C47.225 42.1302 46.6971 41.9505 46.1539 41.9505C45.6107 41.9505 45.0827 42.1302 44.6523 42.4615L41.7477 44.5661C41.6362 44.6615 41.4944 44.7139 41.3477 44.7139C41.201 44.7139 41.0592 44.6615 40.9477 44.5661L37.9569 41.5754C37.5203 41.1413 36.9369 40.8866 36.3217 40.8616C35.7066 40.8365 35.1044 41.0429 34.6339 41.44L29.8462 45.4796V31.2123C29.8462 30.85 29.9901 30.5025 30.2463 30.2463C30.5025 29.9901 30.85 29.8462 31.2123 29.8462H48.7877C49.15 29.8462 49.4975 29.9901 49.7537 30.2463C50.0099 30.5025 50.1538 30.85 50.1538 31.2123ZM46.5108 43.9015L50.1538 46.825V48.7877C50.1538 49.15 50.0099 49.4975 49.7537 49.7537C49.4975 50.0099 49.15 50.1538 48.7877 50.1538H31.2123C30.85 50.1538 30.5025 50.0099 30.2463 49.7537C29.9901 49.4975 29.8462 49.15 29.8462 48.7877V47.8938L35.8277 42.88C35.9408 42.7779 36.0877 42.7214 36.24 42.7214C36.3923 42.7214 36.5392 42.7779 36.6523 42.88L39.6431 45.9323C40.0627 46.3488 40.6182 46.6005 41.208 46.6411C41.7978 46.6818 42.3826 46.5088 42.8554 46.1538L45.76 43.9015C45.8676 43.8187 45.9996 43.7738 46.1354 43.7738C46.2712 43.7738 46.4032 43.8187 46.5108 43.9015ZM41.8119 39.1219C42.3685 39.4938 43.0229 39.6923 43.6923 39.6923C44.59 39.6923 45.4509 39.3357 46.0856 38.7009C46.7203 38.0662 47.0769 37.2053 47.0769 36.3077C47.0769 35.6382 46.8784 34.9839 46.5065 34.4273C46.1346 33.8707 45.606 33.4369 44.9876 33.1807C44.3691 32.9245 43.6886 32.8575 43.032 32.9881C42.3755 33.1187 41.7724 33.441 41.299 33.9144C40.8257 34.3877 40.5033 34.9908 40.3727 35.6474C40.2421 36.3039 40.3092 36.9844 40.5653 37.6029C40.8215 38.2214 41.2553 38.75 41.8119 39.1219ZM42.8376 35.0285C43.0906 34.8594 43.388 34.7692 43.6923 34.7692C44.1004 34.7692 44.4917 34.9313 44.7802 35.2198C45.0687 35.5083 45.2308 35.8996 45.2308 36.3077C45.2308 36.6119 45.1406 36.9094 44.9715 37.1624C44.8025 37.4154 44.5622 37.6126 44.2811 37.729C44 37.8455 43.6906 37.8759 43.3922 37.8166C43.0938 37.7572 42.8196 37.6107 42.6045 37.3955C42.3893 37.1804 42.2428 36.9062 42.1834 36.6078C42.1241 36.3094 42.1545 36 42.271 35.7189C42.3874 35.4378 42.5846 35.1975 42.8376 35.0285Z" fill="white"/>
</g>
<defs>
<clipPath id="clip0_2434_53719">
<rect width="24" height="24" fill="white" transform="translate(28 28)"/>
</clipPath>
</defs>
</svg>
