<svg width="40" height="40" viewBox="0 0 40 40" fill="none" xmlns="http://www.w3.org/2000/svg">
<rect width="40" height="40" fill="white"/>
<path d="M22.667 12.6667H32.3557C32.8957 12.6667 33.3337 13.1047 33.3337 13.6447V26.3554C33.3337 26.8954 32.8957 27.3334 32.3557 27.3334H22.667V12.6667Z" fill="#1976D2"/>
<path d="M32.0003 15.9719H22.667V26.3333H32.0003V15.9719Z" fill="white"/>
<path d="M22.0003 33.3334L6.66699 30.3334V9.66675L22.0003 6.66675V33.3334Z" fill="#1976D2"/>
<path d="M14.1663 15C12.049 15 10.333 17.2387 10.333 20C10.333 22.7613 12.049 25 14.1663 25C16.2837 25 17.9997 22.7613 17.9997 20C17.9997 17.2387 16.2837 15 14.1663 15ZM13.9997 23C12.895 23 11.9997 21.6567 11.9997 20C11.9997 18.3433 12.895 17 13.9997 17C15.1043 17 15.9997 18.3433 15.9997 20C15.9997 21.6567 15.1043 23 13.9997 23Z" fill="white"/>
<path d="M24.4982 23.8247H22.6982V25.758H24.4982V23.8247Z" fill="#1976D2"/>
<path d="M26.7658 23.8247H24.9658V25.758H26.7658V23.8247Z" fill="#1976D2"/>
<path d="M29.0324 23.8247H27.2324V25.758H29.0324V23.8247Z" fill="#1976D2"/>
<path d="M24.4982 21.4395H22.6982V23.3728H24.4982V21.4395Z" fill="#1976D2"/>
<path d="M26.7658 21.4395H24.9658V23.3728H26.7658V21.4395Z" fill="#1976D2"/>
<path d="M29.0324 21.4395H27.2324V23.3728H29.0324V21.4395Z" fill="#1976D2"/>
<path d="M31.3 21.4395H29.5V23.3728H31.3V21.4395Z" fill="#1976D2"/>
<path d="M24.4982 19.1375H22.6982V21.0708H24.4982V19.1375Z" fill="#1976D2"/>
<path d="M26.7658 19.1375H24.9658V21.0708H26.7658V19.1375Z" fill="#1976D2"/>
<path d="M29.0324 19.1375H27.2324V21.0708H29.0324V19.1375Z" fill="#1976D2"/>
<path d="M31.3 19.1375H29.5V21.0708H31.3V19.1375Z" fill="#1976D2"/>
<path d="M26.7658 16.7412H24.9658V18.6745H26.7658V16.7412Z" fill="#1976D2"/>
<path d="M29.0324 16.7412H27.2324V18.6745H29.0324V16.7412Z" fill="#1976D2"/>
<path d="M31.3 16.7412H29.5V18.6745H31.3V16.7412Z" fill="#1976D2"/>
</svg>
