<svg width="36" height="40" viewBox="0 0 36 40" fill="none" xmlns="http://www.w3.org/2000/svg">
<path d="M35.5252 10.0305C33.2424 10.0305 31.1361 9.27427 29.4447 7.99849C27.5049 6.53599 26.1111 4.39067 25.6189 1.91802C25.4971 1.30708 25.4314 0.676611 25.4252 0.0305176H18.9041V17.8493L18.8963 27.6094C18.8963 30.2188 17.1971 32.4313 14.8416 33.2094C14.158 33.4352 13.4197 33.5422 12.651 33.5C11.6697 33.4461 10.7502 33.15 9.95096 32.6719C8.25018 31.6547 7.09705 29.8094 7.0658 27.6985C7.01659 24.3993 9.68377 21.7094 12.9806 21.7094C13.6314 21.7094 14.2564 21.8157 14.8416 22.0086V17.1383V15.3875C14.2244 15.2961 13.5963 15.2485 12.9611 15.2485C9.35252 15.2485 5.97752 16.7485 3.56502 19.4508C1.74159 21.493 0.647835 24.0985 0.479085 26.8305C0.257992 30.4196 1.57127 33.8313 4.11815 36.3485C4.49237 36.718 4.88534 37.061 5.29627 37.3774C7.47987 39.0579 10.1494 39.9688 12.9611 39.9688C13.5963 39.9688 14.2244 39.9219 14.8416 39.8305C17.4681 39.4415 19.8916 38.2391 21.8041 36.3485C24.1541 34.0258 25.4525 30.9422 25.4666 27.6602L25.433 13.0852C26.5541 13.95 27.7799 14.6657 29.0955 15.2211C31.1416 16.0844 33.3111 16.5219 35.5439 16.5211V11.786V10.029C35.5455 10.0305 35.5267 10.0305 35.5252 10.0305Z" fill="white"/>
</svg>
