<svg width="24" height="25" viewBox="0 0 24 25" fill="none" xmlns="http://www.w3.org/2000/svg">
<g clip-path="url(#clip0_7331_98377)">
<path d="M22.5147 6.41795C21.145 6.41795 19.8813 5.9642 18.8664 5.19873C17.7025 4.32123 16.8663 3.03405 16.571 1.55046C16.4978 1.1839 16.4585 0.805624 16.4547 0.417969H12.5421V11.1092L12.5374 16.9652C12.5374 18.5309 11.5178 19.8584 10.1046 20.3252C9.69441 20.4607 9.25144 20.5249 8.79019 20.4996C8.20144 20.4673 7.64972 20.2896 7.17019 20.0027C6.14972 19.3924 5.45784 18.2852 5.43909 17.0187C5.40956 15.0392 7.00987 13.4253 8.988 13.4253C9.37847 13.4253 9.75347 13.489 10.1046 13.6048V10.6826V9.63215C9.73425 9.57731 9.35737 9.54871 8.97628 9.54871C6.81112 9.54871 4.78612 10.4487 3.33862 12.0701C2.24456 13.2954 1.58831 14.8587 1.48706 16.4979C1.3544 18.6513 2.14237 20.6984 3.6705 22.2087C3.89503 22.4304 4.13081 22.6362 4.37737 22.826C5.68753 23.8343 7.28925 24.3808 8.97628 24.3808C9.35737 24.3808 9.73425 24.3527 10.1046 24.2979C11.6805 24.0644 13.1346 23.343 14.2821 22.2087C15.6921 20.8151 16.4711 18.9649 16.4796 16.9957L16.4594 8.25075C17.1321 8.76966 17.8675 9.19903 18.6569 9.53231C19.8846 10.0503 21.1863 10.3128 22.526 10.3123V7.47122V6.41701C22.5269 6.41795 22.5157 6.41795 22.5147 6.41795Z" fill="white"/>
</g>
<defs>
<clipPath id="clip0_7331_98377">
<rect width="24" height="23.9999" fill="white" transform="translate(0 0.399902)"/>
</clipPath>
</defs>
</svg>
