<svg width="32" height="32" viewBox="0 0 32 32" fill="none" xmlns="http://www.w3.org/2000/svg">
<path d="M30.0209 8.02441C28.1947 8.02441 26.5097 7.41941 25.1565 6.39879C23.6047 5.22879 22.4897 3.51254 22.0959 1.53441C21.9984 1.04566 21.9459 0.541289 21.9409 0.0244141H16.7241V14.2794L16.7178 22.0875C16.7178 24.175 15.3584 25.945 13.4741 26.5675C12.9272 26.7482 12.3365 26.8338 11.7215 26.8C10.9366 26.7569 10.2009 26.52 9.56155 26.1375C8.20092 25.3238 7.27842 23.8475 7.25342 22.1588C7.21405 19.5194 9.3478 17.3675 11.9853 17.3675C12.5059 17.3675 13.0059 17.4525 13.4741 17.6069V13.7107V12.31C12.9803 12.2369 12.4778 12.1988 11.9697 12.1988C9.0828 12.1988 6.3828 13.3988 4.4528 15.5607C2.99405 17.1944 2.11905 19.2788 1.98405 21.4644C1.80717 24.3357 2.8578 27.065 4.8953 29.0788C5.19467 29.3744 5.50905 29.6488 5.8378 29.9019C7.58467 31.2463 9.7203 31.975 11.9697 31.975C12.4778 31.975 12.9803 31.9375 13.4741 31.8644C15.5753 31.5532 17.5141 30.5913 19.0441 29.0788C20.924 27.2207 21.9628 24.7538 21.9741 22.1282L21.9472 10.4682C22.8441 11.16 23.8247 11.7325 24.8772 12.1769C26.514 12.8675 28.2497 13.2175 30.0359 13.2169V9.42879V8.02316C30.0372 8.02441 30.0222 8.02441 30.0209 8.02441Z" fill="#8A8F93"/>
</svg>
