<svg width="40" height="40" viewBox="0 0 40 40" fill="none" xmlns="http://www.w3.org/2000/svg">
<path d="M37.5252 10.0303C35.2424 10.0303 33.1361 9.27402 31.4447 7.99824C29.5049 6.53574 28.1111 4.39043 27.6189 1.91777C27.4971 1.30684 27.4314 0.676367 27.4252 0.0302734H20.9041V17.849L20.8963 27.6092C20.8963 30.2186 19.1971 32.4311 16.8416 33.2092C16.158 33.435 15.4197 33.542 14.651 33.4998C13.6697 33.4459 12.7502 33.1498 11.951 32.6717C10.2502 31.6545 9.09705 29.8092 9.0658 27.6982C9.01659 24.399 11.6838 21.7092 14.9806 21.7092C15.6314 21.7092 16.2564 21.8154 16.8416 22.0084V17.1381V15.3873C16.2244 15.2959 15.5963 15.2482 14.9611 15.2482C11.3525 15.2482 7.97752 16.7482 5.56502 19.4506C3.74159 21.4928 2.64784 24.0982 2.47909 26.8303C2.25799 30.4193 3.57127 33.8311 6.11815 36.3482C6.49237 36.7178 6.88534 37.0607 7.29627 37.3771C9.47987 39.0576 12.1494 39.9686 14.9611 39.9686C15.5963 39.9686 16.2244 39.9217 16.8416 39.8303C19.4681 39.4412 21.8916 38.2389 23.8041 36.3482C26.1541 34.0256 27.4525 30.942 27.4666 27.66L27.433 13.085C28.5541 13.9498 29.7799 14.6654 31.0955 15.2209C33.1416 16.0842 35.3111 16.5217 37.5439 16.5209V11.7857V10.0287C37.5455 10.0303 37.5267 10.0303 37.5252 10.0303Z" fill="white"/>
</svg>
