<svg width="40" height="40" viewBox="0 0 40 40" fill="none" xmlns="http://www.w3.org/2000/svg">
<g clip-path="url(#clip0_7116_619)">
<path d="M39.4423 10.6374C39.2324 8.88592 37.5818 7.2064 35.8548 6.98139C25.3236 5.67287 14.6744 5.67287 4.14664 6.98139C2.41819 7.20591 0.767569 8.88592 0.557604 10.6374C-0.185868 17.0566 -0.185868 23.2806 0.557604 29.6983C0.767569 31.4498 2.41819 33.1309 4.14664 33.3544C14.6744 34.6629 25.324 34.6629 35.8548 33.3544C37.5818 33.1313 39.2324 31.4498 39.4423 29.6983C40.1859 23.2812 40.1859 17.0566 39.4423 10.6374ZM16.6664 26.8358V13.502L26.6666 20.1692L16.6664 26.8358Z" fill="white"/>
</g>
<defs>
<clipPath id="clip0_7116_619">
<rect width="40" height="40" fill="white"/>
</clipPath>
</defs>
</svg>
