<svg width="14" height="14" viewBox="0 0 14 14" fill="none" xmlns="http://www.w3.org/2000/svg">
<path fill-rule="evenodd" clip-rule="evenodd" d="M13.9861 4.11604C13.9533 3.37216 13.833 2.86076 13.6607 2.41762C13.4829 1.94723 13.2095 1.5261 12.8511 1.17601C12.501 0.820473 12.0771 0.544204 11.6122 0.369213C11.1665 0.196892 10.6578 0.0765988 9.91389 0.0438013C9.16446 0.00822609 8.92654 0 7.02578 0C5.12502 0 4.8871 0.00822609 4.14045 0.0410236C3.39658 0.0738212 2.88517 0.194221 2.44214 0.366435C1.97165 0.544204 1.55051 0.817695 1.20042 1.17601C0.844887 1.5261 0.568725 1.95001 0.393627 2.41495C0.221306 2.86076 0.101013 3.36939 0.0682153 4.11326C0.0326401 4.86269 0.0244141 5.10061 0.0244141 7.00137C0.0244141 8.90213 0.0326401 9.14005 0.0654377 9.8867C0.0982352 10.6306 0.218635 11.142 0.390956 11.5851C0.568725 12.0555 0.844887 12.4766 1.20042 12.8267C1.55051 13.1823 1.97443 13.4585 2.43936 13.6335C2.88517 13.8058 3.3938 13.9261 4.13778 13.9589C4.88433 13.9918 5.12235 14 7.02311 14C8.92387 14 9.16179 13.9918 9.90844 13.9589C10.6523 13.9261 11.1637 13.8058 11.6068 13.6335C12.5476 13.2698 13.2915 12.5259 13.6553 11.5851C13.8275 11.1393 13.9479 10.6306 13.9807 9.8867C14.0135 9.14005 14.0217 8.90213 14.0217 7.00137C14.0217 5.10061 14.0189 4.86269 13.9861 4.11604ZM12.7254 9.832C12.6953 10.5157 12.5804 10.8849 12.4847 11.1311C12.2495 11.741 11.7654 12.225 11.1555 12.4603C10.9094 12.556 10.5375 12.6709 9.85641 12.7009C9.11799 12.7338 8.89652 12.7419 7.02856 12.7419C5.16059 12.7419 4.93635 12.7338 4.2006 12.7009C3.51687 12.6709 3.14766 12.556 2.90152 12.4603C2.59801 12.3481 2.32174 12.1703 2.0975 11.9379C1.86503 11.7109 1.68726 11.4374 1.57509 11.1339C1.47936 10.8877 1.36452 10.5157 1.3345 9.83478C1.3016 9.09635 1.29348 8.87478 1.29348 7.00682C1.29348 5.13885 1.3016 4.91461 1.3345 4.17896C1.36452 3.49524 1.47936 3.12602 1.57509 2.87988C1.68726 2.57626 1.86503 2.3001 2.10027 2.07575C2.32719 1.84329 2.60068 1.66552 2.90429 1.55345C3.15044 1.45773 3.52243 1.34288 4.20338 1.31276C4.9418 1.27996 5.16337 1.27173 7.03123 1.27173C8.90197 1.27173 9.12344 1.27996 9.85919 1.31276C10.5429 1.34288 10.9121 1.45773 11.1583 1.55345C11.4618 1.66552 11.7381 1.84329 11.9623 2.07575C12.1948 2.30277 12.3725 2.57626 12.4847 2.87988C12.5804 3.12602 12.6953 3.49791 12.7254 4.17896C12.7582 4.91739 12.7664 5.13885 12.7664 7.00682C12.7664 8.87478 12.7582 9.09357 12.7254 9.832ZM7.02579 3.40496C5.04031 3.40496 3.42938 5.01578 3.42938 7.00137C3.42938 8.98695 5.04031 10.5978 7.02579 10.5978C9.01138 10.5978 10.6222 8.98695 10.6222 7.00137C10.6222 5.01578 9.01138 3.40496 7.02579 3.40496ZM7.02579 9.33426C5.73771 9.33426 4.69289 8.28955 4.69289 7.00137C4.69289 5.71318 5.73771 4.66847 7.02579 4.66847C8.31398 4.66847 9.35869 5.71318 9.35869 7.00137C9.35869 8.28955 8.31398 9.33426 7.02579 9.33426ZM10.7644 4.10237C11.2282 4.10237 11.6041 3.72642 11.6041 3.26277C11.6041 2.79901 11.2282 2.42317 10.7644 2.42317C10.3007 2.42317 9.9248 2.79901 9.9248 3.26277C9.9248 3.72642 10.3007 4.10237 10.7644 4.10237Z" fill="#D2D2D3"/>
</svg>
