<svg width="14" height="14" viewBox="0 0 14 14" fill="none" xmlns="http://www.w3.org/2000/svg">
<path fill-rule="evenodd" clip-rule="evenodd" d="M13.9863 4.11604C13.9535 3.37216 13.8332 2.86076 13.6609 2.41762C13.4831 1.94723 13.2096 1.5261 12.8513 1.17601C12.5012 0.820473 12.0773 0.544204 11.6124 0.369213C11.1667 0.196892 10.6579 0.0765988 9.91407 0.0438013C9.16464 0.00822609 8.92673 0 7.02596 0C5.1252 0 4.88729 0.00822609 4.14064 0.0410236C3.39676 0.0738212 2.88535 0.194221 2.44232 0.366435C1.97183 0.544204 1.5507 0.817695 1.20061 1.17601C0.84507 1.5261 0.568908 1.95001 0.39381 2.41495C0.221489 2.86076 0.101196 3.36939 0.0683984 4.11326C0.0328233 4.86269 0.0245972 5.10061 0.0245972 7.00137C0.0245972 8.90213 0.0328233 9.14005 0.0656208 9.8867C0.0984184 10.6306 0.218818 11.142 0.391139 11.5851C0.568908 12.0555 0.84507 12.4766 1.20061 12.8267C1.5507 13.1823 1.97461 13.4585 2.43954 13.6335C2.88535 13.8058 3.39398 13.9261 4.13796 13.9589C4.88451 13.9918 5.12253 14 7.02329 14C8.92406 14 9.16197 13.9918 9.90862 13.9589C10.6525 13.9261 11.1639 13.8058 11.6069 13.6335C12.5478 13.2698 13.2917 12.5259 13.6554 11.5851C13.8277 11.1393 13.9481 10.6306 13.9809 9.8867C14.0137 9.14005 14.0219 8.90213 14.0219 7.00137C14.0219 5.10061 14.0191 4.86269 13.9863 4.11604ZM12.7256 9.832C12.6955 10.5157 12.5806 10.8849 12.4849 11.1311C12.2496 11.741 11.7656 12.225 11.1557 12.4603C10.9095 12.556 10.5377 12.6709 9.8566 12.7009C9.11817 12.7338 8.89671 12.7419 7.02874 12.7419C5.16078 12.7419 4.93654 12.7338 4.20078 12.7009C3.51705 12.6709 3.14784 12.556 2.9017 12.4603C2.59819 12.3481 2.32192 12.1703 2.09768 11.9379C1.86521 11.7109 1.68744 11.4374 1.57527 11.1339C1.47955 10.8877 1.3647 10.5157 1.33468 9.83478C1.30178 9.09635 1.29366 8.87478 1.29366 7.00682C1.29366 5.13885 1.30178 4.91461 1.33468 4.17896C1.3647 3.49524 1.47955 3.12602 1.57527 2.87988C1.68744 2.57626 1.86521 2.3001 2.10046 2.07575C2.32737 1.84329 2.60086 1.66552 2.90448 1.55345C3.15062 1.45773 3.52261 1.34288 4.20356 1.31276C4.94199 1.27996 5.16356 1.27173 7.03141 1.27173C8.90215 1.27173 9.12362 1.27996 9.85937 1.31276C10.5431 1.34288 10.9123 1.45773 11.1585 1.55345C11.462 1.66552 11.7382 1.84329 11.9625 2.07575C12.1949 2.30277 12.3727 2.57626 12.4849 2.87988C12.5806 3.12602 12.6955 3.49791 12.7256 4.17896C12.7584 4.91739 12.7666 5.13885 12.7666 7.00682C12.7666 8.87478 12.7584 9.09357 12.7256 9.832ZM7.02597 3.40496C5.04049 3.40496 3.42957 5.01578 3.42957 7.00137C3.42957 8.98695 5.04049 10.5978 7.02597 10.5978C9.01156 10.5978 10.6224 8.98695 10.6224 7.00137C10.6224 5.01578 9.01156 3.40496 7.02597 3.40496ZM7.02597 9.33426C5.73789 9.33426 4.69307 8.28955 4.69307 7.00137C4.69307 5.71318 5.73789 4.66847 7.02597 4.66847C8.31416 4.66847 9.35887 5.71318 9.35887 7.00137C9.35887 8.28955 8.31416 9.33426 7.02597 9.33426ZM10.7646 4.10237C11.2283 4.10237 11.6043 3.72642 11.6043 3.26277C11.6043 2.79901 11.2283 2.42317 10.7646 2.42317C10.3009 2.42317 9.92498 2.79901 9.92498 3.26277C9.92498 3.72642 10.3009 4.10237 10.7646 4.10237Z" fill="#D2D2D3"/>
</svg>
