<svg width="495" height="62" viewBox="0 0 495 62" fill="none" xmlns="http://www.w3.org/2000/svg">
<rect x="32" y="16" width="38" height="30" rx="15" fill="#BBDCD2"/>
<g clip-path="url(#clip0_711_74073)">
<path d="M51.1597 22.3828C46.4058 22.3828 42.5378 26.2486 42.5378 30.9998C42.5378 35.751 46.4058 39.6169 51.1597 39.6169C55.9136 39.6169 59.7815 35.751 59.7815 30.9998C59.7815 26.2486 55.9136 22.3828 51.1597 22.3828ZM45.771 36.3855L49.777 30.3794L51.7805 32.3818L45.771 36.3855ZM52.5424 31.6203L50.5389 29.6179L56.5483 25.6142L52.5424 31.6203Z" fill="black"/>
</g>
<path d="M88.3447 22.864H93.9607C95.2407 22.864 96.2887 23.008 97.1047 23.296C97.9207 23.584 98.5607 23.96 99.0247 24.424C99.5047 24.872 99.8327 25.384 100.009 25.96C100.185 26.536 100.273 27.12 100.273 27.712C100.273 28.8 100.041 29.728 99.5767 30.496C99.1287 31.264 98.3847 31.864 97.3447 32.296L100.945 40H98.4727L95.2327 32.824C95.0247 32.856 94.8007 32.88 94.5607 32.896C94.3207 32.896 94.1047 32.896 93.9127 32.896H90.5287V40H88.3447V22.864ZM94.1767 31C94.9447 31 95.5767 30.928 96.0727 30.784C96.5687 30.624 96.9607 30.408 97.2487 30.136C97.5367 29.848 97.7367 29.504 97.8487 29.104C97.9607 28.704 98.0167 28.256 98.0167 27.76C98.0167 27.28 97.9527 26.856 97.8247 26.488C97.6967 26.12 97.4727 25.808 97.1527 25.552C96.8487 25.28 96.4327 25.08 95.9047 24.952C95.3767 24.808 94.7047 24.736 93.8887 24.736H90.5287V31H94.1767ZM103.029 22.864H114.117V24.808H105.237V30.184H113.637V32.152H105.237V38.056H114.573L114.213 40H103.029V22.864ZM118.047 35.128C118.239 36.328 118.711 37.2 119.463 37.744C120.231 38.272 121.367 38.536 122.871 38.536C123.623 38.536 124.247 38.456 124.743 38.296C125.255 38.12 125.663 37.896 125.967 37.624C126.271 37.336 126.487 37.008 126.615 36.64C126.743 36.256 126.807 35.856 126.807 35.44C126.807 35.104 126.767 34.784 126.687 34.48C126.607 34.16 126.447 33.872 126.207 33.616C125.983 33.36 125.663 33.136 125.247 32.944C124.847 32.752 124.327 32.6 123.687 32.488L121.527 32.104C120.679 31.96 119.927 31.768 119.271 31.528C118.615 31.288 118.055 30.984 117.591 30.616C117.143 30.232 116.799 29.76 116.559 29.2C116.335 28.64 116.223 27.96 116.223 27.16C116.223 26.376 116.383 25.688 116.703 25.096C117.039 24.504 117.487 24.008 118.047 23.608C118.607 23.208 119.271 22.912 120.039 22.72C120.807 22.528 121.639 22.432 122.535 22.432C123.671 22.432 124.615 22.56 125.367 22.816C126.135 23.056 126.759 23.384 127.239 23.8C127.719 24.216 128.079 24.696 128.319 25.24C128.575 25.768 128.767 26.312 128.895 26.872L126.831 27.28C126.703 26.8 126.535 26.376 126.327 26.008C126.135 25.624 125.871 25.312 125.535 25.072C125.215 24.816 124.815 24.624 124.335 24.496C123.855 24.368 123.271 24.304 122.583 24.304C121.799 24.304 121.143 24.376 120.615 24.52C120.087 24.664 119.663 24.864 119.343 25.12C119.023 25.36 118.791 25.656 118.647 26.008C118.519 26.344 118.455 26.704 118.455 27.088C118.455 27.504 118.503 27.872 118.599 28.192C118.711 28.496 118.887 28.768 119.127 29.008C119.383 29.232 119.711 29.424 120.111 29.584C120.511 29.728 121.007 29.856 121.599 29.968L123.999 30.4C125.775 30.736 127.079 31.296 127.911 32.08C128.743 32.848 129.159 33.984 129.159 35.488C129.159 36.176 129.023 36.824 128.751 37.432C128.495 38.024 128.103 38.544 127.575 38.992C127.063 39.44 126.415 39.792 125.631 40.048C124.847 40.304 123.927 40.432 122.871 40.432C121.863 40.432 120.943 40.328 120.111 40.12C119.295 39.928 118.583 39.616 117.975 39.184C117.367 38.752 116.879 38.2 116.511 37.528C116.143 36.856 115.919 36.056 115.839 35.128H118.047ZM131.741 22.864H142.829V24.808H133.949V30.184H142.349V32.152H133.949V38.056H143.285L142.925 40H131.741V22.864ZM150.902 22.864H153.23L159.878 40H157.478L155.678 35.224H148.334L146.534 40H144.23L150.902 22.864ZM155.006 33.304L151.982 25.36L149.006 33.304H155.006ZM161.554 22.864H167.17C168.45 22.864 169.498 23.008 170.314 23.296C171.13 23.584 171.77 23.96 172.234 24.424C172.714 24.872 173.042 25.384 173.218 25.96C173.394 26.536 173.482 27.12 173.482 27.712C173.482 28.8 173.25 29.728 172.786 30.496C172.338 31.264 171.594 31.864 170.554 32.296L174.154 40H171.682L168.442 32.824C168.234 32.856 168.01 32.88 167.77 32.896C167.53 32.896 167.314 32.896 167.122 32.896H163.738V40H161.554V22.864ZM167.386 31C168.154 31 168.786 30.928 169.282 30.784C169.778 30.624 170.17 30.408 170.458 30.136C170.746 29.848 170.946 29.504 171.058 29.104C171.17 28.704 171.226 28.256 171.226 27.76C171.226 27.28 171.162 26.856 171.034 26.488C170.906 26.12 170.682 25.808 170.362 25.552C170.058 25.28 169.642 25.08 169.114 24.952C168.586 24.808 167.914 24.736 167.098 24.736H163.738V31H167.386ZM190.044 34.36C189.948 35.224 189.732 36.032 189.396 36.784C189.06 37.52 188.604 38.16 188.028 38.704C187.452 39.248 186.748 39.672 185.916 39.976C185.1 40.28 184.148 40.432 183.06 40.432C181.876 40.432 180.812 40.232 179.868 39.832C178.924 39.432 178.124 38.848 177.468 38.08C176.812 37.312 176.3 36.376 175.932 35.272C175.58 34.152 175.404 32.88 175.404 31.456C175.404 30.016 175.596 28.736 175.98 27.616C176.364 26.496 176.9 25.552 177.588 24.784C178.276 24.016 179.084 23.432 180.012 23.032C180.956 22.632 181.972 22.432 183.06 22.432C184.116 22.432 185.028 22.568 185.796 22.84C186.564 23.112 187.212 23.496 187.74 23.992C188.284 24.488 188.716 25.08 189.036 25.768C189.372 26.456 189.628 27.216 189.804 28.048L187.644 28.408C187.5 27.784 187.308 27.224 187.068 26.728C186.844 26.216 186.548 25.784 186.18 25.432C185.828 25.08 185.396 24.816 184.884 24.64C184.388 24.448 183.78 24.352 183.06 24.352C182.212 24.352 181.452 24.528 180.78 24.88C180.124 25.216 179.564 25.696 179.1 26.32C178.652 26.928 178.308 27.672 178.068 28.552C177.828 29.416 177.708 30.376 177.708 31.432C177.708 32.488 177.828 33.456 178.068 34.336C178.308 35.2 178.652 35.944 179.1 36.568C179.564 37.192 180.124 37.672 180.78 38.008C181.452 38.344 182.22 38.512 183.084 38.512C183.868 38.512 184.532 38.416 185.076 38.224C185.636 38.016 186.092 37.728 186.444 37.36C186.812 36.992 187.1 36.552 187.308 36.04C187.516 35.528 187.668 34.968 187.764 34.36H190.044ZM192.563 22.864H194.771V30.112H203.435V22.864H205.643V40H203.435V32.176H194.771V40H192.563V22.864ZM213.822 22.864H219.558C220.822 22.864 221.862 23 222.678 23.272C223.51 23.544 224.158 23.912 224.622 24.376C225.102 24.84 225.43 25.384 225.606 26.008C225.798 26.616 225.894 27.264 225.894 27.952C225.894 28.672 225.798 29.36 225.606 30.016C225.414 30.672 225.078 31.248 224.598 31.744C224.118 32.24 223.47 32.632 222.654 32.92C221.838 33.208 220.806 33.352 219.558 33.352H216.006V40H213.822V22.864ZM219.534 31.48C220.366 31.48 221.054 31.4 221.598 31.24C222.142 31.08 222.566 30.848 222.87 30.544C223.174 30.24 223.382 29.88 223.494 29.464C223.622 29.032 223.686 28.552 223.686 28.024C223.686 27.48 223.622 27 223.494 26.584C223.366 26.168 223.142 25.824 222.822 25.552C222.502 25.28 222.07 25.08 221.526 24.952C220.998 24.808 220.326 24.736 219.51 24.736H216.006V31.48H219.534ZM228.365 22.864H233.981C235.261 22.864 236.309 23.008 237.125 23.296C237.941 23.584 238.581 23.96 239.045 24.424C239.525 24.872 239.853 25.384 240.029 25.96C240.205 26.536 240.293 27.12 240.293 27.712C240.293 28.8 240.061 29.728 239.597 30.496C239.149 31.264 238.405 31.864 237.365 32.296L240.965 40H238.493L235.253 32.824C235.045 32.856 234.821 32.88 234.581 32.896C234.341 32.896 234.125 32.896 233.933 32.896H230.549V40H228.365V22.864ZM234.197 31C234.965 31 235.597 30.928 236.093 30.784C236.589 30.624 236.981 30.408 237.269 30.136C237.557 29.848 237.757 29.504 237.869 29.104C237.981 28.704 238.037 28.256 238.037 27.76C238.037 27.28 237.973 26.856 237.845 26.488C237.717 26.12 237.493 25.808 237.173 25.552C236.869 25.28 236.453 25.08 235.925 24.952C235.397 24.808 234.725 24.736 233.909 24.736H230.549V31H234.197ZM243.049 22.864H245.257V40H243.049V22.864ZM262.609 34.36C262.513 35.224 262.297 36.032 261.961 36.784C261.625 37.52 261.169 38.16 260.593 38.704C260.017 39.248 259.313 39.672 258.481 39.976C257.665 40.28 256.713 40.432 255.625 40.432C254.441 40.432 253.377 40.232 252.433 39.832C251.489 39.432 250.689 38.848 250.033 38.08C249.377 37.312 248.865 36.376 248.497 35.272C248.145 34.152 247.969 32.88 247.969 31.456C247.969 30.016 248.161 28.736 248.545 27.616C248.929 26.496 249.465 25.552 250.153 24.784C250.841 24.016 251.649 23.432 252.577 23.032C253.521 22.632 254.537 22.432 255.625 22.432C256.681 22.432 257.593 22.568 258.361 22.84C259.129 23.112 259.777 23.496 260.305 23.992C260.849 24.488 261.281 25.08 261.601 25.768C261.937 26.456 262.193 27.216 262.369 28.048L260.209 28.408C260.065 27.784 259.873 27.224 259.633 26.728C259.409 26.216 259.113 25.784 258.745 25.432C258.393 25.08 257.961 24.816 257.449 24.64C256.953 24.448 256.345 24.352 255.625 24.352C254.777 24.352 254.017 24.528 253.345 24.88C252.689 25.216 252.129 25.696 251.665 26.32C251.217 26.928 250.873 27.672 250.633 28.552C250.393 29.416 250.273 30.376 250.273 31.432C250.273 32.488 250.393 33.456 250.633 34.336C250.873 35.2 251.217 35.944 251.665 36.568C252.129 37.192 252.689 37.672 253.345 38.008C254.017 38.344 254.785 38.512 255.649 38.512C256.433 38.512 257.097 38.416 257.641 38.224C258.201 38.016 258.657 37.728 259.009 37.36C259.377 36.992 259.665 36.552 259.873 36.04C260.081 35.528 260.233 34.968 260.329 34.36H262.609ZM265.128 22.864H276.216V24.808H267.336V30.184H275.736V32.152H267.336V38.056H276.672L276.312 40H265.128V22.864ZM283.762 22.864H289.378C290.658 22.864 291.706 23.008 292.522 23.296C293.338 23.584 293.978 23.96 294.442 24.424C294.922 24.872 295.25 25.384 295.426 25.96C295.602 26.536 295.69 27.12 295.69 27.712C295.69 28.8 295.458 29.728 294.994 30.496C294.546 31.264 293.802 31.864 292.762 32.296L296.362 40H293.89L290.65 32.824C290.442 32.856 290.218 32.88 289.978 32.896C289.738 32.896 289.522 32.896 289.33 32.896H285.946V40H283.762V22.864ZM289.594 31C290.362 31 290.994 30.928 291.49 30.784C291.986 30.624 292.378 30.408 292.666 30.136C292.954 29.848 293.154 29.504 293.266 29.104C293.378 28.704 293.434 28.256 293.434 27.76C293.434 27.28 293.37 26.856 293.242 26.488C293.114 26.12 292.89 25.808 292.57 25.552C292.266 25.28 291.85 25.08 291.322 24.952C290.794 24.808 290.122 24.736 289.306 24.736H285.946V31H289.594ZM303.838 22.864H306.166L312.814 40H310.414L308.614 35.224H301.27L299.47 40H297.166L303.838 22.864ZM307.942 33.304L304.918 25.36L301.942 33.304H307.942ZM314.489 22.864H316.673L325.385 36.472V22.864H327.521V40H325.409L316.625 26.464V40H314.489V22.864ZM338.35 31.192H344.758V38.056C344.326 38.456 343.846 38.808 343.318 39.112C342.806 39.4 342.262 39.648 341.686 39.856C341.126 40.048 340.542 40.192 339.934 40.288C339.342 40.384 338.758 40.432 338.182 40.432C336.918 40.432 335.79 40.232 334.798 39.832C333.822 39.416 332.99 38.824 332.302 38.056C331.63 37.288 331.118 36.352 330.766 35.248C330.414 34.128 330.238 32.864 330.238 31.456C330.238 30.016 330.43 28.736 330.814 27.616C331.198 26.496 331.726 25.552 332.398 24.784C333.086 24.016 333.902 23.432 334.846 23.032C335.79 22.632 336.822 22.432 337.942 22.432C338.902 22.432 339.75 22.552 340.486 22.792C341.222 23.016 341.846 23.344 342.358 23.776C342.886 24.208 343.318 24.728 343.654 25.336C343.99 25.928 344.246 26.592 344.422 27.328L342.286 27.688C342.158 27.192 341.982 26.736 341.758 26.32C341.55 25.904 341.278 25.552 340.942 25.264C340.606 24.96 340.19 24.728 339.694 24.568C339.214 24.408 338.63 24.328 337.942 24.328C337.046 24.328 336.262 24.504 335.59 24.856C334.918 25.192 334.358 25.672 333.91 26.296C333.462 26.92 333.118 27.672 332.878 28.552C332.654 29.416 332.542 30.376 332.542 31.432C332.542 32.488 332.654 33.456 332.878 34.336C333.102 35.2 333.446 35.944 333.91 36.568C334.39 37.192 334.982 37.672 335.686 38.008C336.39 38.344 337.222 38.512 338.182 38.512C339.046 38.512 339.854 38.408 340.606 38.2C341.374 37.992 342.062 37.664 342.67 37.216V33.112H338.35V31.192ZM347.537 22.864H358.625V24.808H349.745V30.184H358.145V32.152H349.745V38.056H359.081L358.721 40H347.537V22.864ZM362.555 35.128C362.747 36.328 363.219 37.2 363.971 37.744C364.739 38.272 365.875 38.536 367.379 38.536C368.131 38.536 368.755 38.456 369.251 38.296C369.763 38.12 370.171 37.896 370.475 37.624C370.779 37.336 370.995 37.008 371.123 36.64C371.251 36.256 371.315 35.856 371.315 35.44C371.315 35.104 371.275 34.784 371.195 34.48C371.115 34.16 370.955 33.872 370.715 33.616C370.491 33.36 370.171 33.136 369.755 32.944C369.355 32.752 368.835 32.6 368.195 32.488L366.035 32.104C365.187 31.96 364.435 31.768 363.779 31.528C363.123 31.288 362.563 30.984 362.099 30.616C361.651 30.232 361.307 29.76 361.067 29.2C360.843 28.64 360.731 27.96 360.731 27.16C360.731 26.376 360.891 25.688 361.211 25.096C361.547 24.504 361.995 24.008 362.555 23.608C363.115 23.208 363.779 22.912 364.547 22.72C365.315 22.528 366.147 22.432 367.043 22.432C368.179 22.432 369.123 22.56 369.875 22.816C370.643 23.056 371.267 23.384 371.747 23.8C372.227 24.216 372.587 24.696 372.827 25.24C373.083 25.768 373.275 26.312 373.403 26.872L371.339 27.28C371.211 26.8 371.043 26.376 370.835 26.008C370.643 25.624 370.379 25.312 370.043 25.072C369.723 24.816 369.323 24.624 368.843 24.496C368.363 24.368 367.779 24.304 367.091 24.304C366.307 24.304 365.651 24.376 365.123 24.52C364.595 24.664 364.171 24.864 363.851 25.12C363.531 25.36 363.299 25.656 363.155 26.008C363.027 26.344 362.963 26.704 362.963 27.088C362.963 27.504 363.011 27.872 363.107 28.192C363.219 28.496 363.395 28.768 363.635 29.008C363.891 29.232 364.219 29.424 364.619 29.584C365.019 29.728 365.515 29.856 366.107 29.968L368.507 30.4C370.283 30.736 371.587 31.296 372.419 32.08C373.251 32.848 373.667 33.984 373.667 35.488C373.667 36.176 373.531 36.824 373.259 37.432C373.003 38.024 372.611 38.544 372.083 38.992C371.571 39.44 370.923 39.792 370.139 40.048C369.355 40.304 368.435 40.432 367.379 40.432C366.371 40.432 365.451 40.328 364.619 40.12C363.803 39.928 363.091 39.616 362.483 39.184C361.875 38.752 361.387 38.2 361.019 37.528C360.651 36.856 360.427 36.056 360.347 35.128H362.555ZM388.409 40.432C387.241 40.432 386.169 40.24 385.193 39.856C384.233 39.456 383.401 38.88 382.697 38.128C382.009 37.36 381.473 36.416 381.089 35.296C380.705 34.176 380.513 32.896 380.513 31.456C380.513 30.016 380.705 28.736 381.089 27.616C381.489 26.496 382.033 25.552 382.721 24.784C383.425 24.016 384.257 23.432 385.217 23.032C386.193 22.632 387.257 22.432 388.409 22.432C389.577 22.432 390.641 22.632 391.601 23.032C392.577 23.416 393.409 23.992 394.097 24.76C394.785 25.512 395.321 26.448 395.705 27.568C396.089 28.672 396.281 29.944 396.281 31.384C396.281 32.824 396.089 34.112 395.705 35.248C395.337 36.368 394.809 37.312 394.121 38.08C393.433 38.848 392.601 39.432 391.625 39.832C390.665 40.232 389.593 40.432 388.409 40.432ZM388.409 38.512C389.321 38.512 390.121 38.344 390.809 38.008C391.513 37.672 392.097 37.2 392.561 36.592C393.025 35.968 393.377 35.224 393.617 34.36C393.857 33.48 393.977 32.504 393.977 31.432C393.977 30.376 393.857 29.416 393.617 28.552C393.377 27.672 393.017 26.92 392.537 26.296C392.073 25.672 391.497 25.192 390.809 24.856C390.121 24.52 389.321 24.352 388.409 24.352C387.481 24.352 386.665 24.52 385.961 24.856C385.273 25.192 384.689 25.672 384.209 26.296C383.745 26.92 383.393 27.672 383.153 28.552C382.929 29.416 382.817 30.376 382.817 31.432C382.817 32.504 382.929 33.48 383.153 34.36C383.393 35.224 383.745 35.968 384.209 36.592C384.673 37.2 385.249 37.672 385.937 38.008C386.641 38.344 387.465 38.512 388.409 38.512ZM398.984 22.864H401.168L409.88 36.472V22.864H412.016V40H409.904L401.12 26.464V40H398.984V22.864ZM415.333 22.864H417.541V38.032H426.421L426.085 40H415.333V22.864ZM428.329 22.864H430.537V40H428.329V22.864ZM433.849 22.864H436.033L444.745 36.472V22.864H446.881V40H444.769L435.985 26.464V40H433.849V22.864ZM450.197 22.864H461.285V24.808H452.405V30.184H460.805V32.152H452.405V38.056H461.741L461.381 40H450.197V22.864Z" fill="white"/>
<rect x="0.5" y="0.5" width="494" height="61" rx="30.5" stroke="white" stroke-opacity="0.16"/>
<defs>
<clipPath id="clip0_711_74073">
<rect width="17.2437" height="17.234" fill="white" transform="translate(42.5378 22.3828)"/>
</clipPath>
</defs>
</svg>
