<svg width="512" height="62" viewBox="0 0 512 62" fill="none" xmlns="http://www.w3.org/2000/svg">
<rect x="32" y="16" width="38" height="30" rx="15" fill="#BBDCD2"/>
<g clip-path="url(#clip0_711_74064)">
<path d="M51.1597 22.3828C46.4058 22.3828 42.5378 26.2486 42.5378 30.9998C42.5378 35.751 46.4058 39.6169 51.1597 39.6169C55.9136 39.6169 59.7815 35.751 59.7815 30.9998C59.7815 26.2486 55.9136 22.3828 51.1597 22.3828ZM45.771 36.3855L49.777 30.3794L51.7805 32.3818L45.771 36.3855ZM52.5424 31.6203L50.5389 29.6179L56.5483 25.6142L52.5424 31.6203Z" fill="black"/>
</g>
<path d="M88.2896 22.864H93.9056C95.1856 22.864 96.2336 23.008 97.0496 23.296C97.8656 23.584 98.5056 23.96 98.9696 24.424C99.4496 24.872 99.7776 25.384 99.9536 25.96C100.13 26.536 100.218 27.12 100.218 27.712C100.218 28.8 99.9856 29.728 99.5216 30.496C99.0736 31.264 98.3296 31.864 97.2896 32.296L100.89 40H98.4176L95.1776 32.824C94.9696 32.856 94.7456 32.88 94.5056 32.896C94.2656 32.896 94.0496 32.896 93.8576 32.896H90.4736V40H88.2896V22.864ZM94.1216 31C94.8896 31 95.5216 30.928 96.0176 30.784C96.5136 30.624 96.9056 30.408 97.1936 30.136C97.4816 29.848 97.6816 29.504 97.7936 29.104C97.9056 28.704 97.9616 28.256 97.9616 27.76C97.9616 27.28 97.8976 26.856 97.7696 26.488C97.6416 26.12 97.4176 25.808 97.0976 25.552C96.7936 25.28 96.3776 25.08 95.8496 24.952C95.3216 24.808 94.6496 24.736 93.8336 24.736H90.4736V31H94.1216ZM102.974 22.864H114.062V24.808H105.182V30.184H113.582V32.152H105.182V38.056H114.518L114.158 40H102.974V22.864ZM115.511 22.864H118.007L123.215 37.144L128.519 22.864H130.895L124.319 40H122.087L115.511 22.864ZM132.6 22.864H134.808V40H132.6V22.864ZM138.12 22.864H149.208V24.808H140.328V30.184H148.728V32.152H140.328V38.056H149.664L149.304 40H138.12V22.864ZM150.633 22.864H153.129L156.705 36.952L160.425 22.936H162.801L166.497 36.952L170.049 22.864H172.401L167.649 40H165.321L161.505 25.672L157.761 40H155.505L150.633 22.864ZM177.353 22.864H179.849L183.425 36.952L187.145 22.936H189.521L193.217 36.952L196.769 22.864H199.121L194.369 40H192.041L188.225 25.672L184.481 40H182.225L177.353 22.864ZM200.817 22.864H211.905V24.808H203.025V30.184H211.425V32.152H203.025V38.056H212.361L212.001 40H200.817V22.864ZM214.587 22.864H220.275C221.491 22.864 222.491 22.984 223.275 23.224C224.059 23.448 224.675 23.76 225.123 24.16C225.587 24.544 225.907 25.008 226.083 25.552C226.259 26.08 226.347 26.648 226.347 27.256C226.347 28.04 226.163 28.744 225.795 29.368C225.443 29.992 224.819 30.512 223.923 30.928C224.499 31.152 224.971 31.416 225.339 31.72C225.723 32.008 226.027 32.336 226.251 32.704C226.491 33.056 226.651 33.432 226.731 33.832C226.827 34.216 226.875 34.616 226.875 35.032C226.875 35.736 226.763 36.392 226.539 37C226.331 37.592 225.987 38.112 225.507 38.56C225.027 39.008 224.395 39.36 223.611 39.616C222.827 39.872 221.859 40 220.707 40H214.587V22.864ZM220.563 30.112C221.859 30.112 222.787 29.88 223.347 29.416C223.907 28.936 224.187 28.24 224.187 27.328C224.187 26.4 223.883 25.728 223.275 25.312C222.683 24.896 221.659 24.688 220.203 24.688H216.747V30.112H220.563ZM220.635 38.176C221.419 38.176 222.067 38.104 222.579 37.96C223.107 37.816 223.523 37.616 223.827 37.36C224.147 37.088 224.363 36.768 224.475 36.4C224.603 36.016 224.667 35.584 224.667 35.104C224.667 34.096 224.371 33.328 223.779 32.8C223.187 32.256 222.195 31.984 220.803 31.984H216.747V38.176H220.635ZM230.87 35.128C231.062 36.328 231.534 37.2 232.286 37.744C233.054 38.272 234.19 38.536 235.694 38.536C236.446 38.536 237.07 38.456 237.566 38.296C238.078 38.12 238.486 37.896 238.79 37.624C239.094 37.336 239.31 37.008 239.438 36.64C239.566 36.256 239.63 35.856 239.63 35.44C239.63 35.104 239.59 34.784 239.51 34.48C239.43 34.16 239.27 33.872 239.03 33.616C238.806 33.36 238.486 33.136 238.07 32.944C237.67 32.752 237.15 32.6 236.51 32.488L234.35 32.104C233.502 31.96 232.75 31.768 232.094 31.528C231.438 31.288 230.878 30.984 230.414 30.616C229.966 30.232 229.622 29.76 229.382 29.2C229.158 28.64 229.046 27.96 229.046 27.16C229.046 26.376 229.206 25.688 229.526 25.096C229.862 24.504 230.31 24.008 230.87 23.608C231.43 23.208 232.094 22.912 232.862 22.72C233.63 22.528 234.462 22.432 235.358 22.432C236.494 22.432 237.438 22.56 238.19 22.816C238.958 23.056 239.582 23.384 240.062 23.8C240.542 24.216 240.902 24.696 241.142 25.24C241.398 25.768 241.59 26.312 241.718 26.872L239.654 27.28C239.526 26.8 239.358 26.376 239.15 26.008C238.958 25.624 238.694 25.312 238.358 25.072C238.038 24.816 237.638 24.624 237.158 24.496C236.678 24.368 236.094 24.304 235.406 24.304C234.622 24.304 233.966 24.376 233.438 24.52C232.91 24.664 232.486 24.864 232.166 25.12C231.846 25.36 231.614 25.656 231.47 26.008C231.342 26.344 231.278 26.704 231.278 27.088C231.278 27.504 231.326 27.872 231.422 28.192C231.534 28.496 231.71 28.768 231.95 29.008C232.206 29.232 232.534 29.424 232.934 29.584C233.334 29.728 233.83 29.856 234.422 29.968L236.822 30.4C238.598 30.736 239.902 31.296 240.734 32.08C241.566 32.848 241.982 33.984 241.982 35.488C241.982 36.176 241.846 36.824 241.574 37.432C241.318 38.024 240.926 38.544 240.398 38.992C239.886 39.44 239.238 39.792 238.454 40.048C237.67 40.304 236.75 40.432 235.694 40.432C234.686 40.432 233.766 40.328 232.934 40.12C232.118 39.928 231.406 39.616 230.798 39.184C230.19 38.752 229.702 38.2 229.334 37.528C228.966 36.856 228.742 36.056 228.662 35.128H230.87ZM244.564 22.864H246.772V40H244.564V22.864ZM254.284 24.832H248.62V22.864H262.18V24.832H256.516V40H254.284V24.832ZM264.018 22.864H275.106V24.808H266.226V30.184H274.626V32.152H266.226V38.056H275.562L275.202 40H264.018V22.864ZM279.036 35.128C279.228 36.328 279.7 37.2 280.452 37.744C281.22 38.272 282.356 38.536 283.86 38.536C284.612 38.536 285.236 38.456 285.732 38.296C286.244 38.12 286.652 37.896 286.956 37.624C287.26 37.336 287.476 37.008 287.604 36.64C287.732 36.256 287.796 35.856 287.796 35.44C287.796 35.104 287.756 34.784 287.676 34.48C287.596 34.16 287.436 33.872 287.196 33.616C286.972 33.36 286.652 33.136 286.236 32.944C285.836 32.752 285.316 32.6 284.676 32.488L282.516 32.104C281.668 31.96 280.916 31.768 280.26 31.528C279.604 31.288 279.044 30.984 278.58 30.616C278.132 30.232 277.788 29.76 277.548 29.2C277.324 28.64 277.212 27.96 277.212 27.16C277.212 26.376 277.372 25.688 277.692 25.096C278.028 24.504 278.476 24.008 279.036 23.608C279.596 23.208 280.26 22.912 281.028 22.72C281.796 22.528 282.628 22.432 283.524 22.432C284.66 22.432 285.604 22.56 286.356 22.816C287.124 23.056 287.748 23.384 288.228 23.8C288.708 24.216 289.068 24.696 289.308 25.24C289.564 25.768 289.756 26.312 289.884 26.872L287.82 27.28C287.692 26.8 287.524 26.376 287.316 26.008C287.124 25.624 286.86 25.312 286.524 25.072C286.204 24.816 285.804 24.624 285.324 24.496C284.844 24.368 284.26 24.304 283.572 24.304C282.788 24.304 282.132 24.376 281.604 24.52C281.076 24.664 280.652 24.864 280.332 25.12C280.012 25.36 279.78 25.656 279.636 26.008C279.508 26.344 279.444 26.704 279.444 27.088C279.444 27.504 279.492 27.872 279.588 28.192C279.7 28.496 279.876 28.768 280.116 29.008C280.372 29.232 280.7 29.424 281.1 29.584C281.5 29.728 281.996 29.856 282.588 29.968L284.988 30.4C286.764 30.736 288.068 31.296 288.9 32.08C289.732 32.848 290.148 33.984 290.148 35.488C290.148 36.176 290.012 36.824 289.74 37.432C289.484 38.024 289.092 38.544 288.564 38.992C288.052 39.44 287.404 39.792 286.62 40.048C285.836 40.304 284.916 40.432 283.86 40.432C282.852 40.432 281.932 40.328 281.1 40.12C280.284 39.928 279.572 39.616 278.964 39.184C278.356 38.752 277.868 38.2 277.5 37.528C277.132 36.856 276.908 36.056 276.828 35.128H279.036ZM297.594 22.864H308.226V24.808H299.802V30.424H307.698V32.416H299.802V40H297.594V22.864ZM317.722 40.432C316.554 40.432 315.482 40.24 314.506 39.856C313.546 39.456 312.714 38.88 312.01 38.128C311.322 37.36 310.786 36.416 310.402 35.296C310.018 34.176 309.826 32.896 309.826 31.456C309.826 30.016 310.018 28.736 310.402 27.616C310.802 26.496 311.346 25.552 312.034 24.784C312.738 24.016 313.57 23.432 314.53 23.032C315.506 22.632 316.57 22.432 317.722 22.432C318.89 22.432 319.954 22.632 320.914 23.032C321.89 23.416 322.722 23.992 323.41 24.76C324.098 25.512 324.634 26.448 325.018 27.568C325.402 28.672 325.594 29.944 325.594 31.384C325.594 32.824 325.402 34.112 325.018 35.248C324.65 36.368 324.122 37.312 323.434 38.08C322.746 38.848 321.914 39.432 320.938 39.832C319.978 40.232 318.906 40.432 317.722 40.432ZM317.722 38.512C318.634 38.512 319.434 38.344 320.122 38.008C320.826 37.672 321.41 37.2 321.874 36.592C322.338 35.968 322.69 35.224 322.93 34.36C323.17 33.48 323.29 32.504 323.29 31.432C323.29 30.376 323.17 29.416 322.93 28.552C322.69 27.672 322.33 26.92 321.85 26.296C321.386 25.672 320.81 25.192 320.122 24.856C319.434 24.52 318.634 24.352 317.722 24.352C316.794 24.352 315.978 24.52 315.274 24.856C314.586 25.192 314.002 25.672 313.522 26.296C313.058 26.92 312.706 27.672 312.466 28.552C312.242 29.416 312.13 30.376 312.13 31.432C312.13 32.504 312.242 33.48 312.466 34.36C312.706 35.224 313.058 35.968 313.522 36.592C313.986 37.2 314.562 37.672 315.25 38.008C315.954 38.344 316.778 38.512 317.722 38.512ZM328.298 22.864H333.914C335.194 22.864 336.242 23.008 337.058 23.296C337.874 23.584 338.514 23.96 338.978 24.424C339.458 24.872 339.786 25.384 339.962 25.96C340.138 26.536 340.226 27.12 340.226 27.712C340.226 28.8 339.994 29.728 339.53 30.496C339.082 31.264 338.338 31.864 337.298 32.296L340.898 40H338.426L335.186 32.824C334.978 32.856 334.754 32.88 334.514 32.896C334.274 32.896 334.058 32.896 333.866 32.896H330.482V40H328.298V22.864ZM334.13 31C334.898 31 335.53 30.928 336.026 30.784C336.522 30.624 336.914 30.408 337.202 30.136C337.49 29.848 337.69 29.504 337.802 29.104C337.914 28.704 337.97 28.256 337.97 27.76C337.97 27.28 337.906 26.856 337.778 26.488C337.65 26.12 337.426 25.808 337.106 25.552C336.802 25.28 336.386 25.08 335.858 24.952C335.33 24.808 334.658 24.736 333.842 24.736H330.482V31H334.13ZM347.846 22.864H350.054V38.032H358.934L358.598 40H347.846V22.864ZM360.842 22.864H371.93V24.808H363.05V30.184H371.45V32.152H363.05V38.056H372.386L372.026 40H360.842V22.864ZM382.124 31.192H388.532V38.056C388.1 38.456 387.62 38.808 387.092 39.112C386.58 39.4 386.036 39.648 385.46 39.856C384.9 40.048 384.316 40.192 383.708 40.288C383.116 40.384 382.532 40.432 381.956 40.432C380.692 40.432 379.564 40.232 378.572 39.832C377.596 39.416 376.764 38.824 376.076 38.056C375.404 37.288 374.892 36.352 374.54 35.248C374.188 34.128 374.012 32.864 374.012 31.456C374.012 30.016 374.204 28.736 374.588 27.616C374.972 26.496 375.5 25.552 376.172 24.784C376.86 24.016 377.676 23.432 378.62 23.032C379.564 22.632 380.596 22.432 381.716 22.432C382.676 22.432 383.524 22.552 384.26 22.792C384.996 23.016 385.62 23.344 386.132 23.776C386.66 24.208 387.092 24.728 387.428 25.336C387.764 25.928 388.02 26.592 388.196 27.328L386.06 27.688C385.932 27.192 385.756 26.736 385.532 26.32C385.324 25.904 385.052 25.552 384.716 25.264C384.38 24.96 383.964 24.728 383.468 24.568C382.988 24.408 382.404 24.328 381.716 24.328C380.82 24.328 380.036 24.504 379.364 24.856C378.692 25.192 378.132 25.672 377.684 26.296C377.236 26.92 376.892 27.672 376.652 28.552C376.428 29.416 376.316 30.376 376.316 31.432C376.316 32.488 376.428 33.456 376.652 34.336C376.876 35.2 377.22 35.944 377.684 36.568C378.164 37.192 378.756 37.672 379.46 38.008C380.164 38.344 380.996 38.512 381.956 38.512C382.82 38.512 383.628 38.408 384.38 38.2C385.148 37.992 385.836 37.664 386.444 37.216V33.112H382.124V31.192ZM391.312 22.864H393.52V40H391.312V22.864ZM401.032 24.832H395.368V22.864H408.928V24.832H403.264V40H401.032V24.832ZM410.766 22.864H412.974V40H410.766V22.864ZM416.286 22.864H419.022L424.542 37.36L430.158 22.864H432.798V40H430.758V26.488L425.382 40H423.582L418.302 26.536V40H416.286V22.864ZM441.143 22.864H443.471L450.119 40H447.719L445.919 35.224H438.575L436.775 40H434.471L441.143 22.864ZM445.247 33.304L442.223 25.36L439.247 33.304H445.247ZM464.991 34.36C464.895 35.224 464.679 36.032 464.343 36.784C464.007 37.52 463.551 38.16 462.975 38.704C462.399 39.248 461.695 39.672 460.863 39.976C460.047 40.28 459.095 40.432 458.007 40.432C456.823 40.432 455.759 40.232 454.815 39.832C453.871 39.432 453.071 38.848 452.415 38.08C451.759 37.312 451.247 36.376 450.879 35.272C450.527 34.152 450.351 32.88 450.351 31.456C450.351 30.016 450.543 28.736 450.927 27.616C451.311 26.496 451.847 25.552 452.535 24.784C453.223 24.016 454.031 23.432 454.959 23.032C455.903 22.632 456.919 22.432 458.007 22.432C459.063 22.432 459.975 22.568 460.743 22.84C461.511 23.112 462.159 23.496 462.687 23.992C463.231 24.488 463.663 25.08 463.983 25.768C464.319 26.456 464.575 27.216 464.751 28.048L462.591 28.408C462.447 27.784 462.255 27.224 462.015 26.728C461.791 26.216 461.495 25.784 461.127 25.432C460.775 25.08 460.343 24.816 459.831 24.64C459.335 24.448 458.727 24.352 458.007 24.352C457.159 24.352 456.399 24.528 455.727 24.88C455.071 25.216 454.511 25.696 454.047 26.32C453.599 26.928 453.255 27.672 453.015 28.552C452.775 29.416 452.655 30.376 452.655 31.432C452.655 32.488 452.775 33.456 453.015 34.336C453.255 35.2 453.599 35.944 454.047 36.568C454.511 37.192 455.071 37.672 455.727 38.008C456.399 38.344 457.167 38.512 458.031 38.512C458.815 38.512 459.479 38.416 460.023 38.224C460.583 38.016 461.039 37.728 461.391 37.36C461.759 36.992 462.047 36.552 462.255 36.04C462.463 35.528 462.615 34.968 462.711 34.36H464.991ZM471.176 32.728L465.2 22.864H467.744L472.28 30.784L476.936 22.864H479.264L473.408 32.728V40H471.176V32.728Z" fill="white"/>
<rect x="0.5" y="0.5" width="511" height="61" rx="30.5" stroke="white" stroke-opacity="0.16"/>
<defs>
<clipPath id="clip0_711_74064">
<rect width="17.2437" height="17.234" fill="white" transform="translate(42.5378 22.3828)"/>
</clipPath>
</defs>
</svg>
