<svg width="577" height="62" viewBox="0 0 577 62" fill="none" xmlns="http://www.w3.org/2000/svg">
<rect x="32" y="16" width="38" height="30" rx="15" fill="#BBDCD2"/>
<g clip-path="url(#clip0_711_74072)">
<path d="M51.1597 22.3828C46.4058 22.3828 42.5378 26.2486 42.5378 30.9998C42.5378 35.751 46.4058 39.6169 51.1597 39.6169C55.9136 39.6169 59.7815 35.751 59.7815 30.9998C59.7815 26.2486 55.9136 22.3828 51.1597 22.3828ZM45.771 36.3855L49.777 30.3794L51.7805 32.3818L45.771 36.3855ZM52.5424 31.6203L50.5389 29.6179L56.5483 25.6142L52.5424 31.6203Z" fill="black"/>
</g>
<path d="M102.421 34.36C102.325 35.224 102.109 36.032 101.773 36.784C101.437 37.52 100.981 38.16 100.405 38.704C99.8287 39.248 99.1247 39.672 98.2927 39.976C97.4767 40.28 96.5247 40.432 95.4367 40.432C94.2527 40.432 93.1887 40.232 92.2447 39.832C91.3007 39.432 90.5007 38.848 89.8447 38.08C89.1887 37.312 88.6767 36.376 88.3087 35.272C87.9567 34.152 87.7807 32.88 87.7807 31.456C87.7807 30.016 87.9727 28.736 88.3567 27.616C88.7407 26.496 89.2767 25.552 89.9647 24.784C90.6527 24.016 91.4607 23.432 92.3887 23.032C93.3327 22.632 94.3487 22.432 95.4367 22.432C96.4927 22.432 97.4047 22.568 98.1727 22.84C98.9407 23.112 99.5887 23.496 100.117 23.992C100.661 24.488 101.093 25.08 101.413 25.768C101.749 26.456 102.005 27.216 102.181 28.048L100.021 28.408C99.8767 27.784 99.6847 27.224 99.4447 26.728C99.2207 26.216 98.9247 25.784 98.5567 25.432C98.2047 25.08 97.7727 24.816 97.2607 24.64C96.7647 24.448 96.1567 24.352 95.4367 24.352C94.5887 24.352 93.8287 24.528 93.1567 24.88C92.5007 25.216 91.9407 25.696 91.4767 26.32C91.0287 26.928 90.6847 27.672 90.4447 28.552C90.2047 29.416 90.0847 30.376 90.0847 31.432C90.0847 32.488 90.2047 33.456 90.4447 34.336C90.6847 35.2 91.0287 35.944 91.4767 36.568C91.9407 37.192 92.5007 37.672 93.1567 38.008C93.8287 38.344 94.5967 38.512 95.4607 38.512C96.2447 38.512 96.9087 38.416 97.4527 38.224C98.0127 38.016 98.4687 37.728 98.8207 37.36C99.1887 36.992 99.4767 36.552 99.6847 36.04C99.8927 35.528 100.045 34.968 100.141 34.36H102.421ZM104.94 22.864H107.148V30.112H115.812V22.864H118.02V40H115.812V32.176H107.148V40H104.94V22.864ZM121.335 22.864H132.423V24.808H123.543V30.184H131.943V32.152H123.543V38.056H132.879L132.519 40H121.335V22.864ZM149.145 34.36C149.049 35.224 148.833 36.032 148.497 36.784C148.161 37.52 147.705 38.16 147.129 38.704C146.553 39.248 145.849 39.672 145.017 39.976C144.201 40.28 143.249 40.432 142.161 40.432C140.977 40.432 139.913 40.232 138.969 39.832C138.025 39.432 137.225 38.848 136.569 38.08C135.913 37.312 135.401 36.376 135.033 35.272C134.681 34.152 134.505 32.88 134.505 31.456C134.505 30.016 134.697 28.736 135.081 27.616C135.465 26.496 136.001 25.552 136.689 24.784C137.377 24.016 138.185 23.432 139.113 23.032C140.057 22.632 141.073 22.432 142.161 22.432C143.217 22.432 144.129 22.568 144.897 22.84C145.665 23.112 146.313 23.496 146.841 23.992C147.385 24.488 147.817 25.08 148.137 25.768C148.473 26.456 148.729 27.216 148.905 28.048L146.745 28.408C146.601 27.784 146.409 27.224 146.169 26.728C145.945 26.216 145.649 25.784 145.281 25.432C144.929 25.08 144.497 24.816 143.985 24.64C143.489 24.448 142.881 24.352 142.161 24.352C141.313 24.352 140.553 24.528 139.881 24.88C139.225 25.216 138.665 25.696 138.201 26.32C137.753 26.928 137.409 27.672 137.169 28.552C136.929 29.416 136.809 30.376 136.809 31.432C136.809 32.488 136.929 33.456 137.169 34.336C137.409 35.2 137.753 35.944 138.201 36.568C138.665 37.192 139.225 37.672 139.881 38.008C140.553 38.344 141.321 38.512 142.185 38.512C142.969 38.512 143.633 38.416 144.177 38.224C144.737 38.016 145.193 37.728 145.545 37.36C145.913 36.992 146.201 36.552 146.409 36.04C146.617 35.528 146.769 34.968 146.865 34.36H149.145ZM151.664 22.864H153.896V31.072L161.936 22.864H164.456L158.336 29.272L165.08 40H162.536L156.728 30.736L153.896 33.568V40H151.664V22.864ZM171.657 22.864H177.345C178.561 22.864 179.561 22.984 180.345 23.224C181.129 23.448 181.745 23.76 182.193 24.16C182.657 24.544 182.977 25.008 183.153 25.552C183.329 26.08 183.417 26.648 183.417 27.256C183.417 28.04 183.233 28.744 182.865 29.368C182.513 29.992 181.889 30.512 180.993 30.928C181.569 31.152 182.041 31.416 182.409 31.72C182.793 32.008 183.097 32.336 183.321 32.704C183.561 33.056 183.721 33.432 183.801 33.832C183.897 34.216 183.945 34.616 183.945 35.032C183.945 35.736 183.833 36.392 183.609 37C183.401 37.592 183.057 38.112 182.577 38.56C182.097 39.008 181.465 39.36 180.681 39.616C179.897 39.872 178.929 40 177.777 40H171.657V22.864ZM177.633 30.112C178.929 30.112 179.857 29.88 180.417 29.416C180.977 28.936 181.257 28.24 181.257 27.328C181.257 26.4 180.953 25.728 180.345 25.312C179.753 24.896 178.729 24.688 177.273 24.688H173.817V30.112H177.633ZM177.705 38.176C178.489 38.176 179.137 38.104 179.649 37.96C180.177 37.816 180.593 37.616 180.897 37.36C181.217 37.088 181.433 36.768 181.545 36.4C181.673 36.016 181.737 35.584 181.737 35.104C181.737 34.096 181.441 33.328 180.849 32.8C180.257 32.256 179.265 31.984 177.873 31.984H173.817V38.176H177.705ZM186.341 22.864H191.957C193.237 22.864 194.285 23.008 195.101 23.296C195.917 23.584 196.557 23.96 197.021 24.424C197.501 24.872 197.829 25.384 198.005 25.96C198.181 26.536 198.269 27.12 198.269 27.712C198.269 28.8 198.037 29.728 197.573 30.496C197.125 31.264 196.381 31.864 195.341 32.296L198.941 40H196.469L193.229 32.824C193.021 32.856 192.797 32.88 192.557 32.896C192.317 32.896 192.101 32.896 191.909 32.896H188.525V40H186.341V22.864ZM192.173 31C192.941 31 193.573 30.928 194.069 30.784C194.565 30.624 194.957 30.408 195.245 30.136C195.533 29.848 195.733 29.504 195.845 29.104C195.957 28.704 196.013 28.256 196.013 27.76C196.013 27.28 195.949 26.856 195.821 26.488C195.693 26.12 195.469 25.808 195.149 25.552C194.845 25.28 194.429 25.08 193.901 24.952C193.373 24.808 192.701 24.736 191.885 24.736H188.525V31H192.173ZM206.417 22.864H208.745L215.393 40H212.993L211.193 35.224H203.849L202.049 40H199.745L206.417 22.864ZM210.521 33.304L207.497 25.36L204.521 33.304H210.521ZM217.068 22.864H219.252L227.964 36.472V22.864H230.1V40H227.988L219.204 26.464V40H217.068V22.864ZM233.417 22.864H239.417C240.665 22.864 241.777 23.04 242.753 23.392C243.745 23.728 244.577 24.248 245.249 24.952C245.937 25.656 246.465 26.536 246.833 27.592C247.201 28.648 247.385 29.888 247.385 31.312C247.385 32.752 247.185 34.016 246.785 35.104C246.401 36.192 245.841 37.096 245.105 37.816C244.369 38.536 243.473 39.08 242.417 39.448C241.361 39.816 240.177 40 238.865 40H233.417V22.864ZM238.961 38.08C241.089 38.08 242.641 37.488 243.617 36.304C244.593 35.104 245.081 33.456 245.081 31.36C245.081 30.32 244.969 29.392 244.745 28.576C244.537 27.76 244.201 27.072 243.737 26.512C243.289 25.936 242.705 25.504 241.985 25.216C241.265 24.912 240.409 24.76 239.417 24.76H235.625V38.08H238.961ZM253.325 22.864H255.821L259.397 36.952L263.117 22.936H265.493L269.189 36.952L272.741 22.864H275.093L270.341 40H268.013L264.197 25.672L260.453 40H258.197L253.325 22.864ZM276.789 22.864H287.877V24.808H278.997V30.184H287.397V32.152H278.997V38.056H288.333L287.973 40H276.789V22.864ZM290.559 22.864H296.247C297.463 22.864 298.463 22.984 299.247 23.224C300.031 23.448 300.647 23.76 301.095 24.16C301.559 24.544 301.879 25.008 302.055 25.552C302.231 26.08 302.319 26.648 302.319 27.256C302.319 28.04 302.135 28.744 301.767 29.368C301.415 29.992 300.791 30.512 299.895 30.928C300.471 31.152 300.943 31.416 301.311 31.72C301.695 32.008 301.999 32.336 302.223 32.704C302.463 33.056 302.623 33.432 302.703 33.832C302.799 34.216 302.847 34.616 302.847 35.032C302.847 35.736 302.735 36.392 302.511 37C302.303 37.592 301.959 38.112 301.479 38.56C300.999 39.008 300.367 39.36 299.583 39.616C298.799 39.872 297.831 40 296.679 40H290.559V22.864ZM296.535 30.112C297.831 30.112 298.759 29.88 299.319 29.416C299.879 28.936 300.159 28.24 300.159 27.328C300.159 26.4 299.855 25.728 299.247 25.312C298.655 24.896 297.631 24.688 296.175 24.688H292.719V30.112H296.535ZM296.607 38.176C297.391 38.176 298.039 38.104 298.551 37.96C299.079 37.816 299.495 37.616 299.799 37.36C300.119 37.088 300.335 36.768 300.447 36.4C300.575 36.016 300.639 35.584 300.639 35.104C300.639 34.096 300.343 33.328 299.751 32.8C299.159 32.256 298.167 31.984 296.775 31.984H292.719V38.176H296.607ZM306.843 35.128C307.035 36.328 307.507 37.2 308.259 37.744C309.027 38.272 310.163 38.536 311.667 38.536C312.419 38.536 313.043 38.456 313.539 38.296C314.051 38.12 314.459 37.896 314.763 37.624C315.067 37.336 315.283 37.008 315.411 36.64C315.539 36.256 315.603 35.856 315.603 35.44C315.603 35.104 315.563 34.784 315.483 34.48C315.403 34.16 315.243 33.872 315.003 33.616C314.779 33.36 314.459 33.136 314.043 32.944C313.643 32.752 313.123 32.6 312.483 32.488L310.323 32.104C309.475 31.96 308.723 31.768 308.067 31.528C307.411 31.288 306.851 30.984 306.387 30.616C305.939 30.232 305.595 29.76 305.355 29.2C305.131 28.64 305.019 27.96 305.019 27.16C305.019 26.376 305.179 25.688 305.499 25.096C305.835 24.504 306.283 24.008 306.843 23.608C307.403 23.208 308.067 22.912 308.835 22.72C309.603 22.528 310.435 22.432 311.331 22.432C312.467 22.432 313.411 22.56 314.163 22.816C314.931 23.056 315.555 23.384 316.035 23.8C316.515 24.216 316.875 24.696 317.115 25.24C317.371 25.768 317.563 26.312 317.691 26.872L315.627 27.28C315.499 26.8 315.331 26.376 315.123 26.008C314.931 25.624 314.667 25.312 314.331 25.072C314.011 24.816 313.611 24.624 313.131 24.496C312.651 24.368 312.067 24.304 311.379 24.304C310.595 24.304 309.939 24.376 309.411 24.52C308.883 24.664 308.459 24.864 308.139 25.12C307.819 25.36 307.587 25.656 307.443 26.008C307.315 26.344 307.251 26.704 307.251 27.088C307.251 27.504 307.299 27.872 307.395 28.192C307.507 28.496 307.683 28.768 307.923 29.008C308.179 29.232 308.507 29.424 308.907 29.584C309.307 29.728 309.803 29.856 310.395 29.968L312.795 30.4C314.571 30.736 315.875 31.296 316.707 32.08C317.539 32.848 317.955 33.984 317.955 35.488C317.955 36.176 317.819 36.824 317.547 37.432C317.291 38.024 316.899 38.544 316.371 38.992C315.859 39.44 315.211 39.792 314.427 40.048C313.643 40.304 312.723 40.432 311.667 40.432C310.659 40.432 309.739 40.328 308.907 40.12C308.091 39.928 307.379 39.616 306.771 39.184C306.163 38.752 305.675 38.2 305.307 37.528C304.939 36.856 304.715 36.056 304.635 35.128H306.843ZM320.537 22.864H322.745V40H320.537V22.864ZM330.257 24.832H324.593V22.864H338.153V24.832H332.489V40H330.257V24.832ZM339.991 22.864H351.079V24.808H342.199V30.184H350.599V32.152H342.199V38.056H351.535L351.175 40H339.991V22.864ZM355.009 35.128C355.201 36.328 355.673 37.2 356.425 37.744C357.193 38.272 358.329 38.536 359.833 38.536C360.585 38.536 361.209 38.456 361.705 38.296C362.217 38.12 362.625 37.896 362.929 37.624C363.233 37.336 363.449 37.008 363.577 36.64C363.705 36.256 363.769 35.856 363.769 35.44C363.769 35.104 363.729 34.784 363.649 34.48C363.569 34.16 363.409 33.872 363.169 33.616C362.945 33.36 362.625 33.136 362.209 32.944C361.809 32.752 361.289 32.6 360.649 32.488L358.489 32.104C357.641 31.96 356.889 31.768 356.233 31.528C355.577 31.288 355.017 30.984 354.553 30.616C354.105 30.232 353.761 29.76 353.521 29.2C353.297 28.64 353.185 27.96 353.185 27.16C353.185 26.376 353.345 25.688 353.665 25.096C354.001 24.504 354.449 24.008 355.009 23.608C355.569 23.208 356.233 22.912 357.001 22.72C357.769 22.528 358.601 22.432 359.497 22.432C360.633 22.432 361.577 22.56 362.329 22.816C363.097 23.056 363.721 23.384 364.201 23.8C364.681 24.216 365.041 24.696 365.281 25.24C365.537 25.768 365.729 26.312 365.857 26.872L363.793 27.28C363.665 26.8 363.497 26.376 363.289 26.008C363.097 25.624 362.833 25.312 362.497 25.072C362.177 24.816 361.777 24.624 361.297 24.496C360.817 24.368 360.233 24.304 359.545 24.304C358.761 24.304 358.105 24.376 357.577 24.52C357.049 24.664 356.625 24.864 356.305 25.12C355.985 25.36 355.753 25.656 355.609 26.008C355.481 26.344 355.417 26.704 355.417 27.088C355.417 27.504 355.465 27.872 355.561 28.192C355.673 28.496 355.849 28.768 356.089 29.008C356.345 29.232 356.673 29.424 357.073 29.584C357.473 29.728 357.969 29.856 358.561 29.968L360.961 30.4C362.737 30.736 364.041 31.296 364.873 32.08C365.705 32.848 366.121 33.984 366.121 35.488C366.121 36.176 365.985 36.824 365.713 37.432C365.457 38.024 365.065 38.544 364.537 38.992C364.025 39.44 363.377 39.792 362.593 40.048C361.809 40.304 360.889 40.432 359.833 40.432C358.825 40.432 357.905 40.328 357.073 40.12C356.257 39.928 355.545 39.616 354.937 39.184C354.329 38.752 353.841 38.2 353.473 37.528C353.105 36.856 352.881 36.056 352.801 35.128H355.009ZM373.566 22.864H384.198V24.808H375.774V30.424H383.67V32.416H375.774V40H373.566V22.864ZM393.695 40.432C392.527 40.432 391.455 40.24 390.479 39.856C389.519 39.456 388.687 38.88 387.983 38.128C387.295 37.36 386.759 36.416 386.375 35.296C385.991 34.176 385.799 32.896 385.799 31.456C385.799 30.016 385.991 28.736 386.375 27.616C386.775 26.496 387.319 25.552 388.007 24.784C388.711 24.016 389.543 23.432 390.503 23.032C391.479 22.632 392.543 22.432 393.695 22.432C394.863 22.432 395.927 22.632 396.887 23.032C397.863 23.416 398.695 23.992 399.383 24.76C400.071 25.512 400.607 26.448 400.991 27.568C401.375 28.672 401.567 29.944 401.567 31.384C401.567 32.824 401.375 34.112 400.991 35.248C400.623 36.368 400.095 37.312 399.407 38.08C398.719 38.848 397.887 39.432 396.911 39.832C395.951 40.232 394.879 40.432 393.695 40.432ZM393.695 38.512C394.607 38.512 395.407 38.344 396.095 38.008C396.799 37.672 397.383 37.2 397.847 36.592C398.311 35.968 398.663 35.224 398.903 34.36C399.143 33.48 399.263 32.504 399.263 31.432C399.263 30.376 399.143 29.416 398.903 28.552C398.663 27.672 398.303 26.92 397.823 26.296C397.359 25.672 396.783 25.192 396.095 24.856C395.407 24.52 394.607 24.352 393.695 24.352C392.767 24.352 391.951 24.52 391.247 24.856C390.559 25.192 389.975 25.672 389.495 26.296C389.031 26.92 388.679 27.672 388.439 28.552C388.215 29.416 388.103 30.376 388.103 31.432C388.103 32.504 388.215 33.48 388.439 34.36C388.679 35.224 389.031 35.968 389.495 36.592C389.959 37.2 390.535 37.672 391.223 38.008C391.927 38.344 392.751 38.512 393.695 38.512ZM404.27 22.864H409.886C411.166 22.864 412.214 23.008 413.03 23.296C413.846 23.584 414.486 23.96 414.95 24.424C415.43 24.872 415.758 25.384 415.934 25.96C416.11 26.536 416.198 27.12 416.198 27.712C416.198 28.8 415.966 29.728 415.502 30.496C415.054 31.264 414.31 31.864 413.27 32.296L416.87 40H414.398L411.158 32.824C410.95 32.856 410.726 32.88 410.486 32.896C410.246 32.896 410.03 32.896 409.838 32.896H406.454V40H404.27V22.864ZM410.102 31C410.87 31 411.502 30.928 411.998 30.784C412.494 30.624 412.886 30.408 413.174 30.136C413.462 29.848 413.662 29.504 413.774 29.104C413.886 28.704 413.942 28.256 413.942 27.76C413.942 27.28 413.878 26.856 413.75 26.488C413.622 26.12 413.398 25.808 413.078 25.552C412.774 25.28 412.358 25.08 411.83 24.952C411.302 24.808 410.63 24.736 409.814 24.736H406.454V31H410.102ZM437.858 34.36C437.762 35.224 437.546 36.032 437.21 36.784C436.874 37.52 436.418 38.16 435.842 38.704C435.266 39.248 434.562 39.672 433.73 39.976C432.914 40.28 431.962 40.432 430.874 40.432C429.69 40.432 428.626 40.232 427.682 39.832C426.738 39.432 425.938 38.848 425.282 38.08C424.626 37.312 424.114 36.376 423.746 35.272C423.394 34.152 423.218 32.88 423.218 31.456C423.218 30.016 423.41 28.736 423.794 27.616C424.178 26.496 424.714 25.552 425.402 24.784C426.09 24.016 426.898 23.432 427.826 23.032C428.77 22.632 429.786 22.432 430.874 22.432C431.93 22.432 432.842 22.568 433.61 22.84C434.378 23.112 435.026 23.496 435.554 23.992C436.098 24.488 436.53 25.08 436.85 25.768C437.186 26.456 437.442 27.216 437.618 28.048L435.458 28.408C435.314 27.784 435.122 27.224 434.882 26.728C434.658 26.216 434.362 25.784 433.994 25.432C433.642 25.08 433.21 24.816 432.698 24.64C432.202 24.448 431.594 24.352 430.874 24.352C430.026 24.352 429.266 24.528 428.594 24.88C427.938 25.216 427.378 25.696 426.914 26.32C426.466 26.928 426.122 27.672 425.882 28.552C425.642 29.416 425.522 30.376 425.522 31.432C425.522 32.488 425.642 33.456 425.882 34.336C426.122 35.2 426.466 35.944 426.914 36.568C427.378 37.192 427.938 37.672 428.594 38.008C429.266 38.344 430.034 38.512 430.898 38.512C431.682 38.512 432.346 38.416 432.89 38.224C433.45 38.016 433.906 37.728 434.258 37.36C434.626 36.992 434.914 36.552 435.122 36.04C435.33 35.528 435.482 34.968 435.578 34.36H437.858ZM447.673 40.432C446.505 40.432 445.433 40.24 444.457 39.856C443.497 39.456 442.665 38.88 441.961 38.128C441.273 37.36 440.737 36.416 440.353 35.296C439.969 34.176 439.777 32.896 439.777 31.456C439.777 30.016 439.969 28.736 440.353 27.616C440.753 26.496 441.297 25.552 441.985 24.784C442.689 24.016 443.521 23.432 444.481 23.032C445.457 22.632 446.521 22.432 447.673 22.432C448.841 22.432 449.905 22.632 450.865 23.032C451.841 23.416 452.673 23.992 453.361 24.76C454.049 25.512 454.585 26.448 454.969 27.568C455.353 28.672 455.545 29.944 455.545 31.384C455.545 32.824 455.353 34.112 454.969 35.248C454.601 36.368 454.073 37.312 453.385 38.08C452.697 38.848 451.865 39.432 450.889 39.832C449.929 40.232 448.857 40.432 447.673 40.432ZM447.673 38.512C448.585 38.512 449.385 38.344 450.073 38.008C450.777 37.672 451.361 37.2 451.825 36.592C452.289 35.968 452.641 35.224 452.881 34.36C453.121 33.48 453.241 32.504 453.241 31.432C453.241 30.376 453.121 29.416 452.881 28.552C452.641 27.672 452.281 26.92 451.801 26.296C451.337 25.672 450.761 25.192 450.073 24.856C449.385 24.52 448.585 24.352 447.673 24.352C446.745 24.352 445.929 24.52 445.225 24.856C444.537 25.192 443.953 25.672 443.473 26.296C443.009 26.92 442.657 27.672 442.417 28.552C442.193 29.416 442.081 30.376 442.081 31.432C442.081 32.504 442.193 33.48 442.417 34.36C442.657 35.224 443.009 35.968 443.473 36.592C443.937 37.2 444.513 37.672 445.201 38.008C445.905 38.344 446.729 38.512 447.673 38.512ZM458.249 22.864H460.433L469.145 36.472V22.864H471.281V40H469.169L460.385 26.464V40H458.249V22.864ZM478.797 24.832H473.133V22.864H486.693V24.832H481.029V40H478.797V24.832ZM491.18 22.864H493.508L500.156 40H497.756L495.956 35.224H488.612L486.812 40H484.508L491.18 22.864ZM495.284 33.304L492.26 25.36L489.284 33.304H495.284ZM515.028 34.36C514.932 35.224 514.716 36.032 514.38 36.784C514.044 37.52 513.589 38.16 513.012 38.704C512.436 39.248 511.732 39.672 510.9 39.976C510.084 40.28 509.132 40.432 508.044 40.432C506.86 40.432 505.796 40.232 504.852 39.832C503.908 39.432 503.108 38.848 502.452 38.08C501.796 37.312 501.284 36.376 500.916 35.272C500.564 34.152 500.388 32.88 500.388 31.456C500.388 30.016 500.58 28.736 500.964 27.616C501.348 26.496 501.884 25.552 502.572 24.784C503.26 24.016 504.068 23.432 504.996 23.032C505.94 22.632 506.956 22.432 508.044 22.432C509.1 22.432 510.012 22.568 510.78 22.84C511.548 23.112 512.196 23.496 512.724 23.992C513.268 24.488 513.701 25.08 514.02 25.768C514.356 26.456 514.612 27.216 514.788 28.048L512.628 28.408C512.484 27.784 512.292 27.224 512.052 26.728C511.828 26.216 511.532 25.784 511.164 25.432C510.812 25.08 510.38 24.816 509.868 24.64C509.372 24.448 508.764 24.352 508.044 24.352C507.196 24.352 506.436 24.528 505.764 24.88C505.108 25.216 504.548 25.696 504.084 26.32C503.636 26.928 503.292 27.672 503.052 28.552C502.812 29.416 502.692 30.376 502.692 31.432C502.692 32.488 502.812 33.456 503.052 34.336C503.292 35.2 503.636 35.944 504.084 36.568C504.548 37.192 505.108 37.672 505.764 38.008C506.436 38.344 507.204 38.512 508.068 38.512C508.852 38.512 509.516 38.416 510.06 38.224C510.62 38.016 511.076 37.728 511.428 37.36C511.796 36.992 512.084 36.552 512.292 36.04C512.5 35.528 512.652 34.968 512.748 34.36H515.028ZM521.021 24.832H515.357V22.864H528.917V24.832H523.253V40H521.021V24.832ZM532.237 35.128C532.429 36.328 532.901 37.2 533.653 37.744C534.421 38.272 535.557 38.536 537.061 38.536C537.813 38.536 538.437 38.456 538.933 38.296C539.445 38.12 539.853 37.896 540.157 37.624C540.461 37.336 540.677 37.008 540.805 36.64C540.933 36.256 540.997 35.856 540.997 35.44C540.997 35.104 540.957 34.784 540.877 34.48C540.797 34.16 540.637 33.872 540.397 33.616C540.173 33.36 539.853 33.136 539.437 32.944C539.037 32.752 538.517 32.6 537.877 32.488L535.717 32.104C534.869 31.96 534.117 31.768 533.461 31.528C532.805 31.288 532.245 30.984 531.781 30.616C531.333 30.232 530.989 29.76 530.749 29.2C530.525 28.64 530.413 27.96 530.413 27.16C530.413 26.376 530.573 25.688 530.893 25.096C531.229 24.504 531.677 24.008 532.237 23.608C532.797 23.208 533.461 22.912 534.229 22.72C534.997 22.528 535.829 22.432 536.725 22.432C537.861 22.432 538.805 22.56 539.557 22.816C540.325 23.056 540.949 23.384 541.429 23.8C541.909 24.216 542.269 24.696 542.509 25.24C542.765 25.768 542.957 26.312 543.085 26.872L541.021 27.28C540.893 26.8 540.725 26.376 540.517 26.008C540.325 25.624 540.061 25.312 539.725 25.072C539.405 24.816 539.005 24.624 538.525 24.496C538.045 24.368 537.461 24.304 536.773 24.304C535.989 24.304 535.333 24.376 534.805 24.52C534.277 24.664 533.853 24.864 533.533 25.12C533.213 25.36 532.981 25.656 532.837 26.008C532.709 26.344 532.645 26.704 532.645 27.088C532.645 27.504 532.693 27.872 532.789 28.192C532.901 28.496 533.077 28.768 533.317 29.008C533.573 29.232 533.901 29.424 534.301 29.584C534.701 29.728 535.197 29.856 535.789 29.968L538.189 30.4C539.965 30.736 541.269 31.296 542.101 32.08C542.933 32.848 543.349 33.984 543.349 35.488C543.349 36.176 543.213 36.824 542.941 37.432C542.685 38.024 542.293 38.544 541.765 38.992C541.253 39.44 540.605 39.792 539.821 40.048C539.037 40.304 538.117 40.432 537.061 40.432C536.053 40.432 535.133 40.328 534.301 40.12C533.485 39.928 532.773 39.616 532.165 39.184C531.557 38.752 531.069 38.2 530.701 37.528C530.333 36.856 530.109 36.056 530.029 35.128H532.237Z" fill="white"/>
<rect x="0.5" y="0.5" width="576" height="61" rx="30.5" stroke="white" stroke-opacity="0.16"/>
<defs>
<clipPath id="clip0_711_74072">
<rect width="17.2437" height="17.234" fill="white" transform="translate(42.5378 22.3828)"/>
</clipPath>
</defs>
</svg>
