<svg width="629" height="62" viewBox="0 0 629 62" fill="none" xmlns="http://www.w3.org/2000/svg">
<rect x="32" y="16" width="38" height="30" rx="15" fill="#BBDCD2"/>
<g clip-path="url(#clip0_749_81632)">
<path opacity="0.2" fill-rule="evenodd" clip-rule="evenodd" d="M44.0639 38.0452L44.0563 37.952L43.9518 38.0298L43.0759 27.326L41.9062 25.798L43.001 26.4101L43.0005 26.4048L43.1167 26.4698L43.1127 26.4202L50.0301 30.2873L43.2865 23.9546H51.1594H59.0323L52.5406 30.0507L59.3187 26.1729L59.3187 26.1729V26.1735L59.3217 26.2529L59.4347 26.1883L59.3202 27.339L59.3342 38.0452L58.2554 38.0442L58.2553 38.0452H44.0639Z" fill="url(#paint0_linear_749_81632)"/>
<path fill-rule="evenodd" clip-rule="evenodd" d="M60.413 25.798V24.828C60.413 24.3449 60.0225 23.9546 59.5353 23.9546H59.0326L51.1596 29.6937L43.2867 23.9546H42.7802C42.2968 23.9546 41.9062 24.3449 41.9062 24.828V25.798L41.9063 25.7981V37.1718C41.9063 37.6549 42.2969 38.0452 42.7802 38.0452H44.064V27.371L51.1674 32.6617L58.2553 27.371L58.2554 27.3709V38.0452H59.5392C60.0226 38.0452 60.4131 37.6549 60.4131 37.1718V25.798L60.413 25.798Z" fill="#16191A"/>
</g>
<path d="M87.9891 22.864H93.6051C94.8851 22.864 95.9331 23.008 96.7491 23.296C97.5651 23.584 98.2051 23.96 98.6691 24.424C99.1491 24.872 99.4771 25.384 99.6531 25.96C99.8291 26.536 99.9171 27.12 99.9171 27.712C99.9171 28.8 99.6851 29.728 99.2211 30.496C98.7731 31.264 98.0291 31.864 96.9891 32.296L100.589 40H98.1171L94.8771 32.824C94.6691 32.856 94.4451 32.88 94.2051 32.896C93.9651 32.896 93.7491 32.896 93.5571 32.896H90.1731V40H87.9891V22.864ZM93.8211 31C94.5891 31 95.2211 30.928 95.7171 30.784C96.2131 30.624 96.6051 30.408 96.8931 30.136C97.1811 29.848 97.3811 29.504 97.4931 29.104C97.6051 28.704 97.6611 28.256 97.6611 27.76C97.6611 27.28 97.5971 26.856 97.4691 26.488C97.3411 26.12 97.1171 25.808 96.7971 25.552C96.4931 25.28 96.0771 25.08 95.5491 24.952C95.0211 24.808 94.3491 24.736 93.5331 24.736H90.1731V31H93.8211ZM102.673 22.864H113.761V24.808H104.881V30.184H113.281V32.152H104.881V38.056H114.217L113.857 40H102.673V22.864ZM117.691 35.128C117.883 36.328 118.355 37.2 119.107 37.744C119.875 38.272 121.011 38.536 122.515 38.536C123.267 38.536 123.891 38.456 124.387 38.296C124.899 38.12 125.307 37.896 125.611 37.624C125.915 37.336 126.131 37.008 126.259 36.64C126.387 36.256 126.451 35.856 126.451 35.44C126.451 35.104 126.411 34.784 126.331 34.48C126.251 34.16 126.091 33.872 125.851 33.616C125.627 33.36 125.307 33.136 124.891 32.944C124.491 32.752 123.971 32.6 123.331 32.488L121.171 32.104C120.323 31.96 119.571 31.768 118.915 31.528C118.259 31.288 117.699 30.984 117.235 30.616C116.787 30.232 116.443 29.76 116.203 29.2C115.979 28.64 115.867 27.96 115.867 27.16C115.867 26.376 116.027 25.688 116.347 25.096C116.683 24.504 117.131 24.008 117.691 23.608C118.251 23.208 118.915 22.912 119.683 22.72C120.451 22.528 121.283 22.432 122.179 22.432C123.315 22.432 124.259 22.56 125.011 22.816C125.779 23.056 126.403 23.384 126.883 23.8C127.363 24.216 127.723 24.696 127.963 25.24C128.219 25.768 128.411 26.312 128.539 26.872L126.475 27.28C126.347 26.8 126.179 26.376 125.971 26.008C125.779 25.624 125.515 25.312 125.179 25.072C124.859 24.816 124.459 24.624 123.979 24.496C123.499 24.368 122.915 24.304 122.227 24.304C121.443 24.304 120.787 24.376 120.259 24.52C119.731 24.664 119.307 24.864 118.987 25.12C118.667 25.36 118.435 25.656 118.291 26.008C118.163 26.344 118.099 26.704 118.099 27.088C118.099 27.504 118.147 27.872 118.243 28.192C118.355 28.496 118.531 28.768 118.771 29.008C119.027 29.232 119.355 29.424 119.755 29.584C120.155 29.728 120.651 29.856 121.243 29.968L123.643 30.4C125.419 30.736 126.723 31.296 127.555 32.08C128.387 32.848 128.803 33.984 128.803 35.488C128.803 36.176 128.667 36.824 128.395 37.432C128.139 38.024 127.747 38.544 127.219 38.992C126.707 39.44 126.059 39.792 125.275 40.048C124.491 40.304 123.571 40.432 122.515 40.432C121.507 40.432 120.587 40.328 119.755 40.12C118.939 39.928 118.227 39.616 117.619 39.184C117.011 38.752 116.523 38.2 116.155 37.528C115.787 36.856 115.563 36.056 115.483 35.128H117.691ZM131.385 22.864H137.121C138.385 22.864 139.425 23 140.241 23.272C141.073 23.544 141.721 23.912 142.185 24.376C142.665 24.84 142.993 25.384 143.169 26.008C143.361 26.616 143.457 27.264 143.457 27.952C143.457 28.672 143.361 29.36 143.169 30.016C142.977 30.672 142.641 31.248 142.161 31.744C141.681 32.24 141.033 32.632 140.217 32.92C139.401 33.208 138.369 33.352 137.121 33.352H133.569V40H131.385V22.864ZM137.097 31.48C137.929 31.48 138.617 31.4 139.161 31.24C139.705 31.08 140.129 30.848 140.433 30.544C140.737 30.24 140.945 29.88 141.057 29.464C141.185 29.032 141.249 28.552 141.249 28.024C141.249 27.48 141.185 27 141.057 26.584C140.929 26.168 140.705 25.824 140.385 25.552C140.065 25.28 139.633 25.08 139.089 24.952C138.561 24.808 137.889 24.736 137.073 24.736H133.569V31.48H137.097ZM152.99 40.432C151.822 40.432 150.75 40.24 149.774 39.856C148.814 39.456 147.982 38.88 147.278 38.128C146.59 37.36 146.054 36.416 145.67 35.296C145.286 34.176 145.094 32.896 145.094 31.456C145.094 30.016 145.286 28.736 145.67 27.616C146.07 26.496 146.614 25.552 147.302 24.784C148.006 24.016 148.838 23.432 149.798 23.032C150.774 22.632 151.838 22.432 152.99 22.432C154.158 22.432 155.222 22.632 156.182 23.032C157.158 23.416 157.99 23.992 158.678 24.76C159.366 25.512 159.902 26.448 160.286 27.568C160.67 28.672 160.862 29.944 160.862 31.384C160.862 32.824 160.67 34.112 160.286 35.248C159.918 36.368 159.39 37.312 158.702 38.08C158.014 38.848 157.182 39.432 156.206 39.832C155.246 40.232 154.174 40.432 152.99 40.432ZM152.99 38.512C153.902 38.512 154.702 38.344 155.39 38.008C156.094 37.672 156.678 37.2 157.142 36.592C157.606 35.968 157.958 35.224 158.198 34.36C158.438 33.48 158.558 32.504 158.558 31.432C158.558 30.376 158.438 29.416 158.198 28.552C157.958 27.672 157.598 26.92 157.118 26.296C156.654 25.672 156.078 25.192 155.39 24.856C154.702 24.52 153.902 24.352 152.99 24.352C152.062 24.352 151.246 24.52 150.542 24.856C149.854 25.192 149.27 25.672 148.79 26.296C148.326 26.92 147.974 27.672 147.734 28.552C147.51 29.416 147.398 30.376 147.398 31.432C147.398 32.504 147.51 33.48 147.734 34.36C147.974 35.224 148.326 35.968 148.79 36.592C149.254 37.2 149.83 37.672 150.518 38.008C151.222 38.344 152.046 38.512 152.99 38.512ZM163.566 22.864H165.75L174.462 36.472V22.864H176.598V40H174.486L165.702 26.464V40H163.566V22.864ZM179.914 22.864H185.914C187.162 22.864 188.274 23.04 189.25 23.392C190.242 23.728 191.074 24.248 191.746 24.952C192.434 25.656 192.962 26.536 193.33 27.592C193.698 28.648 193.882 29.888 193.882 31.312C193.882 32.752 193.682 34.016 193.282 35.104C192.898 36.192 192.338 37.096 191.602 37.816C190.866 38.536 189.97 39.08 188.914 39.448C187.858 39.816 186.674 40 185.362 40H179.914V22.864ZM185.458 38.08C187.586 38.08 189.138 37.488 190.114 36.304C191.09 35.104 191.578 33.456 191.578 31.36C191.578 30.32 191.466 29.392 191.242 28.576C191.034 27.76 190.698 27.072 190.234 26.512C189.786 25.936 189.202 25.504 188.482 25.216C187.762 24.912 186.906 24.76 185.914 24.76H182.122V38.08H185.458ZM205.63 24.832H199.966V22.864H213.526V24.832H207.862V40H205.63V24.832ZM221.7 40.432C220.531 40.432 219.459 40.24 218.484 39.856C217.523 39.456 216.691 38.88 215.987 38.128C215.299 37.36 214.763 36.416 214.379 35.296C213.995 34.176 213.803 32.896 213.803 31.456C213.803 30.016 213.995 28.736 214.379 27.616C214.779 26.496 215.323 25.552 216.012 24.784C216.715 24.016 217.547 23.432 218.507 23.032C219.484 22.632 220.548 22.432 221.7 22.432C222.868 22.432 223.932 22.632 224.892 23.032C225.868 23.416 226.7 23.992 227.387 24.76C228.076 25.512 228.612 26.448 228.996 27.568C229.38 28.672 229.572 29.944 229.572 31.384C229.572 32.824 229.38 34.112 228.996 35.248C228.628 36.368 228.1 37.312 227.412 38.08C226.724 38.848 225.891 39.432 224.916 39.832C223.956 40.232 222.884 40.432 221.7 40.432ZM221.7 38.512C222.612 38.512 223.412 38.344 224.099 38.008C224.803 37.672 225.388 37.2 225.852 36.592C226.316 35.968 226.668 35.224 226.908 34.36C227.148 33.48 227.267 32.504 227.267 31.432C227.267 30.376 227.148 29.416 226.908 28.552C226.668 27.672 226.308 26.92 225.827 26.296C225.364 25.672 224.788 25.192 224.099 24.856C223.412 24.52 222.612 24.352 221.7 24.352C220.772 24.352 219.956 24.52 219.252 24.856C218.563 25.192 217.979 25.672 217.499 26.296C217.035 26.92 216.683 27.672 216.443 28.552C216.219 29.416 216.107 30.376 216.107 31.432C216.107 32.504 216.219 33.48 216.443 34.36C216.683 35.224 217.035 35.968 217.499 36.592C217.964 37.2 218.539 37.672 219.227 38.008C219.931 38.344 220.755 38.512 221.7 38.512ZM237.139 22.864H243.139C244.387 22.864 245.499 23.04 246.475 23.392C247.467 23.728 248.299 24.248 248.971 24.952C249.659 25.656 250.187 26.536 250.555 27.592C250.923 28.648 251.107 29.888 251.107 31.312C251.107 32.752 250.907 34.016 250.507 35.104C250.123 36.192 249.563 37.096 248.827 37.816C248.091 38.536 247.195 39.08 246.139 39.448C245.083 39.816 243.899 40 242.587 40H237.139V22.864ZM242.683 38.08C244.811 38.08 246.363 37.488 247.339 36.304C248.315 35.104 248.803 33.456 248.803 31.36C248.803 30.32 248.691 29.392 248.467 28.576C248.259 27.76 247.923 27.072 247.459 26.512C247.011 25.936 246.427 25.504 245.707 25.216C244.987 24.912 244.131 24.76 243.139 24.76H239.347V38.08H242.683ZM261.088 40.432C259.92 40.432 258.848 40.24 257.872 39.856C256.912 39.456 256.08 38.88 255.376 38.128C254.688 37.36 254.152 36.416 253.768 35.296C253.384 34.176 253.192 32.896 253.192 31.456C253.192 30.016 253.384 28.736 253.768 27.616C254.168 26.496 254.712 25.552 255.4 24.784C256.104 24.016 256.936 23.432 257.896 23.032C258.872 22.632 259.936 22.432 261.088 22.432C262.256 22.432 263.32 22.632 264.28 23.032C265.256 23.416 266.088 23.992 266.776 24.76C267.464 25.512 268 26.448 268.384 27.568C268.768 28.672 268.96 29.944 268.96 31.384C268.96 32.824 268.768 34.112 268.384 35.248C268.016 36.368 267.488 37.312 266.8 38.08C266.112 38.848 265.28 39.432 264.304 39.832C263.344 40.232 262.272 40.432 261.088 40.432ZM261.088 38.512C262 38.512 262.8 38.344 263.488 38.008C264.192 37.672 264.776 37.2 265.24 36.592C265.704 35.968 266.056 35.224 266.296 34.36C266.536 33.48 266.656 32.504 266.656 31.432C266.656 30.376 266.536 29.416 266.296 28.552C266.056 27.672 265.696 26.92 265.216 26.296C264.752 25.672 264.176 25.192 263.488 24.856C262.8 24.52 262 24.352 261.088 24.352C260.16 24.352 259.344 24.52 258.64 24.856C257.952 25.192 257.368 25.672 256.888 26.296C256.424 26.92 256.072 27.672 255.832 28.552C255.608 29.416 255.496 30.376 255.496 31.432C255.496 32.504 255.608 33.48 255.832 34.36C256.072 35.224 256.424 35.968 256.888 36.592C257.352 37.2 257.928 37.672 258.616 38.008C259.32 38.344 260.144 38.512 261.088 38.512ZM269.902 38.296L279.742 24.808H270.07V22.864H282.358V24.592L272.542 38.032H282.646L282.31 40H269.902V38.296ZM284.636 22.864H295.724V24.808H286.844V30.184H295.244V32.152H286.844V38.056H296.18L295.82 40H284.636V22.864ZM298.406 22.864H300.59L309.302 36.472V22.864H311.438V40H309.326L300.542 26.464V40H298.406V22.864ZM316.002 35.128C316.194 36.328 316.666 37.2 317.418 37.744C318.186 38.272 319.322 38.536 320.826 38.536C321.578 38.536 322.202 38.456 322.698 38.296C323.21 38.12 323.618 37.896 323.922 37.624C324.226 37.336 324.442 37.008 324.57 36.64C324.698 36.256 324.762 35.856 324.762 35.44C324.762 35.104 324.722 34.784 324.642 34.48C324.562 34.16 324.402 33.872 324.162 33.616C323.938 33.36 323.618 33.136 323.202 32.944C322.802 32.752 322.282 32.6 321.642 32.488L319.482 32.104C318.634 31.96 317.882 31.768 317.226 31.528C316.57 31.288 316.01 30.984 315.546 30.616C315.098 30.232 314.754 29.76 314.514 29.2C314.29 28.64 314.178 27.96 314.178 27.16C314.178 26.376 314.338 25.688 314.658 25.096C314.994 24.504 315.442 24.008 316.002 23.608C316.562 23.208 317.226 22.912 317.994 22.72C318.762 22.528 319.594 22.432 320.49 22.432C321.626 22.432 322.57 22.56 323.322 22.816C324.09 23.056 324.714 23.384 325.194 23.8C325.674 24.216 326.034 24.696 326.274 25.24C326.53 25.768 326.722 26.312 326.85 26.872L324.786 27.28C324.658 26.8 324.49 26.376 324.282 26.008C324.09 25.624 323.826 25.312 323.49 25.072C323.17 24.816 322.77 24.624 322.29 24.496C321.81 24.368 321.226 24.304 320.538 24.304C319.754 24.304 319.098 24.376 318.57 24.52C318.042 24.664 317.618 24.864 317.298 25.12C316.978 25.36 316.746 25.656 316.602 26.008C316.474 26.344 316.41 26.704 316.41 27.088C316.41 27.504 316.458 27.872 316.554 28.192C316.666 28.496 316.842 28.768 317.082 29.008C317.338 29.232 317.666 29.424 318.066 29.584C318.466 29.728 318.962 29.856 319.554 29.968L321.954 30.4C323.73 30.736 325.034 31.296 325.866 32.08C326.698 32.848 327.114 33.984 327.114 35.488C327.114 36.176 326.978 36.824 326.706 37.432C326.45 38.024 326.058 38.544 325.53 38.992C325.018 39.44 324.37 39.792 323.586 40.048C322.802 40.304 321.882 40.432 320.826 40.432C319.818 40.432 318.898 40.328 318.066 40.12C317.25 39.928 316.538 39.616 315.93 39.184C315.322 38.752 314.834 38.2 314.466 37.528C314.098 36.856 313.874 36.056 313.794 35.128H316.002ZM341.856 40.432C340.688 40.432 339.616 40.24 338.64 39.856C337.68 39.456 336.848 38.88 336.144 38.128C335.456 37.36 334.92 36.416 334.536 35.296C334.152 34.176 333.96 32.896 333.96 31.456C333.96 30.016 334.152 28.736 334.536 27.616C334.936 26.496 335.48 25.552 336.168 24.784C336.872 24.016 337.704 23.432 338.664 23.032C339.64 22.632 340.704 22.432 341.856 22.432C343.024 22.432 344.088 22.632 345.048 23.032C346.024 23.416 346.856 23.992 347.544 24.76C348.232 25.512 348.768 26.448 349.152 27.568C349.536 28.672 349.728 29.944 349.728 31.384C349.728 32.824 349.536 34.112 349.152 35.248C348.784 36.368 348.256 37.312 347.568 38.08C346.88 38.848 346.048 39.432 345.072 39.832C344.112 40.232 343.04 40.432 341.856 40.432ZM341.856 38.512C342.768 38.512 343.568 38.344 344.256 38.008C344.96 37.672 345.544 37.2 346.008 36.592C346.472 35.968 346.824 35.224 347.064 34.36C347.304 33.48 347.424 32.504 347.424 31.432C347.424 30.376 347.304 29.416 347.064 28.552C346.824 27.672 346.464 26.92 345.984 26.296C345.52 25.672 344.944 25.192 344.256 24.856C343.568 24.52 342.768 24.352 341.856 24.352C340.928 24.352 340.112 24.52 339.408 24.856C338.72 25.192 338.136 25.672 337.656 26.296C337.192 26.92 336.84 27.672 336.6 28.552C336.376 29.416 336.264 30.376 336.264 31.432C336.264 32.504 336.376 33.48 336.6 34.36C336.84 35.224 337.192 35.968 337.656 36.592C338.12 37.2 338.696 37.672 339.384 38.008C340.088 38.344 340.912 38.512 341.856 38.512ZM352.432 22.864H363.064V24.808H354.64V30.424H362.536V32.416H354.64V40H352.432V22.864ZM370.362 22.864H372.57V40H370.362V22.864ZM375.882 22.864H378.066L386.778 36.472V22.864H388.914V40H386.802L378.018 26.464V40H375.882V22.864ZM392.23 22.864H397.918C399.134 22.864 400.134 22.984 400.918 23.224C401.702 23.448 402.318 23.76 402.766 24.16C403.23 24.544 403.55 25.008 403.726 25.552C403.902 26.08 403.99 26.648 403.99 27.256C403.99 28.04 403.806 28.744 403.438 29.368C403.086 29.992 402.462 30.512 401.566 30.928C402.142 31.152 402.614 31.416 402.982 31.72C403.366 32.008 403.67 32.336 403.894 32.704C404.134 33.056 404.294 33.432 404.374 33.832C404.47 34.216 404.518 34.616 404.518 35.032C404.518 35.736 404.406 36.392 404.182 37C403.974 37.592 403.63 38.112 403.15 38.56C402.67 39.008 402.038 39.36 401.254 39.616C400.47 39.872 399.502 40 398.35 40H392.23V22.864ZM398.206 30.112C399.502 30.112 400.43 29.88 400.99 29.416C401.55 28.936 401.83 28.24 401.83 27.328C401.83 26.4 401.526 25.728 400.918 25.312C400.326 24.896 399.302 24.688 397.846 24.688H394.39V30.112H398.206ZM398.278 38.176C399.062 38.176 399.71 38.104 400.222 37.96C400.75 37.816 401.166 37.616 401.47 37.36C401.79 37.088 402.006 36.768 402.118 36.4C402.246 36.016 402.31 35.584 402.31 35.104C402.31 34.096 402.014 33.328 401.422 32.8C400.83 32.256 399.838 31.984 398.446 31.984H394.39V38.176H398.278ZM414.21 40.432C413.042 40.432 411.97 40.24 410.994 39.856C410.034 39.456 409.202 38.88 408.498 38.128C407.81 37.36 407.274 36.416 406.89 35.296C406.506 34.176 406.314 32.896 406.314 31.456C406.314 30.016 406.506 28.736 406.89 27.616C407.29 26.496 407.834 25.552 408.522 24.784C409.226 24.016 410.058 23.432 411.018 23.032C411.994 22.632 413.058 22.432 414.21 22.432C415.378 22.432 416.442 22.632 417.402 23.032C418.378 23.416 419.21 23.992 419.898 24.76C420.586 25.512 421.122 26.448 421.506 27.568C421.89 28.672 422.082 29.944 422.082 31.384C422.082 32.824 421.89 34.112 421.506 35.248C421.138 36.368 420.61 37.312 419.922 38.08C419.234 38.848 418.402 39.432 417.426 39.832C416.466 40.232 415.394 40.432 414.21 40.432ZM414.21 38.512C415.122 38.512 415.922 38.344 416.61 38.008C417.314 37.672 417.898 37.2 418.362 36.592C418.826 35.968 419.178 35.224 419.418 34.36C419.658 33.48 419.778 32.504 419.778 31.432C419.778 30.376 419.658 29.416 419.418 28.552C419.178 27.672 418.818 26.92 418.338 26.296C417.874 25.672 417.298 25.192 416.61 24.856C415.922 24.52 415.122 24.352 414.21 24.352C413.282 24.352 412.466 24.52 411.762 24.856C411.074 25.192 410.49 25.672 410.01 26.296C409.546 26.92 409.194 27.672 408.954 28.552C408.73 29.416 408.618 30.376 408.618 31.432C408.618 32.504 408.73 33.48 408.954 34.36C409.194 35.224 409.546 35.968 410.01 36.592C410.474 37.2 411.05 37.672 411.738 38.008C412.442 38.344 413.266 38.512 414.21 38.512ZM424.594 22.864H426.802V33.208C426.802 34.984 427.13 36.312 427.786 37.192C428.458 38.072 429.562 38.512 431.098 38.512C432.65 38.512 433.746 38.072 434.386 37.192C435.026 36.296 435.346 34.968 435.346 33.208V22.864H437.554V33.208C437.554 34.488 437.402 35.584 437.098 36.496C436.81 37.392 436.386 38.136 435.826 38.728C435.282 39.32 434.602 39.752 433.786 40.024C432.986 40.296 432.082 40.432 431.074 40.432C429.01 40.432 427.41 39.856 426.274 38.704C425.154 37.552 424.594 35.688 424.594 33.112V22.864ZM440.665 22.864H442.849L451.561 36.472V22.864H453.697V40H451.585L442.801 26.464V40H440.665V22.864ZM457.013 22.864H463.013C464.261 22.864 465.373 23.04 466.349 23.392C467.341 23.728 468.173 24.248 468.845 24.952C469.533 25.656 470.061 26.536 470.429 27.592C470.797 28.648 470.981 29.888 470.981 31.312C470.981 32.752 470.781 34.016 470.381 35.104C469.997 36.192 469.437 37.096 468.701 37.816C467.965 38.536 467.069 39.08 466.013 39.448C464.957 39.816 463.773 40 462.461 40H457.013V22.864ZM462.557 38.08C464.685 38.08 466.237 37.488 467.213 36.304C468.189 35.104 468.677 33.456 468.677 31.36C468.677 30.32 468.565 29.392 468.341 28.576C468.133 27.76 467.797 27.072 467.333 26.512C466.885 25.936 466.301 25.504 465.581 25.216C464.861 24.912 464.005 24.76 463.013 24.76H459.221V38.08H462.557ZM478.53 22.864H484.146C485.426 22.864 486.474 23.008 487.29 23.296C488.106 23.584 488.746 23.96 489.21 24.424C489.69 24.872 490.018 25.384 490.194 25.96C490.37 26.536 490.458 27.12 490.458 27.712C490.458 28.8 490.226 29.728 489.762 30.496C489.314 31.264 488.57 31.864 487.53 32.296L491.13 40H488.658L485.418 32.824C485.21 32.856 484.986 32.88 484.746 32.896C484.506 32.896 484.29 32.896 484.098 32.896H480.714V40H478.53V22.864ZM484.362 31C485.13 31 485.762 30.928 486.258 30.784C486.754 30.624 487.146 30.408 487.434 30.136C487.722 29.848 487.922 29.504 488.034 29.104C488.146 28.704 488.202 28.256 488.202 27.76C488.202 27.28 488.138 26.856 488.01 26.488C487.882 26.12 487.658 25.808 487.338 25.552C487.034 25.28 486.618 25.08 486.09 24.952C485.562 24.808 484.89 24.736 484.074 24.736H480.714V31H484.362ZM493.214 22.864H504.302V24.808H495.422V30.184H503.822V32.152H495.422V38.056H504.758L504.398 40H493.214V22.864ZM518.36 39.424C517.784 39.744 517.152 39.992 516.464 40.168C515.792 40.344 515.064 40.432 514.28 40.432C513.112 40.432 512.04 40.24 511.064 39.856C510.104 39.456 509.272 38.88 508.568 38.128C507.88 37.36 507.344 36.416 506.96 35.296C506.576 34.176 506.384 32.896 506.384 31.456C506.384 30.016 506.576 28.736 506.96 27.616C507.36 26.496 507.904 25.552 508.592 24.784C509.296 24.016 510.128 23.432 511.088 23.032C512.064 22.632 513.128 22.432 514.28 22.432C515.448 22.432 516.512 22.632 517.472 23.032C518.448 23.416 519.28 23.992 519.968 24.76C520.656 25.512 521.192 26.448 521.576 27.568C521.96 28.672 522.152 29.944 522.152 31.384C522.152 32.888 521.952 34.224 521.552 35.392C521.152 36.544 520.576 37.504 519.824 38.272L521.912 40.744L520.496 41.968L518.36 39.424ZM514.928 35.272L516.344 34.072L518.432 36.592C519.376 35.328 519.848 33.608 519.848 31.432C519.848 30.376 519.728 29.416 519.488 28.552C519.248 27.672 518.888 26.92 518.408 26.296C517.944 25.672 517.368 25.192 516.68 24.856C515.992 24.52 515.192 24.352 514.28 24.352C513.352 24.352 512.536 24.52 511.832 24.856C511.144 25.192 510.56 25.672 510.08 26.296C509.616 26.92 509.264 27.672 509.024 28.552C508.8 29.416 508.688 30.376 508.688 31.432C508.688 32.504 508.8 33.48 509.024 34.36C509.264 35.224 509.616 35.968 510.08 36.592C510.544 37.2 511.12 37.672 511.808 38.008C512.512 38.344 513.336 38.512 514.28 38.512C515.336 38.512 516.256 38.28 517.04 37.816L514.928 35.272ZM524.664 22.864H526.872V33.208C526.872 34.984 527.2 36.312 527.856 37.192C528.528 38.072 529.632 38.512 531.168 38.512C532.72 38.512 533.816 38.072 534.456 37.192C535.096 36.296 535.416 34.968 535.416 33.208V22.864H537.624V33.208C537.624 34.488 537.472 35.584 537.168 36.496C536.88 37.392 536.456 38.136 535.896 38.728C535.352 39.32 534.672 39.752 533.856 40.024C533.056 40.296 532.152 40.432 531.144 40.432C529.08 40.432 527.48 39.856 526.344 38.704C525.224 37.552 524.664 35.688 524.664 33.112V22.864ZM540.735 22.864H551.823V24.808H542.943V30.184H551.343V32.152H542.943V38.056H552.279L551.919 40H540.735V22.864ZM555.753 35.128C555.945 36.328 556.417 37.2 557.169 37.744C557.937 38.272 559.073 38.536 560.577 38.536C561.329 38.536 561.953 38.456 562.449 38.296C562.961 38.12 563.369 37.896 563.673 37.624C563.977 37.336 564.193 37.008 564.321 36.64C564.449 36.256 564.513 35.856 564.513 35.44C564.513 35.104 564.473 34.784 564.393 34.48C564.313 34.16 564.153 33.872 563.913 33.616C563.689 33.36 563.369 33.136 562.953 32.944C562.553 32.752 562.033 32.6 561.393 32.488L559.233 32.104C558.385 31.96 557.633 31.768 556.977 31.528C556.321 31.288 555.761 30.984 555.297 30.616C554.849 30.232 554.505 29.76 554.265 29.2C554.041 28.64 553.929 27.96 553.929 27.16C553.929 26.376 554.089 25.688 554.409 25.096C554.745 24.504 555.193 24.008 555.753 23.608C556.313 23.208 556.977 22.912 557.745 22.72C558.513 22.528 559.345 22.432 560.241 22.432C561.377 22.432 562.321 22.56 563.073 22.816C563.841 23.056 564.465 23.384 564.945 23.8C565.425 24.216 565.785 24.696 566.025 25.24C566.281 25.768 566.473 26.312 566.601 26.872L564.537 27.28C564.409 26.8 564.241 26.376 564.033 26.008C563.841 25.624 563.577 25.312 563.241 25.072C562.921 24.816 562.521 24.624 562.041 24.496C561.561 24.368 560.977 24.304 560.289 24.304C559.505 24.304 558.849 24.376 558.321 24.52C557.793 24.664 557.369 24.864 557.049 25.12C556.729 25.36 556.497 25.656 556.353 26.008C556.225 26.344 556.161 26.704 556.161 27.088C556.161 27.504 556.209 27.872 556.305 28.192C556.417 28.496 556.593 28.768 556.833 29.008C557.089 29.232 557.417 29.424 557.817 29.584C558.217 29.728 558.713 29.856 559.305 29.968L561.705 30.4C563.481 30.736 564.785 31.296 565.617 32.08C566.449 32.848 566.865 33.984 566.865 35.488C566.865 36.176 566.729 36.824 566.457 37.432C566.201 38.024 565.809 38.544 565.281 38.992C564.769 39.44 564.121 39.792 563.337 40.048C562.553 40.304 561.633 40.432 560.577 40.432C559.569 40.432 558.649 40.328 557.817 40.12C557.001 39.928 556.289 39.616 555.681 39.184C555.073 38.752 554.585 38.2 554.217 37.528C553.849 36.856 553.625 36.056 553.545 35.128H555.753ZM573.413 24.832H567.749V22.864H581.309V24.832H575.645V40H573.413V24.832ZM584.629 35.128C584.821 36.328 585.293 37.2 586.045 37.744C586.813 38.272 587.949 38.536 589.453 38.536C590.205 38.536 590.829 38.456 591.325 38.296C591.837 38.12 592.245 37.896 592.549 37.624C592.853 37.336 593.069 37.008 593.197 36.64C593.325 36.256 593.389 35.856 593.389 35.44C593.389 35.104 593.349 34.784 593.269 34.48C593.189 34.16 593.029 33.872 592.789 33.616C592.565 33.36 592.245 33.136 591.829 32.944C591.429 32.752 590.909 32.6 590.269 32.488L588.109 32.104C587.261 31.96 586.509 31.768 585.853 31.528C585.197 31.288 584.637 30.984 584.173 30.616C583.725 30.232 583.381 29.76 583.141 29.2C582.917 28.64 582.805 27.96 582.805 27.16C582.805 26.376 582.965 25.688 583.285 25.096C583.621 24.504 584.069 24.008 584.629 23.608C585.189 23.208 585.853 22.912 586.621 22.72C587.389 22.528 588.221 22.432 589.117 22.432C590.253 22.432 591.197 22.56 591.949 22.816C592.717 23.056 593.341 23.384 593.821 23.8C594.301 24.216 594.661 24.696 594.901 25.24C595.157 25.768 595.349 26.312 595.477 26.872L593.413 27.28C593.285 26.8 593.117 26.376 592.909 26.008C592.717 25.624 592.453 25.312 592.117 25.072C591.797 24.816 591.397 24.624 590.917 24.496C590.437 24.368 589.853 24.304 589.165 24.304C588.381 24.304 587.725 24.376 587.197 24.52C586.669 24.664 586.245 24.864 585.925 25.12C585.605 25.36 585.373 25.656 585.229 26.008C585.101 26.344 585.037 26.704 585.037 27.088C585.037 27.504 585.085 27.872 585.181 28.192C585.293 28.496 585.469 28.768 585.709 29.008C585.965 29.232 586.293 29.424 586.693 29.584C587.093 29.728 587.589 29.856 588.181 29.968L590.581 30.4C592.357 30.736 593.661 31.296 594.493 32.08C595.325 32.848 595.741 33.984 595.741 35.488C595.741 36.176 595.605 36.824 595.333 37.432C595.077 38.024 594.685 38.544 594.157 38.992C593.645 39.44 592.997 39.792 592.213 40.048C591.429 40.304 590.509 40.432 589.453 40.432C588.445 40.432 587.525 40.328 586.693 40.12C585.877 39.928 585.165 39.616 584.557 39.184C583.949 38.752 583.461 38.2 583.093 37.528C582.725 36.856 582.501 36.056 582.421 35.128H584.629Z" fill="white"/>
<rect x="0.5" y="0.5" width="628" height="61" rx="30.5" stroke="white" stroke-opacity="0.16"/>
<defs>
<linearGradient id="paint0_linear_749_81632" x1="50.8355" y1="26.3453" x2="56.9345" y2="36.2568" gradientUnits="userSpaceOnUse">
<stop/>
<stop offset="0.9425" stop-opacity="0"/>
</linearGradient>
<clipPath id="clip0_749_81632">
<rect width="19.7983" height="19.7872" fill="white" transform="translate(41.2605 21.1064)"/>
</clipPath>
</defs>
</svg>
