<svg width="470" height="62" viewBox="0 0 470 62" fill="none" xmlns="http://www.w3.org/2000/svg">
<rect x="32" y="16" width="38" height="30" rx="15" fill="#BBDCD2"/>
<g clip-path="url(#clip0_749_81640)">
<path fill-rule="evenodd" clip-rule="evenodd" d="M45.5715 23.0215H56.7479C58.0706 23.0215 59.1429 24.0931 59.1429 25.4151V36.5853C59.1429 37.9073 58.0706 38.9789 56.7479 38.9789H45.5715C44.2488 38.9789 43.1765 37.9073 43.1765 36.5853V25.4151C43.1765 24.0931 44.2488 23.0215 45.5715 23.0215ZM55.5661 28.1828C55.5661 27.4472 55.4133 26.8675 55.0702 26.3034L52.1202 26.9049C52.3073 27.2976 52.4289 27.7745 52.4289 28.4757C52.4289 29.7536 51.5215 31.6329 50.7886 32.8297L49.9997 26.5091L46.7534 26.8176L48.2377 35.7002H51.9424C53.5671 33.5653 55.5661 30.5234 55.5661 28.1828Z" fill="black"/>
</g>
<path d="M88.0093 22.864H90.7453L96.2653 37.36L101.881 22.864H104.521V40H102.481V26.488L97.1053 40H95.3053L90.0253 26.536V40H88.0093V22.864ZM112.866 22.864H115.194L121.842 40H119.442L117.642 35.224H110.298L108.498 40H106.194L112.866 22.864ZM116.97 33.304L113.946 25.36L110.97 33.304H116.97ZM123.518 22.864H125.702L134.414 36.472V22.864H136.55V40H134.438L125.654 26.464V40H123.518V22.864ZM144.906 22.864H147.234L153.882 40H151.482L149.682 35.224H142.338L140.538 40H138.234L144.906 22.864ZM149.01 33.304L145.986 25.36L143.01 33.304H149.01ZM162.226 31.192H168.634V38.056C168.202 38.456 167.722 38.808 167.194 39.112C166.682 39.4 166.138 39.648 165.562 39.856C165.002 40.048 164.418 40.192 163.81 40.288C163.218 40.384 162.634 40.432 162.058 40.432C160.794 40.432 159.666 40.232 158.674 39.832C157.698 39.416 156.866 38.824 156.178 38.056C155.506 37.288 154.994 36.352 154.642 35.248C154.29 34.128 154.114 32.864 154.114 31.456C154.114 30.016 154.306 28.736 154.69 27.616C155.074 26.496 155.602 25.552 156.274 24.784C156.962 24.016 157.778 23.432 158.722 23.032C159.666 22.632 160.698 22.432 161.818 22.432C162.778 22.432 163.626 22.552 164.362 22.792C165.098 23.016 165.722 23.344 166.234 23.776C166.762 24.208 167.194 24.728 167.53 25.336C167.866 25.928 168.122 26.592 168.298 27.328L166.162 27.688C166.034 27.192 165.858 26.736 165.634 26.32C165.426 25.904 165.154 25.552 164.818 25.264C164.482 24.96 164.066 24.728 163.57 24.568C163.09 24.408 162.506 24.328 161.818 24.328C160.922 24.328 160.138 24.504 159.466 24.856C158.794 25.192 158.234 25.672 157.786 26.296C157.338 26.92 156.994 27.672 156.754 28.552C156.53 29.416 156.418 30.376 156.418 31.432C156.418 32.488 156.53 33.456 156.754 34.336C156.978 35.2 157.322 35.944 157.786 36.568C158.266 37.192 158.858 37.672 159.562 38.008C160.266 38.344 161.098 38.512 162.058 38.512C162.922 38.512 163.73 38.408 164.482 38.2C165.25 37.992 165.938 37.664 166.546 37.216V33.112H162.226V31.192ZM171.414 22.864H182.502V24.808H173.622V30.184H182.022V32.152H173.622V38.056H182.958L182.598 40H171.414V22.864ZM190.048 22.864H192.256V40H190.048V22.864ZM195.568 22.864H197.752L206.464 36.472V22.864H208.6V40H206.488L197.704 26.464V40H195.568V22.864ZM211.916 22.864H217.916C219.164 22.864 220.276 23.04 221.252 23.392C222.244 23.728 223.076 24.248 223.748 24.952C224.436 25.656 224.964 26.536 225.332 27.592C225.7 28.648 225.884 29.888 225.884 31.312C225.884 32.752 225.684 34.016 225.284 35.104C224.9 36.192 224.34 37.096 223.604 37.816C222.868 38.536 221.972 39.08 220.916 39.448C219.86 39.816 218.676 40 217.364 40H211.916V22.864ZM217.46 38.08C219.588 38.08 221.14 37.488 222.116 36.304C223.092 35.104 223.58 33.456 223.58 31.36C223.58 30.32 223.468 29.392 223.244 28.576C223.036 27.76 222.7 27.072 222.236 26.512C221.788 25.936 221.204 25.504 220.484 25.216C219.764 24.912 218.908 24.76 217.916 24.76H214.124V38.08H217.46ZM228.569 22.864H230.777V40H228.569V22.864ZM232.505 22.864H235.001L240.209 37.144L245.513 22.864H247.889L241.313 40H239.081L232.505 22.864ZM249.593 22.864H251.801V40H249.593V22.864ZM255.113 22.864H261.113C262.361 22.864 263.473 23.04 264.449 23.392C265.441 23.728 266.273 24.248 266.945 24.952C267.633 25.656 268.161 26.536 268.529 27.592C268.897 28.648 269.081 29.888 269.081 31.312C269.081 32.752 268.881 34.016 268.481 35.104C268.097 36.192 267.537 37.096 266.801 37.816C266.065 38.536 265.169 39.08 264.113 39.448C263.057 39.816 261.873 40 260.561 40H255.113V22.864ZM260.657 38.08C262.785 38.08 264.337 37.488 265.313 36.304C266.289 35.104 266.777 33.456 266.777 31.36C266.777 30.32 266.665 29.392 266.441 28.576C266.233 27.76 265.897 27.072 265.433 26.512C264.985 25.936 264.401 25.504 263.681 25.216C262.961 24.912 262.105 24.76 261.113 24.76H257.321V38.08H260.657ZM271.574 22.864H273.782V33.208C273.782 34.984 274.11 36.312 274.766 37.192C275.438 38.072 276.542 38.512 278.078 38.512C279.63 38.512 280.726 38.072 281.366 37.192C282.006 36.296 282.326 34.968 282.326 33.208V22.864H284.534V33.208C284.534 34.488 284.382 35.584 284.078 36.496C283.79 37.392 283.366 38.136 282.806 38.728C282.262 39.32 281.582 39.752 280.766 40.024C279.966 40.296 279.062 40.432 278.054 40.432C275.99 40.432 274.39 39.856 273.254 38.704C272.134 37.552 271.574 35.688 271.574 33.112V22.864ZM291.841 22.864H294.169L300.817 40H298.417L296.617 35.224H289.273L287.473 40H285.169L291.841 22.864ZM295.945 33.304L292.921 25.36L289.945 33.304H295.945ZM302.493 22.864H304.701V38.032H313.581L313.245 40H302.493V22.864ZM320.354 22.864H326.09C327.354 22.864 328.394 23 329.21 23.272C330.042 23.544 330.69 23.912 331.154 24.376C331.634 24.84 331.962 25.384 332.138 26.008C332.33 26.616 332.426 27.264 332.426 27.952C332.426 28.672 332.33 29.36 332.138 30.016C331.946 30.672 331.61 31.248 331.13 31.744C330.65 32.24 330.002 32.632 329.186 32.92C328.37 33.208 327.338 33.352 326.09 33.352H322.538V40H320.354V22.864ZM326.066 31.48C326.898 31.48 327.586 31.4 328.13 31.24C328.674 31.08 329.098 30.848 329.402 30.544C329.706 30.24 329.914 29.88 330.026 29.464C330.154 29.032 330.218 28.552 330.218 28.024C330.218 27.48 330.154 27 330.026 26.584C329.898 26.168 329.674 25.824 329.354 25.552C329.034 25.28 328.602 25.08 328.058 24.952C327.53 24.808 326.858 24.736 326.042 24.736H322.538V31.48H326.066ZM337.898 22.864H340.226L346.874 40H344.474L342.674 35.224H335.33L333.53 40H331.226L337.898 22.864ZM342.002 33.304L338.978 25.36L336.002 33.304H342.002ZM350.411 32.728L344.435 22.864H346.979L351.515 30.784L356.171 22.864H358.499L352.643 32.728V40H350.411V32.728ZM360.257 22.864H362.993L368.513 37.36L374.129 22.864H376.769V40H374.729V26.488L369.353 40H367.553L362.273 26.536V40H360.257V22.864ZM380.074 22.864H391.162V24.808H382.282V30.184H390.682V32.152H382.282V38.056H391.618L391.258 40H380.074V22.864ZM393.844 22.864H396.028L404.74 36.472V22.864H406.876V40H404.764L395.98 26.464V40H393.844V22.864ZM414.392 24.832H408.728V22.864H422.288V24.832H416.624V40H414.392V24.832ZM425.609 35.128C425.801 36.328 426.273 37.2 427.025 37.744C427.793 38.272 428.929 38.536 430.433 38.536C431.185 38.536 431.809 38.456 432.305 38.296C432.817 38.12 433.225 37.896 433.529 37.624C433.833 37.336 434.049 37.008 434.177 36.64C434.305 36.256 434.369 35.856 434.369 35.44C434.369 35.104 434.329 34.784 434.249 34.48C434.169 34.16 434.009 33.872 433.769 33.616C433.545 33.36 433.225 33.136 432.809 32.944C432.409 32.752 431.889 32.6 431.249 32.488L429.089 32.104C428.241 31.96 427.489 31.768 426.833 31.528C426.177 31.288 425.617 30.984 425.153 30.616C424.705 30.232 424.361 29.76 424.121 29.2C423.897 28.64 423.785 27.96 423.785 27.16C423.785 26.376 423.945 25.688 424.265 25.096C424.601 24.504 425.049 24.008 425.609 23.608C426.169 23.208 426.833 22.912 427.601 22.72C428.369 22.528 429.201 22.432 430.097 22.432C431.233 22.432 432.177 22.56 432.929 22.816C433.697 23.056 434.321 23.384 434.801 23.8C435.281 24.216 435.641 24.696 435.881 25.24C436.137 25.768 436.329 26.312 436.457 26.872L434.393 27.28C434.265 26.8 434.097 26.376 433.889 26.008C433.697 25.624 433.433 25.312 433.097 25.072C432.777 24.816 432.377 24.624 431.897 24.496C431.417 24.368 430.833 24.304 430.145 24.304C429.361 24.304 428.705 24.376 428.177 24.52C427.649 24.664 427.225 24.864 426.905 25.12C426.585 25.36 426.353 25.656 426.209 26.008C426.081 26.344 426.017 26.704 426.017 27.088C426.017 27.504 426.065 27.872 426.161 28.192C426.273 28.496 426.449 28.768 426.689 29.008C426.945 29.232 427.273 29.424 427.673 29.584C428.073 29.728 428.569 29.856 429.161 29.968L431.561 30.4C433.337 30.736 434.641 31.296 435.473 32.08C436.305 32.848 436.721 33.984 436.721 35.488C436.721 36.176 436.585 36.824 436.313 37.432C436.057 38.024 435.665 38.544 435.137 38.992C434.625 39.44 433.977 39.792 433.193 40.048C432.409 40.304 431.489 40.432 430.433 40.432C429.425 40.432 428.505 40.328 427.673 40.12C426.857 39.928 426.145 39.616 425.537 39.184C424.929 38.752 424.441 38.2 424.073 37.528C423.705 36.856 423.481 36.056 423.401 35.128H425.609Z" fill="white"/>
<rect x="0.5" y="0.5" width="469" height="61" rx="30.5" stroke="white" stroke-opacity="0.16"/>
<defs>
<clipPath id="clip0_749_81640">
<rect width="15.9664" height="15.9574" fill="white" transform="translate(43.1765 23.0215)"/>
</clipPath>
</defs>
</svg>
