<svg width="442" height="62" viewBox="0 0 442 62" fill="none" xmlns="http://www.w3.org/2000/svg">
<rect x="32" y="16" width="38" height="30" rx="15" fill="#BBDCD2"/>
<g clip-path="url(#clip0_749_81656)">
<path d="M55.6969 25.6431C55.4691 25.6431 55.2844 25.8276 55.2844 26.0553V28.5287C55.2844 28.7564 55.4691 28.941 55.6969 28.941H58.1717C58.3995 28.941 58.5842 28.7564 58.5842 28.5287C58.5841 26.935 57.2915 25.6431 55.6969 25.6431Z" fill="black"/>
<path d="M55.6969 29.7651C55.0135 29.7651 54.4595 29.2114 54.4595 28.5284V26.5093C52.8844 26.7332 51.7892 28.1909 52.0132 29.7651C52.2372 31.3393 53.6958 32.4339 55.2708 32.21C56.5396 32.0296 57.5366 31.0332 57.7171 29.7651H55.6969Z" fill="black"/>
<path d="M60.6464 38.8343H52.3971C52.1693 38.8343 51.9846 38.6497 51.9846 38.4221C51.9846 38.1944 52.1693 38.0098 52.3971 38.0098H60.2339V23.9939H52.3971C52.1693 23.9939 51.9846 23.8093 51.9846 23.5816C51.9846 23.354 52.1693 23.1694 52.3971 23.1694H60.6464C60.8742 23.1694 61.0589 23.354 61.0589 23.5817V38.4221C61.0589 38.6498 60.8742 38.8343 60.6464 38.8343Z" fill="black"/>
<path d="M58.1716 36.3611H52.3971C52.1693 36.3611 51.9846 36.1765 51.9846 35.9489C51.9846 35.7212 52.1693 35.5366 52.3971 35.5366H58.1716C58.3994 35.5366 58.5841 35.7212 58.5841 35.9489C58.5841 36.1766 58.3994 36.3611 58.1716 36.3611Z" fill="black"/>
<path d="M58.1716 33.8875H52.3971C52.1693 33.8875 51.9846 33.7029 51.9846 33.4752C51.9846 33.2476 52.1693 33.063 52.3971 33.063H58.1716C58.3994 33.063 58.5841 33.2476 58.5841 33.4752C58.5841 33.7029 58.3994 33.8875 58.1716 33.8875Z" fill="black"/>
<path fill-rule="evenodd" clip-rule="evenodd" d="M52.3047 21.527C52.4277 21.4996 52.5566 21.5299 52.6544 21.6094C52.7528 21.6879 52.8099 21.8069 52.8095 21.9326V40.071C52.8095 40.0919 52.8079 40.1128 52.8047 40.1334C52.7701 40.3585 52.5595 40.5128 52.3344 40.4782L41.6103 38.8293C41.4091 38.7984 41.2606 38.6254 41.2605 38.422V24.406C41.2587 24.2125 41.3919 24.0437 41.5806 24.0004L52.3047 21.527ZM44.5602 34.2997C44.5602 34.5274 44.7449 34.7119 44.9727 34.7119C45.2005 34.7119 45.3852 34.5274 45.3852 34.2996V32.2385H46.6226C47.7616 32.2385 48.6849 31.3156 48.6849 30.1773V29.3528C48.6849 28.2145 47.7616 27.2917 46.6226 27.2917H44.9727C44.7449 27.2917 44.5602 27.4763 44.5602 27.7039V34.2997ZM46.6226 31.414H45.3852V28.1162H46.6226C47.306 28.1162 47.86 28.6699 47.86 29.3529V30.1773C47.86 30.8604 47.306 31.414 46.6226 31.414Z" fill="black"/>
</g>
<path d="M88.084 22.864H93.7C94.98 22.864 96.028 23.008 96.844 23.296C97.66 23.584 98.3 23.96 98.764 24.424C99.244 24.872 99.572 25.384 99.748 25.96C99.924 26.536 100.012 27.12 100.012 27.712C100.012 28.8 99.78 29.728 99.316 30.496C98.868 31.264 98.124 31.864 97.084 32.296L100.684 40H98.212L94.972 32.824C94.764 32.856 94.54 32.88 94.3 32.896C94.06 32.896 93.844 32.896 93.652 32.896H90.268V40H88.084V22.864ZM93.916 31C94.684 31 95.316 30.928 95.812 30.784C96.308 30.624 96.7 30.408 96.988 30.136C97.276 29.848 97.476 29.504 97.588 29.104C97.7 28.704 97.756 28.256 97.756 27.76C97.756 27.28 97.692 26.856 97.564 26.488C97.436 26.12 97.212 25.808 96.892 25.552C96.588 25.28 96.172 25.08 95.644 24.952C95.116 24.808 94.444 24.736 93.628 24.736H90.268V31H93.916ZM102.768 22.864H113.856V24.808H104.976V30.184H113.376V32.152H104.976V38.056H114.312L113.952 40H102.768V22.864ZM115.306 22.864H117.802L123.01 37.144L128.314 22.864H130.69L124.114 40H121.882L115.306 22.864ZM132.394 22.864H134.602V40H132.394V22.864ZM137.914 22.864H149.002V24.808H140.122V30.184H148.522V32.152H140.122V38.056H149.458L149.098 40H137.914V22.864ZM150.428 22.864H152.924L156.5 36.952L160.22 22.936H162.596L166.292 36.952L169.844 22.864H172.196L167.444 40H165.116L161.3 25.672L157.556 40H155.3L150.428 22.864ZM192.795 34.36C192.699 35.224 192.483 36.032 192.147 36.784C191.811 37.52 191.355 38.16 190.779 38.704C190.203 39.248 189.499 39.672 188.667 39.976C187.851 40.28 186.899 40.432 185.811 40.432C184.627 40.432 183.563 40.232 182.619 39.832C181.675 39.432 180.875 38.848 180.219 38.08C179.563 37.312 179.051 36.376 178.683 35.272C178.331 34.152 178.155 32.88 178.155 31.456C178.155 30.016 178.347 28.736 178.731 27.616C179.115 26.496 179.651 25.552 180.339 24.784C181.027 24.016 181.835 23.432 182.763 23.032C183.707 22.632 184.723 22.432 185.811 22.432C186.867 22.432 187.779 22.568 188.547 22.84C189.315 23.112 189.963 23.496 190.491 23.992C191.035 24.488 191.467 25.08 191.787 25.768C192.123 26.456 192.379 27.216 192.555 28.048L190.395 28.408C190.251 27.784 190.059 27.224 189.819 26.728C189.595 26.216 189.299 25.784 188.931 25.432C188.579 25.08 188.147 24.816 187.635 24.64C187.139 24.448 186.531 24.352 185.811 24.352C184.963 24.352 184.203 24.528 183.531 24.88C182.875 25.216 182.315 25.696 181.851 26.32C181.403 26.928 181.059 27.672 180.819 28.552C180.579 29.416 180.459 30.376 180.459 31.432C180.459 32.488 180.579 33.456 180.819 34.336C181.059 35.2 181.403 35.944 181.851 36.568C182.315 37.192 182.875 37.672 183.531 38.008C184.203 38.344 184.971 38.512 185.835 38.512C186.619 38.512 187.283 38.416 187.827 38.224C188.387 38.016 188.843 37.728 189.195 37.36C189.563 36.992 189.851 36.552 190.059 36.04C190.267 35.528 190.419 34.968 190.515 34.36H192.795ZM195.314 22.864H200.93C202.21 22.864 203.258 23.008 204.074 23.296C204.89 23.584 205.53 23.96 205.994 24.424C206.474 24.872 206.802 25.384 206.978 25.96C207.154 26.536 207.242 27.12 207.242 27.712C207.242 28.8 207.01 29.728 206.546 30.496C206.098 31.264 205.354 31.864 204.314 32.296L207.914 40H205.442L202.202 32.824C201.994 32.856 201.77 32.88 201.53 32.896C201.29 32.896 201.074 32.896 200.882 32.896H197.498V40H195.314V22.864ZM201.146 31C201.914 31 202.546 30.928 203.042 30.784C203.538 30.624 203.93 30.408 204.218 30.136C204.506 29.848 204.706 29.504 204.818 29.104C204.93 28.704 204.986 28.256 204.986 27.76C204.986 27.28 204.922 26.856 204.794 26.488C204.666 26.12 204.442 25.808 204.122 25.552C203.818 25.28 203.402 25.08 202.874 24.952C202.346 24.808 201.674 24.736 200.858 24.736H197.498V31H201.146ZM209.998 22.864H221.086V24.808H212.206V30.184H220.606V32.152H212.206V38.056H221.542L221.182 40H209.998V22.864ZM229.16 22.864H231.488L238.136 40H235.736L233.936 35.224H226.592L224.792 40H222.488L229.16 22.864ZM233.264 33.304L230.24 25.36L227.264 33.304H233.264ZM241.621 24.832H235.957V22.864H249.517V24.832H243.853V40H241.621V24.832ZM257.69 40.432C256.522 40.432 255.45 40.24 254.474 39.856C253.514 39.456 252.682 38.88 251.978 38.128C251.29 37.36 250.754 36.416 250.37 35.296C249.986 34.176 249.794 32.896 249.794 31.456C249.794 30.016 249.986 28.736 250.37 27.616C250.77 26.496 251.314 25.552 252.002 24.784C252.706 24.016 253.538 23.432 254.498 23.032C255.474 22.632 256.538 22.432 257.69 22.432C258.858 22.432 259.922 22.632 260.882 23.032C261.858 23.416 262.69 23.992 263.378 24.76C264.066 25.512 264.602 26.448 264.986 27.568C265.37 28.672 265.562 29.944 265.562 31.384C265.562 32.824 265.37 34.112 264.986 35.248C264.618 36.368 264.09 37.312 263.402 38.08C262.714 38.848 261.882 39.432 260.906 39.832C259.946 40.232 258.874 40.432 257.69 40.432ZM257.69 38.512C258.602 38.512 259.402 38.344 260.09 38.008C260.794 37.672 261.378 37.2 261.842 36.592C262.306 35.968 262.658 35.224 262.898 34.36C263.138 33.48 263.258 32.504 263.258 31.432C263.258 30.376 263.138 29.416 262.898 28.552C262.658 27.672 262.298 26.92 261.818 26.296C261.354 25.672 260.778 25.192 260.09 24.856C259.402 24.52 258.602 24.352 257.69 24.352C256.762 24.352 255.946 24.52 255.242 24.856C254.554 25.192 253.97 25.672 253.49 26.296C253.026 26.92 252.674 27.672 252.434 28.552C252.21 29.416 252.098 30.376 252.098 31.432C252.098 32.504 252.21 33.48 252.434 34.36C252.674 35.224 253.026 35.968 253.49 36.592C253.954 37.2 254.53 37.672 255.218 38.008C255.922 38.344 256.746 38.512 257.69 38.512ZM268.266 22.864H273.882C275.162 22.864 276.21 23.008 277.026 23.296C277.842 23.584 278.482 23.96 278.946 24.424C279.426 24.872 279.754 25.384 279.93 25.96C280.106 26.536 280.194 27.12 280.194 27.712C280.194 28.8 279.962 29.728 279.498 30.496C279.05 31.264 278.306 31.864 277.266 32.296L280.866 40H278.394L275.154 32.824C274.946 32.856 274.722 32.88 274.482 32.896C274.242 32.896 274.026 32.896 273.834 32.896H270.45V40H268.266V22.864ZM274.098 31C274.866 31 275.498 30.928 275.994 30.784C276.49 30.624 276.882 30.408 277.17 30.136C277.458 29.848 277.658 29.504 277.77 29.104C277.882 28.704 277.938 28.256 277.938 27.76C277.938 27.28 277.874 26.856 277.746 26.488C277.618 26.12 277.394 25.808 277.074 25.552C276.77 25.28 276.354 25.08 275.826 24.952C275.298 24.808 274.626 24.736 273.81 24.736H270.45V31H274.098ZM292.854 22.864H295.182L301.83 40H299.43L297.63 35.224H290.286L288.486 40H286.182L292.854 22.864ZM296.958 33.304L293.934 25.36L290.958 33.304H296.958ZM303.506 22.864H305.69L314.402 36.472V22.864H316.538V40H314.426L305.642 26.464V40H303.506V22.864ZM324.894 22.864H327.222L333.87 40H331.47L329.67 35.224H322.326L320.526 40H318.222L324.894 22.864ZM328.998 33.304L325.974 25.36L322.998 33.304H328.998ZM335.546 22.864H337.754V38.032H346.634L346.298 40H335.546V22.864ZM349.465 32.728L343.489 22.864H346.033L350.569 30.784L355.225 22.864H357.553L351.697 32.728V40H349.465V32.728ZM364.121 24.832H358.457V22.864H372.017V24.832H366.353V40H364.121V24.832ZM373.856 22.864H376.064V40H373.856V22.864ZM393.416 34.36C393.32 35.224 393.104 36.032 392.768 36.784C392.432 37.52 391.976 38.16 391.4 38.704C390.824 39.248 390.12 39.672 389.288 39.976C388.472 40.28 387.52 40.432 386.432 40.432C385.248 40.432 384.184 40.232 383.24 39.832C382.296 39.432 381.496 38.848 380.84 38.08C380.184 37.312 379.672 36.376 379.304 35.272C378.952 34.152 378.776 32.88 378.776 31.456C378.776 30.016 378.968 28.736 379.352 27.616C379.736 26.496 380.272 25.552 380.96 24.784C381.648 24.016 382.456 23.432 383.384 23.032C384.328 22.632 385.344 22.432 386.432 22.432C387.488 22.432 388.4 22.568 389.168 22.84C389.936 23.112 390.584 23.496 391.112 23.992C391.656 24.488 392.088 25.08 392.408 25.768C392.744 26.456 393 27.216 393.176 28.048L391.016 28.408C390.872 27.784 390.68 27.224 390.44 26.728C390.216 26.216 389.92 25.784 389.552 25.432C389.2 25.08 388.768 24.816 388.256 24.64C387.76 24.448 387.152 24.352 386.432 24.352C385.584 24.352 384.824 24.528 384.152 24.88C383.496 25.216 382.936 25.696 382.472 26.32C382.024 26.928 381.68 27.672 381.44 28.552C381.2 29.416 381.08 30.376 381.08 31.432C381.08 32.488 381.2 33.456 381.44 34.336C381.68 35.2 382.024 35.944 382.472 36.568C382.936 37.192 383.496 37.672 384.152 38.008C384.824 38.344 385.592 38.512 386.456 38.512C387.24 38.512 387.904 38.416 388.448 38.224C389.008 38.016 389.464 37.728 389.816 37.36C390.184 36.992 390.472 36.552 390.68 36.04C390.888 35.528 391.04 34.968 391.136 34.36H393.416ZM397.534 35.128C397.726 36.328 398.198 37.2 398.95 37.744C399.718 38.272 400.854 38.536 402.358 38.536C403.11 38.536 403.734 38.456 404.23 38.296C404.742 38.12 405.15 37.896 405.454 37.624C405.758 37.336 405.974 37.008 406.102 36.64C406.23 36.256 406.294 35.856 406.294 35.44C406.294 35.104 406.254 34.784 406.174 34.48C406.094 34.16 405.934 33.872 405.694 33.616C405.47 33.36 405.15 33.136 404.734 32.944C404.334 32.752 403.814 32.6 403.174 32.488L401.014 32.104C400.166 31.96 399.414 31.768 398.758 31.528C398.102 31.288 397.542 30.984 397.078 30.616C396.63 30.232 396.286 29.76 396.046 29.2C395.822 28.64 395.71 27.96 395.71 27.16C395.71 26.376 395.87 25.688 396.19 25.096C396.526 24.504 396.974 24.008 397.534 23.608C398.094 23.208 398.758 22.912 399.526 22.72C400.294 22.528 401.126 22.432 402.022 22.432C403.158 22.432 404.102 22.56 404.854 22.816C405.622 23.056 406.246 23.384 406.726 23.8C407.206 24.216 407.566 24.696 407.806 25.24C408.062 25.768 408.254 26.312 408.382 26.872L406.318 27.28C406.19 26.8 406.022 26.376 405.814 26.008C405.622 25.624 405.358 25.312 405.022 25.072C404.702 24.816 404.302 24.624 403.822 24.496C403.342 24.368 402.758 24.304 402.07 24.304C401.286 24.304 400.63 24.376 400.102 24.52C399.574 24.664 399.15 24.864 398.83 25.12C398.51 25.36 398.278 25.656 398.134 26.008C398.006 26.344 397.942 26.704 397.942 27.088C397.942 27.504 397.99 27.872 398.086 28.192C398.198 28.496 398.374 28.768 398.614 29.008C398.87 29.232 399.198 29.424 399.598 29.584C399.998 29.728 400.494 29.856 401.086 29.968L403.486 30.4C405.262 30.736 406.566 31.296 407.398 32.08C408.23 32.848 408.646 33.984 408.646 35.488C408.646 36.176 408.51 36.824 408.238 37.432C407.982 38.024 407.59 38.544 407.062 38.992C406.55 39.44 405.902 39.792 405.118 40.048C404.334 40.304 403.414 40.432 402.358 40.432C401.35 40.432 400.43 40.328 399.598 40.12C398.782 39.928 398.07 39.616 397.462 39.184C396.854 38.752 396.366 38.2 395.998 37.528C395.63 36.856 395.406 36.056 395.326 35.128H397.534Z" fill="white"/>
<rect x="0.5" y="0.5" width="441" height="61" rx="30.5" stroke="white" stroke-opacity="0.16"/>
<defs>
<clipPath id="clip0_749_81656">
<rect width="19.7983" height="19.7872" fill="white" transform="translate(41.2605 21.1064)"/>
</clipPath>
</defs>
</svg>
