<svg width="536" height="62" viewBox="0 0 536 62" fill="none" xmlns="http://www.w3.org/2000/svg">
<rect x="32" y="16" width="38" height="30" rx="15" fill="#BBDCD2"/>
<path fill-rule="evenodd" clip-rule="evenodd" d="M47.5262 22.3428C44.7569 22.3428 42.4978 24.6006 42.4978 27.3684V34.631C42.4978 37.3987 44.7569 39.6566 47.5262 39.6566H54.7929C57.5622 39.6566 59.8213 37.3987 59.8213 34.631V27.3684C59.8213 24.6006 57.5622 22.3428 54.7929 22.3428H47.5262ZM47.5262 23.6746H54.7929C56.8412 23.6746 58.4888 25.3186 58.4888 27.3684V34.631C58.4888 36.6782 56.8438 38.3248 54.7929 38.3248H47.5262C45.4779 38.3248 43.8304 36.6808 43.8304 34.631V27.3684C43.8304 25.3212 45.4753 23.6746 47.5262 23.6746ZM56.1567 25.0064C55.605 25.0064 55.1573 25.4539 55.1573 26.0053C55.1573 26.5568 55.605 27.0042 56.1567 27.0042C56.7085 27.0042 57.1562 26.5568 57.1562 26.0053C57.1562 25.4539 56.7085 25.0064 56.1567 25.0064ZM51.1596 26.3383C48.5907 26.3383 46.4955 28.4323 46.4955 30.9997C46.4955 33.5671 48.5907 35.6611 51.1596 35.6611C53.7284 35.6611 55.8236 33.5671 55.8236 30.9997C55.8236 28.4323 53.7284 26.3383 51.1596 26.3383ZM51.1596 27.6701C53.0075 27.6701 54.491 29.1528 54.491 30.9997C54.491 32.8466 53.0075 34.3293 51.1596 34.3293C49.3117 34.3293 47.8281 32.8466 47.8281 30.9997C47.8281 29.1528 49.3117 27.6701 51.1596 27.6701Z" fill="black"/>
<path d="M88.0843 22.864H93.7003C94.9803 22.864 96.0283 23.008 96.8443 23.296C97.6603 23.584 98.3003 23.96 98.7643 24.424C99.2443 24.872 99.5723 25.384 99.7483 25.96C99.9243 26.536 100.012 27.12 100.012 27.712C100.012 28.8 99.7803 29.728 99.3163 30.496C98.8683 31.264 98.1243 31.864 97.0843 32.296L100.684 40H98.2123L94.9723 32.824C94.7643 32.856 94.5403 32.88 94.3003 32.896C94.0603 32.896 93.8443 32.896 93.6523 32.896H90.2683V40H88.0843V22.864ZM93.9163 31C94.6843 31 95.3163 30.928 95.8123 30.784C96.3083 30.624 96.7003 30.408 96.9883 30.136C97.2763 29.848 97.4763 29.504 97.5883 29.104C97.7003 28.704 97.7563 28.256 97.7563 27.76C97.7563 27.28 97.6923 26.856 97.5643 26.488C97.4363 26.12 97.2123 25.808 96.8923 25.552C96.5883 25.28 96.1723 25.08 95.6443 24.952C95.1163 24.808 94.4443 24.736 93.6283 24.736H90.2683V31H93.9163ZM102.768 22.864H113.856V24.808H104.976V30.184H113.376V32.152H104.976V38.056H114.312L113.952 40H102.768V22.864ZM121.93 22.864H124.258L130.906 40H128.506L126.706 35.224H119.362L117.562 40H115.258L121.93 22.864ZM126.034 33.304L123.01 25.36L120.034 33.304H126.034ZM145.778 34.36C145.682 35.224 145.466 36.032 145.13 36.784C144.794 37.52 144.338 38.16 143.762 38.704C143.186 39.248 142.482 39.672 141.65 39.976C140.834 40.28 139.882 40.432 138.794 40.432C137.61 40.432 136.546 40.232 135.602 39.832C134.658 39.432 133.858 38.848 133.202 38.08C132.546 37.312 132.034 36.376 131.666 35.272C131.314 34.152 131.138 32.88 131.138 31.456C131.138 30.016 131.33 28.736 131.714 27.616C132.098 26.496 132.634 25.552 133.322 24.784C134.01 24.016 134.818 23.432 135.746 23.032C136.69 22.632 137.706 22.432 138.794 22.432C139.85 22.432 140.762 22.568 141.53 22.84C142.298 23.112 142.946 23.496 143.474 23.992C144.018 24.488 144.45 25.08 144.77 25.768C145.106 26.456 145.362 27.216 145.538 28.048L143.378 28.408C143.234 27.784 143.042 27.224 142.802 26.728C142.578 26.216 142.282 25.784 141.914 25.432C141.562 25.08 141.13 24.816 140.618 24.64C140.122 24.448 139.514 24.352 138.794 24.352C137.946 24.352 137.186 24.528 136.514 24.88C135.858 25.216 135.298 25.696 134.834 26.32C134.386 26.928 134.042 27.672 133.802 28.552C133.562 29.416 133.442 30.376 133.442 31.432C133.442 32.488 133.562 33.456 133.802 34.336C134.042 35.2 134.386 35.944 134.834 36.568C135.298 37.192 135.858 37.672 136.514 38.008C137.186 38.344 137.954 38.512 138.818 38.512C139.602 38.512 140.266 38.416 140.81 38.224C141.37 38.016 141.826 37.728 142.178 37.36C142.546 36.992 142.834 36.552 143.042 36.04C143.25 35.528 143.402 34.968 143.498 34.36H145.778ZM148.297 22.864H150.505V30.112H159.169V22.864H161.377V40H159.169V32.176H150.505V40H148.297V22.864ZM176.852 40.432C175.684 40.432 174.612 40.24 173.636 39.856C172.676 39.456 171.844 38.88 171.14 38.128C170.452 37.36 169.916 36.416 169.532 35.296C169.148 34.176 168.956 32.896 168.956 31.456C168.956 30.016 169.148 28.736 169.532 27.616C169.932 26.496 170.476 25.552 171.164 24.784C171.868 24.016 172.7 23.432 173.66 23.032C174.636 22.632 175.7 22.432 176.852 22.432C178.02 22.432 179.084 22.632 180.044 23.032C181.02 23.416 181.852 23.992 182.54 24.76C183.228 25.512 183.764 26.448 184.148 27.568C184.532 28.672 184.724 29.944 184.724 31.384C184.724 32.824 184.532 34.112 184.148 35.248C183.78 36.368 183.252 37.312 182.564 38.08C181.876 38.848 181.044 39.432 180.068 39.832C179.108 40.232 178.036 40.432 176.852 40.432ZM176.852 38.512C177.764 38.512 178.564 38.344 179.252 38.008C179.956 37.672 180.54 37.2 181.004 36.592C181.468 35.968 181.82 35.224 182.06 34.36C182.3 33.48 182.42 32.504 182.42 31.432C182.42 30.376 182.3 29.416 182.06 28.552C181.82 27.672 181.46 26.92 180.98 26.296C180.516 25.672 179.94 25.192 179.252 24.856C178.564 24.52 177.764 24.352 176.852 24.352C175.924 24.352 175.108 24.52 174.404 24.856C173.716 25.192 173.132 25.672 172.652 26.296C172.188 26.92 171.836 27.672 171.596 28.552C171.372 29.416 171.26 30.376 171.26 31.432C171.26 32.504 171.372 33.48 171.596 34.36C171.836 35.224 172.188 35.968 172.652 36.592C173.116 37.2 173.692 37.672 174.38 38.008C175.084 38.344 175.908 38.512 176.852 38.512ZM187.235 22.864H189.443V33.208C189.443 34.984 189.771 36.312 190.427 37.192C191.099 38.072 192.203 38.512 193.739 38.512C195.291 38.512 196.387 38.072 197.027 37.192C197.667 36.296 197.987 34.968 197.987 33.208V22.864H200.195V33.208C200.195 34.488 200.043 35.584 199.739 36.496C199.451 37.392 199.027 38.136 198.467 38.728C197.923 39.32 197.243 39.752 196.427 40.024C195.627 40.296 194.723 40.432 193.715 40.432C191.651 40.432 190.051 39.856 188.915 38.704C187.795 37.552 187.235 35.688 187.235 33.112V22.864ZM207.507 24.832H201.843V22.864H215.403V24.832H209.739V40H207.507V24.832ZM226.305 24.832H220.641V22.864H234.201V24.832H228.537V40H226.305V24.832ZM242.374 40.432C241.206 40.432 240.134 40.24 239.158 39.856C238.198 39.456 237.366 38.88 236.662 38.128C235.974 37.36 235.438 36.416 235.054 35.296C234.67 34.176 234.478 32.896 234.478 31.456C234.478 30.016 234.67 28.736 235.054 27.616C235.454 26.496 235.998 25.552 236.686 24.784C237.39 24.016 238.222 23.432 239.182 23.032C240.158 22.632 241.222 22.432 242.374 22.432C243.542 22.432 244.606 22.632 245.566 23.032C246.542 23.416 247.374 23.992 248.062 24.76C248.75 25.512 249.286 26.448 249.67 27.568C250.054 28.672 250.246 29.944 250.246 31.384C250.246 32.824 250.054 34.112 249.67 35.248C249.302 36.368 248.774 37.312 248.086 38.08C247.398 38.848 246.566 39.432 245.59 39.832C244.63 40.232 243.558 40.432 242.374 40.432ZM242.374 38.512C243.286 38.512 244.086 38.344 244.774 38.008C245.478 37.672 246.062 37.2 246.526 36.592C246.99 35.968 247.342 35.224 247.582 34.36C247.822 33.48 247.942 32.504 247.942 31.432C247.942 30.376 247.822 29.416 247.582 28.552C247.342 27.672 246.982 26.92 246.502 26.296C246.038 25.672 245.462 25.192 244.774 24.856C244.086 24.52 243.286 24.352 242.374 24.352C241.446 24.352 240.63 24.52 239.926 24.856C239.238 25.192 238.654 25.672 238.174 26.296C237.71 26.92 237.358 27.672 237.118 28.552C236.894 29.416 236.782 30.376 236.782 31.432C236.782 32.504 236.894 33.48 237.118 34.36C237.358 35.224 237.71 35.968 238.174 36.592C238.638 37.2 239.214 37.672 239.902 38.008C240.606 38.344 241.43 38.512 242.374 38.512ZM257.813 22.864H263.549C264.813 22.864 265.853 23 266.669 23.272C267.501 23.544 268.149 23.912 268.613 24.376C269.093 24.84 269.421 25.384 269.597 26.008C269.789 26.616 269.885 27.264 269.885 27.952C269.885 28.672 269.789 29.36 269.597 30.016C269.405 30.672 269.069 31.248 268.589 31.744C268.109 32.24 267.461 32.632 266.645 32.92C265.829 33.208 264.797 33.352 263.549 33.352H259.997V40H257.813V22.864ZM263.525 31.48C264.357 31.48 265.045 31.4 265.589 31.24C266.133 31.08 266.557 30.848 266.861 30.544C267.165 30.24 267.373 29.88 267.485 29.464C267.613 29.032 267.677 28.552 267.677 28.024C267.677 27.48 267.613 27 267.485 26.584C267.357 26.168 267.133 25.824 266.813 25.552C266.493 25.28 266.061 25.08 265.517 24.952C264.989 24.808 264.317 24.736 263.501 24.736H259.997V31.48H263.525ZM279.418 40.432C278.25 40.432 277.178 40.24 276.202 39.856C275.242 39.456 274.41 38.88 273.706 38.128C273.018 37.36 272.482 36.416 272.098 35.296C271.714 34.176 271.522 32.896 271.522 31.456C271.522 30.016 271.714 28.736 272.098 27.616C272.498 26.496 273.042 25.552 273.73 24.784C274.434 24.016 275.266 23.432 276.226 23.032C277.202 22.632 278.266 22.432 279.418 22.432C280.586 22.432 281.65 22.632 282.61 23.032C283.586 23.416 284.418 23.992 285.106 24.76C285.794 25.512 286.33 26.448 286.714 27.568C287.098 28.672 287.29 29.944 287.29 31.384C287.29 32.824 287.098 34.112 286.714 35.248C286.346 36.368 285.818 37.312 285.13 38.08C284.442 38.848 283.61 39.432 282.634 39.832C281.674 40.232 280.602 40.432 279.418 40.432ZM279.418 38.512C280.33 38.512 281.13 38.344 281.818 38.008C282.522 37.672 283.106 37.2 283.57 36.592C284.034 35.968 284.386 35.224 284.626 34.36C284.866 33.48 284.986 32.504 284.986 31.432C284.986 30.376 284.866 29.416 284.626 28.552C284.386 27.672 284.026 26.92 283.546 26.296C283.082 25.672 282.506 25.192 281.818 24.856C281.13 24.52 280.33 24.352 279.418 24.352C278.49 24.352 277.674 24.52 276.97 24.856C276.282 25.192 275.698 25.672 275.218 26.296C274.754 26.92 274.402 27.672 274.162 28.552C273.938 29.416 273.826 30.376 273.826 31.432C273.826 32.504 273.938 33.48 274.162 34.36C274.402 35.224 274.754 35.968 275.218 36.592C275.682 37.2 276.258 37.672 276.946 38.008C277.65 38.344 278.474 38.512 279.418 38.512ZM293.233 24.832H287.569V22.864H301.129V24.832H295.465V40H293.233V24.832ZM302.967 22.864H314.055V24.808H305.175V30.184H313.575V32.152H305.175V38.056H314.511L314.151 40H302.967V22.864ZM316.737 22.864H318.921L327.633 36.472V22.864H329.769V40H327.657L318.873 26.464V40H316.737V22.864ZM337.285 24.832H331.621V22.864H345.181V24.832H339.517V40H337.285V24.832ZM347.019 22.864H349.227V40H347.019V22.864ZM357.579 22.864H359.907L366.555 40H364.155L362.355 35.224H355.011L353.211 40H350.907L357.579 22.864ZM361.683 33.304L358.659 25.36L355.683 33.304H361.683ZM368.231 22.864H370.439V38.032H379.319L378.983 40H368.231V22.864ZM400.131 34.36C400.035 35.224 399.819 36.032 399.483 36.784C399.147 37.52 398.691 38.16 398.115 38.704C397.539 39.248 396.835 39.672 396.003 39.976C395.187 40.28 394.235 40.432 393.147 40.432C391.963 40.432 390.899 40.232 389.955 39.832C389.011 39.432 388.211 38.848 387.555 38.08C386.899 37.312 386.387 36.376 386.019 35.272C385.667 34.152 385.491 32.88 385.491 31.456C385.491 30.016 385.683 28.736 386.067 27.616C386.451 26.496 386.987 25.552 387.675 24.784C388.363 24.016 389.171 23.432 390.099 23.032C391.043 22.632 392.059 22.432 393.147 22.432C394.203 22.432 395.115 22.568 395.883 22.84C396.651 23.112 397.299 23.496 397.827 23.992C398.371 24.488 398.803 25.08 399.123 25.768C399.459 26.456 399.715 27.216 399.891 28.048L397.731 28.408C397.587 27.784 397.395 27.224 397.155 26.728C396.931 26.216 396.635 25.784 396.267 25.432C395.915 25.08 395.483 24.816 394.971 24.64C394.475 24.448 393.867 24.352 393.147 24.352C392.299 24.352 391.539 24.528 390.867 24.88C390.211 25.216 389.651 25.696 389.187 26.32C388.739 26.928 388.395 27.672 388.155 28.552C387.915 29.416 387.795 30.376 387.795 31.432C387.795 32.488 387.915 33.456 388.155 34.336C388.395 35.2 388.739 35.944 389.187 36.568C389.651 37.192 390.211 37.672 390.867 38.008C391.539 38.344 392.307 38.512 393.171 38.512C393.955 38.512 394.619 38.416 395.163 38.224C395.723 38.016 396.179 37.728 396.531 37.36C396.899 36.992 397.187 36.552 397.395 36.04C397.603 35.528 397.755 34.968 397.851 34.36H400.131ZM402.65 22.864H408.266C409.546 22.864 410.594 23.008 411.41 23.296C412.226 23.584 412.866 23.96 413.33 24.424C413.81 24.872 414.138 25.384 414.314 25.96C414.49 26.536 414.578 27.12 414.578 27.712C414.578 28.8 414.346 29.728 413.882 30.496C413.434 31.264 412.69 31.864 411.65 32.296L415.25 40H412.778L409.538 32.824C409.33 32.856 409.106 32.88 408.866 32.896C408.626 32.896 408.41 32.896 408.218 32.896H404.834V40H402.65V22.864ZM408.482 31C409.25 31 409.882 30.928 410.378 30.784C410.874 30.624 411.266 30.408 411.554 30.136C411.842 29.848 412.042 29.504 412.154 29.104C412.266 28.704 412.322 28.256 412.322 27.76C412.322 27.28 412.258 26.856 412.13 26.488C412.002 26.12 411.778 25.808 411.458 25.552C411.154 25.28 410.738 25.08 410.21 24.952C409.682 24.808 409.01 24.736 408.194 24.736H404.834V31H408.482ZM417.334 22.864H428.422V24.808H419.542V30.184H427.942V32.152H419.542V38.056H428.878L428.518 40H417.334V22.864ZM436.496 22.864H438.824L445.472 40H443.072L441.272 35.224H433.928L432.128 40H429.824L436.496 22.864ZM440.6 33.304L437.576 25.36L434.6 33.304H440.6ZM448.957 24.832H443.293V22.864H456.853V24.832H451.189V40H448.957V24.832ZM465.026 40.432C463.858 40.432 462.786 40.24 461.81 39.856C460.85 39.456 460.018 38.88 459.314 38.128C458.626 37.36 458.09 36.416 457.706 35.296C457.322 34.176 457.13 32.896 457.13 31.456C457.13 30.016 457.322 28.736 457.706 27.616C458.106 26.496 458.65 25.552 459.338 24.784C460.042 24.016 460.874 23.432 461.834 23.032C462.81 22.632 463.874 22.432 465.026 22.432C466.194 22.432 467.258 22.632 468.218 23.032C469.194 23.416 470.026 23.992 470.714 24.76C471.402 25.512 471.938 26.448 472.322 27.568C472.706 28.672 472.898 29.944 472.898 31.384C472.898 32.824 472.706 34.112 472.322 35.248C471.954 36.368 471.426 37.312 470.738 38.08C470.05 38.848 469.218 39.432 468.242 39.832C467.282 40.232 466.21 40.432 465.026 40.432ZM465.026 38.512C465.938 38.512 466.738 38.344 467.426 38.008C468.13 37.672 468.714 37.2 469.178 36.592C469.642 35.968 469.994 35.224 470.234 34.36C470.474 33.48 470.594 32.504 470.594 31.432C470.594 30.376 470.474 29.416 470.234 28.552C469.994 27.672 469.634 26.92 469.154 26.296C468.69 25.672 468.114 25.192 467.426 24.856C466.738 24.52 465.938 24.352 465.026 24.352C464.098 24.352 463.282 24.52 462.578 24.856C461.89 25.192 461.306 25.672 460.826 26.296C460.362 26.92 460.01 27.672 459.77 28.552C459.546 29.416 459.434 30.376 459.434 31.432C459.434 32.504 459.546 33.48 459.77 34.36C460.01 35.224 460.362 35.968 460.826 36.592C461.29 37.2 461.866 37.672 462.554 38.008C463.258 38.344 464.082 38.512 465.026 38.512ZM475.602 22.864H481.218C482.498 22.864 483.546 23.008 484.362 23.296C485.178 23.584 485.818 23.96 486.282 24.424C486.762 24.872 487.09 25.384 487.266 25.96C487.442 26.536 487.53 27.12 487.53 27.712C487.53 28.8 487.298 29.728 486.834 30.496C486.386 31.264 485.642 31.864 484.602 32.296L488.202 40H485.73L482.49 32.824C482.282 32.856 482.058 32.88 481.818 32.896C481.578 32.896 481.362 32.896 481.17 32.896H477.786V40H475.602V22.864ZM481.434 31C482.202 31 482.834 30.928 483.33 30.784C483.826 30.624 484.218 30.408 484.506 30.136C484.794 29.848 484.994 29.504 485.106 29.104C485.218 28.704 485.274 28.256 485.274 27.76C485.274 27.28 485.21 26.856 485.082 26.488C484.954 26.12 484.73 25.808 484.41 25.552C484.106 25.28 483.69 25.08 483.162 24.952C482.634 24.808 481.962 24.736 481.146 24.736H477.786V31H481.434ZM491.534 35.128C491.726 36.328 492.198 37.2 492.95 37.744C493.718 38.272 494.854 38.536 496.358 38.536C497.11 38.536 497.734 38.456 498.23 38.296C498.742 38.12 499.15 37.896 499.454 37.624C499.758 37.336 499.974 37.008 500.102 36.64C500.23 36.256 500.294 35.856 500.294 35.44C500.294 35.104 500.254 34.784 500.174 34.48C500.094 34.16 499.934 33.872 499.694 33.616C499.47 33.36 499.15 33.136 498.734 32.944C498.334 32.752 497.814 32.6 497.174 32.488L495.014 32.104C494.166 31.96 493.414 31.768 492.758 31.528C492.102 31.288 491.542 30.984 491.078 30.616C490.63 30.232 490.286 29.76 490.046 29.2C489.822 28.64 489.71 27.96 489.71 27.16C489.71 26.376 489.87 25.688 490.19 25.096C490.526 24.504 490.974 24.008 491.534 23.608C492.094 23.208 492.758 22.912 493.526 22.72C494.294 22.528 495.126 22.432 496.022 22.432C497.158 22.432 498.102 22.56 498.854 22.816C499.622 23.056 500.246 23.384 500.726 23.8C501.206 24.216 501.566 24.696 501.806 25.24C502.062 25.768 502.254 26.312 502.382 26.872L500.318 27.28C500.19 26.8 500.022 26.376 499.814 26.008C499.622 25.624 499.358 25.312 499.022 25.072C498.702 24.816 498.302 24.624 497.822 24.496C497.342 24.368 496.758 24.304 496.07 24.304C495.286 24.304 494.63 24.376 494.102 24.52C493.574 24.664 493.15 24.864 492.83 25.12C492.51 25.36 492.278 25.656 492.134 26.008C492.006 26.344 491.942 26.704 491.942 27.088C491.942 27.504 491.99 27.872 492.086 28.192C492.198 28.496 492.374 28.768 492.614 29.008C492.87 29.232 493.198 29.424 493.598 29.584C493.998 29.728 494.494 29.856 495.086 29.968L497.486 30.4C499.262 30.736 500.566 31.296 501.398 32.08C502.23 32.848 502.646 33.984 502.646 35.488C502.646 36.176 502.51 36.824 502.238 37.432C501.982 38.024 501.59 38.544 501.062 38.992C500.55 39.44 499.902 39.792 499.118 40.048C498.334 40.304 497.414 40.432 496.358 40.432C495.35 40.432 494.43 40.328 493.598 40.12C492.782 39.928 492.07 39.616 491.462 39.184C490.854 38.752 490.366 38.2 489.998 37.528C489.63 36.856 489.406 36.056 489.326 35.128H491.534Z" fill="white"/>
<rect x="0.5" y="0.5" width="535" height="61" rx="30.5" stroke="white" stroke-opacity="0.16"/>
</svg>
