<svg width="352" height="62" viewBox="0 0 352 62" fill="none" xmlns="http://www.w3.org/2000/svg">
<rect x="32" y="16" width="38" height="30" rx="15" fill="#BBDCD2"/>
<g clip-path="url(#clip0_749_81732)">
<path d="M58.7146 26.7045C57.7305 26.7045 56.8226 26.3787 56.0934 25.829C55.2572 25.1989 54.6563 24.2746 54.4441 23.2092C54.3916 22.946 54.3633 22.6744 54.3606 22.396H51.5494V30.0732L51.5461 34.2784C51.5461 35.4026 50.8135 36.3559 49.7981 36.6912C49.5034 36.7884 49.1851 36.8346 48.8537 36.8164C48.4307 36.7932 48.0343 36.6656 47.6898 36.4596C46.9566 36.0213 46.4595 35.2263 46.446 34.3168C46.4248 32.8953 47.5746 31.7364 48.9959 31.7364C49.2764 31.7364 49.5459 31.7822 49.7981 31.8653V29.7669V29.0126C49.532 28.9732 49.2613 28.9527 48.9875 28.9527C47.4318 28.9527 45.9769 29.599 44.9369 30.7633C44.1508 31.6431 43.6793 32.7657 43.6065 33.9428C43.5112 35.4892 44.0774 36.9591 45.1753 38.0436C45.3366 38.2028 45.506 38.3506 45.6832 38.4869C46.6245 39.211 47.7753 39.6034 48.9875 39.6034C49.2613 39.6034 49.532 39.5833 49.7981 39.5439C50.9304 39.3762 51.9751 38.8582 52.7996 38.0436C53.8127 37.0429 54.3724 35.7143 54.3785 34.3003L54.364 28.0206C54.8473 28.3932 55.3757 28.7016 55.9429 28.9409C56.8249 29.3128 57.7602 29.5013 58.7227 29.501V27.4609V26.7038C58.7234 26.7045 58.7153 26.7045 58.7146 26.7045Z" fill="black"/>
</g>
<path d="M88.2672 22.864H98.8992V24.808H90.4752V30.424H98.3712V32.416H90.4752V40H88.2672V22.864ZM101.334 22.864H103.542V40H101.334V22.864ZM106.854 22.864H109.038L117.75 36.472V22.864H119.886V40H117.774L108.99 26.464V40H106.854V22.864ZM123.202 22.864H129.202C130.45 22.864 131.562 23.04 132.538 23.392C133.53 23.728 134.362 24.248 135.034 24.952C135.722 25.656 136.25 26.536 136.618 27.592C136.986 28.648 137.17 29.888 137.17 31.312C137.17 32.752 136.97 34.016 136.57 35.104C136.186 36.192 135.626 37.096 134.89 37.816C134.154 38.536 133.258 39.08 132.202 39.448C131.146 39.816 129.962 40 128.65 40H123.202V22.864ZM128.746 38.08C130.874 38.08 132.426 37.488 133.402 36.304C134.378 35.104 134.866 33.456 134.866 31.36C134.866 30.32 134.754 29.392 134.53 28.576C134.322 27.76 133.986 27.072 133.522 26.512C133.074 25.936 132.49 25.504 131.77 25.216C131.05 24.912 130.194 24.76 129.202 24.76H125.41V38.08H128.746ZM144.719 22.864H146.903L155.615 36.472V22.864H157.751V40H155.639L146.855 26.464V40H144.719V22.864ZM161.067 22.864H172.155V24.808H163.275V30.184H171.675V32.152H163.275V38.056H172.611L172.251 40H161.067V22.864ZM173.58 22.864H176.076L179.652 36.952L183.372 22.936H185.748L189.444 36.952L192.996 22.864H195.348L190.596 40H188.268L184.452 25.672L180.708 40H178.452L173.58 22.864ZM215.948 34.36C215.852 35.224 215.636 36.032 215.3 36.784C214.964 37.52 214.508 38.16 213.932 38.704C213.356 39.248 212.652 39.672 211.82 39.976C211.004 40.28 210.052 40.432 208.964 40.432C207.78 40.432 206.716 40.232 205.772 39.832C204.828 39.432 204.028 38.848 203.372 38.08C202.716 37.312 202.204 36.376 201.836 35.272C201.484 34.152 201.308 32.88 201.308 31.456C201.308 30.016 201.5 28.736 201.884 27.616C202.268 26.496 202.804 25.552 203.492 24.784C204.18 24.016 204.988 23.432 205.916 23.032C206.86 22.632 207.876 22.432 208.964 22.432C210.02 22.432 210.932 22.568 211.7 22.84C212.468 23.112 213.116 23.496 213.644 23.992C214.188 24.488 214.62 25.08 214.94 25.768C215.276 26.456 215.532 27.216 215.708 28.048L213.548 28.408C213.404 27.784 213.212 27.224 212.972 26.728C212.748 26.216 212.452 25.784 212.084 25.432C211.732 25.08 211.3 24.816 210.788 24.64C210.292 24.448 209.684 24.352 208.964 24.352C208.116 24.352 207.356 24.528 206.684 24.88C206.028 25.216 205.468 25.696 205.004 26.32C204.556 26.928 204.212 27.672 203.972 28.552C203.732 29.416 203.612 30.376 203.612 31.432C203.612 32.488 203.732 33.456 203.972 34.336C204.212 35.2 204.556 35.944 205.004 36.568C205.468 37.192 206.028 37.672 206.684 38.008C207.356 38.344 208.124 38.512 208.988 38.512C209.772 38.512 210.436 38.416 210.98 38.224C211.54 38.016 211.996 37.728 212.348 37.36C212.716 36.992 213.004 36.552 213.212 36.04C213.42 35.528 213.572 34.968 213.668 34.36H215.948ZM218.467 22.864H224.083C225.363 22.864 226.411 23.008 227.227 23.296C228.043 23.584 228.683 23.96 229.147 24.424C229.627 24.872 229.955 25.384 230.131 25.96C230.307 26.536 230.395 27.12 230.395 27.712C230.395 28.8 230.163 29.728 229.699 30.496C229.251 31.264 228.507 31.864 227.467 32.296L231.067 40H228.595L225.355 32.824C225.147 32.856 224.923 32.88 224.683 32.896C224.443 32.896 224.227 32.896 224.035 32.896H220.651V40H218.467V22.864ZM224.299 31C225.067 31 225.699 30.928 226.195 30.784C226.691 30.624 227.083 30.408 227.371 30.136C227.659 29.848 227.859 29.504 227.971 29.104C228.083 28.704 228.139 28.256 228.139 27.76C228.139 27.28 228.075 26.856 227.947 26.488C227.819 26.12 227.595 25.808 227.275 25.552C226.971 25.28 226.555 25.08 226.027 24.952C225.499 24.808 224.827 24.736 224.011 24.736H220.651V31H224.299ZM233.151 22.864H244.239V24.808H235.359V30.184H243.759V32.152H235.359V38.056H244.695L244.335 40H233.151V22.864ZM252.313 22.864H254.641L261.289 40H258.889L257.089 35.224H249.745L247.945 40H245.641L252.313 22.864ZM256.417 33.304L253.393 25.36L250.417 33.304H256.417ZM264.774 24.832H259.11V22.864H272.67V24.832H267.006V40H264.774V24.832ZM280.843 40.432C279.675 40.432 278.603 40.24 277.627 39.856C276.667 39.456 275.835 38.88 275.131 38.128C274.443 37.36 273.907 36.416 273.523 35.296C273.139 34.176 272.947 32.896 272.947 31.456C272.947 30.016 273.139 28.736 273.523 27.616C273.923 26.496 274.467 25.552 275.155 24.784C275.859 24.016 276.691 23.432 277.651 23.032C278.627 22.632 279.691 22.432 280.843 22.432C282.011 22.432 283.075 22.632 284.035 23.032C285.011 23.416 285.843 23.992 286.531 24.76C287.219 25.512 287.755 26.448 288.139 27.568C288.523 28.672 288.715 29.944 288.715 31.384C288.715 32.824 288.523 34.112 288.139 35.248C287.771 36.368 287.243 37.312 286.555 38.08C285.867 38.848 285.035 39.432 284.059 39.832C283.099 40.232 282.027 40.432 280.843 40.432ZM280.843 38.512C281.755 38.512 282.555 38.344 283.243 38.008C283.947 37.672 284.531 37.2 284.995 36.592C285.459 35.968 285.811 35.224 286.051 34.36C286.291 33.48 286.411 32.504 286.411 31.432C286.411 30.376 286.291 29.416 286.051 28.552C285.811 27.672 285.451 26.92 284.971 26.296C284.507 25.672 283.931 25.192 283.243 24.856C282.555 24.52 281.755 24.352 280.843 24.352C279.915 24.352 279.099 24.52 278.395 24.856C277.707 25.192 277.123 25.672 276.643 26.296C276.179 26.92 275.827 27.672 275.587 28.552C275.363 29.416 275.251 30.376 275.251 31.432C275.251 32.504 275.363 33.48 275.587 34.36C275.827 35.224 276.179 35.968 276.643 36.592C277.107 37.2 277.683 37.672 278.371 38.008C279.075 38.344 279.899 38.512 280.843 38.512ZM291.419 22.864H297.035C298.315 22.864 299.363 23.008 300.179 23.296C300.995 23.584 301.635 23.96 302.099 24.424C302.579 24.872 302.907 25.384 303.083 25.96C303.259 26.536 303.347 27.12 303.347 27.712C303.347 28.8 303.115 29.728 302.651 30.496C302.203 31.264 301.459 31.864 300.419 32.296L304.019 40H301.547L298.307 32.824C298.099 32.856 297.875 32.88 297.635 32.896C297.395 32.896 297.179 32.896 296.987 32.896H293.603V40H291.419V22.864ZM297.251 31C298.019 31 298.651 30.928 299.147 30.784C299.643 30.624 300.035 30.408 300.323 30.136C300.611 29.848 300.811 29.504 300.923 29.104C301.035 28.704 301.091 28.256 301.091 27.76C301.091 27.28 301.027 26.856 300.899 26.488C300.771 26.12 300.547 25.808 300.227 25.552C299.923 25.28 299.507 25.08 298.979 24.952C298.451 24.808 297.779 24.736 296.963 24.736H293.603V31H297.251ZM307.351 35.128C307.543 36.328 308.015 37.2 308.767 37.744C309.535 38.272 310.671 38.536 312.175 38.536C312.927 38.536 313.551 38.456 314.047 38.296C314.559 38.12 314.967 37.896 315.271 37.624C315.575 37.336 315.791 37.008 315.919 36.64C316.047 36.256 316.111 35.856 316.111 35.44C316.111 35.104 316.071 34.784 315.991 34.48C315.911 34.16 315.751 33.872 315.511 33.616C315.287 33.36 314.967 33.136 314.551 32.944C314.151 32.752 313.631 32.6 312.991 32.488L310.831 32.104C309.983 31.96 309.231 31.768 308.575 31.528C307.919 31.288 307.359 30.984 306.895 30.616C306.447 30.232 306.103 29.76 305.863 29.2C305.639 28.64 305.527 27.96 305.527 27.16C305.527 26.376 305.687 25.688 306.007 25.096C306.343 24.504 306.791 24.008 307.351 23.608C307.911 23.208 308.575 22.912 309.343 22.72C310.111 22.528 310.943 22.432 311.839 22.432C312.975 22.432 313.919 22.56 314.671 22.816C315.439 23.056 316.063 23.384 316.543 23.8C317.023 24.216 317.383 24.696 317.623 25.24C317.879 25.768 318.071 26.312 318.199 26.872L316.135 27.28C316.007 26.8 315.839 26.376 315.631 26.008C315.439 25.624 315.175 25.312 314.839 25.072C314.519 24.816 314.119 24.624 313.639 24.496C313.159 24.368 312.575 24.304 311.887 24.304C311.103 24.304 310.447 24.376 309.919 24.52C309.391 24.664 308.967 24.864 308.647 25.12C308.327 25.36 308.095 25.656 307.951 26.008C307.823 26.344 307.759 26.704 307.759 27.088C307.759 27.504 307.807 27.872 307.903 28.192C308.015 28.496 308.191 28.768 308.431 29.008C308.687 29.232 309.015 29.424 309.415 29.584C309.815 29.728 310.311 29.856 310.903 29.968L313.303 30.4C315.079 30.736 316.383 31.296 317.215 32.08C318.047 32.848 318.463 33.984 318.463 35.488C318.463 36.176 318.327 36.824 318.055 37.432C317.799 38.024 317.407 38.544 316.879 38.992C316.367 39.44 315.719 39.792 314.935 40.048C314.151 40.304 313.231 40.432 312.175 40.432C311.167 40.432 310.247 40.328 309.415 40.12C308.599 39.928 307.887 39.616 307.279 39.184C306.671 38.752 306.183 38.2 305.815 37.528C305.447 36.856 305.223 36.056 305.143 35.128H307.351Z" fill="white"/>
<rect x="0.5" y="0.5" width="351" height="61" rx="30.5" stroke="white" stroke-opacity="0.16"/>
<defs>
<clipPath id="clip0_749_81732">
<rect width="17.2437" height="17.234" fill="white" transform="translate(42.5378 22.3828)"/>
</clipPath>
</defs>
</svg>
