<svg width="596" height="62" viewBox="0 0 596 62" fill="none" xmlns="http://www.w3.org/2000/svg">
<rect x="32" y="16" width="38" height="30" rx="15" fill="#BBDCD2"/>
<g clip-path="url(#clip0_749_81819)">
<path d="M60.4401 24.1988H52.3971V22.3438C52.3971 22.1595 52.3154 21.9852 52.1731 21.8677C52.032 21.7502 51.8427 21.6995 51.6645 21.7366L41.7654 23.5916C41.4721 23.646 41.2605 23.9008 41.2605 24.1988V37.8026C41.2605 38.0994 41.4721 38.3554 41.7654 38.4098L51.6645 40.2648C51.7016 40.2723 51.74 40.276 51.7784 40.276C51.9219 40.276 52.0617 40.2265 52.1731 40.1338C52.3154 40.0163 52.3971 39.8407 52.3971 39.6576V37.8026H60.4401C60.7816 37.8026 61.0588 37.5256 61.0588 37.1842V24.8172C61.0588 24.4759 60.7816 24.1988 60.4401 24.1988ZM49.7688 33.0672C49.994 33.3232 49.968 33.714 49.7107 33.9391C49.5931 34.0418 49.4483 34.0925 49.3036 34.0925C49.1316 34.0925 48.9608 34.0207 48.8383 33.881L47.0391 31.8268L45.4615 33.855C45.339 34.0108 45.1558 34.0925 44.9727 34.0925C44.8403 34.0925 44.7066 34.0504 44.5928 33.9626C44.3231 33.7524 44.2748 33.364 44.4839 33.0944L46.2088 30.8783L44.5074 28.9342C44.2822 28.6782 44.3082 28.2874 44.5656 28.0623C44.8217 27.8372 45.2115 27.862 45.4392 28.1204L46.9834 29.884L48.816 27.5293C49.0264 27.2609 49.4149 27.2115 49.6847 27.4217C49.9544 27.6307 50.0027 28.019 49.7923 28.2899L47.8125 30.8325L49.7688 33.0672ZM59.8214 36.5659H52.3971V35.3292H54.2531C54.5947 35.3292 54.8718 35.0521 54.8718 34.7108C54.8718 34.3695 54.5947 34.0925 54.2531 34.0925H52.3971V32.8558H54.2531C54.5947 32.8558 54.8718 32.5787 54.8718 32.2374C54.8718 31.8961 54.5947 31.6191 54.2531 31.6191H52.3971V30.3824H54.2531C54.5947 30.3824 54.8718 30.1053 54.8718 29.764C54.8718 29.4227 54.5947 29.1457 54.2531 29.1457H52.3971V27.909H54.2531C54.5947 27.909 54.8718 27.6319 54.8718 27.2906C54.8718 26.9493 54.5947 26.6723 54.2531 26.6723H52.3971V25.4355H59.8214V36.5659Z" fill="black"/>
<path d="M57.9652 26.6719H56.7278C56.3863 26.6719 56.1091 26.9489 56.1091 27.2902C56.1091 27.6316 56.3863 27.9086 56.7278 27.9086H57.9652C58.3067 27.9086 58.5839 27.6316 58.5839 27.2902C58.5839 26.9489 58.3067 26.6719 57.9652 26.6719Z" fill="black"/>
<path d="M57.9652 29.1455H56.7278C56.3863 29.1455 56.1091 29.4225 56.1091 29.7639C56.1091 30.1052 56.3863 30.3822 56.7278 30.3822H57.9652C58.3067 30.3822 58.5839 30.1052 58.5839 29.7639C58.5839 29.4225 58.3067 29.1455 57.9652 29.1455Z" fill="black"/>
<path d="M57.9652 31.6187H56.7278C56.3863 31.6187 56.1091 31.8957 56.1091 32.237C56.1091 32.5783 56.3863 32.8554 56.7278 32.8554H57.9652C58.3067 32.8554 58.5839 32.5783 58.5839 32.237C58.5839 31.8957 58.3067 31.6187 57.9652 31.6187Z" fill="black"/>
<path d="M57.9652 34.0923H56.7278C56.3863 34.0923 56.1091 34.3693 56.1091 34.7106C56.1091 35.052 56.3863 35.329 56.7278 35.329H57.9652C58.3067 35.329 58.5839 35.052 58.5839 34.7106C58.5839 34.3693 58.3067 34.0923 57.9652 34.0923Z" fill="black"/>
</g>
<path d="M102.323 34.36C102.227 35.224 102.011 36.032 101.675 36.784C101.339 37.52 100.883 38.16 100.307 38.704C99.7306 39.248 99.0266 39.672 98.1946 39.976C97.3786 40.28 96.4266 40.432 95.3386 40.432C94.1546 40.432 93.0906 40.232 92.1466 39.832C91.2026 39.432 90.4026 38.848 89.7466 38.08C89.0906 37.312 88.5786 36.376 88.2106 35.272C87.8586 34.152 87.6826 32.88 87.6826 31.456C87.6826 30.016 87.8746 28.736 88.2586 27.616C88.6426 26.496 89.1786 25.552 89.8666 24.784C90.5546 24.016 91.3626 23.432 92.2906 23.032C93.2346 22.632 94.2506 22.432 95.3386 22.432C96.3946 22.432 97.3066 22.568 98.0746 22.84C98.8426 23.112 99.4906 23.496 100.019 23.992C100.563 24.488 100.995 25.08 101.315 25.768C101.651 26.456 101.907 27.216 102.083 28.048L99.9226 28.408C99.7786 27.784 99.5866 27.224 99.3466 26.728C99.1226 26.216 98.8266 25.784 98.4586 25.432C98.1066 25.08 97.6746 24.816 97.1626 24.64C96.6666 24.448 96.0586 24.352 95.3386 24.352C94.4906 24.352 93.7306 24.528 93.0586 24.88C92.4026 25.216 91.8426 25.696 91.3786 26.32C90.9306 26.928 90.5866 27.672 90.3466 28.552C90.1066 29.416 89.9866 30.376 89.9866 31.432C89.9866 32.488 90.1066 33.456 90.3466 34.336C90.5866 35.2 90.9306 35.944 91.3786 36.568C91.8426 37.192 92.4026 37.672 93.0586 38.008C93.7306 38.344 94.4986 38.512 95.3626 38.512C96.1466 38.512 96.8106 38.416 97.3546 38.224C97.9146 38.016 98.3706 37.728 98.7226 37.36C99.0906 36.992 99.3786 36.552 99.5866 36.04C99.7946 35.528 99.9466 34.968 100.043 34.36H102.323ZM109.53 22.864H111.858L118.506 40H116.106L114.306 35.224H106.962L105.162 40H102.858L109.53 22.864ZM113.634 33.304L110.61 25.36L107.634 33.304H113.634ZM120.182 22.864H122.39V38.032H131.27L130.934 40H120.182V22.864ZM146.023 34.36C145.927 35.224 145.711 36.032 145.375 36.784C145.039 37.52 144.583 38.16 144.007 38.704C143.431 39.248 142.727 39.672 141.895 39.976C141.079 40.28 140.127 40.432 139.039 40.432C137.855 40.432 136.791 40.232 135.847 39.832C134.903 39.432 134.103 38.848 133.447 38.08C132.791 37.312 132.279 36.376 131.911 35.272C131.559 34.152 131.383 32.88 131.383 31.456C131.383 30.016 131.575 28.736 131.959 27.616C132.343 26.496 132.879 25.552 133.567 24.784C134.255 24.016 135.063 23.432 135.991 23.032C136.935 22.632 137.951 22.432 139.039 22.432C140.095 22.432 141.007 22.568 141.775 22.84C142.543 23.112 143.191 23.496 143.719 23.992C144.263 24.488 144.695 25.08 145.015 25.768C145.351 26.456 145.607 27.216 145.783 28.048L143.623 28.408C143.479 27.784 143.287 27.224 143.047 26.728C142.823 26.216 142.527 25.784 142.159 25.432C141.807 25.08 141.375 24.816 140.863 24.64C140.367 24.448 139.759 24.352 139.039 24.352C138.191 24.352 137.431 24.528 136.759 24.88C136.103 25.216 135.543 25.696 135.079 26.32C134.631 26.928 134.287 27.672 134.047 28.552C133.807 29.416 133.687 30.376 133.687 31.432C133.687 32.488 133.807 33.456 134.047 34.336C134.287 35.2 134.631 35.944 135.079 36.568C135.543 37.192 136.103 37.672 136.759 38.008C137.431 38.344 138.199 38.512 139.063 38.512C139.847 38.512 140.511 38.416 141.055 38.224C141.615 38.016 142.071 37.728 142.423 37.36C142.791 36.992 143.079 36.552 143.287 36.04C143.495 35.528 143.647 34.968 143.743 34.36H146.023ZM148.35 22.864H150.558V33.208C150.558 34.984 150.886 36.312 151.542 37.192C152.214 38.072 153.318 38.512 154.854 38.512C156.406 38.512 157.502 38.072 158.142 37.192C158.782 36.296 159.102 34.968 159.102 33.208V22.864H161.31V33.208C161.31 34.488 161.158 35.584 160.854 36.496C160.566 37.392 160.142 38.136 159.582 38.728C159.038 39.32 158.358 39.752 157.542 40.024C156.742 40.296 155.838 40.432 154.83 40.432C152.766 40.432 151.166 39.856 150.03 38.704C148.91 37.552 148.35 35.688 148.35 33.112V22.864ZM164.422 22.864H166.63V38.032H175.51L175.174 40H164.422V22.864ZM182.927 22.864H185.255L191.903 40H189.503L187.703 35.224H180.359L178.559 40H176.255L182.927 22.864ZM187.031 33.304L184.007 25.36L181.031 33.304H187.031ZM195.388 24.832H189.724V22.864H203.284V24.832H197.62V40H195.388V24.832ZM205.122 22.864H216.21V24.808H207.33V30.184H215.73V32.152H207.33V38.056H216.666L216.306 40H205.122V22.864ZM237.796 34.36C237.7 35.224 237.484 36.032 237.148 36.784C236.812 37.52 236.356 38.16 235.78 38.704C235.204 39.248 234.5 39.672 233.668 39.976C232.852 40.28 231.9 40.432 230.812 40.432C229.628 40.432 228.564 40.232 227.62 39.832C226.676 39.432 225.876 38.848 225.22 38.08C224.564 37.312 224.052 36.376 223.684 35.272C223.332 34.152 223.156 32.88 223.156 31.456C223.156 30.016 223.348 28.736 223.732 27.616C224.116 26.496 224.652 25.552 225.34 24.784C226.028 24.016 226.836 23.432 227.764 23.032C228.708 22.632 229.724 22.432 230.812 22.432C231.868 22.432 232.78 22.568 233.548 22.84C234.316 23.112 234.964 23.496 235.492 23.992C236.036 24.488 236.468 25.08 236.788 25.768C237.124 26.456 237.38 27.216 237.556 28.048L235.396 28.408C235.252 27.784 235.06 27.224 234.82 26.728C234.596 26.216 234.3 25.784 233.932 25.432C233.58 25.08 233.148 24.816 232.636 24.64C232.14 24.448 231.532 24.352 230.812 24.352C229.964 24.352 229.204 24.528 228.532 24.88C227.876 25.216 227.316 25.696 226.852 26.32C226.404 26.928 226.06 27.672 225.82 28.552C225.58 29.416 225.46 30.376 225.46 31.432C225.46 32.488 225.58 33.456 225.82 34.336C226.06 35.2 226.404 35.944 226.852 36.568C227.316 37.192 227.876 37.672 228.532 38.008C229.204 38.344 229.972 38.512 230.836 38.512C231.62 38.512 232.284 38.416 232.828 38.224C233.388 38.016 233.844 37.728 234.196 37.36C234.564 36.992 234.852 36.552 235.06 36.04C235.268 35.528 235.42 34.968 235.516 34.36H237.796ZM247.611 40.432C246.443 40.432 245.371 40.24 244.395 39.856C243.435 39.456 242.603 38.88 241.899 38.128C241.211 37.36 240.675 36.416 240.291 35.296C239.907 34.176 239.715 32.896 239.715 31.456C239.715 30.016 239.907 28.736 240.291 27.616C240.691 26.496 241.235 25.552 241.923 24.784C242.627 24.016 243.459 23.432 244.419 23.032C245.395 22.632 246.459 22.432 247.611 22.432C248.779 22.432 249.843 22.632 250.803 23.032C251.779 23.416 252.611 23.992 253.299 24.76C253.987 25.512 254.523 26.448 254.907 27.568C255.291 28.672 255.483 29.944 255.483 31.384C255.483 32.824 255.291 34.112 254.907 35.248C254.539 36.368 254.011 37.312 253.323 38.08C252.635 38.848 251.803 39.432 250.827 39.832C249.867 40.232 248.795 40.432 247.611 40.432ZM247.611 38.512C248.523 38.512 249.323 38.344 250.011 38.008C250.715 37.672 251.299 37.2 251.763 36.592C252.227 35.968 252.579 35.224 252.819 34.36C253.059 33.48 253.179 32.504 253.179 31.432C253.179 30.376 253.059 29.416 252.819 28.552C252.579 27.672 252.219 26.92 251.739 26.296C251.275 25.672 250.699 25.192 250.011 24.856C249.323 24.52 248.523 24.352 247.611 24.352C246.683 24.352 245.867 24.52 245.163 24.856C244.475 25.192 243.891 25.672 243.411 26.296C242.947 26.92 242.595 27.672 242.355 28.552C242.131 29.416 242.019 30.376 242.019 31.432C242.019 32.504 242.131 33.48 242.355 34.36C242.595 35.224 242.947 35.968 243.411 36.592C243.875 37.2 244.451 37.672 245.139 38.008C245.843 38.344 246.667 38.512 247.611 38.512ZM258.187 22.864H260.371L269.083 36.472V22.864H271.219V40H269.107L260.323 26.464V40H258.187V22.864ZM275.783 35.128C275.975 36.328 276.447 37.2 277.199 37.744C277.967 38.272 279.103 38.536 280.607 38.536C281.359 38.536 281.983 38.456 282.479 38.296C282.991 38.12 283.399 37.896 283.703 37.624C284.007 37.336 284.223 37.008 284.351 36.64C284.479 36.256 284.543 35.856 284.543 35.44C284.543 35.104 284.503 34.784 284.423 34.48C284.343 34.16 284.183 33.872 283.943 33.616C283.719 33.36 283.399 33.136 282.983 32.944C282.583 32.752 282.063 32.6 281.423 32.488L279.263 32.104C278.415 31.96 277.663 31.768 277.007 31.528C276.351 31.288 275.791 30.984 275.327 30.616C274.879 30.232 274.535 29.76 274.295 29.2C274.071 28.64 273.959 27.96 273.959 27.16C273.959 26.376 274.119 25.688 274.439 25.096C274.775 24.504 275.223 24.008 275.783 23.608C276.343 23.208 277.007 22.912 277.775 22.72C278.543 22.528 279.375 22.432 280.271 22.432C281.407 22.432 282.351 22.56 283.103 22.816C283.871 23.056 284.495 23.384 284.975 23.8C285.455 24.216 285.815 24.696 286.055 25.24C286.311 25.768 286.503 26.312 286.631 26.872L284.567 27.28C284.439 26.8 284.271 26.376 284.063 26.008C283.871 25.624 283.607 25.312 283.271 25.072C282.951 24.816 282.551 24.624 282.071 24.496C281.591 24.368 281.007 24.304 280.319 24.304C279.535 24.304 278.879 24.376 278.351 24.52C277.823 24.664 277.399 24.864 277.079 25.12C276.759 25.36 276.527 25.656 276.383 26.008C276.255 26.344 276.191 26.704 276.191 27.088C276.191 27.504 276.239 27.872 276.335 28.192C276.447 28.496 276.623 28.768 276.863 29.008C277.119 29.232 277.447 29.424 277.847 29.584C278.247 29.728 278.743 29.856 279.335 29.968L281.735 30.4C283.511 30.736 284.815 31.296 285.647 32.08C286.479 32.848 286.895 33.984 286.895 35.488C286.895 36.176 286.759 36.824 286.487 37.432C286.231 38.024 285.839 38.544 285.311 38.992C284.799 39.44 284.151 39.792 283.367 40.048C282.583 40.304 281.663 40.432 280.607 40.432C279.599 40.432 278.679 40.328 277.847 40.12C277.031 39.928 276.319 39.616 275.711 39.184C275.103 38.752 274.615 38.2 274.247 37.528C273.879 36.856 273.655 36.056 273.575 35.128H275.783ZM296.421 40.432C295.253 40.432 294.181 40.24 293.205 39.856C292.245 39.456 291.413 38.88 290.709 38.128C290.021 37.36 289.485 36.416 289.101 35.296C288.717 34.176 288.525 32.896 288.525 31.456C288.525 30.016 288.717 28.736 289.101 27.616C289.501 26.496 290.045 25.552 290.733 24.784C291.437 24.016 292.269 23.432 293.229 23.032C294.205 22.632 295.269 22.432 296.421 22.432C297.589 22.432 298.653 22.632 299.613 23.032C300.589 23.416 301.421 23.992 302.109 24.76C302.797 25.512 303.333 26.448 303.717 27.568C304.101 28.672 304.293 29.944 304.293 31.384C304.293 32.824 304.101 34.112 303.717 35.248C303.349 36.368 302.821 37.312 302.133 38.08C301.445 38.848 300.613 39.432 299.637 39.832C298.677 40.232 297.605 40.432 296.421 40.432ZM296.421 38.512C297.333 38.512 298.133 38.344 298.821 38.008C299.525 37.672 300.109 37.2 300.573 36.592C301.037 35.968 301.389 35.224 301.629 34.36C301.869 33.48 301.989 32.504 301.989 31.432C301.989 30.376 301.869 29.416 301.629 28.552C301.389 27.672 301.029 26.92 300.549 26.296C300.085 25.672 299.509 25.192 298.821 24.856C298.133 24.52 297.333 24.352 296.421 24.352C295.493 24.352 294.677 24.52 293.973 24.856C293.285 25.192 292.701 25.672 292.221 26.296C291.757 26.92 291.405 27.672 291.165 28.552C290.941 29.416 290.829 30.376 290.829 31.432C290.829 32.504 290.941 33.48 291.165 34.36C291.405 35.224 291.757 35.968 292.221 36.592C292.685 37.2 293.261 37.672 293.949 38.008C294.653 38.344 295.477 38.512 296.421 38.512ZM306.997 22.864H309.205V38.032H318.085L317.749 40H306.997V22.864ZM319.993 22.864H322.201V40H319.993V22.864ZM325.513 22.864H331.513C332.761 22.864 333.873 23.04 334.849 23.392C335.841 23.728 336.673 24.248 337.345 24.952C338.033 25.656 338.561 26.536 338.929 27.592C339.297 28.648 339.481 29.888 339.481 31.312C339.481 32.752 339.281 34.016 338.881 35.104C338.497 36.192 337.937 37.096 337.201 37.816C336.465 38.536 335.569 39.08 334.513 39.448C333.457 39.816 332.273 40 330.961 40H325.513V22.864ZM331.057 38.08C333.185 38.08 334.737 37.488 335.713 36.304C336.689 35.104 337.177 33.456 337.177 31.36C337.177 30.32 337.065 29.392 336.841 28.576C336.633 27.76 336.297 27.072 335.833 26.512C335.385 25.936 334.801 25.504 334.081 25.216C333.361 24.912 332.505 24.76 331.513 24.76H327.721V38.08H331.057ZM346.362 22.864H348.69L355.338 40H352.938L351.138 35.224H343.794L341.994 40H339.69L346.362 22.864ZM350.466 33.304L347.442 25.36L344.466 33.304H350.466ZM358.824 24.832H353.16V22.864H366.72V24.832H361.056V40H358.824V24.832ZM368.558 22.864H379.646V24.808H370.766V30.184H379.166V32.152H370.766V38.056H380.102L379.742 40H368.558V22.864ZM382.328 22.864H388.328C389.576 22.864 390.688 23.04 391.664 23.392C392.656 23.728 393.488 24.248 394.16 24.952C394.848 25.656 395.376 26.536 395.744 27.592C396.112 28.648 396.296 29.888 396.296 31.312C396.296 32.752 396.096 34.016 395.696 35.104C395.312 36.192 394.752 37.096 394.016 37.816C393.28 38.536 392.384 39.08 391.328 39.448C390.272 39.816 389.088 40 387.776 40H382.328V22.864ZM387.872 38.08C390 38.08 391.552 37.488 392.528 36.304C393.504 35.104 393.992 33.456 393.992 31.36C393.992 30.32 393.88 29.392 393.656 28.576C393.448 27.76 393.112 27.072 392.648 26.512C392.2 25.936 391.616 25.504 390.896 25.216C390.176 24.912 389.32 24.76 388.328 24.76H384.536V38.08H387.872ZM417.884 34.36C417.788 35.224 417.572 36.032 417.236 36.784C416.9 37.52 416.444 38.16 415.868 38.704C415.292 39.248 414.588 39.672 413.756 39.976C412.94 40.28 411.988 40.432 410.9 40.432C409.716 40.432 408.652 40.232 407.708 39.832C406.764 39.432 405.964 38.848 405.308 38.08C404.652 37.312 404.14 36.376 403.772 35.272C403.42 34.152 403.244 32.88 403.244 31.456C403.244 30.016 403.436 28.736 403.82 27.616C404.204 26.496 404.74 25.552 405.428 24.784C406.116 24.016 406.924 23.432 407.852 23.032C408.796 22.632 409.812 22.432 410.9 22.432C411.956 22.432 412.868 22.568 413.636 22.84C414.404 23.112 415.052 23.496 415.58 23.992C416.124 24.488 416.556 25.08 416.876 25.768C417.212 26.456 417.468 27.216 417.644 28.048L415.484 28.408C415.34 27.784 415.148 27.224 414.908 26.728C414.684 26.216 414.388 25.784 414.02 25.432C413.668 25.08 413.236 24.816 412.724 24.64C412.228 24.448 411.62 24.352 410.9 24.352C410.052 24.352 409.292 24.528 408.62 24.88C407.964 25.216 407.404 25.696 406.94 26.32C406.492 26.928 406.148 27.672 405.908 28.552C405.668 29.416 405.548 30.376 405.548 31.432C405.548 32.488 405.668 33.456 405.908 34.336C406.148 35.2 406.492 35.944 406.94 36.568C407.404 37.192 407.964 37.672 408.62 38.008C409.292 38.344 410.06 38.512 410.924 38.512C411.708 38.512 412.372 38.416 412.916 38.224C413.476 38.016 413.932 37.728 414.284 37.36C414.652 36.992 414.94 36.552 415.148 36.04C415.356 35.528 415.508 34.968 415.604 34.36H417.884ZM425.092 22.864H427.42L434.068 40H431.668L429.868 35.224H422.524L420.724 40H418.42L425.092 22.864ZM429.196 33.304L426.172 25.36L423.196 33.304H429.196ZM435.744 22.864H438.48L444 37.36L449.616 22.864H452.256V40H450.216V26.488L444.84 40H443.04L437.76 26.536V40H435.744V22.864ZM455.56 22.864H461.296C462.56 22.864 463.6 23 464.416 23.272C465.248 23.544 465.896 23.912 466.36 24.376C466.84 24.84 467.168 25.384 467.344 26.008C467.536 26.616 467.632 27.264 467.632 27.952C467.632 28.672 467.536 29.36 467.344 30.016C467.152 30.672 466.816 31.248 466.336 31.744C465.856 32.24 465.208 32.632 464.392 32.92C463.576 33.208 462.544 33.352 461.296 33.352H457.744V40H455.56V22.864ZM461.272 31.48C462.104 31.48 462.792 31.4 463.336 31.24C463.88 31.08 464.304 30.848 464.608 30.544C464.912 30.24 465.12 29.88 465.232 29.464C465.36 29.032 465.424 28.552 465.424 28.024C465.424 27.48 465.36 27 465.232 26.584C465.104 26.168 464.88 25.824 464.56 25.552C464.24 25.28 463.808 25.08 463.264 24.952C462.736 24.808 462.064 24.736 461.248 24.736H457.744V31.48H461.272ZM473.105 22.864H475.433L482.081 40H479.681L477.881 35.224H470.537L468.737 40H466.433L473.105 22.864ZM477.209 33.304L474.185 25.36L471.209 33.304H477.209ZM483.757 22.864H485.965V40H483.757V22.864ZM496.789 31.192H503.197V38.056C502.765 38.456 502.285 38.808 501.757 39.112C501.245 39.4 500.701 39.648 500.125 39.856C499.565 40.048 498.981 40.192 498.373 40.288C497.781 40.384 497.197 40.432 496.621 40.432C495.357 40.432 494.229 40.232 493.237 39.832C492.261 39.416 491.429 38.824 490.741 38.056C490.069 37.288 489.557 36.352 489.205 35.248C488.853 34.128 488.677 32.864 488.677 31.456C488.677 30.016 488.869 28.736 489.253 27.616C489.637 26.496 490.165 25.552 490.837 24.784C491.525 24.016 492.341 23.432 493.285 23.032C494.229 22.632 495.261 22.432 496.381 22.432C497.341 22.432 498.189 22.552 498.925 22.792C499.661 23.016 500.285 23.344 500.797 23.776C501.325 24.208 501.757 24.728 502.093 25.336C502.429 25.928 502.685 26.592 502.861 27.328L500.725 27.688C500.597 27.192 500.421 26.736 500.197 26.32C499.989 25.904 499.717 25.552 499.381 25.264C499.045 24.96 498.629 24.728 498.133 24.568C497.653 24.408 497.069 24.328 496.381 24.328C495.485 24.328 494.701 24.504 494.029 24.856C493.357 25.192 492.797 25.672 492.349 26.296C491.901 26.92 491.557 27.672 491.317 28.552C491.093 29.416 490.981 30.376 490.981 31.432C490.981 32.488 491.093 33.456 491.317 34.336C491.541 35.2 491.885 35.944 492.349 36.568C492.829 37.192 493.421 37.672 494.125 38.008C494.829 38.344 495.661 38.512 496.621 38.512C497.485 38.512 498.293 38.408 499.045 38.2C499.813 37.992 500.501 37.664 501.109 37.216V33.112H496.789V31.192ZM505.976 22.864H508.16L516.872 36.472V22.864H519.008V40H516.896L508.112 26.464V40H505.976V22.864ZM527.188 22.864H532.804C534.084 22.864 535.132 23.008 535.948 23.296C536.764 23.584 537.404 23.96 537.868 24.424C538.348 24.872 538.676 25.384 538.852 25.96C539.028 26.536 539.116 27.12 539.116 27.712C539.116 28.8 538.884 29.728 538.42 30.496C537.972 31.264 537.228 31.864 536.188 32.296L539.788 40H537.316L534.076 32.824C533.868 32.856 533.644 32.88 533.404 32.896C533.164 32.896 532.948 32.896 532.756 32.896H529.372V40H527.188V22.864ZM533.02 31C533.788 31 534.42 30.928 534.916 30.784C535.412 30.624 535.804 30.408 536.092 30.136C536.38 29.848 536.58 29.504 536.692 29.104C536.804 28.704 536.86 28.256 536.86 27.76C536.86 27.28 536.796 26.856 536.668 26.488C536.54 26.12 536.316 25.808 535.996 25.552C535.692 25.28 535.276 25.08 534.748 24.952C534.22 24.808 533.548 24.736 532.732 24.736H529.372V31H533.02ZM548.934 40.432C547.766 40.432 546.694 40.24 545.718 39.856C544.758 39.456 543.926 38.88 543.222 38.128C542.534 37.36 541.998 36.416 541.614 35.296C541.23 34.176 541.038 32.896 541.038 31.456C541.038 30.016 541.23 28.736 541.614 27.616C542.014 26.496 542.558 25.552 543.246 24.784C543.95 24.016 544.782 23.432 545.742 23.032C546.718 22.632 547.782 22.432 548.934 22.432C550.102 22.432 551.166 22.632 552.126 23.032C553.102 23.416 553.934 23.992 554.622 24.76C555.31 25.512 555.846 26.448 556.23 27.568C556.614 28.672 556.806 29.944 556.806 31.384C556.806 32.824 556.614 34.112 556.23 35.248C555.862 36.368 555.334 37.312 554.646 38.08C553.958 38.848 553.126 39.432 552.15 39.832C551.19 40.232 550.118 40.432 548.934 40.432ZM548.934 38.512C549.846 38.512 550.646 38.344 551.334 38.008C552.038 37.672 552.622 37.2 553.086 36.592C553.55 35.968 553.902 35.224 554.142 34.36C554.382 33.48 554.502 32.504 554.502 31.432C554.502 30.376 554.382 29.416 554.142 28.552C553.902 27.672 553.542 26.92 553.062 26.296C552.598 25.672 552.022 25.192 551.334 24.856C550.646 24.52 549.846 24.352 548.934 24.352C548.006 24.352 547.19 24.52 546.486 24.856C545.798 25.192 545.214 25.672 544.734 26.296C544.27 26.92 543.918 27.672 543.678 28.552C543.454 29.416 543.342 30.376 543.342 31.432C543.342 32.504 543.454 33.48 543.678 34.36C543.918 35.224 544.27 35.968 544.734 36.592C545.198 37.2 545.774 37.672 546.462 38.008C547.166 38.344 547.99 38.512 548.934 38.512ZM559.509 22.864H561.717V40H559.509V22.864Z" fill="white"/>
<rect x="0.5" y="0.5" width="595" height="61" rx="30.5" stroke="white" stroke-opacity="0.16"/>
<defs>
<clipPath id="clip0_749_81819">
<rect width="19.7983" height="19.7872" fill="white" transform="translate(41.2605 21.1064)"/>
</clipPath>
</defs>
</svg>
