<svg width="499" height="62" viewBox="0 0 499 62" fill="none" xmlns="http://www.w3.org/2000/svg">
<rect x="32" y="16" width="38" height="30" rx="15" fill="#BBDCD2"/>
<path opacity="0.8" d="M57.9651 22.4622C58.0458 22.4622 58.0458 22.5426 57.9651 22.622L54.9227 30.1931C55.0034 30.0333 55.0831 29.8735 55.0831 29.6354C55.0831 29.3157 54.9227 28.9179 54.6827 28.6787C54.362 28.3601 54.0424 28.2003 53.642 28.2003H49.2383L51.5607 22.3828H57.8854C57.8854 22.3828 57.9651 22.3828 57.9651 22.4622Z" fill="black"/>
<path d="M59.8064 34.0982C59.8871 34.1775 59.8871 34.2569 59.8064 34.2569L57.6454 39.8352C57.5647 39.9157 57.5647 39.9157 57.4851 39.9157H44.7548C44.7548 39.9157 44.6752 39.9157 44.6752 39.8352C44.5945 39.8352 44.5945 39.7558 44.5945 39.6765L49.2382 28.2002H53.642C54.4427 28.2002 55.083 28.8384 55.083 29.6353C55.083 29.8733 55.0034 30.0332 54.9226 30.193V30.2724L53.4816 33.859C53.4816 33.9383 53.4816 33.9383 53.4816 34.0177C53.5612 34.0177 53.5612 34.0982 53.642 34.0982H59.7267H59.8064Z" fill="black"/>
<path opacity="0.4" d="M51.5607 22.3828L49.2383 28.2003H42.9135C42.8328 28.2003 42.8328 28.2003 42.7532 28.2003C42.7532 28.121 42.7532 28.0416 42.7532 28.0416L44.9949 22.4622C44.9949 22.3828 45.0745 22.3828 45.1552 22.3828H51.5607Z" fill="black"/>
<path d="M88.0657 22.864H94.0657C95.3137 22.864 96.4257 23.04 97.4017 23.392C98.3937 23.728 99.2257 24.248 99.8977 24.952C100.586 25.656 101.114 26.536 101.482 27.592C101.85 28.648 102.034 29.888 102.034 31.312C102.034 32.752 101.834 34.016 101.434 35.104C101.05 36.192 100.49 37.096 99.7537 37.816C99.0177 38.536 98.1217 39.08 97.0657 39.448C96.0097 39.816 94.8257 40 93.5137 40H88.0657V22.864ZM93.6097 38.08C95.7377 38.08 97.2897 37.488 98.2657 36.304C99.2417 35.104 99.7297 33.456 99.7297 31.36C99.7297 30.32 99.6177 29.392 99.3937 28.576C99.1857 27.76 98.8497 27.072 98.3857 26.512C97.9377 25.936 97.3537 25.504 96.6337 25.216C95.9137 24.912 95.0577 24.76 94.0657 24.76H90.2737V38.08H93.6097ZM104.719 22.864H110.335C111.615 22.864 112.663 23.008 113.479 23.296C114.295 23.584 114.935 23.96 115.399 24.424C115.879 24.872 116.207 25.384 116.383 25.96C116.559 26.536 116.647 27.12 116.647 27.712C116.647 28.8 116.415 29.728 115.951 30.496C115.503 31.264 114.759 31.864 113.719 32.296L117.319 40H114.847L111.607 32.824C111.399 32.856 111.175 32.88 110.935 32.896C110.695 32.896 110.479 32.896 110.287 32.896H106.903V40H104.719V22.864ZM110.551 31C111.319 31 111.951 30.928 112.447 30.784C112.943 30.624 113.335 30.408 113.623 30.136C113.911 29.848 114.111 29.504 114.223 29.104C114.335 28.704 114.391 28.256 114.391 27.76C114.391 27.28 114.327 26.856 114.199 26.488C114.071 26.12 113.847 25.808 113.527 25.552C113.223 25.28 112.807 25.08 112.279 24.952C111.751 24.808 111.079 24.736 110.263 24.736H106.903V31H110.551ZM124.794 22.864H127.122L133.77 40H131.37L129.57 35.224H122.226L120.426 40H118.122L124.794 22.864ZM128.898 33.304L125.874 25.36L122.898 33.304H128.898ZM135.446 22.864H146.078V24.808H137.654V30.424H145.55V32.416H137.654V40H135.446V22.864ZM152.947 24.832H147.283V22.864H160.843V24.832H155.179V40H152.947V24.832ZM172.585 22.864H174.913L181.561 40H179.161L177.361 35.224H170.017L168.217 40H165.913L172.585 22.864ZM176.689 33.304L173.665 25.36L170.689 33.304H176.689ZM183.237 22.864H185.421L194.133 36.472V22.864H196.269V40H194.157L185.373 26.464V40H183.237V22.864ZM199.585 22.864H205.585C206.833 22.864 207.945 23.04 208.921 23.392C209.913 23.728 210.745 24.248 211.417 24.952C212.105 25.656 212.633 26.536 213.001 27.592C213.369 28.648 213.553 29.888 213.553 31.312C213.553 32.752 213.353 34.016 212.953 35.104C212.569 36.192 212.009 37.096 211.273 37.816C210.537 38.536 209.641 39.08 208.585 39.448C207.529 39.816 206.345 40 205.033 40H199.585V22.864ZM205.129 38.08C207.257 38.08 208.809 37.488 209.785 36.304C210.761 35.104 211.249 33.456 211.249 31.36C211.249 30.32 211.137 29.392 210.913 28.576C210.705 27.76 210.369 27.072 209.905 26.512C209.457 25.936 208.873 25.504 208.153 25.216C207.433 24.912 206.577 24.76 205.585 24.76H201.793V38.08H205.129ZM221.102 22.864H232.19V24.808H223.31V30.184H231.71V32.152H223.31V38.056H232.646L232.286 40H221.102V22.864ZM239.522 30.952L233.93 22.864H236.522L240.842 29.368L245.234 22.864H247.61L242.066 31.048L248.258 40H245.69L240.722 32.704L235.898 40H233.474L239.522 30.952ZM249.931 22.864H261.019V24.808H252.139V30.184H260.539V32.152H252.139V38.056H261.475L261.115 40H249.931V22.864ZM277.741 34.36C277.645 35.224 277.429 36.032 277.093 36.784C276.757 37.52 276.301 38.16 275.725 38.704C275.149 39.248 274.445 39.672 273.613 39.976C272.797 40.28 271.845 40.432 270.757 40.432C269.573 40.432 268.509 40.232 267.565 39.832C266.621 39.432 265.821 38.848 265.165 38.08C264.509 37.312 263.997 36.376 263.629 35.272C263.277 34.152 263.101 32.88 263.101 31.456C263.101 30.016 263.293 28.736 263.677 27.616C264.061 26.496 264.597 25.552 265.285 24.784C265.973 24.016 266.781 23.432 267.709 23.032C268.653 22.632 269.669 22.432 270.757 22.432C271.813 22.432 272.725 22.568 273.493 22.84C274.261 23.112 274.909 23.496 275.437 23.992C275.981 24.488 276.413 25.08 276.733 25.768C277.069 26.456 277.325 27.216 277.501 28.048L275.341 28.408C275.197 27.784 275.005 27.224 274.765 26.728C274.541 26.216 274.245 25.784 273.877 25.432C273.525 25.08 273.093 24.816 272.581 24.64C272.085 24.448 271.477 24.352 270.757 24.352C269.909 24.352 269.149 24.528 268.477 24.88C267.821 25.216 267.261 25.696 266.797 26.32C266.349 26.928 266.005 27.672 265.765 28.552C265.525 29.416 265.405 30.376 265.405 31.432C265.405 32.488 265.525 33.456 265.765 34.336C266.005 35.2 266.349 35.944 266.797 36.568C267.261 37.192 267.821 37.672 268.477 38.008C269.149 38.344 269.917 38.512 270.781 38.512C271.565 38.512 272.229 38.416 272.773 38.224C273.333 38.016 273.789 37.728 274.141 37.36C274.509 36.992 274.797 36.552 275.005 36.04C275.213 35.528 275.365 34.968 275.461 34.36H277.741ZM280.068 22.864H282.276V33.208C282.276 34.984 282.604 36.312 283.26 37.192C283.932 38.072 285.036 38.512 286.572 38.512C288.124 38.512 289.22 38.072 289.86 37.192C290.5 36.296 290.82 34.968 290.82 33.208V22.864H293.028V33.208C293.028 34.488 292.876 35.584 292.572 36.496C292.284 37.392 291.86 38.136 291.3 38.728C290.756 39.32 290.076 39.752 289.26 40.024C288.46 40.296 287.556 40.432 286.548 40.432C284.484 40.432 282.884 39.856 281.748 38.704C280.628 37.552 280.068 35.688 280.068 33.112V22.864ZM300.339 24.832H294.675V22.864H308.235V24.832H302.571V40H300.339V24.832ZM310.073 22.864H321.161V24.808H312.281V30.184H320.681V32.152H312.281V38.056H321.617L321.257 40H310.073V22.864ZM342.747 34.36C342.651 35.224 342.435 36.032 342.099 36.784C341.763 37.52 341.307 38.16 340.731 38.704C340.155 39.248 339.451 39.672 338.619 39.976C337.803 40.28 336.851 40.432 335.763 40.432C334.579 40.432 333.515 40.232 332.571 39.832C331.627 39.432 330.827 38.848 330.171 38.08C329.515 37.312 329.003 36.376 328.635 35.272C328.283 34.152 328.107 32.88 328.107 31.456C328.107 30.016 328.299 28.736 328.683 27.616C329.067 26.496 329.603 25.552 330.291 24.784C330.979 24.016 331.787 23.432 332.715 23.032C333.659 22.632 334.675 22.432 335.763 22.432C336.819 22.432 337.731 22.568 338.499 22.84C339.267 23.112 339.915 23.496 340.443 23.992C340.987 24.488 341.419 25.08 341.739 25.768C342.075 26.456 342.331 27.216 342.507 28.048L340.347 28.408C340.203 27.784 340.011 27.224 339.771 26.728C339.547 26.216 339.251 25.784 338.883 25.432C338.531 25.08 338.099 24.816 337.587 24.64C337.091 24.448 336.483 24.352 335.763 24.352C334.915 24.352 334.155 24.528 333.483 24.88C332.827 25.216 332.267 25.696 331.803 26.32C331.355 26.928 331.011 27.672 330.771 28.552C330.531 29.416 330.411 30.376 330.411 31.432C330.411 32.488 330.531 33.456 330.771 34.336C331.011 35.2 331.355 35.944 331.803 36.568C332.267 37.192 332.827 37.672 333.483 38.008C334.155 38.344 334.923 38.512 335.787 38.512C336.571 38.512 337.235 38.416 337.779 38.224C338.339 38.016 338.795 37.728 339.147 37.36C339.515 36.992 339.803 36.552 340.011 36.04C340.219 35.528 340.371 34.968 340.467 34.36H342.747ZM352.562 40.432C351.394 40.432 350.322 40.24 349.346 39.856C348.386 39.456 347.554 38.88 346.85 38.128C346.162 37.36 345.626 36.416 345.242 35.296C344.858 34.176 344.666 32.896 344.666 31.456C344.666 30.016 344.858 28.736 345.242 27.616C345.642 26.496 346.186 25.552 346.874 24.784C347.578 24.016 348.41 23.432 349.37 23.032C350.346 22.632 351.41 22.432 352.562 22.432C353.73 22.432 354.794 22.632 355.754 23.032C356.73 23.416 357.562 23.992 358.25 24.76C358.938 25.512 359.474 26.448 359.858 27.568C360.242 28.672 360.434 29.944 360.434 31.384C360.434 32.824 360.242 34.112 359.858 35.248C359.49 36.368 358.962 37.312 358.274 38.08C357.586 38.848 356.754 39.432 355.778 39.832C354.818 40.232 353.746 40.432 352.562 40.432ZM352.562 38.512C353.474 38.512 354.274 38.344 354.962 38.008C355.666 37.672 356.25 37.2 356.714 36.592C357.178 35.968 357.53 35.224 357.77 34.36C358.01 33.48 358.13 32.504 358.13 31.432C358.13 30.376 358.01 29.416 357.77 28.552C357.53 27.672 357.17 26.92 356.69 26.296C356.226 25.672 355.65 25.192 354.962 24.856C354.274 24.52 353.474 24.352 352.562 24.352C351.634 24.352 350.818 24.52 350.114 24.856C349.426 25.192 348.842 25.672 348.362 26.296C347.898 26.92 347.546 27.672 347.306 28.552C347.082 29.416 346.97 30.376 346.97 31.432C346.97 32.504 347.082 33.48 347.306 34.36C347.546 35.224 347.898 35.968 348.362 36.592C348.826 37.2 349.402 37.672 350.09 38.008C350.794 38.344 351.618 38.512 352.562 38.512ZM363.138 22.864H365.322L374.034 36.472V22.864H376.17V40H374.058L365.274 26.464V40H363.138V22.864ZM383.686 24.832H378.022V22.864H391.582V24.832H385.918V40H383.686V24.832ZM393.42 22.864H399.036C400.316 22.864 401.364 23.008 402.18 23.296C402.996 23.584 403.636 23.96 404.1 24.424C404.58 24.872 404.908 25.384 405.084 25.96C405.26 26.536 405.348 27.12 405.348 27.712C405.348 28.8 405.116 29.728 404.652 30.496C404.204 31.264 403.46 31.864 402.42 32.296L406.02 40H403.548L400.308 32.824C400.1 32.856 399.876 32.88 399.636 32.896C399.396 32.896 399.18 32.896 398.988 32.896H395.604V40H393.42V22.864ZM399.252 31C400.02 31 400.652 30.928 401.148 30.784C401.644 30.624 402.036 30.408 402.324 30.136C402.612 29.848 402.812 29.504 402.924 29.104C403.036 28.704 403.092 28.256 403.092 27.76C403.092 27.28 403.028 26.856 402.9 26.488C402.772 26.12 402.548 25.808 402.228 25.552C401.924 25.28 401.508 25.08 400.98 24.952C400.452 24.808 399.78 24.736 398.964 24.736H395.604V31H399.252ZM413.495 22.864H415.823L422.471 40H420.071L418.271 35.224H410.927L409.127 40H406.823L413.495 22.864ZM417.599 33.304L414.575 25.36L411.599 33.304H417.599ZM437.344 34.36C437.248 35.224 437.032 36.032 436.696 36.784C436.36 37.52 435.904 38.16 435.328 38.704C434.752 39.248 434.048 39.672 433.216 39.976C432.4 40.28 431.448 40.432 430.36 40.432C429.176 40.432 428.112 40.232 427.168 39.832C426.224 39.432 425.424 38.848 424.768 38.08C424.112 37.312 423.6 36.376 423.232 35.272C422.88 34.152 422.704 32.88 422.704 31.456C422.704 30.016 422.896 28.736 423.28 27.616C423.664 26.496 424.2 25.552 424.888 24.784C425.576 24.016 426.384 23.432 427.312 23.032C428.256 22.632 429.272 22.432 430.36 22.432C431.416 22.432 432.328 22.568 433.096 22.84C433.864 23.112 434.512 23.496 435.04 23.992C435.584 24.488 436.016 25.08 436.336 25.768C436.672 26.456 436.928 27.216 437.104 28.048L434.944 28.408C434.8 27.784 434.608 27.224 434.368 26.728C434.144 26.216 433.848 25.784 433.48 25.432C433.128 25.08 432.696 24.816 432.184 24.64C431.688 24.448 431.08 24.352 430.36 24.352C429.512 24.352 428.752 24.528 428.08 24.88C427.424 25.216 426.864 25.696 426.4 26.32C425.952 26.928 425.608 27.672 425.368 28.552C425.128 29.416 425.008 30.376 425.008 31.432C425.008 32.488 425.128 33.456 425.368 34.336C425.608 35.2 425.952 35.944 426.4 36.568C426.864 37.192 427.424 37.672 428.08 38.008C428.752 38.344 429.52 38.512 430.384 38.512C431.168 38.512 431.832 38.416 432.376 38.224C432.936 38.016 433.392 37.728 433.744 37.36C434.112 36.992 434.4 36.552 434.608 36.04C434.816 35.528 434.968 34.968 435.064 34.36H437.344ZM443.336 24.832H437.672V22.864H451.232V24.832H445.568V40H443.336V24.832ZM454.552 35.128C454.744 36.328 455.216 37.2 455.968 37.744C456.736 38.272 457.872 38.536 459.376 38.536C460.128 38.536 460.752 38.456 461.248 38.296C461.76 38.12 462.168 37.896 462.472 37.624C462.776 37.336 462.992 37.008 463.12 36.64C463.248 36.256 463.312 35.856 463.312 35.44C463.312 35.104 463.272 34.784 463.192 34.48C463.112 34.16 462.952 33.872 462.712 33.616C462.488 33.36 462.168 33.136 461.752 32.944C461.352 32.752 460.832 32.6 460.192 32.488L458.032 32.104C457.184 31.96 456.432 31.768 455.776 31.528C455.12 31.288 454.56 30.984 454.096 30.616C453.648 30.232 453.304 29.76 453.064 29.2C452.84 28.64 452.728 27.96 452.728 27.16C452.728 26.376 452.888 25.688 453.208 25.096C453.544 24.504 453.992 24.008 454.552 23.608C455.112 23.208 455.776 22.912 456.544 22.72C457.312 22.528 458.144 22.432 459.04 22.432C460.176 22.432 461.12 22.56 461.872 22.816C462.64 23.056 463.264 23.384 463.744 23.8C464.224 24.216 464.584 24.696 464.824 25.24C465.08 25.768 465.272 26.312 465.4 26.872L463.336 27.28C463.208 26.8 463.04 26.376 462.832 26.008C462.64 25.624 462.376 25.312 462.04 25.072C461.72 24.816 461.32 24.624 460.84 24.496C460.36 24.368 459.776 24.304 459.088 24.304C458.304 24.304 457.648 24.376 457.12 24.52C456.592 24.664 456.168 24.864 455.848 25.12C455.528 25.36 455.296 25.656 455.152 26.008C455.024 26.344 454.96 26.704 454.96 27.088C454.96 27.504 455.008 27.872 455.104 28.192C455.216 28.496 455.392 28.768 455.632 29.008C455.888 29.232 456.216 29.424 456.616 29.584C457.016 29.728 457.512 29.856 458.104 29.968L460.504 30.4C462.28 30.736 463.584 31.296 464.416 32.08C465.248 32.848 465.664 33.984 465.664 35.488C465.664 36.176 465.528 36.824 465.256 37.432C465 38.024 464.608 38.544 464.08 38.992C463.568 39.44 462.92 39.792 462.136 40.048C461.352 40.304 460.432 40.432 459.376 40.432C458.368 40.432 457.448 40.328 456.616 40.12C455.8 39.928 455.088 39.616 454.48 39.184C453.872 38.752 453.384 38.2 453.016 37.528C452.648 36.856 452.424 36.056 452.344 35.128H454.552Z" fill="white"/>
<rect x="0.5" y="0.5" width="498" height="61" rx="30.5" stroke="white" stroke-opacity="0.16"/>
</svg>
