<svg width="333" height="62" viewBox="0 0 333 62" fill="none" xmlns="http://www.w3.org/2000/svg">
<rect x="32" y="16" width="38" height="30" rx="15" fill="#BBDCD2"/>
<g clip-path="url(#clip0_749_81879)">
<path d="M58.7146 26.7045C57.7305 26.7045 56.8226 26.3787 56.0934 25.829C55.2572 25.1989 54.6563 24.2746 54.4441 23.2092C54.3916 22.946 54.3633 22.6744 54.3606 22.396H51.5494V30.0732L51.5461 34.2784C51.5461 35.4026 50.8135 36.3559 49.7981 36.6912C49.5034 36.7884 49.1851 36.8346 48.8537 36.8164C48.4307 36.7932 48.0343 36.6656 47.6898 36.4596C46.9566 36.0213 46.4595 35.2263 46.446 34.3168C46.4248 32.8953 47.5746 31.7364 48.9959 31.7364C49.2764 31.7364 49.5459 31.7822 49.7981 31.8653V29.7669V29.0126C49.532 28.9732 49.2613 28.9527 48.9875 28.9527C47.4318 28.9527 45.9769 29.599 44.9369 30.7633C44.1508 31.6431 43.6793 32.7657 43.6065 33.9428C43.5112 35.4892 44.0774 36.9591 45.1753 38.0436C45.3366 38.2028 45.506 38.3506 45.6832 38.4869C46.6245 39.211 47.7753 39.6034 48.9875 39.6034C49.2613 39.6034 49.532 39.5833 49.7981 39.5439C50.9304 39.3762 51.9751 38.8582 52.7996 38.0436C53.8127 37.0429 54.3724 35.7143 54.3785 34.3003L54.364 28.0206C54.8473 28.3932 55.3757 28.7016 55.9429 28.9409C56.8249 29.3128 57.7602 29.5013 58.7227 29.501V27.4609V26.7038C58.7234 26.7045 58.7153 26.7045 58.7146 26.7045Z" fill="black"/>
</g>
<path d="M88.1132 22.864H93.7292C95.0092 22.864 96.0572 23.008 96.8732 23.296C97.6892 23.584 98.3292 23.96 98.7932 24.424C99.2732 24.872 99.6012 25.384 99.7772 25.96C99.9532 26.536 100.041 27.12 100.041 27.712C100.041 28.8 99.8092 29.728 99.3452 30.496C98.8972 31.264 98.1532 31.864 97.1132 32.296L100.713 40H98.2412L95.0012 32.824C94.7932 32.856 94.5692 32.88 94.3292 32.896C94.0892 32.896 93.8732 32.896 93.6812 32.896H90.2972V40H88.1132V22.864ZM93.9452 31C94.7132 31 95.3452 30.928 95.8412 30.784C96.3372 30.624 96.7292 30.408 97.0172 30.136C97.3052 29.848 97.5052 29.504 97.6172 29.104C97.7292 28.704 97.7852 28.256 97.7852 27.76C97.7852 27.28 97.7212 26.856 97.5932 26.488C97.4652 26.12 97.2412 25.808 96.9212 25.552C96.6172 25.28 96.2012 25.08 95.6732 24.952C95.1452 24.808 94.4732 24.736 93.6572 24.736H90.2972V31H93.9452ZM102.797 22.864H113.885V24.808H105.005V30.184H113.405V32.152H105.005V38.056H114.341L113.981 40H102.797V22.864ZM115.335 22.864H117.831L123.039 37.144L128.343 22.864H130.719L124.143 40H121.911L115.335 22.864ZM132.423 22.864H134.631V40H132.423V22.864ZM137.943 22.864H149.031V24.808H140.151V30.184H148.551V32.152H140.151V38.056H149.487L149.127 40H137.943V22.864ZM150.457 22.864H152.953L156.529 36.952L160.249 22.936H162.625L166.321 36.952L169.873 22.864H172.225L167.473 40H165.145L161.329 25.672L157.585 40H155.329L150.457 22.864ZM183.824 22.864H186.152L192.8 40H190.4L188.6 35.224H181.256L179.456 40H177.152L183.824 22.864ZM187.928 33.304L184.904 25.36L181.928 33.304H187.928ZM194.476 22.864H196.66L205.372 36.472V22.864H207.508V40H205.396L196.612 26.464V40H194.476V22.864ZM215.864 22.864H218.192L224.84 40H222.44L220.64 35.224H213.296L211.496 40H209.192L215.864 22.864ZM219.968 33.304L216.944 25.36L213.968 33.304H219.968ZM226.516 22.864H228.724V38.032H237.604L237.268 40H226.516V22.864ZM240.436 32.728L234.46 22.864H237.004L241.54 30.784L246.196 22.864H248.524L242.668 32.728V40H240.436V32.728ZM255.092 24.832H249.428V22.864H262.988V24.832H257.324V40H255.092V24.832ZM264.826 22.864H267.034V40H264.826V22.864ZM284.386 34.36C284.29 35.224 284.074 36.032 283.738 36.784C283.402 37.52 282.946 38.16 282.37 38.704C281.794 39.248 281.09 39.672 280.258 39.976C279.442 40.28 278.49 40.432 277.402 40.432C276.218 40.432 275.154 40.232 274.21 39.832C273.266 39.432 272.466 38.848 271.81 38.08C271.154 37.312 270.642 36.376 270.274 35.272C269.922 34.152 269.746 32.88 269.746 31.456C269.746 30.016 269.938 28.736 270.322 27.616C270.706 26.496 271.242 25.552 271.93 24.784C272.618 24.016 273.426 23.432 274.354 23.032C275.298 22.632 276.314 22.432 277.402 22.432C278.458 22.432 279.37 22.568 280.138 22.84C280.906 23.112 281.554 23.496 282.082 23.992C282.626 24.488 283.058 25.08 283.378 25.768C283.714 26.456 283.97 27.216 284.146 28.048L281.986 28.408C281.842 27.784 281.65 27.224 281.41 26.728C281.186 26.216 280.89 25.784 280.522 25.432C280.17 25.08 279.738 24.816 279.226 24.64C278.73 24.448 278.122 24.352 277.402 24.352C276.554 24.352 275.794 24.528 275.122 24.88C274.466 25.216 273.906 25.696 273.442 26.32C272.994 26.928 272.65 27.672 272.41 28.552C272.17 29.416 272.05 30.376 272.05 31.432C272.05 32.488 272.17 33.456 272.41 34.336C272.65 35.2 272.994 35.944 273.442 36.568C273.906 37.192 274.466 37.672 275.122 38.008C275.794 38.344 276.562 38.512 277.426 38.512C278.21 38.512 278.874 38.416 279.418 38.224C279.978 38.016 280.434 37.728 280.786 37.36C281.154 36.992 281.442 36.552 281.65 36.04C281.858 35.528 282.01 34.968 282.106 34.36H284.386ZM288.505 35.128C288.697 36.328 289.169 37.2 289.921 37.744C290.689 38.272 291.825 38.536 293.329 38.536C294.081 38.536 294.705 38.456 295.201 38.296C295.713 38.12 296.121 37.896 296.425 37.624C296.729 37.336 296.945 37.008 297.073 36.64C297.201 36.256 297.265 35.856 297.265 35.44C297.265 35.104 297.225 34.784 297.145 34.48C297.065 34.16 296.905 33.872 296.665 33.616C296.441 33.36 296.121 33.136 295.705 32.944C295.305 32.752 294.785 32.6 294.145 32.488L291.985 32.104C291.137 31.96 290.385 31.768 289.729 31.528C289.073 31.288 288.513 30.984 288.049 30.616C287.601 30.232 287.257 29.76 287.017 29.2C286.793 28.64 286.681 27.96 286.681 27.16C286.681 26.376 286.841 25.688 287.161 25.096C287.497 24.504 287.945 24.008 288.505 23.608C289.065 23.208 289.729 22.912 290.497 22.72C291.265 22.528 292.097 22.432 292.993 22.432C294.129 22.432 295.073 22.56 295.825 22.816C296.593 23.056 297.217 23.384 297.697 23.8C298.177 24.216 298.537 24.696 298.777 25.24C299.033 25.768 299.225 26.312 299.353 26.872L297.289 27.28C297.161 26.8 296.993 26.376 296.785 26.008C296.593 25.624 296.329 25.312 295.993 25.072C295.673 24.816 295.273 24.624 294.793 24.496C294.313 24.368 293.729 24.304 293.041 24.304C292.257 24.304 291.601 24.376 291.073 24.52C290.545 24.664 290.121 24.864 289.801 25.12C289.481 25.36 289.249 25.656 289.105 26.008C288.977 26.344 288.913 26.704 288.913 27.088C288.913 27.504 288.961 27.872 289.057 28.192C289.169 28.496 289.345 28.768 289.585 29.008C289.841 29.232 290.169 29.424 290.569 29.584C290.969 29.728 291.465 29.856 292.057 29.968L294.457 30.4C296.233 30.736 297.537 31.296 298.369 32.08C299.201 32.848 299.617 33.984 299.617 35.488C299.617 36.176 299.481 36.824 299.209 37.432C298.953 38.024 298.561 38.544 298.033 38.992C297.521 39.44 296.873 39.792 296.089 40.048C295.305 40.304 294.385 40.432 293.329 40.432C292.321 40.432 291.401 40.328 290.569 40.12C289.753 39.928 289.041 39.616 288.433 39.184C287.825 38.752 287.337 38.2 286.969 37.528C286.601 36.856 286.377 36.056 286.297 35.128H288.505Z" fill="white"/>
<rect x="0.5" y="0.5" width="332" height="61" rx="30.5" stroke="white" stroke-opacity="0.16"/>
<defs>
<clipPath id="clip0_749_81879">
<rect width="17.2437" height="17.234" fill="white" transform="translate(42.5378 22.3828)"/>
</clipPath>
</defs>
</svg>
