<svg width="553" height="62" viewBox="0 0 553 62" fill="none" xmlns="http://www.w3.org/2000/svg">
<rect x="32" y="16" width="38" height="30" rx="15" fill="#BBDCD2"/>
<g clip-path="url(#clip0_353_37704)">
<path opacity="0.2" fill-rule="evenodd" clip-rule="evenodd" d="M44.0644 38.0457L44.0568 37.9525L43.9523 38.0302L43.0764 27.3265L41.9067 25.7985L43.0015 26.4106L43.001 26.4052L43.1172 26.4703L43.1132 26.4207L50.0306 30.2878L43.2869 23.9551H51.1599H59.0328L52.5411 30.0512L59.3192 26.1734L59.3192 26.1734V26.174L59.3222 26.2534L59.4352 26.1888L59.3207 27.3395L59.3347 38.0457L58.2559 38.0447L58.2558 38.0457H44.0644Z" fill="url(#paint0_linear_353_37704)"/>
<path fill-rule="evenodd" clip-rule="evenodd" d="M60.413 25.7985V24.8285C60.413 24.3454 60.0225 23.9551 59.5353 23.9551H59.0326L51.1596 29.6941L43.2867 23.9551H42.7802C42.2968 23.9551 41.9062 24.3454 41.9062 24.8285V25.7985L41.9063 25.7986V37.1723C41.9063 37.6554 42.2969 38.0457 42.7802 38.0457H44.064V27.3715L51.1674 32.6622L58.2553 27.3715L58.2554 27.3714V38.0457H59.5392C60.0226 38.0457 60.4131 37.6554 60.4131 37.1723V25.7985L60.413 25.7985Z" fill="#16191A"/>
</g>
<path d="M88.2462 22.864H93.8622C95.1422 22.864 96.1902 23.008 97.0062 23.296C97.8222 23.584 98.4622 23.96 98.9262 24.424C99.4062 24.872 99.7342 25.384 99.9102 25.96C100.086 26.536 100.174 27.12 100.174 27.712C100.174 28.8 99.9422 29.728 99.4782 30.496C99.0302 31.264 98.2862 31.864 97.2462 32.296L100.846 40H98.3742L95.1342 32.824C94.9262 32.856 94.7022 32.88 94.4622 32.896C94.2222 32.896 94.0062 32.896 93.8142 32.896H90.4302V40H88.2462V22.864ZM94.0782 31C94.8462 31 95.4782 30.928 95.9742 30.784C96.4702 30.624 96.8622 30.408 97.1502 30.136C97.4382 29.848 97.6382 29.504 97.7502 29.104C97.8622 28.704 97.9182 28.256 97.9182 27.76C97.9182 27.28 97.8542 26.856 97.7262 26.488C97.5982 26.12 97.3742 25.808 97.0542 25.552C96.7502 25.28 96.3342 25.08 95.8062 24.952C95.2782 24.808 94.6062 24.736 93.7902 24.736H90.4302V31H94.0782ZM102.93 22.864H114.018V24.808H105.138V30.184H113.538V32.152H105.138V38.056H114.474L114.114 40H102.93V22.864ZM117.948 35.128C118.14 36.328 118.612 37.2 119.364 37.744C120.132 38.272 121.268 38.536 122.772 38.536C123.524 38.536 124.148 38.456 124.644 38.296C125.156 38.12 125.564 37.896 125.868 37.624C126.172 37.336 126.388 37.008 126.516 36.64C126.644 36.256 126.708 35.856 126.708 35.44C126.708 35.104 126.668 34.784 126.588 34.48C126.508 34.16 126.348 33.872 126.108 33.616C125.884 33.36 125.564 33.136 125.148 32.944C124.748 32.752 124.228 32.6 123.588 32.488L121.428 32.104C120.58 31.96 119.828 31.768 119.172 31.528C118.516 31.288 117.956 30.984 117.492 30.616C117.044 30.232 116.7 29.76 116.46 29.2C116.236 28.64 116.124 27.96 116.124 27.16C116.124 26.376 116.284 25.688 116.604 25.096C116.94 24.504 117.388 24.008 117.948 23.608C118.508 23.208 119.172 22.912 119.94 22.72C120.708 22.528 121.54 22.432 122.436 22.432C123.572 22.432 124.516 22.56 125.268 22.816C126.036 23.056 126.66 23.384 127.14 23.8C127.62 24.216 127.98 24.696 128.22 25.24C128.476 25.768 128.668 26.312 128.796 26.872L126.732 27.28C126.604 26.8 126.436 26.376 126.228 26.008C126.036 25.624 125.772 25.312 125.436 25.072C125.116 24.816 124.716 24.624 124.236 24.496C123.756 24.368 123.172 24.304 122.484 24.304C121.7 24.304 121.044 24.376 120.516 24.52C119.988 24.664 119.564 24.864 119.244 25.12C118.924 25.36 118.692 25.656 118.548 26.008C118.42 26.344 118.356 26.704 118.356 27.088C118.356 27.504 118.404 27.872 118.5 28.192C118.612 28.496 118.788 28.768 119.028 29.008C119.284 29.232 119.612 29.424 120.012 29.584C120.412 29.728 120.908 29.856 121.5 29.968L123.9 30.4C125.676 30.736 126.98 31.296 127.812 32.08C128.644 32.848 129.06 33.984 129.06 35.488C129.06 36.176 128.924 36.824 128.652 37.432C128.396 38.024 128.004 38.544 127.476 38.992C126.964 39.44 126.316 39.792 125.532 40.048C124.748 40.304 123.828 40.432 122.772 40.432C121.764 40.432 120.844 40.328 120.012 40.12C119.196 39.928 118.484 39.616 117.876 39.184C117.268 38.752 116.78 38.2 116.412 37.528C116.044 36.856 115.82 36.056 115.74 35.128H117.948ZM131.642 22.864H137.378C138.642 22.864 139.682 23 140.498 23.272C141.33 23.544 141.978 23.912 142.442 24.376C142.922 24.84 143.25 25.384 143.426 26.008C143.618 26.616 143.714 27.264 143.714 27.952C143.714 28.672 143.618 29.36 143.426 30.016C143.234 30.672 142.898 31.248 142.418 31.744C141.938 32.24 141.29 32.632 140.474 32.92C139.658 33.208 138.626 33.352 137.378 33.352H133.826V40H131.642V22.864ZM137.354 31.48C138.186 31.48 138.874 31.4 139.418 31.24C139.962 31.08 140.386 30.848 140.69 30.544C140.994 30.24 141.202 29.88 141.314 29.464C141.442 29.032 141.506 28.552 141.506 28.024C141.506 27.48 141.442 27 141.314 26.584C141.186 26.168 140.962 25.824 140.642 25.552C140.322 25.28 139.89 25.08 139.346 24.952C138.818 24.808 138.146 24.736 137.33 24.736H133.826V31.48H137.354ZM153.247 40.432C152.079 40.432 151.007 40.24 150.031 39.856C149.071 39.456 148.239 38.88 147.535 38.128C146.847 37.36 146.311 36.416 145.927 35.296C145.543 34.176 145.351 32.896 145.351 31.456C145.351 30.016 145.543 28.736 145.927 27.616C146.327 26.496 146.871 25.552 147.559 24.784C148.263 24.016 149.095 23.432 150.055 23.032C151.031 22.632 152.095 22.432 153.247 22.432C154.415 22.432 155.479 22.632 156.439 23.032C157.415 23.416 158.247 23.992 158.935 24.76C159.623 25.512 160.159 26.448 160.543 27.568C160.927 28.672 161.119 29.944 161.119 31.384C161.119 32.824 160.927 34.112 160.543 35.248C160.175 36.368 159.647 37.312 158.959 38.08C158.271 38.848 157.439 39.432 156.463 39.832C155.503 40.232 154.431 40.432 153.247 40.432ZM153.247 38.512C154.159 38.512 154.959 38.344 155.647 38.008C156.351 37.672 156.935 37.2 157.399 36.592C157.863 35.968 158.215 35.224 158.455 34.36C158.695 33.48 158.815 32.504 158.815 31.432C158.815 30.376 158.695 29.416 158.455 28.552C158.215 27.672 157.855 26.92 157.375 26.296C156.911 25.672 156.335 25.192 155.647 24.856C154.959 24.52 154.159 24.352 153.247 24.352C152.319 24.352 151.503 24.52 150.799 24.856C150.111 25.192 149.527 25.672 149.047 26.296C148.583 26.92 148.231 27.672 147.991 28.552C147.767 29.416 147.655 30.376 147.655 31.432C147.655 32.504 147.767 33.48 147.991 34.36C148.231 35.224 148.583 35.968 149.047 36.592C149.511 37.2 150.087 37.672 150.775 38.008C151.479 38.344 152.303 38.512 153.247 38.512ZM163.823 22.864H166.007L174.719 36.472V22.864H176.855V40H174.743L165.959 26.464V40H163.823V22.864ZM180.171 22.864H186.171C187.419 22.864 188.531 23.04 189.507 23.392C190.499 23.728 191.331 24.248 192.003 24.952C192.691 25.656 193.219 26.536 193.587 27.592C193.955 28.648 194.139 29.888 194.139 31.312C194.139 32.752 193.939 34.016 193.539 35.104C193.155 36.192 192.595 37.096 191.859 37.816C191.123 38.536 190.227 39.08 189.171 39.448C188.115 39.816 186.931 40 185.619 40H180.171V22.864ZM185.715 38.08C187.843 38.08 189.395 37.488 190.371 36.304C191.347 35.104 191.835 33.456 191.835 31.36C191.835 30.32 191.723 29.392 191.499 28.576C191.291 27.76 190.955 27.072 190.491 26.512C190.043 25.936 189.459 25.504 188.739 25.216C188.019 24.912 187.163 24.76 186.171 24.76H182.379V38.08H185.715ZM205.887 24.832H200.223V22.864H213.783V24.832H208.119V40H205.887V24.832ZM221.957 40.432C220.789 40.432 219.717 40.24 218.741 39.856C217.781 39.456 216.949 38.88 216.245 38.128C215.557 37.36 215.021 36.416 214.637 35.296C214.253 34.176 214.061 32.896 214.061 31.456C214.061 30.016 214.253 28.736 214.637 27.616C215.037 26.496 215.581 25.552 216.269 24.784C216.973 24.016 217.805 23.432 218.765 23.032C219.741 22.632 220.805 22.432 221.957 22.432C223.125 22.432 224.189 22.632 225.149 23.032C226.125 23.416 226.957 23.992 227.645 24.76C228.333 25.512 228.869 26.448 229.253 27.568C229.637 28.672 229.829 29.944 229.829 31.384C229.829 32.824 229.637 34.112 229.253 35.248C228.885 36.368 228.357 37.312 227.669 38.08C226.981 38.848 226.149 39.432 225.173 39.832C224.213 40.232 223.141 40.432 221.957 40.432ZM221.957 38.512C222.869 38.512 223.669 38.344 224.357 38.008C225.061 37.672 225.645 37.2 226.109 36.592C226.573 35.968 226.925 35.224 227.165 34.36C227.405 33.48 227.525 32.504 227.525 31.432C227.525 30.376 227.405 29.416 227.165 28.552C226.925 27.672 226.565 26.92 226.085 26.296C225.621 25.672 225.045 25.192 224.357 24.856C223.669 24.52 222.869 24.352 221.957 24.352C221.029 24.352 220.213 24.52 219.509 24.856C218.821 25.192 218.237 25.672 217.757 26.296C217.293 26.92 216.941 27.672 216.701 28.552C216.477 29.416 216.365 30.376 216.365 31.432C216.365 32.504 216.477 33.48 216.701 34.36C216.941 35.224 217.293 35.968 217.757 36.592C218.221 37.2 218.797 37.672 219.485 38.008C220.189 38.344 221.013 38.512 221.957 38.512ZM237.396 22.864H243.396C244.644 22.864 245.756 23.04 246.732 23.392C247.724 23.728 248.556 24.248 249.228 24.952C249.916 25.656 250.444 26.536 250.812 27.592C251.18 28.648 251.364 29.888 251.364 31.312C251.364 32.752 251.164 34.016 250.764 35.104C250.38 36.192 249.82 37.096 249.084 37.816C248.348 38.536 247.452 39.08 246.396 39.448C245.34 39.816 244.156 40 242.844 40H237.396V22.864ZM242.94 38.08C245.068 38.08 246.62 37.488 247.596 36.304C248.572 35.104 249.06 33.456 249.06 31.36C249.06 30.32 248.948 29.392 248.724 28.576C248.516 27.76 248.18 27.072 247.716 26.512C247.268 25.936 246.684 25.504 245.964 25.216C245.244 24.912 244.388 24.76 243.396 24.76H239.604V38.08H242.94ZM261.345 40.432C260.177 40.432 259.105 40.24 258.129 39.856C257.169 39.456 256.337 38.88 255.633 38.128C254.945 37.36 254.409 36.416 254.025 35.296C253.641 34.176 253.449 32.896 253.449 31.456C253.449 30.016 253.641 28.736 254.025 27.616C254.425 26.496 254.969 25.552 255.657 24.784C256.361 24.016 257.193 23.432 258.153 23.032C259.129 22.632 260.193 22.432 261.345 22.432C262.513 22.432 263.577 22.632 264.537 23.032C265.513 23.416 266.345 23.992 267.033 24.76C267.721 25.512 268.257 26.448 268.641 27.568C269.025 28.672 269.217 29.944 269.217 31.384C269.217 32.824 269.025 34.112 268.641 35.248C268.273 36.368 267.745 37.312 267.057 38.08C266.369 38.848 265.537 39.432 264.561 39.832C263.601 40.232 262.529 40.432 261.345 40.432ZM261.345 38.512C262.257 38.512 263.057 38.344 263.745 38.008C264.449 37.672 265.033 37.2 265.497 36.592C265.961 35.968 266.313 35.224 266.553 34.36C266.793 33.48 266.913 32.504 266.913 31.432C266.913 30.376 266.793 29.416 266.553 28.552C266.313 27.672 265.953 26.92 265.473 26.296C265.009 25.672 264.433 25.192 263.745 24.856C263.057 24.52 262.257 24.352 261.345 24.352C260.417 24.352 259.601 24.52 258.897 24.856C258.209 25.192 257.625 25.672 257.145 26.296C256.681 26.92 256.329 27.672 256.089 28.552C255.865 29.416 255.753 30.376 255.753 31.432C255.753 32.504 255.865 33.48 256.089 34.36C256.329 35.224 256.681 35.968 257.145 36.592C257.609 37.2 258.185 37.672 258.873 38.008C259.577 38.344 260.401 38.512 261.345 38.512ZM270.159 38.296L279.999 24.808H270.327V22.864H282.615V24.592L272.799 38.032H282.903L282.567 40H270.159V38.296ZM284.893 22.864H295.981V24.808H287.101V30.184H295.501V32.152H287.101V38.056H296.437L296.077 40H284.893V22.864ZM298.663 22.864H300.847L309.559 36.472V22.864H311.695V40H309.583L300.799 26.464V40H298.663V22.864ZM316.259 35.128C316.451 36.328 316.923 37.2 317.675 37.744C318.443 38.272 319.579 38.536 321.083 38.536C321.835 38.536 322.459 38.456 322.955 38.296C323.467 38.12 323.875 37.896 324.179 37.624C324.483 37.336 324.699 37.008 324.827 36.64C324.955 36.256 325.019 35.856 325.019 35.44C325.019 35.104 324.979 34.784 324.899 34.48C324.819 34.16 324.659 33.872 324.419 33.616C324.195 33.36 323.875 33.136 323.459 32.944C323.059 32.752 322.539 32.6 321.899 32.488L319.739 32.104C318.891 31.96 318.139 31.768 317.483 31.528C316.827 31.288 316.267 30.984 315.803 30.616C315.355 30.232 315.011 29.76 314.771 29.2C314.547 28.64 314.435 27.96 314.435 27.16C314.435 26.376 314.595 25.688 314.915 25.096C315.251 24.504 315.699 24.008 316.259 23.608C316.819 23.208 317.483 22.912 318.251 22.72C319.019 22.528 319.851 22.432 320.747 22.432C321.883 22.432 322.827 22.56 323.579 22.816C324.347 23.056 324.971 23.384 325.451 23.8C325.931 24.216 326.291 24.696 326.531 25.24C326.787 25.768 326.979 26.312 327.107 26.872L325.043 27.28C324.915 26.8 324.747 26.376 324.539 26.008C324.347 25.624 324.083 25.312 323.747 25.072C323.427 24.816 323.027 24.624 322.547 24.496C322.067 24.368 321.483 24.304 320.795 24.304C320.011 24.304 319.355 24.376 318.827 24.52C318.299 24.664 317.875 24.864 317.555 25.12C317.235 25.36 317.003 25.656 316.859 26.008C316.731 26.344 316.667 26.704 316.667 27.088C316.667 27.504 316.715 27.872 316.811 28.192C316.923 28.496 317.099 28.768 317.339 29.008C317.595 29.232 317.923 29.424 318.323 29.584C318.723 29.728 319.219 29.856 319.811 29.968L322.211 30.4C323.987 30.736 325.291 31.296 326.123 32.08C326.955 32.848 327.371 33.984 327.371 35.488C327.371 36.176 327.235 36.824 326.963 37.432C326.707 38.024 326.315 38.544 325.787 38.992C325.275 39.44 324.627 39.792 323.843 40.048C323.059 40.304 322.139 40.432 321.083 40.432C320.075 40.432 319.155 40.328 318.323 40.12C317.507 39.928 316.795 39.616 316.187 39.184C315.579 38.752 315.091 38.2 314.723 37.528C314.355 36.856 314.131 36.056 314.051 35.128H316.259ZM342.113 40.432C340.945 40.432 339.873 40.24 338.897 39.856C337.937 39.456 337.105 38.88 336.401 38.128C335.713 37.36 335.177 36.416 334.793 35.296C334.409 34.176 334.217 32.896 334.217 31.456C334.217 30.016 334.409 28.736 334.793 27.616C335.193 26.496 335.737 25.552 336.425 24.784C337.129 24.016 337.961 23.432 338.921 23.032C339.897 22.632 340.961 22.432 342.113 22.432C343.281 22.432 344.345 22.632 345.305 23.032C346.281 23.416 347.113 23.992 347.801 24.76C348.489 25.512 349.025 26.448 349.409 27.568C349.793 28.672 349.985 29.944 349.985 31.384C349.985 32.824 349.793 34.112 349.409 35.248C349.041 36.368 348.513 37.312 347.825 38.08C347.137 38.848 346.305 39.432 345.329 39.832C344.369 40.232 343.297 40.432 342.113 40.432ZM342.113 38.512C343.025 38.512 343.825 38.344 344.513 38.008C345.217 37.672 345.801 37.2 346.265 36.592C346.729 35.968 347.081 35.224 347.321 34.36C347.561 33.48 347.681 32.504 347.681 31.432C347.681 30.376 347.561 29.416 347.321 28.552C347.081 27.672 346.721 26.92 346.241 26.296C345.777 25.672 345.201 25.192 344.513 24.856C343.825 24.52 343.025 24.352 342.113 24.352C341.185 24.352 340.369 24.52 339.665 24.856C338.977 25.192 338.393 25.672 337.913 26.296C337.449 26.92 337.097 27.672 336.857 28.552C336.633 29.416 336.521 30.376 336.521 31.432C336.521 32.504 336.633 33.48 336.857 34.36C337.097 35.224 337.449 35.968 337.913 36.592C338.377 37.2 338.953 37.672 339.641 38.008C340.345 38.344 341.169 38.512 342.113 38.512ZM352.689 22.864H363.321V24.808H354.897V30.424H362.793V32.416H354.897V40H352.689V22.864ZM384.659 34.36C384.563 35.224 384.347 36.032 384.011 36.784C383.675 37.52 383.219 38.16 382.643 38.704C382.067 39.248 381.363 39.672 380.531 39.976C379.715 40.28 378.763 40.432 377.675 40.432C376.491 40.432 375.427 40.232 374.483 39.832C373.539 39.432 372.739 38.848 372.083 38.08C371.427 37.312 370.915 36.376 370.547 35.272C370.195 34.152 370.019 32.88 370.019 31.456C370.019 30.016 370.211 28.736 370.595 27.616C370.979 26.496 371.515 25.552 372.203 24.784C372.891 24.016 373.699 23.432 374.627 23.032C375.571 22.632 376.587 22.432 377.675 22.432C378.731 22.432 379.643 22.568 380.411 22.84C381.179 23.112 381.827 23.496 382.355 23.992C382.899 24.488 383.331 25.08 383.651 25.768C383.987 26.456 384.243 27.216 384.419 28.048L382.259 28.408C382.115 27.784 381.923 27.224 381.683 26.728C381.459 26.216 381.163 25.784 380.795 25.432C380.443 25.08 380.011 24.816 379.499 24.64C379.003 24.448 378.395 24.352 377.675 24.352C376.827 24.352 376.067 24.528 375.395 24.88C374.739 25.216 374.179 25.696 373.715 26.32C373.267 26.928 372.923 27.672 372.683 28.552C372.443 29.416 372.323 30.376 372.323 31.432C372.323 32.488 372.443 33.456 372.683 34.336C372.923 35.2 373.267 35.944 373.715 36.568C374.179 37.192 374.739 37.672 375.395 38.008C376.067 38.344 376.835 38.512 377.699 38.512C378.483 38.512 379.147 38.416 379.691 38.224C380.251 38.016 380.707 37.728 381.059 37.36C381.427 36.992 381.715 36.552 381.923 36.04C382.131 35.528 382.283 34.968 382.379 34.36H384.659ZM394.474 40.432C393.306 40.432 392.234 40.24 391.258 39.856C390.298 39.456 389.466 38.88 388.762 38.128C388.074 37.36 387.538 36.416 387.154 35.296C386.77 34.176 386.578 32.896 386.578 31.456C386.578 30.016 386.77 28.736 387.154 27.616C387.554 26.496 388.098 25.552 388.786 24.784C389.49 24.016 390.322 23.432 391.282 23.032C392.258 22.632 393.322 22.432 394.474 22.432C395.642 22.432 396.706 22.632 397.666 23.032C398.642 23.416 399.474 23.992 400.162 24.76C400.85 25.512 401.386 26.448 401.77 27.568C402.154 28.672 402.346 29.944 402.346 31.384C402.346 32.824 402.154 34.112 401.77 35.248C401.402 36.368 400.874 37.312 400.186 38.08C399.498 38.848 398.666 39.432 397.69 39.832C396.73 40.232 395.658 40.432 394.474 40.432ZM394.474 38.512C395.386 38.512 396.186 38.344 396.874 38.008C397.578 37.672 398.162 37.2 398.626 36.592C399.09 35.968 399.442 35.224 399.682 34.36C399.922 33.48 400.042 32.504 400.042 31.432C400.042 30.376 399.922 29.416 399.682 28.552C399.442 27.672 399.082 26.92 398.602 26.296C398.138 25.672 397.562 25.192 396.874 24.856C396.186 24.52 395.386 24.352 394.474 24.352C393.546 24.352 392.73 24.52 392.026 24.856C391.338 25.192 390.754 25.672 390.274 26.296C389.81 26.92 389.458 27.672 389.218 28.552C388.994 29.416 388.882 30.376 388.882 31.432C388.882 32.504 388.994 33.48 389.218 34.36C389.458 35.224 389.81 35.968 390.274 36.592C390.738 37.2 391.314 37.672 392.002 38.008C392.706 38.344 393.53 38.512 394.474 38.512ZM405.05 22.864H407.258V38.032H416.138L415.802 40H405.05V22.864ZM418.046 22.864H424.046C425.294 22.864 426.406 23.04 427.382 23.392C428.374 23.728 429.206 24.248 429.878 24.952C430.566 25.656 431.094 26.536 431.462 27.592C431.83 28.648 432.014 29.888 432.014 31.312C432.014 32.752 431.814 34.016 431.414 35.104C431.03 36.192 430.47 37.096 429.734 37.816C428.998 38.536 428.102 39.08 427.046 39.448C425.99 39.816 424.806 40 423.494 40H418.046V22.864ZM423.59 38.08C425.718 38.08 427.27 37.488 428.246 36.304C429.222 35.104 429.71 33.456 429.71 31.36C429.71 30.32 429.598 29.392 429.374 28.576C429.166 27.76 428.83 27.072 428.366 26.512C427.918 25.936 427.334 25.504 426.614 25.216C425.894 24.912 425.038 24.76 424.046 24.76H420.254V38.08H423.59ZM439.563 22.864H450.651V24.808H441.771V30.184H450.171V32.152H441.771V38.056H451.107L450.747 40H439.563V22.864ZM453.333 22.864H456.069L461.589 37.36L467.205 22.864H469.845V40H467.805V26.488L462.429 40H460.629L455.349 26.536V40H453.333V22.864ZM478.19 22.864H480.518L487.166 40H484.766L482.966 35.224H475.622L473.822 40H471.518L478.19 22.864ZM482.294 33.304L479.27 25.36L476.294 33.304H482.294ZM488.842 22.864H491.05V40H488.842V22.864ZM494.362 22.864H496.57V38.032H505.45L505.114 40H494.362V22.864ZM508.372 35.128C508.564 36.328 509.036 37.2 509.788 37.744C510.556 38.272 511.692 38.536 513.196 38.536C513.948 38.536 514.572 38.456 515.068 38.296C515.58 38.12 515.988 37.896 516.292 37.624C516.596 37.336 516.812 37.008 516.94 36.64C517.068 36.256 517.132 35.856 517.132 35.44C517.132 35.104 517.092 34.784 517.012 34.48C516.932 34.16 516.772 33.872 516.532 33.616C516.308 33.36 515.988 33.136 515.572 32.944C515.172 32.752 514.652 32.6 514.012 32.488L511.852 32.104C511.004 31.96 510.252 31.768 509.596 31.528C508.94 31.288 508.38 30.984 507.916 30.616C507.468 30.232 507.124 29.76 506.884 29.2C506.66 28.64 506.548 27.96 506.548 27.16C506.548 26.376 506.708 25.688 507.028 25.096C507.364 24.504 507.812 24.008 508.372 23.608C508.932 23.208 509.596 22.912 510.364 22.72C511.132 22.528 511.964 22.432 512.86 22.432C513.996 22.432 514.94 22.56 515.692 22.816C516.46 23.056 517.084 23.384 517.564 23.8C518.044 24.216 518.404 24.696 518.644 25.24C518.9 25.768 519.092 26.312 519.22 26.872L517.156 27.28C517.028 26.8 516.86 26.376 516.652 26.008C516.46 25.624 516.196 25.312 515.86 25.072C515.54 24.816 515.14 24.624 514.66 24.496C514.18 24.368 513.596 24.304 512.908 24.304C512.124 24.304 511.468 24.376 510.94 24.52C510.412 24.664 509.988 24.864 509.668 25.12C509.348 25.36 509.116 25.656 508.972 26.008C508.844 26.344 508.78 26.704 508.78 27.088C508.78 27.504 508.828 27.872 508.924 28.192C509.036 28.496 509.212 28.768 509.452 29.008C509.708 29.232 510.036 29.424 510.436 29.584C510.836 29.728 511.332 29.856 511.924 29.968L514.324 30.4C516.1 30.736 517.404 31.296 518.236 32.08C519.068 32.848 519.484 33.984 519.484 35.488C519.484 36.176 519.348 36.824 519.076 37.432C518.82 38.024 518.428 38.544 517.9 38.992C517.388 39.44 516.74 39.792 515.956 40.048C515.172 40.304 514.252 40.432 513.196 40.432C512.188 40.432 511.268 40.328 510.436 40.12C509.62 39.928 508.908 39.616 508.3 39.184C507.692 38.752 507.204 38.2 506.836 37.528C506.468 36.856 506.244 36.056 506.164 35.128H508.372Z" fill="white"/>
<rect x="0.5" y="0.5" width="552" height="61" rx="30.5" stroke="white" stroke-opacity="0.16"/>
<defs>
<linearGradient id="paint0_linear_353_37704" x1="50.836" y1="26.3458" x2="56.9349" y2="36.2573" gradientUnits="userSpaceOnUse">
<stop/>
<stop offset="0.9425" stop-opacity="0"/>
</linearGradient>
<clipPath id="clip0_353_37704">
<rect width="19.7983" height="19.7872" fill="white" transform="translate(41.2607 21.1064)"/>
</clipPath>
</defs>
</svg>
