<svg width="347" height="62" viewBox="0 0 347 62" fill="none" xmlns="http://www.w3.org/2000/svg">
<rect x="32" y="16" width="38" height="30" rx="15" fill="#BBDCD2"/>
<g clip-path="url(#clip0_711_74067)">
<path fill-rule="evenodd" clip-rule="evenodd" d="M45.5715 23.0215H56.7479C58.0706 23.0215 59.1429 24.0931 59.1429 25.4151V36.5853C59.1429 37.9073 58.0706 38.9789 56.7479 38.9789H45.5715C44.2488 38.9789 43.1765 37.9073 43.1765 36.5853V25.4151C43.1765 24.0931 44.2488 23.0215 45.5715 23.0215ZM55.5661 28.1828C55.5661 27.4472 55.4133 26.8675 55.0702 26.3034L52.1202 26.9049C52.3073 27.2976 52.4289 27.7745 52.4289 28.4757C52.4289 29.7536 51.5215 31.6329 50.7886 32.8297L49.9997 26.5091L46.7534 26.8176L48.2377 35.7002H51.9424C53.5671 33.5653 55.5661 30.5234 55.5661 28.1828Z" fill="black"/>
</g>
<path d="M87.9413 22.864H93.5573C94.8373 22.864 95.8853 23.008 96.7013 23.296C97.5173 23.584 98.1573 23.96 98.6213 24.424C99.1013 24.872 99.4293 25.384 99.6053 25.96C99.7813 26.536 99.8693 27.12 99.8693 27.712C99.8693 28.8 99.6373 29.728 99.1733 30.496C98.7253 31.264 97.9813 31.864 96.9413 32.296L100.541 40H98.0693L94.8293 32.824C94.6213 32.856 94.3973 32.88 94.1573 32.896C93.9173 32.896 93.7013 32.896 93.5093 32.896H90.1253V40H87.9413V22.864ZM93.7733 31C94.5413 31 95.1733 30.928 95.6693 30.784C96.1653 30.624 96.5573 30.408 96.8453 30.136C97.1333 29.848 97.3333 29.504 97.4453 29.104C97.5573 28.704 97.6133 28.256 97.6133 27.76C97.6133 27.28 97.5493 26.856 97.4213 26.488C97.2933 26.12 97.0693 25.808 96.7493 25.552C96.4453 25.28 96.0293 25.08 95.5013 24.952C94.9733 24.808 94.3013 24.736 93.4853 24.736H90.1253V31H93.7733ZM102.625 22.864H113.713V24.808H104.833V30.184H113.233V32.152H104.833V38.056H114.169L113.809 40H102.625V22.864ZM127.771 39.424C127.195 39.744 126.563 39.992 125.875 40.168C125.203 40.344 124.475 40.432 123.691 40.432C122.523 40.432 121.451 40.24 120.475 39.856C119.515 39.456 118.683 38.88 117.979 38.128C117.291 37.36 116.755 36.416 116.371 35.296C115.987 34.176 115.795 32.896 115.795 31.456C115.795 30.016 115.987 28.736 116.371 27.616C116.771 26.496 117.315 25.552 118.003 24.784C118.707 24.016 119.539 23.432 120.499 23.032C121.475 22.632 122.539 22.432 123.691 22.432C124.859 22.432 125.923 22.632 126.883 23.032C127.859 23.416 128.691 23.992 129.379 24.76C130.067 25.512 130.603 26.448 130.987 27.568C131.371 28.672 131.563 29.944 131.563 31.384C131.563 32.888 131.363 34.224 130.963 35.392C130.563 36.544 129.987 37.504 129.235 38.272L131.323 40.744L129.907 41.968L127.771 39.424ZM124.339 35.272L125.755 34.072L127.843 36.592C128.787 35.328 129.259 33.608 129.259 31.432C129.259 30.376 129.139 29.416 128.899 28.552C128.659 27.672 128.299 26.92 127.819 26.296C127.355 25.672 126.779 25.192 126.091 24.856C125.403 24.52 124.603 24.352 123.691 24.352C122.763 24.352 121.947 24.52 121.243 24.856C120.555 25.192 119.971 25.672 119.491 26.296C119.027 26.92 118.675 27.672 118.435 28.552C118.211 29.416 118.099 30.376 118.099 31.432C118.099 32.504 118.211 33.48 118.435 34.36C118.675 35.224 119.027 35.968 119.491 36.592C119.955 37.2 120.531 37.672 121.219 38.008C121.923 38.344 122.747 38.512 123.691 38.512C124.747 38.512 125.667 38.28 126.451 37.816L124.339 35.272ZM134.075 22.864H136.283V33.208C136.283 34.984 136.611 36.312 137.267 37.192C137.939 38.072 139.043 38.512 140.579 38.512C142.131 38.512 143.227 38.072 143.867 37.192C144.507 36.296 144.827 34.968 144.827 33.208V22.864H147.035V33.208C147.035 34.488 146.883 35.584 146.579 36.496C146.291 37.392 145.867 38.136 145.307 38.728C144.763 39.32 144.083 39.752 143.267 40.024C142.467 40.296 141.563 40.432 140.555 40.432C138.491 40.432 136.891 39.856 135.755 38.704C134.635 37.552 134.075 35.688 134.075 33.112V22.864ZM150.146 22.864H161.234V24.808H152.354V30.184H160.754V32.152H152.354V38.056H161.69L161.33 40H150.146V22.864ZM165.164 35.128C165.356 36.328 165.828 37.2 166.58 37.744C167.348 38.272 168.484 38.536 169.988 38.536C170.74 38.536 171.364 38.456 171.86 38.296C172.372 38.12 172.78 37.896 173.084 37.624C173.388 37.336 173.604 37.008 173.732 36.64C173.86 36.256 173.924 35.856 173.924 35.44C173.924 35.104 173.884 34.784 173.804 34.48C173.724 34.16 173.564 33.872 173.324 33.616C173.1 33.36 172.78 33.136 172.364 32.944C171.964 32.752 171.444 32.6 170.804 32.488L168.644 32.104C167.796 31.96 167.044 31.768 166.388 31.528C165.732 31.288 165.172 30.984 164.708 30.616C164.26 30.232 163.916 29.76 163.676 29.2C163.452 28.64 163.34 27.96 163.34 27.16C163.34 26.376 163.5 25.688 163.82 25.096C164.156 24.504 164.604 24.008 165.164 23.608C165.724 23.208 166.388 22.912 167.156 22.72C167.924 22.528 168.756 22.432 169.652 22.432C170.788 22.432 171.732 22.56 172.484 22.816C173.252 23.056 173.876 23.384 174.356 23.8C174.836 24.216 175.196 24.696 175.436 25.24C175.692 25.768 175.884 26.312 176.012 26.872L173.948 27.28C173.82 26.8 173.652 26.376 173.444 26.008C173.252 25.624 172.988 25.312 172.652 25.072C172.332 24.816 171.932 24.624 171.452 24.496C170.972 24.368 170.388 24.304 169.7 24.304C168.916 24.304 168.26 24.376 167.732 24.52C167.204 24.664 166.78 24.864 166.46 25.12C166.14 25.36 165.908 25.656 165.764 26.008C165.636 26.344 165.572 26.704 165.572 27.088C165.572 27.504 165.62 27.872 165.716 28.192C165.828 28.496 166.004 28.768 166.244 29.008C166.5 29.232 166.828 29.424 167.228 29.584C167.628 29.728 168.124 29.856 168.716 29.968L171.116 30.4C172.892 30.736 174.196 31.296 175.028 32.08C175.86 32.848 176.276 33.984 176.276 35.488C176.276 36.176 176.14 36.824 175.868 37.432C175.612 38.024 175.22 38.544 174.692 38.992C174.18 39.44 173.532 39.792 172.748 40.048C171.964 40.304 171.044 40.432 169.988 40.432C168.98 40.432 168.06 40.328 167.228 40.12C166.412 39.928 165.7 39.616 165.092 39.184C164.484 38.752 163.996 38.2 163.628 37.528C163.26 36.856 163.036 36.056 162.956 35.128H165.164ZM182.824 24.832H177.16V22.864H190.72V24.832H185.056V40H182.824V24.832ZM197.422 22.864H203.158C204.422 22.864 205.462 23 206.278 23.272C207.11 23.544 207.758 23.912 208.222 24.376C208.702 24.84 209.03 25.384 209.206 26.008C209.398 26.616 209.494 27.264 209.494 27.952C209.494 28.672 209.398 29.36 209.206 30.016C209.014 30.672 208.678 31.248 208.198 31.744C207.718 32.24 207.07 32.632 206.254 32.92C205.438 33.208 204.406 33.352 203.158 33.352H199.606V40H197.422V22.864ZM203.134 31.48C203.966 31.48 204.654 31.4 205.198 31.24C205.742 31.08 206.166 30.848 206.47 30.544C206.774 30.24 206.982 29.88 207.094 29.464C207.222 29.032 207.286 28.552 207.286 28.024C207.286 27.48 207.222 27 207.094 26.584C206.966 26.168 206.742 25.824 206.422 25.552C206.102 25.28 205.67 25.08 205.126 24.952C204.598 24.808 203.926 24.736 203.11 24.736H199.606V31.48H203.134ZM214.966 22.864H217.294L223.942 40H221.542L219.742 35.224H212.398L210.598 40H208.294L214.966 22.864ZM219.07 33.304L216.046 25.36L213.07 33.304H219.07ZM227.479 32.728L221.503 22.864H224.047L228.583 30.784L233.239 22.864H235.567L229.711 32.728V40H227.479V32.728ZM237.325 22.864H240.061L245.581 37.36L251.197 22.864H253.837V40H251.797V26.488L246.421 40H244.621L239.341 26.536V40H237.325V22.864ZM257.142 22.864H268.23V24.808H259.35V30.184H267.75V32.152H259.35V38.056H268.686L268.326 40H257.142V22.864ZM270.912 22.864H273.096L281.808 36.472V22.864H283.944V40H281.832L273.048 26.464V40H270.912V22.864ZM291.46 24.832H285.796V22.864H299.356V24.832H293.692V40H291.46V24.832ZM302.677 35.128C302.869 36.328 303.341 37.2 304.093 37.744C304.861 38.272 305.997 38.536 307.501 38.536C308.253 38.536 308.877 38.456 309.373 38.296C309.885 38.12 310.293 37.896 310.597 37.624C310.901 37.336 311.117 37.008 311.245 36.64C311.373 36.256 311.437 35.856 311.437 35.44C311.437 35.104 311.397 34.784 311.317 34.48C311.237 34.16 311.077 33.872 310.837 33.616C310.613 33.36 310.293 33.136 309.877 32.944C309.477 32.752 308.957 32.6 308.317 32.488L306.157 32.104C305.309 31.96 304.557 31.768 303.901 31.528C303.245 31.288 302.685 30.984 302.221 30.616C301.773 30.232 301.429 29.76 301.189 29.2C300.965 28.64 300.853 27.96 300.853 27.16C300.853 26.376 301.013 25.688 301.333 25.096C301.669 24.504 302.117 24.008 302.677 23.608C303.237 23.208 303.901 22.912 304.669 22.72C305.437 22.528 306.269 22.432 307.165 22.432C308.301 22.432 309.245 22.56 309.997 22.816C310.765 23.056 311.389 23.384 311.869 23.8C312.349 24.216 312.709 24.696 312.949 25.24C313.205 25.768 313.397 26.312 313.525 26.872L311.461 27.28C311.333 26.8 311.165 26.376 310.957 26.008C310.765 25.624 310.501 25.312 310.165 25.072C309.845 24.816 309.445 24.624 308.965 24.496C308.485 24.368 307.901 24.304 307.213 24.304C306.429 24.304 305.773 24.376 305.245 24.52C304.717 24.664 304.293 24.864 303.973 25.12C303.653 25.36 303.421 25.656 303.277 26.008C303.149 26.344 303.085 26.704 303.085 27.088C303.085 27.504 303.133 27.872 303.229 28.192C303.341 28.496 303.517 28.768 303.757 29.008C304.013 29.232 304.341 29.424 304.741 29.584C305.141 29.728 305.637 29.856 306.229 29.968L308.629 30.4C310.405 30.736 311.709 31.296 312.541 32.08C313.373 32.848 313.789 33.984 313.789 35.488C313.789 36.176 313.653 36.824 313.381 37.432C313.125 38.024 312.733 38.544 312.205 38.992C311.693 39.44 311.045 39.792 310.261 40.048C309.477 40.304 308.557 40.432 307.501 40.432C306.493 40.432 305.573 40.328 304.741 40.12C303.925 39.928 303.213 39.616 302.605 39.184C301.997 38.752 301.509 38.2 301.141 37.528C300.773 36.856 300.549 36.056 300.469 35.128H302.677Z" fill="white"/>
<rect x="0.5" y="0.5" width="346" height="61" rx="30.5" stroke="white" stroke-opacity="0.16"/>
<defs>
<clipPath id="clip0_711_74067">
<rect width="15.9664" height="15.9574" fill="white" transform="translate(43.1765 23.0215)"/>
</clipPath>
</defs>
</svg>
