<svg width="337" height="62" viewBox="0 0 337 62" fill="none" xmlns="http://www.w3.org/2000/svg">
<rect x="32" y="16" width="38" height="30" rx="15" fill="#BBDCD2"/>
<g clip-path="url(#clip0_711_74068)">
<path d="M55.6969 25.6431C55.4691 25.6431 55.2844 25.8276 55.2844 26.0553V28.5287C55.2844 28.7564 55.4691 28.941 55.6969 28.941H58.1717C58.3995 28.941 58.5842 28.7564 58.5842 28.5287C58.5841 26.935 57.2915 25.6431 55.6969 25.6431Z" fill="black"/>
<path d="M55.6969 29.7651C55.0135 29.7651 54.4595 29.2114 54.4595 28.5284V26.5093C52.8844 26.7332 51.7892 28.1909 52.0132 29.7651C52.2372 31.3393 53.6958 32.4339 55.2708 32.21C56.5396 32.0296 57.5366 31.0332 57.7171 29.7651H55.6969Z" fill="black"/>
<path d="M60.6464 38.8343H52.3971C52.1693 38.8343 51.9846 38.6497 51.9846 38.4221C51.9846 38.1944 52.1693 38.0098 52.3971 38.0098H60.2339V23.9939H52.3971C52.1693 23.9939 51.9846 23.8093 51.9846 23.5816C51.9846 23.354 52.1693 23.1694 52.3971 23.1694H60.6464C60.8742 23.1694 61.0589 23.354 61.0589 23.5817V38.4221C61.0589 38.6498 60.8742 38.8343 60.6464 38.8343Z" fill="black"/>
<path d="M58.1716 36.3611H52.3971C52.1693 36.3611 51.9846 36.1765 51.9846 35.9489C51.9846 35.7212 52.1693 35.5366 52.3971 35.5366H58.1716C58.3994 35.5366 58.5841 35.7212 58.5841 35.9489C58.5841 36.1766 58.3994 36.3611 58.1716 36.3611Z" fill="black"/>
<path d="M58.1716 33.8875H52.3971C52.1693 33.8875 51.9846 33.7029 51.9846 33.4752C51.9846 33.2476 52.1693 33.063 52.3971 33.063H58.1716C58.3994 33.063 58.5841 33.2476 58.5841 33.4752C58.5841 33.7029 58.3994 33.8875 58.1716 33.8875Z" fill="black"/>
<path fill-rule="evenodd" clip-rule="evenodd" d="M52.3047 21.527C52.4277 21.4996 52.5566 21.5299 52.6544 21.6094C52.7528 21.6879 52.8099 21.8069 52.8095 21.9326V40.071C52.8095 40.0919 52.8079 40.1128 52.8047 40.1334C52.7701 40.3585 52.5595 40.5128 52.3344 40.4782L41.6103 38.8293C41.4091 38.7984 41.2606 38.6254 41.2605 38.422V24.406C41.2587 24.2125 41.3919 24.0437 41.5806 24.0004L52.3047 21.527ZM44.5602 34.2997C44.5602 34.5274 44.7449 34.7119 44.9727 34.7119C45.2005 34.7119 45.3852 34.5274 45.3852 34.2996V32.2385H46.6226C47.7616 32.2385 48.6849 31.3156 48.6849 30.1773V29.3528C48.6849 28.2145 47.7616 27.2917 46.6226 27.2917H44.9727C44.7449 27.2917 44.5602 27.4763 44.5602 27.7039V34.2997ZM46.6226 31.414H45.3852V28.1162H46.6226C47.306 28.1162 47.86 28.6699 47.86 29.3529V30.1773C47.86 30.8604 47.306 31.414 46.6226 31.414Z" fill="black"/>
</g>
<path d="M87.876 22.864H90.084V33.208C90.084 34.984 90.412 36.312 91.068 37.192C91.74 38.072 92.844 38.512 94.38 38.512C95.932 38.512 97.028 38.072 97.668 37.192C98.308 36.296 98.628 34.968 98.628 33.208V22.864H100.836V33.208C100.836 34.488 100.684 35.584 100.38 36.496C100.092 37.392 99.668 38.136 99.108 38.728C98.564 39.32 97.884 39.752 97.068 40.024C96.268 40.296 95.364 40.432 94.356 40.432C92.292 40.432 90.692 39.856 89.556 38.704C88.436 37.552 87.876 35.688 87.876 33.112V22.864ZM103.947 22.864H109.683C110.947 22.864 111.987 23 112.803 23.272C113.635 23.544 114.283 23.912 114.747 24.376C115.227 24.84 115.555 25.384 115.731 26.008C115.923 26.616 116.019 27.264 116.019 27.952C116.019 28.672 115.923 29.36 115.731 30.016C115.539 30.672 115.203 31.248 114.723 31.744C114.243 32.24 113.595 32.632 112.779 32.92C111.963 33.208 110.931 33.352 109.683 33.352H106.131V40H103.947V22.864ZM109.659 31.48C110.491 31.48 111.179 31.4 111.723 31.24C112.267 31.08 112.691 30.848 112.995 30.544C113.299 30.24 113.507 29.88 113.619 29.464C113.747 29.032 113.811 28.552 113.811 28.024C113.811 27.48 113.747 27 113.619 26.584C113.491 26.168 113.267 25.824 112.947 25.552C112.627 25.28 112.195 25.08 111.651 24.952C111.123 24.808 110.451 24.736 109.635 24.736H106.131V31.48H109.659ZM118.491 22.864H124.491C125.739 22.864 126.851 23.04 127.827 23.392C128.819 23.728 129.651 24.248 130.323 24.952C131.011 25.656 131.539 26.536 131.907 27.592C132.275 28.648 132.459 29.888 132.459 31.312C132.459 32.752 132.259 34.016 131.859 35.104C131.475 36.192 130.915 37.096 130.179 37.816C129.443 38.536 128.547 39.08 127.491 39.448C126.435 39.816 125.251 40 123.939 40H118.491V22.864ZM124.035 38.08C126.163 38.08 127.715 37.488 128.691 36.304C129.667 35.104 130.155 33.456 130.155 31.36C130.155 30.32 130.043 29.392 129.819 28.576C129.611 27.76 129.275 27.072 128.811 26.512C128.363 25.936 127.779 25.504 127.059 25.216C126.339 24.912 125.483 24.76 124.491 24.76H120.699V38.08H124.035ZM139.34 22.864H141.668L148.316 40H145.916L144.116 35.224H136.772L134.972 40H132.668L139.34 22.864ZM143.444 33.304L140.42 25.36L137.444 33.304H143.444ZM151.801 24.832H146.137V22.864H159.697V24.832H154.033V40H151.801V24.832ZM161.535 22.864H172.623V24.808H163.743V30.184H172.143V32.152H163.743V38.056H173.079L172.719 40H161.535V22.864ZM180.169 22.864H182.905L188.425 37.36L194.041 22.864H196.681V40H194.641V26.488L189.265 40H187.465L182.185 26.536V40H180.169V22.864ZM199.986 22.864H211.074V24.808H202.194V30.184H210.594V32.152H202.194V38.056H211.53L211.17 40H199.986V22.864ZM213.756 22.864H219.756C221.004 22.864 222.116 23.04 223.092 23.392C224.084 23.728 224.916 24.248 225.588 24.952C226.276 25.656 226.804 26.536 227.172 27.592C227.54 28.648 227.724 29.888 227.724 31.312C227.724 32.752 227.524 34.016 227.124 35.104C226.74 36.192 226.18 37.096 225.444 37.816C224.708 38.536 223.812 39.08 222.756 39.448C221.7 39.816 220.516 40 219.204 40H213.756V22.864ZM219.3 38.08C221.428 38.08 222.98 37.488 223.956 36.304C224.932 35.104 225.42 33.456 225.42 31.36C225.42 30.32 225.308 29.392 225.084 28.576C224.876 27.76 224.54 27.072 224.076 26.512C223.628 25.936 223.044 25.504 222.324 25.216C221.604 24.912 220.748 24.76 219.756 24.76H215.964V38.08H219.3ZM230.409 22.864H232.617V40H230.409V22.864ZM240.969 22.864H243.297L249.945 40H247.545L245.745 35.224H238.401L236.601 40H234.297L240.969 22.864ZM245.073 33.304L242.049 25.36L239.073 33.304H245.073ZM256.484 22.864H258.716V31.072L266.756 22.864H269.276L263.156 29.272L269.9 40H267.356L261.548 30.736L258.716 33.568V40H256.484V22.864ZM271.614 22.864H273.822V40H271.614V22.864ZM281.334 24.832H275.67V22.864H289.23V24.832H283.566V40H281.334V24.832ZM292.55 35.128C292.742 36.328 293.214 37.2 293.966 37.744C294.734 38.272 295.87 38.536 297.374 38.536C298.126 38.536 298.75 38.456 299.246 38.296C299.758 38.12 300.166 37.896 300.47 37.624C300.774 37.336 300.99 37.008 301.118 36.64C301.246 36.256 301.31 35.856 301.31 35.44C301.31 35.104 301.27 34.784 301.19 34.48C301.11 34.16 300.95 33.872 300.71 33.616C300.486 33.36 300.166 33.136 299.75 32.944C299.35 32.752 298.83 32.6 298.19 32.488L296.03 32.104C295.182 31.96 294.43 31.768 293.774 31.528C293.118 31.288 292.558 30.984 292.094 30.616C291.646 30.232 291.302 29.76 291.062 29.2C290.838 28.64 290.726 27.96 290.726 27.16C290.726 26.376 290.886 25.688 291.206 25.096C291.542 24.504 291.99 24.008 292.55 23.608C293.11 23.208 293.774 22.912 294.542 22.72C295.31 22.528 296.142 22.432 297.038 22.432C298.174 22.432 299.118 22.56 299.87 22.816C300.638 23.056 301.262 23.384 301.742 23.8C302.222 24.216 302.582 24.696 302.822 25.24C303.078 25.768 303.27 26.312 303.398 26.872L301.334 27.28C301.206 26.8 301.038 26.376 300.83 26.008C300.638 25.624 300.374 25.312 300.038 25.072C299.718 24.816 299.318 24.624 298.838 24.496C298.358 24.368 297.774 24.304 297.086 24.304C296.302 24.304 295.646 24.376 295.118 24.52C294.59 24.664 294.166 24.864 293.846 25.12C293.526 25.36 293.294 25.656 293.15 26.008C293.022 26.344 292.958 26.704 292.958 27.088C292.958 27.504 293.006 27.872 293.102 28.192C293.214 28.496 293.39 28.768 293.63 29.008C293.886 29.232 294.214 29.424 294.614 29.584C295.014 29.728 295.51 29.856 296.102 29.968L298.502 30.4C300.278 30.736 301.582 31.296 302.414 32.08C303.246 32.848 303.662 33.984 303.662 35.488C303.662 36.176 303.526 36.824 303.254 37.432C302.998 38.024 302.606 38.544 302.078 38.992C301.566 39.44 300.918 39.792 300.134 40.048C299.35 40.304 298.43 40.432 297.374 40.432C296.366 40.432 295.446 40.328 294.614 40.12C293.798 39.928 293.086 39.616 292.478 39.184C291.87 38.752 291.382 38.2 291.014 37.528C290.646 36.856 290.422 36.056 290.342 35.128H292.55Z" fill="white"/>
<rect x="0.5" y="0.5" width="336" height="61" rx="30.5" stroke="white" stroke-opacity="0.16"/>
<defs>
<clipPath id="clip0_711_74068">
<rect width="19.7983" height="19.7872" fill="white" transform="translate(41.2605 21.1064)"/>
</clipPath>
</defs>
</svg>
