<svg width="309" height="62" viewBox="0 0 309 62" fill="none" xmlns="http://www.w3.org/2000/svg">
<rect x="32" y="16" width="38" height="30" rx="15" fill="#BBDCD2"/>
<g clip-path="url(#clip0_711_74069)">
<path d="M58.7145 26.7045C57.7304 26.7045 56.8224 26.3787 56.0933 25.829C55.257 25.1989 54.6562 24.2746 54.444 23.2092C54.3915 22.946 54.3632 22.6744 54.3605 22.396H51.5493V30.0732L51.5459 34.2784C51.5459 35.4026 50.8134 36.3559 49.798 36.6912C49.5033 36.7884 49.185 36.8346 48.8536 36.8164C48.4306 36.7932 48.0342 36.6656 47.6897 36.4596C46.9565 36.0213 46.4594 35.2263 46.4459 34.3168C46.4247 32.8953 47.5745 31.7364 48.9957 31.7364C49.2763 31.7364 49.5457 31.7822 49.798 31.8653V29.7669V29.0126C49.5319 28.9732 49.2611 28.9527 48.9873 28.9527C47.4317 28.9527 45.9768 29.599 44.9367 30.7633C44.1507 31.6431 43.6792 32.7657 43.6064 33.9428C43.5111 35.4892 44.0773 36.9591 45.1752 38.0436C45.3365 38.2028 45.5059 38.3506 45.6831 38.4869C46.6244 39.211 47.7752 39.6034 48.9873 39.6034C49.2611 39.6034 49.5319 39.5833 49.798 39.5439C50.9303 39.3762 51.975 38.8582 52.7995 38.0436C53.8125 37.0429 54.3723 35.7143 54.3783 34.3003L54.3639 28.0206C54.8472 28.3932 55.3756 28.7016 55.9427 28.9409C56.8248 29.3128 57.7601 29.5013 58.7226 29.501V27.4609V26.7038C58.7233 26.7045 58.7152 26.7045 58.7145 26.7045Z" fill="black"/>
</g>
<path d="M89.4085 35.128C89.6005 36.328 90.0725 37.2 90.8245 37.744C91.5925 38.272 92.7285 38.536 94.2325 38.536C94.9845 38.536 95.6085 38.456 96.1045 38.296C96.6165 38.12 97.0245 37.896 97.3285 37.624C97.6325 37.336 97.8485 37.008 97.9765 36.64C98.1045 36.256 98.1685 35.856 98.1685 35.44C98.1685 35.104 98.1285 34.784 98.0485 34.48C97.9685 34.16 97.8085 33.872 97.5685 33.616C97.3445 33.36 97.0245 33.136 96.6085 32.944C96.2085 32.752 95.6885 32.6 95.0485 32.488L92.8885 32.104C92.0405 31.96 91.2885 31.768 90.6325 31.528C89.9765 31.288 89.4165 30.984 88.9525 30.616C88.5045 30.232 88.1605 29.76 87.9205 29.2C87.6965 28.64 87.5845 27.96 87.5845 27.16C87.5845 26.376 87.7445 25.688 88.0645 25.096C88.4005 24.504 88.8485 24.008 89.4085 23.608C89.9685 23.208 90.6325 22.912 91.4005 22.72C92.1685 22.528 93.0005 22.432 93.8965 22.432C95.0325 22.432 95.9765 22.56 96.7285 22.816C97.4965 23.056 98.1205 23.384 98.6005 23.8C99.0805 24.216 99.4405 24.696 99.6805 25.24C99.9365 25.768 100.129 26.312 100.257 26.872L98.1925 27.28C98.0645 26.8 97.8965 26.376 97.6885 26.008C97.4965 25.624 97.2325 25.312 96.8965 25.072C96.5765 24.816 96.1765 24.624 95.6965 24.496C95.2165 24.368 94.6325 24.304 93.9445 24.304C93.1605 24.304 92.5045 24.376 91.9765 24.52C91.4485 24.664 91.0245 24.864 90.7045 25.12C90.3845 25.36 90.1525 25.656 90.0085 26.008C89.8805 26.344 89.8165 26.704 89.8165 27.088C89.8165 27.504 89.8645 27.872 89.9605 28.192C90.0725 28.496 90.2485 28.768 90.4885 29.008C90.7445 29.232 91.0725 29.424 91.4725 29.584C91.8725 29.728 92.3685 29.856 92.9605 29.968L95.3605 30.4C97.1365 30.736 98.4405 31.296 99.2725 32.08C100.105 32.848 100.521 33.984 100.521 35.488C100.521 36.176 100.385 36.824 100.113 37.432C99.8565 38.024 99.4645 38.544 98.9365 38.992C98.4245 39.44 97.7765 39.792 96.9925 40.048C96.2085 40.304 95.2885 40.432 94.2325 40.432C93.2245 40.432 92.3045 40.328 91.4725 40.12C90.6565 39.928 89.9445 39.616 89.3365 39.184C88.7285 38.752 88.2405 38.2 87.8725 37.528C87.5045 36.856 87.2805 36.056 87.2005 35.128H89.4085ZM103.102 22.864H114.19V24.808H105.31V30.184H113.71V32.152H105.31V38.056H114.646L114.286 40H103.102V22.864ZM116.872 22.864H119.056L127.768 36.472V22.864H129.904V40H127.792L119.008 26.464V40H116.872V22.864ZM133.221 22.864H139.221C140.469 22.864 141.581 23.04 142.557 23.392C143.549 23.728 144.381 24.248 145.053 24.952C145.741 25.656 146.269 26.536 146.637 27.592C147.005 28.648 147.189 29.888 147.189 31.312C147.189 32.752 146.989 34.016 146.589 35.104C146.205 36.192 145.645 37.096 144.909 37.816C144.173 38.536 143.277 39.08 142.221 39.448C141.165 39.816 139.981 40 138.669 40H133.221V22.864ZM138.765 38.08C140.893 38.08 142.445 37.488 143.421 36.304C144.397 35.104 144.885 33.456 144.885 31.36C144.885 30.32 144.773 29.392 144.549 28.576C144.341 27.76 144.005 27.072 143.541 26.512C143.093 25.936 142.509 25.504 141.789 25.216C141.069 24.912 140.213 24.76 139.221 24.76H135.429V38.08H138.765ZM159.777 22.864H162.105L168.753 40H166.353L164.553 35.224H157.209L155.409 40H153.105L159.777 22.864ZM163.881 33.304L160.857 25.36L157.881 33.304H163.881ZM170.429 22.864H172.613L181.325 36.472V22.864H183.461V40H181.349L172.565 26.464V40H170.429V22.864ZM191.817 22.864H194.145L200.793 40H198.393L196.593 35.224H189.249L187.449 40H185.145L191.817 22.864ZM195.921 33.304L192.897 25.36L189.921 33.304H195.921ZM202.469 22.864H204.677V38.032H213.557L213.221 40H202.469V22.864ZM216.389 32.728L210.413 22.864H212.957L217.493 30.784L222.149 22.864H224.477L218.621 32.728V40H216.389V32.728ZM231.045 24.832H225.381V22.864H238.941V24.832H233.277V40H231.045V24.832ZM240.779 22.864H242.987V40H240.779V22.864ZM260.339 34.36C260.243 35.224 260.027 36.032 259.691 36.784C259.355 37.52 258.899 38.16 258.323 38.704C257.747 39.248 257.043 39.672 256.211 39.976C255.395 40.28 254.443 40.432 253.355 40.432C252.171 40.432 251.107 40.232 250.163 39.832C249.219 39.432 248.419 38.848 247.763 38.08C247.107 37.312 246.595 36.376 246.227 35.272C245.875 34.152 245.699 32.88 245.699 31.456C245.699 30.016 245.891 28.736 246.275 27.616C246.659 26.496 247.195 25.552 247.883 24.784C248.571 24.016 249.379 23.432 250.307 23.032C251.251 22.632 252.267 22.432 253.355 22.432C254.411 22.432 255.323 22.568 256.091 22.84C256.859 23.112 257.507 23.496 258.035 23.992C258.579 24.488 259.011 25.08 259.331 25.768C259.667 26.456 259.923 27.216 260.099 28.048L257.939 28.408C257.795 27.784 257.603 27.224 257.363 26.728C257.139 26.216 256.843 25.784 256.475 25.432C256.123 25.08 255.691 24.816 255.179 24.64C254.683 24.448 254.075 24.352 253.355 24.352C252.507 24.352 251.747 24.528 251.075 24.88C250.419 25.216 249.859 25.696 249.395 26.32C248.947 26.928 248.603 27.672 248.363 28.552C248.123 29.416 248.003 30.376 248.003 31.432C248.003 32.488 248.123 33.456 248.363 34.336C248.603 35.2 248.947 35.944 249.395 36.568C249.859 37.192 250.419 37.672 251.075 38.008C251.747 38.344 252.515 38.512 253.379 38.512C254.163 38.512 254.827 38.416 255.371 38.224C255.931 38.016 256.387 37.728 256.739 37.36C257.107 36.992 257.395 36.552 257.603 36.04C257.811 35.528 257.963 34.968 258.059 34.36H260.339ZM264.458 35.128C264.65 36.328 265.122 37.2 265.874 37.744C266.642 38.272 267.778 38.536 269.282 38.536C270.034 38.536 270.658 38.456 271.154 38.296C271.666 38.12 272.074 37.896 272.378 37.624C272.682 37.336 272.898 37.008 273.026 36.64C273.154 36.256 273.218 35.856 273.218 35.44C273.218 35.104 273.178 34.784 273.098 34.48C273.018 34.16 272.858 33.872 272.618 33.616C272.394 33.36 272.074 33.136 271.658 32.944C271.258 32.752 270.738 32.6 270.098 32.488L267.938 32.104C267.09 31.96 266.338 31.768 265.682 31.528C265.026 31.288 264.466 30.984 264.002 30.616C263.554 30.232 263.21 29.76 262.97 29.2C262.746 28.64 262.634 27.96 262.634 27.16C262.634 26.376 262.794 25.688 263.114 25.096C263.45 24.504 263.898 24.008 264.458 23.608C265.018 23.208 265.682 22.912 266.45 22.72C267.218 22.528 268.05 22.432 268.946 22.432C270.082 22.432 271.026 22.56 271.778 22.816C272.546 23.056 273.17 23.384 273.65 23.8C274.13 24.216 274.49 24.696 274.73 25.24C274.986 25.768 275.178 26.312 275.306 26.872L273.242 27.28C273.114 26.8 272.946 26.376 272.738 26.008C272.546 25.624 272.282 25.312 271.946 25.072C271.626 24.816 271.226 24.624 270.746 24.496C270.266 24.368 269.682 24.304 268.994 24.304C268.21 24.304 267.554 24.376 267.026 24.52C266.498 24.664 266.074 24.864 265.754 25.12C265.434 25.36 265.202 25.656 265.058 26.008C264.93 26.344 264.866 26.704 264.866 27.088C264.866 27.504 264.914 27.872 265.01 28.192C265.122 28.496 265.298 28.768 265.538 29.008C265.794 29.232 266.122 29.424 266.522 29.584C266.922 29.728 267.418 29.856 268.01 29.968L270.41 30.4C272.186 30.736 273.49 31.296 274.322 32.08C275.154 32.848 275.57 33.984 275.57 35.488C275.57 36.176 275.434 36.824 275.162 37.432C274.906 38.024 274.514 38.544 273.986 38.992C273.474 39.44 272.826 39.792 272.042 40.048C271.258 40.304 270.338 40.432 269.282 40.432C268.274 40.432 267.354 40.328 266.522 40.12C265.706 39.928 264.994 39.616 264.386 39.184C263.778 38.752 263.29 38.2 262.922 37.528C262.554 36.856 262.33 36.056 262.25 35.128H264.458Z" fill="white"/>
<rect x="0.5" y="0.5" width="308" height="61" rx="30.5" stroke="white" stroke-opacity="0.16"/>
<defs>
<clipPath id="clip0_711_74069">
<rect width="17.2437" height="17.234" fill="white" transform="translate(42.5378 22.3828)"/>
</clipPath>
</defs>
</svg>
