<svg width="579" height="62" viewBox="0 0 579 62" fill="none" xmlns="http://www.w3.org/2000/svg">
<rect x="32" y="16" width="38" height="30" rx="15" fill="#BBDCD2"/>
<path d="M57.8016 37.6374V32.7749C57.8016 30.3851 57.2868 28.5596 54.4972 28.5596C53.1522 28.5596 52.2555 29.2898 51.8902 29.9868H51.857V28.7753H49.2168V37.6374H51.9732V33.2396C51.9732 32.0779 52.1891 30.966 53.6171 30.966C55.0286 30.966 55.0452 32.277 55.0452 33.306V37.6208H57.8016V37.6374Z" fill="black"/>
<path d="M44.7334 28.7754H47.4898V37.6375H44.7334V28.7754Z" fill="black"/>
<path d="M46.1117 24.3613C45.2316 24.3613 44.5176 25.0749 44.5176 25.9545C44.5176 26.8341 45.2316 27.5643 46.1117 27.5643C46.9917 27.5643 47.7057 26.8341 47.7057 25.9545C47.7057 25.0749 46.9917 24.3613 46.1117 24.3613Z" fill="black"/>
<path d="M89.4976 35.128C89.6896 36.328 90.1616 37.2 90.9136 37.744C91.6816 38.272 92.8176 38.536 94.3216 38.536C95.0736 38.536 95.6976 38.456 96.1936 38.296C96.7056 38.12 97.1136 37.896 97.4176 37.624C97.7216 37.336 97.9376 37.008 98.0656 36.64C98.1936 36.256 98.2576 35.856 98.2576 35.44C98.2576 35.104 98.2176 34.784 98.1376 34.48C98.0576 34.16 97.8976 33.872 97.6576 33.616C97.4336 33.36 97.1136 33.136 96.6976 32.944C96.2976 32.752 95.7776 32.6 95.1376 32.488L92.9776 32.104C92.1296 31.96 91.3776 31.768 90.7216 31.528C90.0656 31.288 89.5056 30.984 89.0416 30.616C88.5936 30.232 88.2496 29.76 88.0096 29.2C87.7856 28.64 87.6736 27.96 87.6736 27.16C87.6736 26.376 87.8336 25.688 88.1536 25.096C88.4896 24.504 88.9376 24.008 89.4976 23.608C90.0576 23.208 90.7216 22.912 91.4896 22.72C92.2576 22.528 93.0896 22.432 93.9856 22.432C95.1216 22.432 96.0656 22.56 96.8176 22.816C97.5856 23.056 98.2096 23.384 98.6896 23.8C99.1696 24.216 99.5296 24.696 99.7696 25.24C100.026 25.768 100.218 26.312 100.346 26.872L98.2816 27.28C98.1536 26.8 97.9856 26.376 97.7776 26.008C97.5856 25.624 97.3216 25.312 96.9856 25.072C96.6656 24.816 96.2656 24.624 95.7856 24.496C95.3056 24.368 94.7216 24.304 94.0336 24.304C93.2496 24.304 92.5936 24.376 92.0656 24.52C91.5376 24.664 91.1136 24.864 90.7936 25.12C90.4736 25.36 90.2416 25.656 90.0976 26.008C89.9696 26.344 89.9056 26.704 89.9056 27.088C89.9056 27.504 89.9536 27.872 90.0496 28.192C90.1616 28.496 90.3376 28.768 90.5776 29.008C90.8336 29.232 91.1616 29.424 91.5616 29.584C91.9616 29.728 92.4576 29.856 93.0496 29.968L95.4496 30.4C97.2256 30.736 98.5296 31.296 99.3616 32.08C100.194 32.848 100.61 33.984 100.61 35.488C100.61 36.176 100.474 36.824 100.202 37.432C99.9456 38.024 99.5536 38.544 99.0256 38.992C98.5136 39.44 97.8656 39.792 97.0816 40.048C96.2976 40.304 95.3776 40.432 94.3216 40.432C93.3136 40.432 92.3936 40.328 91.5616 40.12C90.7456 39.928 90.0336 39.616 89.4256 39.184C88.8176 38.752 88.3296 38.2 87.9616 37.528C87.5936 36.856 87.3696 36.056 87.2896 35.128H89.4976ZM103.191 22.864H114.279V24.808H105.399V30.184H113.799V32.152H105.399V38.056H114.735L114.375 40H103.191V22.864ZM122.353 22.864H124.681L131.329 40H128.929L127.129 35.224H119.785L117.985 40H115.681L122.353 22.864ZM126.457 33.304L123.433 25.36L120.457 33.304H126.457ZM133.005 22.864H138.621C139.901 22.864 140.949 23.008 141.765 23.296C142.581 23.584 143.221 23.96 143.685 24.424C144.165 24.872 144.493 25.384 144.669 25.96C144.845 26.536 144.933 27.12 144.933 27.712C144.933 28.8 144.701 29.728 144.237 30.496C143.789 31.264 143.045 31.864 142.005 32.296L145.605 40H143.133L139.893 32.824C139.685 32.856 139.461 32.88 139.221 32.896C138.981 32.896 138.765 32.896 138.573 32.896H135.189V40H133.005V22.864ZM138.837 31C139.605 31 140.237 30.928 140.733 30.784C141.229 30.624 141.621 30.408 141.909 30.136C142.197 29.848 142.397 29.504 142.509 29.104C142.621 28.704 142.677 28.256 142.677 27.76C142.677 27.28 142.613 26.856 142.485 26.488C142.357 26.12 142.133 25.808 141.813 25.552C141.509 25.28 141.093 25.08 140.565 24.952C140.037 24.808 139.365 24.736 138.549 24.736H135.189V31H138.837ZM161.495 34.36C161.399 35.224 161.183 36.032 160.847 36.784C160.511 37.52 160.055 38.16 159.479 38.704C158.903 39.248 158.199 39.672 157.367 39.976C156.551 40.28 155.599 40.432 154.511 40.432C153.327 40.432 152.263 40.232 151.319 39.832C150.375 39.432 149.575 38.848 148.919 38.08C148.263 37.312 147.751 36.376 147.383 35.272C147.031 34.152 146.855 32.88 146.855 31.456C146.855 30.016 147.047 28.736 147.431 27.616C147.815 26.496 148.351 25.552 149.039 24.784C149.727 24.016 150.535 23.432 151.463 23.032C152.407 22.632 153.423 22.432 154.511 22.432C155.567 22.432 156.479 22.568 157.247 22.84C158.015 23.112 158.663 23.496 159.191 23.992C159.735 24.488 160.167 25.08 160.487 25.768C160.823 26.456 161.079 27.216 161.255 28.048L159.095 28.408C158.951 27.784 158.759 27.224 158.519 26.728C158.295 26.216 157.999 25.784 157.631 25.432C157.279 25.08 156.847 24.816 156.335 24.64C155.839 24.448 155.231 24.352 154.511 24.352C153.663 24.352 152.903 24.528 152.231 24.88C151.575 25.216 151.015 25.696 150.551 26.32C150.103 26.928 149.759 27.672 149.519 28.552C149.279 29.416 149.159 30.376 149.159 31.432C149.159 32.488 149.279 33.456 149.519 34.336C149.759 35.2 150.103 35.944 150.551 36.568C151.015 37.192 151.575 37.672 152.231 38.008C152.903 38.344 153.671 38.512 154.535 38.512C155.319 38.512 155.983 38.416 156.527 38.224C157.087 38.016 157.543 37.728 157.895 37.36C158.263 36.992 158.551 36.552 158.759 36.04C158.967 35.528 159.119 34.968 159.215 34.36H161.495ZM164.014 22.864H166.222V30.112H174.886V22.864H177.094V40H174.886V32.176H166.222V40H164.014V22.864ZM185.272 22.864H187.48V38.032H196.36L196.024 40H185.272V22.864ZM198.269 22.864H200.477V40H198.269V22.864ZM203.789 22.864H205.973L214.685 36.472V22.864H216.821V40H214.709L205.925 26.464V40H203.789V22.864ZM220.137 22.864H222.369V31.072L230.409 22.864H232.929L226.809 29.272L233.553 40H231.009L225.201 30.736L222.369 33.568V40H220.137V22.864ZM235.266 22.864H246.354V24.808H237.474V30.184H245.874V32.152H237.474V38.056H246.81L246.45 40H235.266V22.864ZM249.036 22.864H255.036C256.284 22.864 257.396 23.04 258.372 23.392C259.364 23.728 260.196 24.248 260.868 24.952C261.556 25.656 262.084 26.536 262.452 27.592C262.82 28.648 263.004 29.888 263.004 31.312C263.004 32.752 262.804 34.016 262.404 35.104C262.02 36.192 261.46 37.096 260.724 37.816C259.988 38.536 259.092 39.08 258.036 39.448C256.98 39.816 255.796 40 254.484 40H249.036V22.864ZM254.58 38.08C256.708 38.08 258.26 37.488 259.236 36.304C260.212 35.104 260.7 33.456 260.7 31.36C260.7 30.32 260.588 29.392 260.364 28.576C260.156 27.76 259.82 27.072 259.356 26.512C258.908 25.936 258.324 25.504 257.604 25.216C256.884 24.912 256.028 24.76 255.036 24.76H251.244V38.08H254.58ZM265.689 22.864H267.897V40H265.689V22.864ZM271.209 22.864H273.393L282.105 36.472V22.864H284.241V40H282.129L273.345 26.464V40H271.209V22.864ZM292.421 22.864H303.053V24.808H294.629V30.424H302.525V32.416H294.629V40H292.421V22.864ZM312.55 40.432C311.382 40.432 310.31 40.24 309.334 39.856C308.374 39.456 307.542 38.88 306.838 38.128C306.15 37.36 305.614 36.416 305.23 35.296C304.846 34.176 304.654 32.896 304.654 31.456C304.654 30.016 304.846 28.736 305.23 27.616C305.63 26.496 306.174 25.552 306.862 24.784C307.566 24.016 308.398 23.432 309.358 23.032C310.334 22.632 311.398 22.432 312.55 22.432C313.718 22.432 314.782 22.632 315.742 23.032C316.718 23.416 317.55 23.992 318.238 24.76C318.926 25.512 319.462 26.448 319.846 27.568C320.23 28.672 320.422 29.944 320.422 31.384C320.422 32.824 320.23 34.112 319.846 35.248C319.478 36.368 318.95 37.312 318.262 38.08C317.574 38.848 316.742 39.432 315.766 39.832C314.806 40.232 313.734 40.432 312.55 40.432ZM312.55 38.512C313.462 38.512 314.262 38.344 314.95 38.008C315.654 37.672 316.238 37.2 316.702 36.592C317.166 35.968 317.518 35.224 317.758 34.36C317.998 33.48 318.118 32.504 318.118 31.432C318.118 30.376 317.998 29.416 317.758 28.552C317.518 27.672 317.158 26.92 316.678 26.296C316.214 25.672 315.638 25.192 314.95 24.856C314.262 24.52 313.462 24.352 312.55 24.352C311.622 24.352 310.806 24.52 310.102 24.856C309.414 25.192 308.83 25.672 308.35 26.296C307.886 26.92 307.534 27.672 307.294 28.552C307.07 29.416 306.958 30.376 306.958 31.432C306.958 32.504 307.07 33.48 307.294 34.36C307.534 35.224 307.886 35.968 308.35 36.592C308.814 37.2 309.39 37.672 310.078 38.008C310.782 38.344 311.606 38.512 312.55 38.512ZM323.125 22.864H328.741C330.021 22.864 331.069 23.008 331.885 23.296C332.701 23.584 333.341 23.96 333.805 24.424C334.285 24.872 334.613 25.384 334.789 25.96C334.965 26.536 335.053 27.12 335.053 27.712C335.053 28.8 334.821 29.728 334.357 30.496C333.909 31.264 333.165 31.864 332.125 32.296L335.725 40H333.253L330.013 32.824C329.805 32.856 329.581 32.88 329.341 32.896C329.101 32.896 328.885 32.896 328.693 32.896H325.309V40H323.125V22.864ZM328.957 31C329.725 31 330.357 30.928 330.853 30.784C331.349 30.624 331.741 30.408 332.029 30.136C332.317 29.848 332.517 29.504 332.629 29.104C332.741 28.704 332.797 28.256 332.797 27.76C332.797 27.28 332.733 26.856 332.605 26.488C332.477 26.12 332.253 25.808 331.933 25.552C331.629 25.28 331.213 25.08 330.685 24.952C330.157 24.808 329.485 24.736 328.669 24.736H325.309V31H328.957ZM342.673 22.864H348.361C349.577 22.864 350.577 22.984 351.361 23.224C352.145 23.448 352.761 23.76 353.209 24.16C353.673 24.544 353.993 25.008 354.169 25.552C354.345 26.08 354.433 26.648 354.433 27.256C354.433 28.04 354.249 28.744 353.881 29.368C353.529 29.992 352.905 30.512 352.009 30.928C352.585 31.152 353.057 31.416 353.425 31.72C353.809 32.008 354.113 32.336 354.337 32.704C354.577 33.056 354.737 33.432 354.817 33.832C354.913 34.216 354.961 34.616 354.961 35.032C354.961 35.736 354.849 36.392 354.625 37C354.417 37.592 354.073 38.112 353.593 38.56C353.113 39.008 352.481 39.36 351.697 39.616C350.913 39.872 349.945 40 348.793 40H342.673V22.864ZM348.649 30.112C349.945 30.112 350.873 29.88 351.433 29.416C351.993 28.936 352.273 28.24 352.273 27.328C352.273 26.4 351.969 25.728 351.361 25.312C350.769 24.896 349.745 24.688 348.289 24.688H344.833V30.112H348.649ZM348.721 38.176C349.505 38.176 350.153 38.104 350.665 37.96C351.193 37.816 351.609 37.616 351.913 37.36C352.233 37.088 352.449 36.768 352.561 36.4C352.689 36.016 352.753 35.584 352.753 35.104C352.753 34.096 352.457 33.328 351.865 32.8C351.273 32.256 350.281 31.984 348.889 31.984H344.833V38.176H348.721ZM357.357 22.864H362.973C364.253 22.864 365.301 23.008 366.117 23.296C366.933 23.584 367.573 23.96 368.037 24.424C368.517 24.872 368.845 25.384 369.021 25.96C369.197 26.536 369.285 27.12 369.285 27.712C369.285 28.8 369.053 29.728 368.589 30.496C368.141 31.264 367.397 31.864 366.357 32.296L369.957 40H367.485L364.245 32.824C364.037 32.856 363.813 32.88 363.573 32.896C363.333 32.896 363.117 32.896 362.925 32.896H359.541V40H357.357V22.864ZM363.189 31C363.957 31 364.589 30.928 365.085 30.784C365.581 30.624 365.973 30.408 366.261 30.136C366.549 29.848 366.749 29.504 366.861 29.104C366.973 28.704 367.029 28.256 367.029 27.76C367.029 27.28 366.965 26.856 366.837 26.488C366.709 26.12 366.485 25.808 366.165 25.552C365.861 25.28 365.445 25.08 364.917 24.952C364.389 24.808 363.717 24.736 362.901 24.736H359.541V31H363.189ZM377.433 22.864H379.761L386.409 40H384.009L382.209 35.224H374.865L373.065 40H370.761L377.433 22.864ZM381.537 33.304L378.513 25.36L375.537 33.304H381.537ZM388.085 22.864H390.269L398.981 36.472V22.864H401.117V40H399.005L390.221 26.464V40H388.085V22.864ZM404.433 22.864H410.433C411.681 22.864 412.793 23.04 413.769 23.392C414.761 23.728 415.593 24.248 416.265 24.952C416.953 25.656 417.481 26.536 417.849 27.592C418.217 28.648 418.401 29.888 418.401 31.312C418.401 32.752 418.201 34.016 417.801 35.104C417.417 36.192 416.857 37.096 416.121 37.816C415.385 38.536 414.489 39.08 413.433 39.448C412.377 39.816 411.193 40 409.881 40H404.433V22.864ZM409.977 38.08C412.105 38.08 413.657 37.488 414.633 36.304C415.609 35.104 416.097 33.456 416.097 31.36C416.097 30.32 415.985 29.392 415.761 28.576C415.553 27.76 415.217 27.072 414.753 26.512C414.305 25.936 413.721 25.504 413.001 25.216C412.281 24.912 411.425 24.76 410.433 24.76H406.641V38.08H409.977ZM439.989 34.36C439.893 35.224 439.677 36.032 439.341 36.784C439.005 37.52 438.549 38.16 437.973 38.704C437.397 39.248 436.693 39.672 435.861 39.976C435.045 40.28 434.093 40.432 433.005 40.432C431.821 40.432 430.757 40.232 429.813 39.832C428.869 39.432 428.069 38.848 427.413 38.08C426.757 37.312 426.245 36.376 425.877 35.272C425.525 34.152 425.349 32.88 425.349 31.456C425.349 30.016 425.541 28.736 425.925 27.616C426.309 26.496 426.845 25.552 427.533 24.784C428.221 24.016 429.029 23.432 429.957 23.032C430.901 22.632 431.917 22.432 433.005 22.432C434.061 22.432 434.973 22.568 435.741 22.84C436.509 23.112 437.157 23.496 437.685 23.992C438.229 24.488 438.661 25.08 438.981 25.768C439.317 26.456 439.573 27.216 439.749 28.048L437.589 28.408C437.445 27.784 437.253 27.224 437.013 26.728C436.789 26.216 436.493 25.784 436.125 25.432C435.773 25.08 435.341 24.816 434.829 24.64C434.333 24.448 433.725 24.352 433.005 24.352C432.157 24.352 431.397 24.528 430.725 24.88C430.069 25.216 429.509 25.696 429.045 26.32C428.597 26.928 428.253 27.672 428.013 28.552C427.773 29.416 427.653 30.376 427.653 31.432C427.653 32.488 427.773 33.456 428.013 34.336C428.253 35.2 428.597 35.944 429.045 36.568C429.509 37.192 430.069 37.672 430.725 38.008C431.397 38.344 432.165 38.512 433.029 38.512C433.813 38.512 434.477 38.416 435.021 38.224C435.581 38.016 436.037 37.728 436.389 37.36C436.757 36.992 437.045 36.552 437.253 36.04C437.461 35.528 437.613 34.968 437.709 34.36H439.989ZM449.804 40.432C448.636 40.432 447.564 40.24 446.588 39.856C445.628 39.456 444.796 38.88 444.092 38.128C443.404 37.36 442.868 36.416 442.484 35.296C442.1 34.176 441.908 32.896 441.908 31.456C441.908 30.016 442.1 28.736 442.484 27.616C442.884 26.496 443.428 25.552 444.116 24.784C444.82 24.016 445.652 23.432 446.612 23.032C447.588 22.632 448.652 22.432 449.804 22.432C450.972 22.432 452.036 22.632 452.996 23.032C453.972 23.416 454.804 23.992 455.492 24.76C456.18 25.512 456.716 26.448 457.1 27.568C457.484 28.672 457.676 29.944 457.676 31.384C457.676 32.824 457.484 34.112 457.1 35.248C456.732 36.368 456.204 37.312 455.516 38.08C454.828 38.848 453.996 39.432 453.02 39.832C452.06 40.232 450.988 40.432 449.804 40.432ZM449.804 38.512C450.716 38.512 451.516 38.344 452.204 38.008C452.908 37.672 453.492 37.2 453.956 36.592C454.42 35.968 454.772 35.224 455.012 34.36C455.252 33.48 455.372 32.504 455.372 31.432C455.372 30.376 455.252 29.416 455.012 28.552C454.772 27.672 454.412 26.92 453.932 26.296C453.468 25.672 452.892 25.192 452.204 24.856C451.516 24.52 450.716 24.352 449.804 24.352C448.876 24.352 448.06 24.52 447.356 24.856C446.668 25.192 446.084 25.672 445.604 26.296C445.14 26.92 444.788 27.672 444.548 28.552C444.324 29.416 444.212 30.376 444.212 31.432C444.212 32.504 444.324 33.48 444.548 34.36C444.788 35.224 445.14 35.968 445.604 36.592C446.068 37.2 446.644 37.672 447.332 38.008C448.036 38.344 448.86 38.512 449.804 38.512ZM460.38 22.864H462.564L471.276 36.472V22.864H473.412V40H471.3L462.516 26.464V40H460.38V22.864ZM480.928 24.832H475.264V22.864H488.824V24.832H483.16V40H480.928V24.832ZM493.311 22.864H495.639L502.287 40H499.887L498.087 35.224H490.743L488.943 40H486.639L493.311 22.864ZM497.415 33.304L494.391 25.36L491.415 33.304H497.415ZM517.16 34.36C517.064 35.224 516.848 36.032 516.512 36.784C516.176 37.52 515.72 38.16 515.144 38.704C514.568 39.248 513.864 39.672 513.032 39.976C512.216 40.28 511.264 40.432 510.176 40.432C508.992 40.432 507.928 40.232 506.984 39.832C506.04 39.432 505.24 38.848 504.584 38.08C503.928 37.312 503.416 36.376 503.048 35.272C502.696 34.152 502.52 32.88 502.52 31.456C502.52 30.016 502.712 28.736 503.096 27.616C503.48 26.496 504.016 25.552 504.704 24.784C505.392 24.016 506.2 23.432 507.128 23.032C508.072 22.632 509.088 22.432 510.176 22.432C511.232 22.432 512.144 22.568 512.912 22.84C513.68 23.112 514.328 23.496 514.856 23.992C515.4 24.488 515.832 25.08 516.152 25.768C516.488 26.456 516.744 27.216 516.92 28.048L514.76 28.408C514.616 27.784 514.424 27.224 514.184 26.728C513.96 26.216 513.664 25.784 513.296 25.432C512.944 25.08 512.512 24.816 512 24.64C511.504 24.448 510.896 24.352 510.176 24.352C509.328 24.352 508.568 24.528 507.896 24.88C507.24 25.216 506.68 25.696 506.216 26.32C505.768 26.928 505.424 27.672 505.184 28.552C504.944 29.416 504.824 30.376 504.824 31.432C504.824 32.488 504.944 33.456 505.184 34.336C505.424 35.2 505.768 35.944 506.216 36.568C506.68 37.192 507.24 37.672 507.896 38.008C508.568 38.344 509.336 38.512 510.2 38.512C510.984 38.512 511.648 38.416 512.192 38.224C512.752 38.016 513.208 37.728 513.56 37.36C513.928 36.992 514.216 36.552 514.424 36.04C514.632 35.528 514.784 34.968 514.88 34.36H517.16ZM523.152 24.832H517.488V22.864H531.048V24.832H525.384V40H523.152V24.832ZM534.369 35.128C534.561 36.328 535.033 37.2 535.785 37.744C536.553 38.272 537.689 38.536 539.193 38.536C539.945 38.536 540.569 38.456 541.065 38.296C541.577 38.12 541.985 37.896 542.289 37.624C542.593 37.336 542.809 37.008 542.937 36.64C543.065 36.256 543.129 35.856 543.129 35.44C543.129 35.104 543.089 34.784 543.009 34.48C542.929 34.16 542.769 33.872 542.529 33.616C542.305 33.36 541.985 33.136 541.569 32.944C541.169 32.752 540.649 32.6 540.009 32.488L537.849 32.104C537.001 31.96 536.249 31.768 535.593 31.528C534.937 31.288 534.377 30.984 533.913 30.616C533.465 30.232 533.121 29.76 532.881 29.2C532.657 28.64 532.545 27.96 532.545 27.16C532.545 26.376 532.705 25.688 533.025 25.096C533.361 24.504 533.809 24.008 534.369 23.608C534.929 23.208 535.593 22.912 536.361 22.72C537.129 22.528 537.961 22.432 538.857 22.432C539.993 22.432 540.937 22.56 541.689 22.816C542.457 23.056 543.081 23.384 543.561 23.8C544.041 24.216 544.401 24.696 544.641 25.24C544.897 25.768 545.089 26.312 545.217 26.872L543.153 27.28C543.025 26.8 542.857 26.376 542.649 26.008C542.457 25.624 542.193 25.312 541.857 25.072C541.537 24.816 541.137 24.624 540.657 24.496C540.177 24.368 539.593 24.304 538.905 24.304C538.121 24.304 537.465 24.376 536.937 24.52C536.409 24.664 535.985 24.864 535.665 25.12C535.345 25.36 535.113 25.656 534.969 26.008C534.841 26.344 534.777 26.704 534.777 27.088C534.777 27.504 534.825 27.872 534.921 28.192C535.033 28.496 535.209 28.768 535.449 29.008C535.705 29.232 536.033 29.424 536.433 29.584C536.833 29.728 537.329 29.856 537.921 29.968L540.321 30.4C542.097 30.736 543.401 31.296 544.233 32.08C545.065 32.848 545.481 33.984 545.481 35.488C545.481 36.176 545.345 36.824 545.073 37.432C544.817 38.024 544.425 38.544 543.897 38.992C543.385 39.44 542.737 39.792 541.953 40.048C541.169 40.304 540.249 40.432 539.193 40.432C538.185 40.432 537.265 40.328 536.433 40.12C535.617 39.928 534.905 39.616 534.297 39.184C533.689 38.752 533.201 38.2 532.833 37.528C532.465 36.856 532.241 36.056 532.161 35.128H534.369Z" fill="white"/>
<rect x="0.5" y="0.5" width="578" height="61" rx="30.5" stroke="white" stroke-opacity="0.16"/>
</svg>
