<svg width="349" height="62" viewBox="0 0 349 62" fill="none" xmlns="http://www.w3.org/2000/svg">
<rect x="32" y="16" width="38" height="30" rx="15" fill="#BBDCD2"/>
<path opacity="0.8" d="M57.9651 22.4622C58.0458 22.4622 58.0458 22.5426 57.9651 22.622L54.9227 30.1931C55.0034 30.0333 55.0831 29.8735 55.0831 29.6354C55.0831 29.3157 54.9227 28.9179 54.6827 28.6787C54.362 28.3601 54.0424 28.2003 53.642 28.2003H49.2383L51.5607 22.3828H57.8854C57.8854 22.3828 57.9651 22.3828 57.9651 22.4622Z" fill="black"/>
<path d="M59.8064 34.0982C59.8871 34.1775 59.8871 34.2569 59.8064 34.2569L57.6454 39.8352C57.5647 39.9157 57.5647 39.9157 57.4851 39.9157H44.7548C44.7548 39.9157 44.6752 39.9157 44.6752 39.8352C44.5945 39.8352 44.5945 39.7558 44.5945 39.6765L49.2382 28.2002H53.642C54.4427 28.2002 55.083 28.8384 55.083 29.6353C55.083 29.8733 55.0034 30.0332 54.9226 30.193V30.2724L53.4816 33.859C53.4816 33.9383 53.4816 33.9383 53.4816 34.0177C53.5612 34.0177 53.5612 34.0982 53.642 34.0982H59.7267H59.8064Z" fill="black"/>
<path opacity="0.4" d="M51.5607 22.3828L49.2383 28.2003H42.9135C42.8328 28.2003 42.8328 28.2003 42.7532 28.2003C42.7532 28.121 42.7532 28.0416 42.7532 28.0416L44.9949 22.4622C44.9949 22.3828 45.0745 22.3828 45.1552 22.3828H51.5607Z" fill="black"/>
<path d="M88.0507 22.864H93.6667C94.9467 22.864 95.9947 23.008 96.8107 23.296C97.6267 23.584 98.2667 23.96 98.7307 24.424C99.2107 24.872 99.5387 25.384 99.7147 25.96C99.8907 26.536 99.9787 27.12 99.9787 27.712C99.9787 28.8 99.7467 29.728 99.2827 30.496C98.8347 31.264 98.0907 31.864 97.0507 32.296L100.651 40H98.1787L94.9387 32.824C94.7307 32.856 94.5067 32.88 94.2667 32.896C94.0267 32.896 93.8107 32.896 93.6187 32.896H90.2347V40H88.0507V22.864ZM93.8827 31C94.6507 31 95.2827 30.928 95.7787 30.784C96.2747 30.624 96.6667 30.408 96.9547 30.136C97.2427 29.848 97.4427 29.504 97.5547 29.104C97.6667 28.704 97.7227 28.256 97.7227 27.76C97.7227 27.28 97.6587 26.856 97.5307 26.488C97.4027 26.12 97.1787 25.808 96.8587 25.552C96.5547 25.28 96.1387 25.08 95.6107 24.952C95.0827 24.808 94.4107 24.736 93.5947 24.736H90.2347V31H93.8827ZM102.735 22.864H113.823V24.808H104.943V30.184H113.343V32.152H104.943V38.056H114.279L113.919 40H102.735V22.864ZM115.272 22.864H117.768L122.976 37.144L128.28 22.864H130.656L124.08 40H121.848L115.272 22.864ZM132.361 22.864H134.569V40H132.361V22.864ZM137.881 22.864H148.969V24.808H140.089V30.184H148.489V32.152H140.089V38.056H149.425L149.065 40H137.881V22.864ZM150.394 22.864H152.89L156.466 36.952L160.186 22.936H162.562L166.258 36.952L169.81 22.864H172.162L167.41 40H165.082L161.266 25.672L157.522 40H155.266L150.394 22.864ZM192.762 34.36C192.666 35.224 192.45 36.032 192.114 36.784C191.778 37.52 191.322 38.16 190.746 38.704C190.17 39.248 189.466 39.672 188.634 39.976C187.818 40.28 186.866 40.432 185.778 40.432C184.594 40.432 183.53 40.232 182.586 39.832C181.642 39.432 180.842 38.848 180.186 38.08C179.53 37.312 179.018 36.376 178.65 35.272C178.298 34.152 178.122 32.88 178.122 31.456C178.122 30.016 178.314 28.736 178.698 27.616C179.082 26.496 179.618 25.552 180.306 24.784C180.994 24.016 181.802 23.432 182.73 23.032C183.674 22.632 184.69 22.432 185.778 22.432C186.834 22.432 187.746 22.568 188.514 22.84C189.282 23.112 189.93 23.496 190.458 23.992C191.002 24.488 191.434 25.08 191.754 25.768C192.09 26.456 192.346 27.216 192.522 28.048L190.362 28.408C190.218 27.784 190.026 27.224 189.786 26.728C189.562 26.216 189.266 25.784 188.898 25.432C188.546 25.08 188.114 24.816 187.602 24.64C187.106 24.448 186.498 24.352 185.778 24.352C184.93 24.352 184.17 24.528 183.498 24.88C182.842 25.216 182.282 25.696 181.818 26.32C181.37 26.928 181.026 27.672 180.786 28.552C180.546 29.416 180.426 30.376 180.426 31.432C180.426 32.488 180.546 33.456 180.786 34.336C181.026 35.2 181.37 35.944 181.818 36.568C182.282 37.192 182.842 37.672 183.498 38.008C184.17 38.344 184.938 38.512 185.802 38.512C186.586 38.512 187.25 38.416 187.794 38.224C188.354 38.016 188.81 37.728 189.162 37.36C189.53 36.992 189.818 36.552 190.026 36.04C190.234 35.528 190.386 34.968 190.482 34.36H192.762ZM202.577 40.432C201.409 40.432 200.337 40.24 199.361 39.856C198.401 39.456 197.569 38.88 196.865 38.128C196.177 37.36 195.641 36.416 195.257 35.296C194.873 34.176 194.681 32.896 194.681 31.456C194.681 30.016 194.873 28.736 195.257 27.616C195.657 26.496 196.201 25.552 196.889 24.784C197.593 24.016 198.425 23.432 199.385 23.032C200.361 22.632 201.425 22.432 202.577 22.432C203.745 22.432 204.809 22.632 205.769 23.032C206.745 23.416 207.577 23.992 208.265 24.76C208.953 25.512 209.489 26.448 209.873 27.568C210.257 28.672 210.449 29.944 210.449 31.384C210.449 32.824 210.257 34.112 209.873 35.248C209.505 36.368 208.977 37.312 208.289 38.08C207.601 38.848 206.769 39.432 205.793 39.832C204.833 40.232 203.761 40.432 202.577 40.432ZM202.577 38.512C203.489 38.512 204.289 38.344 204.977 38.008C205.681 37.672 206.265 37.2 206.729 36.592C207.193 35.968 207.545 35.224 207.785 34.36C208.025 33.48 208.145 32.504 208.145 31.432C208.145 30.376 208.025 29.416 207.785 28.552C207.545 27.672 207.185 26.92 206.705 26.296C206.241 25.672 205.665 25.192 204.977 24.856C204.289 24.52 203.489 24.352 202.577 24.352C201.649 24.352 200.833 24.52 200.129 24.856C199.441 25.192 198.857 25.672 198.377 26.296C197.913 26.92 197.561 27.672 197.321 28.552C197.097 29.416 196.985 30.376 196.985 31.432C196.985 32.504 197.097 33.48 197.321 34.36C197.561 35.224 197.913 35.968 198.377 36.592C198.841 37.2 199.417 37.672 200.105 38.008C200.809 38.344 201.633 38.512 202.577 38.512ZM213.153 22.864H215.337L224.049 36.472V22.864H226.185V40H224.073L215.289 26.464V40H213.153V22.864ZM233.701 24.832H228.037V22.864H241.597V24.832H235.933V40H233.701V24.832ZM243.435 22.864H249.051C250.331 22.864 251.379 23.008 252.195 23.296C253.011 23.584 253.651 23.96 254.115 24.424C254.595 24.872 254.923 25.384 255.099 25.96C255.275 26.536 255.363 27.12 255.363 27.712C255.363 28.8 255.131 29.728 254.667 30.496C254.219 31.264 253.475 31.864 252.435 32.296L256.035 40H253.563L250.323 32.824C250.115 32.856 249.891 32.88 249.651 32.896C249.411 32.896 249.195 32.896 249.003 32.896H245.619V40H243.435V22.864ZM249.267 31C250.035 31 250.667 30.928 251.163 30.784C251.659 30.624 252.051 30.408 252.339 30.136C252.627 29.848 252.827 29.504 252.939 29.104C253.051 28.704 253.107 28.256 253.107 27.76C253.107 27.28 253.043 26.856 252.915 26.488C252.787 26.12 252.563 25.808 252.243 25.552C251.939 25.28 251.523 25.08 250.995 24.952C250.467 24.808 249.795 24.736 248.979 24.736H245.619V31H249.267ZM263.51 22.864H265.838L272.486 40H270.086L268.286 35.224H260.942L259.142 40H256.838L263.51 22.864ZM267.614 33.304L264.59 25.36L261.614 33.304H267.614ZM287.358 34.36C287.262 35.224 287.046 36.032 286.71 36.784C286.374 37.52 285.918 38.16 285.342 38.704C284.766 39.248 284.062 39.672 283.23 39.976C282.414 40.28 281.462 40.432 280.374 40.432C279.19 40.432 278.126 40.232 277.182 39.832C276.238 39.432 275.438 38.848 274.782 38.08C274.126 37.312 273.614 36.376 273.246 35.272C272.894 34.152 272.718 32.88 272.718 31.456C272.718 30.016 272.91 28.736 273.294 27.616C273.678 26.496 274.214 25.552 274.902 24.784C275.59 24.016 276.398 23.432 277.326 23.032C278.27 22.632 279.286 22.432 280.374 22.432C281.43 22.432 282.342 22.568 283.11 22.84C283.878 23.112 284.526 23.496 285.054 23.992C285.598 24.488 286.03 25.08 286.35 25.768C286.686 26.456 286.942 27.216 287.118 28.048L284.958 28.408C284.814 27.784 284.622 27.224 284.382 26.728C284.158 26.216 283.862 25.784 283.494 25.432C283.142 25.08 282.71 24.816 282.198 24.64C281.702 24.448 281.094 24.352 280.374 24.352C279.526 24.352 278.766 24.528 278.094 24.88C277.438 25.216 276.878 25.696 276.414 26.32C275.966 26.928 275.622 27.672 275.382 28.552C275.142 29.416 275.022 30.376 275.022 31.432C275.022 32.488 275.142 33.456 275.382 34.336C275.622 35.2 275.966 35.944 276.414 36.568C276.878 37.192 277.438 37.672 278.094 38.008C278.766 38.344 279.534 38.512 280.398 38.512C281.182 38.512 281.846 38.416 282.39 38.224C282.95 38.016 283.406 37.728 283.758 37.36C284.126 36.992 284.414 36.552 284.622 36.04C284.83 35.528 284.982 34.968 285.078 34.36H287.358ZM293.351 24.832H287.687V22.864H301.247V24.832H295.583V40H293.351V24.832ZM304.567 35.128C304.759 36.328 305.231 37.2 305.983 37.744C306.751 38.272 307.887 38.536 309.391 38.536C310.143 38.536 310.767 38.456 311.263 38.296C311.775 38.12 312.183 37.896 312.487 37.624C312.791 37.336 313.007 37.008 313.135 36.64C313.263 36.256 313.327 35.856 313.327 35.44C313.327 35.104 313.287 34.784 313.207 34.48C313.127 34.16 312.967 33.872 312.727 33.616C312.503 33.36 312.183 33.136 311.767 32.944C311.367 32.752 310.847 32.6 310.207 32.488L308.047 32.104C307.199 31.96 306.447 31.768 305.791 31.528C305.135 31.288 304.575 30.984 304.111 30.616C303.663 30.232 303.319 29.76 303.079 29.2C302.855 28.64 302.743 27.96 302.743 27.16C302.743 26.376 302.903 25.688 303.223 25.096C303.559 24.504 304.007 24.008 304.567 23.608C305.127 23.208 305.791 22.912 306.559 22.72C307.327 22.528 308.159 22.432 309.055 22.432C310.191 22.432 311.135 22.56 311.887 22.816C312.655 23.056 313.279 23.384 313.759 23.8C314.239 24.216 314.599 24.696 314.839 25.24C315.095 25.768 315.287 26.312 315.415 26.872L313.351 27.28C313.223 26.8 313.055 26.376 312.847 26.008C312.655 25.624 312.391 25.312 312.055 25.072C311.735 24.816 311.335 24.624 310.855 24.496C310.375 24.368 309.791 24.304 309.103 24.304C308.319 24.304 307.663 24.376 307.135 24.52C306.607 24.664 306.183 24.864 305.863 25.12C305.543 25.36 305.311 25.656 305.167 26.008C305.039 26.344 304.975 26.704 304.975 27.088C304.975 27.504 305.023 27.872 305.119 28.192C305.231 28.496 305.407 28.768 305.647 29.008C305.903 29.232 306.231 29.424 306.631 29.584C307.031 29.728 307.527 29.856 308.119 29.968L310.519 30.4C312.295 30.736 313.599 31.296 314.431 32.08C315.263 32.848 315.679 33.984 315.679 35.488C315.679 36.176 315.543 36.824 315.271 37.432C315.015 38.024 314.623 38.544 314.095 38.992C313.583 39.44 312.935 39.792 312.151 40.048C311.367 40.304 310.447 40.432 309.391 40.432C308.383 40.432 307.463 40.328 306.631 40.12C305.815 39.928 305.103 39.616 304.495 39.184C303.887 38.752 303.399 38.2 303.031 37.528C302.663 36.856 302.439 36.056 302.359 35.128H304.567Z" fill="white"/>
<rect x="0.5" y="0.5" width="348" height="61" rx="30.5" stroke="white" stroke-opacity="0.16"/>
</svg>
