<svg width="475" height="62" viewBox="0 0 475 62" fill="none" xmlns="http://www.w3.org/2000/svg">
<rect x="32" y="16" width="38" height="30" rx="15" fill="#BBDCD2"/>
<g clip-path="url(#clip0_711_74074)">
<path d="M50.9098 22.6787C46.245 22.6787 42.463 26.1779 42.463 30.495C42.463 32.9548 43.691 35.1486 45.6105 36.5816L45.6105 39.5627L48.4866 37.9851C49.2542 38.1972 50.0672 38.3123 50.9098 38.3123C55.5745 38.3122 59.3565 34.813 59.3565 30.496C59.3565 26.179 55.5745 22.6787 50.9098 22.6787ZM51.7492 33.2048L49.5984 30.9118L45.4014 33.2048L50.0186 28.3064L52.2222 30.5994L56.3664 28.3063L51.7492 33.2048Z" fill="black"/>
</g>
<path d="M88.0249 22.864H93.6409C94.9209 22.864 95.9689 23.008 96.7849 23.296C97.6009 23.584 98.2409 23.96 98.7049 24.424C99.1849 24.872 99.5129 25.384 99.6889 25.96C99.8649 26.536 99.9529 27.12 99.9529 27.712C99.9529 28.8 99.7209 29.728 99.2569 30.496C98.8089 31.264 98.0649 31.864 97.0249 32.296L100.625 40H98.1529L94.9129 32.824C94.7049 32.856 94.4809 32.88 94.2409 32.896C94.0009 32.896 93.7849 32.896 93.5929 32.896H90.2089V40H88.0249V22.864ZM93.8569 31C94.6249 31 95.2569 30.928 95.7529 30.784C96.2489 30.624 96.6409 30.408 96.9289 30.136C97.2169 29.848 97.4169 29.504 97.5289 29.104C97.6409 28.704 97.6969 28.256 97.6969 27.76C97.6969 27.28 97.6329 26.856 97.5049 26.488C97.3769 26.12 97.1529 25.808 96.8329 25.552C96.5289 25.28 96.1129 25.08 95.5849 24.952C95.0569 24.808 94.3849 24.736 93.5689 24.736H90.2089V31H93.8569ZM102.709 22.864H113.797V24.808H104.917V30.184H113.317V32.152H104.917V38.056H114.253L113.893 40H102.709V22.864ZM116.479 22.864H122.215C123.479 22.864 124.519 23 125.335 23.272C126.167 23.544 126.815 23.912 127.279 24.376C127.759 24.84 128.087 25.384 128.263 26.008C128.455 26.616 128.551 27.264 128.551 27.952C128.551 28.672 128.455 29.36 128.263 30.016C128.071 30.672 127.735 31.248 127.255 31.744C126.775 32.24 126.127 32.632 125.311 32.92C124.495 33.208 123.463 33.352 122.215 33.352H118.663V40H116.479V22.864ZM122.191 31.48C123.023 31.48 123.711 31.4 124.255 31.24C124.799 31.08 125.223 30.848 125.527 30.544C125.831 30.24 126.039 29.88 126.151 29.464C126.279 29.032 126.343 28.552 126.343 28.024C126.343 27.48 126.279 27 126.151 26.584C126.023 26.168 125.799 25.824 125.479 25.552C125.159 25.28 124.727 25.08 124.183 24.952C123.655 24.808 122.983 24.736 122.167 24.736H118.663V31.48H122.191ZM131.022 22.864H133.23V38.032H142.11L141.774 40H131.022V22.864ZM144.942 32.728L138.966 22.864H141.51L146.046 30.784L150.702 22.864H153.03L147.174 32.728V40H144.942V32.728ZM163.853 24.832H158.189V22.864H171.749V24.832H166.085V40H163.853V24.832ZM179.922 40.432C178.754 40.432 177.682 40.24 176.706 39.856C175.746 39.456 174.914 38.88 174.21 38.128C173.522 37.36 172.986 36.416 172.602 35.296C172.218 34.176 172.026 32.896 172.026 31.456C172.026 30.016 172.218 28.736 172.602 27.616C173.002 26.496 173.546 25.552 174.234 24.784C174.938 24.016 175.77 23.432 176.73 23.032C177.706 22.632 178.77 22.432 179.922 22.432C181.09 22.432 182.154 22.632 183.114 23.032C184.09 23.416 184.922 23.992 185.61 24.76C186.298 25.512 186.834 26.448 187.218 27.568C187.602 28.672 187.794 29.944 187.794 31.384C187.794 32.824 187.602 34.112 187.218 35.248C186.85 36.368 186.322 37.312 185.634 38.08C184.946 38.848 184.114 39.432 183.138 39.832C182.178 40.232 181.106 40.432 179.922 40.432ZM179.922 38.512C180.834 38.512 181.634 38.344 182.322 38.008C183.026 37.672 183.61 37.2 184.074 36.592C184.538 35.968 184.89 35.224 185.13 34.36C185.37 33.48 185.49 32.504 185.49 31.432C185.49 30.376 185.37 29.416 185.13 28.552C184.89 27.672 184.53 26.92 184.05 26.296C183.586 25.672 183.01 25.192 182.322 24.856C181.634 24.52 180.834 24.352 179.922 24.352C178.994 24.352 178.178 24.52 177.474 24.856C176.786 25.192 176.202 25.672 175.722 26.296C175.258 26.92 174.906 27.672 174.666 28.552C174.442 29.416 174.33 30.376 174.33 31.432C174.33 32.504 174.442 33.48 174.666 34.36C174.906 35.224 175.258 35.968 175.722 36.592C176.186 37.2 176.762 37.672 177.45 38.008C178.154 38.344 178.978 38.512 179.922 38.512ZM195.361 22.864H201.097C202.361 22.864 203.401 23 204.217 23.272C205.049 23.544 205.697 23.912 206.161 24.376C206.641 24.84 206.969 25.384 207.145 26.008C207.337 26.616 207.433 27.264 207.433 27.952C207.433 28.672 207.337 29.36 207.145 30.016C206.953 30.672 206.617 31.248 206.137 31.744C205.657 32.24 205.009 32.632 204.193 32.92C203.377 33.208 202.345 33.352 201.097 33.352H197.545V40H195.361V22.864ZM201.073 31.48C201.905 31.48 202.593 31.4 203.137 31.24C203.681 31.08 204.105 30.848 204.409 30.544C204.713 30.24 204.921 29.88 205.033 29.464C205.161 29.032 205.225 28.552 205.225 28.024C205.225 27.48 205.161 27 205.033 26.584C204.905 26.168 204.681 25.824 204.361 25.552C204.041 25.28 203.609 25.08 203.065 24.952C202.537 24.808 201.865 24.736 201.049 24.736H197.545V31.48H201.073ZM209.905 22.864H212.113V38.032H220.993L220.657 40H209.905V22.864ZM228.41 22.864H230.738L237.386 40H234.986L233.186 35.224H225.842L224.042 40H221.738L228.41 22.864ZM232.514 33.304L229.49 25.36L226.514 33.304H232.514ZM240.871 24.832H235.207V22.864H248.767V24.832H243.103V40H240.871V24.832ZM250.605 22.864H261.237V24.808H252.813V30.424H260.709V32.416H252.813V40H250.605V22.864ZM270.734 40.432C269.566 40.432 268.494 40.24 267.518 39.856C266.558 39.456 265.726 38.88 265.022 38.128C264.334 37.36 263.798 36.416 263.414 35.296C263.03 34.176 262.838 32.896 262.838 31.456C262.838 30.016 263.03 28.736 263.414 27.616C263.814 26.496 264.358 25.552 265.046 24.784C265.75 24.016 266.582 23.432 267.542 23.032C268.518 22.632 269.582 22.432 270.734 22.432C271.902 22.432 272.966 22.632 273.926 23.032C274.902 23.416 275.734 23.992 276.422 24.76C277.11 25.512 277.646 26.448 278.03 27.568C278.414 28.672 278.606 29.944 278.606 31.384C278.606 32.824 278.414 34.112 278.03 35.248C277.662 36.368 277.134 37.312 276.446 38.08C275.758 38.848 274.926 39.432 273.95 39.832C272.99 40.232 271.918 40.432 270.734 40.432ZM270.734 38.512C271.646 38.512 272.446 38.344 273.134 38.008C273.838 37.672 274.422 37.2 274.886 36.592C275.35 35.968 275.702 35.224 275.942 34.36C276.182 33.48 276.302 32.504 276.302 31.432C276.302 30.376 276.182 29.416 275.942 28.552C275.702 27.672 275.342 26.92 274.862 26.296C274.398 25.672 273.822 25.192 273.134 24.856C272.446 24.52 271.646 24.352 270.734 24.352C269.806 24.352 268.99 24.52 268.286 24.856C267.598 25.192 267.014 25.672 266.534 26.296C266.07 26.92 265.718 27.672 265.478 28.552C265.254 29.416 265.142 30.376 265.142 31.432C265.142 32.504 265.254 33.48 265.478 34.36C265.718 35.224 266.07 35.968 266.534 36.592C266.998 37.2 267.574 37.672 268.262 38.008C268.966 38.344 269.79 38.512 270.734 38.512ZM281.309 22.864H286.925C288.205 22.864 289.253 23.008 290.069 23.296C290.885 23.584 291.525 23.96 291.989 24.424C292.469 24.872 292.797 25.384 292.973 25.96C293.149 26.536 293.237 27.12 293.237 27.712C293.237 28.8 293.005 29.728 292.541 30.496C292.093 31.264 291.349 31.864 290.309 32.296L293.909 40H291.437L288.197 32.824C287.989 32.856 287.765 32.88 287.525 32.896C287.285 32.896 287.069 32.896 286.877 32.896H283.493V40H281.309V22.864ZM287.141 31C287.909 31 288.541 30.928 289.037 30.784C289.533 30.624 289.925 30.408 290.213 30.136C290.501 29.848 290.701 29.504 290.813 29.104C290.925 28.704 290.981 28.256 290.981 27.76C290.981 27.28 290.917 26.856 290.789 26.488C290.661 26.12 290.437 25.808 290.117 25.552C289.813 25.28 289.397 25.08 288.869 24.952C288.341 24.808 287.669 24.736 286.853 24.736H283.493V31H287.141ZM295.993 22.864H298.729L304.249 37.36L309.865 22.864H312.505V40H310.465V26.488L305.089 40H303.289L298.009 26.536V40H295.993V22.864ZM320.674 22.864H323.41L328.93 37.36L334.546 22.864H337.186V40H335.146V26.488L329.77 40H327.97L322.69 26.536V40H320.674V22.864ZM340.491 22.864H351.579V24.808H342.699V30.184H351.099V32.152H342.699V38.056H352.035L351.675 40H340.491V22.864ZM355.509 35.128C355.701 36.328 356.173 37.2 356.925 37.744C357.693 38.272 358.829 38.536 360.333 38.536C361.085 38.536 361.709 38.456 362.205 38.296C362.717 38.12 363.125 37.896 363.429 37.624C363.733 37.336 363.949 37.008 364.077 36.64C364.205 36.256 364.269 35.856 364.269 35.44C364.269 35.104 364.229 34.784 364.149 34.48C364.069 34.16 363.909 33.872 363.669 33.616C363.445 33.36 363.125 33.136 362.709 32.944C362.309 32.752 361.789 32.6 361.149 32.488L358.989 32.104C358.141 31.96 357.389 31.768 356.733 31.528C356.077 31.288 355.517 30.984 355.053 30.616C354.605 30.232 354.261 29.76 354.021 29.2C353.797 28.64 353.685 27.96 353.685 27.16C353.685 26.376 353.845 25.688 354.165 25.096C354.501 24.504 354.949 24.008 355.509 23.608C356.069 23.208 356.733 22.912 357.501 22.72C358.269 22.528 359.101 22.432 359.997 22.432C361.133 22.432 362.077 22.56 362.829 22.816C363.597 23.056 364.221 23.384 364.701 23.8C365.181 24.216 365.541 24.696 365.781 25.24C366.037 25.768 366.229 26.312 366.357 26.872L364.293 27.28C364.165 26.8 363.997 26.376 363.789 26.008C363.597 25.624 363.333 25.312 362.997 25.072C362.677 24.816 362.277 24.624 361.797 24.496C361.317 24.368 360.733 24.304 360.045 24.304C359.261 24.304 358.605 24.376 358.077 24.52C357.549 24.664 357.125 24.864 356.805 25.12C356.485 25.36 356.253 25.656 356.109 26.008C355.981 26.344 355.917 26.704 355.917 27.088C355.917 27.504 355.965 27.872 356.061 28.192C356.173 28.496 356.349 28.768 356.589 29.008C356.845 29.232 357.173 29.424 357.573 29.584C357.973 29.728 358.469 29.856 359.061 29.968L361.461 30.4C363.237 30.736 364.541 31.296 365.373 32.08C366.205 32.848 366.621 33.984 366.621 35.488C366.621 36.176 366.485 36.824 366.213 37.432C365.957 38.024 365.565 38.544 365.037 38.992C364.525 39.44 363.877 39.792 363.093 40.048C362.309 40.304 361.389 40.432 360.333 40.432C359.325 40.432 358.405 40.328 357.573 40.12C356.757 39.928 356.045 39.616 355.437 39.184C354.829 38.752 354.341 38.2 353.973 37.528C353.605 36.856 353.381 36.056 353.301 35.128H355.509ZM370.802 35.128C370.994 36.328 371.466 37.2 372.218 37.744C372.986 38.272 374.122 38.536 375.626 38.536C376.378 38.536 377.002 38.456 377.498 38.296C378.01 38.12 378.418 37.896 378.722 37.624C379.026 37.336 379.242 37.008 379.37 36.64C379.498 36.256 379.562 35.856 379.562 35.44C379.562 35.104 379.522 34.784 379.442 34.48C379.362 34.16 379.202 33.872 378.962 33.616C378.738 33.36 378.418 33.136 378.002 32.944C377.602 32.752 377.082 32.6 376.442 32.488L374.282 32.104C373.434 31.96 372.682 31.768 372.026 31.528C371.37 31.288 370.81 30.984 370.346 30.616C369.898 30.232 369.554 29.76 369.314 29.2C369.09 28.64 368.978 27.96 368.978 27.16C368.978 26.376 369.138 25.688 369.458 25.096C369.794 24.504 370.242 24.008 370.802 23.608C371.362 23.208 372.026 22.912 372.794 22.72C373.562 22.528 374.394 22.432 375.29 22.432C376.426 22.432 377.37 22.56 378.122 22.816C378.89 23.056 379.514 23.384 379.994 23.8C380.474 24.216 380.834 24.696 381.074 25.24C381.33 25.768 381.522 26.312 381.65 26.872L379.586 27.28C379.458 26.8 379.29 26.376 379.082 26.008C378.89 25.624 378.626 25.312 378.29 25.072C377.97 24.816 377.57 24.624 377.09 24.496C376.61 24.368 376.026 24.304 375.338 24.304C374.554 24.304 373.898 24.376 373.37 24.52C372.842 24.664 372.418 24.864 372.098 25.12C371.778 25.36 371.546 25.656 371.402 26.008C371.274 26.344 371.21 26.704 371.21 27.088C371.21 27.504 371.258 27.872 371.354 28.192C371.466 28.496 371.642 28.768 371.882 29.008C372.138 29.232 372.466 29.424 372.866 29.584C373.266 29.728 373.762 29.856 374.354 29.968L376.754 30.4C378.53 30.736 379.834 31.296 380.666 32.08C381.498 32.848 381.914 33.984 381.914 35.488C381.914 36.176 381.778 36.824 381.506 37.432C381.25 38.024 380.858 38.544 380.33 38.992C379.818 39.44 379.17 39.792 378.386 40.048C377.602 40.304 376.682 40.432 375.626 40.432C374.618 40.432 373.698 40.328 372.866 40.12C372.05 39.928 371.338 39.616 370.73 39.184C370.122 38.752 369.634 38.2 369.266 37.528C368.898 36.856 368.674 36.056 368.594 35.128H370.802ZM389.067 22.864H391.395L398.043 40H395.643L393.843 35.224H386.499L384.699 40H382.395L389.067 22.864ZM393.171 33.304L390.147 25.36L387.171 33.304H393.171ZM406.388 31.192H412.796V38.056C412.364 38.456 411.884 38.808 411.356 39.112C410.844 39.4 410.3 39.648 409.724 39.856C409.164 40.048 408.58 40.192 407.972 40.288C407.38 40.384 406.796 40.432 406.22 40.432C404.956 40.432 403.828 40.232 402.836 39.832C401.86 39.416 401.028 38.824 400.34 38.056C399.668 37.288 399.156 36.352 398.804 35.248C398.452 34.128 398.276 32.864 398.276 31.456C398.276 30.016 398.468 28.736 398.852 27.616C399.236 26.496 399.764 25.552 400.436 24.784C401.124 24.016 401.94 23.432 402.884 23.032C403.828 22.632 404.86 22.432 405.98 22.432C406.94 22.432 407.788 22.552 408.524 22.792C409.26 23.016 409.884 23.344 410.396 23.776C410.924 24.208 411.356 24.728 411.692 25.336C412.028 25.928 412.284 26.592 412.46 27.328L410.324 27.688C410.196 27.192 410.02 26.736 409.796 26.32C409.588 25.904 409.316 25.552 408.98 25.264C408.644 24.96 408.228 24.728 407.732 24.568C407.252 24.408 406.668 24.328 405.98 24.328C405.084 24.328 404.3 24.504 403.628 24.856C402.956 25.192 402.396 25.672 401.948 26.296C401.5 26.92 401.156 27.672 400.916 28.552C400.692 29.416 400.58 30.376 400.58 31.432C400.58 32.488 400.692 33.456 400.916 34.336C401.14 35.2 401.484 35.944 401.948 36.568C402.428 37.192 403.02 37.672 403.724 38.008C404.428 38.344 405.26 38.512 406.22 38.512C407.084 38.512 407.892 38.408 408.644 38.2C409.412 37.992 410.1 37.664 410.708 37.216V33.112H406.388V31.192ZM415.575 22.864H426.663V24.808H417.783V30.184H426.183V32.152H417.783V38.056H427.119L426.759 40H415.575V22.864ZM430.593 35.128C430.785 36.328 431.257 37.2 432.009 37.744C432.777 38.272 433.913 38.536 435.417 38.536C436.169 38.536 436.793 38.456 437.289 38.296C437.801 38.12 438.209 37.896 438.513 37.624C438.817 37.336 439.033 37.008 439.161 36.64C439.289 36.256 439.353 35.856 439.353 35.44C439.353 35.104 439.313 34.784 439.233 34.48C439.153 34.16 438.993 33.872 438.753 33.616C438.529 33.36 438.209 33.136 437.793 32.944C437.393 32.752 436.873 32.6 436.233 32.488L434.073 32.104C433.225 31.96 432.473 31.768 431.817 31.528C431.161 31.288 430.601 30.984 430.137 30.616C429.689 30.232 429.345 29.76 429.105 29.2C428.881 28.64 428.769 27.96 428.769 27.16C428.769 26.376 428.929 25.688 429.249 25.096C429.585 24.504 430.033 24.008 430.593 23.608C431.153 23.208 431.817 22.912 432.585 22.72C433.353 22.528 434.185 22.432 435.081 22.432C436.217 22.432 437.161 22.56 437.913 22.816C438.681 23.056 439.305 23.384 439.785 23.8C440.265 24.216 440.625 24.696 440.865 25.24C441.121 25.768 441.313 26.312 441.441 26.872L439.377 27.28C439.249 26.8 439.081 26.376 438.873 26.008C438.681 25.624 438.417 25.312 438.081 25.072C437.761 24.816 437.361 24.624 436.881 24.496C436.401 24.368 435.817 24.304 435.129 24.304C434.345 24.304 433.689 24.376 433.161 24.52C432.633 24.664 432.209 24.864 431.889 25.12C431.569 25.36 431.337 25.656 431.193 26.008C431.065 26.344 431.001 26.704 431.001 27.088C431.001 27.504 431.049 27.872 431.145 28.192C431.257 28.496 431.433 28.768 431.673 29.008C431.929 29.232 432.257 29.424 432.657 29.584C433.057 29.728 433.553 29.856 434.145 29.968L436.545 30.4C438.321 30.736 439.625 31.296 440.457 32.08C441.289 32.848 441.705 33.984 441.705 35.488C441.705 36.176 441.569 36.824 441.297 37.432C441.041 38.024 440.649 38.544 440.121 38.992C439.609 39.44 438.961 39.792 438.177 40.048C437.393 40.304 436.473 40.432 435.417 40.432C434.409 40.432 433.489 40.328 432.657 40.12C431.841 39.928 431.129 39.616 430.521 39.184C429.913 38.752 429.425 38.2 429.057 37.528C428.689 36.856 428.465 36.056 428.385 35.128H430.593Z" fill="white"/>
<rect x="0.5" y="0.5" width="474" height="61" rx="30.5" stroke="white" stroke-opacity="0.16"/>
<defs>
<clipPath id="clip0_711_74074">
<rect width="16.8935" height="16.884" fill="white" transform="translate(42.463 22.6787)"/>
</clipPath>
</defs>
</svg>
