<svg width="533" height="62" viewBox="0 0 533 62" fill="none" xmlns="http://www.w3.org/2000/svg">
<rect x="32" y="16" width="38" height="30" rx="15" fill="#BBDCD2"/>
<g clip-path="url(#clip0_711_74075)">
<path opacity="0.2" fill-rule="evenodd" clip-rule="evenodd" d="M44.0639 38.0452L44.0563 37.952L43.9518 38.0298L43.0759 27.326L41.9062 25.798L43.001 26.4101L43.0005 26.4048L43.1167 26.4698L43.1127 26.4202L50.0301 30.2873L43.2865 23.9546H51.1594H59.0323L52.5406 30.0507L59.3187 26.1729L59.3187 26.1729V26.1735L59.3217 26.2529L59.4347 26.1883L59.3202 27.339L59.3342 38.0452L58.2554 38.0442L58.2553 38.0452H44.0639Z" fill="url(#paint0_linear_711_74075)"/>
<path fill-rule="evenodd" clip-rule="evenodd" d="M60.413 25.798V24.828C60.413 24.3449 60.0225 23.9546 59.5353 23.9546H59.0326L51.1596 29.6937L43.2867 23.9546H42.7802C42.2968 23.9546 41.9062 24.3449 41.9062 24.828V25.798L41.9063 25.7981V37.1718C41.9063 37.6549 42.2969 38.0452 42.7802 38.0452H44.064V27.371L51.1674 32.6617L58.2553 27.371L58.2554 27.3709V38.0452H59.5392C60.0226 38.0452 60.4131 37.6549 60.4131 37.1718V25.798L60.413 25.798Z" fill="#16191A"/>
</g>
<path d="M89.3618 35.128C89.5538 36.328 90.0258 37.2 90.7778 37.744C91.5458 38.272 92.6818 38.536 94.1858 38.536C94.9378 38.536 95.5618 38.456 96.0578 38.296C96.5698 38.12 96.9778 37.896 97.2818 37.624C97.5858 37.336 97.8018 37.008 97.9298 36.64C98.0578 36.256 98.1218 35.856 98.1218 35.44C98.1218 35.104 98.0818 34.784 98.0018 34.48C97.9218 34.16 97.7618 33.872 97.5218 33.616C97.2978 33.36 96.9778 33.136 96.5618 32.944C96.1618 32.752 95.6418 32.6 95.0018 32.488L92.8418 32.104C91.9938 31.96 91.2418 31.768 90.5858 31.528C89.9298 31.288 89.3698 30.984 88.9058 30.616C88.4578 30.232 88.1138 29.76 87.8738 29.2C87.6498 28.64 87.5378 27.96 87.5378 27.16C87.5378 26.376 87.6978 25.688 88.0178 25.096C88.3538 24.504 88.8018 24.008 89.3618 23.608C89.9218 23.208 90.5858 22.912 91.3538 22.72C92.1218 22.528 92.9538 22.432 93.8498 22.432C94.9858 22.432 95.9298 22.56 96.6818 22.816C97.4498 23.056 98.0738 23.384 98.5538 23.8C99.0338 24.216 99.3938 24.696 99.6338 25.24C99.8898 25.768 100.082 26.312 100.21 26.872L98.1458 27.28C98.0178 26.8 97.8498 26.376 97.6418 26.008C97.4498 25.624 97.1858 25.312 96.8498 25.072C96.5298 24.816 96.1298 24.624 95.6498 24.496C95.1698 24.368 94.5858 24.304 93.8978 24.304C93.1138 24.304 92.4578 24.376 91.9298 24.52C91.4018 24.664 90.9778 24.864 90.6578 25.12C90.3378 25.36 90.1058 25.656 89.9618 26.008C89.8338 26.344 89.7698 26.704 89.7698 27.088C89.7698 27.504 89.8178 27.872 89.9138 28.192C90.0258 28.496 90.2018 28.768 90.4418 29.008C90.6978 29.232 91.0258 29.424 91.4258 29.584C91.8258 29.728 92.3218 29.856 92.9138 29.968L95.3138 30.4C97.0898 30.736 98.3938 31.296 99.2258 32.08C100.058 32.848 100.474 33.984 100.474 35.488C100.474 36.176 100.338 36.824 100.066 37.432C99.8098 38.024 99.4178 38.544 98.8898 38.992C98.3778 39.44 97.7298 39.792 96.9458 40.048C96.1618 40.304 95.2418 40.432 94.1858 40.432C93.1778 40.432 92.2578 40.328 91.4258 40.12C90.6098 39.928 89.8978 39.616 89.2898 39.184C88.6818 38.752 88.1938 38.2 87.8258 37.528C87.4578 36.856 87.2338 36.056 87.1538 35.128H89.3618ZM103.056 22.864H114.144V24.808H105.264V30.184H113.664V32.152H105.264V38.056H114.6L114.24 40H103.056V22.864ZM116.826 22.864H119.01L127.722 36.472V22.864H129.858V40H127.746L118.962 26.464V40H116.826V22.864ZM133.174 22.864H139.174C140.422 22.864 141.534 23.04 142.51 23.392C143.502 23.728 144.334 24.248 145.006 24.952C145.694 25.656 146.222 26.536 146.59 27.592C146.958 28.648 147.142 29.888 147.142 31.312C147.142 32.752 146.942 34.016 146.542 35.104C146.158 36.192 145.598 37.096 144.862 37.816C144.126 38.536 143.23 39.08 142.174 39.448C141.118 39.816 139.934 40 138.622 40H133.174V22.864ZM138.718 38.08C140.846 38.08 142.398 37.488 143.374 36.304C144.35 35.104 144.838 33.456 144.838 31.36C144.838 30.32 144.726 29.392 144.502 28.576C144.294 27.76 143.958 27.072 143.494 26.512C143.046 25.936 142.462 25.504 141.742 25.216C141.022 24.912 140.166 24.76 139.174 24.76H135.382V38.08H138.718ZM154.69 22.864H165.778V24.808H156.898V30.184H165.298V32.152H156.898V38.056H166.234L165.874 40H154.69V22.864ZM168.46 22.864H171.196L176.716 37.36L182.332 22.864H184.972V40H182.932V26.488L177.556 40H175.756L170.476 26.536V40H168.46V22.864ZM193.317 22.864H195.645L202.293 40H199.893L198.093 35.224H190.749L188.949 40H186.645L193.317 22.864ZM197.421 33.304L194.397 25.36L191.421 33.304H197.421ZM203.969 22.864H206.177V40H203.969V22.864ZM209.489 22.864H211.697V38.032H220.577L220.241 40H209.489V22.864ZM223.499 35.128C223.691 36.328 224.163 37.2 224.915 37.744C225.683 38.272 226.819 38.536 228.323 38.536C229.075 38.536 229.699 38.456 230.195 38.296C230.707 38.12 231.115 37.896 231.419 37.624C231.723 37.336 231.939 37.008 232.067 36.64C232.195 36.256 232.259 35.856 232.259 35.44C232.259 35.104 232.219 34.784 232.139 34.48C232.059 34.16 231.899 33.872 231.659 33.616C231.435 33.36 231.115 33.136 230.699 32.944C230.299 32.752 229.779 32.6 229.139 32.488L226.979 32.104C226.131 31.96 225.379 31.768 224.723 31.528C224.067 31.288 223.507 30.984 223.043 30.616C222.595 30.232 222.251 29.76 222.011 29.2C221.787 28.64 221.675 27.96 221.675 27.16C221.675 26.376 221.835 25.688 222.155 25.096C222.491 24.504 222.939 24.008 223.499 23.608C224.059 23.208 224.723 22.912 225.491 22.72C226.259 22.528 227.091 22.432 227.987 22.432C229.123 22.432 230.067 22.56 230.819 22.816C231.587 23.056 232.211 23.384 232.691 23.8C233.171 24.216 233.531 24.696 233.771 25.24C234.027 25.768 234.219 26.312 234.347 26.872L232.283 27.28C232.155 26.8 231.987 26.376 231.779 26.008C231.587 25.624 231.323 25.312 230.987 25.072C230.667 24.816 230.267 24.624 229.787 24.496C229.307 24.368 228.723 24.304 228.035 24.304C227.251 24.304 226.595 24.376 226.067 24.52C225.539 24.664 225.115 24.864 224.795 25.12C224.475 25.36 224.243 25.656 224.099 26.008C223.971 26.344 223.907 26.704 223.907 27.088C223.907 27.504 223.955 27.872 224.051 28.192C224.163 28.496 224.339 28.768 224.579 29.008C224.835 29.232 225.163 29.424 225.563 29.584C225.963 29.728 226.459 29.856 227.051 29.968L229.451 30.4C231.227 30.736 232.531 31.296 233.363 32.08C234.195 32.848 234.611 33.984 234.611 35.488C234.611 36.176 234.475 36.824 234.203 37.432C233.947 38.024 233.555 38.544 233.027 38.992C232.515 39.44 231.867 39.792 231.083 40.048C230.299 40.304 229.379 40.432 228.323 40.432C227.315 40.432 226.395 40.328 225.563 40.12C224.747 39.928 224.035 39.616 223.427 39.184C222.819 38.752 222.331 38.2 221.963 37.528C221.595 36.856 221.371 36.056 221.291 35.128H223.499ZM237.625 40H235.465L240.913 22.384H243.073L237.625 40ZM244.659 22.864H247.395L252.915 37.36L258.531 22.864H261.171V40H259.131V26.488L253.755 40H251.955L246.675 26.536V40H244.659V22.864ZM264.475 22.864H275.563V24.808H266.683V30.184H275.083V32.152H266.683V38.056H276.019L275.659 40H264.475V22.864ZM279.493 35.128C279.685 36.328 280.157 37.2 280.909 37.744C281.677 38.272 282.813 38.536 284.317 38.536C285.069 38.536 285.693 38.456 286.189 38.296C286.701 38.12 287.109 37.896 287.413 37.624C287.717 37.336 287.933 37.008 288.061 36.64C288.189 36.256 288.253 35.856 288.253 35.44C288.253 35.104 288.213 34.784 288.133 34.48C288.053 34.16 287.893 33.872 287.653 33.616C287.429 33.36 287.109 33.136 286.693 32.944C286.293 32.752 285.773 32.6 285.133 32.488L282.973 32.104C282.125 31.96 281.373 31.768 280.717 31.528C280.061 31.288 279.501 30.984 279.037 30.616C278.589 30.232 278.245 29.76 278.005 29.2C277.781 28.64 277.669 27.96 277.669 27.16C277.669 26.376 277.829 25.688 278.149 25.096C278.485 24.504 278.933 24.008 279.493 23.608C280.053 23.208 280.717 22.912 281.485 22.72C282.253 22.528 283.085 22.432 283.981 22.432C285.117 22.432 286.061 22.56 286.813 22.816C287.581 23.056 288.205 23.384 288.685 23.8C289.165 24.216 289.525 24.696 289.765 25.24C290.021 25.768 290.213 26.312 290.341 26.872L288.277 27.28C288.149 26.8 287.981 26.376 287.773 26.008C287.581 25.624 287.317 25.312 286.981 25.072C286.661 24.816 286.261 24.624 285.781 24.496C285.301 24.368 284.717 24.304 284.029 24.304C283.245 24.304 282.589 24.376 282.061 24.52C281.533 24.664 281.109 24.864 280.789 25.12C280.469 25.36 280.237 25.656 280.093 26.008C279.965 26.344 279.901 26.704 279.901 27.088C279.901 27.504 279.949 27.872 280.045 28.192C280.157 28.496 280.333 28.768 280.573 29.008C280.829 29.232 281.157 29.424 281.557 29.584C281.957 29.728 282.453 29.856 283.045 29.968L285.445 30.4C287.221 30.736 288.525 31.296 289.357 32.08C290.189 32.848 290.605 33.984 290.605 35.488C290.605 36.176 290.469 36.824 290.197 37.432C289.941 38.024 289.549 38.544 289.021 38.992C288.509 39.44 287.861 39.792 287.077 40.048C286.293 40.304 285.373 40.432 284.317 40.432C283.309 40.432 282.389 40.328 281.557 40.12C280.741 39.928 280.029 39.616 279.421 39.184C278.813 38.752 278.325 38.2 277.957 37.528C277.589 36.856 277.365 36.056 277.285 35.128H279.493ZM294.787 35.128C294.979 36.328 295.451 37.2 296.203 37.744C296.971 38.272 298.107 38.536 299.611 38.536C300.363 38.536 300.987 38.456 301.483 38.296C301.995 38.12 302.403 37.896 302.707 37.624C303.011 37.336 303.227 37.008 303.355 36.64C303.483 36.256 303.547 35.856 303.547 35.44C303.547 35.104 303.507 34.784 303.427 34.48C303.347 34.16 303.187 33.872 302.947 33.616C302.723 33.36 302.403 33.136 301.987 32.944C301.587 32.752 301.067 32.6 300.427 32.488L298.267 32.104C297.419 31.96 296.667 31.768 296.011 31.528C295.355 31.288 294.795 30.984 294.331 30.616C293.883 30.232 293.539 29.76 293.299 29.2C293.075 28.64 292.963 27.96 292.963 27.16C292.963 26.376 293.123 25.688 293.443 25.096C293.779 24.504 294.227 24.008 294.787 23.608C295.347 23.208 296.011 22.912 296.779 22.72C297.547 22.528 298.379 22.432 299.275 22.432C300.411 22.432 301.355 22.56 302.107 22.816C302.875 23.056 303.499 23.384 303.979 23.8C304.459 24.216 304.819 24.696 305.059 25.24C305.315 25.768 305.507 26.312 305.635 26.872L303.571 27.28C303.443 26.8 303.275 26.376 303.067 26.008C302.875 25.624 302.611 25.312 302.275 25.072C301.955 24.816 301.555 24.624 301.075 24.496C300.595 24.368 300.011 24.304 299.323 24.304C298.539 24.304 297.883 24.376 297.355 24.52C296.827 24.664 296.403 24.864 296.083 25.12C295.763 25.36 295.531 25.656 295.387 26.008C295.259 26.344 295.195 26.704 295.195 27.088C295.195 27.504 295.243 27.872 295.339 28.192C295.451 28.496 295.627 28.768 295.867 29.008C296.123 29.232 296.451 29.424 296.851 29.584C297.251 29.728 297.747 29.856 298.339 29.968L300.739 30.4C302.515 30.736 303.819 31.296 304.651 32.08C305.483 32.848 305.899 33.984 305.899 35.488C305.899 36.176 305.763 36.824 305.491 37.432C305.235 38.024 304.843 38.544 304.315 38.992C303.803 39.44 303.155 39.792 302.371 40.048C301.587 40.304 300.667 40.432 299.611 40.432C298.603 40.432 297.683 40.328 296.851 40.12C296.035 39.928 295.323 39.616 294.715 39.184C294.107 38.752 293.619 38.2 293.251 37.528C292.883 36.856 292.659 36.056 292.579 35.128H294.787ZM313.052 22.864H315.38L322.028 40H319.628L317.828 35.224H310.484L308.684 40H306.38L313.052 22.864ZM317.156 33.304L314.132 25.36L311.156 33.304H317.156ZM330.372 31.192H336.78V38.056C336.348 38.456 335.868 38.808 335.34 39.112C334.828 39.4 334.284 39.648 333.708 39.856C333.148 40.048 332.564 40.192 331.956 40.288C331.364 40.384 330.78 40.432 330.204 40.432C328.94 40.432 327.812 40.232 326.82 39.832C325.844 39.416 325.012 38.824 324.324 38.056C323.652 37.288 323.14 36.352 322.788 35.248C322.436 34.128 322.26 32.864 322.26 31.456C322.26 30.016 322.452 28.736 322.836 27.616C323.22 26.496 323.748 25.552 324.42 24.784C325.108 24.016 325.924 23.432 326.868 23.032C327.812 22.632 328.844 22.432 329.964 22.432C330.924 22.432 331.772 22.552 332.508 22.792C333.244 23.016 333.868 23.344 334.38 23.776C334.908 24.208 335.34 24.728 335.676 25.336C336.012 25.928 336.268 26.592 336.444 27.328L334.308 27.688C334.18 27.192 334.004 26.736 333.78 26.32C333.572 25.904 333.3 25.552 332.964 25.264C332.628 24.96 332.212 24.728 331.716 24.568C331.236 24.408 330.652 24.328 329.964 24.328C329.068 24.328 328.284 24.504 327.612 24.856C326.94 25.192 326.38 25.672 325.932 26.296C325.484 26.92 325.14 27.672 324.9 28.552C324.676 29.416 324.564 30.376 324.564 31.432C324.564 32.488 324.676 33.456 324.9 34.336C325.124 35.2 325.468 35.944 325.932 36.568C326.412 37.192 327.004 37.672 327.708 38.008C328.412 38.344 329.244 38.512 330.204 38.512C331.068 38.512 331.876 38.408 332.628 38.2C333.396 37.992 334.084 37.664 334.692 37.216V33.112H330.372V31.192ZM339.56 22.864H350.648V24.808H341.768V30.184H350.168V32.152H341.768V38.056H351.104L350.744 40H339.56V22.864ZM354.578 35.128C354.77 36.328 355.242 37.2 355.994 37.744C356.762 38.272 357.898 38.536 359.402 38.536C360.154 38.536 360.778 38.456 361.274 38.296C361.786 38.12 362.194 37.896 362.498 37.624C362.802 37.336 363.018 37.008 363.146 36.64C363.274 36.256 363.338 35.856 363.338 35.44C363.338 35.104 363.298 34.784 363.218 34.48C363.138 34.16 362.978 33.872 362.738 33.616C362.514 33.36 362.194 33.136 361.778 32.944C361.378 32.752 360.858 32.6 360.218 32.488L358.058 32.104C357.21 31.96 356.458 31.768 355.802 31.528C355.146 31.288 354.586 30.984 354.122 30.616C353.674 30.232 353.33 29.76 353.09 29.2C352.866 28.64 352.754 27.96 352.754 27.16C352.754 26.376 352.914 25.688 353.234 25.096C353.57 24.504 354.018 24.008 354.578 23.608C355.138 23.208 355.802 22.912 356.57 22.72C357.338 22.528 358.17 22.432 359.066 22.432C360.202 22.432 361.146 22.56 361.898 22.816C362.666 23.056 363.29 23.384 363.77 23.8C364.25 24.216 364.61 24.696 364.85 25.24C365.106 25.768 365.298 26.312 365.426 26.872L363.362 27.28C363.234 26.8 363.066 26.376 362.858 26.008C362.666 25.624 362.402 25.312 362.066 25.072C361.746 24.816 361.346 24.624 360.866 24.496C360.386 24.368 359.802 24.304 359.114 24.304C358.33 24.304 357.674 24.376 357.146 24.52C356.618 24.664 356.194 24.864 355.874 25.12C355.554 25.36 355.322 25.656 355.178 26.008C355.05 26.344 354.986 26.704 354.986 27.088C354.986 27.504 355.034 27.872 355.13 28.192C355.242 28.496 355.418 28.768 355.658 29.008C355.914 29.232 356.242 29.424 356.642 29.584C357.042 29.728 357.538 29.856 358.13 29.968L360.53 30.4C362.306 30.736 363.61 31.296 364.442 32.08C365.274 32.848 365.69 33.984 365.69 35.488C365.69 36.176 365.554 36.824 365.282 37.432C365.026 38.024 364.634 38.544 364.106 38.992C363.594 39.44 362.946 39.792 362.162 40.048C361.378 40.304 360.458 40.432 359.402 40.432C358.394 40.432 357.474 40.328 356.642 40.12C355.826 39.928 355.114 39.616 354.506 39.184C353.898 38.752 353.41 38.2 353.042 37.528C352.674 36.856 352.45 36.056 352.37 35.128H354.578ZM377.335 24.832H371.671V22.864H385.231V24.832H379.567V40H377.335V24.832ZM393.405 40.432C392.237 40.432 391.165 40.24 390.189 39.856C389.229 39.456 388.397 38.88 387.693 38.128C387.005 37.36 386.469 36.416 386.085 35.296C385.701 34.176 385.509 32.896 385.509 31.456C385.509 30.016 385.701 28.736 386.085 27.616C386.485 26.496 387.029 25.552 387.717 24.784C388.421 24.016 389.253 23.432 390.213 23.032C391.189 22.632 392.253 22.432 393.405 22.432C394.573 22.432 395.637 22.632 396.597 23.032C397.573 23.416 398.405 23.992 399.093 24.76C399.781 25.512 400.317 26.448 400.701 27.568C401.085 28.672 401.277 29.944 401.277 31.384C401.277 32.824 401.085 34.112 400.701 35.248C400.333 36.368 399.805 37.312 399.117 38.08C398.429 38.848 397.597 39.432 396.621 39.832C395.661 40.232 394.589 40.432 393.405 40.432ZM393.405 38.512C394.317 38.512 395.117 38.344 395.805 38.008C396.509 37.672 397.093 37.2 397.557 36.592C398.021 35.968 398.373 35.224 398.613 34.36C398.853 33.48 398.973 32.504 398.973 31.432C398.973 30.376 398.853 29.416 398.613 28.552C398.373 27.672 398.013 26.92 397.533 26.296C397.069 25.672 396.493 25.192 395.805 24.856C395.117 24.52 394.317 24.352 393.405 24.352C392.477 24.352 391.661 24.52 390.957 24.856C390.269 25.192 389.685 25.672 389.205 26.296C388.741 26.92 388.389 27.672 388.149 28.552C387.925 29.416 387.813 30.376 387.813 31.432C387.813 32.504 387.925 33.48 388.149 34.36C388.389 35.224 388.741 35.968 389.205 36.592C389.669 37.2 390.245 37.672 390.933 38.008C391.637 38.344 392.461 38.512 393.405 38.512ZM408.844 22.864H414.532C415.748 22.864 416.748 22.984 417.532 23.224C418.316 23.448 418.932 23.76 419.38 24.16C419.844 24.544 420.164 25.008 420.34 25.552C420.516 26.08 420.604 26.648 420.604 27.256C420.604 28.04 420.42 28.744 420.052 29.368C419.7 29.992 419.076 30.512 418.18 30.928C418.756 31.152 419.228 31.416 419.596 31.72C419.98 32.008 420.284 32.336 420.508 32.704C420.748 33.056 420.908 33.432 420.988 33.832C421.084 34.216 421.132 34.616 421.132 35.032C421.132 35.736 421.02 36.392 420.796 37C420.588 37.592 420.244 38.112 419.764 38.56C419.284 39.008 418.652 39.36 417.868 39.616C417.084 39.872 416.116 40 414.964 40H408.844V22.864ZM414.82 30.112C416.116 30.112 417.044 29.88 417.604 29.416C418.164 28.936 418.444 28.24 418.444 27.328C418.444 26.4 418.14 25.728 417.532 25.312C416.94 24.896 415.916 24.688 414.46 24.688H411.004V30.112H414.82ZM414.892 38.176C415.676 38.176 416.324 38.104 416.836 37.96C417.364 37.816 417.78 37.616 418.084 37.36C418.404 37.088 418.62 36.768 418.732 36.4C418.86 36.016 418.924 35.584 418.924 35.104C418.924 34.096 418.628 33.328 418.036 32.8C417.444 32.256 416.452 31.984 415.06 31.984H411.004V38.176H414.892ZM423.528 22.864H429.144C430.424 22.864 431.472 23.008 432.288 23.296C433.104 23.584 433.744 23.96 434.208 24.424C434.688 24.872 435.016 25.384 435.192 25.96C435.368 26.536 435.456 27.12 435.456 27.712C435.456 28.8 435.224 29.728 434.76 30.496C434.312 31.264 433.568 31.864 432.528 32.296L436.128 40H433.656L430.416 32.824C430.208 32.856 429.984 32.88 429.744 32.896C429.504 32.896 429.288 32.896 429.096 32.896H425.712V40H423.528V22.864ZM429.36 31C430.128 31 430.76 30.928 431.256 30.784C431.752 30.624 432.144 30.408 432.432 30.136C432.72 29.848 432.92 29.504 433.032 29.104C433.144 28.704 433.2 28.256 433.2 27.76C433.2 27.28 433.136 26.856 433.008 26.488C432.88 26.12 432.656 25.808 432.336 25.552C432.032 25.28 431.616 25.08 431.088 24.952C430.56 24.808 429.888 24.736 429.072 24.736H425.712V31H429.36ZM443.603 22.864H445.931L452.579 40H450.179L448.379 35.224H441.035L439.235 40H436.931L443.603 22.864ZM447.707 33.304L444.683 25.36L441.707 33.304H447.707ZM454.255 22.864H456.439L465.151 36.472V22.864H467.287V40H465.175L456.391 26.464V40H454.255V22.864ZM470.604 22.864H476.604C477.852 22.864 478.964 23.04 479.94 23.392C480.932 23.728 481.764 24.248 482.436 24.952C483.124 25.656 483.652 26.536 484.02 27.592C484.388 28.648 484.572 29.888 484.572 31.312C484.572 32.752 484.372 34.016 483.972 35.104C483.588 36.192 483.028 37.096 482.292 37.816C481.556 38.536 480.66 39.08 479.604 39.448C478.548 39.816 477.364 40 476.052 40H470.604V22.864ZM476.148 38.08C478.276 38.08 479.828 37.488 480.804 36.304C481.78 35.104 482.268 33.456 482.268 31.36C482.268 30.32 482.156 29.392 481.932 28.576C481.724 27.76 481.388 27.072 480.924 26.512C480.476 25.936 479.892 25.504 479.172 25.216C478.452 24.912 477.596 24.76 476.604 24.76H472.812V38.08H476.148ZM488.504 35.128C488.696 36.328 489.168 37.2 489.92 37.744C490.688 38.272 491.824 38.536 493.328 38.536C494.08 38.536 494.704 38.456 495.2 38.296C495.712 38.12 496.12 37.896 496.424 37.624C496.728 37.336 496.944 37.008 497.072 36.64C497.2 36.256 497.264 35.856 497.264 35.44C497.264 35.104 497.224 34.784 497.144 34.48C497.064 34.16 496.904 33.872 496.664 33.616C496.44 33.36 496.12 33.136 495.704 32.944C495.304 32.752 494.784 32.6 494.144 32.488L491.984 32.104C491.136 31.96 490.384 31.768 489.728 31.528C489.072 31.288 488.512 30.984 488.048 30.616C487.6 30.232 487.256 29.76 487.016 29.2C486.792 28.64 486.68 27.96 486.68 27.16C486.68 26.376 486.84 25.688 487.16 25.096C487.496 24.504 487.944 24.008 488.504 23.608C489.064 23.208 489.728 22.912 490.496 22.72C491.264 22.528 492.096 22.432 492.992 22.432C494.128 22.432 495.072 22.56 495.824 22.816C496.592 23.056 497.216 23.384 497.696 23.8C498.176 24.216 498.536 24.696 498.776 25.24C499.032 25.768 499.224 26.312 499.352 26.872L497.288 27.28C497.16 26.8 496.992 26.376 496.784 26.008C496.592 25.624 496.328 25.312 495.992 25.072C495.672 24.816 495.272 24.624 494.792 24.496C494.312 24.368 493.728 24.304 493.04 24.304C492.256 24.304 491.6 24.376 491.072 24.52C490.544 24.664 490.12 24.864 489.8 25.12C489.48 25.36 489.248 25.656 489.104 26.008C488.976 26.344 488.912 26.704 488.912 27.088C488.912 27.504 488.96 27.872 489.056 28.192C489.168 28.496 489.344 28.768 489.584 29.008C489.84 29.232 490.168 29.424 490.568 29.584C490.968 29.728 491.464 29.856 492.056 29.968L494.456 30.4C496.232 30.736 497.536 31.296 498.368 32.08C499.2 32.848 499.616 33.984 499.616 35.488C499.616 36.176 499.48 36.824 499.208 37.432C498.952 38.024 498.56 38.544 498.032 38.992C497.52 39.44 496.872 39.792 496.088 40.048C495.304 40.304 494.384 40.432 493.328 40.432C492.32 40.432 491.4 40.328 490.568 40.12C489.752 39.928 489.04 39.616 488.432 39.184C487.824 38.752 487.336 38.2 486.968 37.528C486.6 36.856 486.376 36.056 486.296 35.128H488.504Z" fill="white"/>
<rect x="0.5" y="0.5" width="532" height="61" rx="30.5" stroke="white" stroke-opacity="0.16"/>
<defs>
<linearGradient id="paint0_linear_711_74075" x1="50.8355" y1="26.3453" x2="56.9345" y2="36.2568" gradientUnits="userSpaceOnUse">
<stop/>
<stop offset="0.9425" stop-opacity="0"/>
</linearGradient>
<clipPath id="clip0_711_74075">
<rect width="19.7983" height="19.7872" fill="white" transform="translate(41.2605 21.1064)"/>
</clipPath>
</defs>
</svg>
