<svg width="100" height="48" viewBox="0 0 100 48" fill="none" xmlns="http://www.w3.org/2000/svg">
<path d="M21.8387 24.1724H3.68422C3.60392 24.1724 3.53882 24.2375 3.53882 24.3178V37.6984C3.53882 37.7787 3.60391 37.8438 3.68422 37.8438H21.8285C21.8614 37.8438 21.8934 37.855 21.9191 37.8755L33.0062 46.7133C33.1014 46.7892 33.2422 46.7214 33.2422 46.5996V31.0782C33.2422 31.0272 33.2154 30.9799 33.1716 30.9536L21.9136 24.1931C21.8909 24.1795 21.8651 24.1724 21.8387 24.1724Z" fill="url(#paint0_linear_261_22243)"/>
<path d="M21.9264 24.1724H40.0809C40.1612 24.1724 40.2263 24.1073 40.2263 24.027V10.6463C40.2263 10.566 40.1612 10.5009 40.0809 10.5009H21.9367C21.9037 10.5009 21.8718 10.4898 21.846 10.4692L10.759 1.63146C10.6637 1.55554 10.5229 1.62336 10.5229 1.74516V17.2665C10.5229 17.3176 10.5497 17.3649 10.5935 17.3912L21.8516 24.1516C21.8742 24.1652 21.9001 24.1724 21.9264 24.1724Z" fill="url(#paint1_linear_261_22243)"/>
<path d="M21.8629 24.1724H3.59698C3.56486 24.1724 3.53882 24.1984 3.53882 24.2305V37.7856C3.53882 37.8177 3.56486 37.8438 3.59698 37.8438H21.859C21.8722 37.8438 21.8849 37.8483 21.8952 37.8565L33.1478 46.8261C33.1859 46.8565 33.2422 46.8294 33.2422 46.7807V31.0288C33.2422 31.0084 33.2315 30.9895 33.214 30.979L21.8928 24.1807C21.8838 24.1752 21.8734 24.1724 21.8629 24.1724Z" fill="#BBDCD2"/>
<path d="M21.9023 24.1724H40.1682C40.2003 24.1724 40.2263 24.1463 40.2263 24.1142V10.5591C40.2263 10.527 40.2003 10.5009 40.1682 10.5009H21.9061C21.893 10.5009 21.8802 10.4965 21.8699 10.4883L10.6174 1.51858C10.5793 1.48821 10.5229 1.51534 10.5229 1.56405V17.3159C10.5229 17.3363 10.5337 17.3552 10.5512 17.3657L21.8723 24.1641C21.8814 24.1695 21.8917 24.1724 21.9023 24.1724Z" fill="url(#paint2_linear_261_22243)"/>
<path d="M52.6728 30.5741C52.6728 32.4043 52.6728 34.2671 52.6404 36.13H55.6831C55.7479 35.6724 55.8126 34.8554 55.8126 34.0383C56.6542 35.5744 57.949 36.5221 60.5709 36.5221C65.2321 36.5221 67.7246 32.4696 67.7246 27.4693C67.7246 22.5998 65.1997 19.1028 60.9917 19.1028C58.0785 19.1028 56.5895 20.4101 55.845 21.75V12.1743H52.6728V30.5741ZM64.4876 27.5347C64.4876 31.4238 62.8691 33.8422 60.0854 33.8422C56.7189 33.8422 55.6831 31.195 55.6831 27.8615C55.6831 24.0378 56.8808 21.7827 60.1825 21.7827C62.9662 21.7827 64.4876 24.1031 64.4876 27.5347Z" fill="#EFEFE6"/>
<path d="M70.9433 36.13H74.1155V19.495H70.9433V36.13ZM74.1155 15.8673V12.1743H70.9433V15.8673H74.1155Z" fill="#EFEFE6"/>
<path d="M91.2645 24.5933C91.2645 20.8023 89.031 19.1028 84.9201 19.1028C80.1294 19.0701 78.6404 21.6847 78.4138 24.1031H81.4889C81.7479 22.8285 82.201 21.5539 84.823 21.5539C87.7038 21.5539 88.157 23.2207 88.157 24.626V25.966H85.438C80.5502 25.966 77.6369 27.6981 77.6369 31.4238C77.6369 33.9403 79.2878 36.5221 83.2045 36.5221C86.3443 36.5221 87.6391 35.1495 88.1894 34.071C88.2541 34.9534 88.3512 35.7705 88.4807 36.13H91.4911C91.394 35.6724 91.2645 33.9076 91.2645 32.3716V24.5933ZM88.1894 28.6459C88.1894 31.4892 87.6715 34.071 83.9166 34.071C81.9744 34.071 80.8739 32.8618 80.8739 31.2277C80.8739 29.038 82.4924 28.123 85.6646 28.123H88.1894V28.6459Z" fill="#EFEFE6"/>
<defs>
<linearGradient id="paint0_linear_261_22243" x1="33.2418" y1="46.9015" x2="3.48893" y2="24.2379" gradientUnits="userSpaceOnUse">
<stop stop-color="#83BEAD"/>
<stop offset="0.292341" stop-color="#94CABB"/>
<stop offset="0.651505" stop-color="#C3ECE0"/>
<stop offset="1" stop-color="#B9DBD1"/>
</linearGradient>
<linearGradient id="paint1_linear_261_22243" x1="10.5233" y1="1.44322" x2="40.2762" y2="24.1069" gradientUnits="userSpaceOnUse">
<stop stop-color="#83BEAD"/>
<stop offset="0.292341" stop-color="#94CABB"/>
<stop offset="0.651505" stop-color="#C3ECE0"/>
<stop offset="1" stop-color="#B9DBD1"/>
</linearGradient>
<linearGradient id="paint2_linear_261_22243" x1="10.5233" y1="1.44322" x2="40.2762" y2="24.1069" gradientUnits="userSpaceOnUse">
<stop stop-color="#83BEAD"/>
<stop offset="0.292341" stop-color="#94CABB"/>
<stop offset="0.651505" stop-color="#C3ECE0"/>
<stop offset="1" stop-color="#B9DBD1"/>
</linearGradient>
</defs>
</svg>
