<svg width="1440" height="900" viewBox="0 0 1440 900" fill="none" xmlns="http://www.w3.org/2000/svg">
<path d="M406.348 374.168H416.38L436.62 427.32L457.212 374.168H466.892V437H459.412V387.456L439.7 437H433.1L413.74 387.632V437H406.348V374.168ZM506.29 430.752C504.648 432.747 502.565 434.477 500.042 435.944C497.52 437.352 494.381 438.056 490.626 438.056C488.338 438.056 486.226 437.763 484.29 437.176C482.413 436.648 480.77 435.827 479.362 434.712C478.013 433.539 476.957 432.101 476.194 430.4C475.432 428.699 475.05 426.704 475.05 424.416C475.05 421.307 475.696 418.784 476.986 416.848C478.336 414.912 480.096 413.387 482.266 412.272C484.496 411.157 486.989 410.365 489.746 409.896C492.504 409.427 495.349 409.133 498.282 409.016L506.114 408.752V406.992C506.114 403.12 505.293 400.333 503.65 398.632C502.008 396.931 499.338 396.08 495.642 396.08C492.005 396.08 489.336 396.696 487.634 397.928C485.933 399.101 484.818 400.744 484.29 402.856L477.338 402.064C478.16 397.899 480.125 394.877 483.234 393C486.344 391.064 490.568 390.096 495.906 390.096C499.192 390.096 501.949 390.507 504.178 391.328C506.466 392.091 508.314 393.205 509.722 394.672C511.13 396.139 512.128 397.957 512.714 400.128C513.36 402.299 513.682 404.733 513.682 407.432V437H506.29V430.752ZM506.114 414.208L498.81 414.472C495.701 414.589 493.12 414.883 491.066 415.352C489.013 415.821 487.37 416.467 486.138 417.288C484.965 418.051 484.114 419.019 483.586 420.192C483.117 421.365 482.882 422.715 482.882 424.24C482.882 426.528 483.557 428.376 484.906 429.784C486.314 431.133 488.602 431.808 491.77 431.808C496.288 431.808 499.808 430.693 502.33 428.464C504.853 426.235 506.114 423.184 506.114 419.312V414.208ZM556.634 430.488C554.757 433.011 552.586 434.976 550.122 436.384C547.658 437.733 544.754 438.408 541.41 438.408C538.066 438.408 535.162 437.792 532.698 436.56C530.293 435.328 528.298 433.656 526.714 431.544C525.13 429.373 523.957 426.821 523.194 423.888C522.431 420.955 522.05 417.816 522.05 414.472C522.05 410.717 522.519 407.344 523.458 404.352C524.397 401.301 525.717 398.72 527.418 396.608C529.178 394.496 531.29 392.883 533.754 391.768C536.277 390.653 539.122 390.096 542.29 390.096C544.695 390.096 547.13 390.595 549.594 391.592C552.058 392.531 554.346 394.349 556.458 397.048V374.168H564.114V437H556.634V430.488ZM556.722 412.888C556.722 409.251 556.311 406.435 555.49 404.44C554.727 402.387 553.437 400.656 551.618 399.248C550.327 398.192 549.007 397.459 547.658 397.048C546.367 396.637 544.93 396.432 543.346 396.432C541.469 396.432 539.709 396.755 538.066 397.4C536.482 398.045 535.074 399.101 533.842 400.568C532.669 401.976 531.73 403.824 531.026 406.112C530.381 408.341 530.058 411.069 530.058 414.296C530.058 417.64 530.41 420.456 531.114 422.744C531.877 425.032 532.845 426.851 534.018 428.2C535.25 429.549 536.599 430.517 538.066 431.104C539.591 431.691 541.146 431.984 542.73 431.984C544.431 431.984 545.957 431.779 547.306 431.368C548.655 430.957 550.005 430.253 551.354 429.256C553.114 427.848 554.434 426.088 555.314 423.976C556.253 421.864 556.722 419.195 556.722 415.968V412.888ZM613.544 424.24C612.781 428.64 610.816 432.101 607.648 434.624C604.538 437.147 600.05 438.408 594.184 438.408C587.261 438.408 581.952 436.325 578.256 432.16C574.56 427.936 572.712 422.069 572.712 414.56C572.712 410.629 573.24 407.139 574.296 404.088C575.352 401.037 576.818 398.485 578.696 396.432C580.632 394.379 582.92 392.824 585.56 391.768C588.2 390.653 591.074 390.096 594.184 390.096C597.704 390.096 600.725 390.653 603.248 391.768C605.77 392.883 607.824 394.437 609.408 396.432C611.05 398.368 612.253 400.685 613.016 403.384C613.837 406.083 614.248 409.045 614.248 412.272V416.144H580.456C580.456 418.432 580.749 420.573 581.336 422.568C581.981 424.504 582.861 426.205 583.976 427.672C585.149 429.08 586.586 430.195 588.288 431.016C589.989 431.837 591.954 432.248 594.184 432.248C597.997 432.248 600.784 431.544 602.544 430.136C604.304 428.669 605.506 426.704 606.152 424.24H613.544ZM606.592 410.424C606.592 408.253 606.357 406.288 605.888 404.528C605.418 402.768 604.685 401.272 603.688 400.04C602.69 398.749 601.4 397.752 599.816 397.048C598.232 396.344 596.325 395.992 594.096 395.992C590.048 395.992 586.88 397.224 584.592 399.688C582.362 402.152 581.042 405.731 580.632 410.424H606.592ZM643.197 397.576H636.069V391.504H643.197V387.544C643.197 385.08 643.549 382.968 644.253 381.208C645.016 379.448 646.013 378.011 647.245 376.896C648.536 375.723 650.002 374.872 651.645 374.344C653.346 373.757 655.136 373.464 657.013 373.464C658.362 373.464 659.653 373.552 660.885 373.728C662.117 373.845 663.408 374.109 664.757 374.52L663.525 380.504C662.586 380.211 661.677 380.035 660.797 379.976C659.976 379.859 659.154 379.8 658.333 379.8C656.28 379.8 654.52 380.357 653.053 381.472C651.586 382.528 650.853 384.493 650.853 387.368V391.504H662.381V397.576H650.853V437H643.197V397.576ZM686.797 438.408C683.336 438.408 680.256 437.851 677.557 436.736C674.858 435.621 672.57 434.037 670.693 431.984C668.815 429.931 667.378 427.408 666.381 424.416C665.383 421.424 664.885 418.08 664.885 414.384C664.885 410.688 665.413 407.344 666.469 404.352C667.525 401.36 669.021 398.808 670.957 396.696C672.893 394.584 675.21 392.971 677.909 391.856C680.666 390.683 683.717 390.096 687.061 390.096C690.464 390.096 693.514 390.653 696.213 391.768C698.912 392.883 701.2 394.496 703.077 396.608C705.013 398.661 706.48 401.155 707.477 404.088C708.474 407.021 708.973 410.336 708.973 414.032C708.973 417.787 708.445 421.16 707.389 424.152C706.392 427.144 704.925 429.696 702.989 431.808C701.112 433.92 698.794 435.563 696.037 436.736C693.28 437.851 690.2 438.408 686.797 438.408ZM686.885 432.072C689.349 432.072 691.461 431.632 693.221 430.752C694.981 429.872 696.418 428.64 697.533 427.056C698.706 425.472 699.557 423.595 700.085 421.424C700.613 419.195 700.877 416.76 700.877 414.12C700.877 411.539 700.613 409.163 700.085 406.992C699.557 404.821 698.706 402.973 697.533 401.448C696.418 399.864 694.981 398.632 693.221 397.752C691.461 396.872 689.349 396.432 686.885 396.432C684.421 396.432 682.309 396.872 680.549 397.752C678.848 398.632 677.41 399.864 676.237 401.448C675.122 402.973 674.301 404.821 673.773 406.992C673.245 409.163 672.981 411.568 672.981 414.208C672.981 416.848 673.245 419.253 673.773 421.424C674.301 423.595 675.122 425.472 676.237 427.056C677.352 428.64 678.789 429.872 680.549 430.752C682.309 431.632 684.421 432.072 686.885 432.072ZM717.472 391.504H725.04V398.544C726.742 396.021 728.736 394.085 731.024 392.736C733.312 391.387 735.747 390.712 738.328 390.712C739.912 390.712 741.262 390.829 742.376 391.064L741.408 398.192C740.822 398.075 740.235 397.987 739.648 397.928C739.062 397.811 738.416 397.752 737.712 397.752C736.304 397.752 734.867 398.016 733.4 398.544C731.934 399.013 730.555 399.835 729.264 401.008C727.974 402.123 726.947 403.413 726.184 404.88C725.48 406.347 725.128 408.048 725.128 409.984V437H717.472V391.504ZM768.413 397.576H761.373V391.504H768.413V379.096H776.069V391.504H788.125V397.576H776.069V424.24C776.069 426.469 776.567 428.259 777.565 429.608C778.562 430.957 780.087 431.632 782.141 431.632C783.431 431.632 784.546 431.544 785.485 431.368C786.482 431.192 787.391 430.957 788.213 430.664L789.533 436.56C788.359 436.971 787.069 437.293 785.661 437.528C784.311 437.821 782.698 437.968 780.821 437.968C778.239 437.968 776.157 437.587 774.573 436.824C772.989 436.061 771.727 434.976 770.789 433.568C769.85 432.16 769.205 430.488 768.853 428.552C768.559 426.616 768.413 424.504 768.413 422.216V397.576ZM813.647 438.408C810.186 438.408 807.106 437.851 804.407 436.736C801.709 435.621 799.421 434.037 797.543 431.984C795.666 429.931 794.229 427.408 793.231 424.416C792.234 421.424 791.735 418.08 791.735 414.384C791.735 410.688 792.263 407.344 793.319 404.352C794.375 401.36 795.871 398.808 797.807 396.696C799.743 394.584 802.061 392.971 804.759 391.856C807.517 390.683 810.567 390.096 813.911 390.096C817.314 390.096 820.365 390.653 823.063 391.768C825.762 392.883 828.05 394.496 829.927 396.608C831.863 398.661 833.33 401.155 834.327 404.088C835.325 407.021 835.823 410.336 835.823 414.032C835.823 417.787 835.295 421.16 834.239 424.152C833.242 427.144 831.775 429.696 829.839 431.808C827.962 433.92 825.645 435.563 822.887 436.736C820.13 437.851 817.05 438.408 813.647 438.408ZM813.735 432.072C816.199 432.072 818.311 431.632 820.071 430.752C821.831 429.872 823.269 428.64 824.383 427.056C825.557 425.472 826.407 423.595 826.935 421.424C827.463 419.195 827.727 416.76 827.727 414.12C827.727 411.539 827.463 409.163 826.935 406.992C826.407 404.821 825.557 402.973 824.383 401.448C823.269 399.864 821.831 398.632 820.071 397.752C818.311 396.872 816.199 396.432 813.735 396.432C811.271 396.432 809.159 396.872 807.399 397.752C805.698 398.632 804.261 399.864 803.087 401.448C801.973 402.973 801.151 404.821 800.623 406.992C800.095 409.163 799.831 411.568 799.831 414.208C799.831 416.848 800.095 419.253 800.623 421.424C801.151 423.595 801.973 425.472 803.087 427.056C804.202 428.64 805.639 429.872 807.399 430.752C809.159 431.632 811.271 432.072 813.735 432.072ZM877.411 430.488C875.534 433.011 873.363 434.976 870.899 436.384C868.435 437.733 865.531 438.408 862.187 438.408C858.843 438.408 855.939 437.792 853.475 436.56C851.07 435.328 849.075 433.656 847.491 431.544C845.907 429.373 844.734 426.821 843.971 423.888C843.208 420.955 842.827 417.816 842.827 414.472C842.827 410.717 843.296 407.344 844.235 404.352C845.174 401.301 846.494 398.72 848.195 396.608C849.955 394.496 852.067 392.883 854.531 391.768C857.054 390.653 859.899 390.096 863.067 390.096C865.472 390.096 867.907 390.595 870.371 391.592C872.835 392.531 875.123 394.349 877.235 397.048V374.168H884.891V437H877.411V430.488ZM877.499 412.888C877.499 409.251 877.088 406.435 876.267 404.44C875.504 402.387 874.214 400.656 872.395 399.248C871.104 398.192 869.784 397.459 868.435 397.048C867.144 396.637 865.707 396.432 864.123 396.432C862.246 396.432 860.486 396.755 858.843 397.4C857.259 398.045 855.851 399.101 854.619 400.568C853.446 401.976 852.507 403.824 851.803 406.112C851.158 408.341 850.835 411.069 850.835 414.296C850.835 417.64 851.187 420.456 851.891 422.744C852.654 425.032 853.622 426.851 854.795 428.2C856.027 429.549 857.376 430.517 858.843 431.104C860.368 431.691 861.923 431.984 863.507 431.984C865.208 431.984 866.734 431.779 868.083 431.368C869.432 430.957 870.782 430.253 872.131 429.256C873.891 427.848 875.211 426.088 876.091 423.976C877.03 421.864 877.499 419.195 877.499 415.968V412.888ZM923.321 430.752C921.678 432.747 919.596 434.477 917.073 435.944C914.55 437.352 911.412 438.056 907.657 438.056C905.369 438.056 903.257 437.763 901.321 437.176C899.444 436.648 897.801 435.827 896.393 434.712C895.044 433.539 893.988 432.101 893.225 430.4C892.462 428.699 892.081 426.704 892.081 424.416C892.081 421.307 892.726 418.784 894.017 416.848C895.366 414.912 897.126 413.387 899.297 412.272C901.526 411.157 904.02 410.365 906.777 409.896C909.534 409.427 912.38 409.133 915.313 409.016L923.145 408.752V406.992C923.145 403.12 922.324 400.333 920.681 398.632C919.038 396.931 916.369 396.08 912.673 396.08C909.036 396.08 906.366 396.696 904.665 397.928C902.964 399.101 901.849 400.744 901.321 402.856L894.369 402.064C895.19 397.899 897.156 394.877 900.265 393C903.374 391.064 907.598 390.096 912.937 390.096C916.222 390.096 918.98 390.507 921.209 391.328C923.497 392.091 925.345 393.205 926.753 394.672C928.161 396.139 929.158 397.957 929.745 400.128C930.39 402.299 930.713 404.733 930.713 407.432V437H923.321V430.752ZM923.145 414.208L915.841 414.472C912.732 414.589 910.15 414.883 908.097 415.352C906.044 415.821 904.401 416.467 903.169 417.288C901.996 418.051 901.145 419.019 900.617 420.192C900.148 421.365 899.913 422.715 899.913 424.24C899.913 426.528 900.588 428.376 901.937 429.784C903.345 431.133 905.633 431.808 908.801 431.808C913.318 431.808 916.838 430.693 919.361 428.464C921.884 426.235 923.145 423.184 923.145 419.312V414.208ZM939.541 446.68C941.184 447.267 942.826 447.56 944.469 447.56C946.346 447.56 947.784 447.061 948.781 446.064C949.837 445.125 950.864 443.336 951.861 440.696L953.709 435.856L934.437 391.504H943.325L957.669 427.232L970.781 391.504H979.229L959.341 441.312C958.52 443.365 957.698 445.155 956.877 446.68C956.056 448.264 955.146 449.613 954.149 450.728C953.152 451.843 951.949 452.664 950.541 453.192C949.192 453.779 947.52 454.072 945.525 454.072C944.117 454.072 942.856 453.984 941.741 453.808C940.626 453.632 939.394 453.309 938.045 452.84L939.541 446.68ZM986.002 374.168H994.098L989.522 393.176H983.362L986.002 374.168ZM1007.21 423.712C1007.74 426.88 1009.06 429.109 1011.17 430.4C1013.34 431.632 1016.27 432.248 1019.97 432.248C1023.84 432.248 1026.57 431.603 1028.15 430.312C1029.8 428.963 1030.62 427.203 1030.62 425.032C1030.62 424.152 1030.5 423.331 1030.27 422.568C1030.09 421.747 1029.71 421.043 1029.12 420.456C1028.54 419.811 1027.71 419.253 1026.66 418.784C1025.6 418.315 1024.22 417.933 1022.52 417.64L1016.71 416.76C1014.13 416.349 1011.87 415.821 1009.94 415.176C1008 414.531 1006.36 413.709 1005.01 412.712C1003.66 411.656 1002.63 410.395 1001.93 408.928C1001.29 407.403 1000.96 405.584 1000.96 403.472C1000.96 401.36 1001.4 399.483 1002.28 397.84C1003.22 396.197 1004.48 394.819 1006.07 393.704C1007.71 392.531 1009.62 391.651 1011.79 391.064C1014.02 390.419 1016.42 390.096 1019 390.096C1022.29 390.096 1025.02 390.419 1027.19 391.064C1029.42 391.709 1031.23 392.589 1032.64 393.704C1034.05 394.819 1035.14 396.139 1035.9 397.664C1036.66 399.189 1037.25 400.803 1037.66 402.504L1030.71 403.648C1030.3 402.416 1029.83 401.331 1029.3 400.392C1028.77 399.453 1028.07 398.691 1027.19 398.104C1026.31 397.459 1025.22 396.989 1023.93 396.696C1022.7 396.344 1021.14 396.168 1019.27 396.168C1017.15 396.168 1015.39 396.373 1013.99 396.784C1012.58 397.136 1011.43 397.635 1010.55 398.28C1009.73 398.925 1009.15 399.659 1008.79 400.48C1008.44 401.243 1008.27 402.064 1008.27 402.944C1008.27 403.883 1008.38 404.733 1008.62 405.496C1008.85 406.2 1009.29 406.845 1009.94 407.432C1010.58 407.96 1011.46 408.429 1012.58 408.84C1013.69 409.251 1015.13 409.603 1016.89 409.896L1023.49 410.952C1028.83 411.832 1032.64 413.357 1034.93 415.528C1037.28 417.699 1038.45 420.867 1038.45 425.032C1038.45 426.968 1038.07 428.757 1037.31 430.4C1036.54 431.984 1035.4 433.392 1033.87 434.624C1032.35 435.797 1030.44 436.707 1028.15 437.352C1025.87 438.056 1023.2 438.408 1020.15 438.408C1017.39 438.408 1014.81 438.144 1012.4 437.616C1010.06 437.088 1007.97 436.267 1006.15 435.152C1004.34 433.979 1002.87 432.453 1001.75 430.576C1000.64 428.699 999.995 426.411 999.819 423.712H1007.21ZM603.644 517.6C602.881 522.821 600.887 526.928 597.66 529.92C594.433 532.912 589.887 534.408 584.02 534.408C580.559 534.408 577.479 533.851 574.78 532.736C572.14 531.621 569.911 530.037 568.092 527.984C566.332 525.872 564.983 523.349 564.044 520.416C563.164 517.424 562.724 514.08 562.724 510.384C562.724 506.747 563.223 503.432 564.22 500.44C565.217 497.448 566.655 494.896 568.532 492.784C570.409 490.672 572.697 489.029 575.396 487.856C578.095 486.683 581.145 486.096 584.548 486.096C590.004 486.096 594.228 487.445 597.22 490.144C600.212 492.784 602.119 496.451 602.94 501.144L595.284 502.552C594.991 501.085 594.58 499.736 594.052 498.504C593.583 497.272 592.908 496.216 592.028 495.336C591.148 494.397 590.063 493.693 588.772 493.224C587.54 492.696 586.044 492.432 584.284 492.432C581.879 492.432 579.825 492.901 578.124 493.84C576.423 494.72 575.015 495.981 573.9 497.624C572.844 499.208 572.052 501.085 571.524 503.256C571.055 505.427 570.82 507.744 570.82 510.208C570.82 512.672 571.055 514.989 571.524 517.16C571.993 519.331 572.756 521.237 573.812 522.88C574.868 524.464 576.247 525.725 577.948 526.664C579.649 527.603 581.732 528.072 584.196 528.072C587.892 528.072 590.62 527.133 592.38 525.256C594.199 523.379 595.372 520.827 595.9 517.6H603.644ZM611.616 487.504H619.184V494.544C620.886 492.021 622.88 490.085 625.168 488.736C627.456 487.387 629.891 486.712 632.472 486.712C634.056 486.712 635.406 486.829 636.52 487.064L635.552 494.192C634.966 494.075 634.379 493.987 633.792 493.928C633.206 493.811 632.56 493.752 631.856 493.752C630.448 493.752 629.011 494.016 627.544 494.544C626.078 495.013 624.699 495.835 623.408 497.008C622.118 498.123 621.091 499.413 620.328 500.88C619.624 502.347 619.272 504.048 619.272 505.984V533H611.616V487.504ZM678.755 520.24C677.992 524.64 676.027 528.101 672.859 530.624C669.749 533.147 665.261 534.408 659.395 534.408C652.472 534.408 647.163 532.325 643.467 528.16C639.771 523.936 637.923 518.069 637.923 510.56C637.923 506.629 638.451 503.139 639.507 500.088C640.563 497.037 642.029 494.485 643.907 492.432C645.843 490.379 648.131 488.824 650.771 487.768C653.411 486.653 656.285 486.096 659.395 486.096C662.915 486.096 665.936 486.653 668.459 487.768C670.981 488.883 673.035 490.437 674.619 492.432C676.261 494.368 677.464 496.685 678.227 499.384C679.048 502.083 679.459 505.045 679.459 508.272V512.144H645.667C645.667 514.432 645.96 516.573 646.547 518.568C647.192 520.504 648.072 522.205 649.187 523.672C650.36 525.08 651.797 526.195 653.499 527.016C655.2 527.837 657.165 528.248 659.395 528.248C663.208 528.248 665.995 527.544 667.755 526.136C669.515 524.669 670.717 522.704 671.363 520.24H678.755ZM671.803 506.424C671.803 504.253 671.568 502.288 671.099 500.528C670.629 498.768 669.896 497.272 668.899 496.04C667.901 494.749 666.611 493.752 665.027 493.048C663.443 492.344 661.536 491.992 659.307 491.992C655.259 491.992 652.091 493.224 649.803 495.688C647.573 498.152 646.253 501.731 645.843 506.424H671.803ZM716.182 526.752C714.54 528.747 712.457 530.477 709.934 531.944C707.412 533.352 704.273 534.056 700.518 534.056C698.23 534.056 696.118 533.763 694.182 533.176C692.305 532.648 690.662 531.827 689.254 530.712C687.905 529.539 686.849 528.101 686.086 526.4C685.324 524.699 684.942 522.704 684.942 520.416C684.942 517.307 685.588 514.784 686.878 512.848C688.228 510.912 689.988 509.387 692.158 508.272C694.388 507.157 696.881 506.365 699.638 505.896C702.396 505.427 705.241 505.133 708.174 505.016L716.006 504.752V502.992C716.006 499.12 715.185 496.333 713.542 494.632C711.9 492.931 709.23 492.08 705.534 492.08C701.897 492.08 699.228 492.696 697.526 493.928C695.825 495.101 694.71 496.744 694.182 498.856L687.23 498.064C688.052 493.899 690.017 490.877 693.126 489C696.236 487.064 700.46 486.096 705.798 486.096C709.084 486.096 711.841 486.507 714.07 487.328C716.358 488.091 718.206 489.205 719.614 490.672C721.022 492.139 722.02 493.957 722.606 496.128C723.252 498.299 723.574 500.733 723.574 503.432V533H716.182V526.752ZM716.006 510.208L708.702 510.472C705.593 510.589 703.012 510.883 700.958 511.352C698.905 511.821 697.262 512.467 696.03 513.288C694.857 514.051 694.006 515.019 693.478 516.192C693.009 517.365 692.774 518.715 692.774 520.24C692.774 522.528 693.449 524.376 694.798 525.784C696.206 527.133 698.494 527.808 701.662 527.808C706.18 527.808 709.7 526.693 712.222 524.464C714.745 522.235 716.006 519.184 716.006 515.312V510.208ZM736.078 493.576H729.038V487.504H736.078V475.096H743.734V487.504H755.79V493.576H743.734V520.24C743.734 522.469 744.233 524.259 745.23 525.608C746.227 526.957 747.753 527.632 749.806 527.632C751.097 527.632 752.211 527.544 753.15 527.368C754.147 527.192 755.057 526.957 755.878 526.664L757.198 532.56C756.025 532.971 754.734 533.293 753.326 533.528C751.977 533.821 750.363 533.968 748.486 533.968C745.905 533.968 743.822 533.587 742.238 532.824C740.654 532.061 739.393 530.976 738.454 529.568C737.515 528.16 736.87 526.488 736.518 524.552C736.225 522.616 736.078 520.504 736.078 518.216V493.576ZM781.313 534.408C777.851 534.408 774.771 533.851 772.073 532.736C769.374 531.621 767.086 530.037 765.209 527.984C763.331 525.931 761.894 523.408 760.897 520.416C759.899 517.424 759.401 514.08 759.401 510.384C759.401 506.688 759.929 503.344 760.985 500.352C762.041 497.36 763.537 494.808 765.473 492.696C767.409 490.584 769.726 488.971 772.425 487.856C775.182 486.683 778.233 486.096 781.577 486.096C784.979 486.096 788.03 486.653 790.729 487.768C793.427 488.883 795.715 490.496 797.593 492.608C799.529 494.661 800.995 497.155 801.993 500.088C802.99 503.021 803.489 506.336 803.489 510.032C803.489 513.787 802.961 517.16 801.905 520.152C800.907 523.144 799.441 525.696 797.505 527.808C795.627 529.92 793.31 531.563 790.553 532.736C787.795 533.851 784.715 534.408 781.313 534.408ZM781.401 528.072C783.865 528.072 785.977 527.632 787.737 526.752C789.497 525.872 790.934 524.64 792.049 523.056C793.222 521.472 794.073 519.595 794.601 517.424C795.129 515.195 795.393 512.76 795.393 510.12C795.393 507.539 795.129 505.163 794.601 502.992C794.073 500.821 793.222 498.973 792.049 497.448C790.934 495.864 789.497 494.632 787.737 493.752C785.977 492.872 783.865 492.432 781.401 492.432C778.937 492.432 776.825 492.872 775.065 493.752C773.363 494.632 771.926 495.864 770.753 497.448C769.638 498.973 768.817 500.821 768.289 502.992C767.761 505.163 767.497 507.568 767.497 510.208C767.497 512.848 767.761 515.253 768.289 517.424C768.817 519.595 769.638 521.472 770.753 523.056C771.867 524.64 773.305 525.872 775.065 526.752C776.825 527.632 778.937 528.072 781.401 528.072ZM811.988 487.504H819.556V494.544C821.257 492.021 823.252 490.085 825.54 488.736C827.828 487.387 830.263 486.712 832.844 486.712C834.428 486.712 835.777 486.829 836.892 487.064L835.924 494.192C835.337 494.075 834.751 493.987 834.164 493.928C833.577 493.811 832.932 493.752 832.228 493.752C830.82 493.752 829.383 494.016 827.916 494.544C826.449 495.013 825.071 495.835 823.78 497.008C822.489 498.123 821.463 499.413 820.7 500.88C819.996 502.347 819.644 504.048 819.644 505.984V533H811.988V487.504ZM846.523 519.712C847.051 522.88 848.371 525.109 850.483 526.4C852.654 527.632 855.587 528.248 859.283 528.248C863.155 528.248 865.883 527.603 867.467 526.312C869.11 524.963 869.931 523.203 869.931 521.032C869.931 520.152 869.814 519.331 869.579 518.568C869.403 517.747 869.022 517.043 868.435 516.456C867.849 515.811 867.027 515.253 865.971 514.784C864.915 514.315 863.537 513.933 861.835 513.64L856.027 512.76C853.446 512.349 851.187 511.821 849.251 511.176C847.315 510.531 845.673 509.709 844.323 508.712C842.974 507.656 841.947 506.395 841.243 504.928C840.598 503.403 840.275 501.584 840.275 499.472C840.275 497.36 840.715 495.483 841.595 493.84C842.534 492.197 843.795 490.819 845.379 489.704C847.022 488.531 848.929 487.651 851.099 487.064C853.329 486.419 855.734 486.096 858.315 486.096C861.601 486.096 864.329 486.419 866.499 487.064C868.729 487.709 870.547 488.589 871.955 489.704C873.363 490.819 874.449 492.139 875.211 493.664C875.974 495.189 876.561 496.803 876.971 498.504L870.019 499.648C869.609 498.416 869.139 497.331 868.611 496.392C868.083 495.453 867.379 494.691 866.499 494.104C865.619 493.459 864.534 492.989 863.243 492.696C862.011 492.344 860.457 492.168 858.579 492.168C856.467 492.168 854.707 492.373 853.299 492.784C851.891 493.136 850.747 493.635 849.867 494.28C849.046 494.925 848.459 495.659 848.107 496.48C847.755 497.243 847.579 498.064 847.579 498.944C847.579 499.883 847.697 500.733 847.931 501.496C848.166 502.2 848.606 502.845 849.251 503.432C849.897 503.96 850.777 504.429 851.891 504.84C853.006 505.251 854.443 505.603 856.203 505.896L862.803 506.952C868.142 507.832 871.955 509.357 874.243 511.528C876.59 513.699 877.763 516.867 877.763 521.032C877.763 522.968 877.382 524.757 876.619 526.4C875.857 527.984 874.713 529.392 873.187 530.624C871.662 531.797 869.755 532.707 867.467 533.352C865.179 534.056 862.51 534.408 859.459 534.408C856.702 534.408 854.121 534.144 851.715 533.616C849.369 533.088 847.286 532.267 845.467 531.152C843.649 529.979 842.182 528.453 841.067 526.576C839.953 524.699 839.307 522.411 839.131 519.712H846.523Z" fill="white"/>
</svg>
