<svg width="350" height="435" viewBox="0 0 350 435" fill="none" xmlns="http://www.w3.org/2000/svg">
<path d="M175.124 217.645H0.735221C0.66619 217.645 0.610229 217.7 0.610229 217.77V347.968C0.610229 348.037 0.666183 348.093 0.735213 348.093H175.118C175.146 348.093 175.173 348.102 175.196 348.12L283.101 434.355C283.183 434.421 283.304 434.362 283.304 434.258V282.823C283.304 282.78 283.281 282.739 283.244 282.716L175.188 217.662C175.169 217.651 175.146 217.645 175.124 217.645Z" fill="url(#paint0_linear_824_86275)"/>
<path d="M175.261 217.645H349.649C349.718 217.645 349.774 217.589 349.774 217.52V87.3214C349.774 87.2523 349.718 87.1964 349.649 87.1964H175.266C175.238 87.1964 175.211 87.1867 175.188 87.169L67.2827 0.933823C67.2008 0.868408 67.0797 0.926682 67.0797 1.03146V152.466C67.0797 152.51 67.1026 152.55 67.1402 152.573L175.196 217.627C175.216 217.638 175.238 217.645 175.261 217.645Z" fill="url(#paint1_linear_824_86275)"/>
<path d="M175.144 217.645H0.660226C0.632614 217.645 0.610229 217.667 0.610229 217.695V348.043C0.610229 348.07 0.632619 348.093 0.660231 348.093H175.144C175.155 348.093 175.166 348.097 175.175 348.104L283.223 434.453C283.256 434.479 283.304 434.455 283.304 434.414V282.781C283.304 282.763 283.295 282.747 283.28 282.738L175.17 217.652C175.162 217.647 175.153 217.645 175.144 217.645Z" fill="#BBDCD2"/>
<path d="M175.24 217.645H349.724C349.751 217.645 349.774 217.622 349.774 217.595V87.2464C349.774 87.2188 349.751 87.1964 349.724 87.1964H175.24C175.229 87.1964 175.218 87.1925 175.209 87.1855L67.1609 0.836472C67.1281 0.810303 67.0797 0.833618 67.0797 0.875534V152.508C67.0797 152.526 67.0888 152.542 67.1039 152.551L175.214 217.637C175.222 217.642 175.231 217.645 175.24 217.645Z" fill="url(#paint2_linear_824_86275)"/>
<defs>
<linearGradient id="paint0_linear_824_86275" x1="283.301" y1="434.518" x2="-0.397198" y2="218.97" gradientUnits="userSpaceOnUse">
<stop stop-color="#83BEAD"/>
<stop offset="0.292341" stop-color="#94CABB"/>
<stop offset="0.651505" stop-color="#C3ECE0"/>
<stop offset="1" stop-color="#B9DBD1"/>
</linearGradient>
<linearGradient id="paint1_linear_824_86275" x1="67.083" y1="0.770595" x2="350.781" y2="216.319" gradientUnits="userSpaceOnUse">
<stop stop-color="#83BEAD"/>
<stop offset="0.292341" stop-color="#94CABB"/>
<stop offset="0.651505" stop-color="#C3ECE0"/>
<stop offset="1" stop-color="#B9DBD1"/>
</linearGradient>
<linearGradient id="paint2_linear_824_86275" x1="67.083" y1="0.770595" x2="350.781" y2="216.319" gradientUnits="userSpaceOnUse">
<stop stop-color="#83BEAD"/>
<stop offset="0.292341" stop-color="#94CABB"/>
<stop offset="0.651505" stop-color="#C3ECE0"/>
<stop offset="1" stop-color="#B9DBD1"/>
</linearGradient>
</defs>
</svg>
