<svg width="32" height="32" viewBox="0 0 32 32" fill="none" xmlns="http://www.w3.org/2000/svg">
<path fill-rule="evenodd" clip-rule="evenodd" d="M11.3017 4.80005C7.72096 4.80005 4.7998 7.7212 4.7998 11.302V20.6981C4.7998 24.2789 7.72096 27.2001 11.3017 27.2001H20.6979C24.2787 27.2001 27.1998 24.2789 27.1998 20.6981V11.302C27.1998 7.7212 24.2787 4.80005 20.6979 4.80005H11.3017ZM11.3017 6.52313H20.6979C23.3464 6.52313 25.4767 8.65005 25.4767 11.302V20.6981C25.4767 23.3467 23.3498 25.477 20.6979 25.477H11.3017C8.65317 25.477 6.52288 23.35 6.52288 20.6981V11.302C6.52288 8.65341 8.6498 6.52313 11.3017 6.52313ZM22.4613 8.2462C21.7479 8.2462 21.169 8.82505 21.169 9.53851C21.169 10.252 21.7479 10.8308 22.4613 10.8308C23.1748 10.8308 23.7537 10.252 23.7537 9.53851C23.7537 8.82505 23.1748 8.2462 22.4613 8.2462ZM15.9998 9.96928C12.6782 9.96928 9.96904 12.6784 9.96904 16C9.96904 19.3217 12.6782 22.0308 15.9998 22.0308C19.3214 22.0308 22.0306 19.3217 22.0306 16C22.0306 12.6784 19.3214 9.96928 15.9998 9.96928ZM15.9998 11.6924C18.3892 11.6924 20.3075 13.6106 20.3075 16C20.3075 18.3895 18.3892 20.3077 15.9998 20.3077C13.6104 20.3077 11.6921 18.3895 11.6921 16C11.6921 13.6106 13.6104 11.6924 15.9998 11.6924Z" fill="white"/>
</svg>
