<svg width="32" height="32" viewBox="0 0 32 32" fill="none" xmlns="http://www.w3.org/2000/svg">
<path fill-rule="evenodd" clip-rule="evenodd" d="M30.3996 4.80005C29.2764 5.44821 27.0228 6.33155 25.698 6.58634C25.6591 6.59614 25.6274 6.60874 25.59 6.61854C24.4193 5.49581 22.8151 4.80005 21.0396 4.80005C17.4612 4.80005 14.5596 7.62087 14.5596 11.0997C14.5596 11.283 14.5438 11.6204 14.5596 11.7996C9.73129 11.7996 6.05641 9.34137 3.42121 6.19996C3.13465 6.89992 3.00937 8.00585 3.00937 9.04458C3.00937 11.0059 4.58617 12.9321 7.04137 14.1263C6.58921 14.2397 6.09097 14.3209 5.57257 14.3209C4.73593 14.3209 3.85033 14.1067 3.03961 13.4571C3.03961 13.4809 3.03961 13.5033 3.03961 13.5285C3.03961 16.2695 6.03193 18.1356 8.69305 18.655C8.15305 18.9644 7.06441 18.9952 6.53305 18.9952C6.15865 18.9952 4.83385 18.8286 4.47961 18.7642C5.21977 21.011 7.88953 22.2738 10.434 22.3186C8.44393 23.8361 7.06297 24.3988 2.98777 24.3988H1.59961C4.17433 26.0031 7.45321 27.2001 10.7393 27.2001C21.4385 27.2001 27.5196 19.2723 27.5196 11.7996C27.5196 11.6792 27.5167 11.4272 27.5124 11.1739C27.5124 11.1487 27.5196 11.1249 27.5196 11.0997C27.5196 11.0619 27.5081 11.0255 27.5081 10.9877C27.5038 10.7973 27.4994 10.6195 27.4951 10.5271C28.6327 9.72914 29.6191 8.7338 30.3996 7.59987C29.3556 8.05065 28.2353 8.35303 27.0588 8.49022C28.2598 7.79026 29.9662 6.12157 30.3996 4.80005Z" fill="white"/>
</svg>
