<svg width="40" height="40" viewBox="0 0 40 40" fill="none" xmlns="http://www.w3.org/2000/svg">
<g clip-path="url(#clip0_4193_193605)">
<g clip-path="url(#clip1_4193_193605)">
<path d="M29.5788 22.734C26.8875 19.4846 23.4858 17.6951 20 17.6951C16.5142 17.6951 13.1124 19.4846 10.4214 22.734C8.00229 25.6547 6.55823 29.3356 6.55823 32.5805C6.55823 34.1567 7.0401 35.3573 7.99042 36.1491C8.92838 36.9307 10.1667 37.1951 11.5483 37.195C13.0184 37.195 14.6507 36.8956 16.2546 36.6014C17.656 36.3443 18.9798 36.1015 20.0001 36.1015C20.8807 36.1015 22.1224 36.3319 23.4367 36.5759C26.5083 37.1462 29.9899 37.7925 32.001 36.1203C32.9571 35.3254 33.4419 34.1344 33.4419 32.5805C33.442 29.3356 31.9978 25.6547 29.5788 22.734ZM30.5026 34.3181C29.3367 35.2876 26.3024 34.7242 23.8643 34.2716C22.4408 34.0073 21.0963 33.7577 19.9999 33.7577C18.7664 33.7577 17.3409 34.0193 15.8315 34.2962C13.4931 34.7251 10.583 35.259 9.49049 34.3486C9.34487 34.2273 8.90174 33.858 8.90174 32.5804C8.90174 29.9049 10.1756 26.7048 12.2262 24.2289C14.4641 21.5269 17.2249 20.0387 19.9999 20.0387C22.7749 20.0387 25.5357 21.5269 27.7735 24.2289C29.8242 26.7048 31.098 29.9049 31.098 32.5804C31.0982 33.823 30.6499 34.1957 30.5026 34.3181Z" fill="#BBDCD2"/>
<path d="M29.8539 5.08947C28.8692 3.63768 27.4592 2.80518 25.9854 2.80518C24.5115 2.80518 23.1015 3.63783 22.1168 5.08947C21.2123 6.42314 20.7141 8.17455 20.7141 10.0211C20.7141 11.8677 21.2122 13.6191 22.1168 14.9528C23.1015 16.4045 24.5115 17.2371 25.9854 17.2371C27.4593 17.2371 28.8692 16.4045 29.8539 14.9528C30.7584 13.6191 31.2566 11.8677 31.2566 10.0211C31.2566 8.17455 30.7585 6.42307 29.8539 5.08947ZM27.9143 13.6372C27.5961 14.1063 26.9223 14.8935 25.9854 14.8935C25.0484 14.8935 24.3747 14.1064 24.0565 13.6372C23.4218 12.7014 23.0578 11.3834 23.0578 10.0211C23.0578 8.65877 23.4218 7.3408 24.0565 6.40502C24.3747 5.93588 25.0484 5.14877 25.9854 5.14877C26.9223 5.14877 27.5961 5.9358 27.9143 6.40502C28.549 7.3408 28.9129 8.65885 28.9129 10.0211C28.9129 11.3834 28.549 12.7014 27.9143 13.6372Z" fill="#BBDCD2"/>
<path d="M17.8832 5.08955C16.8985 3.63775 15.4886 2.80518 14.0147 2.80518C12.5408 2.80518 11.1308 3.63783 10.1461 5.08955C9.24161 6.42322 8.74341 8.17463 8.74341 10.0212C8.74341 11.8678 9.24153 13.6192 10.1461 14.9528C11.1308 16.4046 12.5408 17.2373 14.0147 17.2373C15.4886 17.2373 16.8985 16.4046 17.8832 14.9528C18.7877 13.6192 19.2859 11.8678 19.2859 10.0212C19.2858 8.17463 18.7877 6.42314 17.8832 5.08955ZM15.9434 13.6374C15.6252 14.1065 14.9515 14.8936 14.0146 14.8936C13.0776 14.8936 12.4039 14.1065 12.0857 13.6374C11.451 12.7016 11.087 11.3835 11.087 10.0213C11.087 8.65893 11.4511 7.34096 12.0857 6.40518C12.4039 5.93604 13.0776 5.14893 14.0146 5.14893C14.9515 5.14893 15.6252 5.93596 15.9434 6.40518C16.5781 7.34096 16.9421 8.659 16.9421 10.0213C16.9421 11.3835 16.5781 12.7016 15.9434 13.6374Z" fill="#BBDCD2"/>
<path d="M39.7671 16.4167C39.3702 15.0663 38.5193 14.0852 37.3714 13.654C36.4477 13.3071 35.4049 13.3659 34.4353 13.8197C33.0989 14.445 32.0067 15.7363 31.4387 17.3623C30.9746 18.691 30.9167 20.0955 31.2758 21.3171C31.6728 22.6674 32.5236 23.6486 33.6716 24.0798C34.0688 24.229 34.488 24.3031 34.9139 24.3031C35.4785 24.3031 36.0551 24.1728 36.6078 23.9141C37.9442 23.2888 39.0364 21.9975 39.6044 20.3716V20.3715C40.0685 19.0428 40.1263 17.6383 39.7671 16.4167ZM37.3917 19.5986C37.0358 20.6174 36.3713 21.4371 35.6144 21.7913C35.336 21.9215 34.9161 22.0436 34.4956 21.8857C33.481 21.5046 33.0863 19.7519 33.6511 18.1352C34.0071 17.1163 34.6715 16.2967 35.4285 15.9424C35.6131 15.856 35.8598 15.7733 36.1276 15.7733C36.2638 15.7733 36.4056 15.7947 36.5472 15.8479C37.5619 16.2292 37.9566 17.9818 37.3917 19.5986Z" fill="#BBDCD2"/>
<path d="M8.56149 17.3622C7.99344 15.7362 6.90118 14.445 5.56493 13.8197C4.59516 13.3658 3.55235 13.3071 2.62867 13.654C1.48071 14.0852 0.629847 15.0664 0.232894 16.4166C-0.126247 17.6383 -0.0683563 19.0428 0.395784 20.3715V20.3715C0.963909 21.9976 2.0561 23.2887 3.39235 23.914C3.94516 24.1727 4.52164 24.3031 5.08625 24.3031C5.51219 24.3031 5.93141 24.2289 6.3286 24.0798C7.47672 23.6485 8.3275 22.6673 8.72446 21.3171C9.08344 20.0955 9.02555 18.691 8.56149 17.3622ZM5.50438 21.8858C5.08399 22.0437 4.66399 21.9215 4.38571 21.7914C3.62875 21.4372 2.96422 20.6175 2.60836 19.5987V19.5987C2.0436 17.9819 2.43821 16.2294 3.45289 15.8481C3.87321 15.6902 4.29328 15.8123 4.57164 15.9425C5.32867 16.2968 5.99313 17.1165 6.34899 18.1352C6.91375 19.752 6.51907 21.5046 5.50438 21.8858Z" fill="#BBDCD2"/>
</g>
</g>
<defs>
<clipPath id="clip0_4193_193605">
<rect width="40" height="40" fill="white"/>
</clipPath>
<clipPath id="clip1_4193_193605">
<rect width="40" height="40" fill="white"/>
</clipPath>
</defs>
</svg>
