<svg width="40" height="40" viewBox="0 0 40 40" fill="none" xmlns="http://www.w3.org/2000/svg">
<path d="M36.1666 16.0001C34.5 9.50011 29.1666 4.50011 22.6666 3.50011C17.8333 2.66678 13 4.16678 9.33331 7.33345C5.49998 10.5001 3.33331 15.3334 3.33331 20.3334C3.33331 27.6668 7.99998 34.1668 14.8333 36.5001C15.3333 36.6668 15.8333 36.8334 16.5 36.8334C17.5 36.8334 18.6666 36.5001 19.5 35.8334C20.8333 34.8334 21.6666 33.1668 21.6666 31.5001C21.6666 29.1668 23.5 27.6668 26 27.6668H29.5C33.5 27.6668 36.6666 24.5001 36.6666 20.5001C36.6666 18.8334 36.5 17.5001 36.1666 16.0001ZM29.5 24.1668H26C21.6666 24.1668 18.3333 27.3334 18.3333 31.3334C18.3333 32.0001 18 32.5001 17.5 33.0001C17.1666 33.1668 16.6666 33.5001 15.8333 33.3334C10.3333 31.5001 6.66665 26.1668 6.66665 20.3334C6.66665 16.3334 8.33331 12.5001 11.5 9.83345C13.8333 7.83345 16.8333 6.66678 20 6.66678C20.6666 6.66678 21.5 6.66678 22.1666 6.83345C27.3333 7.66678 31.6666 11.6668 33 16.8334C33.3333 18.0001 33.5 19.1668 33.5 20.3334C33.3333 22.5001 31.6666 24.1668 29.5 24.1668Z" fill="#BBDCD2"/>
<path d="M14.1327 23.7971C15.4164 23.0752 15.8717 21.4493 15.1498 20.1657C14.4278 18.882 12.802 18.4267 11.5183 19.1486C10.2346 19.8706 9.77928 21.4964 10.5012 22.7801C11.2232 24.0637 12.849 24.5191 14.1327 23.7971Z" fill="#BBDCD2"/>
<path d="M17.7927 15.4649C19.0764 14.7429 19.5317 13.1171 18.8098 11.8334C18.0879 10.5497 16.462 10.0944 15.1783 10.8163C13.8947 11.5383 13.4393 13.1641 14.1613 14.4478C14.8832 15.7315 16.5091 16.1868 17.7927 15.4649Z" fill="#BBDCD2"/>
<path d="M26.7837 16.6409C28.0674 15.9189 28.5227 14.2931 27.8008 13.0094C27.0788 11.7258 25.453 11.2704 24.1693 11.9924C22.8856 12.7143 22.4303 14.3402 23.1522 15.6238C23.8742 16.9075 25.5 17.3628 26.7837 16.6409Z" fill="#BBDCD2"/>
</svg>
