<svg width="40" height="40" viewBox="0 0 40 40" fill="none" xmlns="http://www.w3.org/2000/svg">
<g clip-path="url(#clip0_4193_193626)">
<g clip-path="url(#clip1_4193_193626)">
<path d="M38.5872 6.38336C37.4846 4.47805 35.9 2.88008 34.0049 1.76227C32.0504 0.609375 29.8118 0 27.5313 0C25.2507 0 23.0121 0.609375 21.0575 1.76227C19.1624 2.88016 17.5778 4.47813 16.4752 6.38336C16.2501 6.77234 16.2672 7.25563 16.5192 7.62766L22.5936 16.594V37.573C22.5936 38.9113 23.6824 40 25.0207 40H30.0416C31.3799 40 32.4686 38.9113 32.4686 37.573V16.5939L38.543 7.62758C38.7952 7.25563 38.8123 6.77234 38.5872 6.38336ZM30.125 37.573C30.125 37.6158 30.0845 37.6562 30.0417 37.6562H25.0207C24.9779 37.6562 24.9375 37.6157 24.9375 37.573V17.4062H26.8957C26.8982 17.4062 26.9008 17.4066 26.9034 17.4066C26.906 17.4066 26.9085 17.4062 26.911 17.4062H28.1514C28.1539 17.4062 28.1564 17.4066 28.159 17.4066C28.1616 17.4066 28.1642 17.4062 28.1667 17.4062H30.125V37.573ZM30.6753 15.0625H29.7848L30.5258 12.8393C30.7305 12.2253 30.3986 11.5616 29.7846 11.357C29.1706 11.1523 28.507 11.4842 28.3023 12.0981L27.5312 14.4114L26.7601 12.0981C26.5554 11.4841 25.8919 11.1523 25.2778 11.357C24.6638 11.5616 24.3319 12.2252 24.5366 12.8393L25.2776 15.0625H24.3871L18.8875 6.94461C20.8166 4.08953 24.0654 2.34375 27.5313 2.34375C30.9971 2.34375 34.2458 4.08953 36.175 6.94453L30.6753 15.0625Z" fill="#BBDCD2"/>
<path d="M13.7239 26.3595H13.6406V13.7241C13.6406 13.0769 13.116 12.5522 12.4688 12.5522H12.3855V2.42711C12.3855 1.26164 11.5538 0.382812 10.4511 0.382812C10.1723 0.382812 9.89033 0.439062 9.61298 0.550078L5.66767 2.12812C4.5833 2.56188 3.76556 3.76969 3.76556 4.93758V12.5522H3.68228C3.03509 12.5522 2.51041 13.0769 2.51041 13.7241V26.3595H2.42712C1.77994 26.3595 1.25525 26.8841 1.25525 27.5313V37.573C1.25525 38.9113 2.34408 40 3.68228 40H12.4688C13.807 40 14.8958 38.9113 14.8958 37.573V27.5313C14.8958 26.8841 14.3711 26.3595 13.7239 26.3595ZM6.10931 4.93758C6.10931 4.72609 6.34181 4.38273 6.53814 4.30422L10.0417 2.90281V12.5522H6.10931V4.93758ZM4.85416 14.8959H4.93744H11.2135H11.2968V26.3595H4.85416V14.8959ZM12.552 37.573C12.552 37.6159 12.5116 37.6563 12.4688 37.6563H3.68228C3.63947 37.6563 3.599 37.6158 3.599 37.573V28.7032H3.68228H12.4688H12.552V37.573Z" fill="#BBDCD2"/>
</g>
</g>
<defs>
<clipPath id="clip0_4193_193626">
<rect width="40" height="40" fill="white"/>
</clipPath>
<clipPath id="clip1_4193_193626">
<rect width="40" height="40" fill="white"/>
</clipPath>
</defs>
</svg>
