<svg width="40" height="40" viewBox="0 0 40 40" fill="none" xmlns="http://www.w3.org/2000/svg">
<g clip-path="url(#clip0_5228_145647)">
<path d="M38.6576 8.19832L35.8537 8.19819V5.29571C35.8537 4.6312 35.3676 4.06662 34.7103 3.9683C34.5956 3.95107 31.864 3.5543 28.5747 4.15282C24.9078 4.82002 21.9834 6.4654 19.9999 8.9528C18.0164 6.4654 15.0919 4.82002 11.4251 4.15282C8.13573 3.55443 5.40416 3.95107 5.28954 3.9683C4.63231 4.06676 4.14611 4.63133 4.14611 5.29571V8.19819H1.34222C0.601075 8.19819 0 8.79926 0 9.54054V34.8341C0 35.2687 0.21037 35.6763 0.564712 35.9282C0.919054 36.18 1.37333 36.2447 1.7837 36.1017C1.88444 36.0668 11.9427 32.6341 19.4429 36.0552C19.7968 36.2167 20.2032 36.2167 20.5571 36.0552C28.0363 32.6438 38.1161 36.0671 38.2163 36.1017C38.3601 36.1518 38.5091 36.1764 38.6575 36.1764C38.9327 36.1764 39.205 36.0918 39.4353 35.9283C39.7896 35.6765 40 35.2688 40 34.8342V9.54068C39.9999 8.7994 39.3989 8.19832 38.6576 8.19832ZM2.68457 33.0381V10.8828H4.14611V28.7583C4.14611 29.1483 4.31675 29.5187 4.61184 29.7736C4.90692 30.0286 5.29938 30.1429 5.6851 30.0859C5.75917 30.0752 11.5903 29.2746 15.8505 32.1976C10.6027 31.3002 5.35042 32.3382 2.68457 33.0381ZM18.6577 30.9871C16.7814 29.2917 14.3373 28.1453 11.4251 27.6155C10.0237 27.3604 8.72347 27.2861 7.68374 27.2861C7.37506 27.2861 7.08927 27.2927 6.83082 27.303V6.5283H6.83068C9.41047 6.41193 15.6861 6.68776 18.6577 11.7252V30.9871ZM21.3421 11.7253C24.3031 6.70944 30.5886 6.42109 33.1692 6.53166V27.303C32.0402 27.2575 30.3921 27.2847 28.5747 27.6155C25.6625 28.1453 23.2185 29.2916 21.3421 30.9871V11.7253ZM24.145 32.1984C28.4057 29.2737 34.2399 30.075 34.3126 30.0858C34.6993 30.1438 35.0915 30.0302 35.3875 29.7754C35.6835 29.5203 35.8537 29.1491 35.8537 28.7583V10.8829H37.3153V33.0381C34.6486 32.3379 29.3942 31.2995 24.145 32.1984Z" fill="#BBDCD2"/>
</g>
<defs>
<clipPath id="clip0_5228_145647">
<rect width="40" height="40" fill="white"/>
</clipPath>
</defs>
</svg>
