<svg width="40" height="40" viewBox="0 0 40 40" fill="none" xmlns="http://www.w3.org/2000/svg">
<g clip-path="url(#clip0_5228_145652)">
<g clip-path="url(#clip1_5228_145652)">
<path d="M39.4867 5.12329C39.354 5.03205 36.1402 2.89062 28.2682 2.89062C20.3958 2.89062 17.1817 5.03205 17.0487 5.12329C16.7276 5.34363 16.5357 5.70801 16.5357 6.09742V8.44392C14.7397 8.79975 12.3435 9.51234 9.37134 10.9067C2.24456 14.2505 0.244438 17.5543 0.16265 17.6932C-0.0344934 18.0292 -0.0537196 18.4406 0.111686 18.7934L4.91241 29.0253C7.27204 34.0546 12.2946 37.1171 17.6401 37.1171C18.8242 37.1171 20.0244 36.9669 21.2146 36.6544C21.2183 36.6535 21.2219 36.6526 21.2256 36.6514H21.2259C21.3608 36.6144 21.4884 36.554 21.6019 36.4728C23.6945 34.9769 25.2683 32.9956 26.2601 30.7773C26.8409 30.9653 27.4396 31.1176 28.0539 31.2305C28.0893 31.2372 28.1247 31.2421 28.1607 31.2452H28.161C28.1964 31.2485 28.2321 31.25 28.2679 31.25C28.3396 31.25 28.411 31.2436 28.4815 31.2305C35.156 30.0025 40 24.1858 40 17.3996V6.09742C40 5.70801 39.8081 5.34363 39.4867 5.12329ZM7.05078 28.0219L2.55126 18.4314C3.33557 17.5015 5.53528 15.3159 10.3745 13.0454C15.2146 10.7749 18.3008 10.4804 19.5169 10.4718L24.0164 20.0623C26.3837 25.1081 24.8618 31.1106 20.4041 34.423C15.0073 35.7337 9.41803 33.0677 7.05078 28.0219ZM37.6377 17.3996C37.6377 22.9734 33.7104 27.761 28.2679 28.866C27.8495 28.7812 27.4399 28.674 27.0404 28.5468C27.6081 26.3474 27.645 24.0107 27.0972 21.7411C28.5617 21.3349 30.1984 21.7053 31.3474 22.8543C31.5781 23.0851 31.8805 23.2004 32.1827 23.2004C32.4848 23.2004 32.7872 23.0851 33.0179 22.8543C33.479 22.3932 33.479 21.6455 33.0179 21.1841C31.2162 19.3827 28.6374 18.8202 26.3504 19.4971C26.2876 19.3506 26.2232 19.2044 26.1548 19.0589L24.2395 14.9762C25.1935 14.9683 26.0895 14.5938 26.7649 13.9182C27.226 13.457 27.226 12.7091 26.7649 12.2479C26.3037 11.7868 25.5558 11.7868 25.0946 12.2479C24.8581 12.4844 24.5438 12.6148 24.2093 12.6148C23.8751 12.6148 23.5608 12.4844 23.3243 12.2479C23.1784 12.1024 23.0042 12.0029 22.8195 11.9492L21.3544 8.82691C21.189 8.47413 20.8606 8.22602 20.4764 8.16285C20.419 8.15339 19.8874 8.07313 18.8977 8.1302V6.8039C19.9933 6.29822 22.908 5.25269 28.2682 5.25269C33.6136 5.25269 36.5329 6.29731 37.6377 6.80604V17.3996Z" fill="#BBDCD2"/>
<path d="M32.8296 14.9768C33.7952 14.9768 34.7028 14.6012 35.3855 13.9185C35.8466 13.457 35.8466 12.7094 35.3855 12.2479C34.924 11.7868 34.1764 11.7868 33.7149 12.2479C33.4784 12.4845 33.1641 12.6148 32.8299 12.6148C32.4954 12.6148 32.1811 12.4845 31.9446 12.2479C31.4835 11.7868 30.7355 11.7868 30.2741 12.2479C29.8129 12.7094 29.8129 13.457 30.2741 13.9185C30.9567 14.6012 31.8643 14.9768 32.8296 14.9768Z" fill="#BBDCD2"/>
<path d="M13.053 22.2928C13.2748 21.6794 12.9572 21.0023 12.3437 20.7807C11.4355 20.4526 10.4544 20.4978 9.58038 20.908C8.70635 21.3181 8.04442 22.0438 7.71636 22.9517C7.4948 23.5651 7.81249 24.2423 8.42589 24.4639C8.55834 24.5118 8.69384 24.5344 8.8272 24.5344C9.3106 24.5344 9.7644 24.2353 9.93804 23.7543C10.0516 23.44 10.2811 23.1885 10.5838 23.0463C10.8865 22.9044 11.2265 22.8889 11.5408 23.0024C12.1542 23.2239 12.8314 22.9066 13.053 22.2928Z" fill="#BBDCD2"/>
<path d="M16.2299 20.8025C16.3627 20.8501 16.4979 20.873 16.6312 20.873C17.1146 20.873 17.5684 20.5739 17.7421 20.093C17.8559 19.7783 18.0851 19.5269 18.3878 19.385C18.6905 19.2428 19.0305 19.2272 19.3448 19.341C19.9586 19.5626 20.6354 19.2449 20.8573 18.6315C21.0789 18.0178 20.7612 17.3409 20.1478 17.1193C18.2734 16.4422 16.1976 17.416 15.5204 19.2901C15.2988 19.9038 15.6165 20.5807 16.2299 20.8025Z" fill="#BBDCD2"/>
<path d="M21.4341 25.4347C21.6556 24.8213 21.3379 24.1444 20.7245 23.9225C20.1111 23.7006 19.4339 24.0183 19.2124 24.632C18.396 26.8907 15.8942 28.0641 13.6359 27.2483C13.0222 27.0265 12.3453 27.3441 12.1237 27.9575C11.9019 28.5713 12.2196 29.2481 12.833 29.47C13.5843 29.7413 14.3528 29.8701 15.1093 29.8701C17.8598 29.8701 20.4468 28.1669 21.4341 25.4347Z" fill="#BBDCD2"/>
</g>
</g>
<defs>
<clipPath id="clip0_5228_145652">
<rect width="40" height="40" fill="white"/>
</clipPath>
<clipPath id="clip1_5228_145652">
<rect width="40" height="40" fill="white"/>
</clipPath>
</defs>
</svg>
