<svg width="40" height="40" viewBox="0 0 40 40" fill="none" xmlns="http://www.w3.org/2000/svg">
<g clip-path="url(#clip0_5228_145674)">
<g clip-path="url(#clip1_5228_145674)">
<path d="M35.736 31.3111L32.6287 28.2038L34.7851 26.0475L19.1652 8.21109C19.1684 6.06285 18.3264 3.98509 16.8138 2.44627C13.6595 -0.762917 8.46999 -0.822288 5.24573 2.3137C3.65864 3.85728 2.77611 5.92575 2.76064 8.13805C2.74525 10.3508 3.5984 12.431 5.16292 13.9956C6.70502 15.5377 8.79576 16.3976 10.9651 16.3976H10.9788L28.8152 32.0174L30.9716 29.8611L34.0788 32.9685C35.0355 33.9252 35.0136 35.1417 34.6742 35.9613C34.3347 36.7808 33.4899 37.6565 32.1369 37.6565C31.6888 37.6565 31.2428 37.5453 30.8471 37.3349L24.5751 33.9984C18.7929 30.9224 11.8892 30.923 6.10748 33.9998L3.38162 35.4503L4.48265 37.5192L7.20851 36.0687C12.3009 33.3588 18.3816 33.3582 23.4745 36.0674L29.7465 39.4039C30.4798 39.794 31.3064 40.0002 32.137 40.0002C34.2348 40.0002 36.0367 38.7962 36.8393 36.8581C37.6421 34.9198 37.2193 32.7944 35.736 31.3111ZM21.0177 13.8839L16.6515 18.25L13.1175 15.1552L17.9228 10.3499L21.0177 13.8839ZM16.8193 8.13922L10.9069 14.0516C9.77304 14.0403 8.67115 13.7008 7.73355 13.0819L15.8493 4.9662C16.468 5.90365 16.8079 7.00585 16.8193 8.13922ZM5.1041 8.15422C5.11511 6.57407 5.74562 5.09651 6.87962 3.9936C8.88231 2.04575 11.9461 1.82513 14.1929 3.30817L6.07389 11.4273C5.43494 10.4656 5.0959 9.33649 5.1041 8.15422ZM28.709 28.809L18.4186 19.7974L22.5651 15.6509L31.5768 25.9414L28.709 28.809Z" fill="#BBDCD2"/>
</g>
</g>
<defs>
<clipPath id="clip0_5228_145674">
<rect width="40" height="40" fill="white"/>
</clipPath>
<clipPath id="clip1_5228_145674">
<rect width="40" height="40" fill="white"/>
</clipPath>
</defs>
</svg>
