<svg width="40" height="40" viewBox="0 0 40 40" fill="none" xmlns="http://www.w3.org/2000/svg">
<g clip-path="url(#clip0_5228_145684)">
<g clip-path="url(#clip1_5228_145684)">
<path d="M40 13.3203C40 10.9839 38.8495 8.84155 36.7599 7.2879C35.0916 6.04736 32.9129 5.27557 30.52 5.06134C29.9167 4.01062 29.0149 3.05695 27.8448 2.25372C25.7278 0.800476 22.9419 0 20 0C17.0581 0 14.2722 0.800476 12.1552 2.25372C10.9851 3.05695 10.0833 4.01062 9.47998 5.06134C7.0871 5.27557 4.90845 6.04736 3.24005 7.2879C1.15051 8.84155 0 10.9839 0 13.3203C0 21.0165 4.80865 27.9257 6.01562 29.5383V40H34.0625V29.5343C35.2484 27.9291 40 21.0175 40 13.3203ZM5.10468 9.79584C6.04919 9.09332 7.24792 8.59833 8.59406 8.33771C8.59589 10.5005 8.96057 13.2159 9.62158 15.9875L12.6614 15.2625C12.0535 12.7142 11.7188 10.249 11.7188 8.32031C11.7188 5.50415 15.5112 3.125 20 3.125C24.4888 3.125 28.2812 5.50415 28.2812 8.32031C28.2812 10.2274 27.941 12.6917 27.323 15.2594L30.3613 15.9906C31.0333 13.1979 31.4041 10.481 31.4059 8.3374C32.7521 8.59802 33.9508 9.09332 34.8953 9.79553C36.1719 10.7449 36.875 11.9968 36.875 13.3203C36.875 19.754 32.8571 25.8469 31.6751 27.5H17.3206C16.759 26.3156 15.5734 23.743 14.4907 20.9241L11.5735 22.0447C12.3868 24.1617 13.241 26.1139 13.8733 27.5H8.39813C7.20612 25.8566 3.125 19.758 3.125 13.3203C3.125 11.9968 3.82812 10.7449 5.10468 9.79584ZM30.9375 36.875H9.14062V30.625H30.9375V36.875Z" fill="#BBDCD2"/>
</g>
</g>
<defs>
<clipPath id="clip0_5228_145684">
<rect width="40" height="40" fill="white"/>
</clipPath>
<clipPath id="clip1_5228_145684">
<rect width="40" height="40" fill="white"/>
</clipPath>
</defs>
</svg>
