<svg width="40" height="40" viewBox="0 0 40 40" fill="none" xmlns="http://www.w3.org/2000/svg">
<g clip-path="url(#clip0_5228_145689)">
<g clip-path="url(#clip1_5228_145689)">
<path d="M34.1422 5.85781C30.3646 2.08039 25.3422 0 20 0C14.6578 0 9.63539 2.08039 5.85781 5.85781C2.08039 9.63539 0 14.6578 0 20C0 25.3422 2.08039 30.3646 5.85781 34.1422C9.63539 37.9196 14.6578 40 20 40C25.3422 40 30.3646 37.9196 34.1422 34.1422C37.9196 30.3646 40 25.3422 40 20C40 14.6578 37.9196 9.63539 34.1422 5.85781ZM20 37.6562C10.2643 37.6562 2.34375 29.7357 2.34375 20C2.34375 10.2643 10.2643 2.34375 20 2.34375C29.7357 2.34375 37.6562 10.2643 37.6562 20C37.6562 29.7357 29.7357 37.6562 20 37.6562Z" fill="#BBDCD2"/>
<path d="M20 4.53125C11.4705 4.53125 4.53125 11.4705 4.53125 20C4.53125 28.5295 11.4705 35.4688 20 35.4688C28.5295 35.4688 35.4688 28.5295 35.4688 20C35.4688 11.4705 28.5295 4.53125 20 4.53125ZM20 33.125C12.7628 33.125 6.875 27.2372 6.875 20C6.875 12.7628 12.7628 6.875 20 6.875C27.2372 6.875 33.125 12.7628 33.125 20C33.125 27.2372 27.2372 33.125 20 33.125Z" fill="#BBDCD2"/>
<path d="M25.1434 19.0675C25.862 18.2619 26.3 17.2006 26.3 16.0386C26.3001 14.8255 25.8252 13.6824 24.963 12.8201C24.1006 11.9577 22.9576 11.4828 21.7445 11.483H21.1719V9.21875H18.8281V11.4829H13.6688V13.8266H15.5827V26.1733H13.6688V28.517H18.8281V30.7812H21.1719V28.5171H22.3697C25.2002 28.5171 27.503 26.2141 27.503 23.3835C27.5032 22.0165 26.9681 20.7284 25.9963 19.7566C25.7337 19.4939 25.4475 19.2644 25.1434 19.0675ZM17.9265 13.8266H21.7446C22.3317 13.8266 22.886 14.0577 23.3056 14.4773C23.7252 14.8969 23.9563 15.4513 23.9562 16.0384C23.9562 17.246 22.9835 18.23 21.7805 18.2495H17.9264V13.8266H17.9265ZM22.3697 26.1734H17.9265V20.5942L22.3698 20.5933C23.1105 20.5933 23.8099 20.8846 24.339 21.4138C24.868 21.9429 25.1594 22.6423 25.1593 23.3834C25.1593 24.9217 23.9079 26.1734 22.3697 26.1734Z" fill="#BBDCD2"/>
</g>
</g>
<defs>
<clipPath id="clip0_5228_145689">
<rect width="40" height="40" fill="white"/>
</clipPath>
<clipPath id="clip1_5228_145689">
<rect width="40" height="40" fill="white"/>
</clipPath>
</defs>
</svg>
