<svg width="40" height="40" viewBox="0 0 40 40" fill="none" xmlns="http://www.w3.org/2000/svg">
<g clip-path="url(#clip0_5230_146132)">
<g clip-path="url(#clip1_5230_146132)">
<path d="M39.6566 27.4523L36.5584 24.354V13.7266L38.5811 12.9974C39.0454 12.8299 39.355 12.3895 39.3554 11.8958C39.3558 11.4023 39.0468 10.9613 38.5826 10.7933L20.0766 4.09125C19.8189 3.9979 19.5363 3.9979 19.2786 4.09125L0.772641 10.7933C0.310263 10.9608 0.00169893 11.399 -0.000175889 11.8907C-0.00189447 12.3825 0.303467 12.823 0.764516 12.9938L7.59425 15.5238V23.2462C7.59425 23.4859 7.66768 23.7198 7.80478 23.9164C7.88016 24.0245 8.59424 24.9996 10.4225 25.9199C12.7322 27.0826 15.7616 27.6721 19.4264 27.6721C23.0886 27.6721 26.1333 27.0838 28.4759 25.9234C30.3222 25.0089 31.0601 24.0439 31.1382 23.9369C31.2844 23.7364 31.3632 23.4946 31.3632 23.2464V15.5994L34.2149 14.5713V24.354L31.1166 27.4523C30.8969 27.672 30.7734 27.9701 30.7734 28.2808C30.7734 28.5916 30.8968 28.8897 31.1166 29.1093L34.2149 32.2076V34.8071C34.2149 35.4542 34.7395 35.9788 35.3867 35.9788C36.0338 35.9788 36.5584 35.4542 36.5584 34.8071V32.2076L39.6567 29.1093C40.1143 28.6519 40.1143 27.9098 39.6566 27.4523ZM19.6776 6.43923L34.7356 11.8925L19.4319 17.4099L4.57837 11.9075L19.6776 6.43923ZM29.0196 22.7792C25.0138 26.3837 13.1104 25.9704 9.93778 22.7909V16.392L19.0193 19.7562C19.1635 19.779 19.2995 19.9033 19.8238 19.7598L29.0197 16.4445V22.7792H29.0196ZM35.3866 30.0652L33.6022 28.2808L35.3866 26.4964L37.171 28.2808L35.3866 30.0652Z" fill="#BBDCD2"/>
</g>
</g>
<defs>
<clipPath id="clip0_5230_146132">
<rect width="40" height="40" fill="white"/>
</clipPath>
<clipPath id="clip1_5230_146132">
<rect width="40" height="40" fill="white"/>
</clipPath>
</defs>
</svg>
