<svg width="40" height="40" viewBox="0 0 40 40" fill="none" xmlns="http://www.w3.org/2000/svg">
<g clip-path="url(#clip0_5225_144880)">
<g clip-path="url(#clip1_5225_144880)">
<path d="M37.6562 4.76562H11.875C10.5826 4.76562 9.53125 5.81696 9.53125 7.10938H1.17188C0.524597 7.10938 0 7.63397 0 8.28125V34.0625C0 34.7098 0.524597 35.2344 1.17188 35.2344H12.8906C13.5379 35.2344 14.0625 34.7098 14.0625 34.0625V28.2031H20.0781V32.8906H17.7344C17.0871 32.8906 16.5625 33.4152 16.5625 34.0625C16.5625 34.7098 17.0871 35.2344 17.7344 35.2344H31.7969C32.4442 35.2344 32.9688 34.7098 32.9688 34.0625C32.9688 33.4152 32.4442 32.8906 31.7969 32.8906H29.4531V28.2031H37.6562C38.9487 28.2031 40 27.1518 40 25.8594V7.10938C40 5.81696 38.9487 4.76562 37.6562 4.76562ZM2.34375 14.1406H9.53125V16.4844H2.34375V14.1406ZM9.53125 9.45312V11.7969H2.34375V9.45312H9.53125ZM2.34375 32.8906V18.8281H9.53125V25.8594C9.53125 27.099 10.499 28.1165 11.7188 28.1973V32.8906H2.34375ZM27.1094 32.8906H22.4219V28.2031H27.1094V32.8906ZM37.6562 25.8594H11.875V7.10938H37.6562V25.8594Z" fill="#BBDCD2"/>
<path d="M8.20312 30.2344C8.20312 30.8817 7.67853 31.4062 7.03125 31.4062C6.38397 31.4062 5.85938 30.8817 5.85938 30.2344C5.85938 29.5871 6.38397 29.0625 7.03125 29.0625C7.67853 29.0625 8.20312 29.5871 8.20312 30.2344Z" fill="#BBDCD2"/>
</g>
</g>
<defs>
<clipPath id="clip0_5225_144880">
<rect width="40" height="40" fill="white"/>
</clipPath>
<clipPath id="clip1_5225_144880">
<rect width="40" height="40" fill="white"/>
</clipPath>
</defs>
</svg>
