<svg width="40" height="40" viewBox="0 0 40 40" fill="none" xmlns="http://www.w3.org/2000/svg">
<g clip-path="url(#clip0_5228_145669)">
<g clip-path="url(#clip1_5228_145669)">
<path d="M36.4751 15.1649L30.0811 17.1028V13.2162H28.2728C29.125 12.151 29.6362 10.8019 29.6362 9.33484C29.6362 5.90227 26.8437 3.10977 23.4111 3.10977C21.6873 3.10977 20.1252 3.81437 18.9969 4.95031C17.8626 2.05539 15.0418 0 11.7498 0C7.45998 0 3.9699 3.49008 3.9699 7.77992C3.9699 9.89352 4.81748 11.8126 6.19014 13.2161H3.5249V31.8857H12.8918L7.2367 40H10.0936L15.6312 32.0544V40H17.9749V32.0545L23.5124 40H26.3693L20.7142 31.8858H30.0811V27.9991L36.4751 29.937V15.1649ZM34.1313 26.7776L30.0811 25.5501V19.5519L34.1313 18.3244V26.7776ZM5.86865 29.542V15.5599H27.7373V29.542H5.86865ZM6.31357 7.77992C6.31357 4.78242 8.75225 2.34375 11.7498 2.34375C14.7473 2.34375 17.186 4.78242 17.186 7.77992C17.186 10.7774 14.7473 13.2161 11.7498 13.2161C8.75225 13.2162 6.31357 10.7775 6.31357 7.77992ZM23.4111 5.45344C25.5513 5.45344 27.2925 7.19461 27.2925 9.33477C27.2925 11.4749 25.5513 13.2161 23.4111 13.2161C21.2708 13.2161 19.5297 11.4749 19.5297 9.33477C19.5297 7.19461 21.2709 5.45344 23.4111 5.45344Z" fill="#BBDCD2"/>
<path d="M11.9393 21.3792H21.6667V23.7229H11.9393V21.3792Z" fill="#BBDCD2"/>
</g>
</g>
<defs>
<clipPath id="clip0_5228_145669">
<rect width="40" height="40" fill="white"/>
</clipPath>
<clipPath id="clip1_5228_145669">
<rect width="40" height="40" fill="white"/>
</clipPath>
</defs>
</svg>
