<svg width="40" height="40" viewBox="0 0 40 40" fill="none" xmlns="http://www.w3.org/2000/svg">
<path d="M38.6613 17.0351L33.6613 4.53509C33.5937 4.36639 33.4901 4.21447 33.3577 4.08991C33.2254 3.96534 33.0675 3.87113 32.895 3.81384L25.395 1.31384C25.2084 1.25167 25.0097 1.23441 24.8152 1.26348C24.6207 1.29255 24.4357 1.36712 24.2754 1.48113C24.1151 1.59514 23.984 1.74536 23.8927 1.9196C23.8014 2.09383 23.7525 2.28715 23.75 2.48384C23.7319 3.48154 23.3229 4.43227 22.6109 5.13144C21.899 5.83062 20.941 6.22236 19.9431 6.22236C18.9453 6.22236 17.9873 5.83062 17.2753 5.13144C16.5634 4.43227 16.1543 3.48154 16.1363 2.48384C16.1337 2.28663 16.0845 2.09283 15.9927 1.91827C15.9009 1.74372 15.7691 1.59336 15.608 1.4795C15.447 1.36564 15.2613 1.2915 15.0661 1.26314C14.8709 1.23478 14.6718 1.25301 14.485 1.31634L7.11002 3.81634C6.93894 3.87414 6.78242 3.96832 6.65122 4.09239C6.52002 4.21647 6.41726 4.3675 6.35002 4.53509L1.35002 17.0351C1.28659 17.1934 1.25621 17.3629 1.26076 17.5334C1.2653 17.7038 1.30467 17.8716 1.37645 18.0262C1.44822 18.1809 1.55088 18.3193 1.67811 18.4328C1.80534 18.5463 1.95445 18.6326 2.11627 18.6863L8.75002 20.9013V37.5001C8.75002 37.8316 8.88171 38.1496 9.11613 38.384C9.35055 38.6184 9.6685 38.7501 10 38.7501H30C30.3315 38.7501 30.6495 38.6184 30.8839 38.384C31.1183 38.1496 31.25 37.8316 31.25 37.5001V20.9013L37.895 18.6863C38.0568 18.6326 38.2059 18.5463 38.3332 18.4328C38.4604 18.3193 38.5631 18.1809 38.6348 18.0262C38.7066 17.8716 38.746 17.7038 38.7505 17.5334C38.7551 17.3629 38.7247 17.1934 38.6613 17.0351ZM31.25 18.2651V12.5001H28.75V36.2501H11.25V12.5001H8.75002V18.2651L4.15252 16.7338L8.44627 6.00009L13.8713 4.16259C14.2467 5.48208 15.0423 6.64308 16.1373 7.46942C17.2324 8.29576 18.5671 8.74231 19.9389 8.74132C21.3108 8.74033 22.6449 8.29185 23.7387 7.46394C24.8326 6.63602 25.6265 5.47387 26 4.15384L31.555 6.00009L35.8475 16.7313L31.25 18.2651Z" fill="#BBDCD2"/>
</svg>
