<svg width="40" height="40" viewBox="0 0 40 40" fill="none" xmlns="http://www.w3.org/2000/svg">
<g clip-path="url(#clip0_5230_146025)">
<g clip-path="url(#clip1_5230_146025)">
<path d="M17.9687 4.4231C15.1174 4.4231 12.7977 6.74278 12.7977 9.59411C12.7977 12.4454 15.1174 14.765 17.9687 14.765C20.8201 14.765 23.1398 12.4454 23.1398 9.59411C23.1398 6.74278 20.8201 4.4231 17.9687 4.4231ZM17.9687 12.4212C16.4098 12.4212 15.1415 11.1529 15.1415 9.59403C15.1415 8.03513 16.4098 6.76677 17.9687 6.76677C19.5277 6.76677 20.796 8.03505 20.796 9.59403C20.796 11.1529 19.5277 12.4212 17.9687 12.4212Z" fill="#BBDCD2"/>
<path d="M9.59124 12.7979C6.73991 12.7979 4.42023 15.1175 4.42023 17.9688C4.42023 20.82 6.73991 23.1397 9.59116 23.1397C12.4424 23.1397 14.7623 20.82 14.7623 17.9688C14.7623 15.1175 12.4426 12.7979 9.59124 12.7979ZM9.59124 20.796C8.03226 20.796 6.76406 19.5277 6.76406 17.9688C6.76406 16.4099 8.03234 15.1416 9.59124 15.1416C11.1501 15.1416 12.4185 16.4099 12.4185 17.9688C12.4185 19.5277 11.1501 20.796 9.59124 20.796Z" fill="#BBDCD2"/>
<path d="M17.9687 21.1724C15.1174 21.1724 12.7977 23.492 12.7977 26.3433C12.7977 29.1945 15.1174 31.5142 17.9687 31.5142C20.8201 31.5142 23.1398 29.1945 23.1398 26.3433C23.1398 23.492 20.8201 21.1724 17.9687 21.1724ZM17.9687 29.1706C16.4098 29.1706 15.1415 27.9022 15.1415 26.3433C15.1415 24.7844 16.4098 23.5161 17.9687 23.5161C19.5277 23.5161 20.796 24.7844 20.796 26.3433C20.796 27.9022 19.5277 29.1706 17.9687 29.1706Z" fill="#BBDCD2"/>
<path d="M26.3462 12.7979C23.495 12.7979 21.1752 15.1175 21.1752 17.9688C21.1752 20.82 23.4949 23.1397 26.3462 23.1397C29.1976 23.1397 31.5172 20.82 31.5172 17.9688C31.5172 15.1175 29.1975 12.7979 26.3462 12.7979ZM26.3462 20.796C24.7873 20.796 23.519 19.5277 23.519 17.9688C23.519 16.4099 24.7873 15.1416 26.3462 15.1416C27.9052 15.1416 29.1734 16.4099 29.1734 17.9688C29.1734 19.5277 27.9052 20.796 26.3462 20.796Z" fill="#BBDCD2"/>
<path d="M17.9687 16.2007C16.9937 16.2007 16.2006 16.9939 16.2006 17.9688C16.2006 18.9437 16.9937 19.7369 17.9687 19.7369C18.9437 19.7369 19.7369 18.9437 19.7369 17.9688C19.7369 16.9939 18.9437 16.2007 17.9687 16.2007Z" fill="#BBDCD2"/>
<path d="M34.7656 33.5938H26.857C32.311 30.4798 35.9375 24.6468 35.9375 17.9688C35.9375 8.03734 27.9009 0 17.9688 0C8.03734 0 0 8.03656 0 17.9688C0 27.9002 8.03656 35.9375 17.9688 35.9375H34.7656C36.3595 35.9375 37.6562 37.2342 37.6562 38.8281C37.6562 39.4753 38.1809 40 38.8281 40C39.4753 40 40 39.4753 40 38.8281C40 35.9419 37.6519 33.5938 34.7656 33.5938ZM2.34375 17.9688C2.34375 9.35312 9.35312 2.34375 17.9688 2.34375C26.5844 2.34375 33.5938 9.35312 33.5938 17.9688C33.5938 26.5844 26.5844 33.5938 17.9688 33.5938C9.35312 33.5938 2.34375 26.5844 2.34375 17.9688Z" fill="#BBDCD2"/>
</g>
</g>
<defs>
<clipPath id="clip0_5230_146025">
<rect width="40" height="40" fill="white"/>
</clipPath>
<clipPath id="clip1_5230_146025">
<rect width="40" height="40" fill="white"/>
</clipPath>
</defs>
</svg>
