<svg width="40" height="40" viewBox="0 0 40 40" fill="none" xmlns="http://www.w3.org/2000/svg">
<g clip-path="url(#clip0_5225_144873)">
<g clip-path="url(#clip1_5225_144873)">
<path d="M38.75 0.78125H6.25C5.95992 0.78125 5.68172 0.896484 5.4766 1.1016C5.27148 1.30672 5.15625 1.58492 5.15625 1.875V18.125C5.15625 18.4151 5.27148 18.6933 5.4766 18.8984C5.68172 19.1035 5.95992 19.2188 6.25 19.2188H38.75C39.0401 19.2188 39.3183 19.1035 39.5234 18.8984C39.7285 18.6933 39.8438 18.4151 39.8438 18.125V1.875C39.8438 1.58492 39.7285 1.30672 39.5234 1.1016C39.3183 0.896484 39.0401 0.78125 38.75 0.78125ZM18.5238 17.0312H7.34375V2.96875H18.5238C17.0739 5.02074 16.3306 7.4886 16.4062 10C16.3306 12.5114 17.0739 14.9793 18.5238 17.0312ZM22.5 17.0312C20.3825 17.0312 18.5938 13.8112 18.5938 10C18.5938 6.18875 20.3825 2.96875 22.5 2.96875C24.6175 2.96875 26.4062 6.1875 26.4062 10C26.4062 13.8125 24.6175 17.0312 22.5 17.0312ZM37.6562 17.0312H26.4762C27.9261 14.9793 28.6694 12.5114 28.5938 10C28.6694 7.4886 27.9261 5.02074 26.4762 2.96875H37.6562V17.0312Z" fill="#BBDCD2"/>
<path d="M33.75 22.0312H1.25C0.959919 22.0313 0.68172 22.1465 0.476602 22.3516C0.271484 22.5567 0.15625 22.8349 0.15625 23.125V38.125C0.15625 38.4151 0.271484 38.6933 0.476602 38.8984C0.68172 39.1035 0.959919 39.2188 1.25 39.2188H33.75C34.0401 39.2188 34.3183 39.1035 34.5234 38.8984C34.7285 38.6933 34.8438 38.4151 34.8438 38.125V23.125C34.8438 22.8349 34.7285 22.5567 34.5234 22.3516C34.3183 22.1465 34.0401 22.0312 33.75 22.0312ZM12.0312 37.0312H2.34375V34.2188H12.0312V37.0312ZM12.0312 32.0312H2.34375V29.2188H12.0312V32.0312ZM12.0312 27.0312H2.34375V24.2188H12.0312V27.0312ZM20.7812 37.0312H14.2188V24.2188H20.7812V37.0312ZM32.6562 37.0312H22.9688V34.2188H32.6562V37.0312ZM32.6562 32.0312H22.9688V29.2188H32.6562V32.0312ZM32.6562 27.0312H22.9688V24.2188H32.6562V27.0312Z" fill="#BBDCD2"/>
<path d="M12.5 8.90625H10.625C10.3349 8.90625 10.0567 9.02148 9.8516 9.2266C9.64648 9.43172 9.53125 9.70992 9.53125 10C9.53125 10.2901 9.64648 10.5683 9.8516 10.7734C10.0567 10.9785 10.3349 11.0938 10.625 11.0938H12.5C12.7901 11.0938 13.0683 10.9785 13.2734 10.7734C13.4785 10.5683 13.5938 10.2901 13.5938 10C13.5938 9.70992 13.4785 9.43172 13.2734 9.2266C13.0683 9.02148 12.7901 8.90625 12.5 8.90625Z" fill="#BBDCD2"/>
<path d="M32.5 11.0938H34.375C34.6651 11.0938 34.9433 10.9785 35.1484 10.7734C35.3535 10.5683 35.4688 10.2901 35.4688 10C35.4688 9.70992 35.3535 9.43172 35.1484 9.2266C34.9433 9.02148 34.6651 8.90625 34.375 8.90625H32.5C32.2099 8.90625 31.9317 9.02148 31.7266 9.2266C31.5215 9.43172 31.4062 9.70992 31.4062 10C31.4062 10.2901 31.5215 10.5683 31.7266 10.7734C31.9317 10.9785 32.2099 11.0938 32.5 11.0938Z" fill="#BBDCD2"/>
</g>
</g>
<defs>
<clipPath id="clip0_5225_144873">
<rect width="40" height="40" fill="white"/>
</clipPath>
<clipPath id="clip1_5225_144873">
<rect width="40" height="40" fill="white"/>
</clipPath>
</defs>
</svg>
