<svg width="40" height="40" viewBox="0 0 40 40" fill="none" xmlns="http://www.w3.org/2000/svg">
<g clip-path="url(#clip0_5229_145735)">
<g clip-path="url(#clip1_5229_145735)">
<path d="M39.9991 12.6508C39.9991 11.6618 39.6138 10.7319 38.9144 10.0327L37.0586 8.17688L38.004 7.23148C38.0093 7.22633 38.0146 7.22109 38.0198 7.21586C39.4634 5.77234 39.4634 3.42328 38.0198 1.9793C37.3205 1.27992 36.3906 0.894766 35.4016 0.894766C34.4127 0.894766 33.4828 1.27992 32.7833 1.97914C32.7773 1.98508 32.7714 1.99109 32.7655 1.99719L31.8223 2.94039L29.9664 1.08445C29.2671 0.385156 28.3373 0 27.3483 0C26.3591 0 25.4293 0.385234 24.73 1.08461C24.363 1.45164 24.0899 1.87727 23.9095 2.33164C23.3341 1.97875 22.6713 1.78961 21.9793 1.78961C20.9902 1.78961 20.0603 2.17477 19.3606 2.87437C17.9174 4.31797 17.9174 6.66695 19.3608 8.11078L23.0062 11.7561L11.7549 23.0074L8.10937 19.362C7.41015 18.6627 6.4803 18.2776 5.4914 18.2776C4.50233 18.2776 3.57241 18.6627 2.87265 19.3623C1.6414 20.5937 1.46124 22.4834 2.33054 23.9084C1.86905 24.0923 1.44515 24.3692 1.08327 24.7312C-0.360088 26.1747 -0.360166 28.5236 1.08335 29.9674L2.93905 31.8231L1.97812 32.7841C1.27874 33.4834 0.893506 34.4133 0.893506 35.4023C0.893506 36.3914 1.27874 37.3213 1.97804 38.0204C2.67733 38.7198 3.60726 39.1051 4.5964 39.1051C5.57655 39.1051 6.49851 38.7267 7.19561 38.0393C7.2021 38.0331 7.20851 38.0269 7.21483 38.0205L8.17562 37.0597L10.0315 38.9155C10.7306 39.6148 11.6605 39.9998 12.6496 39.9999H12.6498C13.6389 39.9999 14.5689 39.6147 15.2684 38.9152C15.6352 38.5483 15.9083 38.1227 16.0887 37.6686C16.664 38.0212 17.3266 38.2103 18.0184 38.2104H18.0186C19.0075 38.2104 19.9376 37.8252 20.6371 37.1258C21.3364 36.4264 21.7215 35.4966 21.7215 34.5075C21.7215 33.5184 21.3363 32.5885 20.637 31.8893L16.9915 28.2437L28.2431 16.9925L31.8886 20.6377C32.588 21.337 33.5178 21.7221 34.5068 21.7222H34.507C35.4958 21.7222 36.4257 21.337 37.1249 20.6378C37.8245 19.9385 38.2098 19.0086 38.2098 18.0195C38.2098 17.328 38.021 16.6659 37.6687 16.0909C38.1296 15.907 38.553 15.6304 38.9147 15.2689C39.614 14.5696 39.9991 13.6398 39.9991 12.6508ZM5.57335 36.3473C5.56796 36.3526 5.56249 36.358 5.5571 36.3634C5.30054 36.6199 4.95937 36.7613 4.5964 36.7613C4.23343 36.7613 3.8921 36.6199 3.6353 36.3631C3.37866 36.1065 3.23726 35.7653 3.23726 35.4023C3.23726 35.0394 3.37866 34.698 3.63538 34.4413L4.59616 33.4805L6.51827 35.4024L5.57335 36.3473ZM33.4796 4.59773L34.4398 3.63766C34.4443 3.63313 34.4487 3.62867 34.453 3.62414C34.7085 3.37531 35.0446 3.23852 35.4017 3.23852C35.7647 3.23852 36.106 3.37992 36.3625 3.63641C36.8887 4.16281 36.8925 5.0168 36.3737 5.5475C36.3696 5.55141 36.3655 5.55539 36.3616 5.55938L35.4015 6.51953L34.4406 5.55859L33.4796 4.59773ZM26.3874 2.74172C26.644 2.48508 26.9852 2.34375 27.3483 2.34375C27.7113 2.34375 28.0525 2.48508 28.3092 2.7418L32.7833 7.21594L34.5728 9.00555C34.573 9.0057 34.5731 9.00586 34.5733 9.00602L37.2573 11.6901C37.514 11.9467 37.6554 12.2879 37.6554 12.6508C37.6554 13.0137 37.514 13.3552 37.2574 13.6117C37.0006 13.8684 36.6593 14.0098 36.2962 14.0098C35.9339 14.0098 35.5932 13.8688 35.3367 13.613L26.3854 4.66195C25.8576 4.13195 25.8581 3.27109 26.3874 2.74172ZM13.611 37.258C13.3542 37.5147 13.0128 37.6562 12.6496 37.6562C12.2866 37.6561 11.9452 37.5148 11.6887 37.2583L9.00476 34.5744C9.00452 34.5741 9.00436 34.5739 9.00421 34.5737L8.43476 34.0044L2.74077 28.3103C2.21101 27.7804 2.21093 26.9183 2.74077 26.3884C2.99749 26.1315 3.33874 25.9901 3.70179 25.9901C4.06429 25.9901 4.40499 26.1312 4.66163 26.3873L13.6158 35.3416C14.1403 35.872 14.1389 36.73 13.611 37.258ZM19.3776 34.5075C19.3776 34.8705 19.2362 35.212 18.9797 35.4685C18.7229 35.7252 18.3816 35.8666 18.0184 35.8666C18.0184 35.8666 18.0184 35.8666 18.0183 35.8666C17.6553 35.8666 17.3139 35.7252 17.0573 35.4686L15.2782 33.6895C15.2748 33.6861 15.2716 33.6824 15.2682 33.679L6.31983 24.731L6.3196 24.7308L4.53015 22.9413C4.0003 22.4116 4.0003 21.5495 4.52999 21.0196C4.78687 20.7628 5.12835 20.6213 5.49147 20.6213C5.85437 20.6213 6.19554 20.7627 6.4521 21.0192L10.9255 25.4925C10.9258 25.4928 10.926 25.4931 10.9263 25.4934L14.2818 28.8488L18.9798 33.5467C19.2363 33.8033 19.3776 34.1445 19.3776 34.5075ZM15.3341 26.5866L14.373 25.6257L13.4122 24.6647L24.6636 13.4133L26.5858 15.3353L15.3341 26.5866ZM35.4676 18.9804C35.2109 19.2371 34.8698 19.3785 34.5069 19.3785H34.5068C34.1437 19.3785 33.8023 19.2371 33.5456 18.9805L29.0746 14.5096C29.0736 14.5086 29.0728 14.5075 29.0718 14.5065L25.4923 10.9273C25.4917 10.9267 25.4911 10.9262 25.4906 10.9257L21.0183 6.45359C20.4885 5.92359 20.4885 5.06125 21.018 4.53141C21.2748 4.27461 21.6162 4.1332 21.9794 4.1332C22.3423 4.1332 22.6837 4.27461 22.9405 4.53133L24.7249 6.3157C24.7266 6.31742 24.7281 6.3193 24.7298 6.32094L33.6783 15.2691C33.6791 15.2699 33.6799 15.2707 33.6808 15.2714L35.4678 17.0584C35.7245 17.3152 35.866 17.6564 35.866 18.0195C35.8659 18.3825 35.7245 18.7237 35.4676 18.9804Z" fill="#BBDCD2"/>
</g>
</g>
<defs>
<clipPath id="clip0_5229_145735">
<rect width="40" height="40" fill="white"/>
</clipPath>
<clipPath id="clip1_5229_145735">
<rect width="40" height="40" fill="white"/>
</clipPath>
</defs>
</svg>
