<svg width="40" height="40" viewBox="0 0 40 40" fill="none" xmlns="http://www.w3.org/2000/svg">
<g clip-path="url(#clip0_5229_145820)">
<path d="M4.04133 9.375H1.25V16.4062H3.70438L6.04813 40H32.8906C36.1215 40 38.75 37.3715 38.75 34.1406V32.9688H36.4062V30.625H38.75V27.1094C38.75 23.8785 36.1215 21.25 32.8906 21.25H24.1046L24.5784 16.4062H27.0312V9.375H24.2399L21.8962 4.6875H13.8838L12.7119 0H5.9375V2.34375H10.882L11.4679 4.6875H6.38508L4.04133 9.375ZM32.8906 37.6562H21.1719C19.6441 37.6562 18.3407 36.6766 17.857 35.3117H36.2055C35.7218 36.6766 34.4184 37.6562 32.8906 37.6562ZM34.0625 32.9688H20V30.625H34.0625V32.9688ZM36.4062 27.1094V28.2812H17.6562V27.1094C17.6562 25.1709 19.2334 23.5938 21.1719 23.5938H32.8906C34.8291 23.5938 36.4062 25.1709 36.4062 27.1094ZM21.7497 21.25H21.1719C17.941 21.25 15.3125 23.8785 15.3125 27.1094V30.625H17.6562V32.9688H15.3125V34.1406C15.3125 35.4587 15.7502 36.6763 16.4876 37.6562H8.17062L6.05969 16.4062H22.2235L21.7497 21.25ZM24.6875 14.0625H3.59375V11.7188H24.6875V14.0625ZM20.4476 7.03125L21.6195 9.375H6.6618L7.83367 7.03125H20.4476Z" fill="#BBDCD2"/>
</g>
<defs>
<clipPath id="clip0_5229_145820">
<rect width="40" height="40" fill="white"/>
</clipPath>
</defs>
</svg>
