<svg width="40" height="40" viewBox="0 0 40 40" fill="none" xmlns="http://www.w3.org/2000/svg">
<g clip-path="url(#clip0_5229_145825)">
<path d="M37.0124 8.3818C35.5187 5.89219 32.863 4.23242 29.8755 4.23242H9.95852C6.97094 4.23242 4.31539 5.89219 2.82156 8.3818C0.99586 11.7013 0 15.3528 0 19.1702C0 28.2988 3.65148 35.7677 8.29875 35.7677C10.7884 35.7677 12.7801 33.4441 14.2738 28.6308C14.4398 27.9669 15.1037 27.469 15.9336 27.469H24.0664C24.7303 27.469 25.3942 27.9669 25.7262 28.6308C27.2199 33.4441 29.2116 35.7677 31.7013 35.7677C36.3485 35.7677 40 28.2988 40 19.1702C39.8341 15.3528 38.8382 11.7013 37.0124 8.3818ZM31.5352 32.4482C31.0373 32.4482 29.8755 31.1204 28.7137 27.6349C28.0498 25.4773 26.058 24.1495 23.9004 24.1495H15.9336C13.7759 24.1495 11.7842 25.6432 11.1203 27.6349C9.95852 31.1204 8.79664 32.4482 8.29875 32.4482C6.63898 32.4482 3.31953 27.303 3.31953 19.1702C3.31953 16.0167 4.14937 12.8632 5.6432 10.0416C6.63906 8.54789 8.29883 7.55203 9.95859 7.55203H29.8756C31.5354 7.55203 33.1952 8.54789 34.191 10.0416C35.6848 12.8632 36.5147 16.0167 36.5147 19.1702C36.5145 27.303 33.195 32.4482 31.5352 32.4482Z" fill="#BBDCD2"/>
<path d="M15 15H13.3334V13.3334C13.3334 12.3334 12.6667 11.6667 11.6667 11.6667C10.6667 11.6667 10.0001 12.3334 10.0001 13.3334V15H8.33345C7.33345 15 6.66681 15.6667 6.66681 16.6667C6.66681 17.6667 7.33345 18.3333 8.33345 18.3333H10V20C10 21 10.6667 21.6667 11.6667 21.6667C12.6667 21.6667 13.3333 21 13.3333 20V18.3334H15C16 18.3334 16.6667 17.6667 16.6667 16.6667C16.6667 15.6667 16 15 15 15Z" fill="#BBDCD2"/>
<path d="M30.8334 16.6667C32.2141 16.6667 33.3334 15.5475 33.3334 14.1667C33.3334 12.786 32.2141 11.6667 30.8334 11.6667C29.4527 11.6667 28.3334 12.786 28.3334 14.1667C28.3334 15.5475 29.4527 16.6667 30.8334 16.6667Z" fill="#BBDCD2"/>
<path d="M25.8334 21.6667C27.2141 21.6667 28.3334 20.5475 28.3334 19.1667C28.3334 17.786 27.2141 16.6667 25.8334 16.6667C24.4527 16.6667 23.3334 17.786 23.3334 19.1667C23.3334 20.5475 24.4527 21.6667 25.8334 21.6667Z" fill="#BBDCD2"/>
</g>
<defs>
<clipPath id="clip0_5229_145825">
<rect width="40" height="40" fill="white"/>
</clipPath>
</defs>
</svg>
