<svg width="40" height="40" viewBox="0 0 40 40" fill="none" xmlns="http://www.w3.org/2000/svg">
<g clip-path="url(#clip0_5229_145830)">
<g clip-path="url(#clip1_5229_145830)">
<path d="M19.3231 13.4445C18.3862 14.3536 17.3245 15.3842 16.7859 16.5936C16.6244 16.9559 16.6574 17.3755 16.8738 17.7084C17.0898 18.0414 17.4597 18.2422 17.8564 18.2422H21.9293C22.5766 18.2422 23.1012 17.7173 23.1012 17.0703C23.1012 16.423 22.5766 15.8984 21.9293 15.8984H20.1761C20.4321 15.6342 20.6991 15.3748 20.9555 15.1263C22.1069 14.0088 23.1015 13.0435 23.1015 11.8353C23.1015 10.0479 21.6473 8.59375 19.8602 8.59375C18.554 8.59375 17.3825 9.37103 16.8753 10.5743C16.6238 11.1707 16.9034 11.8579 17.4997 12.1094C18.0963 12.3611 18.7835 12.0813 19.0347 11.485C19.1751 11.1523 19.4989 10.9375 19.8602 10.9375C20.3473 10.9375 20.7452 11.3278 20.7574 11.8124C20.6674 12.1396 19.8596 12.9236 19.3231 13.4445Z" fill="#BBDCD2"/>
<path d="M2.05136 13.1246L2.54758 12.6281V15.8889H1.72818C1.0809 15.8889 0.556305 16.4135 0.556305 17.0608C0.556305 17.708 1.0809 18.2326 1.72818 18.2326H5.71011C6.35709 18.2326 6.88199 17.708 6.88199 17.0608C6.88199 16.4135 6.35709 15.8889 5.71011 15.8889H4.89133V9.79697C4.89133 9.32303 4.60568 8.89548 4.16776 8.71451C3.72983 8.53293 3.22568 8.63364 2.89059 8.96872L0.393341 11.4681C-0.0641173 11.9259 -0.0638121 12.6681 0.394257 13.1255C0.85202 13.5827 1.5939 13.5827 2.05136 13.1246Z" fill="#BBDCD2"/>
<path d="M36.4468 20.0835C35.4977 20.0835 34.6054 20.4534 33.9343 21.1248C33.2632 21.7961 32.8937 22.6888 32.8937 23.6379C32.8937 25.5977 34.4876 27.1923 36.4468 27.1926C37.3959 27.1926 38.2883 26.8227 38.9594 26.1513C39.6304 25.4799 40 24.5873 40 23.6382C40 21.678 38.4061 20.0835 36.4468 20.0835ZM37.3019 24.4945C37.0734 24.7228 36.7697 24.8488 36.4468 24.8488C35.78 24.8488 35.2374 24.3056 35.2374 23.6382C35.2374 23.3147 35.3635 23.0104 35.592 22.7819C35.8203 22.5533 36.124 22.4276 36.4468 22.4276C37.114 22.4276 37.6562 22.9705 37.6562 23.6382C37.6562 23.9617 37.5305 24.2656 37.3019 24.4945Z" fill="#BBDCD2"/>
<path d="M19.9103 27.1927C20.8594 27.1927 21.7517 26.8229 22.4228 26.1515C23.0939 25.4801 23.4631 24.5878 23.4631 23.6384C23.4631 21.6785 21.8692 20.084 19.9103 20.084C19.91 20.084 19.9103 20.084 19.91 20.084C18.9609 20.084 18.0685 20.4536 17.3975 21.1252C16.7267 21.7963 16.3571 22.689 16.3571 23.6384C16.3571 25.5982 17.951 27.1927 19.9103 27.1927ZM19.0552 22.782C19.2834 22.5535 19.5874 22.4274 19.9103 22.4274C20.5771 22.4274 21.1194 22.9706 21.1194 23.6384C21.1194 23.9619 20.9937 24.2658 20.7651 24.4944C20.5365 24.723 20.2332 24.849 19.9103 24.849C19.2432 24.849 18.7009 24.3058 18.7009 23.6381C18.7009 23.3146 18.8266 23.0106 19.0552 22.782Z" fill="#BBDCD2"/>
<path d="M10.7281 23.7419C10.7281 23.131 10.2332 22.636 9.6228 22.636C9.01215 22.636 8.51746 23.131 8.51746 23.7419C8.51746 24.3526 9.01215 24.8479 9.6228 24.8479C10.2332 24.8479 10.7281 24.3526 10.7281 23.7419Z" fill="#BBDCD2"/>
<path d="M14.986 23.7419C14.986 23.131 14.4913 22.636 13.8809 22.636C13.2703 22.636 12.7756 23.131 12.7756 23.7419C12.7756 24.3526 13.2703 24.8479 13.8809 24.8479C14.4913 24.8479 14.986 24.3526 14.986 23.7419Z" fill="#BBDCD2"/>
<path d="M27.0291 23.7419C27.0291 23.131 26.5344 22.636 25.9238 22.636C25.3134 22.636 24.8184 23.131 24.8184 23.7419C24.8184 24.3526 25.3134 24.8479 25.9238 24.8479C26.5344 24.8479 27.0291 24.3526 27.0291 23.7419Z" fill="#BBDCD2"/>
<path d="M31.2872 23.7419C31.2872 23.131 30.7925 22.636 30.1819 22.636C29.5715 22.636 29.0765 23.131 29.0765 23.7419C29.0765 24.3526 29.5715 24.8479 30.1819 24.8479C30.7925 24.8479 31.2872 24.3526 31.2872 23.7419Z" fill="#BBDCD2"/>
<path d="M22.9312 29.0312H17.1039C16.4566 29.0312 15.932 29.5558 15.932 30.2031C15.932 30.8504 16.4566 31.375 17.1039 31.375H22.9312C23.5785 31.375 24.1031 30.8504 24.1031 30.2031C24.1031 29.5558 23.5785 29.0312 22.9312 29.0312Z" fill="#BBDCD2"/>
<path d="M6.03668 20.2354L2.78931 23.4922L2.00073 22.7033C1.54327 22.2453 0.801392 22.2453 0.343628 22.7027C-0.114441 23.1602 -0.114441 23.9021 0.343018 24.3598L1.96136 25.9791C2.18109 26.1991 2.47925 26.3227 2.79022 26.3227H2.79083C3.10181 26.3227 3.40027 26.1988 3.62 25.9785L7.69623 21.8904C8.15338 21.432 8.15216 20.6901 7.69379 20.2333C7.23572 19.7761 6.49353 19.7773 6.03668 20.2354Z" fill="#BBDCD2"/>
<path d="M36.4126 18.2681C38.1793 18.2681 39.6029 16.8588 39.6536 15.0595C39.6664 14.5999 39.602 13.4329 38.7256 12.5314C38.5818 12.3834 38.3978 12.226 38.1674 12.0822L39.3414 10.5008C39.6054 10.1453 39.6466 9.67102 39.4476 9.27551C39.2486 8.88 38.8434 8.63037 38.4005 8.63037H34.8871C34.2398 8.63037 33.7152 9.15497 33.7152 9.80225C33.7152 10.4495 34.2398 10.9741 34.8871 10.9741H36.0711L35.2786 12.0413C35.0146 12.3969 34.9734 12.8708 35.1727 13.2666C35.3717 13.6621 35.7766 13.9117 36.2195 13.9117C36.6037 13.9117 36.8817 13.9972 37.0453 14.1653C37.2525 14.3787 37.3178 14.7449 37.3108 14.9939C37.2961 15.5157 36.9015 15.9244 36.4126 15.9244C36.0516 15.9244 35.7278 15.7095 35.5874 15.3772C35.3363 14.7806 34.6487 14.501 34.0524 14.7525C33.4561 15.004 33.1766 15.6912 33.428 16.2875C33.9352 17.4908 35.1068 18.2681 36.4126 18.2681Z" fill="#BBDCD2"/>
</g>
</g>
<defs>
<clipPath id="clip0_5229_145830">
<rect width="40" height="40" fill="white"/>
</clipPath>
<clipPath id="clip1_5229_145830">
<rect width="40" height="40" fill="white"/>
</clipPath>
</defs>
</svg>
