<svg width="40" height="40" viewBox="0 0 40 40" fill="none" xmlns="http://www.w3.org/2000/svg">
<g clip-path="url(#clip0_5229_145835)">
<path d="M3.51837 22.157C3.51837 25.9608 4.75571 30.3256 6.82821 33.8329C8.67 36.9497 11.5823 39.9999 15.1701 39.9999C16.738 39.9999 17.7863 39.4334 18.6287 38.9783C19.2401 38.6479 19.6052 38.461 20 38.461C20.3948 38.461 20.76 38.6479 21.3713 38.9783C22.2136 39.4334 23.2619 39.9999 24.83 39.9999C28.4214 39.9999 31.3335 36.944 33.1718 33.8329C35.2443 30.3256 36.4817 25.9608 36.4817 22.157C36.4817 12.7117 30.3514 9.37503 27.0354 9.37503C25.2192 9.37503 23.8866 10.0585 22.7109 10.6615C22.2579 10.8939 21.8348 11.1103 21.4147 11.2725C22.2004 7.55214 24.3996 4.28457 27.6059 2.147C28.1445 1.78794 28.29 1.06036 27.9309 0.521922C27.5719 -0.0165923 26.8443 -0.161983 26.3058 0.196845C23.579 2.01473 21.481 4.5377 20.1952 7.45503C18.5544 3.75754 14.8485 1.17192 10.5497 1.17192C9.9025 1.17192 9.37781 1.69661 9.37781 2.34379C9.37781 5.0823 10.4272 7.58019 12.1447 9.45706C7.62836 10.2417 3.51837 14.4256 3.51837 22.157ZM11.8197 3.61379C15.3281 4.16129 18.1071 6.94027 18.6545 10.4487C15.1461 9.9012 12.3672 7.1223 11.8197 3.61379ZM12.9646 11.7188C14.2201 11.7188 15.219 12.2203 16.2766 12.7514C17.3829 13.307 18.5269 13.8798 19.9714 13.899C19.9826 13.8993 19.994 13.9007 20.0051 13.9007C20.0092 13.9007 20.0132 13.9002 20.0172 13.9002C20.0267 13.9002 20.0358 13.9009 20.0453 13.9009C21.5305 13.9009 22.6742 13.3142 23.7804 12.747C24.8113 12.2182 25.7851 11.7188 27.0354 11.7188C29.2023 11.7188 34.1378 14.0928 34.1378 22.157C34.1378 25.5596 33.0224 29.4787 31.1539 32.6405C29.2704 35.828 26.9654 37.6561 24.8299 37.6561C23.8547 37.6561 23.1896 37.2968 22.4854 36.9163C21.7923 36.5418 21.0067 36.1172 20 36.1172C18.9933 36.1172 18.2077 36.5418 17.5146 36.9163C16.8105 37.2968 16.1455 37.6561 15.1701 37.6561C13.0347 37.6561 10.7296 35.828 8.84602 32.6405C6.97766 29.4787 5.8622 25.5595 5.8622 22.157C5.86212 13.964 10.9795 11.7188 12.9646 11.7188Z" fill="#BBDCD2"/>
</g>
<defs>
<clipPath id="clip0_5229_145835">
<rect width="40" height="40" fill="white"/>
</clipPath>
</defs>
</svg>
