<svg width="40" height="40" viewBox="0 0 40 40" fill="none" xmlns="http://www.w3.org/2000/svg">
<g clip-path="url(#clip0_5229_145840)">
<g clip-path="url(#clip1_5229_145840)">
<path d="M29.7514 14.3321L24.4834 0.885287C24.1907 0.168748 23.379 -0.18255 22.6562 0.0942965L9.20939 5.36229C8.48643 5.64843 8.13236 6.46652 8.4184 7.18948L13.726 20.6363C14.0121 21.3593 14.8302 21.7134 15.5531 21.4273L28.9604 16.1593C29.6834 15.8732 30.0375 15.0551 29.7514 14.3321ZM15.1339 19.8849L9.99248 6.8019L23.0755 1.65255L28.2169 14.7434L15.1339 19.8849Z" fill="#BBDCD2"/>
<path d="M16.7634 22.7722H2.35944C1.5818 22.7722 0.951477 23.4025 0.951477 24.1802V38.592C0.951477 39.3697 1.5818 40 2.35944 40H16.7634C17.541 40 18.1713 39.3697 18.1713 38.592V24.1802C18.1713 23.4025 17.5409 22.7722 16.7634 22.7722ZM16.5894 38.4101H2.53346V24.3542H16.5894V38.4101Z" fill="#BBDCD2"/>
<path d="M38.0331 22.6931L24.1117 18.9913C23.3526 18.8061 22.5851 19.2637 22.3873 20.0196L18.6855 33.941C18.4843 34.6922 18.9303 35.4641 19.6814 35.6652C19.6816 35.6653 19.6819 35.6653 19.6821 35.6654L33.6035 39.3672C34.3547 39.5683 35.1266 39.1224 35.3277 38.3713C35.3278 38.3711 35.3278 38.3708 35.3279 38.3706L38.9981 24.4175C39.2015 23.6757 38.7718 22.9078 38.0331 22.6931ZM33.8487 37.722L20.2595 34.1546L23.8744 20.5733L37.4557 24.1881L33.8487 37.722Z" fill="#BBDCD2"/>
<path d="M23.8111 12.3233C23.6674 12.05 23.4774 11.8038 23.2495 11.5956L19.2945 7.4271L18.8278 6.92087C18.7106 6.79925 18.5806 6.69059 18.4402 6.59656C18.2983 6.49996 18.1358 6.43767 17.9657 6.41463C17.5609 6.38635 17.1651 6.54346 16.8899 6.84177C16.7811 6.97525 16.7053 7.13236 16.6684 7.30054C16.6283 7.49829 16.6097 7.69989 16.6131 7.90169C16.6131 8.13108 16.6131 8.32883 16.6131 8.49494V14.2533C16.6289 14.4906 16.642 14.6726 16.6526 14.7991C16.6586 14.9181 16.6827 15.0354 16.7238 15.1472C16.8007 15.3328 16.9533 15.4767 17.143 15.5427C17.3356 15.6218 17.5516 15.6218 17.7442 15.5427C17.94 15.487 18.0965 15.3394 18.1634 15.1472C18.2227 14.8425 18.244 14.5316 18.2267 14.2217V13.0906L21.3511 11.8646L22.0946 12.6555L22.4347 12.9957C22.5316 13.0981 22.6405 13.1884 22.7591 13.2646C22.848 13.3182 22.9482 13.3506 23.0517 13.3595C23.1679 13.3679 23.2844 13.3489 23.3918 13.3042C23.5777 13.2278 23.7276 13.0836 23.8111 12.9008C23.8898 12.7164 23.8898 12.5077 23.8111 12.3233ZM18.1555 11.7459L18.0448 8.15481L20.4494 10.8442L18.1555 11.7459Z" fill="#BBDCD2"/>
<path d="M11.5349 30.7692C12.2884 30.4878 12.7828 29.762 12.7689 28.9578C12.7695 28.7258 12.7293 28.4956 12.6502 28.2775C12.5726 28.0613 12.4574 27.8605 12.3101 27.6843C12.1648 27.5088 11.991 27.359 11.7959 27.2413C11.5532 27.0961 11.2846 26.9994 11.0049 26.9566C10.6673 26.905 10.3261 26.8812 9.98457 26.8854H7.35848C7.07362 26.8544 6.78827 26.9399 6.56749 27.1227C6.38704 27.3447 6.30182 27.629 6.33019 27.9137V34.1151C6.30132 34.3985 6.38349 34.6821 6.55958 34.906C6.78017 35.0955 7.06967 35.1843 7.35848 35.1512H9.88174C10.25 35.1399 10.6172 35.1055 10.9812 35.0484C11.2797 35.0133 11.5724 34.9389 11.8513 34.8269C12.2419 34.6643 12.5751 34.3889 12.8084 34.036C13.0467 33.6631 13.1705 33.2287 13.1644 32.7862C13.1825 31.8075 12.4955 30.9571 11.5349 30.7692ZM8.015 28.1589H9.33596C9.79611 28.1352 10.2563 28.2051 10.6885 28.3646C10.9876 28.509 11.1646 28.825 11.1315 29.1555C11.1333 29.3419 11.084 29.5251 10.9891 29.6855C10.8804 29.898 10.6931 30.0597 10.4671 30.1364C10.1537 30.2269 9.82795 30.267 9.50206 30.255H7.97545L8.015 28.1589ZM11.4637 32.6755C11.4637 33.4875 10.8994 33.8936 9.771 33.8936H7.97545L8.015 31.489H9.73145C10.1871 31.4602 10.6417 31.5588 11.0445 31.7737C11.3349 31.9781 11.4946 32.3217 11.4637 32.6755Z" fill="#BBDCD2"/>
<path d="M32.8204 26.8379C32.6187 26.3388 32.2951 25.8982 31.8792 25.5565C31.4203 25.1737 30.8788 24.903 30.2972 24.7655C29.7827 24.6232 29.2453 24.583 28.7152 24.6469C28.2054 24.7091 27.7147 24.8789 27.2756 25.1452C26.8213 25.425 26.4305 25.7968 26.1287 26.2368C25.7885 26.7376 25.5395 27.2946 25.393 27.882C25.2902 28.2568 25.2265 28.6411 25.2032 29.029C25.1828 29.3917 25.2067 29.7557 25.2744 30.1126C25.3382 30.4516 25.4445 30.7811 25.5908 31.0935C25.743 31.414 25.946 31.7079 26.192 31.9635C26.437 32.2145 26.7199 32.4254 27.0304 32.5884C27.3848 32.7727 27.7589 32.916 28.1457 33.0156C28.6413 33.1579 29.1606 33.1983 29.6723 33.1342C30.1034 33.0679 30.5158 32.9115 30.8825 32.6754C31.1857 32.486 31.4533 32.2451 31.6735 31.9635C31.8608 31.7303 31.998 31.4611 32.0769 31.1726C32.1325 30.9862 32.1066 30.7851 32.0057 30.6189C31.9096 30.4523 31.7496 30.3322 31.5628 30.2866C31.3801 30.2208 31.1768 30.2473 31.017 30.3578C30.8642 30.483 30.7332 30.6327 30.6294 30.8008C30.3838 31.1582 30.0367 31.4338 29.6328 31.5918C29.2215 31.7259 28.7784 31.7259 28.3672 31.5918C27.9935 31.5192 27.6465 31.3471 27.3626 31.0935C27.088 30.7811 26.9168 30.3916 26.8722 29.9782C26.8192 29.4461 26.8702 28.9087 27.0225 28.3962C27.1636 27.6019 27.5709 26.8795 28.1773 26.3475C28.684 25.9531 29.3505 25.8293 29.965 26.0153C30.3398 26.1013 30.6793 26.3001 30.9379 26.5848C31.191 26.9002 31.3646 27.2719 31.4441 27.6685C31.4845 27.8785 31.5564 28.0812 31.6577 28.2696C31.7597 28.4113 31.9129 28.5078 32.0848 28.5386C32.2657 28.5886 32.4594 28.5567 32.6148 28.4515C32.7755 28.3544 32.8918 28.1982 32.9391 28.0165C33.0224 27.6208 32.981 27.209 32.8204 26.8379Z" fill="#BBDCD2"/>
</g>
</g>
<defs>
<clipPath id="clip0_5229_145840">
<rect width="40" height="40" fill="white"/>
</clipPath>
<clipPath id="clip1_5229_145840">
<rect width="40" height="40" fill="white"/>
</clipPath>
</defs>
</svg>
