<svg width="40" height="40" viewBox="0 0 40 40" fill="none" xmlns="http://www.w3.org/2000/svg">
<g clip-path="url(#clip0_5229_145845)">
<g clip-path="url(#clip1_5229_145845)">
<path d="M39.5243 0.36398C39.2207 0.0947833 38.8178 -0.0343739 38.4143 0.00823206L12.7 2.86535C11.9762 2.94545 11.4285 3.55717 11.4286 4.28532V29.7424C10.1334 28.9691 8.65144 28.564 7.14291 28.571C3.20432 28.5711 0 31.134 0 34.2854C0 37.4368 3.20432 39.9997 7.14282 39.9997C11.0813 39.9997 14.2856 37.4368 14.2856 34.2854V12.7139L37.1428 10.1668V26.8811C35.847 26.1092 34.3653 25.7057 32.8571 25.714C28.9185 25.714 25.7143 28.2768 25.7143 31.4283C25.7143 34.5797 28.9186 37.1426 32.8571 37.1426C36.7956 37.1426 39.9999 34.5797 39.9999 31.4283V1.42829C39.9999 1.02199 39.827 0.634934 39.5243 0.36398ZM7.14282 37.1425C4.82 37.1425 2.85711 35.8339 2.85711 34.2854C2.85711 32.7368 4.82 31.4283 7.14282 31.4283C9.46565 31.4283 11.4285 32.7368 11.4285 34.2854C11.4285 35.8339 9.46573 37.1425 7.14282 37.1425ZM32.8571 34.2854C30.5343 34.2854 28.5714 32.9768 28.5714 31.4283C28.5714 29.8797 30.5343 28.5712 32.8571 28.5712C35.1799 28.5712 37.1428 29.8797 37.1428 31.4283C37.1428 32.9768 35.18 34.2854 32.8571 34.2854ZM37.1428 7.29252L14.2856 9.83256V5.57112L37.1428 3.02397V7.29252Z" fill="#BBDCD2"/>
</g>
</g>
<defs>
<clipPath id="clip0_5229_145845">
<rect width="40" height="40" fill="white"/>
</clipPath>
<clipPath id="clip1_5229_145845">
<rect width="40" height="40" fill="white"/>
</clipPath>
</defs>
</svg>
