<svg width="40" height="40" viewBox="0 0 40 40" fill="none" xmlns="http://www.w3.org/2000/svg">
<g clip-path="url(#clip0_5229_145850)">
<path d="M4.76562 25.9688V30.6562H2.42188V33H37.5781V30.6562H35.2344V25.9688H32.8906V16.5156H34.0625C36.001 16.5156 37.5781 14.9385 37.5781 13V9.48438H34.3419L21.1719 2.82617V0.03125H28.2031V-7H18.8281V2.82617L5.65813 9.48438H2.42188V13C2.42188 14.9385 3.99898 16.5156 5.9375 16.5156H7.10938V25.9688H4.76562ZM21.1719 -4.65625H25.8594V-2.3125H21.1719V-4.65625ZM7.10938 30.6562V28.3125H32.8906V30.6562H7.10938ZM16.4844 16.5156V25.9688H14.1406V16.5156H16.4844ZM23.5156 25.9688V16.5156H25.8594V25.9688H23.5156ZM21.1719 25.9688H18.8281V16.5156H21.1719V25.9688ZM30.5469 25.9688H28.2031V16.5156H30.5469V25.9688ZM20 4.86L29.1471 9.48438H10.8529L20 4.86ZM4.76562 13V11.8281H35.2344V13C35.2344 13.6462 34.7087 14.1719 34.0625 14.1719H5.9375C5.29133 14.1719 4.76562 13.6462 4.76562 13ZM9.45312 16.5156H11.7969V25.9688H9.45312V16.5156Z" fill="#BBDCD2"/>
</g>
<defs>
<clipPath id="clip0_5229_145850">
<rect width="40" height="40" fill="white"/>
</clipPath>
</defs>
</svg>
