<svg width="40" height="40" viewBox="0 0 40 40" fill="none" xmlns="http://www.w3.org/2000/svg">
<g clip-path="url(#clip0_5229_145855)">
<g clip-path="url(#clip1_5229_145855)">
<path d="M20 39.5834C9.16669 39.5834 0.416687 30.8334 0.416687 20.0001C0.416687 9.16675 9.16669 0.416748 20 0.416748C30.8334 0.416748 39.5834 9.16675 39.5834 20.0001C39.5834 30.8334 30.8334 39.5834 20 39.5834ZM20 3.66675C11 3.66675 3.66669 11.0001 3.66669 20.0001C3.66669 29.0001 11 36.3334 20 36.3334C29 36.3334 36.3334 29.0001 36.3334 20.0001C36.3334 11.0001 29 3.66675 20 3.66675Z" fill="#BBDCD2"/>
<path d="M20 39.5834C14.1667 39.5834 11.0834 29.5001 11.0834 20.0001C11.0834 10.5001 14.1667 0.416748 20 0.416748C25.8334 0.416748 28.9167 10.5001 28.9167 20.0001C28.9167 29.5001 25.8334 39.5834 20 39.5834ZM20 3.66675C17.6667 3.66675 14.3334 10.0001 14.3334 20.0001C14.3334 30.0001 17.6667 36.3334 20 36.3334C22.3334 36.3334 25.6667 30.0001 25.6667 20.0001C25.6667 10.0001 22.3334 3.66675 20 3.66675Z" fill="#BBDCD2"/>
<path d="M37.9167 21.6668H2.08335C1.16669 21.6668 0.416687 20.9168 0.416687 20.0002C0.416687 19.0835 1.16669 18.3335 2.08335 18.3335H38C38.9167 18.3335 39.6667 19.0835 39.6667 20.0002C39.5834 20.9168 38.8334 21.6668 37.9167 21.6668Z" fill="#BBDCD2"/>
</g>
</g>
<defs>
<clipPath id="clip0_5229_145855">
<rect width="40" height="40" fill="white"/>
</clipPath>
<clipPath id="clip1_5229_145855">
<rect width="40" height="40" fill="white"/>
</clipPath>
</defs>
</svg>
