<svg width="40" height="40" viewBox="0 0 40 40" fill="none" xmlns="http://www.w3.org/2000/svg">
<g clip-path="url(#clip0_5229_145860)">
<g clip-path="url(#clip1_5229_145860)">
<path d="M12.4689 40C9.05396 40 6.27594 37.222 6.27594 33.8074C6.27594 33.7793 6.27625 33.7512 6.27655 33.7234C6.24847 33.7238 6.2207 33.7238 6.19263 33.7238C2.77802 33.7241 0 30.946 0 27.5311C0 24.1165 2.77802 21.3385 6.19263 21.3385C7.44873 21.3385 8.64777 21.7102 9.66461 22.402L22.402 9.664C21.7105 8.64746 21.3388 7.44843 21.3388 6.19263C21.3385 2.77802 24.1165 0 27.5311 0C30.946 0 33.7241 2.77802 33.7241 6.19263C33.7241 6.2207 33.7238 6.24878 33.7234 6.27655C33.7512 6.27625 33.7793 6.27625 33.8074 6.27625C37.222 6.27625 40 9.05426 40 12.4689C40 15.8835 37.222 18.6615 33.8074 18.6615C32.5513 18.6615 31.3522 18.2895 30.3351 17.5977L17.598 30.3354C18.2895 31.3522 18.6615 32.5513 18.6615 33.8074C18.6615 37.222 15.8835 40 12.4689 40ZM8.78876 32.6764C8.67676 33.0399 8.62 33.4204 8.62 33.8074C8.62 35.9296 10.3464 37.6562 12.4689 37.6562C14.5911 37.6562 16.3177 35.9296 16.3177 33.8074C16.3177 32.7798 15.9174 31.8134 15.1898 31.0861C14.7324 30.6287 14.7324 29.8865 15.1898 29.429L29.429 15.1892C29.8865 14.7314 30.629 14.7321 31.0861 15.1892C31.814 15.9167 32.7802 16.3177 33.8074 16.3177C35.9296 16.3177 37.6562 14.5911 37.6562 12.4686C37.6562 10.3464 35.9296 8.61969 33.8074 8.61969C33.421 8.61969 33.0402 8.67645 32.6761 8.78876C31.778 9.06464 30.9348 8.22205 31.2112 7.32391C31.3232 6.95953 31.3803 6.57898 31.3803 6.19263C31.3803 4.07043 29.6536 2.34375 27.5311 2.34375C25.4089 2.34375 23.6823 4.07043 23.6823 6.19263C23.6823 7.21985 24.0829 8.18604 24.8102 8.91327C25.2679 9.37073 25.2673 10.1132 24.8102 10.5704L10.571 24.8102C10.1135 25.2679 9.37103 25.2673 8.91388 24.8102C8.18634 24.0829 7.22015 23.6823 6.19263 23.6823C4.07043 23.6823 2.34375 25.4089 2.34375 27.5311C2.34375 29.6536 4.07043 31.3803 6.19263 31.3803C6.57745 31.3803 6.95862 31.3232 7.32544 31.2106C8.2959 30.9134 9.04358 31.8494 8.78876 32.6764Z" fill="#BBDCD2"/>
</g>
</g>
<defs>
<clipPath id="clip0_5229_145860">
<rect width="40" height="40" fill="white"/>
</clipPath>
<clipPath id="clip1_5229_145860">
<rect width="40" height="40" fill="white"/>
</clipPath>
</defs>
</svg>
