<svg width="40" height="40" viewBox="0 0 40 40" fill="none" xmlns="http://www.w3.org/2000/svg">
<g clip-path="url(#clip0_5229_145870)">
<g clip-path="url(#clip1_5229_145870)">
<path d="M36.1541 0.00372058C36.0951 0.00879659 36.036 0.0172011 35.9784 0.0305985L2.23885 7.53228C1.66443 7.65577 1.25211 8.16287 1.25019 8.75044V38.7452C1.24753 39.4393 1.81088 40.0026 2.50497 40L37.5017 39.9902C38.1886 39.9878 38.7442 39.4321 38.7467 38.7452V13.7597C38.7494 13.0692 38.1922 12.5074 37.5017 12.5049H14.4545L37.7702 7.47611C38.4606 7.32358 38.886 6.63033 38.71 5.94549L37.465 0.953268C37.32 0.358376 36.7647 -0.0432118 36.1541 0.00372058ZM35.3339 2.73537L35.9784 5.29859L32.6339 6.02121L30.1586 3.88521L35.3339 2.73537ZM27.1145 4.5614L29.5728 6.68035L24.6758 7.7374L22.2468 5.64284L27.1145 4.5614ZM19.2026 6.31903L21.6121 8.39895L16.1072 9.58782L13.727 7.53719L19.2026 6.31903ZM10.6829 8.21338L13.046 10.2494L6.03496 11.7629L3.97701 9.70498L10.6829 8.21338ZM3.74992 13.0225L8.23437 17.5069H3.74992V13.0225ZM9.2792 15.0072H12.5016L11.1223 16.8503L9.2792 15.0072ZM15.6238 15.0072H20.6258L18.7485 17.5069H13.7513L15.6238 15.0072ZM23.7505 15.0072H29.375L27.505 17.5069H21.8732L23.7505 15.0072ZM32.4972 15.0072H36.2566V17.5069H30.62L32.4972 15.0072ZM3.74992 19.9969H36.2566V37.5002H3.74992V19.9969ZM13.7514 24.9989C12.0845 24.9989 12.0845 27.4987 13.7514 27.4987H26.2551C27.9221 27.4987 27.9221 24.9989 26.2551 24.9989H13.7514ZM13.7514 29.9985C12.0845 29.9985 12.0845 32.4982 13.7514 32.4982H26.2551C27.9221 32.4982 27.9221 29.9985 26.2551 29.9985H13.7514Z" fill="#BBDCD2"/>
</g>
</g>
<defs>
<clipPath id="clip0_5229_145870">
<rect width="40" height="40" fill="white"/>
</clipPath>
<clipPath id="clip1_5229_145870">
<rect width="40" height="40" fill="white"/>
</clipPath>
</defs>
</svg>
