<svg width="40" height="40" viewBox="0 0 40 40" fill="none" xmlns="http://www.w3.org/2000/svg">
<g clip-path="url(#clip0_5229_145875)">
<path fill-rule="evenodd" clip-rule="evenodd" d="M5 35V3.75C5 3.06 5.55875 2.5 6.25 2.5H21.25C21.94 2.5 22.5 3.06 22.5 3.75V10H33.75C34.44 10 35 10.56 35 11.25V35H36.25C36.9388 35 37.5 35.56 37.5 36.25C37.5 36.94 36.9388 37.5 36.25 37.5H3.75C3.06 37.5 2.5 36.94 2.5 36.25C2.5 35.56 3.06 35 3.75 35H5ZM20 35V5H7.5V35H9.99625V28.75C9.99625 28.06 10.5563 27.5 11.2463 27.5H16.2463C16.9363 27.5 17.4963 28.06 17.4963 28.75V35H20ZM12.4963 30V35H14.9963V30H12.4963ZM22.5 12.5V35H32.5V12.5H22.5ZM26.2463 32.5H28.7463C29.4363 32.5 29.9963 31.94 29.9963 31.25C29.9963 30.56 29.4363 30 28.7463 30H26.2463C25.5563 30 24.9963 30.56 24.9963 31.25C24.9963 31.94 25.5563 32.5 26.2463 32.5ZM26.2463 27.5H28.7463C29.4363 27.5 29.9963 26.94 29.9963 26.25C29.9963 25.56 29.4363 25 28.7463 25H26.2463C25.5563 25 24.9963 25.56 24.9963 26.25C24.9963 26.94 25.5563 27.5 26.2463 27.5ZM11.2463 25H16.2463C16.9363 25 17.4963 24.44 17.4963 23.75C17.4963 23.06 16.9363 22.5 16.2463 22.5H11.2463C10.5563 22.5 9.99625 23.06 9.99625 23.75C9.99625 24.44 10.5563 25 11.2463 25ZM26.2463 22.5H28.7463C29.4363 22.5 29.9963 21.94 29.9963 21.25C29.9963 20.56 29.4363 20 28.7463 20H26.2463C25.5563 20 24.9963 20.56 24.9963 21.25C24.9963 21.94 25.5563 22.5 26.2463 22.5ZM11.2463 20H16.2463C16.9363 20 17.4963 19.44 17.4963 18.75C17.4963 18.06 16.9363 17.5 16.2463 17.5H11.2463C10.5563 17.5 9.99625 18.06 9.99625 18.75C9.99625 19.44 10.5563 20 11.2463 20ZM26.2463 17.5H28.7463C29.4363 17.5 29.9963 16.94 29.9963 16.25C29.9963 15.56 29.4363 15 28.7463 15H26.2463C25.5563 15 24.9963 15.56 24.9963 16.25C24.9963 16.94 25.5563 17.5 26.2463 17.5ZM11.2463 15H16.2463C16.9363 15 17.4963 14.44 17.4963 13.75C17.4963 13.06 16.9363 12.5 16.2463 12.5H11.2463C10.5563 12.5 9.99625 13.06 9.99625 13.75C9.99625 14.44 10.5563 15 11.2463 15ZM16.2463 7.5C16.9363 7.5 17.4963 8.06 17.4963 8.75C17.4963 9.44 16.9363 10 16.2463 10H11.2463H11.2025L11.1637 9.99748L11.1238 9.99374L11.085 9.98999L11.045 9.98375L11.0075 9.97749L10.9613 9.9675L10.9188 9.95625L10.875 9.94373L10.8313 9.93L10.795 9.91625L10.76 9.90124L10.725 9.88625L10.6913 9.87L10.6575 9.85249L10.6238 9.835L10.5912 9.81499L10.56 9.795L10.5288 9.77375L10.4988 9.75124L10.4688 9.72874L10.4338 9.69999L10.4 9.66999L10.3675 9.63875L10.3363 9.60749L10.3038 9.57125L10.275 9.53749L10.2475 9.50125L10.2213 9.46499L10.2 9.43499L10.18 9.40248L10.1613 9.36998L10.1425 9.33748L10.125 9.30374L10.1062 9.26249L10.0875 9.21999L10.0712 9.17624L10.0575 9.13624L10.0438 9.09248L10.0338 9.05499L10.025 9.01749L10.0175 8.97875L10.0113 8.93999L10.005 8.90123L10.0012 8.8625L9.99875 8.8225L9.99625 8.78248V8.73875L9.9975 8.69875L10 8.65999L10.0025 8.62123L10.005 8.59875C10.08 7.98 10.6075 7.5 11.2463 7.5H16.2463Z" fill="#BBDCD2"/>
</g>
<defs>
<clipPath id="clip0_5229_145875">
<rect width="40" height="40" fill="white"/>
</clipPath>
</defs>
</svg>
