<svg width="40" height="40" viewBox="0 0 40 40" fill="none" xmlns="http://www.w3.org/2000/svg">
<g clip-path="url(#clip0_5229_145885)">
<path d="M37.4981 30.9948C37.1572 30.4592 26.1971 13.2363 25.8594 12.7056V7.03125C27.7979 7.03125 29.375 5.45414 29.375 3.51562C29.375 1.57711 27.798 0 25.8594 0H14.1406C12.2021 0 10.625 1.57711 10.625 3.51562C10.625 5.45414 12.2021 7.03125 14.1406 7.03125V12.7056L2.50204 30.9948C0.0168886 34.9002 2.81712 40 7.4454 40H32.5547C37.1837 40 39.9828 34.8995 37.4981 30.9948ZM16.3013 13.676C16.4209 13.488 16.4845 13.2698 16.4845 13.0469V7.03125C17.1317 7.03125 17.6563 6.50656 17.6563 5.85938C17.6563 5.21219 17.1317 4.6875 16.4845 4.6875H14.1407C13.4945 4.6875 12.9688 4.1618 12.9688 3.51562C12.9688 2.86945 13.4945 2.34375 14.1407 2.34375H25.8595C26.5056 2.34375 27.0313 2.86945 27.0313 3.51562C27.0313 4.1618 26.5056 4.6875 25.8595 4.6875H23.5157C22.8685 4.6875 22.3438 5.21219 22.3438 5.85938C22.3438 6.50656 22.8685 7.03125 23.5157 7.03125V13.0469C23.5157 13.2698 23.5792 13.488 23.6989 13.676L26.8851 18.6828C24.1581 18.0994 21.2569 18.613 18.8373 20.2262L15.1755 22.6674C13.5512 23.7503 11.6315 24.2088 9.73275 23.9982L16.3013 13.676ZM32.5547 37.6562H7.4454C4.66806 37.6562 2.98845 34.596 4.47939 32.2532L8.36704 26.144C9.119 26.3097 9.87931 26.393 10.6363 26.393C12.69 26.393 14.7175 25.7895 16.4753 24.6176L20.1371 22.1763C22.8291 20.3817 26.2868 20.3355 29.0188 22.0362L35.5206 32.2532C37.0119 34.5963 35.3317 37.6562 32.5547 37.6562Z" fill="#BBDCD2"/>
<path d="M12.9688 28.2812C11.0302 28.2812 9.45312 29.8584 9.45312 31.7969C9.45312 33.7354 11.0302 35.3125 12.9688 35.3125C14.9073 35.3125 16.4844 33.7354 16.4844 31.7969C16.4844 29.8584 14.9073 28.2812 12.9688 28.2812ZM12.9688 32.9688C12.3226 32.9688 11.7969 32.443 11.7969 31.7969C11.7969 31.1507 12.3226 30.625 12.9688 30.625C13.6149 30.625 14.1406 31.1507 14.1406 31.7969C14.1406 32.443 13.615 32.9688 12.9688 32.9688Z" fill="#BBDCD2"/>
<path d="M24.6875 23.5938C22.749 23.5938 21.1719 25.1709 21.1719 27.1094C21.1719 29.0479 22.749 30.625 24.6875 30.625C26.626 30.625 28.2031 29.0479 28.2031 27.1094C28.2031 25.1709 26.6261 23.5938 24.6875 23.5938ZM24.6875 28.2812C24.0413 28.2812 23.5156 27.7555 23.5156 27.1094C23.5156 26.4632 24.0413 25.9375 24.6875 25.9375C25.3337 25.9375 25.8594 26.4632 25.8594 27.1094C25.8594 27.7555 25.3338 28.2812 24.6875 28.2812Z" fill="#BBDCD2"/>
<path d="M20 32.9688C20.6472 32.9688 21.1719 32.4441 21.1719 31.7969C21.1719 31.1497 20.6472 30.625 20 30.625C19.3528 30.625 18.8281 31.1497 18.8281 31.7969C18.8281 32.4441 19.3528 32.9688 20 32.9688Z" fill="#BBDCD2"/>
<path d="M29.375 32.9688C30.0222 32.9688 30.5469 32.4441 30.5469 31.7969C30.5469 31.1497 30.0222 30.625 29.375 30.625C28.7278 30.625 28.2031 31.1497 28.2031 31.7969C28.2031 32.4441 28.7278 32.9688 29.375 32.9688Z" fill="#BBDCD2"/>
<path d="M24.6875 35.3125C25.3347 35.3125 25.8594 34.7878 25.8594 34.1406C25.8594 33.4934 25.3347 32.9688 24.6875 32.9688C24.0403 32.9688 23.5156 33.4934 23.5156 34.1406C23.5156 34.7878 24.0403 35.3125 24.6875 35.3125Z" fill="#BBDCD2"/>
</g>
<defs>
<clipPath id="clip0_5229_145885">
<rect width="40" height="40" fill="white"/>
</clipPath>
</defs>
</svg>
