<svg width="40" height="40" viewBox="0 0 40 40" fill="none" xmlns="http://www.w3.org/2000/svg">
<g clip-path="url(#clip0_5229_145890)">
<g clip-path="url(#clip1_5229_145890)">
<path d="M31.9469 6.12316L6.07996 31.9463L7.96394 33.8335L33.8309 8.01034L31.9469 6.12316Z" fill="#BBDCD2"/>
<path d="M7.96394 6.12356L6.07996 8.01074L31.9469 33.8339L33.8309 31.9467L7.96394 6.12356Z" fill="#BBDCD2"/>
<path d="M24.124 24.4352C20.4502 28.1086 18.6911 33.1747 19.2982 38.3339L21.9462 38.0223C21.4351 33.6792 22.9164 29.4139 26.0093 26.3205C29.216 23.1139 33.7885 21.6258 38.2328 22.3387L38.6555 19.7058C33.3671 18.857 27.9338 20.6254 24.124 24.4352Z" fill="#BBDCD2"/>
<path d="M19.3293 1.63745L16.6698 1.82948C16.9648 5.92151 15.4538 9.94901 12.5169 12.886C9.62891 15.8126 5.71469 17.282 1.50352 17.0246L1.34039 19.6864C1.71461 19.7096 2.08571 19.7207 2.45547 19.7207C7.02305 19.7207 11.2355 17.982 14.4088 14.7651C17.8871 11.2867 19.6805 6.5019 19.3293 1.63745Z" fill="#BBDCD2"/>
<path d="M20 0C8.97203 0 0 8.97203 0 20C0 31.028 8.97203 40 20 40C31.028 40 40 31.028 40 20C40 8.97203 31.028 0 20 0ZM20 37.3334C10.4422 37.3334 2.66664 29.5578 2.66664 20C2.66664 10.4422 10.4422 2.66664 20 2.66664C29.5578 2.66664 37.3334 10.4422 37.3334 20C37.3334 29.5578 29.5578 37.3334 20 37.3334Z" fill="#BBDCD2"/>
</g>
</g>
<defs>
<clipPath id="clip0_5229_145890">
<rect width="40" height="40" fill="white"/>
</clipPath>
<clipPath id="clip1_5229_145890">
<rect width="40" height="40" fill="white"/>
</clipPath>
</defs>
</svg>
