<svg width="40" height="40" viewBox="0 0 40 40" fill="none" xmlns="http://www.w3.org/2000/svg">
<g clip-path="url(#clip0_5230_146053)">
<g clip-path="url(#clip1_5230_146053)">
<path d="M39.9997 4.75945C40.0128 3.48281 39.5228 2.28266 38.6201 1.37984C37.7291 0.488828 36.5486 0 35.2905 0C35.2739 0 35.2572 7.8125e-05 35.2404 0.000234375C33.9637 0.0133594 32.7739 0.527969 31.89 1.44906L24.8887 8.74477L6.56844 2.68195L1.15805 8.09234L16.4682 17.5192L10.1686 24.0837L5.22422 23.272L0 28.4961L8.51984 31.4802L11.5039 40L16.7281 34.7758L15.9164 29.8314L22.4809 23.5318L31.9078 38.842L37.3183 33.4316L31.2555 15.1114L38.5511 8.11008C39.4721 7.22602 39.9866 6.03609 39.9997 4.75945ZM36.9266 6.41734L28.5631 14.4434L34.6365 32.7955L32.3486 35.0834L22.9542 19.826L13.4013 28.9934L14.218 33.968L12.4842 35.7019L10.3608 29.6392L4.29812 27.5158L6.03195 25.782L11.0066 26.5987L20.174 17.0459L4.91664 7.65156L7.20453 5.36367L25.5566 11.437L33.5827 3.07352C34.0264 2.61109 34.6238 2.35281 35.2647 2.34617C35.273 2.34602 35.2815 2.34602 35.2898 2.34602C35.9212 2.34602 36.514 2.59141 36.9613 3.03875C37.4146 3.49195 37.6605 4.09445 37.6539 4.73531C37.6473 5.37617 37.389 5.97352 36.9266 6.41734Z" fill="#BBDCD2"/>
</g>
</g>
<defs>
<clipPath id="clip0_5230_146053">
<rect width="40" height="40" fill="white"/>
</clipPath>
<clipPath id="clip1_5230_146053">
<rect width="40" height="40" fill="white"/>
</clipPath>
</defs>
</svg>
