<svg width="20" height="20" viewBox="0 0 20 20" fill="none" xmlns="http://www.w3.org/2000/svg">
<path fill-rule="evenodd" clip-rule="evenodd" d="M18.4271 7.2173C18.4271 7.44757 18.2407 7.6328 18.0104 7.6328H16.7604V15.1332C17.6796 15.1332 18.4271 15.8805 18.4271 16.7996V18.0495C18.4271 18.2798 18.2407 18.4662 18.0104 18.4662H0.51043C0.280117 18.4662 0.09375 18.2798 0.09375 18.0495V16.7996C0.09375 15.8805 0.841211 15.1332 1.76043 15.1332V7.6328H0.51043C0.280117 7.6328 0.09375 7.44757 0.09375 7.2173V5.55081C0.09375 5.40394 0.171055 5.26761 0.297617 5.19277L8.44781 0.351554C8.98371 0.0565931 9.555 0.0651087 10.0616 0.345851L10.0621 0.346146C10.0656 0.34808 10.0691 0.350033 10.0726 0.352374L18.2232 5.19277C18.3498 5.26765 18.4271 5.40394 18.4271 5.55081V7.2173ZM17.5938 17.6328V16.7995C17.5938 16.3401 17.2198 15.9661 16.7604 15.9662H16.3438H2.17707H1.76039C1.30102 15.9662 0.92707 16.3401 0.92707 16.7995V17.6328H17.5938ZM2.59375 7.6328V15.1328H4.26043V7.6328H2.59375ZM5.09375 7.6328V15.1328H7.59375V7.6328H5.09375ZM8.42707 7.6328V15.1328H10.0938V7.6328H8.42707ZM10.9271 7.6328V15.1328H13.4271V7.6328H10.9271ZM14.2604 7.6328V15.1328H15.9271V7.6328H14.2604ZM0.92707 5.78671V6.79948H17.5938V5.78671L9.65309 1.0703C9.39672 0.930734 9.12086 0.930343 8.86125 1.07316L0.92707 5.78671ZM7.5921 4.2994C7.5921 3.37979 8.33999 2.6319 9.2596 2.6319C10.1792 2.6319 10.9271 3.37983 10.9271 4.2994C10.9271 5.21897 10.1792 5.96686 9.2596 5.96686C8.33999 5.96686 7.5921 5.21901 7.5921 4.2994ZM8.42546 4.2994C8.42546 4.7592 8.7998 5.13354 9.2596 5.13354C9.71941 5.13354 10.0937 4.7592 10.0937 4.2994C10.0937 3.83959 9.71941 3.46526 9.2596 3.46526C8.7998 3.46526 8.42546 3.83959 8.42546 4.2994Z" fill="white"/>
</svg>
