<svg width="18" height="18" viewBox="0 0 18 18" fill="none" xmlns="http://www.w3.org/2000/svg">
<path fill-rule="evenodd" clip-rule="evenodd" d="M16.584 6.49566C16.584 6.70291 16.4163 6.86962 16.209 6.86962H15.084V13.6199C15.9113 13.6199 16.584 14.2926 16.584 15.1198V16.2447C16.584 16.452 16.4163 16.6196 16.209 16.6196H0.458996C0.251715 16.6196 0.0839844 16.4519 0.0839844 16.2447V15.1198C0.0839844 14.2926 0.756699 13.6199 1.584 13.6199V6.86962H0.458996C0.251715 6.86962 0.0839844 6.70291 0.0839844 6.49566V4.99583C0.0839844 4.86364 0.153559 4.74095 0.267465 4.67359L7.60264 0.316496C8.08495 0.0510314 8.59911 0.0586955 9.05505 0.311363L9.05553 0.31163C9.05864 0.31337 9.06178 0.315127 9.06493 0.317235L16.4005 4.67359C16.5144 4.74098 16.584 4.86364 16.584 4.99583V6.49566ZM15.834 15.8696V15.1196C15.834 14.7062 15.4974 14.3696 15.084 14.3696H14.709H1.95897H1.58396C1.17052 14.3696 0.833973 14.7062 0.833973 15.1196V15.8696H15.834ZM2.33398 6.86962V13.6196H3.834V6.86962H2.33398ZM4.58398 6.86962V13.6196H6.83398V6.86962H4.58398ZM7.58397 6.86962V13.6196H9.08398V6.86962H7.58397ZM9.83397 6.86962V13.6196H12.084V6.86962H9.83397ZM12.834 6.86962V13.6196H14.334V6.86962H12.834ZM0.833973 5.20814V6.11963H15.834V5.20814L8.68739 0.963371C8.45666 0.837758 8.20838 0.837406 7.97473 0.965938L0.833973 5.20814ZM6.8325 3.86955C6.8325 3.04191 7.5056 2.3688 8.33325 2.3688C9.16086 2.3688 9.83397 3.04194 9.83397 3.86955C9.83397 4.69717 9.1609 5.37027 8.33325 5.37027C7.5056 5.37027 6.8325 4.6972 6.8325 3.86955ZM7.58253 3.86955C7.58253 4.28338 7.91943 4.62028 8.33325 4.62028C8.74708 4.62028 9.08398 4.28338 9.08398 3.86955C9.08398 3.45573 8.74708 3.11883 8.33325 3.11883C7.91943 3.11883 7.58253 3.45573 7.58253 3.86955Z" fill="white"/>
</svg>
