<svg width="20" height="20" viewBox="0 0 20 20" fill="none" xmlns="http://www.w3.org/2000/svg">
<path d="M18 1C16.8977 0.998011 16.0024 1.89004 16.0004 2.99243C15.9995 3.512 16.2012 4.01149 16.5627 4.38469L12.9087 11.6914C12.8286 11.6781 12.7478 11.6698 12.6667 11.6667C12.4085 11.6672 12.1529 11.718 11.914 11.8161L9.07734 8.62606C9.24293 8.33328 9.33105 8.00309 9.33336 7.66672C9.33336 6.56215 8.43793 5.66672 7.33336 5.66672C6.22879 5.66672 5.33336 6.56215 5.33336 7.66672C5.33531 8.14414 5.50957 8.60481 5.82402 8.96407L2.35734 15.036C2.23953 15.0134 2.11996 15.0013 2 15C0.89543 15 0 15.8954 0 17C0 18.1046 0.89543 19 2 19C3.10457 19 4 18.1046 4 17C3.99805 16.5226 3.82379 16.0619 3.50934 15.7027L6.97602 9.63067C7.34816 9.70418 7.73379 9.66473 8.08336 9.51735L10.92 12.7073C10.7554 13.0004 10.6682 13.3306 10.6667 13.6667C10.6634 14.7713 11.5561 15.6694 12.6607 15.6727C13.7652 15.676 14.6634 14.7833 14.6667 13.6788C14.6682 13.1577 14.4664 12.6565 14.104 12.282L17.758 4.97536C17.8381 4.98864 17.9189 4.99688 18 5C19.1046 5 20 4.10457 20 3C20 1.89543 19.1046 1 18 1ZM2 17.6667C1.6318 17.6667 1.33332 17.3682 1.33332 17C1.33332 16.6318 1.6318 16.3333 2 16.3333C2.3682 16.3333 2.66668 16.6318 2.66668 17C2.66668 17.3682 2.3682 17.6667 2 17.6667ZM7.33332 8.33332C6.96512 8.33332 6.66664 8.03485 6.66664 7.66664C6.66664 7.29844 6.96512 6.99996 7.33332 6.99996C7.70152 6.99996 8 7.29844 8 7.66664C8 8.03485 7.70152 8.33332 7.33332 8.33332ZM12.6667 14.3333C12.2985 14.3333 12 14.0348 12 13.6666C12 13.2984 12.2985 13 12.6667 13C13.0349 13 13.3334 13.2984 13.3334 13.6666C13.3333 14.0348 13.0348 14.3333 12.6667 14.3333ZM18 3.66668C17.6318 3.66668 17.3333 3.36821 17.3333 3C17.3333 2.6318 17.6318 2.33332 18 2.33332C18.3682 2.33332 18.6667 2.6318 18.6667 3C18.6667 3.36821 18.3682 3.66668 18 3.66668Z" fill="#8A8F93"/>
</svg>
