<svg width="20" height="20" viewBox="0 0 20 20" fill="none" xmlns="http://www.w3.org/2000/svg">
<g clip-path="url(#clip0_7169_15675)">
<path d="M12.7344 17.6172H7.26562C6.94203 17.6172 6.67969 17.3548 6.67969 17.0312V16.25C6.67969 15.0324 7.33895 13.9664 8.31883 13.3885C7.90918 12.9662 7.65625 12.3912 7.65625 11.7578C7.65625 10.4655 8.70766 9.41406 10 9.41406C11.2923 9.41406 12.3438 10.4655 12.3438 11.7578C12.3438 12.3912 12.0908 12.9662 11.6811 13.3885C12.6611 13.9664 13.3203 15.0324 13.3203 16.25V17.0312C13.3203 17.3548 13.058 17.6172 12.7344 17.6172ZM11.1719 11.7578C11.1719 11.1116 10.6462 10.5859 10 10.5859C9.35383 10.5859 8.82812 11.1116 8.82812 11.7578C8.82812 12.404 9.35383 12.9297 10 12.9297C10.6462 12.9297 11.1719 12.404 11.1719 11.7578ZM12.1484 16.25C12.1484 15.0654 11.1846 14.1016 10 14.1016C8.81535 14.1016 7.85156 15.0654 7.85156 16.25V16.4453H12.1484V16.25Z" fill="#BBDCD2"/>
<path d="M2.14844 2.34375H2.2343C2.31949 1.81238 2.51977 1.32055 2.81957 0.920859C3.25844 0.335625 3.88234 0 4.53125 0C5.18016 0 5.80406 0.335625 6.24293 0.920859C6.54273 1.32055 6.74305 1.81238 6.8282 2.34375H7.70301C7.7882 1.81238 7.98848 1.32055 8.28828 0.920859C8.72719 0.335625 9.35109 0 10 0C10.6489 0 11.2728 0.335625 11.7117 0.920859C12.0115 1.32055 12.2118 1.81238 12.297 2.34375H13.1718C13.257 1.81238 13.4572 1.32055 13.757 0.920859C14.1959 0.335625 14.8198 0 15.4688 0C16.1177 0 16.7416 0.335625 17.1804 0.920859C17.4802 1.32055 17.6805 1.81238 17.7657 2.34375H17.8516C19.0362 2.34375 20 3.30754 20 4.49219V17.8516C20 19.0362 19.0362 20 17.8516 20H2.14844C0.963789 20 0 19.0362 0 17.8516V4.49219C0 3.30754 0.963789 2.34375 2.14844 2.34375ZM4.53125 1.17188C4.03223 1.17188 3.59418 1.66875 3.42922 2.34375H5.63324C5.46832 1.66875 5.03027 1.17188 4.53125 1.17188ZM10 1.17188C9.50098 1.17188 9.06293 1.66875 8.89797 2.34375H11.102C10.9371 1.66875 10.499 1.17188 10 1.17188ZM15.4688 1.17188C14.9697 1.17188 14.5317 1.66875 14.3667 2.34375H16.5708C16.4058 1.66875 15.9678 1.17188 15.4688 1.17188ZM18.8281 4.49219C18.8281 3.95371 18.39 3.51562 17.8516 3.51562H17.7657C17.6805 4.04699 17.4802 4.53883 17.1804 4.93852C16.7416 5.52375 16.1177 5.85938 15.4688 5.85938C15.1452 5.85938 14.8828 5.59703 14.8828 5.27344C14.8828 4.94984 15.1452 4.6875 15.4688 4.6875C15.9678 4.6875 16.4058 4.19063 16.5708 3.51562H12.297C12.2118 4.04699 12.0115 4.53883 11.7117 4.93852C11.2728 5.52375 10.6489 5.85938 10 5.85938C9.67641 5.85938 9.41406 5.59703 9.41406 5.27344C9.41406 4.94984 9.67641 4.6875 10 4.6875C10.499 4.6875 10.9371 4.19063 11.102 3.51562H6.82824C6.74305 4.04699 6.54277 4.53883 6.24297 4.93852C5.80406 5.52375 5.18016 5.85938 4.53125 5.85938C4.20766 5.85938 3.94531 5.59703 3.94531 5.27344C3.94531 4.94984 4.20766 4.6875 4.53125 4.6875C5.03027 4.6875 5.46832 4.19063 5.63328 3.51562H2.14844C1.60996 3.51562 1.17188 3.95371 1.17188 4.49219V7.03125H18.8281V4.49219ZM1.17188 17.8516C1.17188 18.39 1.60996 18.8281 2.14844 18.8281H17.8516C18.39 18.8281 18.8281 18.39 18.8281 17.8516V8.20312H1.17188V17.8516Z" fill="#BBDCD2"/>
</g>
<defs>
<clipPath id="clip0_7169_15675">
<rect width="20" height="20" fill="white" transform="matrix(-1 0 0 1 20 0)"/>
</clipPath>
</defs>
</svg>
