<svg width="24" height="24" viewBox="0 0 24 24" fill="none" xmlns="http://www.w3.org/2000/svg">
<path fill-rule="evenodd" clip-rule="evenodd" d="M4.67611 0H3V24H4.67611V14.7682C5.52698 15.1635 6.70839 15.5795 7.91903 15.5795C9.76754 15.5795 11.1232 14.8117 12.3987 14.0893L12.3987 14.0893L12.4087 14.0837C13.5942 13.4123 14.6749 12.8036 16.081 12.8036C16.9494 12.8036 17.8464 13.1079 18.5364 13.4205C18.8798 13.5761 19.1684 13.7321 19.3721 13.8498C19.4739 13.9086 19.5543 13.9578 19.6096 13.9925C19.6372 14.0099 19.6585 14.0236 19.6731 14.033L19.6897 14.0439L19.6945 14.0471L19.6955 14.0477L21 14.9351V1.78406L20.9311 1.73766C19.5643 0.81728 17.8892 0.0488828 16.2389 0.00224166V0H16.081C14.2325 0 12.877 0.76772 11.6016 1.49006L11.5913 1.49587C10.4058 2.16726 9.3251 2.77597 7.91903 2.77597C6.64434 2.77597 5.31494 2.12137 4.67611 1.75737V0ZM12.4087 2.97978C13.5942 2.30839 14.6749 1.69968 16.081 1.69968C17.3557 1.69968 18.6854 2.35442 19.3239 2.71823V11.9152C18.473 11.5199 17.2916 11.1039 16.081 11.1039C14.2325 11.1039 12.877 11.8716 11.6016 12.5939L11.5913 12.5998C10.4058 13.2712 9.3251 13.8799 7.91903 13.8799C6.64416 13.8799 5.31454 13.2251 4.67611 12.8613V3.66433C5.52698 4.05963 6.70839 4.47565 7.91903 4.47565C9.76755 4.47565 11.1233 3.70782 12.3987 2.98543L12.4087 2.97978Z" fill="#8A8F93"/>
</svg>
