<svg width="15" height="15" viewBox="0 0 15 15" fill="none" xmlns="http://www.w3.org/2000/svg">
<g clip-path="url(#clip0_7169_14329)">
<path d="M3.51562 13.8867C3.45131 13.8867 3.38656 13.8723 3.32575 13.8434C3.17481 13.7703 3.07812 13.6177 3.07812 13.4492V11.2617H1.76562C1.042 11.2617 0.453125 10.6728 0.453125 9.94922V2.94922C0.453125 2.22559 1.042 1.63672 1.76562 1.63672H12.2656C12.9893 1.63672 13.5781 2.22559 13.5781 2.94922V9.94922C13.5781 10.6728 12.9893 11.2617 12.2656 11.2617H6.95044L3.78906 13.7909C3.70988 13.8543 3.61319 13.8867 3.51562 13.8867ZM1.76562 2.51172C1.52412 2.51172 1.32812 2.70816 1.32812 2.94922V9.94922C1.32812 10.1903 1.52412 10.3867 1.76562 10.3867H3.51562C3.75756 10.3867 3.95312 10.5823 3.95312 10.8242V12.5392L6.52344 10.4825C6.60131 10.4204 6.69712 10.3867 6.79688 10.3867H12.2656C12.5071 10.3867 12.7031 10.1903 12.7031 9.94922V2.94922C12.7031 2.70816 12.5071 2.51172 12.2656 2.51172H1.76562Z" fill="white"/>
<path d="M10.5156 6.01172H3.51562C3.27369 6.01172 3.07812 5.81572 3.07812 5.57422C3.07812 5.33272 3.27369 5.13672 3.51562 5.13672H10.5156C10.7576 5.13672 10.9531 5.33272 10.9531 5.57422C10.9531 5.81572 10.7576 6.01172 10.5156 6.01172Z" fill="white"/>
<path d="M7.01562 7.76172H3.51562C3.27369 7.76172 3.07812 7.56572 3.07812 7.32422C3.07812 7.08272 3.27369 6.88672 3.51562 6.88672H7.01562C7.25756 6.88672 7.45312 7.08272 7.45312 7.32422C7.45312 7.56572 7.25756 7.76172 7.01562 7.76172Z" fill="white"/>
</g>
<defs>
<clipPath id="clip0_7169_14329">
<rect width="14" height="14" fill="white" transform="translate(0.015625 0.761719)"/>
</clipPath>
</defs>
</svg>
