<svg width="12" height="12" viewBox="0 0 12 12" fill="none" xmlns="http://www.w3.org/2000/svg">
<g clip-path="url(#clip0_7187_33917)">
<path d="M1.40625 0.9375H1.96875V0H2.90625V0.9375H9.09375V0H10.0312V0.9375H10.5938C11.3692 0.9375 12 1.56834 12 2.34375V10.5938C12 11.3692 11.3692 12 10.5938 12H3.92564L0 7.92338V2.34375C0 1.56834 0.630844 0.9375 1.40625 0.9375ZM3.65625 10.3687V8.67188C3.65625 8.41341 3.44597 8.20312 3.1875 8.20312H1.5709L3.65625 10.3687ZM0.9375 7.26562H3.1875C3.96291 7.26562 4.59375 7.89647 4.59375 8.67188V11.0625H10.5938C10.8522 11.0625 11.0625 10.8522 11.0625 10.5938V4.40625H0.9375V7.26562ZM0.9375 3.46875H11.0625V2.34375C11.0625 2.08528 10.8522 1.875 10.5938 1.875H10.0312V2.8125H9.09375V1.875H2.90625V2.8125H1.96875V1.875H1.40625C1.14778 1.875 0.9375 2.08528 0.9375 2.34375V3.46875Z" fill="white"/>
</g>
<defs>
<clipPath id="clip0_7187_33917">
<rect width="12" height="12" fill="white" transform="matrix(-1 0 0 1 12 0)"/>
</clipPath>
</defs>
</svg>
