<svg width="9" height="15" viewBox="0 0 9 15" fill="none" xmlns="http://www.w3.org/2000/svg">
<path d="M4.208 3.096C3.62133 3.16 3.19467 3.336 2.928 3.624C2.672 3.90133 2.544 4.2 2.544 4.52V4.776C2.56533 5.224 2.69333 5.576 2.928 5.832C3.17333 6.07733 3.6 6.25867 4.208 6.376V3.096ZM5.168 11.768C5.776 11.7147 6.208 11.5333 6.464 11.224C6.73067 10.9147 6.864 10.5147 6.864 10.024C6.864 9.85333 6.83733 9.68267 6.784 9.512C6.74133 9.33067 6.656 9.16533 6.528 9.016C6.4 8.856 6.224 8.71733 6 8.6C5.78667 8.48267 5.50933 8.392 5.168 8.328V11.768ZM4.208 13.24C3.57867 13.1973 3.04 13.08 2.592 12.888C2.144 12.696 1.77067 12.4507 1.472 12.152C1.17333 11.8427 0.949333 11.4853 0.8 11.08C0.650667 10.664 0.565333 10.2053 0.544 9.704H2.336C2.38933 10.3653 2.56533 10.856 2.864 11.176C3.17333 11.4853 3.62133 11.6773 4.208 11.752V8.152C3.65333 8.056 3.16267 7.93333 2.736 7.784C2.32 7.624 1.968 7.416 1.68 7.16C1.392 6.904 1.168 6.59467 1.008 6.232C0.848 5.86933 0.762667 5.43733 0.752 4.936C0.752 4.84 0.752 4.744 0.752 4.648C0.762667 4.552 0.773333 4.456 0.784 4.36C0.869333 3.624 1.2 3.01067 1.776 2.52C2.36267 2.02933 3.17333 1.74667 4.208 1.672V0.28H5.168V1.672C5.808 1.72533 6.336 1.85333 6.752 2.056C7.17867 2.25867 7.52 2.504 7.776 2.792C8.032 3.08 8.21867 3.4 8.336 3.752C8.464 4.09333 8.55467 4.42933 8.608 4.76L6.88 5.016C6.752 4.44 6.56533 3.99733 6.32 3.688C6.08533 3.368 5.70133 3.176 5.168 3.112V6.568L5.552 6.632C6.61867 6.83467 7.41333 7.19733 7.936 7.72C8.45867 8.232 8.72 8.984 8.72 9.976C8.72 10.392 8.64533 10.792 8.496 11.176C8.35733 11.5493 8.144 11.8853 7.856 12.184C7.568 12.4827 7.2 12.728 6.752 12.92C6.304 13.112 5.776 13.224 5.168 13.256V14.856H4.208V13.24Z" fill="white"/>
</svg>
