<svg width="12" height="12" viewBox="0 0 12 12" fill="none" xmlns="http://www.w3.org/2000/svg">
<g clip-path="url(#clip0_7146_45610)">
<path d="M1.01568 11.4033C0.986791 11.4033 0.957488 11.4002 0.928184 11.394C0.703731 11.3458 0.560745 11.1249 0.608961 10.9004L1.25115 7.90706C1.29936 7.68261 1.52132 7.54004 1.74474 7.58784C1.96919 7.63606 2.11218 7.85698 2.06396 8.08143L1.42177 11.0748C1.38 11.2699 1.2075 11.4033 1.01568 11.4033Z" fill="#111315"/>
<path d="M4.00886 10.7611C3.90246 10.7611 3.79626 10.7205 3.715 10.6393C3.55268 10.477 3.55268 10.2138 3.715 10.0515L10.2104 3.55631C10.3725 3.39399 10.6359 3.39399 10.7982 3.55631C10.9605 3.71862 10.9605 3.98173 10.7982 4.14404L4.30294 10.6393C4.22168 10.7205 4.11527 10.7611 4.00886 10.7611Z" fill="#111315"/>
<path d="M1.01499 11.4032C0.82317 11.4032 0.650881 11.2698 0.6089 11.0746C0.560892 10.8502 0.703669 10.6292 0.928122 10.581L3.92146 9.93885C4.14612 9.89125 4.36704 10.0338 4.41505 10.2581C4.46306 10.4825 4.32028 10.7034 4.09583 10.7517L1.10249 11.3938C1.07319 11.4003 1.04388 11.4032 1.01499 11.4032Z" fill="#111315"/>
<path d="M9.32828 5.4412C9.22187 5.4412 9.11546 5.40067 9.03441 5.31941L6.68326 2.96826C6.52095 2.80595 6.52095 2.54284 6.68326 2.38052C6.84536 2.21821 7.10889 2.21821 7.27099 2.38052L9.62214 4.73167C9.78446 4.89399 9.78446 5.1571 9.62214 5.31941C9.54109 5.40067 9.43468 5.4412 9.32828 5.4412Z" fill="#111315"/>
<path d="M10.504 4.2657C10.3976 4.2657 10.2912 4.22518 10.2099 4.14392C10.0476 3.9816 10.0476 3.71849 10.2099 3.55597C10.4412 3.32466 10.5686 3.01147 10.5686 2.67437C10.5686 2.33727 10.4412 2.02408 10.2099 1.79277C9.97839 1.56125 9.66519 1.43385 9.3281 1.43385C8.991 1.43385 8.67781 1.56125 8.44649 1.79277C8.28439 1.95508 8.02128 1.95529 7.85855 1.79277C7.69624 1.63045 7.69624 1.36734 7.85855 1.20482C8.24677 0.816393 8.76863 0.602539 9.3281 0.602539C9.88736 0.602539 10.4094 0.816393 10.7976 1.20482C11.1861 1.59304 11.3999 2.1149 11.3999 2.67437C11.3999 3.23384 11.1861 3.75569 10.7976 4.14392C10.7168 4.22497 10.6104 4.2657 10.504 4.2657Z" fill="#111315"/>
<path d="M1.65779 8.4097C1.55138 8.4097 1.44518 8.36917 1.36392 8.28791C1.20161 8.1256 1.20161 7.86249 1.36392 7.70018L7.85936 1.20474C8.02146 1.04243 8.28478 1.04243 8.44709 1.20474C8.60941 1.36706 8.60941 1.63017 8.44709 1.79248L1.95166 8.28791C1.87061 8.36897 1.7642 8.4097 1.65779 8.4097Z" fill="#111315"/>
</g>
<defs>
<clipPath id="clip0_7146_45610">
<rect width="12" height="12" fill="white"/>
</clipPath>
</defs>
</svg>
