<svg width="18" height="18" viewBox="0 0 18 18" fill="none" xmlns="http://www.w3.org/2000/svg">
<g clip-path="url(#clip0_3187_67959)">
<path d="M1.52254 17.1048C1.47921 17.1048 1.43526 17.1001 1.3913 17.0907C1.05462 17.0184 0.840142 16.687 0.912465 16.3504L1.87574 11.8604C1.94807 11.5237 2.28101 11.3098 2.61613 11.3815C2.95281 11.4538 3.16729 11.7852 3.09496 12.1219L2.13168 16.6119C2.06902 16.9046 1.81028 17.1048 1.52254 17.1048Z" fill="#D2D2D3"/>
<path d="M6.01403 16.1416C5.85442 16.1416 5.69512 16.0808 5.57323 15.9589C5.32976 15.7154 5.32976 15.3208 5.57323 15.0773L15.3164 5.33446C15.5595 5.09099 15.9545 5.09099 16.198 5.33446C16.4415 5.57793 16.4415 5.97259 16.198 6.21606L6.45514 15.9589C6.33325 16.0808 6.17364 16.1416 6.01403 16.1416Z" fill="#D2D2D3"/>
<path d="M1.52151 17.1048C1.23378 17.1048 0.975345 16.9047 0.912373 16.6119C0.840361 16.2753 1.05453 15.9439 1.39121 15.8715L5.88121 14.9083C6.2182 14.8369 6.54958 15.0507 6.6216 15.3871C6.69361 15.7238 6.47944 16.0552 6.14276 16.1275L1.65276 17.0908C1.6088 17.1004 1.56485 17.1048 1.52151 17.1048Z" fill="#D2D2D3"/>
<path d="M13.99 8.16179C13.8304 8.16179 13.6708 8.10101 13.5492 7.97911L10.0224 4.45239C9.77898 4.20892 9.77898 3.81426 10.0224 3.57079C10.2656 3.32732 10.6609 3.32732 10.9041 3.57079L14.4308 7.09751C14.6742 7.34098 14.6742 7.73564 14.4308 7.97911C14.3092 8.10101 14.1496 8.16179 13.99 8.16179Z" fill="#D2D2D3"/>
<path d="M15.7562 6.39855C15.5966 6.39855 15.437 6.33777 15.3151 6.21587C15.0716 5.9724 15.0716 5.57774 15.3151 5.33396C15.6621 4.98699 15.8532 4.5172 15.8532 4.01155C15.8532 3.50591 15.6621 3.03612 15.3151 2.68915C14.9678 2.34187 14.498 2.15077 13.9924 2.15077C13.4867 2.15077 13.017 2.34187 12.67 2.68915C12.4268 2.93262 12.0322 2.93293 11.7881 2.68915C11.5446 2.44568 11.5446 2.05102 11.7881 1.80723C12.3704 1.22459 13.1532 0.903809 13.9924 0.903809C14.8313 0.903809 15.6144 1.22459 16.1967 1.80723C16.7794 2.38957 17.1001 3.17235 17.1001 4.01155C17.1001 4.85076 16.7794 5.63354 16.1967 6.21587C16.0754 6.33745 15.9158 6.39855 15.7562 6.39855Z" fill="white"/>
<path d="M2.48669 12.6146C2.32707 12.6146 2.16777 12.5538 2.04588 12.4319C1.80241 12.1884 1.80241 11.7937 2.04588 11.5503L11.789 1.80711C12.0322 1.56364 12.4272 1.56364 12.6706 1.80711C12.9141 2.05058 12.9141 2.44525 12.6706 2.68872L2.92749 12.4319C2.80591 12.5534 2.6463 12.6146 2.48669 12.6146Z" fill="white"/>
</g>
<defs>
<clipPath id="clip0_3187_67959">
<rect width="18" height="18" fill="white"/>
</clipPath>
</defs>
</svg>
