<svg width="24" height="24" viewBox="0 0 24 24" fill="none" xmlns="http://www.w3.org/2000/svg">
<rect width="24" height="24" rx="6" fill="#E4EAAF"/>
<g clip-path="url(#clip0_7024_61615)">
<path fill-rule="evenodd" clip-rule="evenodd" d="M11.5726 7.59999C11.5726 7.82092 11.3935 7.99999 11.1726 7.99999C10.9517 7.99999 10.7726 7.82092 10.7726 7.60001V6.4C10.7726 6.17908 10.9517 6 11.1726 6C11.3936 6 11.5726 6.17908 11.5726 6.4V7.59999ZM14.6483 12.214C14.7437 12.1834 14.8432 12.1671 14.9434 12.1656C15.5116 12.1663 15.972 12.6267 15.9727 13.1948V14.8628C15.9739 15.2697 15.892 15.6724 15.7319 16.0464C15.2246 17.2322 14.0588 18.001 12.7691 18H12.0491C10.971 18.0012 9.96409 17.4624 9.36705 16.5648L7.95065 14.44C7.68604 14.0422 7.77802 13.5071 8.16025 13.2204C8.75829 12.7672 9.59705 12.8159 10.1386 13.3352V9.41923C10.1495 8.8665 10.595 8.42104 11.1477 8.41013C11.7163 8.39893 12.1863 8.85071 12.1975 9.41923V11.2496C12.2725 11.2316 12.3494 11.2222 12.4267 11.2216C12.7508 11.2225 13.0555 11.3767 13.2483 11.6372C13.2813 11.6213 13.3152 11.6072 13.3497 11.595C13.8793 11.4073 14.4606 11.6845 14.6483 12.214ZM14.9946 15.7312C15.1126 15.4569 15.1732 15.1614 15.1726 14.8628V13.1948V13.1946C15.1726 13.068 15.0699 12.9654 14.9433 12.9655C14.8167 12.9656 14.7142 13.0682 14.7142 13.1948V13.5096C14.7142 13.7306 14.5351 13.9096 14.3142 13.9096C14.0933 13.9096 13.9142 13.7305 13.9142 13.5096V12.5656C13.9093 12.4464 13.8137 12.3508 13.6944 12.3458C13.5677 12.3405 13.4607 12.4389 13.4554 12.5656V13.1948C13.4554 13.4157 13.2763 13.5948 13.0554 13.5948C12.8345 13.5948 12.6554 13.4157 12.6554 13.1948V12.2508V12.2506C12.6554 12.124 12.5527 12.0214 12.4261 12.0215C12.2995 12.0216 12.197 12.1242 12.197 12.2508V12.88C12.197 13.101 12.018 13.28 11.797 13.28C11.5761 13.28 11.397 13.1009 11.397 12.88V9.41923C11.3921 9.29996 11.2965 9.2044 11.1772 9.19942C11.0505 9.19413 10.9435 9.29252 10.9382 9.41923V14.4536C10.9382 14.5751 10.8829 14.69 10.7881 14.7658C10.6155 14.9038 10.3638 14.8758 10.2258 14.7032L9.65423 13.9892C9.40756 13.6774 8.95682 13.62 8.63984 13.86C8.5973 13.892 8.58695 13.9516 8.61624 13.996L10.0306 16.12C10.4793 16.7952 11.2364 17.2007 12.047 17.2H12.767C13.7368 17.2009 14.6134 16.6229 14.9946 15.7312ZM12.3726 8.40004C12.4787 8.40001 12.5804 8.35787 12.6554 8.28283L13.5038 7.43443C13.6627 7.28095 13.6671 7.02774 13.5137 6.86882C13.3602 6.70993 13.107 6.70551 12.9481 6.85899L12.9382 6.86882L12.0898 7.71722C11.9336 7.87345 11.9337 8.12672 12.0899 8.2829C12.1649 8.35789 12.2666 8.40001 12.3726 8.40004ZM10.2555 8.27305C10.102 8.43194 9.84874 8.43633 9.68984 8.28286L8.84144 7.43448C8.69173 7.27947 8.69173 7.03372 8.84144 6.87871C8.99492 6.71982 9.24816 6.7154 9.40705 6.86887L10.2555 7.71727C10.4052 7.87229 10.4052 8.11803 10.2555 8.27305ZM8.37263 9.60006H9.57264C9.79354 9.60006 9.97264 9.42098 9.97264 9.20005C9.97264 8.97912 9.79357 8.80005 9.57264 8.80005H8.37263C8.15173 8.80005 7.97263 8.97912 7.97263 9.20005C7.97263 9.42098 8.15173 9.60006 8.37263 9.60006ZM12.7727 9.60006C12.5517 9.60006 12.3727 9.42096 12.3727 9.20005C12.3727 8.97912 12.5517 8.80005 12.7727 8.80005H13.9727C14.1936 8.80005 14.3727 8.97912 14.3727 9.20005C14.3727 9.42098 14.1936 9.60006 13.9727 9.60006H12.7727Z" fill="#111315"/>
</g>
<defs>
<clipPath id="clip0_7024_61615">
<rect width="12" height="12" fill="white" transform="translate(6 6)"/>
</clipPath>
</defs>
</svg>
