<svg width="14" height="14" viewBox="0 0 14 14" fill="none" xmlns="http://www.w3.org/2000/svg">
<path d="M7 2.3335C4.00699 2.3335 1.40017 4.21334 0 7.00022C1.40017 9.78761 4.00699 11.6668 7 11.6668C9.99301 11.6668 12.5998 9.78761 14 7.00022C12.5998 4.21352 9.99301 2.3335 7 2.3335ZM7 10.5002C4.74756 10.5002 2.62045 9.17336 1.32911 7.00022C2.62042 4.82708 4.74756 3.50022 7 3.50022C9.25241 3.50022 11.3795 4.82708 12.6709 7.00022C11.3795 9.17336 9.25241 10.5002 7 10.5002Z" fill="white"/>
<path d="M7 4.375C5.54958 4.375 4.375 5.54958 4.375 7C4.375 8.44987 5.54958 9.625 7 9.625C8.4497 9.625 9.625 8.44987 9.625 7C9.625 5.54958 8.4497 4.375 7 4.375ZM7 8.45845C6.19449 8.45845 5.54172 7.80568 5.54172 7C5.54172 6.19449 6.19449 5.54172 7 5.54172C7.80551 5.54172 8.45828 6.19449 8.45828 7C8.45828 7.80568 7.80551 8.45845 7 8.45845Z" fill="white"/>
</svg>
