<svg width="20" height="20" viewBox="0 0 20 20" fill="none" xmlns="http://www.w3.org/2000/svg">
<g clip-path="url(#clip0_7169_15666)">
<g clip-path="url(#clip1_7169_15666)">
<path d="M1.2 8.79998V7.99998C1.2 7.33728 1.7373 6.79998 2.4 6.79998H3.2C3.2 6.13728 3.7373 5.59998 4.4 5.59998H5.2C5.86269 5.59998 6.4 6.13728 6.4 6.79998V8.79998H13.6V6.79998C13.6 6.13728 14.1373 5.59998 14.8 5.59998H15.6C16.2627 5.59998 16.8 6.13728 16.8 6.79998H17.6C18.2627 6.79998 18.8 7.33728 18.8 7.99998V8.79998C19.4627 8.79998 20 9.33728 20 9.99998C20 10.6627 19.4627 11.2 18.8 11.2V12C18.8 12.6627 18.2627 13.2 17.6 13.2H16.8C16.8 13.8627 16.2627 14.4 15.6 14.4H14.8C14.1373 14.4 13.6 13.8627 13.6 13.2V11.2H6.4V13.2C6.4 13.8627 5.86269 14.4 5.2 14.4H4.4C3.7373 14.4 3.2 13.8627 3.2 13.2H2.4C1.7373 13.2 1.2 12.6627 1.2 12V11.2C0.537302 11.2 -1.90735e-06 10.6627 -1.90735e-06 9.99998C-1.90735e-06 9.33728 0.537302 8.79998 1.2 8.79998ZM1.2 10.4V9.59998C0.979099 9.59998 0.799999 9.77908 0.799999 9.99998C0.799999 10.2209 0.979099 10.4 1.2 10.4ZM2.4 12.4H3.2V7.59998H2.4C2.1791 7.59998 2 7.77908 2 7.99998V12C2 12.2209 2.1791 12.4 2.4 12.4ZM4.4 13.6H5.2C5.4209 13.6 5.6 13.4209 5.6 13.2V6.79998C5.6 6.57908 5.4209 6.39998 5.2 6.39998H4.4C4.1791 6.39998 4 6.57908 4 6.79998V13.2C4 13.4209 4.1791 13.6 4.4 13.6ZM14.8 13.6H15.6C15.8209 13.6 16 13.4209 16 13.2V6.79998C16 6.57908 15.8209 6.39998 15.6 6.39998H14.8C14.5791 6.39998 14.4 6.57908 14.4 6.79998V13.2C14.4 13.4209 14.5791 13.6 14.8 13.6ZM18 12V7.99998C18 7.77908 17.8209 7.59998 17.6 7.59998H16.8V12.4H17.6C17.8209 12.4 18 12.2209 18 12ZM19.2 9.99998C19.2 9.77908 19.0209 9.59998 18.8 9.59998V10.4C19.0209 10.4 19.2 10.2209 19.2 9.99998ZM13.6 9.59998H6.4V10.4H13.6V9.59998Z" fill="#BBDCD2"/>
</g>
</g>
<defs>
<clipPath id="clip0_7169_15666">
<rect width="20" height="20" fill="white" transform="matrix(-1 0 0 1 20 0)"/>
</clipPath>
<clipPath id="clip1_7169_15666">
<rect width="20" height="20" fill="white" transform="matrix(-1 0 0 1 20 0)"/>
</clipPath>
</defs>
</svg>
