<svg width="24" height="24" viewBox="0 0 24 24" fill="none" xmlns="http://www.w3.org/2000/svg">
<rect width="24" height="24" rx="6" fill="#BBDCD2"/>
<path d="M11.9999 11.8688C13.3341 11.8688 14.4158 10.555 14.4158 8.93441C14.4158 7.31376 14.0607 6 11.9999 6C9.93918 6 9.58398 7.31376 9.58398 8.93441C9.58398 10.555 10.6657 11.8688 11.9999 11.8688Z" fill="#111315"/>
<path d="M16.5635 16.4267C16.5648 16.3996 16.5639 16.239 16.5635 16.4267V16.4267Z" fill="#111315"/>
<path d="M16.5575 16.2306C16.5127 13.4074 16.144 12.603 13.3225 12.0938C13.3225 12.0938 12.9254 12.5998 11.9996 12.5998C11.0739 12.5998 10.6767 12.0938 10.6767 12.0938C7.88601 12.5974 7.49488 13.3899 7.44345 16.1388C7.43923 16.3633 7.43728 16.3751 7.43652 16.3491C7.43669 16.3979 7.4369 16.4882 7.4369 16.6457C7.4369 16.6457 8.10863 17.9998 11.9996 17.9998C15.8906 17.9998 16.5624 16.6457 16.5624 16.6457C16.5624 16.5445 16.5625 16.4741 16.5626 16.4263C16.5618 16.4424 16.5603 16.4111 16.5575 16.2306Z" fill="#111315"/>
</svg>
