<svg width="25" height="24" viewBox="0 0 25 24" fill="none" xmlns="http://www.w3.org/2000/svg">
<g clip-path="url(#clip0_7169_14840)">
<path fill-rule="evenodd" clip-rule="evenodd" d="M3.71231 24H21.2877C22.1396 24 22.9567 23.6616 23.5591 23.0591C24.1616 22.4567 24.5 21.6396 24.5 20.7877V3.21231C24.5 2.36035 24.1616 1.54329 23.5591 0.940863C22.9567 0.338439 22.1396 0 21.2877 0H3.71231C2.86035 0 2.04329 0.338439 1.44086 0.940863C0.838438 1.54329 0.5 2.36035 0.5 3.21231V18.2759C0.492863 18.3422 0.492895 18.4088 0.5 18.4748V20.7877C0.5 21.6396 0.838438 22.4567 1.44086 23.0591C2.04329 23.6616 2.86035 24 3.71231 24ZM2.34615 3.21231V16.4526L4.84459 14.4615C5.27502 14.1302 5.80295 13.9505 6.34613 13.9505C6.88932 13.9505 7.41725 14.1302 7.84767 14.4615L10.7523 16.5661C10.8638 16.6615 11.0056 16.7139 11.1523 16.7139C11.299 16.7139 11.4408 16.6615 11.5523 16.5661L14.5431 13.5754C14.9797 13.1413 15.5631 12.8866 16.1783 12.8616C16.7934 12.8365 17.3956 13.0429 17.8661 13.44L22.6538 17.4796V3.21231C22.6538 2.84998 22.5099 2.50249 22.2537 2.24629C21.9975 1.99009 21.65 1.84615 21.2877 1.84615H3.71231C3.34998 1.84615 3.00249 1.99009 2.74629 2.24629C2.49009 2.50249 2.34615 2.84998 2.34615 3.21231ZM5.98921 15.9015L2.34615 18.825V20.7877C2.34615 21.15 2.49009 21.4975 2.74629 21.7537C3.00249 22.0099 3.34998 22.1538 3.71231 22.1538H21.2877C21.65 22.1538 21.9975 22.0099 22.2537 21.7537C22.5099 21.4975 22.6538 21.15 22.6538 20.7877V19.8938L16.6723 14.88C16.5592 14.7779 16.4123 14.7214 16.26 14.7214C16.1077 14.7214 15.9608 14.7779 15.8477 14.88L12.8569 17.9323C12.4373 18.3488 11.8818 18.6005 11.292 18.6411C10.7022 18.6818 10.1174 18.5088 9.6446 18.1538L6.73998 15.9015C6.63237 15.8187 6.50039 15.7738 6.36459 15.7738C6.2288 15.7738 6.09682 15.8187 5.98921 15.9015ZM10.6881 11.1219C10.1315 11.4938 9.47709 11.6923 8.80768 11.6923C7.91002 11.6923 7.04913 11.3357 6.41439 10.7009C5.77965 10.0662 5.42306 9.20532 5.42306 8.30766C5.42306 7.63825 5.62156 6.98387 5.99347 6.42727C6.36538 5.87067 6.89398 5.43686 7.51244 5.18069C8.1309 4.92451 8.81143 4.85749 9.46798 4.98808C10.1245 5.11868 10.7276 5.44103 11.201 5.91438C11.6743 6.38773 11.9967 6.99081 12.1273 7.64736C12.2579 8.30391 12.1908 8.98444 11.9347 9.6029C11.6785 10.2214 11.2447 10.75 10.6881 11.1219ZM9.6624 7.02848C9.4094 6.85943 9.11195 6.7692 8.80768 6.7692C8.39965 6.7692 8.00834 6.93129 7.71982 7.21981C7.4313 7.50832 7.26921 7.89964 7.26921 8.30766C7.26921 8.61194 7.35944 8.90939 7.52849 9.16239C7.69754 9.41539 7.93781 9.61257 8.21893 9.72902C8.50005 9.84546 8.80938 9.87593 9.10781 9.81656C9.40625 9.7572 9.68037 9.61068 9.89553 9.39552C10.1107 9.18036 10.2572 8.90623 10.3166 8.6078C10.3759 8.30937 10.3455 8.00004 10.229 7.71892C10.1126 7.4378 9.9154 7.19753 9.6624 7.02848Z" fill="#D2D2D3"/>
</g>
<defs>
<clipPath id="clip0_7169_14840">
<rect width="24" height="24" fill="white" transform="matrix(-1 0 0 1 24.5 0)"/>
</clipPath>
</defs>
</svg>
