<svg width="14" height="14" viewBox="0 0 14 14" fill="none" xmlns="http://www.w3.org/2000/svg">
<g clip-path="url(#clip0_7169_5754)">
<path fill-rule="evenodd" clip-rule="evenodd" d="M12.1262 14H1.87385C1.37687 14 0.900251 13.8026 0.548837 13.4512C0.197422 13.0997 0 12.6231 0 12.1262V1.87385C0 1.37687 0.197422 0.900251 0.548837 0.548837C0.900251 0.197422 1.37687 0 1.87385 0H12.1262C12.6231 0 13.0997 0.197422 13.4512 0.548837C13.8026 0.900251 14 1.37687 14 1.87385V10.661C14.0042 10.6996 14.0041 10.7385 14 10.7769V12.1262C14 12.6231 13.8026 13.0997 13.4512 13.4512C13.0997 13.8026 12.6231 14 12.1262 14ZM12.9231 1.87385V9.59734L11.4657 8.43588C11.2146 8.2426 10.9066 8.13779 10.5898 8.13779C10.2729 8.13779 9.96494 8.2426 9.71386 8.43588L8.0195 9.66357C7.95448 9.71919 7.87173 9.74975 7.78616 9.74975C7.7006 9.74975 7.61785 9.71919 7.55283 9.66357L5.80822 7.91896C5.55352 7.66576 5.21318 7.5172 4.85434 7.50258C4.4955 7.48796 4.14421 7.60834 3.86975 7.83998L1.07692 10.1964V1.87385C1.07692 1.66249 1.16088 1.45979 1.31034 1.31034C1.45979 1.16088 1.66249 1.07692 1.87385 1.07692H12.1262C12.3375 1.07692 12.5402 1.16088 12.6897 1.31034C12.8391 1.45979 12.9231 1.66249 12.9231 1.87385ZM10.798 9.27588L12.9231 10.9812V12.1262C12.9231 12.3375 12.8391 12.5402 12.6897 12.6897C12.5402 12.8391 12.3375 12.9231 12.1262 12.9231H1.87385C1.66249 12.9231 1.45979 12.8391 1.31034 12.6897C1.16088 12.5402 1.07692 12.3375 1.07692 12.1262V11.6047L4.56616 8.67999C4.63213 8.62045 4.71782 8.5875 4.80668 8.5875C4.89553 8.5875 4.98123 8.62045 5.04719 8.67999L6.79181 10.4605C7.03656 10.7035 7.3606 10.8503 7.70467 10.874C8.04874 10.8977 8.38986 10.7968 8.66565 10.5897L10.36 9.27588C10.4228 9.22756 10.4998 9.20136 10.579 9.20136C10.6582 9.20136 10.7352 9.22756 10.798 9.27588ZM8.05696 6.48776C8.38164 6.7047 8.76336 6.8205 9.15386 6.8205C9.67749 6.8205 10.1797 6.61248 10.5499 6.24222C10.9202 5.87196 11.1282 5.36977 11.1282 4.84614C11.1282 4.45565 11.0124 4.07392 10.7955 3.74924C10.5785 3.42456 10.2702 3.1715 9.90941 3.02207C9.54864 2.87263 9.15167 2.83353 8.76868 2.90971C8.38569 2.9859 8.03389 3.17394 7.75777 3.45005C7.48165 3.72617 7.29361 4.07797 7.21743 4.46096C7.14125 4.84395 7.18035 5.24092 7.32979 5.60169C7.47922 5.96246 7.73228 6.27081 8.05696 6.48776ZM8.65527 4.09995C8.80285 4.00133 8.97636 3.9487 9.15386 3.9487C9.39187 3.9487 9.62014 4.04325 9.78844 4.21155C9.95674 4.37986 10.0513 4.60812 10.0513 4.84614C10.0513 5.02363 9.99866 5.19714 9.90005 5.34473C9.80144 5.49231 9.66127 5.60733 9.49729 5.67526C9.33331 5.74318 9.15286 5.76096 8.97878 5.72633C8.80469 5.6917 8.64478 5.60623 8.51927 5.48072C8.39376 5.35521 8.30829 5.1953 8.27366 5.02122C8.23904 4.84713 8.25681 4.66669 8.32473 4.5027C8.39266 4.33872 8.50768 4.19856 8.65527 4.09995Z" fill="#111315"/>
</g>
<defs>
<clipPath id="clip0_7169_5754">
<rect width="14" height="14" fill="white"/>
</clipPath>
</defs>
</svg>
