<svg width="20" height="20" viewBox="0 0 20 20" fill="none" xmlns="http://www.w3.org/2000/svg">
<g clip-path="url(#clip0_7169_15671)">
<path d="M10 0.625C15.1694 0.625 19.375 4.83063 19.375 10C19.375 15.1694 15.1694 19.375 10 19.375C4.83063 19.375 0.625 15.1694 0.625 10C0.625 4.83063 4.83063 0.625 10 0.625ZM2.50172 6.875H5.85891C6.15375 4.97578 6.71422 3.3875 7.45734 2.28828C5.21781 3.02859 3.40563 4.71438 2.50172 6.875ZM6.875 10C6.875 10.6548 6.90828 11.2794 6.96516 11.875H13.0348C13.0917 11.2794 13.125 10.6548 13.125 10C13.125 9.34516 13.0917 8.72062 13.0348 8.125H6.96531C6.90828 8.72062 6.875 9.34516 6.875 10ZM10 18.125C11.1284 18.125 12.353 16.1761 12.8702 13.125H7.12984C7.64703 16.1761 8.87156 18.125 10 18.125ZM12.8702 6.875C12.353 3.82391 11.1284 1.875 10 1.875C8.87156 1.875 7.64703 3.82391 7.12984 6.875H12.8702ZM12.5427 2.28828C13.2858 3.38766 13.8464 4.97578 14.1411 6.875H17.4983C16.5944 4.71438 14.7822 3.02859 12.5427 2.28828ZM17.898 8.125H14.2916C14.3444 8.72828 14.375 9.35297 14.375 10C14.375 10.647 14.3444 11.2717 14.2914 11.875H17.898C18.0411 11.2719 18.125 10.6462 18.125 10C18.125 9.35375 18.0411 8.72812 17.898 8.125ZM17.4983 13.125H14.1413C13.8464 15.0242 13.2859 16.6125 12.5428 17.7117C14.7823 16.9714 16.5944 15.2856 17.4983 13.125ZM7.45734 17.7117C6.71422 16.6123 6.15359 15.0242 5.85891 13.125H2.50187C3.40563 15.2856 5.21766 16.9714 7.45734 17.7117ZM2.10203 11.875H5.70859C5.65563 11.2717 5.625 10.647 5.625 10C5.625 9.35297 5.65563 8.72828 5.70859 8.125H2.10219C1.95891 8.72812 1.87516 9.35375 1.87516 10C1.87516 10.6462 1.95891 11.2719 2.10203 11.875Z" fill="#BBDCD2"/>
</g>
<defs>
<clipPath id="clip0_7169_15671">
<rect width="20" height="20" fill="white" transform="matrix(-1 0 0 1 20 0)"/>
</clipPath>
</defs>
</svg>
