<svg width="14" height="14" viewBox="0 0 14 14" fill="none" xmlns="http://www.w3.org/2000/svg">
<path d="M3.5 1.22461L0 4.72461L1.75 5.80789L3.5 4.72461L4.48823 2.97461L3.5 1.22461Z" fill="#FF2820"/>
<path d="M3.5 4.72461H0V9.27461L1.75 10.2356L3.5 9.27461V4.72461Z" fill="#0084FF"/>
<path d="M0 9.27441V11.6077C0 12.2494 0.525 12.7744 1.16668 12.7744H3.5L4.48823 10.9166L3.5 9.27441H0Z" fill="#0066DD"/>
<path d="M13.2769 2.46747L11.1122 4.18222V4.19981L10.4062 6.89508L11.1122 9.6227L13.2673 11.3571C13.5564 11.5998 13.9997 11.396 13.9997 11.0175V2.80713C13.9997 2.42864 13.566 2.22485 13.2769 2.46747Z" fill="#00AD3C"/>
<path d="M11.1125 4.18203V2.37789C11.1125 1.74359 10.5987 1.22461 9.97063 1.22461H7.68688H3.5V4.72461H7.7875V6.99961L10.091 6.74299L11.1125 4.18203Z" fill="#FFBA00"/>
<path d="M7.7875 9.275H3.5V12.775H7.68688H9.97063C10.5987 12.775 11.1125 12.2568 11.1125 11.6234V9.625L9.96972 7.27724L7.7875 7V9.275Z" fill="#00AD3C"/>
<path d="M7.78906 6.99922L11.1141 9.62422V4.18164L7.78906 6.99922Z" fill="#00831E"/>
</svg>
