<svg width="24" height="24" viewBox="0 0 24 24" fill="none" xmlns="http://www.w3.org/2000/svg">
<rect width="24" height="24" rx="2" fill="white"/>
<g clip-path="url(#clip0_4878_143385)">
<path d="M9.02019 14.7865C8.64249 14.5313 8.38104 14.1587 8.23828 13.6661L9.11492 13.3048C9.19449 13.6079 9.33343 13.8429 9.53177 14.0096C9.72883 14.1764 9.96883 14.2585 10.2493 14.2585C10.536 14.2585 10.7823 14.1713 10.9882 13.997C11.1941 13.8227 11.2977 13.6004 11.2977 13.3313C11.2977 13.0559 11.189 12.8311 10.9718 12.6568C10.7545 12.4825 10.4817 12.3953 10.1558 12.3953H9.64926V11.5275H10.104C10.3844 11.5275 10.6206 11.4517 10.8126 11.3002C11.0046 11.1486 11.1006 10.9414 11.1006 10.6774C11.1006 10.4425 11.0147 10.2555 10.8429 10.1153C10.6711 9.97513 10.4539 9.90441 10.1899 9.90441C9.93216 9.90441 9.72756 9.97262 9.57594 10.1103C9.42437 10.248 9.31446 10.4173 9.24501 10.6168L8.37722 10.2556C8.49216 9.92965 8.70313 9.64165 9.01258 9.39283C9.32207 9.14398 9.71743 9.01892 10.1974 9.01892C10.5524 9.01892 10.8719 9.08713 11.1549 9.22483C11.4379 9.36253 11.6602 9.55326 11.8206 9.79577C11.981 10.0396 12.0606 10.3124 12.0606 10.6156C12.0606 10.925 11.9861 11.1865 11.837 11.4013C11.688 11.616 11.5048 11.7802 11.2876 11.8952V11.947C11.5743 12.067 11.808 12.2501 11.9924 12.4964C12.1756 12.7427 12.2678 13.0371 12.2678 13.3807C12.2678 13.7242 12.1806 14.0312 12.0063 14.3002C11.832 14.5693 11.5907 14.7815 11.285 14.9356C10.9781 15.0897 10.6332 15.168 10.2505 15.168C9.80713 15.1693 9.39789 15.0417 9.02019 14.7865Z" fill="#0085F7"/>
<path d="M14.4047 10.4362L13.4422 11.1322L12.9609 10.4021L14.6877 9.15662H15.3496V15.0316H14.4047V10.4362Z" fill="#0085F7"/>
<path d="M17.0528 17.0526H6.9475L5.50098 19.184L6.9475 21.6H17.0528L18.2478 19.0295L17.0528 17.0526Z" fill="#00A94B"/>
<path d="M17.0525 2.40002H3.91569C3.0782 2.40002 2.3999 3.07832 2.3999 3.91581V17.0527L4.6736 18.669L6.9473 17.0527V6.94739H17.0526L18.6082 4.67369L17.0525 2.40002Z" fill="#0085F7"/>
<path d="M2.3999 17.0526V20.0842C2.3999 20.9217 3.0782 21.6 3.91569 21.6H6.94726V17.0526H2.3999Z" fill="#00802E"/>
<path d="M21.6001 6.9474L19.3264 5.48438L17.0527 6.9474V17.0527L19.0976 18.12L21.6001 17.0527V6.9474Z" fill="#FFBC00"/>
<path d="M21.6001 6.94739V3.91581C21.6001 3.07832 20.9218 2.40002 20.0843 2.40002H17.0527V6.94739H21.6001Z" fill="#0067D5"/>
<path d="M17.0527 21.6L21.6001 17.0526H17.0527V21.6Z" fill="#FF4131"/>
</g>
<defs>
<clipPath id="clip0_4878_143385">
<rect width="19.2" height="19.2" fill="white" transform="translate(2.3999 2.40002)"/>
</clipPath>
</defs>
</svg>
