<svg width="14" height="15" viewBox="0 0 14 15" fill="none" xmlns="http://www.w3.org/2000/svg">
<g clip-path="url(#clip0_7024_11404)">
<path d="M6.7854 9.88501C6.38511 9.88501 6.06104 10.2186 6.06104 10.6189C6.06104 11.0097 6.37557 11.3528 6.7854 11.3528C7.19523 11.3528 7.5193 11.0097 7.5193 10.6189C7.5193 10.2186 7.18574 9.88501 6.7854 9.88501Z" fill="#BBDCD2"/>
<path d="M6.90938 4.32812C5.62266 4.32812 5.03174 5.09061 5.03174 5.6053C5.03174 5.97704 5.34625 6.14859 5.60361 6.14859C6.11827 6.14859 5.9086 5.41468 6.88078 5.41468C7.35735 5.41468 7.73861 5.62438 7.73861 6.06281C7.73861 6.57753 7.20486 6.87298 6.89032 7.13986C6.61393 7.37813 6.25173 7.76893 6.25173 8.58861C6.25173 9.08421 6.38514 9.2272 6.77594 9.2272C7.24297 9.2272 7.33827 9.01752 7.33827 8.83643C7.33827 8.34079 7.34784 8.05486 7.87204 7.64503C8.12937 7.44488 8.93954 6.79675 8.93954 5.9008C8.93954 5.00486 8.12938 4.32812 6.90938 4.32812Z" fill="#BBDCD2"/>
<path d="M7 0.5C3.1313 0.5 0 3.63078 0 7.5V13.9531C0 14.2552 0.244836 14.5 0.546875 14.5H7C10.8687 14.5 14 11.3692 14 7.5C14 3.6313 10.8692 0.5 7 0.5ZM7 13.4062H1.09375V7.5C1.09375 4.23579 3.73535 1.59375 7 1.59375C10.2642 1.59375 12.9062 4.23535 12.9062 7.5C12.9062 10.7642 10.2647 13.4062 7 13.4062Z" fill="#BBDCD2"/>
</g>
<defs>
<clipPath id="clip0_7024_11404">
<rect width="14" height="14" fill="white" transform="translate(0 0.5)"/>
</clipPath>
</defs>
</svg>
