<svg width="24" height="24" viewBox="0 0 24 24" fill="none" xmlns="http://www.w3.org/2000/svg">
<g clip-path="url(#clip0_59_522)">
<path d="M22.2855 9.38556L12.2855 0.21887C11.9597 -0.0792081 11.4586 -0.0719425 11.1419 0.235276L1.69741 9.40192C1.53574 9.55886 1.44434 9.77471 1.44434 9.99995V23.1666C1.44434 23.6269 1.81737 24 2.27768 24H9.22212C9.68238 24 10.0555 23.6269 10.0555 23.1666V17.0555H13.9444V23.1666C13.9444 23.6269 14.3174 24 14.7777 24H21.7221C22.1824 24 22.5555 23.6272 22.5555 23.1666V10C22.5555 9.76637 22.4577 9.54362 22.2855 9.38556ZM20.8888 22.3333H15.611V16.2222C15.611 15.762 15.238 15.3889 14.7777 15.3889H9.22216C8.7619 15.3889 8.38882 15.762 8.38882 16.2222V22.3333H3.11102V10.3525L11.7386 1.97889L20.8888 10.3667V22.3333H20.8888Z" fill="#8A8F93"/>
</g>
<defs>
<clipPath id="clip0_59_522">
<rect width="24" height="24" fill="white"/>
</clipPath>
</defs>
</svg>
