<svg width="14" height="14" viewBox="0 0 14 14" fill="none" xmlns="http://www.w3.org/2000/svg">
<path fill-rule="evenodd" clip-rule="evenodd" d="M10.2655 1C11.4323 1 12.3463 1.32284 13.0078 1.96879C13.6693 2.61449 14 3.51019 14 4.6561C14 5.80718 13.4037 6.97906 12.2109 8.17157L7.34374 12.8593C7.25002 12.953 7.13537 13 6.99997 13C6.86458 13 6.75 12.953 6.65623 12.8593L1.7813 8.15611C1.72922 8.11441 1.65759 8.04663 1.56646 7.95288C1.47543 7.85913 1.33078 7.68863 1.13286 7.44123C0.934937 7.19381 0.757811 6.93993 0.601619 6.67959C0.4454 6.41922 0.305981 6.10408 0.183638 5.73428C0.0612948 5.36468 0 5.00518 0 4.65621C0 3.51038 0.330745 2.6146 0.992182 1.96879C1.65362 1.32292 2.56762 1 3.73433 1C4.05722 1 4.38671 1.05601 4.7226 1.1679C5.05852 1.27993 5.37104 1.43092 5.66011 1.6211C5.94923 1.81125 6.19786 1.98961 6.40626 2.15623C6.61453 2.3229 6.81245 2.50003 7 2.68747C7.18747 2.50003 7.38545 2.3229 7.59368 2.15623C7.80217 1.98961 8.05069 1.81114 8.33987 1.6211C8.62866 1.43101 8.94124 1.2799 9.27724 1.1679C9.6131 1.05599 9.94264 1 10.2655 1Z" fill="white"/>
</svg>
