<svg width="24" height="24" viewBox="0 0 24 24" fill="none" xmlns="http://www.w3.org/2000/svg">
<path d="M23.9775 8.36831L22.4775 2.3683C22.395 2.0338 22.0935 1.7998 21.75 1.7998H2.25C1.9065 1.7998 1.605 2.0338 1.5225 2.3683L0.0225 8.36831C0.0075 8.42681 0 8.4883 0 8.5498C0 9.8068 0.5955 10.9153 1.5 11.5963V22.0498C1.5 22.4638 1.836 22.7998 2.25 22.7998H9.75C10.164 22.7998 10.5 22.4638 10.5 22.0498V16.7998H13.5V22.0498C13.5 22.4638 13.836 22.7998 14.25 22.7998H21.75C22.164 22.7998 22.5 22.4638 22.5 22.0498V11.5963C23.4045 10.9153 24 9.8068 24 8.5498C24 8.4883 23.9925 8.42681 23.9775 8.36831ZM21 21.2998H15V16.0498C15 15.6358 14.664 15.2998 14.25 15.2998H9.75C9.336 15.2998 9 15.6358 9 16.0498V21.2998H3V12.2398C3.1845 12.2713 3.3705 12.2998 3.5625 12.2998C4.7055 12.2998 5.7225 11.7313 6.375 10.8493C7.0275 11.7313 8.0445 12.2998 9.1875 12.2998C10.3305 12.2998 11.3475 11.7313 12 10.8493C12.6525 11.7313 13.6695 12.2998 14.8125 12.2998C15.9555 12.2998 16.9725 11.7313 17.625 10.8493C18.2775 11.7313 19.2945 12.2998 20.4375 12.2998C20.6295 12.2998 20.8155 12.2713 21 12.2398V21.2998ZM20.4375 10.7998C19.3005 10.7998 18.375 9.7903 18.375 8.5498C18.375 8.1358 18.039 7.7998 17.625 7.7998C17.211 7.7998 16.875 8.1358 16.875 8.5498C16.875 9.7903 15.9495 10.7998 14.8125 10.7998C13.6755 10.7998 12.75 9.7903 12.75 8.5498C12.75 8.1358 12.414 7.7998 12 7.7998C11.586 7.7998 11.25 8.1358 11.25 8.5498C11.25 9.7903 10.3245 10.7998 9.1875 10.7998C8.0505 10.7998 7.125 9.7903 7.125 8.5498C7.125 8.1358 6.789 7.7998 6.375 7.7998C5.961 7.7998 5.625 8.1358 5.625 8.5498C5.625 9.7903 4.6995 10.7998 3.5625 10.7998C2.4525 10.7998 1.5435 9.8368 1.5015 8.6368L2.8365 3.2998H21.165L22.5 8.6368C22.4565 9.8368 21.5475 10.7998 20.4375 10.7998Z" fill="#8A8F93"/>
</svg>
