<svg width="24" height="24" viewBox="0 0 24 24" fill="none" xmlns="http://www.w3.org/2000/svg">
<rect width="24" height="24" rx="2" fill="white"/>
<path d="M13.6001 7.59998H19.4133C19.7373 7.59998 20.0001 7.86278 20.0001 8.18678V15.8132C20.0001 16.1372 19.7373 16.4 19.4133 16.4H13.6001V7.59998Z" fill="#1976D2"/>
<path d="M19.2001 9.58325H13.6001V15.8001H19.2001V9.58325Z" fill="white"/>
<path d="M13.2 20L4 18.2V5.8L13.2 4V20Z" fill="#1976D2"/>
<path d="M8.49971 9C7.22931 9 6.19971 10.3432 6.19971 12C6.19971 13.6568 7.22931 15 8.49971 15C9.77011 15 10.7997 13.6568 10.7997 12C10.7997 10.3432 9.77011 9 8.49971 9ZM8.39971 13.8C7.73691 13.8 7.19971 12.994 7.19971 12C7.19971 11.006 7.73691 10.2 8.39971 10.2C9.06251 10.2 9.59971 11.006 9.59971 12C9.59971 12.994 9.06251 13.8 8.39971 13.8Z" fill="white"/>
<path d="M14.6987 14.2948H13.6187V15.4548H14.6987V14.2948Z" fill="#1976D2"/>
<path d="M16.059 14.2948H14.979V15.4548H16.059V14.2948Z" fill="#1976D2"/>
<path d="M17.4194 14.2948H16.3394V15.4548H17.4194V14.2948Z" fill="#1976D2"/>
<path d="M14.6987 12.8636H13.6187V14.0236H14.6987V12.8636Z" fill="#1976D2"/>
<path d="M16.059 12.8636H14.979V14.0236H16.059V12.8636Z" fill="#1976D2"/>
<path d="M17.4194 12.8636H16.3394V14.0236H17.4194V12.8636Z" fill="#1976D2"/>
<path d="M18.7797 12.8636H17.6997V14.0236H18.7797V12.8636Z" fill="#1976D2"/>
<path d="M14.6987 11.4824H13.6187V12.6424H14.6987V11.4824Z" fill="#1976D2"/>
<path d="M16.059 11.4824H14.979V12.6424H16.059V11.4824Z" fill="#1976D2"/>
<path d="M17.4194 11.4824H16.3394V12.6424H17.4194V11.4824Z" fill="#1976D2"/>
<path d="M18.7797 11.4824H17.6997V12.6424H18.7797V11.4824Z" fill="#1976D2"/>
<path d="M16.059 10.0448H14.979V11.2048H16.059V10.0448Z" fill="#1976D2"/>
<path d="M17.4194 10.0448H16.3394V11.2048H17.4194V10.0448Z" fill="#1976D2"/>
<path d="M18.7797 10.0448H17.6997V11.2048H18.7797V10.0448Z" fill="#1976D2"/>
</svg>
