<svg width="24" height="24" viewBox="0 0 24 24" fill="none" xmlns="http://www.w3.org/2000/svg">
<path fill-rule="evenodd" clip-rule="evenodd" d="M23.3821 7.7972C23.9884 8.40348 24.1472 9.28979 23.8597 10.0434C23.95 10.2781 24 10.5325 24 10.7986V21.8901C24 23.0532 23.0537 23.9994 21.8906 23.9994H2.10938C0.946266 23.9994 0 23.0532 0 21.8901V10.7986C0 9.63554 0.946266 8.68927 2.10938 8.68927H5.1472L13.2191 0.617305C14.0415 -0.20507 15.3798 -0.205164 16.2023 0.617305L23.3821 7.7972ZM21.8906 8.68927C22.0422 8.68927 22.1899 8.70568 22.3325 8.7362L21.3263 7.73002L20.367 8.68927H21.8906ZM18.3783 8.68927L20.3319 6.73566L19.3375 5.74126L16.3895 8.68927H18.3783ZM14.7107 1.40602C14.5307 1.40602 14.3506 1.4746 14.2135 1.61166L7.13587 8.68932H14.4008L18.3432 4.74694L15.2079 1.61166C15.0708 1.4746 14.8908 1.40602 14.7107 1.40602ZM21.8906 22.5932C22.2783 22.5932 22.5938 22.2778 22.5938 21.8901V10.7986C22.5938 10.4109 22.2783 10.0955 21.8906 10.0955H2.10938C1.72167 10.0955 1.40625 10.4109 1.40625 10.7986V21.8901C1.40625 22.2778 1.72167 22.5932 2.10938 22.5932H21.8906ZM6.04233 19.0586H2.76562V20.4648H6.04233V19.0586ZM7.82959 19.0586H11.1062V20.4648H7.82959V19.0586ZM16.1704 19.0586H12.8937V20.4648H16.1704V19.0586ZM17.9577 19.0586H21.2344V20.4648H17.9577V19.0586ZM3.98438 11.9705H6.38752C7.03369 11.9705 7.55939 12.4962 7.55939 13.1424V15.0174C7.55939 15.6635 7.03369 16.1892 6.38752 16.1892H3.98438C3.3382 16.1892 2.8125 15.6635 2.8125 15.0174V13.1424C2.8125 12.4962 3.3382 11.9705 3.98438 11.9705ZM4.21875 14.783H6.15314V13.3767H4.21875V14.783Z" fill="#8A8F93"/>
</svg>
