<svg width="18" height="18" viewBox="0 0 18 18" fill="none" xmlns="http://www.w3.org/2000/svg">
<path fill-rule="evenodd" clip-rule="evenodd" d="M10.1034 0C12.0463 0 13.5651 0.40725 14.4043 1.35787C15.1682 2.22075 15.3808 3.17138 15.1693 4.57312C15.1693 4.57312 15.1344 4.78912 15.1119 4.90162C14.3683 8.6895 11.8247 9.999 8.57457 9.999H6.92082C6.52369 9.999 6.18732 10.2859 6.12544 10.674L6.15244 10.5007L5.27832 16.002H1.79757C1.50057 16.002 1.27332 15.7387 1.31944 15.4474L3.66728 0.675C3.73028 0.286875 4.06778 0 4.46491 0H10.1034ZM8.57453 10.9935C12.665 10.9935 15.2424 9.02023 16.0502 5.29085C16.6948 6.09635 16.8208 7.21123 16.5598 8.54098C15.9095 11.8541 13.6843 12.9994 10.8414 12.9994H10.4015C10.055 12.9994 9.75916 13.2502 9.70516 13.5911L9.66916 13.7824L9.11566 17.2597L9.08753 17.4082C9.03353 17.7491 8.73766 18 8.39003 18H5.98478L7.09178 10.9935H8.57453Z" fill="white"/>
</svg>
