<svg width="18" height="18" viewBox="0 0 18 18" fill="none" xmlns="http://www.w3.org/2000/svg">
<path d="M9.00038 8.80318C11.0017 8.80318 12.6242 6.83254 12.6242 4.40162C12.6242 1.97064 12.0915 0 9.00038 0C5.90926 0 5.37646 1.97064 5.37646 4.40162C5.37646 6.83254 6.99898 8.80318 9.00038 8.80318Z" fill="white"/>
<path d="M2.1555 15.5239C2.15488 15.3757 2.15426 15.4822 2.1555 15.5239V15.5239Z" fill="white"/>
<path d="M15.8447 15.6395C15.8467 15.5989 15.8454 15.358 15.8447 15.6395V15.6395Z" fill="white"/>
<path d="M15.8367 15.3463C15.7695 11.1116 15.2165 9.90493 10.9843 9.14111C10.9843 9.14111 10.3885 9.90025 8.99995 9.90025C7.61138 9.90025 7.01553 9.14111 7.01553 9.14111C2.8295 9.8966 2.2428 11.0854 2.16566 15.2088C2.15934 15.5455 2.1564 15.5632 2.15527 15.5241C2.15553 15.5973 2.15584 15.7328 2.15584 15.969C2.15584 15.969 3.16343 18.0002 8.99995 18.0002C14.8364 18.0002 15.8441 15.969 15.8441 15.969C15.8441 15.8172 15.8442 15.7117 15.8443 15.6399C15.8432 15.6641 15.8409 15.6172 15.8367 15.3463Z" fill="white"/>
</svg>
