<svg width="20" height="20" viewBox="0 0 20 20" fill="none" xmlns="http://www.w3.org/2000/svg">
<path d="M5.625 20H14.375C14.8723 20 15.3492 19.8025 15.7008 19.4508C16.0525 19.0992 16.25 18.6223 16.25 18.125V1.875C16.25 1.37772 16.0525 0.900805 15.7008 0.549175C15.3492 0.197544 14.8723 0 14.375 0H5.625C5.12772 0 4.65081 0.197544 4.29917 0.549175C3.94754 0.900805 3.75 1.37772 3.75 1.875V18.125C3.75 18.6223 3.94754 19.0992 4.29917 19.4508C4.65081 19.8025 5.12772 20 5.625 20ZM8.15 1.25H11.85V1.5625H8.15V1.25ZM5 1.875C5 1.70924 5.06585 1.55027 5.18306 1.43306C5.30027 1.31585 5.45924 1.25 5.625 1.25H6.9V2.1875C6.9 2.35326 6.96585 2.51223 7.08306 2.62944C7.20027 2.74665 7.35924 2.8125 7.525 2.8125H12.475C12.6408 2.8125 12.7997 2.74665 12.9169 2.62944C13.0342 2.51223 13.1 2.35326 13.1 2.1875V1.25H14.375C14.5408 1.25 14.6997 1.31585 14.8169 1.43306C14.9342 1.55027 15 1.70924 15 1.875V18.125C15 18.2908 14.9342 18.4497 14.8169 18.5669C14.6997 18.6842 14.5408 18.75 14.375 18.75H5.625C5.45924 18.75 5.30027 18.6842 5.18306 18.5669C5.06585 18.4497 5 18.2908 5 18.125V1.875Z" fill="#8A8F93"/>
<path fill-rule="evenodd" clip-rule="evenodd" d="M11.6328 7C12.2162 7 12.6732 7.16142 13.0039 7.4844C13.3347 7.80725 13.5001 8.2551 13.5 8.82806C13.5 9.40361 13.2019 9.98955 12.6055 10.5858L10.1719 12.9297C10.125 12.9765 10.0677 13.0001 10 13.0001C9.93231 13.0001 9.87503 12.9765 9.82814 12.9297L7.39066 10.5781C7.36462 10.5572 7.3288 10.5233 7.28324 10.4765C7.23772 10.4296 7.1654 10.3443 7.06643 10.2206C6.96747 10.0969 6.87891 9.96999 6.80081 9.83982C6.7227 9.70963 6.65299 9.55206 6.59182 9.36716C6.53065 9.18236 6.5 9.0026 6.5 8.82812C6.5 8.2552 6.66537 7.8073 6.99609 7.4844C7.32682 7.16146 7.78382 7 8.36718 7C8.52863 7 8.69337 7.02801 8.86132 7.08395C9.02928 7.13997 9.18554 7.21546 9.33008 7.31055C9.47464 7.40563 9.59895 7.49481 9.70316 7.57812C9.80729 7.66146 9.90625 7.75002 10 7.84374C10.0938 7.75002 10.1928 7.66146 10.2969 7.57812C10.4011 7.49481 10.5254 7.40557 10.67 7.31055C10.8144 7.2155 10.9707 7.13995 11.1387 7.08395C11.3066 7.02799 11.4714 7 11.6328 7Z" fill="white"/>
</svg>
