<svg width="22" height="22" viewBox="0 0 22 22" fill="none" xmlns="http://www.w3.org/2000/svg">
<path fill-rule="evenodd" clip-rule="evenodd" d="M3.63868e-07 8.32432C1.61482e-07 3.69428 3.89332 -1.70183e-07 8.62162 -3.76863e-07C13.3499 -5.83543e-07 17.2432 3.69428 17.2432 8.32432C17.2432 10.4433 16.4278 12.3662 15.0901 13.8287L21.7388 20.4774C22.0871 20.8257 22.0871 21.3905 21.7388 21.7388C21.3905 22.0871 20.8258 22.0871 20.4775 21.7388L13.7526 15.0139C12.3147 16.0426 10.5367 16.6486 8.62162 16.6486C3.89332 16.6486 5.66253e-07 12.9544 3.63868e-07 8.32432ZM8.62162 1.78378C4.81189 1.78378 1.78378 4.74473 1.78378 8.32432C1.78378 11.9039 4.8119 14.8649 8.62162 14.8649C12.4313 14.8649 15.4595 11.9039 15.4595 8.32432C15.4595 4.74473 12.4313 1.78378 8.62162 1.78378Z" fill="#8A8F93"/>
</svg>
