<svg width="14" height="14" viewBox="0 0 14 14" fill="none" xmlns="http://www.w3.org/2000/svg">
<path fill-rule="evenodd" clip-rule="evenodd" d="M8.75033 1.16675H12.2503C12.405 1.16675 12.5534 1.22821 12.6628 1.3376C12.7722 1.447 12.8337 1.59537 12.8337 1.75008V5.25008C12.8337 5.40479 12.7722 5.55316 12.6628 5.66256C12.5534 5.77196 12.405 5.83342 12.2503 5.83342C12.0956 5.83342 11.9472 5.77196 11.8379 5.66256C11.7285 5.55316 11.667 5.40479 11.667 5.25008V3.15825L6.82941 7.99583C6.7756 8.05155 6.71124 8.09599 6.64007 8.12656C6.5689 8.15713 6.49235 8.17322 6.4149 8.17389C6.33744 8.17457 6.26063 8.15981 6.18894 8.13048C6.11725 8.10115 6.05212 8.05783 5.99735 8.00306C5.94258 7.94829 5.89927 7.88316 5.86993 7.81147C5.8406 7.73978 5.82584 7.66297 5.82652 7.58551C5.82719 7.50806 5.84328 7.43151 5.87385 7.36035C5.90443 7.28918 5.94887 7.22481 6.00458 7.171L10.8422 2.33341H8.75033C8.59562 2.33341 8.44725 2.27196 8.33785 2.16256C8.22846 2.05316 8.167 1.90479 8.167 1.75008C8.167 1.59537 8.22846 1.447 8.33785 1.3376C8.44725 1.22821 8.59562 1.16675 8.75033 1.16675ZM10.6712 6.34727C10.7806 6.23787 10.9289 6.17641 11.0837 6.17641C11.2384 6.17641 11.3867 6.23787 11.4961 6.34727C11.6055 6.45666 11.667 6.60504 11.667 6.75975V10.9382C11.6664 11.4408 11.4663 11.9227 11.1108 12.278C10.7552 12.6334 10.2732 12.8331 9.77058 12.8334H3.06224C2.55958 12.8328 2.0777 12.6328 1.72237 12.2772C1.36704 11.9217 1.1673 11.4397 1.16699 10.937V4.22866C1.16761 3.7262 1.36749 3.2445 1.72278 2.8892C2.07807 2.53391 2.55978 2.33403 3.06224 2.33341H6.69174C6.84645 2.33341 6.99482 2.39487 7.10422 2.50427C7.21362 2.61366 7.27507 2.76204 7.27507 2.91675C7.27507 3.07146 7.21362 3.21983 7.10422 3.32923C6.99482 3.43862 6.84645 3.50008 6.69174 3.50008H3.06224C2.86906 3.50023 2.68383 3.57704 2.54723 3.71365C2.41062 3.85025 2.33381 4.03548 2.33366 4.22866V10.9382C2.33381 11.1313 2.41062 11.3166 2.54723 11.4532C2.68383 11.5898 2.86906 11.6666 3.06224 11.6667H9.77174C9.96493 11.6666 10.1502 11.5898 10.2868 11.4532C10.4234 11.3166 10.5002 11.1313 10.5003 10.9382V6.75975C10.5003 6.60504 10.5618 6.45666 10.6712 6.34727Z" fill="white"/>
</svg>
