<svg width="14" height="14" viewBox="0 0 14 14" fill="none" xmlns="http://www.w3.org/2000/svg">
<g clip-path="url(#clip0_7169_15593)">
<path d="M13.8512 5.88386L10.7834 8.86525L11.5079 13.0761C11.5394 13.2602 11.4636 13.4463 11.3119 13.5563C11.2262 13.6187 11.1242 13.6501 11.0223 13.6501C10.944 13.6501 10.8652 13.6314 10.7933 13.5936L7 11.6055L3.20722 13.5931C3.04174 13.6805 2.8403 13.6663 2.68861 13.5558C2.53692 13.4458 2.46107 13.2597 2.49259 13.0756L3.21707 8.86475L0.14876 5.88386C0.0147986 5.75325 -0.0339595 5.55783 0.0241562 5.38058C0.0822718 5.20332 0.236426 5.07321 0.4221 5.0462L4.66208 4.43244L6.55822 0.601615C6.7242 0.266258 7.2758 0.266258 7.44178 0.601615L9.33792 4.43244L13.5779 5.0462C13.7636 5.07321 13.9177 5.20283 13.9758 5.38058C14.034 5.55832 13.9852 5.75276 13.8512 5.88386Z" fill="white"/>
</g>
<defs>
<clipPath id="clip0_7169_15593">
<rect width="14" height="14" fill="white"/>
</clipPath>
</defs>
</svg>
