<svg width="16" height="16" viewBox="0 0 16 16" fill="none" xmlns="http://www.w3.org/2000/svg">
<g clip-path="url(#clip0_4646_118915)">
<path d="M15.83 6.7242L12.3239 10.1315L13.1519 14.9439C13.1879 15.1544 13.1012 15.367 12.9279 15.4927C12.8299 15.564 12.7134 15.5999 12.5969 15.5999C12.5074 15.5999 12.4173 15.5786 12.3352 15.5354L8 13.2633L3.66539 15.5348C3.47627 15.6347 3.24606 15.6184 3.0727 15.4922C2.89933 15.3665 2.81265 15.1538 2.84868 14.9434L3.67665 10.1309L0.170011 6.7242C0.0169126 6.57493 -0.0388108 6.3516 0.027607 6.14902C0.0940249 5.94645 0.270201 5.79774 0.482401 5.76688L5.32809 5.06544L7.49511 0.687351C7.6848 0.304086 8.3152 0.304086 8.50489 0.687351L10.6719 5.06544L15.5176 5.76688C15.7298 5.79774 15.906 5.94589 15.9724 6.14902C16.0388 6.35216 15.9831 6.57437 15.83 6.7242Z" fill="white"/>
</g>
<defs>
<clipPath id="clip0_4646_118915">
<rect width="16" height="16" fill="white"/>
</clipPath>
</defs>
</svg>
