<svg width="20" height="20" viewBox="0 0 20 20" fill="none" xmlns="http://www.w3.org/2000/svg">
<g clip-path="url(#clip0_7169_15927)">
<path d="M0.212515 8.40537L4.59511 12.6645L3.56014 18.68C3.51511 18.9431 3.62347 19.2089 3.84017 19.366C3.96259 19.4551 4.10823 19.5 4.25387 19.5C4.36574 19.5 4.47831 19.4733 4.58104 19.4193L10 16.5792L15.4183 19.4186C15.6547 19.5435 15.9424 19.5231 16.1591 19.3653C16.3758 19.2082 16.4842 18.9424 16.4392 18.6793L15.4042 12.6638L19.7875 8.40537C19.9789 8.21879 20.0485 7.93962 19.9655 7.6864C19.8825 7.43318 19.6622 7.2473 19.397 7.20872L13.3399 6.33192L10.6311 0.859311C10.394 0.38023 9.606 0.38023 9.36889 0.859311L6.66011 6.33192L0.603001 7.20872C0.337751 7.2473 0.117533 7.43248 0.0345097 7.6864C-0.0485134 7.94032 0.0211411 8.21809 0.212515 8.40537Z" fill="white"/>
</g>
<defs>
<clipPath id="clip0_7169_15927">
<rect width="20" height="20" fill="white" transform="matrix(-1 0 0 1 20 0)"/>
</clipPath>
</defs>
</svg>
