<svg width="59" height="24" viewBox="0 0 59 24" fill="none" xmlns="http://www.w3.org/2000/svg">
<path fill-rule="evenodd" clip-rule="evenodd" d="M28.1797 3.95647L32.117 3.1304V0L28.1797 0.826076V3.95647ZM11.4089 2.68152L15.2308 1.84095L15.2597 5.34815H18.2307V8.73942H15.2597V14.5364C15.2597 16.9422 17.7259 16.2031 18.2307 15.9857V19.2465C17.3675 19.6416 16.4235 19.8253 15.476 19.7828C14.933 19.793 14.3936 19.6918 13.8908 19.4855C13.388 19.2791 12.9323 18.9719 12.5516 18.5826C12.171 18.1933 11.8733 17.7301 11.6768 17.2213C11.4804 16.7125 11.3892 16.1688 11.4089 15.6234V2.68152ZM23.2444 5.17463L23.4896 6.36302C23.791 5.80285 24.2858 5.37278 24.8809 5.15388C25.476 4.93498 26.1302 4.94236 26.7202 5.17463V8.87024C26.2008 8.69127 25.6395 8.67585 25.1111 8.82606C24.5828 8.97626 24.1127 9.28493 23.7636 9.7108V19.2469H19.8984V5.17463H23.2444ZM40.799 5.01485C40.2295 5.01154 39.6651 5.12121 39.1379 5.33758C38.6107 5.55394 38.1313 5.87274 37.727 6.2757L37.5251 5.27571H34.0781V24.0001L38.001 23.1451V18.6089C38.7812 19.2655 39.7668 19.6247 40.7845 19.6234C43.5825 19.6234 46.1497 17.319 46.1497 12.2177C46.1497 7.55105 43.5536 5.01485 40.799 5.01485ZM39.8615 16.0727C39.5174 16.0926 39.1732 16.0353 38.8539 15.905C38.5346 15.7746 38.2482 15.5745 38.0154 15.3191V9.36262C38.2492 9.09786 38.5388 8.8889 38.8632 8.751C39.1876 8.6131 39.5385 8.54973 39.8903 8.56553C41.3326 8.56553 42.3133 10.2032 42.3133 12.3046C42.3133 14.406 41.3182 16.0727 39.8615 16.0727ZM53.3843 5.01477C49.6056 5.01477 47.3125 8.2901 47.3125 12.4205C47.3125 17.3045 50.0239 19.7827 53.8891 19.7827C55.3976 19.8074 56.8872 19.4432 58.2158 18.7247V15.4639C57.0093 16.0756 55.673 16.384 54.3218 16.3625C52.7642 16.3625 51.4373 15.7972 51.2354 13.8987H58.9946V12.4495C59.1244 8.29009 57.163 5.01477 53.3843 5.01477ZM51.2642 10.9132C51.2642 9.08719 52.3748 8.31908 53.3555 8.31908C54.3362 8.31908 55.3746 9.08719 55.3746 10.9132H51.2642ZM3.96615 9.40589C3.96615 8.76821 4.48535 8.52184 5.30743 8.52184C6.66987 8.55131 8.00533 8.90917 9.20146 9.5653V5.75376C7.96479 5.25129 6.64129 5.00008 5.30743 5.01464C2.12009 5.01464 0 6.72476 0 9.59429C0 12.3089 2.17991 13.1187 3.9054 13.7597C5.03561 14.1796 5.97086 14.527 5.97086 15.2899C5.97086 16.0435 5.33627 16.2899 4.52862 16.2899C3.00484 16.2004 1.52307 15.7537 0.201912 14.9855V18.884C1.56358 19.4943 3.03765 19.8103 4.52862 19.8116C7.78807 19.8116 10.038 18.1449 10.038 15.2319C9.99328 12.2148 7.67305 11.4009 5.91423 10.7839C4.83437 10.4051 3.96615 10.1005 3.96615 9.40589ZM28.1797 5.27531H32.117V19.2462H28.1797V5.27531Z" fill="white"/>
</svg>
