<svg width="18" height="18" viewBox="0 0 18 18" fill="none" xmlns="http://www.w3.org/2000/svg">
<path d="M16.886 4.51367C15.8588 4.51367 14.911 4.17336 14.1498 3.59926C13.2769 2.94113 12.6497 1.97574 12.4282 0.863047C12.3734 0.588125 12.3439 0.304414 12.341 0.0136719L9.40655 0.0136719V8.03211L9.40303 12.4242C9.40303 13.5984 8.63838 14.594 7.57842 14.9442C7.2708 15.0458 6.93858 15.0939 6.59264 15.075C6.15108 15.0507 5.73729 14.9175 5.37764 14.7023C4.61229 14.2446 4.09338 13.4142 4.07932 12.4643C4.05717 10.9796 5.25741 9.76918 6.741 9.76918C7.03385 9.76918 7.3151 9.81699 7.57842 9.90383V7.71219L7.57842 6.92434C7.30069 6.8832 7.01803 6.86176 6.73221 6.86176C5.10834 6.86176 3.58959 7.53676 2.50397 8.75281C1.68342 9.6718 1.19123 10.8443 1.1153 12.0737C1.0158 13.6887 1.60678 15.224 2.75287 16.3568C2.92127 16.523 3.09811 16.6774 3.28303 16.8198C4.26565 17.576 5.46694 17.9859 6.73221 17.9859C7.01803 17.9859 7.30069 17.9648 7.57842 17.9237C8.76037 17.7486 9.85092 17.2075 10.7115 16.3568C11.769 15.3116 12.3533 13.9239 12.3597 12.447L12.3446 5.88828C12.849 6.27746 13.4006 6.59949 13.9927 6.84945C14.9134 7.23793 15.8897 7.4348 16.8945 7.43445V5.30363V4.51297C16.8952 4.51367 16.8867 4.51367 16.886 4.51367Z" fill="white"/>
</svg>
