<svg width="56" height="18" viewBox="0 0 56 18" fill="none" xmlns="http://www.w3.org/2000/svg">
<path d="M0.937073 12.4484C0.385883 12.4831 -0.0327717 12.9581 0.00198185 13.5093C0.0367354 14.0605 0.511737 14.4792 1.06293 14.4444L0.937073 12.4484ZM55.0629 4.23002C55.6141 4.19526 56.0328 3.72026 55.998 3.16907C55.9633 2.61788 55.4883 2.19923 54.9371 2.23398L55.0629 4.23002ZM50.2042 3.53438L50.1413 2.53636L50.2042 3.53438ZM31.7158 6.38001L30.8938 5.81057L31.7158 6.38001ZM9.3398 13.7225L8.93601 14.6373L9.3398 13.7225ZM17.5168 12.0055L18.3148 12.6082L17.5168 12.0055ZM18.1092 10.9849L17.1901 10.5909L18.1092 10.9849ZM18.9519 9.0189L18.0328 8.62492L18.9519 9.0189ZM44.432 5.8242L44.9255 6.69392L44.432 5.8242ZM10.0584 14.0396L9.65462 14.9545L10.0584 14.0396ZM18.2239 12.7284L18.3148 12.6082L16.7188 11.4028L16.628 11.5231L18.2239 12.7284ZM19.0283 11.3789L19.871 9.41288L18.0328 8.62492L17.1901 10.5909L19.0283 11.3789ZM1.06293 14.4444L6.07861 14.1282L5.95276 12.1321L0.937073 12.4484L1.06293 14.4444ZM8.93601 14.6373L9.65462 14.9545L10.4622 13.1248L9.74358 12.8076L8.93601 14.6373ZM31.4986 8.44966L32.5378 6.94946L30.8938 5.81057L29.8545 7.31077L31.4986 8.44966ZM44.9255 6.69392L47.0405 5.49373L46.0534 3.75428L43.9384 4.95448L44.9255 6.69392ZM50.2672 4.5324L55.0629 4.23002L54.9371 2.23398L50.1413 2.53636L50.2672 4.5324ZM47.0405 5.49373C48.0292 4.93268 49.1326 4.60394 50.2672 4.5324L50.1413 2.53636C48.7039 2.62699 47.306 3.04348 46.0534 3.75428L47.0405 5.49373ZM32.5378 6.94946C33.8428 5.06566 36.4753 4.69156 38.2534 6.13723L39.5151 4.58541C36.833 2.40478 32.8622 2.96906 30.8938 5.81057L32.5378 6.94946ZM6.07861 14.1282C7.05812 14.0664 8.03813 14.241 8.93601 14.6373L9.74358 12.8076C8.55238 12.2819 7.25224 12.0502 5.95276 12.1321L6.07861 14.1282ZM18.3148 12.6082C18.6014 12.2287 18.8409 11.8159 19.0283 11.3789L17.1901 10.5909C17.0663 10.8796 16.9081 11.1522 16.7188 11.4028L18.3148 12.6082ZM25.7556 7.49479C23.5661 4.87177 19.3789 5.48451 18.0328 8.62492L19.871 9.41288C20.6291 7.64431 22.9872 7.29924 24.2203 8.77643L25.7556 7.49479ZM38.2534 6.13723C40.1504 7.67955 42.7992 7.90055 44.9255 6.69392L43.9384 4.95448C42.5288 5.75442 40.7728 5.60791 39.5151 4.58541L38.2534 6.13723ZM16.628 11.5231C15.1932 13.4228 12.6401 14.0861 10.4622 13.1248L9.65462 14.9545C12.6816 16.2905 16.2299 15.3687 18.2239 12.7284L16.628 11.5231ZM24.2203 8.77643C26.1586 11.0986 29.7761 10.9362 31.4986 8.44966L29.8545 7.31077C28.8845 8.71108 26.8473 8.80254 25.7556 7.49479L24.2203 8.77643Z" fill="#BBDCD2"/>
</svg>
