<svg width="56" height="18" viewBox="0 0 56 18" fill="none" xmlns="http://www.w3.org/2000/svg">
<path d="M0.965409 12.1593C0.413455 12.1784 -0.0185057 12.6414 0.000598431 13.1933C0.0197026 13.7453 0.482637 14.1772 1.03459 14.1581L0.965409 12.1593ZM55.0346 2.9994C55.5865 2.9803 56.0185 2.51736 55.9994 1.96541C55.9803 1.41345 55.5174 0.981494 54.9654 1.0006L55.0346 2.9994ZM32.3665 10.4885L31.6479 9.79301L32.3665 10.4885ZM17.0169 12.0372L16.4289 11.2283L17.0169 12.0372ZM23.272 11.8908L22.7226 12.7263L23.272 11.8908ZM43.8831 6.73661L44.601 7.43279L43.8831 6.73661ZM16.7834 12.2068L16.1955 11.3979L16.7834 12.2068ZM11.7042 13.4766L11.566 14.467L11.7042 13.4766ZM23.592 12.1012L23.0426 12.9367L23.592 12.1012ZM22.7226 12.7263L23.0426 12.9367L24.1415 11.2657L23.8215 11.0553L22.7226 12.7263ZM17.3714 13.0157L17.6048 12.8461L16.4289 11.2283L16.1955 11.3979L17.3714 13.0157ZM1.03459 14.1581L6.57877 13.9662L6.50959 11.9674L0.965409 12.1593L1.03459 14.1581ZM8.80684 14.0822L11.566 14.467L11.8423 12.4862L9.08311 12.1013L8.80684 14.0822ZM32.3876 11.9045L33.0851 11.1839L31.6479 9.79301L30.9505 10.5136L32.3876 11.9045ZM44.601 7.43279L46.0471 5.94156L44.6114 4.5492L43.1652 6.04043L44.601 7.43279ZM52.4775 3.08791L55.0346 2.9994L54.9654 1.0006L52.4083 1.0891L52.4775 3.08791ZM46.0471 5.94156C47.7411 4.19483 50.0457 3.17208 52.4775 3.08791L52.4083 1.0891C49.4598 1.19116 46.6653 2.43126 44.6114 4.5492L46.0471 5.94156ZM33.0851 11.1839C34.346 9.88107 36.1699 9.28639 37.9565 9.59558L38.2976 7.62487C35.8588 7.20283 33.3692 8.01457 31.6479 9.79301L33.0851 11.1839ZM6.57877 13.9662C7.32342 13.9405 8.06889 13.9792 8.80684 14.0822L9.08311 12.1013C8.23075 11.9825 7.36969 11.9377 6.50959 11.9674L6.57877 13.9662ZM17.6048 12.8461C18.0686 12.509 18.5926 12.2636 19.1485 12.1232L18.6587 10.1841C17.8557 10.3869 17.0989 10.7413 16.4289 11.2283L17.6048 12.8461ZM23.8215 11.0553C22.2988 10.0539 20.4257 9.73783 18.6587 10.1841L19.1485 12.1232C20.3717 11.8143 21.6684 12.0331 22.7226 12.7263L23.8215 11.0553ZM37.9565 9.59558C40.3927 10.0172 42.8798 9.20762 44.601 7.43279L43.1652 6.04043C41.9043 7.34066 40.0823 7.93373 38.2976 7.62487L37.9565 9.59558ZM16.1955 11.3979C14.94 12.3105 13.3795 12.7006 11.8423 12.4862L11.566 14.467C13.6161 14.7529 15.6971 14.2327 17.3714 13.0157L16.1955 11.3979ZM23.0426 12.9367C26.0011 14.8823 29.9251 14.4489 32.3876 11.9045L30.9505 10.5136C29.1562 12.3675 26.2971 12.6833 24.1415 11.2657L23.0426 12.9367Z" fill="#E4EAAF"/>
</svg>
