<svg width="56" height="18" viewBox="0 0 56 18" fill="none" xmlns="http://www.w3.org/2000/svg">
<path d="M0.937352 12.3912C0.386152 12.4258 -0.0326353 12.9007 0.00196433 13.4519C0.036564 14.0031 0.511448 14.4219 1.06265 14.3873L0.937352 12.3912ZM55.7578 4.65246C56.1182 4.23392 56.071 3.60252 55.6525 3.24218C55.2339 2.88183 54.6025 2.92901 54.2422 3.34754L55.7578 4.65246ZM7.42338 12.9861L7.36073 11.988L7.42338 12.9861ZM35.2299 12.0605L35.3961 13.0466L35.2299 12.0605ZM1.06265 14.3873L7.48603 13.9841L7.36073 11.988L0.937352 12.3912L1.06265 14.3873ZM13.7504 12.7265L16.1195 11.9057L15.4647 10.0159L13.0957 10.8368L13.7504 12.7265ZM35.3961 13.0466L38.3998 12.5401L38.0673 10.568L35.0636 11.0745L35.3961 13.0466ZM51.921 9.10891L55.7578 4.65246L54.2422 3.34754L50.4053 7.80399L51.921 9.10891ZM41.6245 12.6026C45.4366 13.3982 49.3801 12.0601 51.921 9.10891L50.4053 7.80399C48.3393 10.2037 45.1328 11.2916 42.0331 10.6447L41.6245 12.6026ZM7.48603 13.9841C9.62142 13.85 11.7288 13.427 13.7504 12.7265L13.0957 10.8368C11.2449 11.478 9.31564 11.8653 7.36073 11.988L7.48603 13.9841ZM27.1552 10.2529C23.4112 8.78315 19.2653 8.69911 15.4647 10.0159L16.1195 11.9057C19.4696 10.745 23.1241 10.819 26.4244 12.1146L27.1552 10.2529ZM38.3998 12.5401C39.4692 12.3598 40.5629 12.381 41.6245 12.6026L42.0331 10.6447C40.7275 10.3723 39.3825 10.3462 38.0673 10.568L38.3998 12.5401ZM26.4244 12.1146C29.275 13.2336 32.3764 13.5558 35.3961 13.0466L35.0636 11.0745C32.4018 11.5233 29.668 11.2393 27.1552 10.2529L26.4244 12.1146Z" fill="#E8EBD9"/>
</svg>
