<svg width="24" height="24" viewBox="0 0 24 24" fill="none" xmlns="http://www.w3.org/2000/svg">
<rect width="24" height="24" rx="6" fill="#E8EBD9"/>
<path d="M12 8C9.43456 8 7.20015 9.6113 6 12C7.20015 14.3892 9.43456 16 12 16C14.5654 16 16.7999 14.3892 18 12C16.7999 9.61145 14.5654 8 12 8ZM12 15C10.0693 15 8.2461 13.8627 7.13924 12C8.24607 10.1374 10.0693 9.00005 12 9.00005C13.9306 9.00005 15.7539 10.1374 16.8608 12C15.7539 13.8627 13.9306 15 12 15Z" fill="#111315"/>
<path d="M12 9.75C10.7568 9.75 9.75 10.7568 9.75 12C9.75 13.2427 10.7568 14.25 12 14.25C13.2426 14.25 14.25 13.2427 14.25 12C14.25 10.7568 13.2426 9.75 12 9.75ZM12 13.2501C11.3096 13.2501 10.75 12.6906 10.75 12C10.75 11.3096 11.3096 10.75 12 10.75C12.6904 10.75 13.25 11.3096 13.25 12C13.25 12.6906 12.6904 13.2501 12 13.2501Z" fill="#111315"/>
</svg>
