<svg width="32" height="32" viewBox="0 0 32 32" fill="none" xmlns="http://www.w3.org/2000/svg">
<circle cx="16" cy="16" r="16" fill="#BBDCD2"/>
<path d="M12.4 22.3C12.3339 22.3 12.2673 22.2851 12.2047 22.2554C12.0495 22.1803 11.95 22.0232 11.95 21.85V19.6H10.6C9.8557 19.6 9.25 18.9943 9.25 18.25V11.05C9.25 10.3057 9.8557 9.69995 10.6 9.69995H21.4C22.1443 9.69995 22.75 10.3057 22.75 11.05V18.25C22.75 18.9943 22.1443 19.6 21.4 19.6H15.933L12.6813 22.2014C12.5998 22.2667 12.5004 22.3 12.4 22.3ZM10.6 10.6C10.3516 10.6 10.15 10.802 10.15 11.05V18.25C10.15 18.4979 10.3516 18.7 10.6 18.7H12.4C12.6489 18.7 12.85 18.9011 12.85 19.15V20.914L15.4938 18.7985C15.5739 18.7346 15.6724 18.7 15.775 18.7H21.4C21.6484 18.7 21.85 18.4979 21.85 18.25V11.05C21.85 10.802 21.6484 10.6 21.4 10.6H10.6Z" fill="#111315"/>
<path d="M19.6002 14.2H12.4002C12.1513 14.2 11.9502 13.9984 11.9502 13.75C11.9502 13.5016 12.1513 13.3 12.4002 13.3H19.6002C19.849 13.3 20.0502 13.5016 20.0502 13.75C20.0502 13.9984 19.849 14.2 19.6002 14.2Z" fill="#111315"/>
<path d="M16.0002 15.9999H12.4002C12.1513 15.9999 11.9502 15.7983 11.9502 15.5499C11.9502 15.3015 12.1513 15.0999 12.4002 15.0999H16.0002C16.249 15.0999 16.4502 15.3015 16.4502 15.5499C16.4502 15.7983 16.249 15.9999 16.0002 15.9999Z" fill="#111315"/>
</svg>
