<svg width="32" height="32" viewBox="0 0 32 32" fill="none" xmlns="http://www.w3.org/2000/svg">
<circle cx="16" cy="16" r="16" fill="#BBDCD2"/>
<g clip-path="url(#clip0_7024_55602)">
<path d="M21.5123 9.92505H20.8373V8.80005H19.7123V9.92505H12.2873V8.80005H11.1623V9.92505H10.4873C9.55682 9.92505 8.7998 10.6821 8.7998 11.6125V21.5125C8.7998 22.443 9.55682 23.2 10.4873 23.2H18.489L23.1998 18.3081V11.6125C23.1998 10.6821 22.4428 9.92505 21.5123 9.92505ZM18.8123 21.2425V19.2063C18.8123 18.8961 19.0646 18.6438 19.3748 18.6438H21.3147L18.8123 21.2425ZM22.0748 17.5188H19.3748C18.4443 17.5188 17.6873 18.2758 17.6873 19.2063V22.075H10.4873C10.1771 22.075 9.9248 21.8227 9.9248 21.5125V14.0875H22.0748V17.5188ZM22.0748 12.9625H9.9248V11.6125C9.9248 11.3024 10.1771 11.05 10.4873 11.05H11.1623V12.175H12.2873V11.05H19.7123V12.175H20.8373V11.05H21.5123C21.8225 11.05 22.0748 11.3024 22.0748 11.6125V12.9625Z" fill="#111315"/>
</g>
<defs>
<clipPath id="clip0_7024_55602">
<rect width="14.4" height="14.4" fill="white" transform="translate(8.7998 8.80005)"/>
</clipPath>
</defs>
</svg>
