<svg width="32" height="32" viewBox="0 0 32 32" fill="none" xmlns="http://www.w3.org/2000/svg">
<circle cx="16" cy="16" r="16" fill="#BBDCD2"/>
<g clip-path="url(#clip0_7024_55594)">
<path fill-rule="evenodd" clip-rule="evenodd" d="M11.6053 8.80005H10.5996V23.2H11.6053V17.661C12.1158 17.8982 12.8246 18.1478 13.551 18.1478C14.6601 18.1478 15.4736 17.6871 16.2388 17.2536L16.2448 17.2503C16.9561 16.8474 17.6046 16.4822 18.4482 16.4822C18.9692 16.4822 19.5075 16.6648 19.9215 16.8523C20.1275 16.9457 20.3007 17.0393 20.4229 17.1099C20.484 17.1452 20.5322 17.1748 20.5653 17.1956C20.5819 17.206 20.5947 17.2142 20.6034 17.2199L20.6134 17.2264L20.6163 17.2283L20.6169 17.2287L21.3996 17.7611V9.87049L21.3583 9.84265C20.5382 9.29042 19.5331 8.82938 18.5429 8.80139V8.80005H18.4482C17.3391 8.80005 16.5258 9.26068 15.7606 9.69408L15.7606 9.69408L15.7544 9.69757C15.0431 10.1004 14.3947 10.4656 13.551 10.4656C12.7862 10.4656 11.9886 10.0729 11.6053 9.85447V8.80005ZM16.2448 10.5879C16.9561 10.1851 17.6046 9.81985 18.4482 9.81985C19.213 9.81985 20.0109 10.2127 20.3939 10.431V15.9491C19.8834 15.712 19.1746 15.4624 18.4482 15.4624C17.3391 15.4624 16.5258 15.923 15.7606 16.3564L15.7544 16.3599C15.0431 16.7627 14.3947 17.128 13.551 17.128C12.7861 17.128 11.9883 16.7351 11.6053 16.5168V10.9986C12.1158 11.2358 12.8246 11.4854 13.551 11.4854C14.6601 11.4854 15.4736 11.0247 16.2388 10.5913L16.2448 10.5879Z" fill="#111315"/>
</g>
<defs>
<clipPath id="clip0_7024_55594">
<rect width="14.4" height="14.4" fill="white" transform="translate(8.7998 8.80005)"/>
</clipPath>
</defs>
</svg>
