<svg width="14" height="14" viewBox="0 0 14 14" fill="none" xmlns="http://www.w3.org/2000/svg">
<path d="M13.8048 3.72319C13.7313 3.11017 13.1536 2.52234 12.5491 2.44358C8.86323 1.9856 5.13601 1.9856 1.45132 2.44358C0.846362 2.52217 0.268648 3.11017 0.195161 3.72319C-0.0650535 5.9699 -0.0650535 8.14832 0.195161 10.3945C0.268648 11.0075 0.846362 11.5959 1.45132 11.6741C5.13601 12.1321 8.86337 12.1321 12.5491 11.6741C13.1536 11.5961 13.7313 11.0075 13.8048 10.3945C14.065 8.14852 14.065 5.9699 13.8048 3.72319ZM5.83322 9.39262L5.83322 4.72581L9.33328 7.0593L5.83322 9.39262Z" fill="#D2D2D3"/>
</svg>
