<svg width="18" height="18" viewBox="0 0 18 18" fill="none" xmlns="http://www.w3.org/2000/svg">
<path d="M10.1688 18H8.03802C7.94194 18 7.8498 17.9618 7.78187 17.8939C7.71393 17.826 7.67577 17.7338 7.67577 17.6378V15.564H4.22802C4.0956 15.5638 3.96867 15.5111 3.87503 15.4175C3.7814 15.3238 3.72871 15.1969 3.72852 15.0645V13.389C3.72859 13.277 3.76607 13.1683 3.83502 13.08L9.93927 5.2935H4.50177C4.36909 5.2935 4.24185 5.2408 4.14804 5.14698C4.05422 5.05317 4.00152 4.92592 4.00152 4.79325V2.9355C4.00152 2.66025 4.22577 2.436 4.50102 2.436H7.67352V0.36225C7.67352 0.16275 7.83627 0 8.03577 0H10.1665C10.366 0 10.5288 0.16275 10.5288 0.36225V2.436H13.771C14.0463 2.436 14.2705 2.66025 14.2705 2.9355V4.53825C14.2703 4.64964 14.2331 4.7578 14.1648 4.84575L8.02227 12.7065H13.771C14.0463 12.7065 14.2705 12.9307 14.2705 13.206V15.0637C14.2705 15.1963 14.2179 15.3234 14.1243 15.4172C14.0306 15.511 13.9036 15.5638 13.771 15.564H10.531V17.6378C10.531 17.7338 10.4929 17.826 10.4249 17.8939C10.357 17.9618 10.2648 18 10.1688 18Z" fill="white"/>
</svg>
