<svg width="608" height="608" viewBox="0 0 608 608" fill="none" xmlns="http://www.w3.org/2000/svg">
<rect x="0.5" y="0.5" width="607" height="607" rx="11.5" fill="#2C3334"/>
<rect x="64.3066" y="206.307" width="483.84" height="240.896" rx="7.05216" fill="#1C1F21"/>
<path d="M79.6509 234.413H85.4766V235.689H81.1349V238.019H85.2313V239.307H81.1349V241.895H85.7096L85.5379 243.17H79.6509V234.413ZM89.6788 240.19C89.2618 240.215 88.9225 240.26 88.6609 240.325C88.4074 240.39 88.2112 240.476 88.0722 240.583C87.9332 240.681 87.8391 240.799 87.7901 240.938C87.7492 241.069 87.7288 241.212 87.7288 241.368C87.7288 241.646 87.8146 241.862 87.9863 242.018C88.1662 242.173 88.4278 242.251 88.7712 242.251C89.3845 242.251 89.8383 242.095 90.1326 241.785C90.427 241.474 90.5741 241.053 90.5741 240.521V240.153L89.6788 240.19ZM90.5987 242.336C90.3616 242.623 90.0713 242.86 89.7279 243.048C89.3845 243.236 88.9675 243.33 88.4769 243.33C88.1744 243.33 87.8923 243.289 87.6306 243.207C87.369 243.134 87.14 243.019 86.9438 242.864C86.7558 242.708 86.6045 242.512 86.49 242.275C86.3837 242.03 86.3306 241.744 86.3306 241.417C86.3306 240.975 86.4287 240.619 86.6249 240.35C86.8212 240.072 87.0746 239.855 87.3853 239.7C87.7042 239.544 88.0599 239.438 88.4524 239.381C88.8448 239.315 89.2373 239.274 89.6298 239.258L90.5741 239.209V238.939C90.5741 238.457 90.4556 238.126 90.2185 237.946C89.9895 237.758 89.687 237.664 89.3109 237.664C88.8775 237.664 88.5546 237.737 88.342 237.884C88.1376 238.032 88.0027 238.244 87.9372 238.522L86.6617 238.387C86.7762 237.766 87.0583 237.312 87.508 237.026C87.9577 236.74 88.575 236.597 89.3599 236.597C89.8669 236.597 90.2839 236.662 90.6109 236.793C90.9462 236.924 91.2119 237.104 91.4081 237.332C91.6044 237.561 91.7393 237.835 91.8129 238.154C91.8946 238.465 91.9355 238.808 91.9355 239.184V243.17H90.5987V242.336ZM94.693 236.793V237.737C94.9137 237.402 95.1794 237.144 95.4902 236.965C95.8009 236.785 96.132 236.695 96.4836 236.695C96.6226 236.695 96.7371 236.699 96.827 236.707C96.9251 236.715 97.0191 236.727 97.1091 236.744L96.9496 238.019C96.8597 237.995 96.7616 237.978 96.6553 237.97C96.549 237.962 96.4386 237.958 96.3241 237.958C96.0625 237.958 95.8336 238.003 95.6373 238.093C95.4411 238.175 95.2735 238.285 95.1345 238.424C95.0037 238.563 94.9015 238.722 94.8279 238.902C94.7625 239.074 94.7297 239.25 94.7297 239.43V243.17H93.3438V236.793H94.693ZM99.3851 236.793V237.725C99.6713 237.332 99.9902 237.046 100.342 236.866C100.702 236.687 101.086 236.597 101.495 236.597C102.917 236.597 103.629 237.382 103.629 238.951V243.17H102.231V239.172C102.231 238.657 102.136 238.297 101.948 238.093C101.76 237.88 101.482 237.774 101.114 237.774C100.869 237.774 100.64 237.819 100.428 237.909C100.223 237.991 100.047 238.105 99.9002 238.252C99.7531 238.399 99.6345 238.571 99.5446 238.767C99.4628 238.955 99.4219 239.156 99.4219 239.368V243.17H98.036V236.793H99.3851ZM106.475 234.413V235.799H105.028V234.413H106.475ZM106.45 236.793V243.17H105.052V236.793H106.45ZM109.285 236.793V237.725C109.571 237.332 109.89 237.046 110.241 236.866C110.601 236.687 110.985 236.597 111.394 236.597C112.817 236.597 113.528 237.382 113.528 238.951V243.17H112.13V239.172C112.13 238.657 112.036 238.297 111.848 238.093C111.66 237.88 111.382 237.774 111.014 237.774C110.769 237.774 110.54 237.819 110.327 237.909C110.123 237.991 109.947 238.105 109.8 238.252C109.652 238.399 109.534 238.571 109.444 238.767C109.362 238.955 109.321 239.156 109.321 239.368V243.17H107.935V236.793H109.285ZM116.374 243.661C116.448 244.004 116.591 244.242 116.803 244.372C117.024 244.511 117.38 244.581 117.87 244.581C118.247 244.581 118.549 244.507 118.778 244.36C119.007 244.213 119.17 243.988 119.269 243.686C119.375 243.383 119.428 242.966 119.428 242.435V242.005C119.199 242.332 118.913 242.582 118.57 242.753C118.226 242.925 117.838 243.011 117.404 243.011C116.546 243.011 115.884 242.729 115.417 242.165C114.951 241.601 114.718 240.82 114.718 239.822C114.718 238.849 114.972 238.068 115.479 237.48C115.986 236.891 116.664 236.597 117.515 236.597C118.316 236.597 118.966 236.92 119.465 237.565V236.793H120.826V242.214C120.826 243.44 120.589 244.323 120.115 244.863C119.641 245.411 118.892 245.685 117.87 245.685C116.946 245.685 116.251 245.521 115.785 245.194C115.328 244.875 115.058 244.364 114.976 243.661H116.374ZM119.44 239.749C119.44 239.086 119.301 238.588 119.023 238.252C118.745 237.909 118.336 237.737 117.797 237.737C117.29 237.737 116.893 237.917 116.607 238.277C116.321 238.628 116.178 239.139 116.178 239.81C116.178 240.472 116.313 240.987 116.583 241.355C116.861 241.715 117.245 241.895 117.736 241.895C118.275 241.895 118.692 241.727 118.987 241.392C119.289 241.049 119.44 240.566 119.44 239.945V239.749ZM123.247 241.22C123.271 241.433 123.329 241.609 123.419 241.748C123.509 241.879 123.619 241.985 123.75 242.067C123.889 242.148 124.048 242.206 124.228 242.238C124.408 242.263 124.6 242.275 124.805 242.275C125.271 242.275 125.606 242.206 125.81 242.067C126.015 241.928 126.117 241.723 126.117 241.453C126.117 241.241 126.051 241.061 125.921 240.914C125.798 240.767 125.54 240.66 125.148 240.595C124.641 240.505 124.195 240.419 123.811 240.337C123.427 240.256 123.104 240.145 122.842 240.006C122.581 239.859 122.384 239.675 122.253 239.454C122.123 239.225 122.057 238.919 122.057 238.534C122.057 238.24 122.123 237.974 122.253 237.737C122.384 237.492 122.564 237.287 122.793 237.124C123.03 236.952 123.308 236.821 123.627 236.731C123.954 236.642 124.31 236.597 124.694 236.597C125.185 236.597 125.594 236.646 125.921 236.744C126.248 236.842 126.513 236.977 126.718 237.148C126.922 237.32 127.078 237.516 127.184 237.737C127.29 237.958 127.372 238.191 127.429 238.436L126.178 238.608C126.08 238.289 125.929 238.052 125.724 237.897C125.528 237.741 125.197 237.664 124.731 237.664C124.461 237.664 124.24 237.688 124.069 237.737C123.897 237.786 123.758 237.848 123.652 237.921C123.554 237.995 123.484 238.076 123.443 238.166C123.41 238.256 123.394 238.346 123.394 238.436C123.394 238.575 123.41 238.69 123.443 238.78C123.476 238.87 123.533 238.943 123.615 239C123.705 239.058 123.823 239.107 123.971 239.148C124.118 239.188 124.302 239.229 124.522 239.27L125.32 239.405C125.745 239.479 126.096 239.573 126.374 239.687C126.661 239.802 126.885 239.945 127.049 240.117C127.221 240.28 127.339 240.472 127.405 240.693C127.47 240.914 127.503 241.159 127.503 241.429C127.503 242.009 127.282 242.48 126.84 242.839C126.399 243.191 125.728 243.367 124.829 243.367C124.461 243.367 124.105 243.33 123.762 243.256C123.427 243.191 123.124 243.076 122.854 242.913C122.585 242.749 122.364 242.533 122.192 242.263C122.029 241.985 121.935 241.637 121.91 241.22H123.247Z" fill="white"/>
<path d="M458.178 235.012H458.968V240.438H462.145L462.024 241.142H458.178V235.012ZM465.744 240.533C465.584 240.727 465.381 240.896 465.135 241.039C464.889 241.177 464.582 241.245 464.216 241.245C463.993 241.245 463.787 241.217 463.598 241.16C463.415 241.108 463.255 241.028 463.117 240.919C462.986 240.805 462.883 240.664 462.808 240.498C462.734 240.332 462.697 240.138 462.697 239.915C462.697 239.611 462.76 239.365 462.885 239.176C463.017 238.987 463.189 238.839 463.401 238.73C463.618 238.621 463.861 238.544 464.13 238.498C464.399 238.452 464.677 238.424 464.963 238.412L465.727 238.386V238.215C465.727 237.837 465.647 237.565 465.487 237.399C465.326 237.233 465.066 237.15 464.705 237.15C464.351 237.15 464.09 237.21 463.924 237.33C463.758 237.445 463.65 237.605 463.598 237.811L462.92 237.734C463 237.328 463.192 237.033 463.495 236.85C463.798 236.661 464.21 236.566 464.731 236.566C465.052 236.566 465.321 236.606 465.538 236.687C465.761 236.761 465.942 236.87 466.079 237.013C466.217 237.156 466.314 237.333 466.371 237.545C466.434 237.757 466.465 237.994 466.465 238.258V241.142H465.744V240.533ZM465.727 238.919L465.015 238.945C464.711 238.956 464.459 238.985 464.259 239.03C464.059 239.076 463.898 239.139 463.778 239.219C463.664 239.294 463.581 239.388 463.529 239.503C463.484 239.617 463.461 239.749 463.461 239.897C463.461 240.121 463.526 240.301 463.658 240.438C463.795 240.57 464.019 240.636 464.328 240.636C464.768 240.636 465.112 240.527 465.358 240.31C465.604 240.092 465.727 239.794 465.727 239.417V238.919ZM468.08 239.846C468.132 240.155 468.261 240.373 468.467 240.498C468.678 240.619 468.965 240.679 469.325 240.679C469.703 240.679 469.969 240.616 470.124 240.49C470.284 240.358 470.364 240.187 470.364 239.975C470.364 239.889 470.352 239.809 470.33 239.734C470.312 239.654 470.275 239.586 470.218 239.528C470.161 239.465 470.081 239.411 469.978 239.365C469.875 239.319 469.74 239.282 469.574 239.254L469.007 239.168C468.756 239.128 468.535 239.076 468.346 239.013C468.158 238.95 467.997 238.87 467.866 238.773C467.734 238.67 467.634 238.547 467.565 238.404C467.502 238.255 467.471 238.077 467.471 237.871C467.471 237.665 467.514 237.482 467.599 237.322C467.691 237.162 467.814 237.027 467.969 236.918C468.129 236.804 468.315 236.718 468.527 236.661C468.744 236.598 468.979 236.566 469.231 236.566C469.551 236.566 469.817 236.598 470.029 236.661C470.247 236.724 470.424 236.81 470.561 236.918C470.699 237.027 470.805 237.156 470.879 237.305C470.953 237.454 471.011 237.611 471.051 237.777L470.372 237.889C470.332 237.768 470.287 237.662 470.235 237.571C470.184 237.479 470.115 237.405 470.029 237.348C469.943 237.285 469.837 237.239 469.711 237.21C469.591 237.176 469.44 237.159 469.256 237.159C469.05 237.159 468.879 237.179 468.741 237.219C468.604 237.253 468.492 237.302 468.406 237.365C468.326 237.428 468.269 237.499 468.235 237.579C468.2 237.654 468.183 237.734 468.183 237.82C468.183 237.911 468.195 237.994 468.218 238.069C468.24 238.137 468.283 238.2 468.346 238.258C468.409 238.309 468.495 238.355 468.604 238.395C468.713 238.435 468.853 238.469 469.025 238.498L469.669 238.601C470.189 238.687 470.561 238.836 470.785 239.048C471.014 239.259 471.128 239.568 471.128 239.975C471.128 240.164 471.091 240.338 471.016 240.498C470.942 240.653 470.83 240.79 470.682 240.911C470.533 241.025 470.347 241.114 470.124 241.177C469.9 241.245 469.64 241.28 469.342 241.28C469.073 241.28 468.821 241.254 468.587 241.202C468.358 241.151 468.155 241.071 467.977 240.962C467.8 240.848 467.657 240.699 467.548 240.516C467.439 240.332 467.376 240.109 467.359 239.846H468.08ZM472.342 237.296H471.656V236.704H472.342V235.493H473.089V236.704H474.266V237.296H473.089V239.897C473.089 240.115 473.138 240.29 473.235 240.421C473.333 240.553 473.481 240.619 473.682 240.619C473.808 240.619 473.916 240.61 474.008 240.593C474.105 240.576 474.194 240.553 474.274 240.524L474.403 241.099C474.288 241.139 474.163 241.171 474.025 241.194C473.894 241.222 473.736 241.237 473.553 241.237C473.301 241.237 473.098 241.2 472.943 241.125C472.789 241.051 472.666 240.945 472.574 240.808C472.483 240.67 472.42 240.507 472.385 240.318C472.357 240.129 472.342 239.923 472.342 239.7V237.296ZM480.235 236.515C480.189 236.378 480.138 236.257 480.081 236.154C480.029 236.051 479.96 235.965 479.875 235.897C479.794 235.828 479.697 235.779 479.583 235.751C479.468 235.716 479.325 235.699 479.153 235.699C478.936 235.699 478.738 235.742 478.561 235.828C478.389 235.908 478.238 236.043 478.106 236.232C477.98 236.42 477.877 236.669 477.797 236.978C477.723 237.282 477.677 237.66 477.66 238.112C477.843 237.837 478.063 237.64 478.321 237.519C478.578 237.393 478.879 237.33 479.222 237.33C479.543 237.33 479.815 237.382 480.038 237.485C480.267 237.582 480.453 237.72 480.596 237.897C480.745 238.069 480.853 238.275 480.922 238.515C480.991 238.75 481.025 239.005 481.025 239.279C481.025 239.583 480.976 239.857 480.879 240.104C480.788 240.35 480.653 240.561 480.476 240.739C480.298 240.916 480.084 241.054 479.832 241.151C479.58 241.248 479.299 241.297 478.99 241.297C478.573 241.297 478.229 241.217 477.96 241.056C477.697 240.891 477.488 240.679 477.333 240.421C477.179 240.158 477.07 239.866 477.007 239.545C476.95 239.219 476.921 238.893 476.921 238.567C476.921 237.874 476.984 237.302 477.11 236.85C477.236 236.398 477.402 236.04 477.608 235.777C477.814 235.508 478.052 235.319 478.321 235.21C478.59 235.101 478.87 235.047 479.162 235.047C479.706 235.047 480.112 235.164 480.381 235.399C480.65 235.628 480.83 235.96 480.922 236.395L480.235 236.515ZM478.99 240.67C479.385 240.67 479.7 240.55 479.935 240.31C480.169 240.069 480.287 239.734 480.287 239.305C480.287 239.116 480.264 238.939 480.218 238.773C480.178 238.607 480.109 238.464 480.012 238.344C479.92 238.218 479.797 238.12 479.643 238.052C479.488 237.983 479.299 237.949 479.076 237.949C478.904 237.949 478.736 237.974 478.57 238.026C478.404 238.077 478.258 238.16 478.132 238.275C478.012 238.389 477.914 238.535 477.84 238.713C477.771 238.89 477.743 239.105 477.754 239.357C477.76 239.528 477.791 239.694 477.848 239.855C477.906 240.009 477.986 240.146 478.089 240.267C478.192 240.387 478.318 240.484 478.467 240.559C478.615 240.633 478.79 240.67 478.99 240.67ZM484.068 235.012H485.047L487.021 240.198L489.03 235.012H489.975V241.142H489.245V236.309L487.322 241.142H486.678L484.789 236.326V241.142H484.068V235.012ZM493.217 241.28C492.88 241.28 492.579 241.225 492.316 241.117C492.053 241.008 491.829 240.853 491.646 240.653C491.463 240.453 491.323 240.207 491.226 239.915C491.128 239.623 491.08 239.297 491.08 238.936C491.08 238.575 491.131 238.249 491.234 237.957C491.337 237.665 491.483 237.416 491.672 237.21C491.861 237.004 492.087 236.847 492.35 236.738C492.619 236.624 492.917 236.566 493.243 236.566C493.575 236.566 493.873 236.621 494.136 236.73C494.399 236.838 494.623 236.996 494.806 237.202C494.995 237.402 495.138 237.645 495.235 237.931C495.332 238.218 495.381 238.541 495.381 238.902C495.381 239.268 495.329 239.597 495.226 239.889C495.129 240.181 494.986 240.43 494.797 240.636C494.614 240.842 494.388 241.002 494.119 241.117C493.85 241.225 493.549 241.28 493.217 241.28ZM493.226 240.662C493.466 240.662 493.672 240.619 493.844 240.533C494.016 240.447 494.156 240.327 494.265 240.172C494.379 240.018 494.462 239.835 494.514 239.623C494.565 239.405 494.591 239.168 494.591 238.91C494.591 238.658 494.565 238.427 494.514 238.215C494.462 238.003 494.379 237.823 494.265 237.674C494.156 237.519 494.016 237.399 493.844 237.313C493.672 237.227 493.466 237.185 493.226 237.185C492.986 237.185 492.78 237.227 492.608 237.313C492.442 237.399 492.302 237.519 492.187 237.674C492.078 237.823 491.998 238.003 491.947 238.215C491.895 238.427 491.87 238.661 491.87 238.919C491.87 239.176 491.895 239.411 491.947 239.623C491.998 239.835 492.078 240.018 492.187 240.172C492.296 240.327 492.436 240.447 492.608 240.533C492.78 240.619 492.986 240.662 493.226 240.662ZM496.382 236.704H497.12V237.382C497.338 237.09 497.578 236.881 497.841 236.755C498.105 236.629 498.382 236.566 498.674 236.566C499.178 236.566 499.55 236.704 499.79 236.978C500.036 237.253 500.159 237.657 500.159 238.189V241.142H499.412V238.335C499.412 237.923 499.338 237.634 499.189 237.468C499.04 237.296 498.811 237.21 498.502 237.21C498.336 237.21 498.17 237.239 498.004 237.296C497.844 237.353 497.698 237.445 497.567 237.571C497.423 237.697 497.315 237.831 497.24 237.974C497.166 238.112 497.129 238.292 497.129 238.515V241.142H496.382V236.704ZM501.536 237.296H500.849V236.704H501.536V235.493H502.283V236.704H503.459V237.296H502.283V239.897C502.283 240.115 502.331 240.29 502.429 240.421C502.526 240.553 502.675 240.619 502.875 240.619C503.001 240.619 503.11 240.61 503.201 240.593C503.298 240.576 503.387 240.553 503.467 240.524L503.596 241.099C503.482 241.139 503.356 241.171 503.218 241.194C503.087 241.222 502.929 241.237 502.746 241.237C502.494 241.237 502.291 241.2 502.137 241.125C501.982 241.051 501.859 240.945 501.767 240.808C501.676 240.67 501.613 240.507 501.579 240.318C501.55 240.129 501.536 239.923 501.536 239.7V237.296ZM504.254 235.012H505.001V237.365C505.219 237.084 505.456 236.881 505.714 236.755C505.977 236.629 506.255 236.566 506.547 236.566C507.05 236.566 507.422 236.704 507.663 236.978C507.909 237.253 508.032 237.657 508.032 238.189V241.142H507.276V238.335C507.276 237.923 507.202 237.634 507.053 237.468C506.91 237.296 506.684 237.21 506.375 237.21C506.209 237.21 506.043 237.239 505.877 237.296C505.717 237.353 505.571 237.445 505.439 237.571C505.296 237.697 505.187 237.831 505.113 237.974C505.039 238.112 505.001 238.292 505.001 238.515V241.142H504.254V235.012ZM509.631 239.846C509.683 240.155 509.812 240.373 510.018 240.498C510.23 240.619 510.516 240.679 510.876 240.679C511.254 240.679 511.52 240.616 511.675 240.49C511.835 240.358 511.915 240.187 511.915 239.975C511.915 239.889 511.904 239.809 511.881 239.734C511.864 239.654 511.826 239.586 511.769 239.528C511.712 239.465 511.632 239.411 511.529 239.365C511.426 239.319 511.291 239.282 511.125 239.254L510.559 239.168C510.307 239.128 510.086 239.076 509.898 239.013C509.709 238.95 509.548 238.87 509.417 238.773C509.285 238.67 509.185 238.547 509.116 238.404C509.053 238.255 509.022 238.077 509.022 237.871C509.022 237.665 509.065 237.482 509.151 237.322C509.242 237.162 509.365 237.027 509.52 236.918C509.68 236.804 509.866 236.718 510.078 236.661C510.295 236.598 510.53 236.566 510.782 236.566C511.102 236.566 511.369 236.598 511.58 236.661C511.798 236.724 511.975 236.81 512.113 236.918C512.25 237.027 512.356 237.156 512.43 237.305C512.505 237.454 512.562 237.611 512.602 237.777L511.924 237.889C511.884 237.768 511.838 237.662 511.786 237.571C511.735 237.479 511.666 237.405 511.58 237.348C511.494 237.285 511.389 237.239 511.263 237.21C511.142 237.176 510.991 237.159 510.808 237.159C510.602 237.159 510.43 237.179 510.293 237.219C510.155 237.253 510.044 237.302 509.958 237.365C509.878 237.428 509.82 237.499 509.786 237.579C509.752 237.654 509.734 237.734 509.734 237.82C509.734 237.911 509.746 237.994 509.769 238.069C509.792 238.137 509.835 238.2 509.898 238.258C509.961 238.309 510.046 238.355 510.155 238.395C510.264 238.435 510.404 238.469 510.576 238.498L511.22 238.601C511.741 238.687 512.113 238.836 512.336 239.048C512.565 239.259 512.679 239.568 512.679 239.975C512.679 240.164 512.642 240.338 512.568 240.498C512.493 240.653 512.382 240.79 512.233 240.911C512.084 241.025 511.898 241.114 511.675 241.177C511.452 241.245 511.191 241.28 510.893 241.28C510.624 241.28 510.373 241.254 510.138 241.202C509.909 241.151 509.706 241.071 509.528 240.962C509.351 240.848 509.208 240.699 509.099 240.516C508.99 240.332 508.927 240.109 508.91 239.846H509.631Z" fill="#D2D2D3"/>
<g clip-path="url(#clip0_7068_158309)">
<path d="M517.381 236.957L519.631 239.181L521.88 236.957L522.574 237.643L519.631 240.554L516.687 237.643L517.381 236.957Z" fill="#D2D2D3"/>
</g>
<rect x="447.994" y="225.93" width="85.4351" height="24.4249" rx="3.37277" stroke="#8A8F93" stroke-width="0.613232"/>
<path opacity="0.8" d="M79.2768 275.374C79.4943 275.18 79.7289 274.974 79.9808 274.756C80.2326 274.539 80.4873 274.315 80.7449 274.087C81.0196 273.846 81.26 273.629 81.466 273.434C81.6721 273.234 81.8438 273.042 81.9811 272.859C82.1185 272.676 82.2215 272.49 82.2902 272.301C82.3589 272.112 82.3932 271.909 82.3932 271.691C82.3932 271.331 82.2959 271.056 82.1013 270.867C81.9067 270.672 81.6349 270.575 81.2857 270.575C81.074 270.575 80.8937 270.598 80.7449 270.644C80.5961 270.69 80.4701 270.758 80.3671 270.85C80.2641 270.936 80.1782 271.044 80.1096 271.176C80.0466 271.308 79.9894 271.462 79.9379 271.64L79.2253 271.528C79.2768 271.322 79.3483 271.122 79.4399 270.927C79.5315 270.733 79.6574 270.561 79.8177 270.412C79.9779 270.257 80.1782 270.134 80.4186 270.043C80.659 269.946 80.9538 269.897 81.3029 269.897C81.6063 269.897 81.8753 269.94 82.1099 270.026C82.3446 270.112 82.5392 270.232 82.6937 270.386C82.854 270.535 82.9742 270.715 83.0543 270.927C83.1401 271.139 83.1831 271.374 83.1831 271.631C83.1831 271.889 83.1459 272.129 83.0715 272.352C83.0028 272.576 82.894 272.796 82.7452 273.013C82.5964 273.231 82.4075 273.454 82.1786 273.683C81.9497 273.912 81.6778 274.161 81.363 274.43C81.197 274.573 81.0253 274.719 80.8479 274.868C80.6762 275.011 80.5073 275.157 80.3414 275.306H83.2432L83.1316 275.992H79.2768V275.374ZM86.3235 276.147C85.6424 276.147 85.1101 275.898 84.7267 275.4C84.3489 274.896 84.16 274.107 84.16 273.031C84.16 272.493 84.2116 272.026 84.3146 271.631C84.4176 271.236 84.5636 270.91 84.7524 270.652C84.947 270.395 85.1788 270.206 85.4478 270.086C85.7168 269.96 86.0202 269.897 86.3579 269.897C86.6956 269.897 86.996 269.96 87.2593 270.086C87.5283 270.206 87.7544 270.395 87.9376 270.652C88.1264 270.91 88.2695 271.236 88.3668 271.631C88.4641 272.026 88.5128 272.493 88.5128 273.031C88.5128 273.569 88.4641 274.035 88.3668 274.43C88.2695 274.819 88.1264 275.142 87.9376 275.4C87.7487 275.652 87.5169 275.841 87.2422 275.967C86.9731 276.087 86.6669 276.147 86.3235 276.147ZM86.3407 275.477C86.5983 275.477 86.8129 275.423 86.9846 275.314C87.162 275.2 87.3022 275.039 87.4053 274.833C87.514 274.622 87.5913 274.364 87.6371 274.061C87.6886 273.757 87.7143 273.414 87.7143 273.031C87.7143 272.647 87.6886 272.304 87.6371 272C87.5913 271.697 87.514 271.439 87.4053 271.228C87.3022 271.016 87.162 270.856 86.9846 270.747C86.8129 270.632 86.5983 270.575 86.3407 270.575C86.0831 270.575 85.8657 270.632 85.6882 270.747C85.5108 270.856 85.3677 271.016 85.259 271.228C85.1559 271.439 85.0787 271.697 85.0272 272C84.9814 272.304 84.9585 272.647 84.9585 273.031C84.9585 273.414 84.9814 273.757 85.0272 274.061C85.0787 274.364 85.1559 274.622 85.259 274.833C85.3677 275.039 85.5108 275.2 85.6882 275.314C85.8657 275.423 86.0831 275.477 86.3407 275.477ZM89.4382 275.374C89.6557 275.18 89.8904 274.974 90.1422 274.756C90.3941 274.539 90.6487 274.315 90.9063 274.087C91.181 273.846 91.4214 273.629 91.6275 273.434C91.8335 273.234 92.0052 273.042 92.1426 272.859C92.2799 272.676 92.383 272.49 92.4516 272.301C92.5203 272.112 92.5547 271.909 92.5547 271.691C92.5547 271.331 92.4574 271.056 92.2628 270.867C92.0682 270.672 91.7963 270.575 91.4472 270.575C91.2354 270.575 91.0551 270.598 90.9063 270.644C90.7575 270.69 90.6316 270.758 90.5286 270.85C90.4255 270.936 90.3397 271.044 90.271 271.176C90.208 271.308 90.1508 271.462 90.0993 271.64L89.3867 271.528C89.4382 271.322 89.5098 271.122 89.6013 270.927C89.6929 270.733 89.8188 270.561 89.9791 270.412C90.1394 270.257 90.3397 270.134 90.5801 270.043C90.8205 269.946 91.1152 269.897 91.4643 269.897C91.7677 269.897 92.0367 269.94 92.2714 270.026C92.506 270.112 92.7006 270.232 92.8552 270.386C93.0154 270.535 93.1356 270.715 93.2157 270.927C93.3016 271.139 93.3445 271.374 93.3445 271.631C93.3445 271.889 93.3073 272.129 93.2329 272.352C93.1642 272.576 93.0555 272.796 92.9067 273.013C92.7579 273.231 92.569 273.454 92.34 273.683C92.1111 273.912 91.8392 274.161 91.5244 274.43C91.3585 274.573 91.1868 274.719 91.0093 274.868C90.8376 275.011 90.6688 275.157 90.5028 275.306H93.4046L93.293 275.992H89.4382V275.374ZM94.5189 275.374C94.7364 275.18 94.9711 274.974 95.2229 274.756C95.4748 274.539 95.7295 274.315 95.987 274.087C96.2618 273.846 96.5021 273.629 96.7082 273.434C96.9142 273.234 97.0859 273.042 97.2233 272.859C97.3607 272.676 97.4637 272.49 97.5324 272.301C97.601 272.112 97.6354 271.909 97.6354 271.691C97.6354 271.331 97.5381 271.056 97.3435 270.867C97.1489 270.672 96.877 270.575 96.5279 270.575C96.3161 270.575 96.1358 270.598 95.987 270.644C95.8382 270.69 95.7123 270.758 95.6093 270.85C95.5063 270.936 95.4204 271.044 95.3517 271.176C95.2888 271.308 95.2315 271.462 95.18 271.64L94.4674 271.528C94.5189 271.322 94.5905 271.122 94.6821 270.927C94.7736 270.733 94.8996 270.561 95.0598 270.412C95.2201 270.257 95.4204 270.134 95.6608 270.043C95.9012 269.946 96.1959 269.897 96.5451 269.897C96.8484 269.897 97.1174 269.94 97.3521 270.026C97.5867 270.112 97.7813 270.232 97.9359 270.386C98.0961 270.535 98.2163 270.715 98.2965 270.927C98.3823 271.139 98.4252 271.374 98.4252 271.631C98.4252 271.889 98.388 272.129 98.3136 272.352C98.2449 272.576 98.1362 272.796 97.9874 273.013C97.8386 273.231 97.6497 273.454 97.4208 273.683C97.1918 273.912 96.92 274.161 96.6052 274.43C96.4392 274.573 96.2675 274.719 96.09 274.868C95.9183 275.011 95.7495 275.157 95.5835 275.306H98.4853L98.3737 275.992H94.5189V275.374ZM101.631 269.863H105.598V270.558H102.421V272.481H105.426V273.185H102.421V275.297H105.761L105.632 275.992H101.631V269.863ZM109.39 275.383C109.23 275.577 109.027 275.746 108.781 275.889C108.535 276.027 108.228 276.095 107.862 276.095C107.639 276.095 107.433 276.067 107.244 276.01C107.061 275.958 106.901 275.878 106.763 275.769C106.632 275.655 106.529 275.515 106.454 275.349C106.38 275.183 106.343 274.988 106.343 274.765C106.343 274.461 106.406 274.215 106.531 274.026C106.663 273.838 106.835 273.689 107.047 273.58C107.264 273.471 107.507 273.394 107.776 273.348C108.045 273.302 108.323 273.274 108.609 273.262L109.373 273.237V273.065C109.373 272.687 109.293 272.415 109.133 272.249C108.973 272.083 108.712 272 108.352 272C107.997 272 107.736 272.06 107.57 272.181C107.404 272.295 107.296 272.455 107.244 272.661L106.566 272.584C106.646 272.178 106.838 271.883 107.141 271.7C107.444 271.511 107.856 271.416 108.377 271.416C108.698 271.416 108.967 271.457 109.184 271.537C109.408 271.611 109.588 271.72 109.725 271.863C109.863 272.006 109.96 272.183 110.017 272.395C110.08 272.607 110.111 272.845 110.111 273.108V275.992H109.39V275.383ZM109.373 273.769L108.661 273.795C108.357 273.806 108.105 273.835 107.905 273.88C107.705 273.926 107.545 273.989 107.424 274.069C107.31 274.144 107.227 274.238 107.175 274.353C107.13 274.467 107.107 274.599 107.107 274.748C107.107 274.971 107.172 275.151 107.304 275.288C107.441 275.42 107.665 275.486 107.974 275.486C108.414 275.486 108.758 275.377 109.004 275.16C109.25 274.942 109.373 274.645 109.373 274.267V273.769ZM111.245 271.554H111.984V272.241C112.15 271.995 112.344 271.806 112.568 271.674C112.791 271.542 113.028 271.477 113.28 271.477C113.435 271.477 113.566 271.488 113.675 271.511L113.581 272.206C113.523 272.195 113.466 272.186 113.409 272.181C113.352 272.169 113.289 272.163 113.22 272.163C113.083 272.163 112.942 272.189 112.799 272.241C112.656 272.286 112.522 272.367 112.396 272.481C112.27 272.59 112.17 272.716 112.095 272.859C112.027 273.002 111.992 273.168 111.992 273.357V275.992H111.245V271.554ZM114.389 271.554H115.128V272.232C115.345 271.94 115.586 271.731 115.849 271.605C116.112 271.479 116.39 271.416 116.682 271.416C117.185 271.416 117.557 271.554 117.798 271.829C118.044 272.103 118.167 272.507 118.167 273.039V275.992H117.42V273.185C117.42 272.773 117.346 272.484 117.197 272.318C117.048 272.146 116.819 272.06 116.51 272.06C116.344 272.06 116.178 272.089 116.012 272.146C115.852 272.203 115.706 272.295 115.574 272.421C115.431 272.547 115.322 272.681 115.248 272.824C115.174 272.962 115.136 273.142 115.136 273.365V275.992H114.389V271.554ZM119.303 271.554H120.05V275.992H119.303V271.554ZM119.277 269.863H120.076V270.73H119.277V269.863ZM121.214 271.554H121.952V272.232C122.17 271.94 122.41 271.731 122.674 271.605C122.937 271.479 123.214 271.416 123.506 271.416C124.01 271.416 124.382 271.554 124.622 271.829C124.869 272.103 124.992 272.507 124.992 273.039V275.992H124.245V273.185C124.245 272.773 124.17 272.484 124.021 272.318C123.873 272.146 123.644 272.06 123.335 272.06C123.169 272.06 123.003 272.089 122.837 272.146C122.676 272.203 122.53 272.295 122.399 272.421C122.256 272.547 122.147 272.681 122.073 272.824C121.998 272.962 121.961 273.142 121.961 273.365V275.992H121.214V271.554ZM126.866 276.405C126.929 276.674 127.049 276.865 127.226 276.98C127.41 277.094 127.693 277.151 128.076 277.151C128.546 277.151 128.869 277.02 129.047 276.757C129.23 276.499 129.321 276.121 129.321 275.623V275.151C129.15 275.391 128.941 275.577 128.695 275.709C128.454 275.841 128.171 275.907 127.845 275.907C127.524 275.907 127.244 275.849 127.003 275.735C126.769 275.615 126.574 275.454 126.419 275.254C126.265 275.048 126.148 274.811 126.067 274.542C125.993 274.273 125.956 273.983 125.956 273.674C125.956 273.337 126.002 273.031 126.093 272.756C126.185 272.475 126.316 272.238 126.488 272.043C126.66 271.843 126.866 271.688 127.106 271.58C127.352 271.471 127.627 271.416 127.93 271.416C128.177 271.416 128.42 271.468 128.66 271.571C128.906 271.668 129.129 271.851 129.33 272.12V271.554H130.068V275.271C130.068 275.655 130.04 275.998 129.982 276.302C129.931 276.611 129.831 276.871 129.682 277.083C129.539 277.3 129.338 277.466 129.081 277.581C128.823 277.695 128.491 277.752 128.085 277.752C127.501 277.752 127.043 277.647 126.711 277.435C126.379 277.229 126.185 276.885 126.128 276.405H126.866ZM129.338 273.606C129.338 273.314 129.304 273.071 129.235 272.876C129.167 272.676 129.072 272.513 128.952 272.387C128.832 272.261 128.692 272.172 128.531 272.12C128.377 272.063 128.214 272.035 128.042 272.035C127.859 272.035 127.687 272.066 127.527 272.129C127.372 272.186 127.235 272.281 127.115 272.412C127 272.544 126.909 272.713 126.84 272.919C126.777 273.125 126.746 273.374 126.746 273.666C126.746 273.963 126.78 274.215 126.849 274.421C126.923 274.627 127.018 274.793 127.132 274.919C127.246 275.045 127.378 275.137 127.527 275.194C127.681 275.251 127.836 275.28 127.991 275.28C128.185 275.28 128.363 275.248 128.523 275.185C128.689 275.122 128.832 275.028 128.952 274.902C129.072 274.776 129.167 274.619 129.235 274.43C129.304 274.235 129.338 274.009 129.338 273.752V273.606ZM131.697 274.696C131.749 275.005 131.877 275.223 132.083 275.349C132.295 275.469 132.581 275.529 132.942 275.529C133.32 275.529 133.586 275.466 133.74 275.34C133.901 275.208 133.981 275.037 133.981 274.825C133.981 274.739 133.969 274.659 133.946 274.584C133.929 274.504 133.892 274.436 133.835 274.378C133.777 274.315 133.697 274.261 133.594 274.215C133.491 274.169 133.357 274.132 133.191 274.104L132.624 274.018C132.372 273.978 132.152 273.926 131.963 273.863C131.774 273.8 131.614 273.72 131.482 273.623C131.351 273.52 131.251 273.397 131.182 273.254C131.119 273.105 131.087 272.928 131.087 272.721C131.087 272.515 131.13 272.332 131.216 272.172C131.308 272.012 131.431 271.877 131.585 271.768C131.746 271.654 131.932 271.568 132.143 271.511C132.361 271.448 132.596 271.416 132.847 271.416C133.168 271.416 133.434 271.448 133.646 271.511C133.863 271.574 134.041 271.66 134.178 271.768C134.315 271.877 134.421 272.006 134.496 272.155C134.57 272.304 134.627 272.461 134.667 272.627L133.989 272.739C133.949 272.618 133.903 272.513 133.852 272.421C133.8 272.329 133.732 272.255 133.646 272.198C133.56 272.135 133.454 272.089 133.328 272.06C133.208 272.026 133.056 272.009 132.873 272.009C132.667 272.009 132.495 272.029 132.358 272.069C132.221 272.103 132.109 272.152 132.023 272.215C131.943 272.278 131.886 272.349 131.852 272.43C131.817 272.504 131.8 272.584 131.8 272.67C131.8 272.762 131.811 272.845 131.834 272.919C131.857 272.988 131.9 273.051 131.963 273.108C132.026 273.159 132.112 273.205 132.221 273.245C132.329 273.285 132.47 273.32 132.641 273.348L133.285 273.451C133.806 273.537 134.178 273.686 134.401 273.898C134.63 274.109 134.745 274.418 134.745 274.825C134.745 275.014 134.708 275.188 134.633 275.349C134.559 275.503 134.447 275.64 134.298 275.761C134.15 275.875 133.964 275.964 133.74 276.027C133.517 276.095 133.257 276.13 132.959 276.13C132.69 276.13 132.438 276.104 132.204 276.053C131.975 276.001 131.771 275.921 131.594 275.812C131.417 275.698 131.273 275.549 131.165 275.366C131.056 275.183 130.993 274.959 130.976 274.696H131.697Z" fill="white"/>
<path d="M82.5895 286.373C82.0498 286.432 81.6574 286.594 81.4121 286.859C81.1766 287.114 81.0588 287.389 81.0588 287.683V287.919C81.0785 288.331 81.1962 288.655 81.4121 288.89C81.6377 289.116 82.0302 289.283 82.5895 289.391V286.373ZM83.4725 294.35C84.0318 294.301 84.4292 294.135 84.6646 293.85C84.9099 293.565 85.0326 293.198 85.0326 292.746C85.0326 292.589 85.0081 292.432 84.959 292.275C84.9197 292.108 84.8413 291.956 84.7235 291.819C84.6058 291.672 84.4439 291.544 84.2378 291.436C84.0416 291.328 83.7865 291.245 83.4725 291.186V294.35ZM82.5895 295.704C82.0106 295.665 81.5151 295.557 81.103 295.381C80.6909 295.204 80.3475 294.978 80.0728 294.704C79.798 294.419 79.592 294.09 79.4546 293.718C79.3173 293.335 79.2388 292.913 79.2191 292.452H80.8675C80.9166 293.06 81.0785 293.511 81.3532 293.806C81.6377 294.09 82.0498 294.267 82.5895 294.336V291.024C82.0793 290.936 81.6279 290.823 81.2355 290.686C80.8528 290.539 80.529 290.347 80.2641 290.112C79.9992 289.876 79.7931 289.592 79.646 289.258C79.4988 288.925 79.4203 288.527 79.4105 288.066C79.4105 287.978 79.4105 287.889 79.4105 287.801C79.4203 287.713 79.4301 287.624 79.4399 287.536C79.5184 286.859 79.8226 286.295 80.3524 285.844C80.892 285.392 81.6377 285.132 82.5895 285.064V283.783H83.4725V285.064C84.0612 285.113 84.5469 285.23 84.9296 285.417C85.322 285.603 85.636 285.829 85.8715 286.094C86.107 286.359 86.2787 286.653 86.3866 286.977C86.5043 287.291 86.5877 287.6 86.6368 287.904L85.0473 288.14C84.9296 287.61 84.7579 287.203 84.5322 286.918C84.3163 286.624 83.9631 286.447 83.4725 286.388V289.567L83.8257 289.626C84.8069 289.812 85.5379 290.146 86.0187 290.627C86.4994 291.098 86.7398 291.79 86.7398 292.702C86.7398 293.085 86.6711 293.453 86.5338 293.806C86.4062 294.149 86.21 294.458 85.9451 294.733C85.6802 295.008 85.3417 295.233 84.9296 295.41C84.5175 295.587 84.0318 295.69 83.4725 295.719V297.191H82.5895V295.704ZM89.7539 292.467C89.8226 293.134 90.0041 293.61 90.2985 293.894C90.6026 294.169 91.0834 294.306 91.7408 294.306C92.3197 294.306 92.7759 294.169 93.1095 293.894C93.4431 293.619 93.6099 293.183 93.6099 292.584C93.6099 292.005 93.4529 291.588 93.139 291.333C92.8348 291.078 92.3835 290.951 91.785 290.951H90.6811V289.464H91.8585C92.7023 289.464 93.1831 289.091 93.3009 288.346C93.3695 288.14 93.3892 287.894 93.3597 287.61C93.3009 287.217 93.1292 286.933 92.8446 286.756C92.5601 286.57 92.1921 286.476 91.7408 286.476C91.1521 286.476 90.7057 286.604 90.4015 286.859C90.1071 287.104 89.8864 287.507 89.7392 288.066L88.1497 287.845C88.2282 287.463 88.3459 287.104 88.5029 286.771C88.6697 286.427 88.8954 286.128 89.1799 285.873C89.4645 285.608 89.8128 285.402 90.2249 285.255C90.6468 285.108 91.157 285.034 91.7555 285.034C92.3246 285.034 92.8201 285.108 93.242 285.255C93.6639 285.402 94.0122 285.598 94.2869 285.844C94.5617 286.089 94.7628 286.373 94.8904 286.697C95.0277 287.021 95.0964 287.364 95.0964 287.727C95.0964 288.807 94.6254 289.592 93.6835 290.082C94.2722 290.328 94.6941 290.666 94.9492 291.098C95.2043 291.52 95.3319 291.996 95.3319 292.525C95.3319 293.526 95.0326 294.316 94.4341 294.895C93.8454 295.464 92.9575 295.749 91.7702 295.749C91.0638 295.749 90.4751 295.65 90.0041 295.454C89.5332 295.258 89.1554 295.003 88.8709 294.689C88.5961 294.375 88.395 294.022 88.2675 293.629C88.1497 293.237 88.081 292.849 88.0614 292.467H89.7539ZM98.449 295.484C99.3713 292.393 100.539 289.494 101.952 286.786H96.7859V285.314H103.836V286.653C103.061 288.076 102.384 289.508 101.805 290.951C101.236 292.383 100.74 293.894 100.318 295.484H98.449ZM107.527 293.423L106.673 296.882H105.378L105.849 293.423H107.527ZM113.45 287.507L110.462 291.731H113.45V287.507ZM113.479 285.314H115.054V291.731H116.393L116.187 293.085H115.054V295.484H113.45V293.085H108.725V291.893L113.479 285.314ZM121.306 294.277C121.689 294.277 122.007 294.188 122.263 294.012C122.528 293.825 122.738 293.565 122.895 293.232C123.062 292.898 123.18 292.491 123.249 292.01C123.327 291.53 123.366 290.99 123.366 290.391C123.366 289.803 123.327 289.268 123.249 288.787C123.18 288.306 123.062 287.899 122.895 287.566C122.738 287.222 122.528 286.962 122.263 286.786C122.007 286.599 121.689 286.506 121.306 286.506C120.923 286.506 120.6 286.599 120.335 286.786C120.079 286.972 119.873 287.237 119.716 287.58C119.559 287.914 119.447 288.321 119.378 288.802C119.309 289.273 119.275 289.803 119.275 290.391C119.275 291.647 119.427 292.609 119.731 293.276C120.045 293.943 120.57 294.277 121.306 294.277ZM121.291 295.749C120.703 295.749 120.173 295.646 119.702 295.439C119.241 295.233 118.848 294.915 118.524 294.483C118.201 294.041 117.95 293.482 117.774 292.805C117.607 292.128 117.524 291.323 117.524 290.391C117.524 288.596 117.852 287.257 118.51 286.373C119.177 285.481 120.124 285.034 121.35 285.034C122.537 285.034 123.46 285.471 124.117 286.344C124.784 287.207 125.118 288.557 125.118 290.391C125.118 291.323 125.03 292.128 124.853 292.805C124.686 293.472 124.436 294.027 124.102 294.468C123.779 294.9 123.376 295.224 122.895 295.439C122.424 295.646 121.89 295.749 121.291 295.749ZM130.016 294.277C130.398 294.277 130.717 294.188 130.972 294.012C131.237 293.825 131.448 293.565 131.605 293.232C131.772 292.898 131.89 292.491 131.958 292.01C132.037 291.53 132.076 290.99 132.076 290.391C132.076 289.803 132.037 289.268 131.958 288.787C131.89 288.306 131.772 287.899 131.605 287.566C131.448 287.222 131.237 286.962 130.972 286.786C130.717 286.599 130.398 286.506 130.016 286.506C129.633 286.506 129.309 286.599 129.044 286.786C128.789 286.972 128.583 287.237 128.426 287.58C128.269 287.914 128.156 288.321 128.088 288.802C128.019 289.273 127.985 289.803 127.985 290.391C127.985 291.647 128.137 292.609 128.441 293.276C128.755 293.943 129.28 294.277 130.016 294.277ZM130.001 295.749C129.412 295.749 128.883 295.646 128.412 295.439C127.95 295.233 127.558 294.915 127.234 294.483C126.91 294.041 126.66 293.482 126.484 292.805C126.317 292.128 126.233 291.323 126.233 290.391C126.233 288.596 126.562 287.257 127.219 286.373C127.887 285.481 128.833 285.034 130.06 285.034C131.247 285.034 132.169 285.471 132.827 286.344C133.494 287.207 133.828 288.557 133.828 290.391C133.828 291.323 133.739 292.128 133.563 292.805C133.396 293.472 133.146 294.027 132.812 294.468C132.488 294.9 132.086 295.224 131.605 295.439C131.134 295.646 130.6 295.749 130.001 295.749Z" fill="#BBDCD2"/>
<g clip-path="url(#clip1_7068_158309)">
<line x1="78.7148" y1="403.308" x2="533.733" y2="403.308" stroke="#3B3D40" stroke-width="0.613232" stroke-dasharray="5.52 8.59"/>
<line x1="78.7148" y1="378.948" x2="533.733" y2="378.948" stroke="#3B3D40" stroke-width="0.613232" stroke-dasharray="5.52 8.59"/>
<line x1="78.7148" y1="354.587" x2="533.733" y2="354.587" stroke="#3B3D40" stroke-width="0.613232" stroke-dasharray="5.52 8.59"/>
<line x1="78.7148" y1="330.227" x2="533.733" y2="330.227" stroke="#3B3D40" stroke-width="0.613232" stroke-dasharray="5.52 8.59"/>
<rect x="78.8236" y="427.471" width="454.8" height="0.217505" fill="#3B3D40" stroke="#3B3D40" stroke-width="0.217505"/>
<g clip-path="url(#clip2_7068_158309)">
<path d="M101.311 318.053H104.571V318.65H101.989V320.371H104.41V320.982H101.989V323.308H101.311V318.053ZM105.465 318.053H108.865V318.65H106.142V320.298H108.718V320.901H106.142V322.712H109.005L108.894 323.308H105.465V318.053ZM109.834 318.053H111.578C111.951 318.053 112.258 318.09 112.498 318.164C112.739 318.233 112.928 318.328 113.065 318.451C113.207 318.569 113.305 318.711 113.359 318.878C113.413 319.04 113.44 319.214 113.44 319.4C113.44 319.64 113.384 319.856 113.271 320.048C113.163 320.239 112.972 320.398 112.697 320.526C112.874 320.595 113.018 320.676 113.131 320.769C113.249 320.857 113.342 320.958 113.411 321.071C113.484 321.178 113.533 321.294 113.558 321.416C113.587 321.534 113.602 321.657 113.602 321.784C113.602 322 113.568 322.201 113.499 322.388C113.435 322.569 113.33 322.729 113.183 322.866C113.036 323.003 112.842 323.111 112.601 323.19C112.361 323.268 112.064 323.308 111.711 323.308H109.834V318.053ZM111.667 320.276C112.064 320.276 112.349 320.205 112.52 320.062C112.692 319.915 112.778 319.702 112.778 319.422C112.778 319.138 112.685 318.932 112.498 318.804C112.317 318.676 112.003 318.613 111.556 318.613H110.497V320.276H111.667ZM111.689 322.748C111.929 322.748 112.128 322.726 112.285 322.682C112.447 322.638 112.574 322.577 112.668 322.498C112.766 322.415 112.832 322.317 112.866 322.204C112.906 322.086 112.925 321.954 112.925 321.806C112.925 321.497 112.834 321.262 112.653 321.1C112.471 320.933 112.167 320.85 111.74 320.85H110.497V322.748H111.689Z" fill="#8A8F93"/>
</g>
<g clip-path="url(#clip3_7068_158309)">
<path d="M170.802 318.053H171.641L173.334 322.498L175.056 318.053H175.865V323.308H175.24V319.165L173.591 323.308H173.039L171.42 319.179V323.308H170.802V318.053ZM178.571 318.053H179.285L181.323 323.308H180.587L180.035 321.843H177.784L177.232 323.308H176.525L178.571 318.053ZM179.829 321.255L178.902 318.819L177.99 321.255H179.829ZM181.984 318.053H183.706C184.099 318.053 184.42 318.098 184.67 318.186C184.92 318.274 185.117 318.389 185.259 318.532C185.406 318.669 185.507 318.826 185.561 319.003C185.615 319.179 185.642 319.358 185.642 319.54C185.642 319.874 185.57 320.158 185.428 320.394C185.291 320.629 185.063 320.813 184.744 320.945L185.848 323.308H185.09L184.096 321.107C184.032 321.117 183.964 321.125 183.89 321.129C183.817 321.129 183.75 321.129 183.691 321.129H182.654V323.308H181.984V318.053ZM183.772 320.548C184.008 320.548 184.202 320.526 184.354 320.482C184.506 320.433 184.626 320.367 184.714 320.283C184.803 320.195 184.864 320.089 184.898 319.967C184.933 319.844 184.95 319.707 184.95 319.555C184.95 319.407 184.93 319.277 184.891 319.165C184.852 319.052 184.783 318.956 184.685 318.878C184.592 318.794 184.464 318.733 184.302 318.694C184.14 318.65 183.934 318.627 183.684 318.627H182.654V320.548H183.772Z" fill="#8A8F93"/>
</g>
<g clip-path="url(#clip4_7068_158309)">
<path d="M252.09 318.053H252.804L254.842 323.308H254.106L253.554 321.843H251.302L250.75 323.308H250.044L252.09 318.053ZM253.348 321.255L252.421 318.819L251.508 321.255H253.348ZM255.503 318.053H257.262C257.649 318.053 257.968 318.095 258.218 318.179C258.473 318.262 258.672 318.375 258.814 318.517C258.962 318.659 259.062 318.826 259.116 319.017C259.175 319.204 259.204 319.403 259.204 319.614C259.204 319.834 259.175 320.045 259.116 320.246C259.057 320.448 258.954 320.624 258.807 320.776C258.66 320.928 258.461 321.048 258.211 321.137C257.961 321.225 257.644 321.269 257.262 321.269H256.173V323.308H255.503V318.053ZM257.254 320.695C257.509 320.695 257.72 320.671 257.887 320.622C258.054 320.573 258.184 320.501 258.277 320.408C258.37 320.315 258.434 320.205 258.469 320.077C258.508 319.945 258.527 319.797 258.527 319.636C258.527 319.469 258.508 319.322 258.469 319.194C258.429 319.067 258.361 318.961 258.262 318.878C258.164 318.794 258.032 318.733 257.865 318.694C257.703 318.65 257.497 318.627 257.247 318.627H256.173V320.695H257.254ZM260.109 318.053H261.831C262.224 318.053 262.545 318.098 262.795 318.186C263.046 318.274 263.242 318.389 263.384 318.532C263.531 318.669 263.632 318.826 263.686 319.003C263.74 319.179 263.767 319.358 263.767 319.54C263.767 319.874 263.696 320.158 263.553 320.394C263.416 320.629 263.188 320.813 262.869 320.945L263.973 323.308H263.215L262.221 321.107C262.158 321.117 262.089 321.125 262.015 321.129C261.942 321.129 261.875 321.129 261.817 321.129H260.779V323.308H260.109V318.053ZM261.898 320.548C262.133 320.548 262.327 320.526 262.479 320.482C262.631 320.433 262.751 320.367 262.839 320.283C262.928 320.195 262.989 320.089 263.023 319.967C263.058 319.844 263.075 319.707 263.075 319.555C263.075 319.407 263.055 319.277 263.016 319.165C262.977 319.052 262.908 318.956 262.81 318.878C262.717 318.794 262.589 318.733 262.427 318.694C262.265 318.65 262.059 318.627 261.809 318.627H260.779V320.548H261.898Z" fill="#8A8F93"/>
</g>
<g clip-path="url(#clip5_7068_158309)">
<path d="M328.634 318.053H329.473L331.165 322.498L332.887 318.053H333.697V323.308H333.071V319.165L331.423 323.308H330.871L329.252 319.179V323.308H328.634V318.053ZM336.402 318.053H337.116L339.155 323.308H338.419L337.867 321.843H335.615L335.063 323.308H334.357L336.402 318.053ZM337.661 321.255L336.734 318.819L335.821 321.255H337.661ZM340.386 321.078L338.554 318.053H339.334L340.725 320.482L342.152 318.053H342.866L341.07 321.078V323.308H340.386V321.078Z" fill="#8A8F93"/>
</g>
<g clip-path="url(#clip6_7068_158309)">
<path d="M407.513 321.733C407.533 321.895 407.567 322.044 407.616 322.182C407.665 322.319 407.734 322.437 407.822 322.535C407.915 322.633 408.031 322.712 408.168 322.77C408.31 322.824 408.484 322.851 408.69 322.851C409.103 322.851 409.392 322.736 409.559 322.506C409.73 322.275 409.816 321.949 409.816 321.527V318.053H410.493V321.578C410.493 322.201 410.334 322.667 410.015 322.976C409.696 323.286 409.26 323.44 408.705 323.44C408.156 323.44 407.719 323.303 407.395 323.028C407.071 322.753 406.883 322.322 406.829 321.733H407.513ZM411.615 318.053H412.292V321.225C412.292 321.77 412.393 322.177 412.594 322.447C412.8 322.716 413.138 322.851 413.609 322.851C414.085 322.851 414.421 322.716 414.618 322.447C414.814 322.172 414.912 321.765 414.912 321.225V318.053H415.589V321.225C415.589 321.618 415.542 321.954 415.449 322.233C415.361 322.508 415.231 322.736 415.059 322.918C414.892 323.099 414.684 323.232 414.434 323.315C414.188 323.398 413.911 323.44 413.602 323.44C412.969 323.44 412.479 323.263 412.13 322.91C411.787 322.557 411.615 321.985 411.615 321.196V318.053ZM416.69 318.053H417.36L420.031 322.226V318.053H420.686V323.308H420.038L417.345 319.157V323.308H416.69V318.053Z" fill="#8A8F93"/>
</g>
<g clip-path="url(#clip7_7068_158309)">
<path d="M486.4 321.733C486.419 321.895 486.454 322.044 486.503 322.182C486.552 322.319 486.621 322.437 486.709 322.535C486.802 322.633 486.917 322.712 487.055 322.77C487.197 322.824 487.371 322.851 487.577 322.851C487.989 322.851 488.279 322.736 488.445 322.506C488.617 322.275 488.703 321.949 488.703 321.527V318.053H489.38V321.578C489.38 322.201 489.221 322.667 488.902 322.976C488.583 323.286 488.146 323.44 487.592 323.44C487.042 323.44 486.606 323.303 486.282 323.028C485.958 322.753 485.769 322.322 485.715 321.733H486.4ZM490.502 318.053H491.179V321.225C491.179 321.77 491.279 322.177 491.481 322.447C491.687 322.716 492.025 322.851 492.496 322.851C492.972 322.851 493.308 322.716 493.504 322.447C493.7 322.172 493.799 321.765 493.799 321.225V318.053H494.476V321.225C494.476 321.618 494.429 321.954 494.336 322.233C494.247 322.508 494.117 322.736 493.946 322.918C493.779 323.099 493.57 323.232 493.32 323.315C493.075 323.398 492.798 323.44 492.489 323.44C491.856 323.44 491.365 323.263 491.017 322.91C490.674 322.557 490.502 321.985 490.502 321.196V318.053ZM495.577 318.053H496.246L498.918 322.226V318.053H499.573V323.308H498.925L496.232 319.157V323.308H495.577V318.053Z" fill="#8A8F93"/>
</g>
<rect x="141.988" y="314.438" width="0.448219" height="113.972" fill="#3B3D40"/>
<rect x="220.426" y="314.438" width="0.448219" height="113.972" fill="#3B3D40"/>
<rect x="298.867" y="314.438" width="0.448219" height="113.972" fill="#3B3D40"/>
<rect x="377.305" y="314.438" width="0.448219" height="113.972" fill="#3B3D40"/>
<rect x="455.742" y="314.438" width="0.448219" height="113.972" fill="#3B3D40"/>
<path d="M94.6602 417.013L145.942 415.867L179.37 418.877C191.062 419.93 202.823 417.857 213.45 412.869L215.214 412.041C220.289 409.659 225.671 407.993 231.204 407.09V407.09C242.506 405.247 254.099 406.645 264.639 411.12L266.88 412.072C287.417 420.793 310.965 418.588 329.525 406.205L330.968 405.242C343.949 396.581 359.572 392.782 375.081 394.515L378.37 394.883C393.858 396.613 409.46 392.827 422.432 384.19L437.627 374.072C448.08 367.112 460.297 363.267 472.853 362.986L504.912 362.27" stroke="#BBDCD2" stroke-width="1.22646" stroke-linecap="round"/>
<circle cx="416.609" cy="387.412" r="4.59924" fill="white" stroke="#BBDCD2" stroke-width="0.613232"/>
</g>
<rect x="64.3066" y="206.307" width="483.84" height="240.896" rx="7.05216" stroke="#3B3D40" stroke-width="0.613232"/>
<g filter="url(#filter0_bd_7068_158309)">
<rect x="364.316" y="404" width="110.275" height="84.6542" rx="4.78437" fill="#111315" fill-opacity="0.96" shape-rendering="crispEdges"/>
<path d="M385.354 435.203C385.388 435.484 385.439 435.739 385.507 435.969C385.584 436.19 385.69 436.381 385.826 436.543C385.971 436.696 386.149 436.819 386.362 436.913C386.583 436.998 386.855 437.04 387.179 437.04C387.799 437.04 388.242 436.862 388.505 436.504C388.769 436.147 388.901 435.637 388.901 434.973V429.028H390.445V435.075C390.445 436.164 390.151 436.985 389.564 437.538C388.986 438.091 388.199 438.367 387.204 438.367C386.158 438.367 385.35 438.112 384.78 437.602C384.21 437.091 383.887 436.292 383.81 435.203H385.354ZM393.547 431.503V435.675C393.547 436.228 393.637 436.606 393.815 436.811C394.002 437.015 394.283 437.117 394.657 437.117C394.861 437.117 395.066 437.079 395.27 437.002C395.482 436.925 395.669 436.815 395.831 436.67C395.993 436.526 396.125 436.351 396.227 436.147C396.329 435.943 396.38 435.713 396.38 435.458V431.503H397.834V438.137H396.418V437.168C396.112 437.576 395.78 437.874 395.423 438.061C395.066 438.248 394.683 438.342 394.275 438.342C393.501 438.342 392.943 438.142 392.603 437.742C392.272 437.342 392.106 436.73 392.106 435.905V431.503H393.547ZM400.886 431.503V432.473C401.184 432.064 401.516 431.767 401.881 431.58C402.256 431.393 402.655 431.299 403.081 431.299C404.561 431.299 405.301 432.116 405.301 433.749V438.137H403.846V433.978C403.846 433.442 403.748 433.068 403.553 432.856C403.357 432.634 403.068 432.524 402.685 432.524C402.43 432.524 402.192 432.571 401.971 432.664C401.758 432.749 401.575 432.868 401.422 433.021C401.269 433.174 401.146 433.353 401.052 433.557C400.967 433.753 400.924 433.961 400.924 434.182V438.137H399.483V431.503H400.886ZM412.033 430.368H409.15V429.028H416.448V430.368H413.577V438.137H412.033V430.368ZM418.916 437.168C419.528 437.168 419.975 436.959 420.256 436.543C420.545 436.117 420.689 435.539 420.689 434.808C420.689 434.085 420.545 433.515 420.256 433.098C419.975 432.681 419.528 432.473 418.916 432.473C418.304 432.473 417.853 432.685 417.564 433.111C417.283 433.527 417.143 434.093 417.143 434.808C417.143 435.53 417.279 436.105 417.551 436.53C417.832 436.955 418.287 437.168 418.916 437.168ZM418.903 438.342C417.866 438.342 417.062 438.035 416.492 437.423C415.922 436.811 415.637 435.943 415.637 434.82C415.637 434.293 415.709 433.812 415.854 433.379C416.007 432.945 416.224 432.575 416.505 432.269C416.785 431.962 417.13 431.724 417.538 431.554C417.946 431.384 418.41 431.299 418.929 431.299C419.456 431.299 419.924 431.388 420.332 431.567C420.74 431.737 421.081 431.975 421.353 432.281C421.634 432.588 421.842 432.958 421.978 433.391C422.123 433.817 422.195 434.284 422.195 434.795C422.195 435.373 422.114 435.883 421.952 436.326C421.791 436.76 421.561 437.13 421.264 437.436C420.974 437.733 420.63 437.959 420.23 438.112C419.83 438.265 419.388 438.342 418.903 438.342ZM422.991 432.651V431.503H424.037V429.717H425.479V431.503H427.124V432.651H425.479V436.122C425.479 436.462 425.547 436.709 425.683 436.862C425.827 437.015 426.036 437.091 426.308 437.091C426.452 437.091 426.589 437.083 426.716 437.066C426.852 437.049 426.984 437.019 427.112 436.976L427.329 438.061C426.92 438.197 426.478 438.265 426.002 438.265C425.27 438.265 424.76 438.078 424.471 437.704C424.181 437.321 424.037 436.751 424.037 435.994V432.651H422.991ZM431.338 435.037C430.904 435.063 430.551 435.109 430.279 435.178C430.016 435.246 429.811 435.335 429.667 435.445C429.522 435.548 429.424 435.671 429.373 435.815C429.331 435.952 429.31 436.1 429.31 436.262C429.31 436.551 429.399 436.777 429.578 436.938C429.765 437.1 430.037 437.181 430.394 437.181C431.032 437.181 431.504 437.019 431.81 436.696C432.116 436.373 432.27 435.935 432.27 435.382V434.999L431.338 435.037ZM432.295 437.27C432.048 437.568 431.746 437.814 431.389 438.01C431.032 438.205 430.598 438.303 430.088 438.303C429.773 438.303 429.48 438.261 429.208 438.176C428.935 438.099 428.697 437.98 428.493 437.818C428.297 437.657 428.14 437.453 428.021 437.206C427.91 436.951 427.855 436.653 427.855 436.313C427.855 435.854 427.957 435.484 428.161 435.203C428.366 434.914 428.629 434.688 428.952 434.527C429.284 434.365 429.654 434.255 430.062 434.195C430.471 434.127 430.879 434.085 431.287 434.068L432.27 434.017V433.736C432.27 433.234 432.146 432.89 431.9 432.702C431.661 432.507 431.347 432.409 430.955 432.409C430.505 432.409 430.169 432.486 429.948 432.639C429.735 432.792 429.595 433.013 429.527 433.302L428.2 433.162C428.319 432.515 428.612 432.043 429.08 431.746C429.548 431.448 430.19 431.299 431.007 431.299C431.534 431.299 431.968 431.367 432.308 431.503C432.657 431.639 432.933 431.826 433.137 432.064C433.341 432.303 433.482 432.588 433.558 432.919C433.643 433.243 433.686 433.6 433.686 433.991V438.137H432.295V437.27ZM436.746 429.028V438.137H435.291V429.028H436.746ZM439.413 436.109C439.439 436.33 439.498 436.513 439.592 436.657C439.685 436.794 439.8 436.904 439.936 436.989C440.081 437.074 440.247 437.134 440.434 437.168C440.621 437.193 440.821 437.206 441.034 437.206C441.518 437.206 441.867 437.134 442.08 436.989C442.292 436.845 442.399 436.632 442.399 436.351C442.399 436.13 442.331 435.943 442.195 435.79C442.067 435.637 441.799 435.526 441.391 435.458C440.863 435.365 440.4 435.275 440 435.19C439.6 435.105 439.264 434.99 438.992 434.846C438.72 434.693 438.516 434.501 438.38 434.272C438.244 434.034 438.176 433.715 438.176 433.315C438.176 433.009 438.244 432.732 438.38 432.486C438.516 432.23 438.703 432.018 438.941 431.848C439.188 431.669 439.477 431.533 439.809 431.439C440.149 431.346 440.519 431.299 440.919 431.299C441.429 431.299 441.854 431.35 442.195 431.452C442.535 431.554 442.811 431.694 443.024 431.873C443.236 432.052 443.398 432.256 443.509 432.486C443.619 432.715 443.704 432.958 443.764 433.213L442.462 433.391C442.36 433.06 442.203 432.813 441.99 432.651C441.786 432.49 441.442 432.409 440.957 432.409C440.676 432.409 440.447 432.434 440.268 432.486C440.089 432.537 439.945 432.6 439.834 432.677C439.732 432.753 439.66 432.838 439.617 432.932C439.583 433.026 439.566 433.119 439.566 433.213C439.566 433.357 439.583 433.476 439.617 433.57C439.651 433.664 439.711 433.74 439.796 433.8C439.89 433.859 440.013 433.91 440.166 433.953C440.319 433.995 440.51 434.038 440.74 434.08L441.569 434.221C442.012 434.297 442.377 434.395 442.667 434.514C442.964 434.633 443.198 434.782 443.368 434.961C443.547 435.131 443.67 435.331 443.738 435.56C443.806 435.79 443.84 436.045 443.84 436.326C443.84 436.93 443.611 437.419 443.151 437.793C442.692 438.159 441.995 438.342 441.059 438.342C440.676 438.342 440.306 438.303 439.949 438.227C439.6 438.159 439.286 438.04 439.005 437.87C438.724 437.699 438.495 437.474 438.316 437.193C438.146 436.904 438.048 436.543 438.023 436.109H439.413Z" fill="white"/>
<path d="M384.461 455.407H387.51C388.182 455.407 388.735 455.479 389.169 455.624C389.611 455.769 389.956 455.964 390.202 456.211C390.457 456.458 390.632 456.747 390.725 457.078C390.827 457.402 390.878 457.746 390.878 458.112C390.878 458.495 390.827 458.86 390.725 459.209C390.623 459.558 390.445 459.864 390.19 460.128C389.934 460.391 389.59 460.6 389.156 460.753C388.722 460.906 388.174 460.983 387.51 460.983H385.622V464.517H384.461V455.407ZM387.498 459.987C387.94 459.987 388.306 459.945 388.595 459.86C388.884 459.775 389.109 459.651 389.271 459.49C389.433 459.328 389.543 459.137 389.603 458.916C389.671 458.686 389.705 458.431 389.705 458.15C389.705 457.861 389.671 457.606 389.603 457.385C389.535 457.164 389.416 456.981 389.245 456.836C389.075 456.691 388.846 456.585 388.556 456.517C388.276 456.441 387.919 456.402 387.485 456.402H385.622V459.987H387.498ZM396.016 463.611C395.778 463.9 395.476 464.151 395.11 464.364C394.745 464.568 394.29 464.67 393.745 464.67C393.414 464.67 393.107 464.627 392.827 464.542C392.555 464.466 392.316 464.346 392.112 464.185C391.917 464.015 391.764 463.806 391.653 463.56C391.542 463.313 391.487 463.024 391.487 462.692C391.487 462.241 391.581 461.876 391.768 461.595C391.963 461.314 392.219 461.093 392.533 460.932C392.856 460.77 393.218 460.655 393.618 460.587C394.017 460.519 394.43 460.476 394.855 460.459L395.991 460.421V460.166C395.991 459.605 395.872 459.201 395.634 458.954C395.395 458.707 395.008 458.584 394.473 458.584C393.945 458.584 393.558 458.673 393.312 458.852C393.065 459.022 392.903 459.26 392.827 459.566L391.819 459.452C391.938 458.848 392.223 458.41 392.674 458.137C393.124 457.857 393.737 457.716 394.511 457.716C394.987 457.716 395.387 457.776 395.71 457.895C396.042 458.006 396.31 458.167 396.514 458.38C396.718 458.592 396.863 458.856 396.948 459.171C397.041 459.486 397.088 459.839 397.088 460.23V464.517H396.016V463.611ZM395.991 461.212L394.932 461.25C394.481 461.267 394.107 461.31 393.809 461.378C393.511 461.446 393.273 461.54 393.095 461.659C392.925 461.769 392.801 461.91 392.725 462.08C392.657 462.25 392.623 462.445 392.623 462.667C392.623 462.998 392.72 463.266 392.916 463.47C393.12 463.666 393.452 463.764 393.911 463.764C394.566 463.764 395.076 463.602 395.442 463.279C395.808 462.956 395.991 462.514 395.991 461.952V461.212ZM398.799 457.921H399.909V464.517H398.799V457.921ZM398.76 455.407H399.947V456.696H398.76V455.407ZM406.436 463.572C406.164 463.938 405.849 464.223 405.492 464.427C405.135 464.623 404.714 464.721 404.229 464.721C403.744 464.721 403.323 464.631 402.966 464.453C402.617 464.274 402.328 464.032 402.098 463.726C401.868 463.411 401.698 463.041 401.588 462.616C401.477 462.19 401.422 461.735 401.422 461.25C401.422 460.706 401.49 460.217 401.626 459.783C401.762 459.341 401.954 458.967 402.2 458.661C402.455 458.354 402.762 458.12 403.119 457.959C403.485 457.797 403.897 457.716 404.356 457.716C404.705 457.716 405.058 457.789 405.415 457.933C405.773 458.069 406.104 458.333 406.41 458.724V455.407H407.52V464.517H406.436V463.572ZM406.449 461.021C406.449 460.493 406.389 460.085 406.27 459.796C406.16 459.498 405.972 459.247 405.709 459.043C405.522 458.89 405.33 458.784 405.135 458.724C404.947 458.665 404.739 458.635 404.509 458.635C404.237 458.635 403.982 458.682 403.744 458.775C403.514 458.869 403.31 459.022 403.132 459.235C402.961 459.439 402.825 459.707 402.723 460.038C402.63 460.362 402.583 460.757 402.583 461.225C402.583 461.71 402.634 462.118 402.736 462.45C402.847 462.781 402.987 463.045 403.157 463.241C403.336 463.436 403.531 463.577 403.744 463.662C403.965 463.747 404.19 463.789 404.42 463.789C404.667 463.789 404.888 463.76 405.084 463.7C405.279 463.641 405.475 463.538 405.67 463.394C405.926 463.19 406.117 462.935 406.245 462.628C406.381 462.322 406.449 461.935 406.449 461.467V461.021ZM409.175 463.024H410.451V464.517H409.175V463.024ZM409.175 457.921H410.451V459.413H409.175V457.921ZM417.395 464.708C416.511 464.64 415.83 464.385 415.354 463.942C414.886 463.5 414.618 462.884 414.55 462.093H415.635C415.745 463.113 416.332 463.679 417.395 463.789V460.485L417.268 460.459C416.868 460.391 416.515 460.298 416.209 460.179C415.903 460.051 415.643 459.89 415.43 459.694C415.218 459.49 415.056 459.239 414.946 458.941C414.835 458.644 414.78 458.291 414.78 457.882C414.78 457.551 414.839 457.249 414.958 456.976C415.086 456.696 415.26 456.453 415.482 456.249C415.711 456.037 415.988 455.866 416.311 455.739C416.634 455.611 416.996 455.526 417.395 455.484V454.412H418.237V455.471C418.705 455.513 419.096 455.611 419.411 455.764C419.734 455.917 419.994 456.105 420.189 456.326C420.393 456.538 420.547 456.772 420.649 457.027C420.751 457.283 420.823 457.534 420.866 457.78L419.819 457.972C419.768 457.759 419.7 457.563 419.615 457.385C419.539 457.206 419.441 457.049 419.322 456.913C419.203 456.777 419.054 456.666 418.875 456.581C418.697 456.487 418.484 456.424 418.237 456.39V459.566L418.416 459.592C419.241 459.719 419.866 459.983 420.291 460.383C420.717 460.783 420.929 461.382 420.929 462.182C420.929 462.505 420.874 462.815 420.763 463.113C420.653 463.402 420.483 463.662 420.253 463.891C420.032 464.121 419.751 464.308 419.411 464.453C419.079 464.597 418.688 464.687 418.237 464.721V465.92H417.395V464.708ZM418.237 463.802C418.782 463.743 419.177 463.568 419.424 463.279C419.671 462.981 419.794 462.616 419.794 462.182C419.794 462.02 419.773 461.859 419.73 461.697C419.696 461.535 419.624 461.387 419.513 461.25C419.411 461.106 419.266 460.983 419.079 460.88C418.892 460.778 418.65 460.702 418.352 460.651L418.237 460.638V463.802ZM417.395 456.39C416.825 456.458 416.426 456.632 416.196 456.913C415.975 457.185 415.864 457.491 415.864 457.831C415.864 458.035 415.886 458.222 415.928 458.393C415.971 458.554 416.047 458.703 416.158 458.839C416.277 458.967 416.434 459.082 416.63 459.184C416.834 459.277 417.089 459.354 417.395 459.413V456.39ZM422.126 461.493L426.324 455.701H427.408V461.416H428.62L428.467 462.322H427.408V464.517H426.336V462.322H422.126V461.493ZM426.336 461.416V457.168L423.287 461.416H426.336ZM430.136 462.998H431.309L430.646 465.754H429.753L430.136 462.998ZM433.971 462.258C434.065 462.777 434.248 463.16 434.52 463.407C434.792 463.645 435.23 463.764 435.834 463.764C436.395 463.764 436.833 463.598 437.148 463.266C437.471 462.935 437.633 462.411 437.633 461.697C437.633 461.119 437.493 460.655 437.212 460.306C436.94 459.949 436.485 459.771 435.847 459.771C435.447 459.771 435.102 459.834 434.813 459.962C434.524 460.081 434.26 460.268 434.022 460.523H433.053L433.448 455.701H438.245V456.709H434.379L434.137 459.452C434.409 459.247 434.694 459.099 434.992 459.005C435.29 458.903 435.643 458.852 436.051 458.852C436.527 458.852 436.935 458.928 437.276 459.082C437.624 459.226 437.905 459.43 438.118 459.694C438.339 459.949 438.5 460.251 438.602 460.6C438.705 460.94 438.756 461.302 438.756 461.684C438.756 462.688 438.492 463.449 437.965 463.968C437.446 464.487 436.744 464.746 435.859 464.746C434.932 464.746 434.218 464.538 433.716 464.121C433.223 463.704 432.942 463.083 432.874 462.258H433.971ZM443.333 464.746C442.321 464.746 441.53 464.376 440.96 463.636C440.399 462.888 440.118 461.714 440.118 460.115C440.118 459.315 440.195 458.622 440.348 458.035C440.501 457.448 440.718 456.964 440.998 456.581C441.288 456.198 441.632 455.917 442.032 455.739C442.432 455.552 442.882 455.458 443.384 455.458C443.886 455.458 444.333 455.552 444.724 455.739C445.124 455.917 445.46 456.198 445.732 456.581C446.012 456.964 446.225 457.448 446.37 458.035C446.514 458.622 446.587 459.315 446.587 460.115C446.587 460.914 446.514 461.608 446.37 462.195C446.225 462.773 446.012 463.254 445.732 463.636C445.451 464.011 445.107 464.291 444.698 464.478C444.299 464.657 443.844 464.746 443.333 464.746ZM443.359 463.751C443.742 463.751 444.06 463.67 444.316 463.509C444.579 463.339 444.788 463.1 444.941 462.794C445.102 462.48 445.217 462.097 445.285 461.646C445.362 461.195 445.4 460.685 445.4 460.115C445.4 459.545 445.362 459.035 445.285 458.584C445.217 458.133 445.102 457.75 444.941 457.436C444.788 457.121 444.579 456.883 444.316 456.721C444.06 456.551 443.742 456.466 443.359 456.466C442.976 456.466 442.653 456.551 442.389 456.721C442.125 456.883 441.913 457.121 441.751 457.436C441.598 457.75 441.483 458.133 441.407 458.584C441.339 459.035 441.305 459.545 441.305 460.115C441.305 460.685 441.339 461.195 441.407 461.646C441.483 462.097 441.598 462.48 441.751 462.794C441.913 463.1 442.125 463.339 442.389 463.509C442.653 463.67 442.976 463.751 443.359 463.751ZM450.884 464.746C449.871 464.746 449.08 464.376 448.511 463.636C447.949 462.888 447.668 461.714 447.668 460.115C447.668 459.315 447.745 458.622 447.898 458.035C448.051 457.448 448.268 456.964 448.549 456.581C448.838 456.198 449.182 455.917 449.582 455.739C449.982 455.552 450.433 455.458 450.935 455.458C451.436 455.458 451.883 455.552 452.274 455.739C452.674 455.917 453.01 456.198 453.282 456.581C453.563 456.964 453.775 457.448 453.92 458.035C454.065 458.622 454.137 459.315 454.137 460.115C454.137 460.914 454.065 461.608 453.92 462.195C453.775 462.773 453.563 463.254 453.282 463.636C453.001 464.011 452.657 464.291 452.249 464.478C451.849 464.657 451.394 464.746 450.884 464.746ZM450.909 463.751C451.292 463.751 451.611 463.67 451.866 463.509C452.13 463.339 452.338 463.1 452.491 462.794C452.653 462.48 452.768 462.097 452.836 461.646C452.912 461.195 452.95 460.685 452.95 460.115C452.95 459.545 452.912 459.035 452.836 458.584C452.768 458.133 452.653 457.75 452.491 457.436C452.338 457.121 452.13 456.883 451.866 456.721C451.611 456.551 451.292 456.466 450.909 456.466C450.526 456.466 450.203 456.551 449.939 456.721C449.676 456.883 449.463 457.121 449.302 457.436C449.148 457.75 449.034 458.133 448.957 458.584C448.889 459.035 448.855 459.545 448.855 460.115C448.855 460.685 448.889 461.195 448.957 461.646C449.034 462.097 449.148 462.48 449.302 462.794C449.463 463.1 449.676 463.339 449.939 463.509C450.203 463.67 450.526 463.751 450.909 463.751Z" fill="#83BF6E"/>
<rect x="364.715" y="404.399" width="109.478" height="83.8568" rx="4.38568" stroke="#3B3D40" stroke-width="0.797396" shape-rendering="crispEdges"/>
</g>
<g filter="url(#filter1_d_7068_158309)">
<circle cx="137.5" cy="184.5" r="37.5" fill="#BBDCD2"/>
<g clip-path="url(#clip8_7068_158309)">
<path fill-rule="evenodd" clip-rule="evenodd" d="M151.228 179.747C151.986 180.505 152.184 181.613 151.825 182.555C151.937 182.848 152 183.166 152 183.499V197.363C152 198.817 150.817 200 149.363 200H124.637C123.183 200 122 198.817 122 197.363V183.499C122 182.045 123.183 180.862 124.637 180.862H128.434L138.524 170.772C139.552 169.744 141.225 169.744 142.253 170.772L151.228 179.747ZM149.363 180.862C149.553 180.862 149.737 180.882 149.916 180.921L148.658 179.663L147.459 180.862H149.363ZM144.973 180.862L147.415 178.42L146.172 177.177L142.487 180.862H144.973ZM140.388 171.758C140.163 171.758 139.938 171.844 139.767 172.015L130.92 180.862H140.001L144.929 175.934L141.01 172.015C140.839 171.844 140.613 171.758 140.388 171.758ZM149.363 198.242C149.848 198.242 150.242 197.848 150.242 197.363V183.499C150.242 183.014 149.848 182.62 149.363 182.62H124.637C124.152 182.62 123.758 183.014 123.758 183.499V197.363C123.758 197.848 124.152 198.242 124.637 198.242H149.363ZM129.553 193.823H125.457V195.581H129.553V193.823ZM131.787 193.823H135.883V195.581H131.787V193.823ZM142.213 193.823H138.117V195.581H142.213V193.823ZM144.447 193.823H148.543V195.581H144.447V193.823ZM126.98 184.963H129.984C130.792 184.963 131.449 185.62 131.449 186.428V188.772C131.449 189.58 130.792 190.237 129.984 190.237H126.98C126.173 190.237 125.516 189.58 125.516 188.772V186.428C125.516 185.62 126.173 184.963 126.98 184.963ZM127.273 188.479H129.691V186.721H127.273V188.479Z" fill="#111315"/>
</g>
</g>
<rect x="0.5" y="0.5" width="607" height="607" rx="11.5" stroke="#2C3334"/>
<defs>
<filter id="filter0_bd_7068_158309" x="351.558" y="394.431" width="135.79" height="110.171" filterUnits="userSpaceOnUse" color-interpolation-filters="sRGB">
<feFlood flood-opacity="0" result="BackgroundImageFix"/>
<feGaussianBlur in="BackgroundImageFix" stdDeviation="3.18958"/>
<feComposite in2="SourceAlpha" operator="in" result="effect1_backgroundBlur_7068_158309"/>
<feColorMatrix in="SourceAlpha" type="matrix" values="0 0 0 0 0 0 0 0 0 0 0 0 0 0 0 0 0 0 127 0" result="hardAlpha"/>
<feOffset dy="3.18958"/>
<feGaussianBlur stdDeviation="6.37916"/>
<feComposite in2="hardAlpha" operator="out"/>
<feColorMatrix type="matrix" values="0 0 0 0 0 0 0 0 0 0 0 0 0 0 0 0 0 0 0.32 0"/>
<feBlend mode="normal" in2="effect1_backgroundBlur_7068_158309" result="effect2_dropShadow_7068_158309"/>
<feBlend mode="normal" in="SourceGraphic" in2="effect2_dropShadow_7068_158309" result="shape"/>
</filter>
<filter id="filter1_d_7068_158309" x="96" y="147" width="83" height="83" filterUnits="userSpaceOnUse" color-interpolation-filters="sRGB">
<feFlood flood-opacity="0" result="BackgroundImageFix"/>
<feColorMatrix in="SourceAlpha" type="matrix" values="0 0 0 0 0 0 0 0 0 0 0 0 0 0 0 0 0 0 127 0" result="hardAlpha"/>
<feOffset dy="4"/>
<feGaussianBlur stdDeviation="2"/>
<feComposite in2="hardAlpha" operator="out"/>
<feColorMatrix type="matrix" values="0 0 0 0 0 0 0 0 0 0 0 0 0 0 0 0 0 0 0.25 0"/>
<feBlend mode="normal" in2="BackgroundImageFix" result="effect1_dropShadow_7068_158309"/>
<feBlend mode="normal" in="SourceGraphic" in2="effect1_dropShadow_7068_158309" result="shape"/>
</filter>
<clipPath id="clip0_7068_158309">
<rect width="7.97201" height="8.58524" fill="white" transform="translate(515.953 233.85)"/>
</clipPath>
<clipPath id="clip1_7068_158309">
<rect width="455.018" height="113.448" fill="white" transform="translate(78.7188 314.438)"/>
</clipPath>
<clipPath id="clip2_7068_158309">
<rect width="63.1989" height="10.4402" fill="white" transform="translate(78.7891 314.438)"/>
</clipPath>
<clipPath id="clip3_7068_158309">
<rect width="63.1989" height="10.4402" fill="white" transform="translate(149.609 314.438)"/>
</clipPath>
<clipPath id="clip4_7068_158309">
<rect width="63.1989" height="10.4402" fill="white" transform="translate(228.043 314.438)"/>
</clipPath>
<clipPath id="clip5_7068_158309">
<rect width="63.1989" height="10.4402" fill="white" transform="translate(306.484 314.438)"/>
</clipPath>
<clipPath id="clip6_7068_158309">
<rect width="63.1989" height="10.4402" fill="white" transform="translate(384.922 314.438)"/>
</clipPath>
<clipPath id="clip7_7068_158309">
<rect width="63.1989" height="10.4402" fill="white" transform="translate(463.809 314.438)"/>
</clipPath>
<clipPath id="clip8_7068_158309">
<rect width="30" height="30" fill="white" transform="translate(122 170)"/>
</clipPath>
</defs>
</svg>
