<svg width="290" height="238" viewBox="0 0 290 238" fill="none" xmlns="http://www.w3.org/2000/svg">
<g clip-path="url(#clip0_2434_56738)">
<rect width="290" height="238" rx="12" fill="#1C1F21"/>
<path opacity="0.24" d="M0 12C0 5.37259 5.37258 0 12 0H278C284.627 0 290 5.37258 290 12V104H0V12Z" fill="#BBDCD2"/>
<path d="M73.3957 129.576H77.3477C78.2117 129.576 78.921 129.672 79.4757 129.864C80.041 130.056 80.4837 130.312 80.8037 130.632C81.1237 130.952 81.3477 131.325 81.4757 131.752C81.6037 132.168 81.6677 132.605 81.6677 133.064C81.6677 133.555 81.6037 134.024 81.4757 134.472C81.3477 134.92 81.1184 135.315 80.7877 135.656C80.4677 135.987 80.0304 136.253 79.4757 136.456C78.921 136.648 78.2224 136.744 77.3797 136.744H75.2997V141H73.3957V129.576ZM77.3317 135.128C77.8224 135.128 78.2224 135.08 78.5317 134.984C78.8517 134.888 79.1024 134.755 79.2837 134.584C79.465 134.403 79.5877 134.189 79.6517 133.944C79.7264 133.699 79.7637 133.421 79.7637 133.112C79.7637 132.792 79.7264 132.515 79.6517 132.28C79.577 132.035 79.4437 131.832 79.2517 131.672C79.0704 131.512 78.8197 131.389 78.4997 131.304C78.1904 131.219 77.7957 131.176 77.3157 131.176H75.2997V135.128H77.3317ZM84.9484 132.68V133.912C85.2364 133.475 85.5831 133.139 85.9884 132.904C86.3938 132.669 86.8258 132.552 87.2844 132.552C87.4658 132.552 87.6151 132.557 87.7324 132.568C87.8604 132.579 87.9831 132.595 88.1004 132.616L87.8924 134.28C87.7751 134.248 87.6471 134.227 87.5084 134.216C87.3698 134.205 87.2258 134.2 87.0764 134.2C86.7351 134.2 86.4364 134.259 86.1804 134.376C85.9244 134.483 85.7058 134.627 85.5244 134.808C85.3538 134.989 85.2204 135.197 85.1244 135.432C85.0391 135.656 84.9964 135.885 84.9964 136.12V141H83.1884V132.68H84.9484ZM92.8874 139.784C93.6554 139.784 94.2154 139.523 94.5674 139C94.9301 138.467 95.1114 137.741 95.1114 136.824C95.1114 135.917 94.9301 135.203 94.5674 134.68C94.2154 134.157 93.6554 133.896 92.8874 133.896C92.1194 133.896 91.5541 134.163 91.1914 134.696C90.8394 135.219 90.6634 135.928 90.6634 136.824C90.6634 137.731 90.8341 138.451 91.1754 138.984C91.5274 139.517 92.0981 139.784 92.8874 139.784ZM92.8714 141.256C91.5701 141.256 90.5621 140.872 89.8474 140.104C89.1328 139.336 88.7754 138.248 88.7754 136.84C88.7754 136.179 88.8661 135.576 89.0474 135.032C89.2394 134.488 89.5114 134.024 89.8634 133.64C90.2154 133.256 90.6474 132.957 91.1594 132.744C91.6714 132.531 92.2528 132.424 92.9034 132.424C93.5648 132.424 94.1514 132.536 94.6634 132.76C95.1754 132.973 95.6021 133.272 95.9434 133.656C96.2954 134.04 96.5568 134.504 96.7274 135.048C96.9088 135.581 96.9994 136.168 96.9994 136.808C96.9994 137.533 96.8981 138.173 96.6954 138.728C96.4928 139.272 96.2048 139.736 95.8314 140.12C95.4688 140.493 95.0368 140.776 94.5354 140.968C94.0341 141.16 93.4794 141.256 92.8714 141.256ZM98.7974 132.68H100.573V133.832C100.915 133.373 101.304 133.027 101.741 132.792C102.189 132.547 102.701 132.424 103.277 132.424C103.864 132.424 104.376 132.531 104.813 132.744C105.251 132.947 105.613 133.24 105.901 133.624C106.2 134.008 106.419 134.472 106.557 135.016C106.707 135.549 106.781 136.147 106.781 136.808C106.781 137.48 106.696 138.093 106.525 138.648C106.355 139.192 106.109 139.661 105.789 140.056C105.48 140.44 105.101 140.739 104.653 140.952C104.205 141.155 103.699 141.256 103.133 141.256C102.685 141.256 102.248 141.171 101.821 141C101.395 140.829 100.995 140.515 100.621 140.056V144.104H98.7974V132.68ZM100.605 136.984C100.605 137.528 100.664 137.981 100.781 138.344C100.899 138.696 101.053 138.979 101.245 139.192C101.448 139.405 101.677 139.555 101.933 139.64C102.2 139.725 102.477 139.768 102.765 139.768C103.064 139.768 103.341 139.715 103.597 139.608C103.853 139.501 104.077 139.331 104.269 139.096C104.461 138.861 104.611 138.557 104.717 138.184C104.824 137.811 104.877 137.357 104.877 136.824C104.877 136.28 104.819 135.827 104.701 135.464C104.595 135.091 104.445 134.792 104.253 134.568C104.072 134.333 103.859 134.168 103.613 134.072C103.368 133.976 103.112 133.928 102.845 133.928C102.195 133.928 101.656 134.141 101.229 134.568C100.813 134.995 100.605 135.667 100.605 136.584V136.984ZM112.247 139.784C113.015 139.784 113.575 139.523 113.927 139C114.289 138.467 114.471 137.741 114.471 136.824C114.471 135.917 114.289 135.203 113.927 134.68C113.575 134.157 113.015 133.896 112.247 133.896C111.479 133.896 110.913 134.163 110.551 134.696C110.199 135.219 110.023 135.928 110.023 136.824C110.023 137.731 110.193 138.451 110.535 138.984C110.887 139.517 111.457 139.784 112.247 139.784ZM112.231 141.256C110.929 141.256 109.921 140.872 109.207 140.104C108.492 139.336 108.135 138.248 108.135 136.84C108.135 136.179 108.225 135.576 108.407 135.032C108.599 134.488 108.871 134.024 109.223 133.64C109.575 133.256 110.007 132.957 110.519 132.744C111.031 132.531 111.612 132.424 112.263 132.424C112.924 132.424 113.511 132.536 114.023 132.76C114.535 132.973 114.961 133.272 115.303 133.656C115.655 134.04 115.916 134.504 116.087 135.048C116.268 135.581 116.359 136.168 116.359 136.808C116.359 137.533 116.257 138.173 116.055 138.728C115.852 139.272 115.564 139.736 115.191 140.12C114.828 140.493 114.396 140.776 113.895 140.968C113.393 141.16 112.839 141.256 112.231 141.256ZM119.421 138.456C119.453 138.733 119.527 138.963 119.645 139.144C119.762 139.315 119.906 139.453 120.077 139.56C120.258 139.667 120.466 139.741 120.701 139.784C120.935 139.816 121.186 139.832 121.453 139.832C122.061 139.832 122.498 139.741 122.765 139.56C123.031 139.379 123.165 139.112 123.165 138.76C123.165 138.483 123.079 138.248 122.909 138.056C122.749 137.864 122.413 137.725 121.901 137.64C121.239 137.523 120.658 137.411 120.157 137.304C119.655 137.197 119.234 137.053 118.893 136.872C118.551 136.68 118.295 136.44 118.125 136.152C117.954 135.853 117.869 135.453 117.869 134.952C117.869 134.568 117.954 134.221 118.125 133.912C118.295 133.592 118.53 133.325 118.829 133.112C119.138 132.888 119.501 132.717 119.917 132.6C120.343 132.483 120.807 132.424 121.309 132.424C121.949 132.424 122.482 132.488 122.909 132.616C123.335 132.744 123.682 132.92 123.949 133.144C124.215 133.368 124.418 133.624 124.557 133.912C124.695 134.2 124.802 134.504 124.877 134.824L123.245 135.048C123.117 134.632 122.919 134.323 122.653 134.12C122.397 133.917 121.965 133.816 121.357 133.816C121.005 133.816 120.717 133.848 120.493 133.912C120.269 133.976 120.087 134.056 119.949 134.152C119.821 134.248 119.73 134.355 119.677 134.472C119.634 134.589 119.613 134.707 119.613 134.824C119.613 135.005 119.634 135.155 119.677 135.272C119.719 135.389 119.794 135.485 119.901 135.56C120.018 135.635 120.173 135.699 120.365 135.752C120.557 135.805 120.797 135.859 121.085 135.912L122.125 136.088C122.679 136.184 123.138 136.307 123.501 136.456C123.874 136.605 124.167 136.792 124.381 137.016C124.605 137.229 124.759 137.48 124.845 137.768C124.93 138.056 124.973 138.376 124.973 138.728C124.973 139.485 124.685 140.099 124.109 140.568C123.533 141.027 122.658 141.256 121.485 141.256C121.005 141.256 120.541 141.208 120.093 141.112C119.655 141.027 119.261 140.877 118.909 140.664C118.557 140.451 118.269 140.168 118.045 139.816C117.831 139.453 117.709 139 117.677 138.456H119.421ZM130.497 137.112C129.953 137.144 129.511 137.203 129.169 137.288C128.839 137.373 128.583 137.485 128.401 137.624C128.22 137.752 128.097 137.907 128.033 138.088C127.98 138.259 127.953 138.445 127.953 138.648C127.953 139.011 128.065 139.293 128.289 139.496C128.524 139.699 128.865 139.8 129.313 139.8C130.113 139.8 130.705 139.597 131.089 139.192C131.473 138.787 131.665 138.237 131.665 137.544V137.064L130.497 137.112ZM131.697 139.912C131.388 140.285 131.009 140.595 130.561 140.84C130.113 141.085 129.569 141.208 128.929 141.208C128.535 141.208 128.167 141.155 127.825 141.048C127.484 140.952 127.185 140.803 126.929 140.6C126.684 140.397 126.487 140.141 126.337 139.832C126.199 139.512 126.129 139.139 126.129 138.712C126.129 138.136 126.257 137.672 126.513 137.32C126.769 136.957 127.1 136.675 127.505 136.472C127.921 136.269 128.385 136.131 128.897 136.056C129.409 135.971 129.921 135.917 130.433 135.896L131.665 135.832V135.48C131.665 134.851 131.511 134.419 131.201 134.184C130.903 133.939 130.508 133.816 130.017 133.816C129.452 133.816 129.031 133.912 128.753 134.104C128.487 134.296 128.311 134.573 128.225 134.936L126.561 134.76C126.711 133.949 127.079 133.357 127.665 132.984C128.252 132.611 129.057 132.424 130.081 132.424C130.743 132.424 131.287 132.509 131.713 132.68C132.151 132.851 132.497 133.085 132.753 133.384C133.009 133.683 133.185 134.04 133.281 134.456C133.388 134.861 133.441 135.309 133.441 135.8V141H131.697V139.912ZM137.278 129.576V141H135.454V129.576H137.278ZM146.426 129.576H148.346L152.698 141H150.634L149.562 138.088H145.13L144.074 141H142.074L146.426 129.576ZM149.034 136.472L147.338 131.768L145.658 136.472H149.034ZM160.829 138.088C160.722 139.08 160.365 139.859 159.757 140.424C159.16 140.979 158.301 141.256 157.181 141.256C156.509 141.256 155.922 141.155 155.421 140.952C154.93 140.739 154.52 140.44 154.189 140.056C153.858 139.672 153.613 139.213 153.453 138.68C153.293 138.136 153.213 137.533 153.213 136.872C153.213 136.211 153.304 135.608 153.485 135.064C153.666 134.509 153.928 134.04 154.269 133.656C154.621 133.261 155.048 132.957 155.549 132.744C156.05 132.531 156.621 132.424 157.261 132.424C157.848 132.424 158.344 132.504 158.749 132.664C159.154 132.813 159.49 133.021 159.757 133.288C160.024 133.544 160.232 133.843 160.381 134.184C160.53 134.525 160.637 134.883 160.701 135.256L158.893 135.528C158.808 135.059 158.642 134.669 158.397 134.36C158.162 134.051 157.762 133.896 157.197 133.896C156.792 133.896 156.456 133.981 156.189 134.152C155.922 134.323 155.709 134.547 155.549 134.824C155.389 135.091 155.272 135.4 155.197 135.752C155.133 136.104 155.101 136.461 155.101 136.824C155.101 137.24 155.138 137.629 155.213 137.992C155.288 138.355 155.405 138.669 155.565 138.936C155.725 139.192 155.938 139.4 156.205 139.56C156.472 139.709 156.797 139.784 157.181 139.784C157.736 139.784 158.157 139.64 158.445 139.352C158.733 139.053 158.914 138.632 158.989 138.088H160.829ZM169.626 138.088C169.519 139.08 169.162 139.859 168.554 140.424C167.956 140.979 167.098 141.256 165.978 141.256C165.306 141.256 164.719 141.155 164.218 140.952C163.727 140.739 163.316 140.44 162.986 140.056C162.655 139.672 162.41 139.213 162.25 138.68C162.09 138.136 162.01 137.533 162.01 136.872C162.01 136.211 162.1 135.608 162.282 135.064C162.463 134.509 162.724 134.04 163.066 133.656C163.418 133.261 163.844 132.957 164.346 132.744C164.847 132.531 165.418 132.424 166.058 132.424C166.644 132.424 167.14 132.504 167.546 132.664C167.951 132.813 168.287 133.021 168.554 133.288C168.82 133.544 169.028 133.843 169.178 134.184C169.327 134.525 169.434 134.883 169.498 135.256L167.69 135.528C167.604 135.059 167.439 134.669 167.194 134.36C166.959 134.051 166.559 133.896 165.994 133.896C165.588 133.896 165.252 133.981 164.986 134.152C164.719 134.323 164.506 134.547 164.346 134.824C164.186 135.091 164.068 135.4 163.994 135.752C163.93 136.104 163.898 136.461 163.898 136.824C163.898 137.24 163.935 137.629 164.01 137.992C164.084 138.355 164.202 138.669 164.362 138.936C164.522 139.192 164.735 139.4 165.002 139.56C165.268 139.709 165.594 139.784 165.978 139.784C166.532 139.784 166.954 139.64 167.242 139.352C167.53 139.053 167.711 138.632 167.786 138.088H169.626ZM178.487 138.536C178.337 139.4 177.969 140.072 177.383 140.552C176.796 141.021 175.953 141.256 174.855 141.256C173.532 141.256 172.524 140.877 171.831 140.12C171.148 139.352 170.807 138.275 170.807 136.888C170.807 136.173 170.903 135.539 171.095 134.984C171.297 134.429 171.575 133.965 171.927 133.592C172.289 133.208 172.716 132.92 173.207 132.728C173.708 132.525 174.257 132.424 174.855 132.424C175.495 132.424 176.049 132.525 176.519 132.728C176.988 132.92 177.377 133.197 177.687 133.56C177.996 133.912 178.225 134.339 178.375 134.84C178.524 135.331 178.599 135.88 178.599 136.488V137.288H172.631C172.652 138.045 172.844 138.659 173.207 139.128C173.569 139.597 174.119 139.832 174.855 139.832C175.431 139.832 175.863 139.72 176.151 139.496C176.439 139.272 176.631 138.952 176.727 138.536H178.487ZM176.823 136.024C176.823 135.341 176.663 134.803 176.343 134.408C176.023 134.013 175.511 133.816 174.807 133.816C174.135 133.816 173.623 134.019 173.271 134.424C172.919 134.819 172.716 135.352 172.663 136.024H176.823ZM180.36 132.68H182.136V133.832C182.477 133.373 182.867 133.027 183.304 132.792C183.752 132.547 184.264 132.424 184.84 132.424C185.427 132.424 185.939 132.531 186.376 132.744C186.813 132.947 187.176 133.24 187.464 133.624C187.763 134.008 187.981 134.472 188.12 135.016C188.269 135.549 188.344 136.147 188.344 136.808C188.344 137.48 188.259 138.093 188.088 138.648C187.917 139.192 187.672 139.661 187.352 140.056C187.043 140.44 186.664 140.739 186.216 140.952C185.768 141.155 185.261 141.256 184.696 141.256C184.248 141.256 183.811 141.171 183.384 141C182.957 140.829 182.557 140.515 182.184 140.056V144.104H180.36V132.68ZM182.168 136.984C182.168 137.528 182.227 137.981 182.344 138.344C182.461 138.696 182.616 138.979 182.808 139.192C183.011 139.405 183.24 139.555 183.496 139.64C183.763 139.725 184.04 139.768 184.328 139.768C184.627 139.768 184.904 139.715 185.16 139.608C185.416 139.501 185.64 139.331 185.832 139.096C186.024 138.861 186.173 138.557 186.28 138.184C186.387 137.811 186.44 137.357 186.44 136.824C186.44 136.28 186.381 135.827 186.264 135.464C186.157 135.091 186.008 134.792 185.816 134.568C185.635 134.333 185.421 134.168 185.176 134.072C184.931 133.976 184.675 133.928 184.408 133.928C183.757 133.928 183.219 134.141 182.792 134.568C182.376 134.995 182.168 135.667 182.168 136.584V136.984ZM189.326 134.12V132.68H190.638V130.44H192.446V132.68H194.51V134.12H192.446V138.472C192.446 138.899 192.531 139.208 192.702 139.4C192.883 139.592 193.144 139.688 193.486 139.688C193.667 139.688 193.838 139.677 193.998 139.656C194.168 139.635 194.334 139.597 194.494 139.544L194.766 140.904C194.254 141.075 193.699 141.16 193.102 141.16C192.184 141.16 191.544 140.925 191.182 140.456C190.819 139.976 190.638 139.261 190.638 138.312V134.12H189.326ZM203.19 138.536C203.04 139.4 202.672 140.072 202.086 140.552C201.499 141.021 200.656 141.256 199.558 141.256C198.235 141.256 197.227 140.877 196.534 140.12C195.851 139.352 195.51 138.275 195.51 136.888C195.51 136.173 195.606 135.539 195.798 134.984C196 134.429 196.278 133.965 196.63 133.592C196.992 133.208 197.419 132.92 197.91 132.728C198.411 132.525 198.96 132.424 199.558 132.424C200.198 132.424 200.752 132.525 201.222 132.728C201.691 132.92 202.08 133.197 202.39 133.56C202.699 133.912 202.928 134.339 203.078 134.84C203.227 135.331 203.302 135.88 203.302 136.488V137.288H197.334C197.355 138.045 197.547 138.659 197.91 139.128C198.272 139.597 198.822 139.832 199.558 139.832C200.134 139.832 200.566 139.72 200.854 139.496C201.142 139.272 201.334 138.952 201.43 138.536H203.19ZM201.526 136.024C201.526 135.341 201.366 134.803 201.046 134.408C200.726 134.013 200.214 133.816 199.51 133.816C198.838 133.816 198.326 134.019 197.974 134.424C197.622 134.819 197.419 135.352 197.366 136.024H201.526ZM210.951 136.664C210.951 136.141 210.892 135.704 210.775 135.352C210.668 134.989 210.514 134.707 210.311 134.504C210.119 134.291 209.89 134.141 209.623 134.056C209.367 133.96 209.095 133.912 208.807 133.912C208.135 133.912 207.612 134.152 207.239 134.632C206.876 135.112 206.695 135.843 206.695 136.824C206.695 137.357 206.743 137.811 206.839 138.184C206.946 138.557 207.09 138.861 207.271 139.096C207.463 139.331 207.682 139.501 207.927 139.608C208.172 139.715 208.439 139.768 208.727 139.768C209.388 139.768 209.922 139.555 210.327 139.128C210.743 138.691 210.951 138.013 210.951 137.096V136.664ZM210.967 139.848C210.626 140.317 210.236 140.669 209.799 140.904C209.372 141.139 208.871 141.256 208.295 141.256C207.698 141.256 207.18 141.149 206.743 140.936C206.306 140.723 205.943 140.424 205.655 140.04C205.367 139.645 205.148 139.181 204.999 138.648C204.86 138.104 204.791 137.507 204.791 136.856C204.791 136.248 204.866 135.683 205.015 135.16C205.164 134.627 205.383 134.168 205.671 133.784C205.959 133.389 206.311 133.075 206.727 132.84C207.154 132.605 207.644 132.477 208.199 132.456C208.306 132.445 208.412 132.445 208.519 132.456C208.626 132.456 208.738 132.461 208.855 132.472C209.228 132.515 209.586 132.621 209.927 132.792C210.279 132.952 210.615 133.224 210.935 133.608V129.576H212.743V141H210.967V139.848ZM216.733 138.808V141H214.877V138.808H216.733ZM216.781 129.576L216.653 137.56H214.973L214.845 129.576H216.781Z" fill="white"/>
<path d="M19.2507 154.432H22.0947C22.7027 154.432 23.2027 154.492 23.5947 154.612C23.9867 154.724 24.2947 154.88 24.5187 155.08C24.7507 155.272 24.9107 155.504 24.9987 155.776C25.0867 156.04 25.1307 156.324 25.1307 156.628C25.1307 157.02 25.0387 157.372 24.8547 157.684C24.6787 157.996 24.3667 158.256 23.9187 158.464C24.2067 158.576 24.4427 158.708 24.6267 158.86C24.8187 159.004 24.9707 159.168 25.0827 159.352C25.2027 159.528 25.2827 159.716 25.3227 159.916C25.3707 160.108 25.3947 160.308 25.3947 160.516C25.3947 160.868 25.3387 161.196 25.2267 161.5C25.1227 161.796 24.9507 162.056 24.7107 162.28C24.4707 162.504 24.1547 162.68 23.7627 162.808C23.3707 162.936 22.8867 163 22.3107 163H19.2507V154.432ZM22.2387 158.056C22.8867 158.056 23.3507 157.94 23.6307 157.708C23.9107 157.468 24.0507 157.12 24.0507 156.664C24.0507 156.2 23.8987 155.864 23.5947 155.656C23.2987 155.448 22.7867 155.344 22.0587 155.344H20.3307V158.056H22.2387ZM22.2747 162.088C22.6667 162.088 22.9907 162.052 23.2467 161.98C23.5107 161.908 23.7187 161.808 23.8707 161.68C24.0307 161.544 24.1387 161.384 24.1947 161.2C24.2587 161.008 24.2907 160.792 24.2907 160.552C24.2907 160.048 24.1427 159.664 23.8467 159.4C23.5507 159.128 23.0547 158.992 22.3587 158.992H20.3307V162.088H22.2747ZM26.6528 156.796H27.6968V160.708C27.6968 161.284 27.7888 161.692 27.9728 161.932C28.1648 162.172 28.4728 162.292 28.8968 162.292C29.3608 162.292 29.7808 162.124 30.1568 161.788C30.3568 161.612 30.5088 161.428 30.6128 161.236C30.7168 161.036 30.7688 160.78 30.7688 160.468V156.796H31.8128V163H30.7808V162.04C30.4768 162.44 30.1488 162.732 29.7968 162.916C29.4448 163.1 29.0648 163.192 28.6568 163.192C27.9528 163.192 27.4408 163.004 27.1208 162.628C26.8088 162.244 26.6528 161.672 26.6528 160.912V156.796ZM33.4393 156.796H34.4833V163H33.4393V156.796ZM33.4033 154.432H34.5193V155.644H33.4033V154.432ZM36.1346 154.432H37.1786V163H36.1346V154.432ZM43.318 162.112C43.062 162.456 42.766 162.724 42.43 162.916C42.094 163.1 41.698 163.192 41.242 163.192C40.786 163.192 40.39 163.108 40.054 162.94C39.726 162.772 39.454 162.544 39.238 162.256C39.022 161.96 38.862 161.612 38.758 161.212C38.654 160.812 38.602 160.384 38.602 159.928C38.602 159.416 38.666 158.956 38.794 158.548C38.922 158.132 39.102 157.78 39.334 157.492C39.574 157.204 39.862 156.984 40.198 156.832C40.542 156.68 40.93 156.604 41.362 156.604C41.69 156.604 42.022 156.672 42.358 156.808C42.694 156.936 43.006 157.184 43.294 157.552V154.432H44.338V163H43.318V162.112ZM43.33 159.712C43.33 159.216 43.274 158.832 43.162 158.56C43.058 158.28 42.882 158.044 42.634 157.852C42.458 157.708 42.278 157.608 42.094 157.552C41.918 157.496 41.722 157.468 41.506 157.468C41.25 157.468 41.01 157.512 40.786 157.6C40.57 157.688 40.378 157.832 40.21 158.032C40.05 158.224 39.922 158.476 39.826 158.788C39.738 159.092 39.694 159.464 39.694 159.904C39.694 160.36 39.742 160.744 39.838 161.056C39.942 161.368 40.074 161.616 40.234 161.8C40.402 161.984 40.586 162.116 40.786 162.196C40.994 162.276 41.206 162.316 41.422 162.316C41.654 162.316 41.862 162.288 42.046 162.232C42.23 162.176 42.414 162.08 42.598 161.944C42.838 161.752 43.018 161.512 43.138 161.224C43.266 160.936 43.33 160.572 43.33 160.132V159.712ZM45.9784 156.796H47.0224V163H45.9784V156.796ZM45.9424 154.432H47.0584V155.644H45.9424V154.432ZM48.6497 156.796H49.6817V157.744C49.9857 157.336 50.3217 157.044 50.6897 156.868C51.0577 156.692 51.4457 156.604 51.8537 156.604C52.5577 156.604 53.0777 156.796 53.4137 157.18C53.7577 157.564 53.9297 158.128 53.9297 158.872V163H52.8857V159.076C52.8857 158.5 52.7817 158.096 52.5737 157.864C52.3657 157.624 52.0457 157.504 51.6137 157.504C51.3817 157.504 51.1497 157.544 50.9177 157.624C50.6937 157.704 50.4897 157.832 50.3057 158.008C50.1057 158.184 49.9537 158.372 49.8497 158.572C49.7457 158.764 49.6937 159.016 49.6937 159.328V163H48.6497V156.796ZM56.5495 163.576C56.6375 163.952 56.8055 164.22 57.0535 164.38C57.3095 164.54 57.7055 164.62 58.2415 164.62C58.8975 164.62 59.3495 164.436 59.5975 164.068C59.8535 163.708 59.9815 163.18 59.9815 162.484V161.824C59.7415 162.16 59.4495 162.42 59.1055 162.604C58.7695 162.788 58.3735 162.88 57.9175 162.88C57.4695 162.88 57.0775 162.8 56.7415 162.64C56.4135 162.472 56.1415 162.248 55.9255 161.968C55.7095 161.68 55.5455 161.348 55.4335 160.972C55.3295 160.596 55.2775 160.192 55.2775 159.76C55.2775 159.288 55.3415 158.86 55.4695 158.476C55.5975 158.084 55.7815 157.752 56.0215 157.48C56.2615 157.2 56.5495 156.984 56.8855 156.832C57.2295 156.68 57.6135 156.604 58.0375 156.604C58.3815 156.604 58.7215 156.676 59.0575 156.82C59.4015 156.956 59.7135 157.212 59.9935 157.588V156.796H61.0255V161.992C61.0255 162.528 60.9855 163.008 60.9055 163.432C60.8335 163.864 60.6935 164.228 60.4855 164.524C60.2855 164.828 60.0055 165.06 59.6455 165.22C59.2855 165.38 58.8215 165.46 58.2535 165.46C57.4375 165.46 56.7975 165.312 56.3335 165.016C55.8695 164.728 55.5975 164.248 55.5175 163.576H56.5495ZM60.0055 159.664C60.0055 159.256 59.9575 158.916 59.8615 158.644C59.7655 158.364 59.6335 158.136 59.4655 157.96C59.2975 157.784 59.1015 157.66 58.8775 157.588C58.6615 157.508 58.4335 157.468 58.1935 157.468C57.9375 157.468 57.6975 157.512 57.4735 157.6C57.2575 157.68 57.0655 157.812 56.8975 157.996C56.7375 158.18 56.6095 158.416 56.5135 158.704C56.4255 158.992 56.3815 159.34 56.3815 159.748C56.3815 160.164 56.4295 160.516 56.5255 160.804C56.6295 161.092 56.7615 161.324 56.9215 161.5C57.0815 161.676 57.2655 161.804 57.4735 161.884C57.6895 161.964 57.9055 162.004 58.1215 162.004C58.3935 162.004 58.6415 161.96 58.8655 161.872C59.0975 161.784 59.2975 161.652 59.4655 161.476C59.6335 161.3 59.7655 161.08 59.8615 160.816C59.9575 160.544 60.0055 160.228 60.0055 159.868V159.664ZM65.278 164.32C65.502 164.4 65.726 164.44 65.95 164.44C66.206 164.44 66.402 164.372 66.538 164.236C66.682 164.108 66.822 163.864 66.958 163.504L67.21 162.844L64.582 156.796H65.794L67.75 161.668L69.538 156.796H70.69L67.978 163.588C67.866 163.868 67.754 164.112 67.642 164.32C67.53 164.536 67.406 164.72 67.27 164.872C67.134 165.024 66.97 165.136 66.778 165.208C66.594 165.288 66.366 165.328 66.094 165.328C65.902 165.328 65.73 165.316 65.578 165.292C65.426 165.268 65.258 165.224 65.074 165.16L65.278 164.32ZM74.1329 163.192C73.6609 163.192 73.2409 163.116 72.8729 162.964C72.5049 162.812 72.1929 162.596 71.9369 162.316C71.6809 162.036 71.4849 161.692 71.3489 161.284C71.2129 160.876 71.1449 160.42 71.1449 159.916C71.1449 159.412 71.2169 158.956 71.3609 158.548C71.5049 158.14 71.7089 157.792 71.9729 157.504C72.2369 157.216 72.5529 156.996 72.9209 156.844C73.2969 156.684 73.7129 156.604 74.1689 156.604C74.6329 156.604 75.0489 156.68 75.4169 156.832C75.7849 156.984 76.0969 157.204 76.3529 157.492C76.6169 157.772 76.8169 158.112 76.9529 158.512C77.0889 158.912 77.1569 159.364 77.1569 159.868C77.1569 160.38 77.0849 160.84 76.9409 161.248C76.8049 161.656 76.6049 162.004 76.3409 162.292C76.0849 162.58 75.7689 162.804 75.3929 162.964C75.0169 163.116 74.5969 163.192 74.1329 163.192ZM74.1449 162.328C74.4809 162.328 74.7689 162.268 75.0089 162.148C75.2489 162.028 75.4449 161.86 75.5969 161.644C75.7569 161.428 75.8729 161.172 75.9449 160.876C76.0169 160.572 76.0529 160.24 76.0529 159.88C76.0529 159.528 76.0169 159.204 75.9449 158.908C75.8729 158.612 75.7569 158.36 75.5969 158.152C75.4449 157.936 75.2489 157.768 75.0089 157.648C74.7689 157.528 74.4809 157.468 74.1449 157.468C73.8089 157.468 73.5209 157.528 73.2809 157.648C73.0489 157.768 72.8529 157.936 72.6929 158.152C72.5409 158.36 72.4289 158.612 72.3569 158.908C72.2849 159.204 72.2489 159.532 72.2489 159.892C72.2489 160.252 72.2849 160.58 72.3569 160.876C72.4289 161.172 72.5409 161.428 72.6929 161.644C72.8449 161.86 73.0409 162.028 73.2809 162.148C73.5209 162.268 73.8089 162.328 74.1449 162.328ZM78.52 156.796H79.564V160.708C79.564 161.284 79.656 161.692 79.84 161.932C80.032 162.172 80.34 162.292 80.764 162.292C81.228 162.292 81.648 162.124 82.024 161.788C82.224 161.612 82.376 161.428 82.48 161.236C82.584 161.036 82.636 160.78 82.636 160.468V156.796H83.68V163H82.648V162.04C82.344 162.44 82.016 162.732 81.664 162.916C81.312 163.1 80.932 163.192 80.524 163.192C79.82 163.192 79.308 163.004 78.988 162.628C78.676 162.244 78.52 161.672 78.52 160.912V156.796ZM85.2825 156.796H86.3145V157.756C86.5465 157.412 86.8185 157.148 87.1305 156.964C87.4425 156.78 87.7745 156.688 88.1265 156.688C88.3425 156.688 88.5265 156.704 88.6785 156.736L88.5465 157.708C88.4665 157.692 88.3865 157.68 88.3065 157.672C88.2265 157.656 88.1385 157.648 88.0425 157.648C87.8505 157.648 87.6545 157.684 87.4545 157.756C87.2545 157.82 87.0665 157.932 86.8905 158.092C86.7145 158.244 86.5745 158.42 86.4705 158.62C86.3745 158.82 86.3265 159.052 86.3265 159.316V163H85.2825V156.796ZM93.0209 161.188C93.0929 161.62 93.2729 161.924 93.5609 162.1C93.8569 162.268 94.2569 162.352 94.7609 162.352C95.2889 162.352 95.6609 162.264 95.8769 162.088C96.1009 161.904 96.2129 161.664 96.2129 161.368C96.2129 161.248 96.1969 161.136 96.1649 161.032C96.1409 160.92 96.0889 160.824 96.0089 160.744C95.9289 160.656 95.8169 160.58 95.6729 160.516C95.5289 160.452 95.3409 160.4 95.1089 160.36L94.3169 160.24C93.9649 160.184 93.6569 160.112 93.3929 160.024C93.1289 159.936 92.9049 159.824 92.7209 159.688C92.5369 159.544 92.3969 159.372 92.3009 159.172C92.2129 158.964 92.1689 158.716 92.1689 158.428C92.1689 158.14 92.2289 157.884 92.3489 157.66C92.4769 157.436 92.6489 157.248 92.8649 157.096C93.0889 156.936 93.3489 156.816 93.6449 156.736C93.9489 156.648 94.2769 156.604 94.6289 156.604C95.0769 156.604 95.4489 156.648 95.7449 156.736C96.0489 156.824 96.2969 156.944 96.4889 157.096C96.6809 157.248 96.8289 157.428 96.9329 157.636C97.0369 157.844 97.1169 158.064 97.1729 158.296L96.2249 158.452C96.1689 158.284 96.1049 158.136 96.0329 158.008C95.9609 157.88 95.8649 157.776 95.7449 157.696C95.6249 157.608 95.4769 157.544 95.3009 157.504C95.1329 157.456 94.9209 157.432 94.6649 157.432C94.3769 157.432 94.1369 157.46 93.9449 157.516C93.7529 157.564 93.5969 157.632 93.4769 157.72C93.3649 157.808 93.2849 157.908 93.2369 158.02C93.1889 158.124 93.1649 158.236 93.1649 158.356C93.1649 158.484 93.1809 158.6 93.2129 158.704C93.2449 158.8 93.3049 158.888 93.3929 158.968C93.4809 159.04 93.6009 159.104 93.7529 159.16C93.9049 159.216 94.1009 159.264 94.3409 159.304L95.2409 159.448C95.9689 159.568 96.4889 159.776 96.8009 160.072C97.1209 160.368 97.2809 160.8 97.2809 161.368C97.2809 161.632 97.2289 161.876 97.1249 162.1C97.0209 162.316 96.8649 162.508 96.6569 162.676C96.4489 162.836 96.1889 162.96 95.8769 163.048C95.5649 163.144 95.2009 163.192 94.7849 163.192C94.4089 163.192 94.0569 163.156 93.7289 163.084C93.4089 163.012 93.1249 162.9 92.8769 162.748C92.6289 162.588 92.4289 162.38 92.2769 162.124C92.1249 161.868 92.0369 161.556 92.0129 161.188H93.0209ZM98.6185 156.796H99.6505V157.684C99.9065 157.332 100.202 157.064 100.538 156.88C100.882 156.696 101.282 156.604 101.738 156.604C102.178 156.604 102.562 156.684 102.89 156.844C103.226 157.004 103.502 157.228 103.718 157.516C103.942 157.804 104.106 158.148 104.21 158.548C104.322 158.94 104.378 159.376 104.378 159.856C104.378 160.368 104.314 160.832 104.186 161.248C104.058 161.656 103.874 162.004 103.634 162.292C103.394 162.58 103.102 162.804 102.758 162.964C102.422 163.116 102.042 163.192 101.618 163.192C101.266 163.192 100.918 163.124 100.574 162.988C100.238 162.844 99.9345 162.592 99.6625 162.232V165.328H98.6185V156.796ZM99.6505 160.072C99.6505 160.472 99.6945 160.816 99.7825 161.104C99.8785 161.384 100.006 161.616 100.166 161.8C100.326 161.984 100.518 162.12 100.742 162.208C100.966 162.288 101.21 162.328 101.474 162.328C101.73 162.328 101.966 162.284 102.182 162.196C102.406 162.108 102.598 161.968 102.758 161.776C102.918 161.576 103.042 161.32 103.13 161.008C103.226 160.696 103.274 160.316 103.274 159.868C103.274 159.412 103.222 159.032 103.118 158.728C103.022 158.416 102.894 158.168 102.734 157.984C102.574 157.8 102.39 157.668 102.182 157.588C101.982 157.508 101.774 157.468 101.558 157.468C101.286 157.468 101.034 157.516 100.802 157.612C100.57 157.7 100.366 157.836 100.19 158.02C100.022 158.196 99.8905 158.424 99.7945 158.704C99.6985 158.976 99.6505 159.292 99.6505 159.652V160.072ZM108.563 163.192C108.091 163.192 107.671 163.116 107.303 162.964C106.935 162.812 106.623 162.596 106.367 162.316C106.111 162.036 105.915 161.692 105.779 161.284C105.643 160.876 105.575 160.42 105.575 159.916C105.575 159.412 105.647 158.956 105.791 158.548C105.935 158.14 106.139 157.792 106.403 157.504C106.667 157.216 106.983 156.996 107.351 156.844C107.727 156.684 108.143 156.604 108.599 156.604C109.063 156.604 109.479 156.68 109.847 156.832C110.215 156.984 110.527 157.204 110.783 157.492C111.047 157.772 111.247 158.112 111.383 158.512C111.519 158.912 111.587 159.364 111.587 159.868C111.587 160.38 111.515 160.84 111.371 161.248C111.235 161.656 111.035 162.004 110.771 162.292C110.515 162.58 110.199 162.804 109.823 162.964C109.447 163.116 109.027 163.192 108.563 163.192ZM108.575 162.328C108.911 162.328 109.199 162.268 109.439 162.148C109.679 162.028 109.875 161.86 110.027 161.644C110.187 161.428 110.303 161.172 110.375 160.876C110.447 160.572 110.483 160.24 110.483 159.88C110.483 159.528 110.447 159.204 110.375 158.908C110.303 158.612 110.187 158.36 110.027 158.152C109.875 157.936 109.679 157.768 109.439 157.648C109.199 157.528 108.911 157.468 108.575 157.468C108.239 157.468 107.951 157.528 107.711 157.648C107.479 157.768 107.283 157.936 107.123 158.152C106.971 158.36 106.859 158.612 106.787 158.908C106.715 159.204 106.679 159.532 106.679 159.892C106.679 160.252 106.715 160.58 106.787 160.876C106.859 161.172 106.971 161.428 107.123 161.644C107.275 161.86 107.471 162.028 107.711 162.148C107.951 162.268 108.239 162.328 108.575 162.328ZM112.986 156.796H114.018V157.744C114.322 157.336 114.658 157.044 115.026 156.868C115.394 156.692 115.782 156.604 116.19 156.604C116.894 156.604 117.414 156.796 117.75 157.18C118.094 157.564 118.266 158.128 118.266 158.872V163H117.222V159.076C117.222 158.5 117.118 158.096 116.91 157.864C116.702 157.624 116.382 157.504 115.95 157.504C115.718 157.504 115.486 157.544 115.254 157.624C115.03 157.704 114.826 157.832 114.642 158.008C114.442 158.184 114.29 158.372 114.186 158.572C114.082 158.764 114.03 159.016 114.03 159.328V163H112.986V156.796ZM120.501 161.188C120.573 161.62 120.753 161.924 121.041 162.1C121.337 162.268 121.737 162.352 122.241 162.352C122.769 162.352 123.141 162.264 123.357 162.088C123.581 161.904 123.693 161.664 123.693 161.368C123.693 161.248 123.677 161.136 123.645 161.032C123.621 160.92 123.569 160.824 123.489 160.744C123.409 160.656 123.297 160.58 123.153 160.516C123.009 160.452 122.821 160.4 122.589 160.36L121.797 160.24C121.445 160.184 121.137 160.112 120.873 160.024C120.609 159.936 120.385 159.824 120.201 159.688C120.017 159.544 119.877 159.372 119.781 159.172C119.693 158.964 119.649 158.716 119.649 158.428C119.649 158.14 119.709 157.884 119.829 157.66C119.957 157.436 120.129 157.248 120.345 157.096C120.569 156.936 120.829 156.816 121.125 156.736C121.429 156.648 121.757 156.604 122.109 156.604C122.557 156.604 122.929 156.648 123.225 156.736C123.529 156.824 123.777 156.944 123.969 157.096C124.161 157.248 124.309 157.428 124.413 157.636C124.517 157.844 124.597 158.064 124.653 158.296L123.705 158.452C123.649 158.284 123.585 158.136 123.513 158.008C123.441 157.88 123.345 157.776 123.225 157.696C123.105 157.608 122.957 157.544 122.781 157.504C122.613 157.456 122.401 157.432 122.145 157.432C121.857 157.432 121.617 157.46 121.425 157.516C121.233 157.564 121.077 157.632 120.957 157.72C120.845 157.808 120.765 157.908 120.717 158.02C120.669 158.124 120.645 158.236 120.645 158.356C120.645 158.484 120.661 158.6 120.693 158.704C120.725 158.8 120.785 158.888 120.873 158.968C120.961 159.04 121.081 159.104 121.233 159.16C121.385 159.216 121.581 159.264 121.821 159.304L122.721 159.448C123.449 159.568 123.969 159.776 124.281 160.072C124.601 160.368 124.761 160.8 124.761 161.368C124.761 161.632 124.709 161.876 124.605 162.1C124.501 162.316 124.345 162.508 124.137 162.676C123.929 162.836 123.669 162.96 123.357 163.048C123.045 163.144 122.681 163.192 122.265 163.192C121.889 163.192 121.537 163.156 121.209 163.084C120.889 163.012 120.605 162.9 120.357 162.748C120.109 162.588 119.909 162.38 119.757 162.124C119.605 161.868 119.517 161.556 119.493 161.188H120.501ZM128.707 163.192C128.235 163.192 127.815 163.116 127.447 162.964C127.079 162.812 126.767 162.596 126.511 162.316C126.255 162.036 126.059 161.692 125.923 161.284C125.787 160.876 125.719 160.42 125.719 159.916C125.719 159.412 125.791 158.956 125.935 158.548C126.079 158.14 126.283 157.792 126.547 157.504C126.811 157.216 127.127 156.996 127.495 156.844C127.871 156.684 128.287 156.604 128.743 156.604C129.207 156.604 129.623 156.68 129.991 156.832C130.359 156.984 130.671 157.204 130.927 157.492C131.191 157.772 131.391 158.112 131.527 158.512C131.663 158.912 131.731 159.364 131.731 159.868C131.731 160.38 131.659 160.84 131.515 161.248C131.379 161.656 131.179 162.004 130.915 162.292C130.659 162.58 130.343 162.804 129.967 162.964C129.591 163.116 129.171 163.192 128.707 163.192ZM128.719 162.328C129.055 162.328 129.343 162.268 129.583 162.148C129.823 162.028 130.019 161.86 130.171 161.644C130.331 161.428 130.447 161.172 130.519 160.876C130.591 160.572 130.627 160.24 130.627 159.88C130.627 159.528 130.591 159.204 130.519 158.908C130.447 158.612 130.331 158.36 130.171 158.152C130.019 157.936 129.823 157.768 129.583 157.648C129.343 157.528 129.055 157.468 128.719 157.468C128.383 157.468 128.095 157.528 127.855 157.648C127.623 157.768 127.427 157.936 127.267 158.152C127.115 158.36 127.003 158.612 126.931 158.908C126.859 159.204 126.823 159.532 126.823 159.892C126.823 160.252 126.859 160.58 126.931 160.876C127.003 161.172 127.115 161.428 127.267 161.644C127.419 161.86 127.615 162.028 127.855 162.148C128.095 162.268 128.383 162.328 128.719 162.328ZM133.13 156.796H134.162V157.756C134.394 157.412 134.666 157.148 134.978 156.964C135.29 156.78 135.622 156.688 135.974 156.688C136.19 156.688 136.374 156.704 136.526 156.736L136.394 157.708C136.314 157.692 136.234 157.68 136.154 157.672C136.074 157.656 135.986 157.648 135.89 157.648C135.698 157.648 135.502 157.684 135.302 157.756C135.102 157.82 134.914 157.932 134.738 158.092C134.562 158.244 134.422 158.42 134.318 158.62C134.222 158.82 134.174 159.052 134.174 159.316V163H133.13V156.796ZM138.08 161.188C138.152 161.62 138.332 161.924 138.62 162.1C138.916 162.268 139.316 162.352 139.82 162.352C140.348 162.352 140.72 162.264 140.936 162.088C141.16 161.904 141.272 161.664 141.272 161.368C141.272 161.248 141.256 161.136 141.224 161.032C141.2 160.92 141.148 160.824 141.068 160.744C140.988 160.656 140.876 160.58 140.732 160.516C140.588 160.452 140.4 160.4 140.168 160.36L139.376 160.24C139.024 160.184 138.716 160.112 138.452 160.024C138.188 159.936 137.964 159.824 137.78 159.688C137.596 159.544 137.456 159.372 137.36 159.172C137.272 158.964 137.228 158.716 137.228 158.428C137.228 158.14 137.288 157.884 137.408 157.66C137.536 157.436 137.708 157.248 137.924 157.096C138.148 156.936 138.408 156.816 138.704 156.736C139.008 156.648 139.336 156.604 139.688 156.604C140.136 156.604 140.508 156.648 140.804 156.736C141.108 156.824 141.356 156.944 141.548 157.096C141.74 157.248 141.888 157.428 141.992 157.636C142.096 157.844 142.176 158.064 142.232 158.296L141.284 158.452C141.228 158.284 141.164 158.136 141.092 158.008C141.02 157.88 140.924 157.776 140.804 157.696C140.684 157.608 140.536 157.544 140.36 157.504C140.192 157.456 139.98 157.432 139.724 157.432C139.436 157.432 139.196 157.46 139.004 157.516C138.812 157.564 138.656 157.632 138.536 157.72C138.424 157.808 138.344 157.908 138.296 158.02C138.248 158.124 138.224 158.236 138.224 158.356C138.224 158.484 138.24 158.6 138.272 158.704C138.304 158.8 138.364 158.888 138.452 158.968C138.54 159.04 138.66 159.104 138.812 159.16C138.964 159.216 139.16 159.264 139.4 159.304L140.3 159.448C141.028 159.568 141.548 159.776 141.86 160.072C142.18 160.368 142.34 160.8 142.34 161.368C142.34 161.632 142.288 161.876 142.184 162.1C142.08 162.316 141.924 162.508 141.716 162.676C141.508 162.836 141.248 162.96 140.936 163.048C140.624 163.144 140.26 163.192 139.844 163.192C139.468 163.192 139.116 163.156 138.788 163.084C138.468 163.012 138.184 162.9 137.936 162.748C137.688 162.588 137.488 162.38 137.336 162.124C137.184 161.868 137.096 161.556 137.072 161.188H138.08ZM143.677 154.432H144.721V157.72C145.025 157.328 145.357 157.044 145.717 156.868C146.085 156.692 146.473 156.604 146.881 156.604C147.585 156.604 148.105 156.796 148.441 157.18C148.785 157.564 148.957 158.128 148.957 158.872V163H147.901V159.076C147.901 158.5 147.797 158.096 147.589 157.864C147.389 157.624 147.073 157.504 146.641 157.504C146.409 157.504 146.177 157.544 145.945 157.624C145.721 157.704 145.517 157.832 145.333 158.008C145.133 158.184 144.981 158.372 144.877 158.572C144.773 158.764 144.721 159.016 144.721 159.328V163H143.677V154.432ZM150.545 156.796H151.589V163H150.545V156.796ZM150.509 154.432H151.625V155.644H150.509V154.432ZM153.216 156.796H154.248V157.684C154.504 157.332 154.8 157.064 155.136 156.88C155.48 156.696 155.88 156.604 156.336 156.604C156.776 156.604 157.16 156.684 157.488 156.844C157.824 157.004 158.1 157.228 158.316 157.516C158.54 157.804 158.704 158.148 158.808 158.548C158.92 158.94 158.976 159.376 158.976 159.856C158.976 160.368 158.912 160.832 158.784 161.248C158.656 161.656 158.472 162.004 158.232 162.292C157.992 162.58 157.7 162.804 157.356 162.964C157.02 163.116 156.64 163.192 156.216 163.192C155.864 163.192 155.516 163.124 155.172 162.988C154.836 162.844 154.532 162.592 154.26 162.232V165.328H153.216V156.796ZM154.248 160.072C154.248 160.472 154.292 160.816 154.38 161.104C154.476 161.384 154.604 161.616 154.764 161.8C154.924 161.984 155.116 162.12 155.34 162.208C155.564 162.288 155.808 162.328 156.072 162.328C156.328 162.328 156.564 162.284 156.78 162.196C157.004 162.108 157.196 161.968 157.356 161.776C157.516 161.576 157.64 161.32 157.728 161.008C157.824 160.696 157.872 160.316 157.872 159.868C157.872 159.412 157.82 159.032 157.716 158.728C157.62 158.416 157.492 158.168 157.332 157.984C157.172 157.8 156.988 157.668 156.78 157.588C156.58 157.508 156.372 157.468 156.156 157.468C155.884 157.468 155.632 157.516 155.4 157.612C155.168 157.7 154.964 157.836 154.788 158.02C154.62 158.196 154.488 158.424 154.392 158.704C154.296 158.976 154.248 159.292 154.248 159.652V160.072ZM161.048 161.188C161.12 161.62 161.3 161.924 161.588 162.1C161.884 162.268 162.284 162.352 162.788 162.352C163.316 162.352 163.688 162.264 163.904 162.088C164.128 161.904 164.24 161.664 164.24 161.368C164.24 161.248 164.224 161.136 164.192 161.032C164.168 160.92 164.116 160.824 164.036 160.744C163.956 160.656 163.844 160.58 163.7 160.516C163.556 160.452 163.368 160.4 163.136 160.36L162.344 160.24C161.992 160.184 161.684 160.112 161.42 160.024C161.156 159.936 160.932 159.824 160.748 159.688C160.564 159.544 160.424 159.372 160.328 159.172C160.24 158.964 160.196 158.716 160.196 158.428C160.196 158.14 160.256 157.884 160.376 157.66C160.504 157.436 160.676 157.248 160.892 157.096C161.116 156.936 161.376 156.816 161.672 156.736C161.976 156.648 162.304 156.604 162.656 156.604C163.104 156.604 163.476 156.648 163.772 156.736C164.076 156.824 164.324 156.944 164.516 157.096C164.708 157.248 164.856 157.428 164.96 157.636C165.064 157.844 165.144 158.064 165.2 158.296L164.252 158.452C164.196 158.284 164.132 158.136 164.06 158.008C163.988 157.88 163.892 157.776 163.772 157.696C163.652 157.608 163.504 157.544 163.328 157.504C163.16 157.456 162.948 157.432 162.692 157.432C162.404 157.432 162.164 157.46 161.972 157.516C161.78 157.564 161.624 157.632 161.504 157.72C161.392 157.808 161.312 157.908 161.264 158.02C161.216 158.124 161.192 158.236 161.192 158.356C161.192 158.484 161.208 158.6 161.24 158.704C161.272 158.8 161.332 158.888 161.42 158.968C161.508 159.04 161.628 159.104 161.78 159.16C161.932 159.216 162.128 159.264 162.368 159.304L163.268 159.448C163.996 159.568 164.516 159.776 164.828 160.072C165.148 160.368 165.308 160.8 165.308 161.368C165.308 161.632 165.256 161.876 165.152 162.1C165.048 162.316 164.892 162.508 164.684 162.676C164.476 162.836 164.216 162.96 163.904 163.048C163.592 163.144 163.228 163.192 162.812 163.192C162.436 163.192 162.084 163.156 161.756 163.084C161.436 163.012 161.152 162.9 160.904 162.748C160.656 162.588 160.456 162.38 160.304 162.124C160.152 161.868 160.064 161.556 160.04 161.188H161.048ZM168.61 156.796H169.75L170.998 161.74L172.426 156.832H173.482L174.874 161.74L176.11 156.796H177.214L175.402 163H174.298L172.906 158.056L171.502 163H170.41L168.61 156.796ZM178.142 156.796H179.186V163H178.142V156.796ZM178.106 154.432H179.222V155.644H178.106V154.432ZM180.838 154.432H181.882V163H180.838V154.432ZM183.533 154.432H184.577V163H183.533V154.432ZM188.876 156.796H189.908V157.744C190.212 157.336 190.548 157.044 190.916 156.868C191.284 156.692 191.672 156.604 192.08 156.604C192.784 156.604 193.304 156.796 193.64 157.18C193.984 157.564 194.156 158.128 194.156 158.872V163H193.112V159.076C193.112 158.5 193.008 158.096 192.8 157.864C192.592 157.624 192.272 157.504 191.84 157.504C191.608 157.504 191.376 157.544 191.144 157.624C190.92 157.704 190.716 157.832 190.532 158.008C190.332 158.184 190.18 158.372 190.076 158.572C189.972 158.764 189.92 159.016 189.92 159.328V163H188.876V156.796ZM201.084 161.26C200.98 161.86 200.712 162.332 200.28 162.676C199.856 163.02 199.244 163.192 198.444 163.192C197.5 163.192 196.776 162.908 196.272 162.34C195.768 161.764 195.516 160.964 195.516 159.94C195.516 159.404 195.588 158.928 195.732 158.512C195.876 158.096 196.076 157.748 196.332 157.468C196.596 157.188 196.908 156.976 197.268 156.832C197.628 156.68 198.02 156.604 198.444 156.604C198.924 156.604 199.336 156.68 199.68 156.832C200.024 156.984 200.304 157.196 200.52 157.468C200.744 157.732 200.908 158.048 201.012 158.416C201.124 158.784 201.18 159.188 201.18 159.628V160.156H196.572C196.572 160.468 196.612 160.76 196.692 161.032C196.78 161.296 196.9 161.528 197.052 161.728C197.212 161.92 197.408 162.072 197.64 162.184C197.872 162.296 198.14 162.352 198.444 162.352C198.964 162.352 199.344 162.256 199.584 162.064C199.824 161.864 199.988 161.596 200.076 161.26H201.084ZM200.136 159.376C200.136 159.08 200.104 158.812 200.04 158.572C199.976 158.332 199.876 158.128 199.74 157.96C199.604 157.784 199.428 157.648 199.212 157.552C198.996 157.456 198.736 157.408 198.432 157.408C197.88 157.408 197.448 157.576 197.136 157.912C196.832 158.248 196.652 158.736 196.596 159.376H200.136ZM201.668 156.796H202.88L204.728 161.836L206.612 156.796H207.764L205.268 163H204.152L201.668 156.796ZM213.775 161.26C213.671 161.86 213.403 162.332 212.971 162.676C212.547 163.02 211.935 163.192 211.135 163.192C210.191 163.192 209.467 162.908 208.963 162.34C208.459 161.764 208.207 160.964 208.207 159.94C208.207 159.404 208.279 158.928 208.423 158.512C208.567 158.096 208.767 157.748 209.023 157.468C209.287 157.188 209.599 156.976 209.959 156.832C210.319 156.68 210.711 156.604 211.135 156.604C211.615 156.604 212.027 156.68 212.371 156.832C212.715 156.984 212.995 157.196 213.211 157.468C213.435 157.732 213.599 158.048 213.703 158.416C213.815 158.784 213.871 159.188 213.871 159.628V160.156H209.263C209.263 160.468 209.303 160.76 209.383 161.032C209.471 161.296 209.591 161.528 209.743 161.728C209.903 161.92 210.099 162.072 210.331 162.184C210.563 162.296 210.831 162.352 211.135 162.352C211.655 162.352 212.035 162.256 212.275 162.064C212.515 161.864 212.679 161.596 212.767 161.26H213.775ZM212.827 159.376C212.827 159.08 212.795 158.812 212.731 158.572C212.667 158.332 212.567 158.128 212.431 157.96C212.295 157.784 212.119 157.648 211.903 157.552C211.687 157.456 211.427 157.408 211.123 157.408C210.571 157.408 210.139 157.576 209.827 157.912C209.523 158.248 209.343 158.736 209.287 159.376H212.827ZM215.255 156.796H216.287V157.756C216.519 157.412 216.791 157.148 217.103 156.964C217.415 156.78 217.747 156.688 218.099 156.688C218.315 156.688 218.499 156.704 218.651 156.736L218.519 157.708C218.439 157.692 218.359 157.68 218.279 157.672C218.199 157.656 218.111 157.648 218.015 157.648C217.823 157.648 217.627 157.684 217.427 157.756C217.227 157.82 217.039 157.932 216.863 158.092C216.687 158.244 216.547 158.42 216.443 158.62C216.347 158.82 216.299 159.052 216.299 159.316V163H215.255V156.796ZM222.322 154.432H223.366V157.66C223.622 157.324 223.918 157.064 224.254 156.88C224.59 156.696 224.986 156.604 225.442 156.604C225.882 156.604 226.266 156.684 226.594 156.844C226.93 157.004 227.206 157.228 227.422 157.516C227.646 157.804 227.81 158.148 227.914 158.548C228.026 158.94 228.082 159.376 228.082 159.856C228.082 160.368 228.018 160.832 227.89 161.248C227.762 161.656 227.578 162.004 227.338 162.292C227.098 162.58 226.806 162.804 226.462 162.964C226.126 163.116 225.746 163.192 225.322 163.192C224.962 163.192 224.61 163.12 224.266 162.976C223.93 162.824 223.626 162.568 223.354 162.208V163H222.322V154.432ZM223.354 160.072C223.354 160.472 223.398 160.816 223.486 161.104C223.582 161.384 223.71 161.616 223.87 161.8C224.03 161.984 224.222 162.12 224.446 162.208C224.67 162.288 224.914 162.328 225.178 162.328C225.434 162.328 225.67 162.284 225.886 162.196C226.11 162.108 226.302 161.968 226.462 161.776C226.622 161.576 226.746 161.32 226.834 161.008C226.93 160.696 226.978 160.316 226.978 159.868C226.978 159.412 226.926 159.032 226.822 158.728C226.726 158.416 226.598 158.168 226.438 157.984C226.278 157.8 226.094 157.668 225.886 157.588C225.686 157.508 225.478 157.468 225.262 157.468C224.99 157.468 224.738 157.516 224.506 157.612C224.274 157.7 224.07 157.836 223.894 158.02C223.726 158.196 223.594 158.424 223.498 158.704C223.402 158.976 223.354 159.292 223.354 159.652V160.072ZM234.846 161.26C234.742 161.86 234.474 162.332 234.042 162.676C233.618 163.02 233.006 163.192 232.206 163.192C231.262 163.192 230.538 162.908 230.034 162.34C229.53 161.764 229.278 160.964 229.278 159.94C229.278 159.404 229.35 158.928 229.494 158.512C229.638 158.096 229.838 157.748 230.094 157.468C230.358 157.188 230.67 156.976 231.03 156.832C231.39 156.68 231.782 156.604 232.206 156.604C232.686 156.604 233.098 156.68 233.442 156.832C233.786 156.984 234.066 157.196 234.282 157.468C234.506 157.732 234.67 158.048 234.774 158.416C234.886 158.784 234.942 159.188 234.942 159.628V160.156H230.334C230.334 160.468 230.374 160.76 230.454 161.032C230.542 161.296 230.662 161.528 230.814 161.728C230.974 161.92 231.17 162.072 231.402 162.184C231.634 162.296 231.902 162.352 232.206 162.352C232.726 162.352 233.106 162.256 233.346 162.064C233.586 161.864 233.75 161.596 233.838 161.26H234.846ZM233.898 159.376C233.898 159.08 233.866 158.812 233.802 158.572C233.738 158.332 233.638 158.128 233.502 157.96C233.366 157.784 233.19 157.648 232.974 157.552C232.758 157.456 232.498 157.408 232.194 157.408C231.642 157.408 231.21 157.576 230.898 157.912C230.594 158.248 230.414 158.736 230.358 159.376H233.898ZM244.361 161.26C244.257 161.86 243.989 162.332 243.557 162.676C243.133 163.02 242.521 163.192 241.721 163.192C240.777 163.192 240.053 162.908 239.549 162.34C239.045 161.764 238.793 160.964 238.793 159.94C238.793 159.404 238.865 158.928 239.009 158.512C239.153 158.096 239.353 157.748 239.609 157.468C239.873 157.188 240.185 156.976 240.545 156.832C240.905 156.68 241.297 156.604 241.721 156.604C242.201 156.604 242.613 156.68 242.957 156.832C243.301 156.984 243.581 157.196 243.797 157.468C244.021 157.732 244.185 158.048 244.289 158.416C244.401 158.784 244.457 159.188 244.457 159.628V160.156H239.849C239.849 160.468 239.889 160.76 239.969 161.032C240.057 161.296 240.177 161.528 240.329 161.728C240.489 161.92 240.685 162.072 240.917 162.184C241.149 162.296 241.417 162.352 241.721 162.352C242.241 162.352 242.621 162.256 242.861 162.064C243.101 161.864 243.265 161.596 243.353 161.26H244.361ZM243.413 159.376C243.413 159.08 243.381 158.812 243.317 158.572C243.253 158.332 243.153 158.128 243.017 157.96C242.881 157.784 242.705 157.648 242.489 157.552C242.273 157.456 242.013 157.408 241.709 157.408C241.157 157.408 240.725 157.576 240.413 157.912C240.109 158.248 239.929 158.736 239.873 159.376H243.413ZM249.705 162.148C249.481 162.42 249.197 162.656 248.853 162.856C248.509 163.048 248.081 163.144 247.569 163.144C247.257 163.144 246.969 163.104 246.705 163.024C246.449 162.952 246.225 162.84 246.033 162.688C245.849 162.528 245.705 162.332 245.601 162.1C245.497 161.868 245.445 161.596 245.445 161.284C245.445 160.86 245.533 160.516 245.709 160.252C245.893 159.988 246.133 159.78 246.429 159.628C246.733 159.476 247.073 159.368 247.449 159.304C247.825 159.24 248.213 159.2 248.613 159.184L249.681 159.148V158.908C249.681 158.38 249.569 158 249.345 157.768C249.121 157.536 248.757 157.42 248.253 157.42C247.757 157.42 247.393 157.504 247.161 157.672C246.929 157.832 246.777 158.056 246.705 158.344L245.757 158.236C245.869 157.668 246.137 157.256 246.561 157C246.985 156.736 247.561 156.604 248.289 156.604C248.737 156.604 249.113 156.66 249.417 156.772C249.729 156.876 249.981 157.028 250.173 157.228C250.365 157.428 250.501 157.676 250.581 157.972C250.669 158.268 250.713 158.6 250.713 158.968V163H249.705V162.148ZM249.681 159.892L248.685 159.928C248.261 159.944 247.909 159.984 247.629 160.048C247.349 160.112 247.125 160.2 246.957 160.312C246.797 160.416 246.681 160.548 246.609 160.708C246.545 160.868 246.513 161.052 246.513 161.26C246.513 161.572 246.605 161.824 246.789 162.016C246.981 162.2 247.293 162.292 247.725 162.292C248.341 162.292 248.821 162.14 249.165 161.836C249.509 161.532 249.681 161.116 249.681 160.588V159.892ZM252.97 161.188C253.042 161.62 253.222 161.924 253.51 162.1C253.806 162.268 254.206 162.352 254.71 162.352C255.238 162.352 255.61 162.264 255.826 162.088C256.05 161.904 256.162 161.664 256.162 161.368C256.162 161.248 256.146 161.136 256.114 161.032C256.09 160.92 256.038 160.824 255.958 160.744C255.878 160.656 255.766 160.58 255.622 160.516C255.478 160.452 255.29 160.4 255.058 160.36L254.266 160.24C253.914 160.184 253.606 160.112 253.342 160.024C253.078 159.936 252.854 159.824 252.67 159.688C252.486 159.544 252.346 159.372 252.25 159.172C252.162 158.964 252.118 158.716 252.118 158.428C252.118 158.14 252.178 157.884 252.298 157.66C252.426 157.436 252.598 157.248 252.814 157.096C253.038 156.936 253.298 156.816 253.594 156.736C253.898 156.648 254.226 156.604 254.578 156.604C255.026 156.604 255.398 156.648 255.694 156.736C255.998 156.824 256.246 156.944 256.438 157.096C256.63 157.248 256.778 157.428 256.882 157.636C256.986 157.844 257.066 158.064 257.122 158.296L256.174 158.452C256.118 158.284 256.054 158.136 255.982 158.008C255.91 157.88 255.814 157.776 255.694 157.696C255.574 157.608 255.426 157.544 255.25 157.504C255.082 157.456 254.87 157.432 254.614 157.432C254.326 157.432 254.086 157.46 253.894 157.516C253.702 157.564 253.546 157.632 253.426 157.72C253.314 157.808 253.234 157.908 253.186 158.02C253.138 158.124 253.114 158.236 253.114 158.356C253.114 158.484 253.13 158.6 253.162 158.704C253.194 158.8 253.254 158.888 253.342 158.968C253.43 159.04 253.55 159.104 253.702 159.16C253.854 159.216 254.05 159.264 254.29 159.304L255.19 159.448C255.918 159.568 256.438 159.776 256.75 160.072C257.07 160.368 257.23 160.8 257.23 161.368C257.23 161.632 257.178 161.876 257.074 162.1C256.97 162.316 256.814 162.508 256.606 162.676C256.398 162.836 256.138 162.96 255.826 163.048C255.514 163.144 255.15 163.192 254.734 163.192C254.358 163.192 254.006 163.156 253.678 163.084C253.358 163.012 253.074 162.9 252.826 162.748C252.578 162.588 252.378 162.38 252.226 162.124C252.074 161.868 251.986 161.556 251.962 161.188H252.97ZM258.592 156.796H259.636V163H258.592V156.796ZM258.556 154.432H259.672V155.644H258.556V154.432ZM266.627 161.26C266.523 161.86 266.255 162.332 265.823 162.676C265.399 163.02 264.787 163.192 263.987 163.192C263.043 163.192 262.319 162.908 261.815 162.34C261.311 161.764 261.059 160.964 261.059 159.94C261.059 159.404 261.131 158.928 261.275 158.512C261.419 158.096 261.619 157.748 261.875 157.468C262.139 157.188 262.451 156.976 262.811 156.832C263.171 156.68 263.563 156.604 263.987 156.604C264.467 156.604 264.879 156.68 265.223 156.832C265.567 156.984 265.847 157.196 266.063 157.468C266.287 157.732 266.451 158.048 266.555 158.416C266.667 158.784 266.723 159.188 266.723 159.628V160.156H262.115C262.115 160.468 262.155 160.76 262.235 161.032C262.323 161.296 262.443 161.528 262.595 161.728C262.755 161.92 262.951 162.072 263.183 162.184C263.415 162.296 263.683 162.352 263.987 162.352C264.507 162.352 264.887 162.256 265.127 162.064C265.367 161.864 265.531 161.596 265.619 161.26H266.627ZM265.679 159.376C265.679 159.08 265.647 158.812 265.583 158.572C265.519 158.332 265.419 158.128 265.283 157.96C265.147 157.784 264.971 157.648 264.755 157.552C264.539 157.456 264.279 157.408 263.975 157.408C263.423 157.408 262.991 157.576 262.679 157.912C262.375 158.248 262.195 158.736 262.139 159.376H265.679ZM268.107 156.796H269.139V157.756C269.371 157.412 269.643 157.148 269.955 156.964C270.267 156.78 270.599 156.688 270.951 156.688C271.167 156.688 271.351 156.704 271.503 156.736L271.371 157.708C271.291 157.692 271.211 157.68 271.131 157.672C271.051 157.656 270.963 157.648 270.867 157.648C270.675 157.648 270.479 157.684 270.279 157.756C270.079 157.82 269.891 157.932 269.715 158.092C269.539 158.244 269.399 158.42 269.295 158.62C269.199 158.82 269.151 159.052 269.151 159.316V163H268.107V156.796Z" fill="#D2D2D3"/>
<rect x="109" y="186" width="73" height="31.5" rx="6" fill="#BBDCD2"/>
<path d="M126.536 198.372V204.665H130.194L130.039 205.75H125.285V198.372H126.536ZM135.614 204.159C135.518 204.717 135.28 205.151 134.901 205.461C134.523 205.764 133.978 205.915 133.269 205.915C132.415 205.915 131.764 205.671 131.316 205.182C130.875 204.686 130.654 203.99 130.654 203.094C130.654 202.633 130.716 202.223 130.84 201.865C130.971 201.506 131.15 201.207 131.378 200.966C131.612 200.718 131.888 200.532 132.204 200.408C132.528 200.277 132.883 200.211 133.269 200.211C133.682 200.211 134.04 200.277 134.343 200.408C134.647 200.532 134.898 200.711 135.098 200.945C135.298 201.172 135.446 201.448 135.542 201.772C135.639 202.089 135.687 202.443 135.687 202.836V203.353H131.832C131.846 203.842 131.97 204.238 132.204 204.541C132.439 204.844 132.793 204.996 133.269 204.996C133.641 204.996 133.92 204.923 134.106 204.779C134.292 204.634 134.416 204.427 134.478 204.159H135.614ZM134.54 202.536C134.54 202.095 134.436 201.748 134.23 201.493C134.023 201.238 133.692 201.11 133.238 201.11C132.804 201.11 132.473 201.241 132.246 201.503C132.018 201.758 131.888 202.102 131.853 202.536H134.54ZM136.204 201.307V200.377H137.052V198.93H138.219V200.377H139.552V201.307H138.219V204.117C138.219 204.393 138.274 204.593 138.385 204.717C138.502 204.841 138.67 204.903 138.891 204.903C139.008 204.903 139.118 204.896 139.222 204.882C139.332 204.868 139.439 204.844 139.542 204.81L139.718 205.688C139.387 205.798 139.029 205.853 138.643 205.853C138.05 205.853 137.637 205.702 137.403 205.399C137.169 205.089 137.052 204.627 137.052 204.014V201.307H136.204ZM141.581 198.372L140.981 200.8H140.072L140.403 198.372H141.581ZM143.395 204.107C143.416 204.286 143.464 204.434 143.54 204.551C143.616 204.662 143.709 204.751 143.819 204.82C143.936 204.889 144.07 204.937 144.222 204.965C144.374 204.985 144.535 204.996 144.708 204.996C145.1 204.996 145.383 204.937 145.555 204.82C145.727 204.703 145.813 204.531 145.813 204.303C145.813 204.124 145.758 203.973 145.648 203.849C145.545 203.725 145.328 203.635 144.997 203.58C144.57 203.504 144.194 203.432 143.871 203.363C143.547 203.294 143.275 203.201 143.054 203.084C142.834 202.96 142.669 202.805 142.558 202.619C142.448 202.426 142.393 202.168 142.393 201.844C142.393 201.596 142.448 201.372 142.558 201.172C142.669 200.966 142.82 200.793 143.013 200.656C143.213 200.511 143.447 200.401 143.716 200.325C143.991 200.249 144.291 200.211 144.615 200.211C145.028 200.211 145.372 200.253 145.648 200.335C145.924 200.418 146.147 200.532 146.32 200.676C146.492 200.821 146.623 200.986 146.712 201.172C146.802 201.358 146.871 201.555 146.919 201.761L145.865 201.906C145.782 201.637 145.655 201.438 145.483 201.307C145.317 201.176 145.038 201.11 144.646 201.11C144.418 201.11 144.232 201.131 144.088 201.172C143.943 201.214 143.826 201.265 143.736 201.327C143.654 201.389 143.595 201.458 143.561 201.534C143.533 201.61 143.519 201.686 143.519 201.761C143.519 201.878 143.533 201.975 143.561 202.051C143.588 202.126 143.636 202.188 143.705 202.237C143.781 202.285 143.881 202.326 144.005 202.361C144.129 202.395 144.284 202.43 144.47 202.464L145.142 202.578C145.5 202.64 145.796 202.719 146.03 202.815C146.271 202.912 146.461 203.032 146.599 203.177C146.743 203.315 146.843 203.477 146.898 203.663C146.953 203.849 146.981 204.055 146.981 204.283C146.981 204.772 146.795 205.168 146.423 205.471C146.051 205.767 145.486 205.915 144.728 205.915C144.418 205.915 144.119 205.884 143.829 205.822C143.547 205.767 143.292 205.671 143.065 205.533C142.837 205.395 142.651 205.213 142.507 204.985C142.369 204.751 142.29 204.458 142.269 204.107H143.395ZM156.384 201.834V204.872C156.005 205.223 155.557 205.488 155.04 205.667C154.524 205.846 154.004 205.936 153.48 205.936C152.908 205.936 152.405 205.846 151.971 205.667C151.544 205.481 151.186 205.223 150.897 204.892C150.607 204.555 150.39 204.148 150.246 203.673C150.101 203.198 150.029 202.664 150.029 202.071C150.029 201.472 150.108 200.935 150.266 200.459C150.425 199.977 150.649 199.567 150.938 199.23C151.227 198.892 151.579 198.634 151.992 198.455C152.405 198.276 152.867 198.186 153.377 198.186C153.824 198.186 154.214 198.245 154.544 198.362C154.882 198.472 155.164 198.627 155.392 198.827C155.626 199.026 155.812 199.261 155.95 199.529C156.094 199.791 156.198 200.074 156.26 200.377L155.03 200.552C154.975 200.346 154.906 200.163 154.823 200.005C154.748 199.839 154.644 199.702 154.513 199.591C154.389 199.481 154.234 199.398 154.048 199.343C153.862 199.281 153.638 199.25 153.377 199.25C153.032 199.25 152.729 199.319 152.467 199.457C152.212 199.588 151.999 199.777 151.827 200.025C151.654 200.273 151.527 200.57 151.444 200.914C151.362 201.258 151.32 201.641 151.32 202.061C151.32 202.495 151.362 202.884 151.444 203.229C151.527 203.573 151.658 203.869 151.837 204.117C152.016 204.358 152.24 204.544 152.509 204.675C152.784 204.806 153.115 204.872 153.501 204.872C153.845 204.872 154.155 204.837 154.431 204.768C154.706 204.693 154.971 204.565 155.226 204.386V202.888H153.594V201.834H156.384ZM159.977 204.965C160.473 204.965 160.834 204.796 161.062 204.458C161.296 204.114 161.413 203.645 161.413 203.053C161.413 202.467 161.296 202.006 161.062 201.668C160.834 201.331 160.473 201.162 159.977 201.162C159.481 201.162 159.115 201.334 158.881 201.679C158.654 202.016 158.54 202.474 158.54 203.053C158.54 203.639 158.65 204.104 158.871 204.448C159.098 204.792 159.467 204.965 159.977 204.965ZM159.966 205.915C159.126 205.915 158.475 205.667 158.013 205.171C157.552 204.675 157.321 203.973 157.321 203.063C157.321 202.636 157.379 202.247 157.497 201.896C157.621 201.544 157.796 201.245 158.024 200.997C158.251 200.749 158.53 200.556 158.861 200.418C159.191 200.28 159.567 200.211 159.987 200.211C160.414 200.211 160.793 200.284 161.124 200.428C161.454 200.566 161.73 200.759 161.95 201.007C162.178 201.255 162.346 201.555 162.457 201.906C162.574 202.25 162.632 202.629 162.632 203.043C162.632 203.511 162.567 203.924 162.436 204.283C162.305 204.634 162.119 204.934 161.878 205.182C161.644 205.423 161.365 205.605 161.041 205.729C160.717 205.853 160.359 205.915 159.966 205.915ZM164.829 204.334V205.75H163.631V204.334H164.829ZM164.86 198.372L164.778 203.528H163.693L163.61 198.372H164.86Z" fill="#111315"/>
<circle cx="145" cy="52" r="24" fill="#BBDCD2"/>
<g clip-path="url(#clip1_2434_56738)">
<path d="M133 52.7658L141.219 61.0001L157 45.2343L154.734 43L141.219 56.5L135.234 50.5157L133 52.7658Z" fill="#111315"/>
</g>
</g>
<rect x="0.5" y="0.5" width="289" height="237" rx="11.5" stroke="#3B3D40"/>
<defs>
<clipPath id="clip0_2434_56738">
<rect width="290" height="238" rx="12" fill="white"/>
</clipPath>
<clipPath id="clip1_2434_56738">
<rect width="24" height="24" fill="white" transform="translate(133 40)"/>
</clipPath>
</defs>
</svg>
