<svg width="540" height="394" viewBox="0 0 540 394" fill="none" xmlns="http://www.w3.org/2000/svg">
<rect x="0.5" y="0.5" width="539" height="393" rx="11.5" fill="#1C1F21"/>
<path d="M25.52 41.72H27.76L34.32 52.04V41.72H36.68V56H34.44L27.86 45.72V56H25.52V41.72ZM44.0792 54.48C45.0392 54.48 45.7392 54.1533 46.1792 53.5C46.6326 52.8333 46.8592 51.9267 46.8592 50.78C46.8592 49.6467 46.6326 48.7533 46.1792 48.1C45.7392 47.4467 45.0392 47.12 44.0792 47.12C43.1192 47.12 42.4126 47.4533 41.9592 48.12C41.5192 48.7733 41.2992 49.66 41.2992 50.78C41.2992 51.9133 41.5126 52.8133 41.9392 53.48C42.3792 54.1467 43.0926 54.48 44.0792 54.48ZM44.0592 56.32C42.4326 56.32 41.1726 55.84 40.2792 54.88C39.3859 53.92 38.9392 52.56 38.9392 50.8C38.9392 49.9733 39.0526 49.22 39.2792 48.54C39.5192 47.86 39.8592 47.28 40.2992 46.8C40.7392 46.32 41.2792 45.9467 41.9192 45.68C42.5592 45.4133 43.2859 45.28 44.0992 45.28C44.9259 45.28 45.6592 45.42 46.2992 45.7C46.9392 45.9667 47.4726 46.34 47.8992 46.82C48.3392 47.3 48.6659 47.88 48.8792 48.56C49.1059 49.2267 49.2192 49.96 49.2192 50.76C49.2192 51.6667 49.0926 52.4667 48.8392 53.16C48.5859 53.84 48.2259 54.42 47.7592 54.9C47.3059 55.3667 46.7659 55.72 46.1392 55.96C45.5126 56.2 44.8192 56.32 44.0592 56.32ZM50.2667 47.4V45.6H51.9067V42.8H54.1667V45.6H56.7467V47.4H54.1667V52.84C54.1667 53.3733 54.2734 53.76 54.4867 54C54.7134 54.24 55.0401 54.36 55.4667 54.36C55.6934 54.36 55.9067 54.3467 56.1067 54.32C56.3201 54.2933 56.5267 54.2467 56.7267 54.18L57.0667 55.88C56.4267 56.0933 55.7334 56.2 54.9867 56.2C53.8401 56.2 53.0401 55.9067 52.5867 55.32C52.1334 54.72 51.9067 53.8267 51.9067 52.64V47.4H50.2667ZM60.6923 41.72V43.98H58.3323V41.72H60.6923ZM60.6523 45.6V56H58.3723V45.6H60.6523ZM63.7142 47.4H62.0942V45.6H63.7142V45C63.7142 43.9067 64.0142 43.06 64.6142 42.46C65.2142 41.86 66.0476 41.56 67.1142 41.56C67.8209 41.56 68.4742 41.6533 69.0742 41.84L68.7342 43.54C68.3342 43.42 67.9342 43.36 67.5342 43.36C67.0409 43.36 66.6609 43.4933 66.3942 43.76C66.1276 44.0267 65.9942 44.42 65.9942 44.94V45.6H68.5142V47.4H65.9942V56H63.7142V47.4ZM72.5342 41.72V43.98H70.1742V41.72H72.5342ZM72.4942 45.6V56H70.2142V45.6H72.4942ZM84.0655 52.36C83.9321 53.6 83.4855 54.5733 82.7255 55.28C81.9788 55.9733 80.9055 56.32 79.5055 56.32C78.6655 56.32 77.9321 56.1933 77.3055 55.94C76.6921 55.6733 76.1788 55.3 75.7655 54.82C75.3521 54.34 75.0455 53.7667 74.8455 53.1C74.6455 52.42 74.5455 51.6667 74.5455 50.84C74.5455 50.0133 74.6588 49.26 74.8855 48.58C75.1121 47.8867 75.4388 47.3 75.8655 46.82C76.3055 46.3267 76.8388 45.9467 77.4655 45.68C78.0921 45.4133 78.8055 45.28 79.6055 45.28C80.3388 45.28 80.9588 45.38 81.4655 45.58C81.9721 45.7667 82.3921 46.0267 82.7255 46.36C83.0588 46.68 83.3188 47.0533 83.5055 47.48C83.6921 47.9067 83.8255 48.3533 83.9055 48.82L81.6455 49.16C81.5388 48.5733 81.3321 48.0867 81.0255 47.7C80.7321 47.3133 80.2321 47.12 79.5255 47.12C79.0188 47.12 78.5988 47.2267 78.2655 47.44C77.9321 47.6533 77.6655 47.9333 77.4655 48.28C77.2655 48.6133 77.1188 49 77.0255 49.44C76.9455 49.88 76.9055 50.3267 76.9055 50.78C76.9055 51.3 76.9521 51.7867 77.0455 52.24C77.1388 52.6933 77.2855 53.0867 77.4855 53.42C77.6855 53.74 77.9521 54 78.2855 54.2C78.6188 54.3867 79.0255 54.48 79.5055 54.48C80.1988 54.48 80.7255 54.3 81.0855 53.94C81.4455 53.5667 81.6721 53.04 81.7655 52.36H84.0655ZM90.7945 51.14C90.1145 51.18 89.5612 51.2533 89.1345 51.36C88.7212 51.4667 88.4012 51.6067 88.1745 51.78C87.9479 51.94 87.7945 52.1333 87.7145 52.36C87.6479 52.5733 87.6145 52.8067 87.6145 53.06C87.6145 53.5133 87.7545 53.8667 88.0345 54.12C88.3279 54.3733 88.7545 54.5 89.3145 54.5C90.3145 54.5 91.0545 54.2467 91.5345 53.74C92.0145 53.2333 92.2545 52.5467 92.2545 51.68V51.08L90.7945 51.14ZM92.2945 54.64C91.9079 55.1067 91.4345 55.4933 90.8745 55.8C90.3145 56.1067 89.6345 56.26 88.8345 56.26C88.3412 56.26 87.8812 56.1933 87.4545 56.06C87.0279 55.94 86.6545 55.7533 86.3345 55.5C86.0279 55.2467 85.7812 54.9267 85.5945 54.54C85.4212 54.14 85.3345 53.6733 85.3345 53.14C85.3345 52.42 85.4945 51.84 85.8145 51.4C86.1345 50.9467 86.5479 50.5933 87.0545 50.34C87.5745 50.0867 88.1545 49.9133 88.7945 49.82C89.4345 49.7133 90.0745 49.6467 90.7145 49.62L92.2545 49.54V49.1C92.2545 48.3133 92.0612 47.7733 91.6745 47.48C91.3012 47.1733 90.8079 47.02 90.1945 47.02C89.4879 47.02 88.9612 47.14 88.6145 47.38C88.2812 47.62 88.0612 47.9667 87.9545 48.42L85.8745 48.2C86.0612 47.1867 86.5212 46.4467 87.2545 45.98C87.9879 45.5133 88.9945 45.28 90.2745 45.28C91.1012 45.28 91.7812 45.3867 92.3145 45.6C92.8612 45.8133 93.2945 46.1067 93.6145 46.48C93.9345 46.8533 94.1545 47.3 94.2745 47.82C94.4079 48.3267 94.4745 48.8867 94.4745 49.5V56H92.2945V54.64ZM95.7511 47.4V45.6H97.3911V42.8H99.6511V45.6H102.231V47.4H99.6511V52.84C99.6511 53.3733 99.7578 53.76 99.9711 54C100.198 54.24 100.524 54.36 100.951 54.36C101.178 54.36 101.391 54.3467 101.591 54.32C101.804 54.2933 102.011 54.2467 102.211 54.18L102.551 55.88C101.911 56.0933 101.218 56.2 100.471 56.2C99.3244 56.2 98.5244 55.9067 98.0711 55.32C97.6178 54.72 97.3911 53.8267 97.3911 52.64V47.4H95.7511ZM106.177 41.72V43.98H103.817V41.72H106.177ZM106.137 45.6V56H103.857V45.6H106.137ZM113.339 54.48C114.299 54.48 114.999 54.1533 115.439 53.5C115.892 52.8333 116.119 51.9267 116.119 50.78C116.119 49.6467 115.892 48.7533 115.439 48.1C114.999 47.4467 114.299 47.12 113.339 47.12C112.379 47.12 111.672 47.4533 111.219 48.12C110.779 48.7733 110.559 49.66 110.559 50.78C110.559 51.9133 110.772 52.8133 111.199 53.48C111.639 54.1467 112.352 54.48 113.339 54.48ZM113.319 56.32C111.692 56.32 110.432 55.84 109.539 54.88C108.645 53.92 108.199 52.56 108.199 50.8C108.199 49.9733 108.312 49.22 108.539 48.54C108.779 47.86 109.119 47.28 109.559 46.8C109.999 46.32 110.539 45.9467 111.179 45.68C111.819 45.4133 112.545 45.28 113.359 45.28C114.185 45.28 114.919 45.42 115.559 45.7C116.199 45.9667 116.732 46.34 117.159 46.82C117.599 47.3 117.925 47.88 118.139 48.56C118.365 49.2267 118.479 49.96 118.479 50.76C118.479 51.6667 118.352 52.4667 118.099 53.16C117.845 53.84 117.485 54.42 117.019 54.9C116.565 55.3667 116.025 55.72 115.399 55.96C114.772 56.2 114.079 56.32 113.319 56.32ZM122.746 45.6V47.12C123.213 46.48 123.733 46.0133 124.306 45.72C124.893 45.4267 125.519 45.28 126.186 45.28C128.506 45.28 129.666 46.56 129.666 49.12V56H127.386V49.48C127.386 48.64 127.233 48.0533 126.926 47.72C126.619 47.3733 126.166 47.2 125.566 47.2C125.166 47.2 124.793 47.2733 124.446 47.42C124.113 47.5533 123.826 47.74 123.586 47.98C123.346 48.22 123.153 48.5 123.006 48.82C122.873 49.1267 122.806 49.4533 122.806 49.8V56H120.546V45.6H122.746ZM133.527 52.82C133.567 53.1667 133.661 53.4533 133.807 53.68C133.954 53.8933 134.134 54.0667 134.347 54.2C134.574 54.3333 134.834 54.4267 135.127 54.48C135.421 54.52 135.734 54.54 136.067 54.54C136.827 54.54 137.374 54.4267 137.707 54.2C138.041 53.9733 138.207 53.64 138.207 53.2C138.207 52.8533 138.101 52.56 137.887 52.32C137.687 52.08 137.267 51.9067 136.627 51.8C135.801 51.6533 135.074 51.5133 134.447 51.38C133.821 51.2467 133.294 51.0667 132.867 50.84C132.441 50.6 132.121 50.3 131.907 49.94C131.694 49.5667 131.587 49.0667 131.587 48.44C131.587 47.96 131.694 47.5267 131.907 47.14C132.121 46.74 132.414 46.4067 132.787 46.14C133.174 45.86 133.627 45.6467 134.147 45.5C134.681 45.3533 135.261 45.28 135.887 45.28C136.687 45.28 137.354 45.36 137.887 45.52C138.421 45.68 138.854 45.9 139.187 46.18C139.521 46.46 139.774 46.78 139.947 47.14C140.121 47.5 140.254 47.88 140.347 48.28L138.307 48.56C138.147 48.04 137.901 47.6533 137.567 47.4C137.247 47.1467 136.707 47.02 135.947 47.02C135.507 47.02 135.147 47.06 134.867 47.14C134.587 47.22 134.361 47.32 134.187 47.44C134.027 47.56 133.914 47.6933 133.847 47.84C133.794 47.9867 133.767 48.1333 133.767 48.28C133.767 48.5067 133.794 48.6933 133.847 48.84C133.901 48.9867 133.994 49.1067 134.127 49.2C134.274 49.2933 134.467 49.3733 134.707 49.44C134.947 49.5067 135.247 49.5733 135.607 49.64L136.907 49.86C137.601 49.98 138.174 50.1333 138.627 50.32C139.094 50.5067 139.461 50.74 139.727 51.02C140.007 51.2867 140.201 51.6 140.307 51.96C140.414 52.32 140.467 52.72 140.467 53.16C140.467 54.1067 140.107 54.8733 139.387 55.46C138.667 56.0333 137.574 56.32 136.107 56.32C135.507 56.32 134.927 56.26 134.367 56.14C133.821 56.0333 133.327 55.8467 132.887 55.58C132.447 55.3133 132.087 54.96 131.807 54.52C131.541 54.0667 131.387 53.5 131.347 52.82H133.527Z" fill="white"/>
<rect x="384" y="24" width="140" height="48" rx="6" fill="#BBDCD2"/>
<path d="M403.98 50.512C404.065 51.2587 404.332 51.8027 404.78 52.144C405.239 52.4853 405.916 52.656 406.812 52.656C407.249 52.656 407.617 52.608 407.916 52.512C408.215 52.416 408.455 52.288 408.636 52.128C408.817 51.968 408.945 51.7813 409.02 51.568C409.095 51.344 409.132 51.1093 409.132 50.864C409.132 50.6827 409.105 50.5067 409.052 50.336C408.999 50.1547 408.903 49.9893 408.764 49.84C408.625 49.6907 408.439 49.5627 408.204 49.456C407.969 49.3387 407.671 49.248 407.308 49.184L405.852 48.912C405.276 48.8053 404.764 48.672 404.316 48.512C403.868 48.352 403.489 48.144 403.18 47.888C402.881 47.6213 402.652 47.3013 402.492 46.928C402.343 46.544 402.268 46.08 402.268 45.536C402.268 44.992 402.375 44.5173 402.588 44.112C402.812 43.7067 403.116 43.3707 403.5 43.104C403.884 42.8267 404.337 42.624 404.86 42.496C405.393 42.3573 405.969 42.288 406.588 42.288C407.377 42.288 408.039 42.3787 408.572 42.56C409.105 42.7413 409.537 42.9813 409.868 43.28C410.199 43.568 410.449 43.904 410.62 44.288C410.791 44.672 410.908 45.072 410.972 45.488L409.148 45.776C408.999 45.136 408.737 44.6613 408.364 44.352C408.001 44.0427 407.42 43.888 406.62 43.888C406.161 43.888 405.777 43.9307 405.468 44.016C405.169 44.0907 404.924 44.2027 404.732 44.352C404.551 44.4907 404.417 44.656 404.332 44.848C404.257 45.0293 404.22 45.2213 404.22 45.424C404.22 45.9253 404.353 46.2987 404.62 46.544C404.897 46.7893 405.377 46.9813 406.06 47.12L407.644 47.424C408.849 47.648 409.735 48.032 410.3 48.576C410.865 49.1093 411.148 49.8827 411.148 50.896C411.148 51.376 411.057 51.824 410.876 52.24C410.705 52.6453 410.439 53.0027 410.076 53.312C409.713 53.6107 409.26 53.8453 408.716 54.016C408.183 54.1973 407.559 54.288 406.844 54.288C405.383 54.288 404.236 53.984 403.404 53.376C402.572 52.7573 402.113 51.8027 402.028 50.512H403.98ZM416.517 50.112C415.973 50.144 415.53 50.2027 415.189 50.288C414.858 50.3733 414.602 50.4853 414.421 50.624C414.24 50.752 414.117 50.9067 414.053 51.088C414 51.2587 413.973 51.4453 413.973 51.648C413.973 52.0107 414.085 52.2933 414.309 52.496C414.544 52.6987 414.885 52.8 415.333 52.8C416.133 52.8 416.725 52.5973 417.109 52.192C417.493 51.7867 417.685 51.2373 417.685 50.544V50.064L416.517 50.112ZM417.717 52.912C417.408 53.2853 417.029 53.5947 416.581 53.84C416.133 54.0853 415.589 54.208 414.949 54.208C414.554 54.208 414.186 54.1547 413.845 54.048C413.504 53.952 413.205 53.8027 412.949 53.6C412.704 53.3973 412.506 53.1413 412.357 52.832C412.218 52.512 412.149 52.1387 412.149 51.712C412.149 51.136 412.277 50.672 412.533 50.32C412.789 49.9573 413.12 49.6747 413.525 49.472C413.941 49.2693 414.405 49.1307 414.917 49.056C415.429 48.9707 415.941 48.9173 416.453 48.896L417.685 48.832V48.48C417.685 47.8507 417.53 47.4187 417.221 47.184C416.922 46.9387 416.528 46.816 416.037 46.816C415.472 46.816 415.05 46.912 414.773 47.104C414.506 47.296 414.33 47.5733 414.245 47.936L412.581 47.76C412.73 46.9493 413.098 46.3573 413.685 45.984C414.272 45.6107 415.077 45.424 416.101 45.424C416.762 45.424 417.306 45.5093 417.733 45.68C418.17 45.8507 418.517 46.0853 418.773 46.384C419.029 46.6827 419.205 47.04 419.301 47.456C419.408 47.8613 419.461 48.3093 419.461 48.8V54H417.717V52.912ZM422.326 45.68L424.486 51.952L426.678 45.68H428.694L425.382 54H423.51L420.214 45.68H422.326ZM436.671 51.536C436.521 52.4 436.153 53.072 435.567 53.552C434.98 54.0213 434.137 54.256 433.039 54.256C431.716 54.256 430.708 53.8773 430.015 53.12C429.332 52.352 428.991 51.2747 428.991 49.888C428.991 49.1733 429.087 48.5387 429.279 47.984C429.481 47.4293 429.759 46.9653 430.111 46.592C430.473 46.208 430.9 45.92 431.391 45.728C431.892 45.5253 432.441 45.424 433.039 45.424C433.679 45.424 434.233 45.5253 434.703 45.728C435.172 45.92 435.561 46.1973 435.871 46.56C436.18 46.912 436.409 47.3387 436.559 47.84C436.708 48.3307 436.783 48.88 436.783 49.488V50.288H430.815C430.836 51.0453 431.028 51.6587 431.391 52.128C431.753 52.5973 432.303 52.832 433.039 52.832C433.615 52.832 434.047 52.72 434.335 52.496C434.623 52.272 434.815 51.952 434.911 51.536H436.671ZM435.007 49.024C435.007 48.3413 434.847 47.8027 434.527 47.408C434.207 47.0133 433.695 46.816 432.991 46.816C432.319 46.816 431.807 47.0187 431.455 47.424C431.103 47.8187 430.9 48.352 430.847 49.024H435.007ZM451.547 50.144C451.483 50.7413 451.339 51.2907 451.115 51.792C450.891 52.2933 450.581 52.7307 450.187 53.104C449.792 53.4773 449.312 53.7707 448.747 53.984C448.181 54.1867 447.525 54.288 446.779 54.288C445.957 54.288 445.221 54.1493 444.571 53.872C443.931 53.5947 443.387 53.2 442.939 52.688C442.501 52.1653 442.165 51.536 441.931 50.8C441.707 50.0533 441.595 49.2213 441.595 48.304C441.595 47.3653 441.717 46.5227 441.963 45.776C442.219 45.0293 442.576 44.4 443.035 43.888C443.493 43.3653 444.043 42.9707 444.683 42.704C445.323 42.4267 446.027 42.288 446.795 42.288C447.509 42.288 448.128 42.3787 448.651 42.56C449.173 42.7413 449.616 43.0027 449.979 43.344C450.352 43.6747 450.645 44.0747 450.859 44.544C451.083 45.0133 451.248 45.536 451.355 46.112L449.451 46.384C449.365 46 449.259 45.6587 449.131 45.36C449.003 45.0613 448.832 44.8107 448.619 44.608C448.416 44.3947 448.165 44.2347 447.867 44.128C447.568 44.0107 447.211 43.952 446.795 43.952C446.283 43.952 445.829 44.0533 445.435 44.256C445.04 44.4587 444.704 44.752 444.427 45.136C444.16 45.5093 443.957 45.9627 443.819 46.496C443.68 47.0293 443.611 47.6267 443.611 48.288C443.611 48.96 443.68 49.5627 443.819 50.096C443.968 50.6293 444.181 51.088 444.459 51.472C444.736 51.8453 445.067 52.1333 445.451 52.336C445.845 52.528 446.293 52.624 446.795 52.624C447.243 52.624 447.621 52.5653 447.931 52.448C448.251 52.3307 448.517 52.1653 448.731 51.952C448.944 51.7387 449.109 51.4827 449.227 51.184C449.355 50.8747 449.445 50.528 449.499 50.144H451.547ZM454.841 42.576V46.832C455.193 46.352 455.598 46 456.057 45.776C456.526 45.5413 457.022 45.424 457.545 45.424C459.401 45.424 460.329 46.448 460.329 48.496V54H458.505V48.784C458.505 48.112 458.382 47.6427 458.137 47.376C457.892 47.0987 457.529 46.96 457.049 46.96C456.718 46.96 456.414 47.0187 456.137 47.136C455.87 47.2533 455.641 47.408 455.449 47.6C455.257 47.792 455.108 48.016 455.001 48.272C454.894 48.5173 454.841 48.7733 454.841 49.04V54H453.033V42.576H454.841ZM466.01 50.112C465.466 50.144 465.023 50.2027 464.682 50.288C464.351 50.3733 464.095 50.4853 463.914 50.624C463.733 50.752 463.61 50.9067 463.546 51.088C463.493 51.2587 463.466 51.4453 463.466 51.648C463.466 52.0107 463.578 52.2933 463.802 52.496C464.037 52.6987 464.378 52.8 464.826 52.8C465.626 52.8 466.218 52.5973 466.602 52.192C466.986 51.7867 467.178 51.2373 467.178 50.544V50.064L466.01 50.112ZM467.21 52.912C466.901 53.2853 466.522 53.5947 466.074 53.84C465.626 54.0853 465.082 54.208 464.442 54.208C464.047 54.208 463.679 54.1547 463.338 54.048C462.997 53.952 462.698 53.8027 462.442 53.6C462.197 53.3973 461.999 53.1413 461.85 52.832C461.711 52.512 461.642 52.1387 461.642 51.712C461.642 51.136 461.77 50.672 462.026 50.32C462.282 49.9573 462.613 49.6747 463.018 49.472C463.434 49.2693 463.898 49.1307 464.41 49.056C464.922 48.9707 465.434 48.9173 465.946 48.896L467.178 48.832V48.48C467.178 47.8507 467.023 47.4187 466.714 47.184C466.415 46.9387 466.021 46.816 465.53 46.816C464.965 46.816 464.543 46.912 464.266 47.104C463.999 47.296 463.823 47.5733 463.738 47.936L462.074 47.76C462.223 46.9493 462.591 46.3573 463.178 45.984C463.765 45.6107 464.57 45.424 465.594 45.424C466.255 45.424 466.799 45.5093 467.226 45.68C467.663 45.8507 468.01 46.0853 468.266 46.384C468.522 46.6827 468.698 47.04 468.794 47.456C468.901 47.8613 468.954 48.3093 468.954 48.8V54H467.21V52.912ZM472.551 45.68V46.896C472.925 46.384 473.341 46.0107 473.799 45.776C474.269 45.5413 474.77 45.424 475.303 45.424C477.159 45.424 478.087 46.448 478.087 48.496V54H476.263V48.784C476.263 48.112 476.141 47.6427 475.895 47.376C475.65 47.0987 475.287 46.96 474.807 46.96C474.487 46.96 474.189 47.0187 473.911 47.136C473.645 47.2427 473.415 47.392 473.223 47.584C473.031 47.776 472.877 48 472.759 48.256C472.653 48.5013 472.599 48.7627 472.599 49.04V54H470.791V45.68H472.551ZM481.8 54.64C481.896 55.088 482.083 55.3973 482.36 55.568C482.648 55.7493 483.112 55.84 483.752 55.84C484.243 55.84 484.637 55.744 484.936 55.552C485.235 55.36 485.448 55.0667 485.576 54.672C485.715 54.2773 485.784 53.7333 485.784 53.04V52.48C485.485 52.9067 485.112 53.232 484.664 53.456C484.216 53.68 483.709 53.792 483.144 53.792C482.024 53.792 481.16 53.424 480.552 52.688C479.944 51.952 479.64 50.9333 479.64 49.632C479.64 48.3627 479.971 47.344 480.632 46.576C481.293 45.808 482.179 45.424 483.288 45.424C484.333 45.424 485.181 45.8453 485.832 46.688V45.68H487.608V52.752C487.608 54.352 487.299 55.504 486.68 56.208C486.061 56.9227 485.085 57.28 483.752 57.28C482.547 57.28 481.64 57.0667 481.032 56.64C480.435 56.224 480.083 55.5573 479.976 54.64H481.8ZM485.8 49.536C485.8 48.672 485.619 48.0213 485.256 47.584C484.893 47.136 484.36 46.912 483.656 46.912C482.995 46.912 482.477 47.1467 482.104 47.616C481.731 48.0747 481.544 48.7413 481.544 49.616C481.544 50.48 481.72 51.152 482.072 51.632C482.435 52.1013 482.936 52.336 483.576 52.336C484.28 52.336 484.824 52.1173 485.208 51.68C485.603 51.232 485.8 50.6027 485.8 49.792V49.536ZM496.91 51.536C496.761 52.4 496.393 53.072 495.806 53.552C495.219 54.0213 494.377 54.256 493.278 54.256C491.955 54.256 490.947 53.8773 490.254 53.12C489.571 52.352 489.23 51.2747 489.23 49.888C489.23 49.1733 489.326 48.5387 489.518 47.984C489.721 47.4293 489.998 46.9653 490.35 46.592C490.713 46.208 491.139 45.92 491.63 45.728C492.131 45.5253 492.681 45.424 493.278 45.424C493.918 45.424 494.473 45.5253 494.942 45.728C495.411 45.92 495.801 46.1973 496.11 46.56C496.419 46.912 496.649 47.3387 496.798 47.84C496.947 48.3307 497.022 48.88 497.022 49.488V50.288H491.054C491.075 51.0453 491.267 51.6587 491.63 52.128C491.993 52.5973 492.542 52.832 493.278 52.832C493.854 52.832 494.286 52.72 494.574 52.496C494.862 52.272 495.054 51.952 495.15 51.536H496.91ZM495.246 49.024C495.246 48.3413 495.086 47.8027 494.766 47.408C494.446 47.0133 493.934 46.816 493.23 46.816C492.558 46.816 492.046 47.0187 491.694 47.424C491.342 47.8187 491.139 48.352 491.086 49.024H495.246ZM499.887 51.456C499.919 51.7333 499.994 51.9627 500.111 52.144C500.229 52.3147 500.373 52.4533 500.543 52.56C500.725 52.6667 500.933 52.7413 501.167 52.784C501.402 52.816 501.653 52.832 501.919 52.832C502.527 52.832 502.965 52.7413 503.231 52.56C503.498 52.3787 503.631 52.112 503.631 51.76C503.631 51.4827 503.546 51.248 503.375 51.056C503.215 50.864 502.879 50.7253 502.367 50.64C501.706 50.5227 501.125 50.4107 500.623 50.304C500.122 50.1973 499.701 50.0533 499.359 49.872C499.018 49.68 498.762 49.44 498.591 49.152C498.421 48.8533 498.335 48.4533 498.335 47.952C498.335 47.568 498.421 47.2213 498.591 46.912C498.762 46.592 498.997 46.3253 499.295 46.112C499.605 45.888 499.967 45.7173 500.383 45.6C500.81 45.4827 501.274 45.424 501.775 45.424C502.415 45.424 502.949 45.488 503.375 45.616C503.802 45.744 504.149 45.92 504.415 46.144C504.682 46.368 504.885 46.624 505.023 46.912C505.162 47.2 505.269 47.504 505.343 47.824L503.711 48.048C503.583 47.632 503.386 47.3227 503.119 47.12C502.863 46.9173 502.431 46.816 501.823 46.816C501.471 46.816 501.183 46.848 500.959 46.912C500.735 46.976 500.554 47.056 500.415 47.152C500.287 47.248 500.197 47.3547 500.143 47.472C500.101 47.5893 500.079 47.7067 500.079 47.824C500.079 48.0053 500.101 48.1547 500.143 48.272C500.186 48.3893 500.261 48.4853 500.367 48.56C500.485 48.6347 500.639 48.6987 500.831 48.752C501.023 48.8053 501.263 48.8587 501.551 48.912L502.591 49.088C503.146 49.184 503.605 49.3067 503.967 49.456C504.341 49.6053 504.634 49.792 504.847 50.016C505.071 50.2293 505.226 50.48 505.311 50.768C505.397 51.056 505.439 51.376 505.439 51.728C505.439 52.4853 505.151 53.0987 504.575 53.568C503.999 54.0267 503.125 54.256 501.951 54.256C501.471 54.256 501.007 54.208 500.559 54.112C500.122 54.0267 499.727 53.8773 499.375 53.664C499.023 53.4507 498.735 53.168 498.511 52.816C498.298 52.4533 498.175 52 498.143 51.456H499.887Z" fill="#111315"/>
<rect y="96" width="540" height="2" fill="#3B3D40"/>
<rect x="24" y="174" width="16" height="16" rx="2" fill="#BBDCD2"/>
<g clip-path="url(#clip0_2632_56225)">
<path d="M27.4287 182.292L30.5596 185.429L36.5716 179.423L35.7085 178.572L30.5596 183.715L28.2799 181.435L27.4287 182.292Z" fill="#111315"/>
</g>
<path d="M58.784 184.144C58.72 184.741 58.576 185.291 58.352 185.792C58.128 186.293 57.8187 186.731 57.424 187.104C57.0293 187.477 56.5493 187.771 55.984 187.984C55.4187 188.187 54.7627 188.288 54.016 188.288C53.1947 188.288 52.4587 188.149 51.808 187.872C51.168 187.595 50.624 187.2 50.176 186.688C49.7387 186.165 49.4027 185.536 49.168 184.8C48.944 184.053 48.832 183.221 48.832 182.304C48.832 181.365 48.9547 180.523 49.2 179.776C49.456 179.029 49.8133 178.4 50.272 177.888C50.7307 177.365 51.28 176.971 51.92 176.704C52.56 176.427 53.264 176.288 54.032 176.288C54.7467 176.288 55.3653 176.379 55.888 176.56C56.4107 176.741 56.8533 177.003 57.216 177.344C57.5893 177.675 57.8827 178.075 58.096 178.544C58.32 179.013 58.4853 179.536 58.592 180.112L56.688 180.384C56.6027 180 56.496 179.659 56.368 179.36C56.24 179.061 56.0693 178.811 55.856 178.608C55.6533 178.395 55.4027 178.235 55.104 178.128C54.8053 178.011 54.448 177.952 54.032 177.952C53.52 177.952 53.0667 178.053 52.672 178.256C52.2773 178.459 51.9413 178.752 51.664 179.136C51.3973 179.509 51.1947 179.963 51.056 180.496C50.9173 181.029 50.848 181.627 50.848 182.288C50.848 182.96 50.9173 183.563 51.056 184.096C51.2053 184.629 51.4187 185.088 51.696 185.472C51.9733 185.845 52.304 186.133 52.688 186.336C53.0827 186.528 53.5307 186.624 54.032 186.624C54.48 186.624 54.8587 186.565 55.168 186.448C55.488 186.331 55.7547 186.165 55.968 185.952C56.1813 185.739 56.3467 185.483 56.464 185.184C56.592 184.875 56.6827 184.528 56.736 184.144H58.784ZM64.1106 184.112C63.5666 184.144 63.124 184.203 62.7826 184.288C62.452 184.373 62.196 184.485 62.0146 184.624C61.8333 184.752 61.7106 184.907 61.6466 185.088C61.5933 185.259 61.5666 185.445 61.5666 185.648C61.5666 186.011 61.6786 186.293 61.9026 186.496C62.1373 186.699 62.4786 186.8 62.9266 186.8C63.7266 186.8 64.3186 186.597 64.7026 186.192C65.0866 185.787 65.2786 185.237 65.2786 184.544V184.064L64.1106 184.112ZM65.3106 186.912C65.0013 187.285 64.6226 187.595 64.1746 187.84C63.7266 188.085 63.1826 188.208 62.5426 188.208C62.148 188.208 61.78 188.155 61.4386 188.048C61.0973 187.952 60.7986 187.803 60.5426 187.6C60.2973 187.397 60.1 187.141 59.9506 186.832C59.812 186.512 59.7426 186.139 59.7426 185.712C59.7426 185.136 59.8706 184.672 60.1266 184.32C60.3826 183.957 60.7133 183.675 61.1186 183.472C61.5346 183.269 61.9986 183.131 62.5106 183.056C63.0226 182.971 63.5346 182.917 64.0466 182.896L65.2786 182.832V182.48C65.2786 181.851 65.124 181.419 64.8146 181.184C64.516 180.939 64.1213 180.816 63.6306 180.816C63.0653 180.816 62.644 180.912 62.3666 181.104C62.1 181.296 61.924 181.573 61.8386 181.936L60.1746 181.76C60.324 180.949 60.692 180.357 61.2786 179.984C61.8653 179.611 62.6706 179.424 63.6946 179.424C64.356 179.424 64.9 179.509 65.3266 179.68C65.764 179.851 66.1106 180.085 66.3666 180.384C66.6226 180.683 66.7986 181.04 66.8946 181.456C67.0013 181.861 67.0546 182.309 67.0546 182.8V188H65.3106V186.912ZM70.7319 176.576V188H68.9079V176.576H70.7319ZM80.0614 185.536C79.912 186.4 79.544 187.072 78.9574 187.552C78.3707 188.021 77.528 188.256 76.4294 188.256C75.1067 188.256 74.0987 187.877 73.4054 187.12C72.7227 186.352 72.3814 185.275 72.3814 183.888C72.3814 183.173 72.4774 182.539 72.6694 181.984C72.872 181.429 73.1494 180.965 73.5014 180.592C73.864 180.208 74.2907 179.92 74.7814 179.728C75.2827 179.525 75.832 179.424 76.4294 179.424C77.0694 179.424 77.624 179.525 78.0934 179.728C78.5627 179.92 78.952 180.197 79.2614 180.56C79.5707 180.912 79.8 181.339 79.9494 181.84C80.0987 182.331 80.1734 182.88 80.1734 183.488V184.288H74.2054C74.2267 185.045 74.4187 185.659 74.7814 186.128C75.144 186.597 75.6934 186.832 76.4294 186.832C77.0054 186.832 77.4374 186.72 77.7254 186.496C78.0134 186.272 78.2054 185.952 78.3014 185.536H80.0614ZM78.3974 183.024C78.3974 182.341 78.2374 181.803 77.9174 181.408C77.5974 181.013 77.0854 180.816 76.3814 180.816C75.7094 180.816 75.1974 181.019 74.8454 181.424C74.4934 181.819 74.2907 182.352 74.2374 183.024H78.3974ZM83.5506 179.68V180.896C83.924 180.384 84.34 180.011 84.7986 179.776C85.268 179.541 85.7693 179.424 86.3026 179.424C88.1586 179.424 89.0866 180.448 89.0866 182.496V188H87.2626V182.784C87.2626 182.112 87.14 181.643 86.8946 181.376C86.6493 181.099 86.2866 180.96 85.8066 180.96C85.4866 180.96 85.188 181.019 84.9106 181.136C84.644 181.243 84.4146 181.392 84.2226 181.584C84.0306 181.776 83.876 182 83.7586 182.256C83.652 182.501 83.5986 182.763 83.5986 183.04V188H81.7906V179.68H83.5506ZM96.7995 183.664C96.7995 183.141 96.7408 182.704 96.6235 182.352C96.5168 181.989 96.3622 181.707 96.1595 181.504C95.9675 181.291 95.7382 181.141 95.4715 181.056C95.2155 180.96 94.9435 180.912 94.6555 180.912C93.9835 180.912 93.4608 181.152 93.0875 181.632C92.7248 182.112 92.5435 182.843 92.5435 183.824C92.5435 184.357 92.5915 184.811 92.6875 185.184C92.7942 185.557 92.9382 185.861 93.1195 186.096C93.3115 186.331 93.5302 186.501 93.7755 186.608C94.0208 186.715 94.2875 186.768 94.5755 186.768C95.2368 186.768 95.7702 186.555 96.1755 186.128C96.5915 185.691 96.7995 185.013 96.7995 184.096V183.664ZM96.8155 186.848C96.4742 187.317 96.0848 187.669 95.6475 187.904C95.2208 188.139 94.7195 188.256 94.1435 188.256C93.5462 188.256 93.0288 188.149 92.5915 187.936C92.1542 187.723 91.7915 187.424 91.5035 187.04C91.2155 186.645 90.9968 186.181 90.8475 185.648C90.7088 185.104 90.6395 184.507 90.6395 183.856C90.6395 183.248 90.7142 182.683 90.8635 182.16C91.0128 181.627 91.2315 181.168 91.5195 180.784C91.8075 180.389 92.1595 180.075 92.5755 179.84C93.0022 179.605 93.4928 179.477 94.0475 179.456C94.1542 179.445 94.2608 179.445 94.3675 179.456C94.4742 179.456 94.5862 179.461 94.7035 179.472C95.0768 179.515 95.4342 179.621 95.7755 179.792C96.1275 179.952 96.4635 180.224 96.7835 180.608V176.576H98.5915V188H96.8155V186.848ZM104.358 184.112C103.814 184.144 103.371 184.203 103.03 184.288C102.699 184.373 102.443 184.485 102.262 184.624C102.08 184.752 101.958 184.907 101.894 185.088C101.84 185.259 101.814 185.445 101.814 185.648C101.814 186.011 101.926 186.293 102.15 186.496C102.384 186.699 102.726 186.8 103.174 186.8C103.974 186.8 104.566 186.597 104.95 186.192C105.334 185.787 105.526 185.237 105.526 184.544V184.064L104.358 184.112ZM105.558 186.912C105.248 187.285 104.87 187.595 104.422 187.84C103.974 188.085 103.43 188.208 102.79 188.208C102.395 188.208 102.027 188.155 101.686 188.048C101.344 187.952 101.046 187.803 100.79 187.6C100.544 187.397 100.347 187.141 100.198 186.832C100.059 186.512 99.9895 186.139 99.9895 185.712C99.9895 185.136 100.118 184.672 100.374 184.32C100.63 183.957 100.96 183.675 101.366 183.472C101.782 183.269 102.246 183.131 102.758 183.056C103.27 182.971 103.782 182.917 104.294 182.896L105.526 182.832V182.48C105.526 181.851 105.371 181.419 105.062 181.184C104.763 180.939 104.368 180.816 103.878 180.816C103.312 180.816 102.891 180.912 102.614 181.104C102.347 181.296 102.171 181.573 102.086 181.936L100.422 181.76C100.571 180.949 100.939 180.357 101.526 179.984C102.112 179.611 102.918 179.424 103.942 179.424C104.603 179.424 105.147 179.509 105.574 179.68C106.011 179.851 106.358 180.085 106.614 180.384C106.87 180.683 107.046 181.04 107.142 181.456C107.248 181.861 107.302 182.309 107.302 182.8V188H105.558V186.912ZM110.899 179.68V180.912C111.187 180.475 111.533 180.139 111.939 179.904C112.344 179.669 112.776 179.552 113.235 179.552C113.416 179.552 113.565 179.557 113.683 179.568C113.811 179.579 113.933 179.595 114.051 179.616L113.843 181.28C113.725 181.248 113.597 181.227 113.459 181.216C113.32 181.205 113.176 181.2 113.027 181.2C112.685 181.2 112.387 181.259 112.131 181.376C111.875 181.483 111.656 181.627 111.475 181.808C111.304 181.989 111.171 182.197 111.075 182.432C110.989 182.656 110.947 182.885 110.947 183.12V188H109.139V179.68H110.899ZM120.406 179.68V184.912C120.406 185.605 120.518 186.08 120.742 186.336C120.977 186.592 121.329 186.72 121.798 186.72C122.054 186.72 122.31 186.672 122.566 186.576C122.833 186.48 123.068 186.341 123.27 186.16C123.473 185.979 123.638 185.76 123.766 185.504C123.894 185.248 123.958 184.96 123.958 184.64V179.68H125.782V188H124.006V186.784C123.622 187.296 123.206 187.669 122.758 187.904C122.31 188.139 121.83 188.256 121.318 188.256C120.348 188.256 119.649 188.005 119.222 187.504C118.806 187.003 118.598 186.235 118.598 185.2V179.68H120.406ZM127.674 179.68H129.45V180.832C129.791 180.373 130.181 180.027 130.618 179.792C131.066 179.547 131.578 179.424 132.154 179.424C132.741 179.424 133.253 179.531 133.69 179.744C134.127 179.947 134.49 180.24 134.778 180.624C135.077 181.008 135.295 181.472 135.434 182.016C135.583 182.549 135.658 183.147 135.658 183.808C135.658 184.48 135.573 185.093 135.402 185.648C135.231 186.192 134.986 186.661 134.666 187.056C134.357 187.44 133.978 187.739 133.53 187.952C133.082 188.155 132.575 188.256 132.01 188.256C131.562 188.256 131.125 188.171 130.698 188C130.271 187.829 129.871 187.515 129.498 187.056V191.104H127.674V179.68ZM129.482 183.984C129.482 184.528 129.541 184.981 129.658 185.344C129.775 185.696 129.93 185.979 130.122 186.192C130.325 186.405 130.554 186.555 130.81 186.64C131.077 186.725 131.354 186.768 131.642 186.768C131.941 186.768 132.218 186.715 132.474 186.608C132.73 186.501 132.954 186.331 133.146 186.096C133.338 185.861 133.487 185.557 133.594 185.184C133.701 184.811 133.754 184.357 133.754 183.824C133.754 183.28 133.695 182.827 133.578 182.464C133.471 182.091 133.322 181.792 133.13 181.568C132.949 181.333 132.735 181.168 132.49 181.072C132.245 180.976 131.989 180.928 131.722 180.928C131.071 180.928 130.533 181.141 130.106 181.568C129.69 181.995 129.482 182.667 129.482 183.584V183.984ZM143.011 183.664C143.011 183.141 142.953 182.704 142.835 182.352C142.729 181.989 142.574 181.707 142.371 181.504C142.179 181.291 141.95 181.141 141.683 181.056C141.427 180.96 141.155 180.912 140.867 180.912C140.195 180.912 139.673 181.152 139.299 181.632C138.937 182.112 138.755 182.843 138.755 183.824C138.755 184.357 138.803 184.811 138.899 185.184C139.006 185.557 139.15 185.861 139.331 186.096C139.523 186.331 139.742 186.501 139.987 186.608C140.233 186.715 140.499 186.768 140.787 186.768C141.449 186.768 141.982 186.555 142.387 186.128C142.803 185.691 143.011 185.013 143.011 184.096V183.664ZM143.027 186.848C142.686 187.317 142.297 187.669 141.859 187.904C141.433 188.139 140.931 188.256 140.355 188.256C139.758 188.256 139.241 188.149 138.803 187.936C138.366 187.723 138.003 187.424 137.715 187.04C137.427 186.645 137.209 186.181 137.059 185.648C136.921 185.104 136.851 184.507 136.851 183.856C136.851 183.248 136.926 182.683 137.075 182.16C137.225 181.627 137.443 181.168 137.731 180.784C138.019 180.389 138.371 180.075 138.787 179.84C139.214 179.605 139.705 179.477 140.259 179.456C140.366 179.445 140.473 179.445 140.579 179.456C140.686 179.456 140.798 179.461 140.915 179.472C141.289 179.515 141.646 179.621 141.987 179.792C142.339 179.952 142.675 180.224 142.995 180.608V176.576H144.803V188H143.027V186.848ZM150.569 184.112C150.025 184.144 149.583 184.203 149.241 184.288C148.911 184.373 148.655 184.485 148.473 184.624C148.292 184.752 148.169 184.907 148.105 185.088C148.052 185.259 148.025 185.445 148.025 185.648C148.025 186.011 148.137 186.293 148.361 186.496C148.596 186.699 148.937 186.8 149.385 186.8C150.185 186.8 150.777 186.597 151.161 186.192C151.545 185.787 151.737 185.237 151.737 184.544V184.064L150.569 184.112ZM151.769 186.912C151.46 187.285 151.081 187.595 150.633 187.84C150.185 188.085 149.641 188.208 149.001 188.208C148.607 188.208 148.239 188.155 147.897 188.048C147.556 187.952 147.257 187.803 147.001 187.6C146.756 187.397 146.559 187.141 146.409 186.832C146.271 186.512 146.201 186.139 146.201 185.712C146.201 185.136 146.329 184.672 146.585 184.32C146.841 183.957 147.172 183.675 147.577 183.472C147.993 183.269 148.457 183.131 148.969 183.056C149.481 182.971 149.993 182.917 150.505 182.896L151.737 182.832V182.48C151.737 181.851 151.583 181.419 151.273 181.184C150.975 180.939 150.58 180.816 150.089 180.816C149.524 180.816 149.103 180.912 148.825 181.104C148.559 181.296 148.383 181.573 148.297 181.936L146.633 181.76C146.783 180.949 147.151 180.357 147.737 179.984C148.324 179.611 149.129 179.424 150.153 179.424C150.815 179.424 151.359 179.509 151.785 179.68C152.223 179.851 152.569 180.085 152.825 180.384C153.081 180.683 153.257 181.04 153.353 181.456C153.46 181.861 153.513 182.309 153.513 182.8V188H151.769V186.912ZM154.535 181.12V179.68H155.847V177.44H157.655V179.68H159.719V181.12H157.655V185.472C157.655 185.899 157.74 186.208 157.911 186.4C158.092 186.592 158.353 186.688 158.695 186.688C158.876 186.688 159.047 186.677 159.207 186.656C159.377 186.635 159.543 186.597 159.703 186.544L159.975 187.904C159.463 188.075 158.908 188.16 158.311 188.16C157.393 188.16 156.753 187.925 156.391 187.456C156.028 186.976 155.847 186.261 155.847 185.312V181.12H154.535ZM168.239 185.536C168.09 186.4 167.722 187.072 167.135 187.552C166.548 188.021 165.706 188.256 164.607 188.256C163.284 188.256 162.276 187.877 161.583 187.12C160.9 186.352 160.559 185.275 160.559 183.888C160.559 183.173 160.655 182.539 160.847 181.984C161.05 181.429 161.327 180.965 161.679 180.592C162.042 180.208 162.468 179.92 162.959 179.728C163.46 179.525 164.01 179.424 164.607 179.424C165.247 179.424 165.802 179.525 166.271 179.728C166.74 179.92 167.13 180.197 167.439 180.56C167.748 180.912 167.978 181.339 168.127 181.84C168.276 182.331 168.351 182.88 168.351 183.488V184.288H162.383C162.404 185.045 162.596 185.659 162.959 186.128C163.322 186.597 163.871 186.832 164.607 186.832C165.183 186.832 165.615 186.72 165.903 186.496C166.191 186.272 166.383 185.952 166.479 185.536H168.239ZM166.575 183.024C166.575 182.341 166.415 181.803 166.095 181.408C165.775 181.013 165.263 180.816 164.559 180.816C163.887 180.816 163.375 181.019 163.023 181.424C162.671 181.819 162.468 182.352 162.415 183.024H166.575ZM171.216 185.456C171.248 185.733 171.323 185.963 171.44 186.144C171.557 186.315 171.701 186.453 171.872 186.56C172.053 186.667 172.261 186.741 172.496 186.784C172.731 186.816 172.981 186.832 173.248 186.832C173.856 186.832 174.293 186.741 174.56 186.56C174.827 186.379 174.96 186.112 174.96 185.76C174.96 185.483 174.875 185.248 174.704 185.056C174.544 184.864 174.208 184.725 173.696 184.64C173.035 184.523 172.453 184.411 171.952 184.304C171.451 184.197 171.029 184.053 170.688 183.872C170.347 183.68 170.091 183.44 169.92 183.152C169.749 182.853 169.664 182.453 169.664 181.952C169.664 181.568 169.749 181.221 169.92 180.912C170.091 180.592 170.325 180.325 170.624 180.112C170.933 179.888 171.296 179.717 171.712 179.6C172.139 179.483 172.603 179.424 173.104 179.424C173.744 179.424 174.277 179.488 174.704 179.616C175.131 179.744 175.477 179.92 175.744 180.144C176.011 180.368 176.213 180.624 176.352 180.912C176.491 181.2 176.597 181.504 176.672 181.824L175.04 182.048C174.912 181.632 174.715 181.323 174.448 181.12C174.192 180.917 173.76 180.816 173.152 180.816C172.8 180.816 172.512 180.848 172.288 180.912C172.064 180.976 171.883 181.056 171.744 181.152C171.616 181.248 171.525 181.355 171.472 181.472C171.429 181.589 171.408 181.707 171.408 181.824C171.408 182.005 171.429 182.155 171.472 182.272C171.515 182.389 171.589 182.485 171.696 182.56C171.813 182.635 171.968 182.699 172.16 182.752C172.352 182.805 172.592 182.859 172.88 182.912L173.92 183.088C174.475 183.184 174.933 183.307 175.296 183.456C175.669 183.605 175.963 183.792 176.176 184.016C176.4 184.229 176.555 184.48 176.64 184.768C176.725 185.056 176.768 185.376 176.768 185.728C176.768 186.485 176.48 187.099 175.904 187.568C175.328 188.027 174.453 188.256 173.28 188.256C172.8 188.256 172.336 188.208 171.888 188.112C171.451 188.027 171.056 187.877 170.704 187.664C170.352 187.451 170.064 187.168 169.84 186.816C169.627 186.453 169.504 186 169.472 185.456H171.216Z" fill="white"/>
<rect x="24" y="214" width="16" height="16" rx="2" fill="#BBDCD2"/>
<g clip-path="url(#clip1_2632_56225)">
<path d="M27.4287 222.292L30.5596 225.429L36.5716 219.423L35.7085 218.572L30.5596 223.715L28.2799 221.435L27.4287 222.292Z" fill="#111315"/>
</g>
<path d="M58.672 221.936V226.64C58.0853 227.184 57.392 227.595 56.592 227.872C55.792 228.149 54.9867 228.288 54.176 228.288C53.2907 228.288 52.512 228.149 51.84 227.872C51.1787 227.584 50.624 227.184 50.176 226.672C49.728 226.149 49.392 225.52 49.168 224.784C48.944 224.048 48.832 223.221 48.832 222.304C48.832 221.376 48.9547 220.544 49.2 219.808C49.4453 219.061 49.792 218.427 50.24 217.904C50.688 217.381 51.232 216.981 51.872 216.704C52.512 216.427 53.2267 216.288 54.016 216.288C54.7093 216.288 55.312 216.379 55.824 216.56C56.3467 216.731 56.784 216.971 57.136 217.28C57.4987 217.589 57.7867 217.952 58 218.368C58.224 218.773 58.384 219.211 58.48 219.68L56.576 219.952C56.4907 219.632 56.384 219.349 56.256 219.104C56.1387 218.848 55.9787 218.635 55.776 218.464C55.584 218.293 55.344 218.165 55.056 218.08C54.768 217.984 54.4213 217.936 54.016 217.936C53.4827 217.936 53.0133 218.043 52.608 218.256C52.2133 218.459 51.8827 218.752 51.616 219.136C51.3493 219.52 51.152 219.979 51.024 220.512C50.896 221.045 50.832 221.637 50.832 222.288C50.832 222.96 50.896 223.563 51.024 224.096C51.152 224.629 51.3547 225.088 51.632 225.472C51.9093 225.845 52.256 226.133 52.672 226.336C53.0987 226.539 53.6107 226.64 54.208 226.64C54.7413 226.64 55.2213 226.587 55.648 226.48C56.0747 226.363 56.4853 226.165 56.88 225.888V223.568H54.352V221.936H58.672ZM64.2353 226.784C65.0033 226.784 65.5633 226.523 65.9153 226C66.2779 225.467 66.4593 224.741 66.4593 223.824C66.4593 222.917 66.2779 222.203 65.9153 221.68C65.5633 221.157 65.0033 220.896 64.2353 220.896C63.4673 220.896 62.9019 221.163 62.5393 221.696C62.1873 222.219 62.0113 222.928 62.0113 223.824C62.0113 224.731 62.1819 225.451 62.5233 225.984C62.8753 226.517 63.4459 226.784 64.2353 226.784ZM64.2193 228.256C62.9179 228.256 61.9099 227.872 61.1953 227.104C60.4806 226.336 60.1233 225.248 60.1233 223.84C60.1233 223.179 60.2139 222.576 60.3953 222.032C60.5873 221.488 60.8593 221.024 61.2113 220.64C61.5633 220.256 61.9953 219.957 62.5073 219.744C63.0193 219.531 63.6006 219.424 64.2513 219.424C64.9126 219.424 65.4993 219.536 66.0113 219.76C66.5233 219.973 66.9499 220.272 67.2913 220.656C67.6433 221.04 67.9046 221.504 68.0753 222.048C68.2566 222.581 68.3473 223.168 68.3473 223.808C68.3473 224.533 68.2459 225.173 68.0433 225.728C67.8406 226.272 67.5526 226.736 67.1793 227.12C66.8166 227.493 66.3846 227.776 65.8833 227.968C65.3819 228.16 64.8273 228.256 64.2193 228.256ZM73.8413 224.112C73.2973 224.144 72.8546 224.203 72.5133 224.288C72.1826 224.373 71.9266 224.485 71.7453 224.624C71.5639 224.752 71.4413 224.907 71.3773 225.088C71.3239 225.259 71.2973 225.445 71.2973 225.648C71.2973 226.011 71.4093 226.293 71.6333 226.496C71.8679 226.699 72.2093 226.8 72.6573 226.8C73.4573 226.8 74.0493 226.597 74.4333 226.192C74.8173 225.787 75.0093 225.237 75.0093 224.544V224.064L73.8413 224.112ZM75.0413 226.912C74.7319 227.285 74.3533 227.595 73.9053 227.84C73.4573 228.085 72.9133 228.208 72.2733 228.208C71.8786 228.208 71.5106 228.155 71.1693 228.048C70.8279 227.952 70.5293 227.803 70.2733 227.6C70.0279 227.397 69.8306 227.141 69.6813 226.832C69.5426 226.512 69.4733 226.139 69.4733 225.712C69.4733 225.136 69.6013 224.672 69.8573 224.32C70.1133 223.957 70.4439 223.675 70.8493 223.472C71.2653 223.269 71.7293 223.131 72.2413 223.056C72.7533 222.971 73.2653 222.917 73.7773 222.896L75.0093 222.832V222.48C75.0093 221.851 74.8546 221.419 74.5453 221.184C74.2466 220.939 73.8519 220.816 73.3613 220.816C72.7959 220.816 72.3746 220.912 72.0973 221.104C71.8306 221.296 71.6546 221.573 71.5693 221.936L69.9053 221.76C70.0546 220.949 70.4226 220.357 71.0093 219.984C71.5959 219.611 72.4013 219.424 73.4253 219.424C74.0866 219.424 74.6306 219.509 75.0573 219.68C75.4946 219.851 75.8413 220.085 76.0973 220.384C76.3533 220.683 76.5293 221.04 76.6253 221.456C76.7319 221.861 76.7853 222.309 76.7853 222.8V228H75.0413V226.912ZM80.4625 216.576V228H78.6385V216.576H80.4625ZM83.648 225.456C83.68 225.733 83.7547 225.963 83.872 226.144C83.9893 226.315 84.1333 226.453 84.304 226.56C84.4853 226.667 84.6933 226.741 84.928 226.784C85.1627 226.816 85.4133 226.832 85.68 226.832C86.288 226.832 86.7253 226.741 86.992 226.56C87.2587 226.379 87.392 226.112 87.392 225.76C87.392 225.483 87.3067 225.248 87.136 225.056C86.976 224.864 86.64 224.725 86.128 224.64C85.4667 224.523 84.8853 224.411 84.384 224.304C83.8827 224.197 83.4613 224.053 83.12 223.872C82.7787 223.68 82.5227 223.44 82.352 223.152C82.1813 222.853 82.096 222.453 82.096 221.952C82.096 221.568 82.1813 221.221 82.352 220.912C82.5227 220.592 82.7573 220.325 83.056 220.112C83.3653 219.888 83.728 219.717 84.144 219.6C84.5707 219.483 85.0347 219.424 85.536 219.424C86.176 219.424 86.7093 219.488 87.136 219.616C87.5627 219.744 87.9093 219.92 88.176 220.144C88.4427 220.368 88.6453 220.624 88.784 220.912C88.9227 221.2 89.0293 221.504 89.104 221.824L87.472 222.048C87.344 221.632 87.1467 221.323 86.88 221.12C86.624 220.917 86.192 220.816 85.584 220.816C85.232 220.816 84.944 220.848 84.72 220.912C84.496 220.976 84.3147 221.056 84.176 221.152C84.048 221.248 83.9573 221.355 83.904 221.472C83.8613 221.589 83.84 221.707 83.84 221.824C83.84 222.005 83.8613 222.155 83.904 222.272C83.9467 222.389 84.0213 222.485 84.128 222.56C84.2453 222.635 84.4 222.699 84.592 222.752C84.784 222.805 85.024 222.859 85.312 222.912L86.352 223.088C86.9067 223.184 87.3653 223.307 87.728 223.456C88.1013 223.605 88.3947 223.792 88.608 224.016C88.832 224.229 88.9867 224.48 89.072 224.768C89.1573 225.056 89.2 225.376 89.2 225.728C89.2 226.485 88.912 227.099 88.336 227.568C87.76 228.027 86.8853 228.256 85.712 228.256C85.232 228.256 84.768 228.208 84.32 228.112C83.8827 228.027 83.488 227.877 83.136 227.664C82.784 227.451 82.496 227.168 82.272 226.816C82.0587 226.453 81.936 226 81.904 225.456H83.648Z" fill="white"/>
<rect x="24" y="254" width="16" height="16" rx="2" fill="#BBDCD2"/>
<g clip-path="url(#clip2_2632_56225)">
<path d="M27.4287 262.292L30.5596 265.429L36.5716 259.423L35.7085 258.572L30.5596 263.715L28.2799 261.435L27.4287 262.292Z" fill="#111315"/>
</g>
<path d="M49.216 256.576H51.568L54.816 265.664L58.16 256.576H60.432V268H58.656V259.696L55.52 268H53.984L50.96 259.712V268H49.216V256.576ZM69.9126 265.536C69.7633 266.4 69.3953 267.072 68.8086 267.552C68.222 268.021 67.3793 268.256 66.2806 268.256C64.958 268.256 63.95 267.877 63.2566 267.12C62.574 266.352 62.2326 265.275 62.2326 263.888C62.2326 263.173 62.3286 262.539 62.5206 261.984C62.7233 261.429 63.0006 260.965 63.3526 260.592C63.7153 260.208 64.142 259.92 64.6326 259.728C65.134 259.525 65.6833 259.424 66.2806 259.424C66.9206 259.424 67.4753 259.525 67.9446 259.728C68.414 259.92 68.8033 260.197 69.1126 260.56C69.422 260.912 69.6513 261.339 69.8006 261.84C69.95 262.331 70.0246 262.88 70.0246 263.488V264.288H64.0566C64.078 265.045 64.27 265.659 64.6326 266.128C64.9953 266.597 65.5446 266.832 66.2806 266.832C66.8566 266.832 67.2886 266.72 67.5766 266.496C67.8646 266.272 68.0566 265.952 68.1526 265.536H69.9126ZM68.2486 263.024C68.2486 262.341 68.0886 261.803 67.7686 261.408C67.4486 261.013 66.9366 260.816 66.2326 260.816C65.5606 260.816 65.0486 261.019 64.6966 261.424C64.3446 261.819 64.142 262.352 64.0886 263.024H68.2486ZM72.8899 265.456C72.9219 265.733 72.9965 265.963 73.1139 266.144C73.2312 266.315 73.3752 266.453 73.5459 266.56C73.7272 266.667 73.9352 266.741 74.1699 266.784C74.4045 266.816 74.6552 266.832 74.9219 266.832C75.5299 266.832 75.9672 266.741 76.2339 266.56C76.5005 266.379 76.6339 266.112 76.6339 265.76C76.6339 265.483 76.5485 265.248 76.3779 265.056C76.2179 264.864 75.8819 264.725 75.3699 264.64C74.7085 264.523 74.1272 264.411 73.6259 264.304C73.1245 264.197 72.7032 264.053 72.3619 263.872C72.0205 263.68 71.7645 263.44 71.5939 263.152C71.4232 262.853 71.3379 262.453 71.3379 261.952C71.3379 261.568 71.4232 261.221 71.5939 260.912C71.7645 260.592 71.9992 260.325 72.2979 260.112C72.6072 259.888 72.9699 259.717 73.3859 259.6C73.8125 259.483 74.2765 259.424 74.7779 259.424C75.4179 259.424 75.9512 259.488 76.3779 259.616C76.8045 259.744 77.1512 259.92 77.4179 260.144C77.6845 260.368 77.8872 260.624 78.0259 260.912C78.1645 261.2 78.2712 261.504 78.3459 261.824L76.7139 262.048C76.5859 261.632 76.3885 261.323 76.1219 261.12C75.8659 260.917 75.4339 260.816 74.8259 260.816C74.4739 260.816 74.1859 260.848 73.9619 260.912C73.7379 260.976 73.5565 261.056 73.4179 261.152C73.2899 261.248 73.1992 261.355 73.1459 261.472C73.1032 261.589 73.0819 261.707 73.0819 261.824C73.0819 262.005 73.1032 262.155 73.1459 262.272C73.1885 262.389 73.2632 262.485 73.3699 262.56C73.4872 262.635 73.6419 262.699 73.8339 262.752C74.0259 262.805 74.2659 262.859 74.5539 262.912L75.5939 263.088C76.1485 263.184 76.6072 263.307 76.9699 263.456C77.3432 263.605 77.6365 263.792 77.8499 264.016C78.0739 264.229 78.2285 264.48 78.3139 264.768C78.3992 265.056 78.4419 265.376 78.4419 265.728C78.4419 266.485 78.1539 267.099 77.5779 267.568C77.0019 268.027 76.1272 268.256 74.9539 268.256C74.4739 268.256 74.0099 268.208 73.5619 268.112C73.1245 268.027 72.7299 267.877 72.3779 267.664C72.0259 267.451 71.7379 267.168 71.5139 266.816C71.3005 266.453 71.1779 266 71.1459 265.456H72.8899ZM81.2143 265.456C81.2463 265.733 81.3209 265.963 81.4383 266.144C81.5556 266.315 81.6996 266.453 81.8703 266.56C82.0516 266.667 82.2596 266.741 82.4943 266.784C82.7289 266.816 82.9796 266.832 83.2463 266.832C83.8543 266.832 84.2916 266.741 84.5583 266.56C84.8249 266.379 84.9583 266.112 84.9583 265.76C84.9583 265.483 84.8729 265.248 84.7023 265.056C84.5423 264.864 84.2063 264.725 83.6943 264.64C83.0329 264.523 82.4516 264.411 81.9503 264.304C81.4489 264.197 81.0276 264.053 80.6863 263.872C80.3449 263.68 80.0889 263.44 79.9183 263.152C79.7476 262.853 79.6623 262.453 79.6623 261.952C79.6623 261.568 79.7476 261.221 79.9183 260.912C80.0889 260.592 80.3236 260.325 80.6223 260.112C80.9316 259.888 81.2943 259.717 81.7103 259.6C82.1369 259.483 82.6009 259.424 83.1023 259.424C83.7423 259.424 84.2756 259.488 84.7023 259.616C85.1289 259.744 85.4756 259.92 85.7423 260.144C86.0089 260.368 86.2116 260.624 86.3503 260.912C86.4889 261.2 86.5956 261.504 86.6703 261.824L85.0383 262.048C84.9103 261.632 84.7129 261.323 84.4463 261.12C84.1903 260.917 83.7583 260.816 83.1503 260.816C82.7983 260.816 82.5103 260.848 82.2863 260.912C82.0623 260.976 81.8809 261.056 81.7423 261.152C81.6143 261.248 81.5236 261.355 81.4703 261.472C81.4276 261.589 81.4063 261.707 81.4063 261.824C81.4063 262.005 81.4276 262.155 81.4703 262.272C81.5129 262.389 81.5876 262.485 81.6943 262.56C81.8116 262.635 81.9663 262.699 82.1583 262.752C82.3503 262.805 82.5903 262.859 82.8783 262.912L83.9183 263.088C84.4729 263.184 84.9316 263.307 85.2943 263.456C85.6676 263.605 85.9609 263.792 86.1743 264.016C86.3983 264.229 86.5529 264.48 86.6383 264.768C86.7236 265.056 86.7663 265.376 86.7663 265.728C86.7663 266.485 86.4783 267.099 85.9023 267.568C85.3263 268.027 84.4516 268.256 83.2783 268.256C82.7983 268.256 82.3343 268.208 81.8863 268.112C81.4489 268.027 81.0543 267.877 80.7023 267.664C80.3503 267.451 80.0623 267.168 79.8383 266.816C79.6249 266.453 79.5023 266 79.4703 265.456H81.2143ZM92.1306 264.112C91.5866 264.144 91.144 264.203 90.8026 264.288C90.472 264.373 90.216 264.485 90.0346 264.624C89.8533 264.752 89.7306 264.907 89.6666 265.088C89.6133 265.259 89.5866 265.445 89.5866 265.648C89.5866 266.011 89.6986 266.293 89.9226 266.496C90.1573 266.699 90.4986 266.8 90.9466 266.8C91.7466 266.8 92.3386 266.597 92.7226 266.192C93.1066 265.787 93.2986 265.237 93.2986 264.544V264.064L92.1306 264.112ZM93.3306 266.912C93.0213 267.285 92.6426 267.595 92.1946 267.84C91.7466 268.085 91.2026 268.208 90.5626 268.208C90.168 268.208 89.8 268.155 89.4586 268.048C89.1173 267.952 88.8186 267.803 88.5626 267.6C88.3173 267.397 88.12 267.141 87.9706 266.832C87.832 266.512 87.7626 266.139 87.7626 265.712C87.7626 265.136 87.8906 264.672 88.1466 264.32C88.4026 263.957 88.7333 263.675 89.1386 263.472C89.5546 263.269 90.0186 263.131 90.5306 263.056C91.0426 262.971 91.5546 262.917 92.0666 262.896L93.2986 262.832V262.48C93.2986 261.851 93.144 261.419 92.8346 261.184C92.536 260.939 92.1413 260.816 91.6506 260.816C91.0853 260.816 90.664 260.912 90.3866 261.104C90.12 261.296 89.944 261.573 89.8586 261.936L88.1946 261.76C88.344 260.949 88.712 260.357 89.2986 259.984C89.8853 259.611 90.6906 259.424 91.7146 259.424C92.376 259.424 92.92 259.509 93.3466 259.68C93.784 259.851 94.1306 260.085 94.3866 260.384C94.6426 260.683 94.8186 261.04 94.9146 261.456C95.0213 261.861 95.0746 262.309 95.0746 262.8V268H93.3306V266.912ZM98.7839 268.64C98.8799 269.088 99.0665 269.397 99.3439 269.568C99.6319 269.749 100.096 269.84 100.736 269.84C101.227 269.84 101.621 269.744 101.92 269.552C102.219 269.36 102.432 269.067 102.56 268.672C102.699 268.277 102.768 267.733 102.768 267.04V266.48C102.469 266.907 102.096 267.232 101.648 267.456C101.2 267.68 100.693 267.792 100.128 267.792C99.0079 267.792 98.1439 267.424 97.5359 266.688C96.9279 265.952 96.6239 264.933 96.6239 263.632C96.6239 262.363 96.9545 261.344 97.6159 260.576C98.2772 259.808 99.1625 259.424 100.272 259.424C101.317 259.424 102.165 259.845 102.816 260.688V259.68H104.592V266.752C104.592 268.352 104.283 269.504 103.664 270.208C103.045 270.923 102.069 271.28 100.736 271.28C99.5305 271.28 98.6239 271.067 98.0159 270.64C97.4185 270.224 97.0665 269.557 96.9599 268.64H98.7839ZM102.784 263.536C102.784 262.672 102.603 262.021 102.24 261.584C101.877 261.136 101.344 260.912 100.64 260.912C99.9785 260.912 99.4612 261.147 99.0879 261.616C98.7145 262.075 98.5279 262.741 98.5279 263.616C98.5279 264.48 98.7039 265.152 99.0559 265.632C99.4185 266.101 99.9199 266.336 100.56 266.336C101.264 266.336 101.808 266.117 102.192 265.68C102.587 265.232 102.784 264.603 102.784 263.792V263.536ZM113.894 265.536C113.745 266.4 113.377 267.072 112.79 267.552C112.203 268.021 111.361 268.256 110.262 268.256C108.939 268.256 107.931 267.877 107.238 267.12C106.555 266.352 106.214 265.275 106.214 263.888C106.214 263.173 106.31 262.539 106.502 261.984C106.705 261.429 106.982 260.965 107.334 260.592C107.697 260.208 108.123 259.92 108.614 259.728C109.115 259.525 109.665 259.424 110.262 259.424C110.902 259.424 111.457 259.525 111.926 259.728C112.395 259.92 112.785 260.197 113.094 260.56C113.403 260.912 113.633 261.339 113.782 261.84C113.931 262.331 114.006 262.88 114.006 263.488V264.288H108.038C108.059 265.045 108.251 265.659 108.614 266.128C108.977 266.597 109.526 266.832 110.262 266.832C110.838 266.832 111.27 266.72 111.558 266.496C111.846 266.272 112.038 265.952 112.134 265.536H113.894ZM112.23 263.024C112.23 262.341 112.07 261.803 111.75 261.408C111.43 261.013 110.918 260.816 110.214 260.816C109.542 260.816 109.03 261.019 108.678 261.424C108.326 261.819 108.123 262.352 108.07 263.024H112.23ZM116.871 265.456C116.903 265.733 116.978 265.963 117.095 266.144C117.212 266.315 117.356 266.453 117.527 266.56C117.708 266.667 117.916 266.741 118.151 266.784C118.386 266.816 118.636 266.832 118.903 266.832C119.511 266.832 119.948 266.741 120.215 266.56C120.482 266.379 120.615 266.112 120.615 265.76C120.615 265.483 120.53 265.248 120.359 265.056C120.199 264.864 119.863 264.725 119.351 264.64C118.69 264.523 118.108 264.411 117.607 264.304C117.106 264.197 116.684 264.053 116.343 263.872C116.002 263.68 115.746 263.44 115.575 263.152C115.404 262.853 115.319 262.453 115.319 261.952C115.319 261.568 115.404 261.221 115.575 260.912C115.746 260.592 115.98 260.325 116.279 260.112C116.588 259.888 116.951 259.717 117.367 259.6C117.794 259.483 118.258 259.424 118.759 259.424C119.399 259.424 119.932 259.488 120.359 259.616C120.786 259.744 121.132 259.92 121.399 260.144C121.666 260.368 121.868 260.624 122.007 260.912C122.146 261.2 122.252 261.504 122.327 261.824L120.695 262.048C120.567 261.632 120.37 261.323 120.103 261.12C119.847 260.917 119.415 260.816 118.807 260.816C118.455 260.816 118.167 260.848 117.943 260.912C117.719 260.976 117.538 261.056 117.399 261.152C117.271 261.248 117.18 261.355 117.127 261.472C117.084 261.589 117.063 261.707 117.063 261.824C117.063 262.005 117.084 262.155 117.127 262.272C117.17 262.389 117.244 262.485 117.351 262.56C117.468 262.635 117.623 262.699 117.815 262.752C118.007 262.805 118.247 262.859 118.535 262.912L119.575 263.088C120.13 263.184 120.588 263.307 120.951 263.456C121.324 263.605 121.618 263.792 121.831 264.016C122.055 264.229 122.21 264.48 122.295 264.768C122.38 265.056 122.423 265.376 122.423 265.728C122.423 266.485 122.135 267.099 121.559 267.568C120.983 268.027 120.108 268.256 118.935 268.256C118.455 268.256 117.991 268.208 117.543 268.112C117.106 268.027 116.711 267.877 116.359 267.664C116.007 267.451 115.719 267.168 115.495 266.816C115.282 266.453 115.159 266 115.127 265.456H116.871Z" fill="white"/>
<rect x="24" y="294" width="16" height="16" rx="2" fill="#BBDCD2"/>
<g clip-path="url(#clip3_2632_56225)">
<path d="M27.4287 302.292L30.5596 305.429L36.5716 299.423L35.7085 298.572L30.5596 303.715L28.2799 301.435L27.4287 302.292Z" fill="#111315"/>
</g>
<path d="M49.216 296.576H53.168C54.032 296.576 54.7413 296.672 55.296 296.864C55.8613 297.056 56.304 297.312 56.624 297.632C56.944 297.952 57.168 298.325 57.296 298.752C57.424 299.168 57.488 299.605 57.488 300.064C57.488 300.555 57.424 301.024 57.296 301.472C57.168 301.92 56.9387 302.315 56.608 302.656C56.288 302.987 55.8507 303.253 55.296 303.456C54.7413 303.648 54.0427 303.744 53.2 303.744H51.12V308H49.216V296.576ZM53.152 302.128C53.6427 302.128 54.0427 302.08 54.352 301.984C54.672 301.888 54.9227 301.755 55.104 301.584C55.2853 301.403 55.408 301.189 55.472 300.944C55.5467 300.699 55.584 300.421 55.584 300.112C55.584 299.792 55.5467 299.515 55.472 299.28C55.3973 299.035 55.264 298.832 55.072 298.672C54.8907 298.512 54.64 298.389 54.32 298.304C54.0107 298.219 53.616 298.176 53.136 298.176H51.12V302.128H53.152ZM60.6088 299.68V300.912C60.8968 300.475 61.2434 300.139 61.6488 299.904C62.0541 299.669 62.4861 299.552 62.9448 299.552C63.1261 299.552 63.2754 299.557 63.3928 299.568C63.5208 299.579 63.6434 299.595 63.7608 299.616L63.5528 301.28C63.4354 301.248 63.3074 301.227 63.1688 301.216C63.0301 301.205 62.8861 301.2 62.7368 301.2C62.3954 301.2 62.0968 301.259 61.8408 301.376C61.5848 301.483 61.3661 301.627 61.1848 301.808C61.0141 301.989 60.8808 302.197 60.7848 302.432C60.6994 302.656 60.6568 302.885 60.6568 303.12V308H58.8488V299.68H60.6088ZM68.3878 306.784C69.1558 306.784 69.7158 306.523 70.0678 306C70.4304 305.467 70.6118 304.741 70.6118 303.824C70.6118 302.917 70.4304 302.203 70.0678 301.68C69.7158 301.157 69.1558 300.896 68.3878 300.896C67.6198 300.896 67.0544 301.163 66.6918 301.696C66.3398 302.219 66.1638 302.928 66.1638 303.824C66.1638 304.731 66.3344 305.451 66.6758 305.984C67.0278 306.517 67.5984 306.784 68.3878 306.784ZM68.3718 308.256C67.0704 308.256 66.0624 307.872 65.3478 307.104C64.6331 306.336 64.2758 305.248 64.2758 303.84C64.2758 303.179 64.3664 302.576 64.5478 302.032C64.7398 301.488 65.0118 301.024 65.3638 300.64C65.7158 300.256 66.1478 299.957 66.6598 299.744C67.1718 299.531 67.7531 299.424 68.4038 299.424C69.0651 299.424 69.6518 299.536 70.1638 299.76C70.6758 299.973 71.1024 300.272 71.4438 300.656C71.7958 301.04 72.0571 301.504 72.2278 302.048C72.4091 302.581 72.4998 303.168 72.4998 303.808C72.4998 304.533 72.3984 305.173 72.1958 305.728C71.9931 306.272 71.7051 306.736 71.3318 307.12C70.9691 307.493 70.5371 307.776 70.0358 307.968C69.5344 308.16 68.9798 308.256 68.3718 308.256ZM74.1378 299.68H75.9138V300.832C76.2551 300.373 76.6444 300.027 77.0818 299.792C77.5298 299.547 78.0418 299.424 78.6178 299.424C79.2044 299.424 79.7164 299.531 80.1538 299.744C80.5911 299.947 80.9538 300.24 81.2418 300.624C81.5404 301.008 81.7591 301.472 81.8978 302.016C82.0471 302.549 82.1218 303.147 82.1218 303.808C82.1218 304.48 82.0364 305.093 81.8658 305.648C81.6951 306.192 81.4498 306.661 81.1298 307.056C80.8204 307.44 80.4418 307.739 79.9938 307.952C79.5458 308.155 79.0391 308.256 78.4738 308.256C78.0258 308.256 77.5884 308.171 77.1618 308C76.7351 307.829 76.3351 307.515 75.9618 307.056V311.104H74.1378V299.68ZM75.9458 303.984C75.9458 304.528 76.0044 304.981 76.1218 305.344C76.2391 305.696 76.3938 305.979 76.5858 306.192C76.7884 306.405 77.0178 306.555 77.2738 306.64C77.5404 306.725 77.8178 306.768 78.1058 306.768C78.4044 306.768 78.6818 306.715 78.9378 306.608C79.1938 306.501 79.4178 306.331 79.6098 306.096C79.8018 305.861 79.9511 305.557 80.0578 305.184C80.1644 304.811 80.2178 304.357 80.2178 303.824C80.2178 303.28 80.1591 302.827 80.0418 302.464C79.9351 302.091 79.7858 301.792 79.5938 301.568C79.4124 301.333 79.1991 301.168 78.9538 301.072C78.7084 300.976 78.4524 300.928 78.1858 300.928C77.5351 300.928 76.9964 301.141 76.5698 301.568C76.1538 301.995 75.9458 302.667 75.9458 303.584V303.984ZM87.4271 306.784C88.1951 306.784 88.7551 306.523 89.1071 306C89.4698 305.467 89.6511 304.741 89.6511 303.824C89.6511 302.917 89.4698 302.203 89.1071 301.68C88.7551 301.157 88.1951 300.896 87.4271 300.896C86.6591 300.896 86.0938 301.163 85.7311 301.696C85.3791 302.219 85.2031 302.928 85.2031 303.824C85.2031 304.731 85.3738 305.451 85.7151 305.984C86.0671 306.517 86.6378 306.784 87.4271 306.784ZM87.4111 308.256C86.1098 308.256 85.1018 307.872 84.3871 307.104C83.6725 306.336 83.3151 305.248 83.3151 303.84C83.3151 303.179 83.4058 302.576 83.5871 302.032C83.7791 301.488 84.0511 301.024 84.4031 300.64C84.7551 300.256 85.1871 299.957 85.6991 299.744C86.2111 299.531 86.7925 299.424 87.4431 299.424C88.1045 299.424 88.6911 299.536 89.2031 299.76C89.7151 299.973 90.1418 300.272 90.4831 300.656C90.8351 301.04 91.0965 301.504 91.2671 302.048C91.4485 302.581 91.5391 303.168 91.5391 303.808C91.5391 304.533 91.4378 305.173 91.2351 305.728C91.0325 306.272 90.7445 306.736 90.3711 307.12C90.0085 307.493 89.5765 307.776 89.0751 307.968C88.5738 308.16 88.0191 308.256 87.4111 308.256ZM94.4411 305.456C94.4731 305.733 94.5478 305.963 94.6651 306.144C94.7825 306.315 94.9265 306.453 95.0971 306.56C95.2785 306.667 95.4865 306.741 95.7211 306.784C95.9558 306.816 96.2065 306.832 96.4731 306.832C97.0811 306.832 97.5185 306.741 97.7851 306.56C98.0518 306.379 98.1851 306.112 98.1851 305.76C98.1851 305.483 98.0998 305.248 97.9291 305.056C97.7691 304.864 97.4331 304.725 96.9211 304.64C96.2598 304.523 95.6785 304.411 95.1771 304.304C94.6758 304.197 94.2545 304.053 93.9131 303.872C93.5718 303.68 93.3158 303.44 93.1451 303.152C92.9745 302.853 92.8891 302.453 92.8891 301.952C92.8891 301.568 92.9745 301.221 93.1451 300.912C93.3158 300.592 93.5505 300.325 93.8491 300.112C94.1585 299.888 94.5211 299.717 94.9371 299.6C95.3638 299.483 95.8278 299.424 96.3291 299.424C96.9691 299.424 97.5025 299.488 97.9291 299.616C98.3558 299.744 98.7025 299.92 98.9691 300.144C99.2358 300.368 99.4385 300.624 99.5771 300.912C99.7158 301.2 99.8225 301.504 99.8971 301.824L98.2651 302.048C98.1371 301.632 97.9398 301.323 97.6731 301.12C97.4171 300.917 96.9851 300.816 96.3771 300.816C96.0251 300.816 95.7371 300.848 95.5131 300.912C95.2891 300.976 95.1078 301.056 94.9691 301.152C94.8411 301.248 94.7505 301.355 94.6971 301.472C94.6545 301.589 94.6331 301.707 94.6331 301.824C94.6331 302.005 94.6545 302.155 94.6971 302.272C94.7398 302.389 94.8145 302.485 94.9211 302.56C95.0385 302.635 95.1931 302.699 95.3851 302.752C95.5771 302.805 95.8171 302.859 96.1051 302.912L97.1451 303.088C97.6998 303.184 98.1585 303.307 98.5211 303.456C98.8945 303.605 99.1878 303.792 99.4011 304.016C99.6251 304.229 99.7798 304.48 99.8651 304.768C99.9505 305.056 99.9931 305.376 99.9931 305.728C99.9931 306.485 99.7051 307.099 99.1291 307.568C98.5531 308.027 97.6785 308.256 96.5051 308.256C96.0251 308.256 95.5611 308.208 95.1131 308.112C94.6758 308.027 94.2811 307.877 93.9291 307.664C93.5771 307.451 93.2891 307.168 93.0651 306.816C92.8518 306.453 92.7291 306 92.6971 305.456H94.4411ZM105.358 304.112C104.814 304.144 104.371 304.203 104.03 304.288C103.699 304.373 103.443 304.485 103.262 304.624C103.08 304.752 102.958 304.907 102.894 305.088C102.84 305.259 102.814 305.445 102.814 305.648C102.814 306.011 102.926 306.293 103.15 306.496C103.384 306.699 103.726 306.8 104.174 306.8C104.974 306.8 105.566 306.597 105.95 306.192C106.334 305.787 106.526 305.237 106.526 304.544V304.064L105.358 304.112ZM106.558 306.912C106.248 307.285 105.87 307.595 105.422 307.84C104.974 308.085 104.43 308.208 103.79 308.208C103.395 308.208 103.027 308.155 102.686 308.048C102.344 307.952 102.046 307.803 101.79 307.6C101.544 307.397 101.347 307.141 101.198 306.832C101.059 306.512 100.99 306.139 100.99 305.712C100.99 305.136 101.118 304.672 101.374 304.32C101.63 303.957 101.96 303.675 102.366 303.472C102.782 303.269 103.246 303.131 103.758 303.056C104.27 302.971 104.782 302.917 105.294 302.896L106.526 302.832V302.48C106.526 301.851 106.371 301.419 106.062 301.184C105.763 300.939 105.368 300.816 104.878 300.816C104.312 300.816 103.891 300.912 103.614 301.104C103.347 301.296 103.171 301.573 103.086 301.936L101.422 301.76C101.571 300.949 101.939 300.357 102.526 299.984C103.112 299.611 103.918 299.424 104.942 299.424C105.603 299.424 106.147 299.509 106.574 299.68C107.011 299.851 107.358 300.085 107.614 300.384C107.87 300.683 108.046 301.04 108.142 301.456C108.248 301.861 108.302 302.309 108.302 302.8V308H106.558V306.912ZM111.979 296.576V308H110.155V296.576H111.979ZM115.164 305.456C115.196 305.733 115.271 305.963 115.388 306.144C115.506 306.315 115.65 306.453 115.82 306.56C116.002 306.667 116.21 306.741 116.444 306.784C116.679 306.816 116.93 306.832 117.196 306.832C117.804 306.832 118.242 306.741 118.508 306.56C118.775 306.379 118.908 306.112 118.908 305.76C118.908 305.483 118.823 305.248 118.652 305.056C118.492 304.864 118.156 304.725 117.644 304.64C116.983 304.523 116.402 304.411 115.9 304.304C115.399 304.197 114.978 304.053 114.636 303.872C114.295 303.68 114.039 303.44 113.868 303.152C113.698 302.853 113.612 302.453 113.612 301.952C113.612 301.568 113.698 301.221 113.868 300.912C114.039 300.592 114.274 300.325 114.572 300.112C114.882 299.888 115.244 299.717 115.66 299.6C116.087 299.483 116.551 299.424 117.052 299.424C117.692 299.424 118.226 299.488 118.652 299.616C119.079 299.744 119.426 299.92 119.692 300.144C119.959 300.368 120.162 300.624 120.3 300.912C120.439 301.2 120.546 301.504 120.62 301.824L118.988 302.048C118.86 301.632 118.663 301.323 118.396 301.12C118.14 300.917 117.708 300.816 117.1 300.816C116.748 300.816 116.46 300.848 116.236 300.912C116.012 300.976 115.831 301.056 115.692 301.152C115.564 301.248 115.474 301.355 115.42 301.472C115.378 301.589 115.356 301.707 115.356 301.824C115.356 302.005 115.378 302.155 115.42 302.272C115.463 302.389 115.538 302.485 115.644 302.56C115.762 302.635 115.916 302.699 116.108 302.752C116.3 302.805 116.54 302.859 116.828 302.912L117.868 303.088C118.423 303.184 118.882 303.307 119.244 303.456C119.618 303.605 119.911 303.792 120.124 304.016C120.348 304.229 120.503 304.48 120.588 304.768C120.674 305.056 120.716 305.376 120.716 305.728C120.716 306.485 120.428 307.099 119.852 307.568C119.276 308.027 118.402 308.256 117.228 308.256C116.748 308.256 116.284 308.208 115.836 308.112C115.399 308.027 115.004 307.877 114.652 307.664C114.3 307.451 114.012 307.168 113.788 306.816C113.575 306.453 113.452 306 113.42 305.456H115.164Z" fill="white"/>
<rect x="24" y="334" width="16" height="16" rx="2" fill="#BBDCD2"/>
<g clip-path="url(#clip4_2632_56225)">
<path d="M27.4287 342.292L30.5596 345.429L36.5716 339.423L35.7085 338.572L30.5596 343.715L28.2799 341.435L27.4287 342.292Z" fill="#111315"/>
</g>
<path d="M53.264 341.856C53.7013 341.856 54.064 341.813 54.352 341.728C54.64 341.632 54.864 341.504 55.024 341.344C55.1947 341.173 55.312 340.971 55.376 340.736C55.4507 340.501 55.488 340.24 55.488 339.952C55.488 339.685 55.4453 339.445 55.36 339.232C55.2853 339.008 55.152 338.821 54.96 338.672C54.7787 338.512 54.5333 338.389 54.224 338.304C53.9147 338.219 53.5307 338.176 53.072 338.176H51.12V341.856H53.264ZM53.12 336.576C53.984 336.576 54.6933 336.677 55.248 336.88C55.8133 337.083 56.256 337.349 56.576 337.68C56.9067 338 57.136 338.357 57.264 338.752C57.392 339.147 57.456 339.536 57.456 339.92C57.456 340.667 57.3067 341.291 57.008 341.792C56.72 342.293 56.2507 342.699 55.6 343.008L57.968 348H55.856L53.808 343.456C53.712 343.467 53.6107 343.477 53.504 343.488C53.3973 343.488 53.2853 343.488 53.168 343.488H51.12V348H49.216V336.576H53.12ZM66.2408 345.536C66.0914 346.4 65.7234 347.072 65.1368 347.552C64.5501 348.021 63.7074 348.256 62.6088 348.256C61.2861 348.256 60.2781 347.877 59.5848 347.12C58.9021 346.352 58.5608 345.275 58.5608 343.888C58.5608 343.173 58.6568 342.539 58.8488 341.984C59.0514 341.429 59.3288 340.965 59.6808 340.592C60.0434 340.208 60.4701 339.92 60.9608 339.728C61.4621 339.525 62.0114 339.424 62.6088 339.424C63.2488 339.424 63.8034 339.525 64.2728 339.728C64.7421 339.92 65.1314 340.197 65.4408 340.56C65.7501 340.912 65.9794 341.339 66.1288 341.84C66.2781 342.331 66.3528 342.88 66.3528 343.488V344.288H60.3848C60.4061 345.045 60.5981 345.659 60.9608 346.128C61.3234 346.597 61.8728 346.832 62.6088 346.832C63.1848 346.832 63.6168 346.72 63.9048 346.496C64.1928 346.272 64.3848 345.952 64.4808 345.536H66.2408ZM64.5768 343.024C64.5768 342.341 64.4168 341.803 64.0968 341.408C63.7768 341.013 63.2648 340.816 62.5608 340.816C61.8888 340.816 61.3768 341.019 61.0248 341.424C60.6728 341.819 60.4701 342.352 60.4168 343.024H64.5768ZM69.73 339.68V340.88C70.306 340.08 70.9887 339.616 71.778 339.488C71.9807 339.456 72.194 339.44 72.418 339.44C72.9833 339.461 73.442 339.605 73.794 339.872C74.146 340.128 74.402 340.48 74.562 340.928C75.298 339.925 76.2047 339.424 77.282 339.424C78.1673 339.424 78.818 339.669 79.234 340.16C79.65 340.651 79.858 341.435 79.858 342.512V348H78.034V343.008C78.034 342.603 78.0073 342.267 77.954 342C77.9007 341.733 77.8207 341.525 77.714 341.376C77.618 341.216 77.49 341.109 77.33 341.056C77.17 340.992 76.9887 340.96 76.786 340.96C76.466 340.96 76.1833 341.019 75.938 341.136C75.6927 341.253 75.4847 341.408 75.314 341.6C75.154 341.792 75.0313 342.011 74.946 342.256C74.8607 342.491 74.818 342.736 74.818 342.992V348H72.994V342.832C72.994 342.117 72.882 341.627 72.658 341.36C72.4447 341.093 72.146 340.96 71.762 340.96C71.602 340.96 71.41 340.997 71.186 341.072C70.962 341.136 70.7433 341.248 70.53 341.408C70.3273 341.568 70.1513 341.781 70.002 342.048C69.8527 342.315 69.778 342.64 69.778 343.024V348H67.97V339.68H69.73ZM83.5726 336.576V338.384H81.6846V336.576H83.5726ZM83.5406 339.68V348H81.7166V339.68H83.5406ZM87.2381 339.68V340.896C87.6115 340.384 88.0275 340.011 88.4861 339.776C88.9555 339.541 89.4568 339.424 89.9901 339.424C91.8461 339.424 92.7741 340.448 92.7741 342.496V348H90.9501V342.784C90.9501 342.112 90.8275 341.643 90.5821 341.376C90.3368 341.099 89.9741 340.96 89.4941 340.96C89.1741 340.96 88.8755 341.019 88.5981 341.136C88.3315 341.243 88.1021 341.392 87.9101 341.584C87.7181 341.776 87.5635 342 87.4461 342.256C87.3395 342.501 87.2861 342.763 87.2861 343.04V348H85.4781V339.68H87.2381ZM100.487 343.664C100.487 343.141 100.428 342.704 100.311 342.352C100.204 341.989 100.05 341.707 99.847 341.504C99.655 341.291 99.4257 341.141 99.159 341.056C98.903 340.96 98.631 340.912 98.343 340.912C97.671 340.912 97.1483 341.152 96.775 341.632C96.4123 342.112 96.231 342.843 96.231 343.824C96.231 344.357 96.279 344.811 96.375 345.184C96.4817 345.557 96.6257 345.861 96.807 346.096C96.999 346.331 97.2177 346.501 97.463 346.608C97.7083 346.715 97.975 346.768 98.263 346.768C98.9243 346.768 99.4577 346.555 99.863 346.128C100.279 345.691 100.487 345.013 100.487 344.096V343.664ZM100.503 346.848C100.162 347.317 99.7723 347.669 99.335 347.904C98.9083 348.139 98.407 348.256 97.831 348.256C97.2337 348.256 96.7163 348.149 96.279 347.936C95.8417 347.723 95.479 347.424 95.191 347.04C94.903 346.645 94.6843 346.181 94.535 345.648C94.3963 345.104 94.327 344.507 94.327 343.856C94.327 343.248 94.4017 342.683 94.551 342.16C94.7003 341.627 94.919 341.168 95.207 340.784C95.495 340.389 95.847 340.075 96.263 339.84C96.6897 339.605 97.1803 339.477 97.735 339.456C97.8417 339.445 97.9483 339.445 98.055 339.456C98.1617 339.456 98.2737 339.461 98.391 339.472C98.7643 339.515 99.1217 339.621 99.463 339.792C99.815 339.952 100.151 340.224 100.471 340.608V336.576H102.279V348H100.503V346.848ZM111.597 345.536C111.448 346.4 111.08 347.072 110.493 347.552C109.906 348.021 109.064 348.256 107.965 348.256C106.642 348.256 105.634 347.877 104.941 347.12C104.258 346.352 103.917 345.275 103.917 343.888C103.917 343.173 104.013 342.539 104.205 341.984C104.408 341.429 104.685 340.965 105.037 340.592C105.4 340.208 105.826 339.92 106.317 339.728C106.818 339.525 107.368 339.424 107.965 339.424C108.605 339.424 109.16 339.525 109.629 339.728C110.098 339.92 110.488 340.197 110.797 340.56C111.106 340.912 111.336 341.339 111.485 341.84C111.634 342.331 111.709 342.88 111.709 343.488V344.288H105.741C105.762 345.045 105.954 345.659 106.317 346.128C106.68 346.597 107.229 346.832 107.965 346.832C108.541 346.832 108.973 346.72 109.261 346.496C109.549 346.272 109.741 345.952 109.837 345.536H111.597ZM109.933 343.024C109.933 342.341 109.773 341.803 109.453 341.408C109.133 341.013 108.621 340.816 107.917 340.816C107.245 340.816 106.733 341.019 106.381 341.424C106.029 341.819 105.826 342.352 105.773 343.024H109.933ZM115.086 339.68V340.912C115.374 340.475 115.721 340.139 116.126 339.904C116.532 339.669 116.964 339.552 117.422 339.552C117.604 339.552 117.753 339.557 117.87 339.568C117.998 339.579 118.121 339.595 118.238 339.616L118.03 341.28C117.913 341.248 117.785 341.227 117.646 341.216C117.508 341.205 117.364 341.2 117.214 341.2C116.873 341.2 116.574 341.259 116.318 341.376C116.062 341.483 115.844 341.627 115.662 341.808C115.492 341.989 115.358 342.197 115.262 342.432C115.177 342.656 115.134 342.885 115.134 343.12V348H113.326V339.68H115.086ZM120.539 345.456C120.571 345.733 120.646 345.963 120.763 346.144C120.881 346.315 121.025 346.453 121.195 346.56C121.377 346.667 121.585 346.741 121.819 346.784C122.054 346.816 122.305 346.832 122.571 346.832C123.179 346.832 123.617 346.741 123.883 346.56C124.15 346.379 124.283 346.112 124.283 345.76C124.283 345.483 124.198 345.248 124.027 345.056C123.867 344.864 123.531 344.725 123.019 344.64C122.358 344.523 121.777 344.411 121.275 344.304C120.774 344.197 120.353 344.053 120.011 343.872C119.67 343.68 119.414 343.44 119.243 343.152C119.073 342.853 118.987 342.453 118.987 341.952C118.987 341.568 119.073 341.221 119.243 340.912C119.414 340.592 119.649 340.325 119.947 340.112C120.257 339.888 120.619 339.717 121.035 339.6C121.462 339.483 121.926 339.424 122.427 339.424C123.067 339.424 123.601 339.488 124.027 339.616C124.454 339.744 124.801 339.92 125.067 340.144C125.334 340.368 125.537 340.624 125.675 340.912C125.814 341.2 125.921 341.504 125.995 341.824L124.363 342.048C124.235 341.632 124.038 341.323 123.771 341.12C123.515 340.917 123.083 340.816 122.475 340.816C122.123 340.816 121.835 340.848 121.611 340.912C121.387 340.976 121.206 341.056 121.067 341.152C120.939 341.248 120.849 341.355 120.795 341.472C120.753 341.589 120.731 341.707 120.731 341.824C120.731 342.005 120.753 342.155 120.795 342.272C120.838 342.389 120.913 342.485 121.019 342.56C121.137 342.635 121.291 342.699 121.483 342.752C121.675 342.805 121.915 342.859 122.203 342.912L123.243 343.088C123.798 343.184 124.257 343.307 124.619 343.456C124.993 343.605 125.286 343.792 125.499 344.016C125.723 344.229 125.878 344.48 125.963 344.768C126.049 345.056 126.091 345.376 126.091 345.728C126.091 346.485 125.803 347.099 125.227 347.568C124.651 348.027 123.777 348.256 122.603 348.256C122.123 348.256 121.659 348.208 121.211 348.112C120.774 348.027 120.379 347.877 120.027 347.664C119.675 347.451 119.387 347.168 119.163 346.816C118.95 346.453 118.827 346 118.795 345.456H120.539Z" fill="white"/>
<path d="M29.264 141.856C29.7013 141.856 30.064 141.813 30.352 141.728C30.64 141.632 30.864 141.504 31.024 141.344C31.1947 141.173 31.312 140.971 31.376 140.736C31.4507 140.501 31.488 140.24 31.488 139.952C31.488 139.685 31.4453 139.445 31.36 139.232C31.2853 139.008 31.152 138.821 30.96 138.672C30.7787 138.512 30.5333 138.389 30.224 138.304C29.9147 138.219 29.5307 138.176 29.072 138.176H27.12V141.856H29.264ZM29.12 136.576C29.984 136.576 30.6933 136.677 31.248 136.88C31.8133 137.083 32.256 137.349 32.576 137.68C32.9067 138 33.136 138.357 33.264 138.752C33.392 139.147 33.456 139.536 33.456 139.92C33.456 140.667 33.3067 141.291 33.008 141.792C32.72 142.293 32.2507 142.699 31.6 143.008L33.968 148H31.856L29.808 143.456C29.712 143.467 29.6107 143.477 29.504 143.488C29.3973 143.488 29.2853 143.488 29.168 143.488H27.12V148H25.216V136.576H29.12ZM42.4008 145.536C42.2514 146.4 41.8834 147.072 41.2968 147.552C40.7101 148.021 39.8674 148.256 38.7688 148.256C37.4461 148.256 36.4381 147.877 35.7448 147.12C35.0621 146.352 34.7208 145.275 34.7208 143.888C34.7208 143.173 34.8168 142.539 35.0088 141.984C35.2114 141.429 35.4888 140.965 35.8408 140.592C36.2034 140.208 36.6301 139.92 37.1208 139.728C37.6221 139.525 38.1714 139.424 38.7688 139.424C39.4088 139.424 39.9634 139.525 40.4328 139.728C40.9021 139.92 41.2914 140.197 41.6008 140.56C41.9101 140.912 42.1394 141.339 42.2888 141.84C42.4381 142.331 42.5128 142.88 42.5128 143.488V144.288H36.5448C36.5661 145.045 36.7581 145.659 37.1208 146.128C37.4834 146.597 38.0328 146.832 38.7688 146.832C39.3448 146.832 39.7768 146.72 40.0648 146.496C40.3528 146.272 40.5448 145.952 40.6408 145.536H42.4008ZM40.7368 143.024C40.7368 142.341 40.5768 141.803 40.2568 141.408C39.9368 141.013 39.4248 140.816 38.7208 140.816C38.0488 140.816 37.5368 141.019 37.1848 141.424C36.8328 141.819 36.6301 142.352 36.5768 143.024H40.7368ZM51.618 145.088C51.5113 146.08 51.154 146.859 50.546 147.424C49.9487 147.979 49.09 148.256 47.97 148.256C47.298 148.256 46.7113 148.155 46.21 147.952C45.7193 147.739 45.3087 147.44 44.978 147.056C44.6473 146.672 44.402 146.213 44.242 145.68C44.082 145.136 44.002 144.533 44.002 143.872C44.002 143.211 44.0927 142.608 44.274 142.064C44.4553 141.509 44.7167 141.04 45.058 140.656C45.41 140.261 45.8367 139.957 46.338 139.744C46.8393 139.531 47.41 139.424 48.05 139.424C48.6367 139.424 49.1327 139.504 49.538 139.664C49.9433 139.813 50.2793 140.021 50.546 140.288C50.8127 140.544 51.0207 140.843 51.17 141.184C51.3193 141.525 51.426 141.883 51.49 142.256L49.682 142.528C49.5967 142.059 49.4313 141.669 49.186 141.36C48.9513 141.051 48.5513 140.896 47.986 140.896C47.5807 140.896 47.2447 140.981 46.978 141.152C46.7113 141.323 46.498 141.547 46.338 141.824C46.178 142.091 46.0607 142.4 45.986 142.752C45.922 143.104 45.89 143.461 45.89 143.824C45.89 144.24 45.9273 144.629 46.002 144.992C46.0767 145.355 46.194 145.669 46.354 145.936C46.514 146.192 46.7273 146.4 46.994 146.56C47.2607 146.709 47.586 146.784 47.97 146.784C48.5247 146.784 48.946 146.64 49.234 146.352C49.522 146.053 49.7033 145.632 49.778 145.088H51.618ZM60.4789 145.536C60.3295 146.4 59.9615 147.072 59.3749 147.552C58.7882 148.021 57.9455 148.256 56.8469 148.256C55.5242 148.256 54.5162 147.877 53.8229 147.12C53.1402 146.352 52.7989 145.275 52.7989 143.888C52.7989 143.173 52.8949 142.539 53.0869 141.984C53.2895 141.429 53.5669 140.965 53.9189 140.592C54.2815 140.208 54.7082 139.92 55.1989 139.728C55.7002 139.525 56.2495 139.424 56.8469 139.424C57.4869 139.424 58.0415 139.525 58.5109 139.728C58.9802 139.92 59.3695 140.197 59.6789 140.56C59.9882 140.912 60.2175 141.339 60.3669 141.84C60.5162 142.331 60.5909 142.88 60.5909 143.488V144.288H54.6229C54.6442 145.045 54.8362 145.659 55.1989 146.128C55.5615 146.597 56.1109 146.832 56.8469 146.832C57.4229 146.832 57.8549 146.72 58.1429 146.496C58.4309 146.272 58.6229 145.952 58.7189 145.536H60.4789ZM58.8149 143.024C58.8149 142.341 58.6549 141.803 58.3349 141.408C58.0149 141.013 57.5029 140.816 56.7989 140.816C56.1269 140.816 55.6149 141.019 55.2629 141.424C54.9109 141.819 54.7082 142.352 54.6549 143.024H58.8149ZM64.2401 136.576V138.384H62.3521V136.576H64.2401ZM64.2081 139.68V148H62.3841V139.68H64.2081ZM67.4896 139.68L69.6496 145.952L71.8416 139.68H73.8576L70.5456 148H68.6736L65.3776 139.68H67.4896ZM81.9945 145.536C81.8452 146.4 81.4772 147.072 80.8905 147.552C80.3038 148.021 79.4612 148.256 78.3625 148.256C77.0398 148.256 76.0318 147.877 75.3385 147.12C74.6558 146.352 74.3145 145.275 74.3145 143.888C74.3145 143.173 74.4105 142.539 74.6025 141.984C74.8052 141.429 75.0825 140.965 75.4345 140.592C75.7972 140.208 76.2238 139.92 76.7145 139.728C77.2158 139.525 77.7652 139.424 78.3625 139.424C79.0025 139.424 79.5572 139.525 80.0265 139.728C80.4958 139.92 80.8852 140.197 81.1945 140.56C81.5038 140.912 81.7332 141.339 81.8825 141.84C82.0318 142.331 82.1065 142.88 82.1065 143.488V144.288H76.1385C76.1598 145.045 76.3518 145.659 76.7145 146.128C77.0772 146.597 77.6265 146.832 78.3625 146.832C78.9385 146.832 79.3705 146.72 79.6585 146.496C79.9465 146.272 80.1385 145.952 80.2345 145.536H81.9945ZM80.3305 143.024C80.3305 142.341 80.1705 141.803 79.8505 141.408C79.5305 141.013 79.0185 140.816 78.3145 140.816C77.6425 140.816 77.1305 141.019 76.7785 141.424C76.4265 141.819 76.2238 142.352 76.1705 143.024H80.3305ZM89.2063 139.68V140.896C89.5796 140.384 89.9956 140.011 90.4543 139.776C90.9236 139.541 91.4249 139.424 91.9583 139.424C93.8143 139.424 94.7423 140.448 94.7423 142.496V148H92.9183V142.784C92.9183 142.112 92.7956 141.643 92.5503 141.376C92.3049 141.099 91.9423 140.96 91.4623 140.96C91.1423 140.96 90.8436 141.019 90.5663 141.136C90.2996 141.243 90.0703 141.392 89.8783 141.584C89.6863 141.776 89.5316 142 89.4143 142.256C89.3076 142.501 89.2543 142.763 89.2543 143.04V148H87.4463V139.68H89.2063ZM100.567 146.784C101.335 146.784 101.895 146.523 102.247 146C102.61 145.467 102.791 144.741 102.791 143.824C102.791 142.917 102.61 142.203 102.247 141.68C101.895 141.157 101.335 140.896 100.567 140.896C99.7991 140.896 99.2338 141.163 98.8711 141.696C98.5191 142.219 98.3431 142.928 98.3431 143.824C98.3431 144.731 98.5138 145.451 98.8551 145.984C99.2071 146.517 99.7778 146.784 100.567 146.784ZM100.551 148.256C99.2498 148.256 98.2418 147.872 97.5271 147.104C96.8125 146.336 96.4551 145.248 96.4551 143.84C96.4551 143.179 96.5458 142.576 96.7271 142.032C96.9191 141.488 97.1911 141.024 97.5431 140.64C97.8951 140.256 98.3271 139.957 98.8391 139.744C99.3511 139.531 99.9325 139.424 100.583 139.424C101.244 139.424 101.831 139.536 102.343 139.76C102.855 139.973 103.282 140.272 103.623 140.656C103.975 141.04 104.236 141.504 104.407 142.048C104.588 142.581 104.679 143.168 104.679 143.808C104.679 144.533 104.578 145.173 104.375 145.728C104.172 146.272 103.884 146.736 103.511 147.12C103.148 147.493 102.716 147.776 102.215 147.968C101.714 148.16 101.159 148.256 100.551 148.256ZM105.677 141.12V139.68H106.989V137.44H108.797V139.68H110.861V141.12H108.797V145.472C108.797 145.899 108.882 146.208 109.053 146.4C109.234 146.592 109.496 146.688 109.837 146.688C110.018 146.688 110.189 146.677 110.349 146.656C110.52 146.635 110.685 146.597 110.845 146.544L111.117 147.904C110.605 148.075 110.05 148.16 109.453 148.16C108.536 148.16 107.896 147.925 107.533 147.456C107.17 146.976 106.989 146.261 106.989 145.312V141.12H105.677ZM114.178 136.576V138.384H112.29V136.576H114.178ZM114.146 139.68V148H112.322V139.68H114.146ZM116.755 141.12H115.459V139.68H116.755V139.2C116.755 138.325 116.995 137.648 117.475 137.168C117.955 136.688 118.622 136.448 119.475 136.448C120.04 136.448 120.563 136.523 121.043 136.672L120.771 138.032C120.451 137.936 120.131 137.888 119.811 137.888C119.416 137.888 119.112 137.995 118.899 138.208C118.686 138.421 118.579 138.736 118.579 139.152V139.68H120.595V141.12H118.579V148H116.755V141.12ZM123.811 136.576V138.384H121.923V136.576H123.811ZM123.779 139.68V148H121.955V139.68H123.779ZM133.196 145.088C133.089 146.08 132.732 146.859 132.124 147.424C131.527 147.979 130.668 148.256 129.548 148.256C128.876 148.256 128.289 148.155 127.788 147.952C127.297 147.739 126.887 147.44 126.556 147.056C126.225 146.672 125.98 146.213 125.82 145.68C125.66 145.136 125.58 144.533 125.58 143.872C125.58 143.211 125.671 142.608 125.852 142.064C126.033 141.509 126.295 141.04 126.636 140.656C126.988 140.261 127.415 139.957 127.916 139.744C128.417 139.531 128.988 139.424 129.628 139.424C130.215 139.424 130.711 139.504 131.116 139.664C131.521 139.813 131.857 140.021 132.124 140.288C132.391 140.544 132.599 140.843 132.748 141.184C132.897 141.525 133.004 141.883 133.068 142.256L131.26 142.528C131.175 142.059 131.009 141.669 130.764 141.36C130.529 141.051 130.129 140.896 129.564 140.896C129.159 140.896 128.823 140.981 128.556 141.152C128.289 141.323 128.076 141.547 127.916 141.824C127.756 142.091 127.639 142.4 127.564 142.752C127.5 143.104 127.468 143.461 127.468 143.824C127.468 144.24 127.505 144.629 127.58 144.992C127.655 145.355 127.772 145.669 127.932 145.936C128.092 146.192 128.305 146.4 128.572 146.56C128.839 146.709 129.164 146.784 129.548 146.784C130.103 146.784 130.524 146.64 130.812 146.352C131.1 146.053 131.281 145.632 131.356 145.088H133.196ZM138.739 144.112C138.195 144.144 137.753 144.203 137.411 144.288C137.081 144.373 136.825 144.485 136.643 144.624C136.462 144.752 136.339 144.907 136.275 145.088C136.222 145.259 136.195 145.445 136.195 145.648C136.195 146.011 136.307 146.293 136.531 146.496C136.766 146.699 137.107 146.8 137.555 146.8C138.355 146.8 138.947 146.597 139.331 146.192C139.715 145.787 139.907 145.237 139.907 144.544V144.064L138.739 144.112ZM139.939 146.912C139.63 147.285 139.251 147.595 138.803 147.84C138.355 148.085 137.811 148.208 137.171 148.208C136.777 148.208 136.409 148.155 136.067 148.048C135.726 147.952 135.427 147.803 135.171 147.6C134.926 147.397 134.729 147.141 134.579 146.832C134.441 146.512 134.371 146.139 134.371 145.712C134.371 145.136 134.499 144.672 134.755 144.32C135.011 143.957 135.342 143.675 135.747 143.472C136.163 143.269 136.627 143.131 137.139 143.056C137.651 142.971 138.163 142.917 138.675 142.896L139.907 142.832V142.48C139.907 141.851 139.753 141.419 139.443 141.184C139.145 140.939 138.75 140.816 138.259 140.816C137.694 140.816 137.273 140.912 136.995 141.104C136.729 141.296 136.553 141.573 136.467 141.936L134.803 141.76C134.953 140.949 135.321 140.357 135.907 139.984C136.494 139.611 137.299 139.424 138.323 139.424C138.985 139.424 139.529 139.509 139.955 139.68C140.393 139.851 140.739 140.085 140.995 140.384C141.251 140.683 141.427 141.04 141.523 141.456C141.63 141.861 141.683 142.309 141.683 142.8V148H139.939V146.912ZM142.865 141.12V139.68H144.177V137.44H145.985V139.68H148.049V141.12H145.985V145.472C145.985 145.899 146.07 146.208 146.241 146.4C146.422 146.592 146.683 146.688 147.025 146.688C147.206 146.688 147.377 146.677 147.537 146.656C147.707 146.635 147.873 146.597 148.033 146.544L148.305 147.904C147.793 148.075 147.238 148.16 146.641 148.16C145.723 148.16 145.083 147.925 144.721 147.456C144.358 146.976 144.177 146.261 144.177 145.312V141.12H142.865ZM151.365 136.576V138.384H149.477V136.576H151.365ZM151.333 139.68V148H149.509V139.68H151.333ZM157.255 146.784C158.023 146.784 158.583 146.523 158.935 146C159.297 145.467 159.479 144.741 159.479 143.824C159.479 142.917 159.297 142.203 158.935 141.68C158.583 141.157 158.023 140.896 157.255 140.896C156.487 140.896 155.921 141.163 155.559 141.696C155.207 142.219 155.031 142.928 155.031 143.824C155.031 144.731 155.201 145.451 155.543 145.984C155.895 146.517 156.465 146.784 157.255 146.784ZM157.239 148.256C155.937 148.256 154.929 147.872 154.215 147.104C153.5 146.336 153.143 145.248 153.143 143.84C153.143 143.179 153.233 142.576 153.415 142.032C153.607 141.488 153.879 141.024 154.231 140.64C154.583 140.256 155.015 139.957 155.527 139.744C156.039 139.531 156.62 139.424 157.271 139.424C157.932 139.424 158.519 139.536 159.031 139.76C159.543 139.973 159.969 140.272 160.311 140.656C160.663 141.04 160.924 141.504 161.095 142.048C161.276 142.581 161.367 143.168 161.367 143.808C161.367 144.533 161.265 145.173 161.063 145.728C160.86 146.272 160.572 146.736 160.199 147.12C159.836 147.493 159.404 147.776 158.903 147.968C158.401 148.16 157.847 148.256 157.239 148.256ZM164.941 139.68V140.896C165.314 140.384 165.73 140.011 166.189 139.776C166.658 139.541 167.159 139.424 167.693 139.424C169.549 139.424 170.477 140.448 170.477 142.496V148H168.653V142.784C168.653 142.112 168.53 141.643 168.285 141.376C168.039 141.099 167.677 140.96 167.197 140.96C166.877 140.96 166.578 141.019 166.301 141.136C166.034 141.243 165.805 141.392 165.613 141.584C165.421 141.776 165.266 142 165.149 142.256C165.042 142.501 164.989 142.763 164.989 143.04V148H163.181V139.68H164.941ZM173.726 145.456C173.758 145.733 173.832 145.963 173.95 146.144C174.067 146.315 174.211 146.453 174.382 146.56C174.563 146.667 174.771 146.741 175.006 146.784C175.24 146.816 175.491 146.832 175.758 146.832C176.366 146.832 176.803 146.741 177.07 146.56C177.336 146.379 177.47 146.112 177.47 145.76C177.47 145.483 177.384 145.248 177.214 145.056C177.054 144.864 176.718 144.725 176.206 144.64C175.544 144.523 174.963 144.411 174.462 144.304C173.96 144.197 173.539 144.053 173.198 143.872C172.856 143.68 172.6 143.44 172.43 143.152C172.259 142.853 172.174 142.453 172.174 141.952C172.174 141.568 172.259 141.221 172.43 140.912C172.6 140.592 172.835 140.325 173.134 140.112C173.443 139.888 173.806 139.717 174.222 139.6C174.648 139.483 175.112 139.424 175.614 139.424C176.254 139.424 176.787 139.488 177.214 139.616C177.64 139.744 177.987 139.92 178.254 140.144C178.52 140.368 178.723 140.624 178.862 140.912C179 141.2 179.107 141.504 179.182 141.824L177.55 142.048C177.422 141.632 177.224 141.323 176.958 141.12C176.702 140.917 176.27 140.816 175.661 140.816C175.31 140.816 175.022 140.848 174.798 140.912C174.574 140.976 174.392 141.056 174.254 141.152C174.126 141.248 174.035 141.355 173.982 141.472C173.939 141.589 173.918 141.707 173.918 141.824C173.918 142.005 173.939 142.155 173.982 142.272C174.024 142.389 174.099 142.485 174.206 142.56C174.323 142.635 174.478 142.699 174.67 142.752C174.862 142.805 175.102 142.859 175.39 142.912L176.43 143.088C176.984 143.184 177.443 143.307 177.806 143.456C178.179 143.605 178.472 143.792 178.686 144.016C178.91 144.229 179.064 144.48 179.15 144.768C179.235 145.056 179.278 145.376 179.278 145.728C179.278 146.485 178.99 147.099 178.414 147.568C177.838 148.027 176.963 148.256 175.79 148.256C175.31 148.256 174.846 148.208 174.398 148.112C173.96 148.027 173.566 147.877 173.214 147.664C172.862 147.451 172.574 147.168 172.35 146.816C172.136 146.453 172.014 146 171.982 145.456H173.726ZM185.036 141.12H183.74V139.68H185.036V139.2C185.036 138.325 185.276 137.648 185.756 137.168C186.236 136.688 186.903 136.448 187.756 136.448C188.322 136.448 188.844 136.523 189.324 136.672L189.052 138.032C188.732 137.936 188.412 137.888 188.092 137.888C187.698 137.888 187.394 137.995 187.18 138.208C186.967 138.421 186.86 138.736 186.86 139.152V139.68H188.876V141.12H186.86V148H185.036V141.12ZM193.817 146.784C194.585 146.784 195.145 146.523 195.497 146C195.86 145.467 196.041 144.741 196.041 143.824C196.041 142.917 195.86 142.203 195.497 141.68C195.145 141.157 194.585 140.896 193.817 140.896C193.049 140.896 192.484 141.163 192.121 141.696C191.769 142.219 191.593 142.928 191.593 143.824C191.593 144.731 191.764 145.451 192.105 145.984C192.457 146.517 193.028 146.784 193.817 146.784ZM193.801 148.256C192.5 148.256 191.492 147.872 190.777 147.104C190.062 146.336 189.705 145.248 189.705 143.84C189.705 143.179 189.796 142.576 189.977 142.032C190.169 141.488 190.441 141.024 190.793 140.64C191.145 140.256 191.577 139.957 192.089 139.744C192.601 139.531 193.182 139.424 193.833 139.424C194.494 139.424 195.081 139.536 195.593 139.76C196.105 139.973 196.532 140.272 196.873 140.656C197.225 141.04 197.486 141.504 197.657 142.048C197.838 142.581 197.929 143.168 197.929 143.808C197.929 144.533 197.828 145.173 197.625 145.728C197.422 146.272 197.134 146.736 196.761 147.12C196.398 147.493 195.966 147.776 195.465 147.968C194.964 148.16 194.409 148.256 193.801 148.256ZM201.503 139.68V140.912C201.791 140.475 202.138 140.139 202.543 139.904C202.948 139.669 203.38 139.552 203.839 139.552C204.02 139.552 204.17 139.557 204.287 139.568C204.415 139.579 204.538 139.595 204.655 139.616L204.447 141.28C204.33 141.248 204.202 141.227 204.063 141.216C203.924 141.205 203.78 141.2 203.631 141.2C203.29 141.2 202.991 141.259 202.735 141.376C202.479 141.483 202.26 141.627 202.079 141.808C201.908 141.989 201.775 142.197 201.679 142.432C201.594 142.656 201.551 142.885 201.551 143.12V148H199.743V139.68H201.503Z" fill="white"/>
<rect x="0.5" y="0.5" width="539" height="393" rx="11.5" stroke="#3B3D40"/>
<defs>
<clipPath id="clip0_2632_56225">
<rect width="9.14286" height="9.14286" fill="white" transform="translate(27.4287 177.429)"/>
</clipPath>
<clipPath id="clip1_2632_56225">
<rect width="9.14286" height="9.14286" fill="white" transform="translate(27.4287 217.429)"/>
</clipPath>
<clipPath id="clip2_2632_56225">
<rect width="9.14286" height="9.14286" fill="white" transform="translate(27.4287 257.429)"/>
</clipPath>
<clipPath id="clip3_2632_56225">
<rect width="9.14286" height="9.14286" fill="white" transform="translate(27.4287 297.429)"/>
</clipPath>
<clipPath id="clip4_2632_56225">
<rect width="9.14286" height="9.14286" fill="white" transform="translate(27.4287 337.429)"/>
</clipPath>
</defs>
</svg>
